<?xml version="1.0" encoding="UTF-8" standalone="no"?>
<!DOCTYPE svg PUBLIC "-//W3C//DTD SVG 1.1//EN"
 "http://www.w3.org/Graphics/SVG/1.1/DTD/svg11.dtd">
<!-- Generated by graphviz version 2.36.0 (20140111.2315)
 -->
<!-- Title: family Pages: 1 -->
<svg width="3436pt" height="1170pt"
 viewBox="0.00 0.00 3436.00 1170.00" xmlns="http://www.w3.org/2000/svg" xmlns:xlink="http://www.w3.org/1999/xlink">
<g id="graph0" class="graph" transform="scale(1 1) rotate(0) translate(4 1166)">
<title>family</title>
<polygon fill="white" stroke="none" points="-4,4 -4,-1166 3432,-1166 3432,4 -4,4"/>
<!-- 157 -->
<g id="node1" class="node"><title>157</title>
<g id="a_node1"><a xlink:href="/character/display?id=Aegon_V_Targaryen" xlink:title="Aegon V Targaryen" target="_blank">
<polygon fill="white" stroke="black" points="1119.25,-1161.5 956.75,-1161.5 956.75,-998.5 1119.25,-998.5 1119.25,-1161.5"/>
</a>
</g>
<g id="a_node1_0"><a xlink:href="http://awoiaf.westeros.org/index.php/Aegon_V_Targaryen" xlink:title="Aegon V Targaryen" target="_blank">
<text text-anchor="start" x="969.5" y="-1083.3" font-family="Times,serif" font-size="14.00">Aegon V Targaryen</text>
<text text-anchor="start" x="1009" y="-1068.3" font-family="Times,serif" font-size="14.00">200&#45;259</text>
</a>
</g>
<g><a xlink:href="/character/display?id=Aegon_V_Targaryen" xlink:title="Aegon V Targaryen" target="_blank">
</a>
</g>
</g>
<!-- 157+158 -->
<g id="node45" class="node"><title>157+158</title>
<ellipse fill="black" stroke="black" cx="1125" cy="-960" rx="1.8" ry="1.8"/>
</g>
<!-- 157&#45;&gt;157+158 -->
<g id="edge1" class="edge"><title>157&#45;&gt;157+158</title>
<path fill="none" stroke="black" d="M1097.47,-998.336C1110.85,-980.187 1121.89,-965.213 1124.44,-961.754"/>
</g>
<!-- 159 -->
<g id="node2" class="node"><title>159</title>
<g id="a_node2"><a xlink:href="/character/display?id=Duncan_Targaryen" xlink:title="Duncan Targaryen" target="_blank">
<polygon fill="white" stroke="black" points="1203.5,-906 1046.5,-906 1046.5,-748 1203.5,-748 1203.5,-906"/>
</a>
</g>
<g id="a_node2_1"><a xlink:href="http://awoiaf.westeros.org/index.php/Duncan_Targaryen" xlink:title="Duncan Targaryen" target="_blank">
<text text-anchor="start" x="1058.5" y="-830.3" font-family="Times,serif" font-size="14.00">Duncan Targaryen</text>
<text text-anchor="start" x="1095.5" y="-815.3" font-family="Times,serif" font-size="14.00">220&#45;259</text>
</a>
</g>
<g><a xlink:href="/character/display?id=Duncan_Targaryen" xlink:title="Duncan Targaryen" target="_blank">
</a>
</g>
</g>
<!-- 161 -->
<g id="node3" class="node"><title>161</title>
<g id="a_node3"><a xlink:href="/character/display?id=Jaehaerys_II_Targaryen" xlink:title="Jaehaerys II Targaryen" target="_blank">
<polygon fill="white" stroke="black" points="1412,-922 1222,-922 1222,-732 1412,-732 1412,-922"/>
</a>
</g>
<g id="a_node3_2"><a xlink:href="http://awoiaf.westeros.org/index.php/Jaehaerys_II_Targaryen" xlink:title="Jaehaerys II Targaryen" target="_blank">
<text text-anchor="start" x="1234.5" y="-830.3" font-family="Times,serif" font-size="14.00">Jaehaerys II Targaryen</text>
<text text-anchor="start" x="1287.5" y="-815.3" font-family="Times,serif" font-size="14.00">225&#45;262</text>
</a>
</g>
<g><a xlink:href="/character/display?id=Jaehaerys_II_Targaryen" xlink:title="Jaehaerys II Targaryen" target="_blank">
</a>
</g>
</g>
<!-- 161+162 -->
<g id="node46" class="node"><title>161+162</title>
<ellipse fill="black" stroke="black" cx="952" cy="-694" rx="1.8" ry="1.8"/>
</g>
<!-- 161&#45;&gt;161+162 -->
<g id="edge3" class="edge"><title>161&#45;&gt;161+162</title>
<path fill="none" stroke="black" d="M1221.88,-737.049C1218.62,-735.239 1215.33,-733.549 1212,-732 1161.99,-708.713 974.19,-696.389 953.799,-695.111"/>
</g>
<!-- 162 -->
<g id="node4" class="node"><title>162</title>
<g id="a_node4"><a xlink:href="/character/display?id=Shaera_Targaryen" xlink:title="Shaera Targaryen" target="_blank">
<polygon fill="white" stroke="black" points="1028,-903 876,-903 876,-751 1028,-751 1028,-903"/>
</a>
</g>
<g id="a_node4_3"><a xlink:href="http://awoiaf.westeros.org/index.php/Shaera_Targaryen" xlink:title="Shaera Targaryen" target="_blank">
<text text-anchor="start" x="888.5" y="-830.3" font-family="Times,serif" font-size="14.00">Shaera Targaryen</text>
<text text-anchor="start" x="922.5" y="-815.3" font-family="Times,serif" font-size="14.00">226&#45;259</text>
</a>
</g>
<g><a xlink:href="/character/display?id=Shaera_Targaryen" xlink:title="Shaera Targaryen" target="_blank">
</a>
</g>
</g>
<!-- 162&#45;&gt;161+162 -->
<g id="edge4" class="edge"><title>162&#45;&gt;161+162</title>
<path fill="none" stroke="black" d="M952,-750.936C952,-725.325 952,-701.707 952,-696.203"/>
</g>
<!-- 177 -->
<g id="node5" class="node"><title>177</title>
<g id="a_node5"><a xlink:href="/character/display?id=Daeron_Targaryen_(son_of_Aegon_V)" xlink:title="Daeron Targaryen" target="_blank">
<polygon fill="white" stroke="black" points="857.25,-904.5 702.75,-904.5 702.75,-749.5 857.25,-749.5 857.25,-904.5"/>
</a>
</g>
<g id="a_node5_4"><a xlink:href="http://awoiaf.westeros.org/index.php/Daeron_Targaryen_(son_of_Aegon_V)" xlink:title="Daeron Targaryen" target="_blank">
<text text-anchor="start" x="715.5" y="-830.3" font-family="Times,serif" font-size="14.00">Daeron Targaryen</text>
<text text-anchor="start" x="751" y="-815.3" font-family="Times,serif" font-size="14.00">228&#45;251</text>
</a>
</g>
<g><a xlink:href="/character/display?id=Daeron_Targaryen_(son_of_Aegon_V)" xlink:title="Daeron Targaryen" target="_blank">
</a>
</g>
</g>
<!-- 178 -->
<g id="node6" class="node"><title>178</title>
<g id="a_node6"><a xlink:href="/character/display?id=Rhaelle_Targaryen" xlink:title="Rhaelle Targaryen" target="_blank">
<polygon fill="white" stroke="black" points="2058,-905 1902,-905 1902,-749 2058,-749 2058,-905"/>
</a>
</g>
<g id="a_node6_5"><a xlink:href="http://awoiaf.westeros.org/index.php/Rhaelle_Targaryen" xlink:title="Rhaelle Targaryen" target="_blank">
<text text-anchor="start" x="1914.5" y="-830.3" font-family="Times,serif" font-size="14.00">Rhaelle Targaryen</text>
<text text-anchor="start" x="1952.5" y="-815.3" font-family="Times,serif" font-size="14.00">229&#45;???</text>
</a>
</g>
<g><a xlink:href="/character/display?id=Rhaelle_Targaryen" xlink:title="Rhaelle Targaryen" target="_blank">
</a>
</g>
</g>
<!-- 179+178 -->
<g id="node59" class="node"><title>179+178</title>
<ellipse fill="black" stroke="black" cx="2409" cy="-694" rx="1.8" ry="1.8"/>
</g>
<!-- 178&#45;&gt;179+178 -->
<g id="edge30" class="edge"><title>178&#45;&gt;179+178</title>
<path fill="none" stroke="black" d="M2058.19,-802.125C2176.12,-766.111 2387.94,-701.431 2407.54,-695.447"/>
</g>
<!-- 163 -->
<g id="node7" class="node"><title>163</title>
<g id="a_node7"><a xlink:href="/character/display?id=Aerys_II_Targaryen" xlink:title="Aerys II Targaryen" target="_blank">
<polygon fill="white" stroke="black" points="855.25,-653.5 694.75,-653.5 694.75,-492.5 855.25,-492.5 855.25,-653.5"/>
</a>
</g>
<g id="a_node7_6"><a xlink:href="http://awoiaf.westeros.org/index.php/Aerys_II_Targaryen" xlink:title="Aerys II Targaryen" target="_blank">
<text text-anchor="start" x="707.5" y="-576.3" font-family="Times,serif" font-size="14.00">Aerys II Targaryen</text>
<text text-anchor="start" x="746" y="-561.3" font-family="Times,serif" font-size="14.00">244&#45;283</text>
</a>
</g>
<g><a xlink:href="/character/display?id=Aerys_II_Targaryen" xlink:title="Aerys II Targaryen" target="_blank">
</a>
</g>
</g>
<!-- 163+164 -->
<g id="node47" class="node"><title>163+164</title>
<ellipse fill="black" stroke="black" cx="775" cy="-452" rx="1.8" ry="1.8"/>
</g>
<!-- 163&#45;&gt;163+164 -->
<g id="edge5" class="edge"><title>163&#45;&gt;163+164</title>
<path fill="none" stroke="black" d="M775,-492.295C775,-473.666 775,-458.035 775,-454.007"/>
</g>
<!-- 164 -->
<g id="node8" class="node"><title>164</title>
<g id="a_node8"><a xlink:href="/character/display?id=Rhaella_Targaryen" xlink:title="Rhaella Targaryen" target="_blank">
<polygon fill="white" stroke="black" points="1030,-651 874,-651 874,-495 1030,-495 1030,-651"/>
</a>
</g>
<g id="a_node8_7"><a xlink:href="http://awoiaf.westeros.org/index.php/Rhaella_Targaryen" xlink:title="Rhaella Targaryen" target="_blank">
<text text-anchor="start" x="886.5" y="-576.3" font-family="Times,serif" font-size="14.00">Rhaella Targaryen</text>
<text text-anchor="start" x="922.5" y="-561.3" font-family="Times,serif" font-size="14.00">245&#45;284</text>
</a>
</g>
<g><a xlink:href="/character/display?id=Rhaella_Targaryen" xlink:title="Rhaella Targaryen" target="_blank">
</a>
</g>
</g>
<!-- 164&#45;&gt;163+164 -->
<g id="edge6" class="edge"><title>164&#45;&gt;163+164</title>
<path fill="none" stroke="black" d="M873.96,-496.811C870.662,-494.429 867.336,-492.148 864,-490 831.359,-468.983 784.785,-455.672 776.339,-453.36"/>
</g>
<!-- 136 -->
<g id="node9" class="node"><title>136</title>
<g id="a_node9"><a xlink:href="/character/display?id=Steffon_Baratheon" xlink:title="Steffon Baratheon" target="_blank">
<polygon fill="white" stroke="black" points="2611.25,-650.5 2456.75,-650.5 2456.75,-495.5 2611.25,-495.5 2611.25,-650.5"/>
</a>
</g>
<g id="a_node9_8"><a xlink:href="http://awoiaf.westeros.org/index.php/Steffon_Baratheon" xlink:title="Steffon Baratheon" target="_blank">
<text text-anchor="start" x="2469.5" y="-576.3" font-family="Times,serif" font-size="14.00">Steffon Baratheon</text>
<text text-anchor="start" x="2505" y="-561.3" font-family="Times,serif" font-size="14.00">246&#45;278</text>
</a>
</g>
<g><a xlink:href="/character/display?id=Steffon_Baratheon" xlink:title="Steffon Baratheon" target="_blank">
</a>
</g>
</g>
<!-- 136+137 -->
<g id="node48" class="node"><title>136+137</title>
<ellipse fill="black" stroke="black" cx="2776" cy="-452" rx="1.8" ry="1.8"/>
</g>
<!-- 136&#45;&gt;136+137 -->
<g id="edge7" class="edge"><title>136&#45;&gt;136+137</title>
<path fill="none" stroke="black" d="M2611.34,-527.458C2634.42,-514.781 2659.98,-501.346 2684,-490 2720.11,-472.94 2766.33,-456.414 2774.68,-453.465"/>
</g>
<!-- 165 -->
<g id="node10" class="node"><title>165</title>
<g id="a_node10"><a xlink:href="/character/display?id=Rhaegar_Targaryen" xlink:title="Rhaegar Targaryen" target="_blank">
<polygon fill="white" stroke="black" points="1289.25,-408.5 1126.75,-408.5 1126.75,-245.5 1289.25,-245.5 1289.25,-408.5"/>
</a>
</g>
<g id="a_node10_9"><a xlink:href="http://awoiaf.westeros.org/index.php/Rhaegar_Targaryen" xlink:title="Rhaegar Targaryen" target="_blank">
<text text-anchor="start" x="1139.5" y="-330.3" font-family="Times,serif" font-size="14.00">Rhaegar Targaryen</text>
<text text-anchor="start" x="1179" y="-315.3" font-family="Times,serif" font-size="14.00">259&#45;283</text>
</a>
</g>
<g><a xlink:href="/character/display?id=Rhaegar_Targaryen" xlink:title="Rhaegar Targaryen" target="_blank">
</a>
</g>
</g>
<!-- 165+121 -->
<g id="node49" class="node"><title>165+121</title>
<ellipse fill="black" stroke="black" cx="1286" cy="-202" rx="1.8" ry="1.8"/>
</g>
<!-- 165&#45;&gt;165+121 -->
<g id="edge9" class="edge"><title>165&#45;&gt;165+121</title>
<path fill="none" stroke="black" d="M1259.16,-245.33C1272.02,-225.044 1282.92,-207.849 1285.45,-203.868"/>
</g>
<!-- 168 -->
<g id="node11" class="node"><title>168</title>
<g id="a_node11"><a xlink:href="/character/display?id=Shaena_Targaryen" xlink:title="Shaena Targaryen" target="_blank">
<polygon fill="white" stroke="black" points="329.25,-404.5 174.75,-404.5 174.75,-249.5 329.25,-249.5 329.25,-404.5"/>
</a>
</g>
<g id="a_node11_10"><a xlink:href="http://awoiaf.westeros.org/index.php/Shaena_Targaryen" xlink:title="Shaena Targaryen" target="_blank">
<text text-anchor="start" x="187.5" y="-330.3" font-family="Times,serif" font-size="14.00">Shaena Targaryen</text>
<text text-anchor="start" x="223" y="-315.3" font-family="Times,serif" font-size="14.00">267&#45;267</text>
</a>
</g>
<g><a xlink:href="/character/display?id=Shaena_Targaryen" xlink:title="Shaena Targaryen" target="_blank">
</a>
</g>
</g>
<!-- 169 -->
<g id="node12" class="node"><title>169</title>
<g id="a_node12"><a xlink:href="/character/display?id=Daeron_Targaryen_(son_of_Aerys_II)" xlink:title="Daeron Targaryen" target="_blank">
<polygon fill="white" stroke="black" points="691.25,-404.5 536.75,-404.5 536.75,-249.5 691.25,-249.5 691.25,-404.5"/>
</a>
</g>
<g id="a_node12_11"><a xlink:href="http://awoiaf.westeros.org/index.php/Daeron_Targaryen_(son_of_Aerys_II)" xlink:title="Daeron Targaryen" target="_blank">
<text text-anchor="start" x="549.5" y="-330.3" font-family="Times,serif" font-size="14.00">Daeron Targaryen</text>
<text text-anchor="start" x="585" y="-315.3" font-family="Times,serif" font-size="14.00">269&#45;269</text>
</a>
</g>
<g><a xlink:href="/character/display?id=Daeron_Targaryen_(son_of_Aerys_II)" xlink:title="Daeron Targaryen" target="_blank">
</a>
</g>
</g>
<!-- 170 -->
<g id="node13" class="node"><title>170</title>
<g id="a_node13"><a xlink:title="Stillborn Child" target="_blank">
<polygon fill="white" stroke="black" points="840,-392 710,-392 710,-262 840,-262 840,-392"/>
<text text-anchor="start" x="722.5" y="-330.3" font-family="Times,serif" font-size="14.00">Stillborn Child</text>
<text text-anchor="start" x="750" y="-315.3" font-family="Times,serif" font-size="14.00">???&#45;???</text>
</a>
</g>
</g>
<!-- 171 -->
<g id="node14" class="node"><title>171</title>
<g id="a_node14"><a xlink:href="/character/display?id=Aegon_Targaryen_(son_of_Aerys_II)" xlink:title="Aegon Targaryen" target="_blank">
<polygon fill="white" stroke="black" points="1006,-401 858,-401 858,-253 1006,-253 1006,-401"/>
</a>
</g>
<g id="a_node14_13"><a xlink:href="http://awoiaf.westeros.org/index.php/Aegon_Targaryen_(son_of_Aerys_II)" xlink:title="Aegon Targaryen" target="_blank">
<text text-anchor="start" x="870.5" y="-330.3" font-family="Times,serif" font-size="14.00">Aegon Targaryen</text>
<text text-anchor="start" x="902.5" y="-315.3" font-family="Times,serif" font-size="14.00">272&#45;273</text>
</a>
</g>
<g><a xlink:href="/character/display?id=Aegon_Targaryen_(son_of_Aerys_II)" xlink:title="Aegon Targaryen" target="_blank">
</a>
</g>
</g>
<!-- 172 -->
<g id="node15" class="node"><title>172</title>
<g id="a_node15"><a xlink:href="/character/display?id=Jaehaerys_Targaryen_(son_of_Aerys_II)" xlink:title="Jaehaerys Targaryen" target="_blank">
<polygon fill="white" stroke="black" points="1609.25,-413.5 1436.75,-413.5 1436.75,-240.5 1609.25,-240.5 1609.25,-413.5"/>
</a>
</g>
<g id="a_node15_14"><a xlink:href="http://awoiaf.westeros.org/index.php/Jaehaerys_Targaryen_(son_of_Aerys_II)" xlink:title="Jaehaerys Targaryen" target="_blank">
<text text-anchor="start" x="1449.5" y="-330.3" font-family="Times,serif" font-size="14.00">Jaehaerys Targaryen</text>
<text text-anchor="start" x="1494" y="-315.3" font-family="Times,serif" font-size="14.00">274&#45;274</text>
</a>
</g>
<g><a xlink:href="/character/display?id=Jaehaerys_Targaryen_(son_of_Aerys_II)" xlink:title="Jaehaerys Targaryen" target="_blank">
</a>
</g>
</g>
<!-- 173 -->
<g id="node16" class="node"><title>173</title>
<g id="a_node16"><a xlink:href="/character/display?id=Viserys_Targaryen" xlink:title="Viserys Targaryen" target="_blank">
<polygon fill="white" stroke="black" points="156,-405 0,-405 0,-249 156,-249 156,-405"/>
</a>
</g>
<g id="a_node16_15"><a xlink:href="http://awoiaf.westeros.org/index.php/Viserys_Targaryen" xlink:title="Viserys Targaryen" target="_blank">
<text text-anchor="start" x="12.5" y="-330.3" font-family="Times,serif" font-size="14.00">Viserys Targaryen</text>
<text text-anchor="start" x="48.5" y="-315.3" font-family="Times,serif" font-size="14.00">276&#45;298</text>
</a>
</g>
<g><a xlink:href="/character/display?id=Viserys_Targaryen" xlink:title="Viserys Targaryen" target="_blank">
</a>
</g>
</g>
<!-- 174 -->
<g id="node17" class="node"><title>174</title>
<g id="a_node17"><a xlink:href="/character/display?id=Daenerys_Targaryen" xlink:title="Daenerys Targaryen" target="_blank">
<polygon fill="white" stroke="black" points="518,-412 348,-412 348,-242 518,-242 518,-412"/>
</a>
</g>
<g id="a_node17_16"><a xlink:href="http://awoiaf.westeros.org/index.php/Daenerys_Targaryen" xlink:title="Daenerys Targaryen" target="_blank">
<text text-anchor="start" x="360.5" y="-330.3" font-family="Times,serif" font-size="14.00">Daenerys Targaryen</text>
<text text-anchor="start" x="417" y="-315.3" font-family="Times,serif" font-size="14.00">284&#45;</text>
</a>
</g>
<g><a xlink:href="/character/display?id=Daenerys_Targaryen" xlink:title="Daenerys Targaryen" target="_blank">
</a>
</g>
</g>
<!-- 174+175 -->
<g id="node50" class="node"><title>174+175</title>
<ellipse fill="black" stroke="black" cx="750" cy="-202" rx="1.8" ry="1.8"/>
</g>
<!-- 174&#45;&gt;174+175 -->
<g id="edge11" class="edge"><title>174&#45;&gt;174+175</title>
<path fill="none" stroke="black" d="M518.137,-244.71C521.06,-243.028 524.016,-241.451 527,-240 610.994,-199.146 731.555,-202.275 748.093,-202.917"/>
</g>
<!-- 138 -->
<g id="node18" class="node"><title>138</title>
<g id="a_node18"><a xlink:href="/character/display?id=Robert_Baratheon" xlink:title="Robert I Baratheon" target="_blank">
<polygon fill="white" stroke="black" points="2449,-409 2285,-409 2285,-245 2449,-245 2449,-409"/>
</a>
</g>
<g id="a_node18_17"><a xlink:href="http://awoiaf.westeros.org/index.php/Robert_Baratheon" xlink:title="Robert I Baratheon" target="_blank">
<text text-anchor="start" x="2297.5" y="-330.3" font-family="Times,serif" font-size="14.00">Robert I Baratheon</text>
<text text-anchor="start" x="2337.5" y="-315.3" font-family="Times,serif" font-size="14.00">262&#45;298</text>
</a>
</g>
<g><a xlink:href="/character/display?id=Robert_Baratheon" xlink:title="Robert I Baratheon" target="_blank">
</a>
</g>
</g>
<!-- 138+139 -->
<g id="node51" class="node"><title>138+139</title>
<ellipse fill="black" stroke="black" cx="1738" cy="-202" rx="1.8" ry="1.8"/>
</g>
<!-- 138&#45;&gt;138+139 -->
<g id="edge13" class="edge"><title>138&#45;&gt;138+139</title>
<path fill="none" stroke="black" stroke-dasharray="5,2" d="M2286,-244.965C2282.72,-243.148 2279.38,-241.483 2276,-240 2223.05,-216.801 1771.44,-203.925 1739.75,-203.048"/>
</g>
<!-- 138+141 -->
<g id="node52" class="node"><title>138+141</title>
<ellipse fill="black" stroke="black" cx="1977" cy="-202" rx="1.8" ry="1.8"/>
</g>
<!-- 138&#45;&gt;138+141 -->
<g id="edge15" class="edge"><title>138&#45;&gt;138+141</title>
<path fill="none" stroke="black" stroke-dasharray="5,2" d="M2285.32,-244.873C2282.26,-243.114 2279.15,-241.482 2276,-240 2218.27,-212.812 1998.96,-203.839 1978.53,-203.057"/>
</g>
<!-- 138+143 -->
<g id="node53" class="node"><title>138+143</title>
<ellipse fill="black" stroke="black" cx="2135" cy="-202" rx="1.8" ry="1.8"/>
</g>
<!-- 138&#45;&gt;138+143 -->
<g id="edge17" class="edge"><title>138&#45;&gt;138+143</title>
<path fill="none" stroke="black" stroke-dasharray="5,2" d="M2284.76,-245.238C2281.87,-243.389 2278.95,-241.636 2276,-240 2223.78,-211.005 2148.01,-204.025 2136.49,-203.111"/>
</g>
<!-- 138+145 -->
<g id="node54" class="node"><title>138+145</title>
<ellipse fill="black" stroke="black" cx="2284" cy="-202" rx="1.8" ry="1.8"/>
</g>
<!-- 138&#45;&gt;138+145 -->
<g id="edge19" class="edge"><title>138&#45;&gt;138+145</title>
<path fill="none" stroke="black" stroke-dasharray="5,2" d="M2312.33,-244.986C2298.73,-224.835 2287.24,-207.803 2284.58,-203.86"/>
</g>
<!-- 138+147 -->
<g id="node55" class="node"><title>138+147</title>
<ellipse fill="black" stroke="black" cx="2472" cy="-202" rx="1.8" ry="1.8"/>
</g>
<!-- 138&#45;&gt;138+147 -->
<g id="edge21" class="edge"><title>138&#45;&gt;138+147</title>
<path fill="none" stroke="black" stroke-dasharray="5,2" d="M2436.16,-244.986C2453.36,-224.835 2467.9,-207.803 2471.27,-203.86"/>
</g>
<!-- 138+149 -->
<g id="node56" class="node"><title>138+149</title>
<ellipse fill="black" stroke="black" cx="2630" cy="-202" rx="1.8" ry="1.8"/>
</g>
<!-- 138&#45;&gt;138+149 -->
<g id="edge23" class="edge"><title>138&#45;&gt;138+149</title>
<path fill="none" stroke="black" stroke-dasharray="5,2" d="M2449.23,-245.596C2452.45,-243.599 2455.71,-241.724 2459,-240 2522.5,-206.746 2614.25,-203.359 2628.19,-203.033"/>
</g>
<!-- 138+151 -->
<g id="node57" class="node"><title>138+151</title>
<ellipse fill="black" stroke="black" cx="2836" cy="-202" rx="1.8" ry="1.8"/>
</g>
<!-- 138&#45;&gt;138+151 -->
<g id="edge25" class="edge"><title>138&#45;&gt;138+151</title>
<path fill="none" stroke="black" stroke-dasharray="5,2" d="M2449.27,-244.929C2452.47,-243.139 2455.71,-241.487 2459,-240 2532.4,-206.799 2810.61,-203.258 2834.38,-203.015"/>
</g>
<!-- 153 -->
<g id="node19" class="node"><title>153</title>
<g id="a_node19"><a xlink:href="/character/display?id=Stannis_Baratheon" xlink:title="Stannis Baratheon" target="_blank">
<polygon fill="white" stroke="black" points="3264.5,-406 3107.5,-406 3107.5,-248 3264.5,-248 3264.5,-406"/>
</a>
</g>
<g id="a_node19_18"><a xlink:href="http://awoiaf.westeros.org/index.php/Stannis_Baratheon" xlink:title="Stannis Baratheon" target="_blank">
<text text-anchor="start" x="3119.5" y="-330.3" font-family="Times,serif" font-size="14.00">Stannis Baratheon</text>
<text text-anchor="start" x="3170" y="-315.3" font-family="Times,serif" font-size="14.00">264&#45;</text>
</a>
</g>
<g><a xlink:href="/character/display?id=Stannis_Baratheon" xlink:title="Stannis Baratheon" target="_blank">
</a>
</g>
</g>
<!-- 153+154 -->
<g id="node58" class="node"><title>153+154</title>
<ellipse fill="black" stroke="black" cx="3025" cy="-202" rx="1.8" ry="1.8"/>
</g>
<!-- 153&#45;&gt;153+154 -->
<g id="edge27" class="edge"><title>153&#45;&gt;153+154</title>
<path fill="none" stroke="black" d="M3108.38,-247.835C3104.94,-245.112 3101.47,-242.488 3098,-240 3071.66,-221.137 3034.33,-206.525 3026.48,-203.554"/>
</g>
<!-- 156 -->
<g id="node20" class="node"><title>156</title>
<g id="a_node20"><a xlink:href="/character/display?id=Renly_Baratheon" xlink:title="Renly Baratheon" target="_blank">
<polygon fill="white" stroke="black" points="3428.25,-399.5 3283.75,-399.5 3283.75,-254.5 3428.25,-254.5 3428.25,-399.5"/>
</a>
</g>
<g id="a_node20_19"><a xlink:href="http://awoiaf.westeros.org/index.php/Renly_Baratheon" xlink:title="Renly Baratheon" target="_blank">
<text text-anchor="start" x="3296.5" y="-330.3" font-family="Times,serif" font-size="14.00">Renly Baratheon</text>
<text text-anchor="start" x="3327" y="-315.3" font-family="Times,serif" font-size="14.00">277&#45;299</text>
</a>
</g>
<g><a xlink:href="/character/display?id=Renly_Baratheon" xlink:title="Renly Baratheon" target="_blank">
</a>
</g>
</g>
<!-- 166 -->
<g id="node21" class="node"><title>166</title>
<g id="a_node21"><a xlink:href="/character/display?id=Rhaenys_Targaryen" xlink:title="Rhaenys Targaryen" target="_blank">
<polygon fill="white" stroke="black" points="1455,-164 1291,-164 1291,-0 1455,-0 1455,-164"/>
</a>
</g>
<g id="a_node21_20"><a xlink:href="http://awoiaf.westeros.org/index.php/Rhaenys_Targaryen" xlink:title="Rhaenys Targaryen" target="_blank">
<text text-anchor="start" x="1303.5" y="-85.3" font-family="Times,serif" font-size="14.00">Rhaenys Targaryen</text>
<text text-anchor="start" x="1343.5" y="-70.3" font-family="Times,serif" font-size="14.00">280&#45;283</text>
</a>
</g>
<g><a xlink:href="/character/display?id=Rhaenys_Targaryen" xlink:title="Rhaenys Targaryen" target="_blank">
</a>
</g>
</g>
<!-- 167 -->
<g id="node22" class="node"><title>167</title>
<g id="a_node22"><a xlink:href="/character/display?id=Aegon_Targaryen_(son_of_Rhaegar)" xlink:title="Aegon Targaryen" target="_blank">
<polygon fill="white" stroke="black" points="1273,-156 1125,-156 1125,-8 1273,-8 1273,-156"/>
</a>
</g>
<g id="a_node22_21"><a xlink:href="http://awoiaf.westeros.org/index.php/Aegon_Targaryen_(son_of_Rhaegar)" xlink:title="Aegon Targaryen" target="_blank">
<text text-anchor="start" x="1137.5" y="-85.3" font-family="Times,serif" font-size="14.00">Aegon Targaryen</text>
<text text-anchor="start" x="1169.5" y="-70.3" font-family="Times,serif" font-size="14.00">281&#45;283</text>
</a>
</g>
<g><a xlink:href="/character/display?id=Aegon_Targaryen_(son_of_Rhaegar)" xlink:title="Aegon Targaryen" target="_blank">
</a>
</g>
</g>
<!-- 176 -->
<g id="node23" class="node"><title>176</title>
<g id="a_node23"><a xlink:href="/character/display?id=Rhaego" xlink:title="Rhaego" target="_blank">
<polygon fill="white" stroke="black" points="791.5,-124 708.5,-124 708.5,-40 791.5,-40 791.5,-124"/>
</a>
</g>
<g id="a_node23_22"><a xlink:href="http://awoiaf.westeros.org/index.php/Rhaego" xlink:title="Rhaego" target="_blank">
<text text-anchor="start" x="723" y="-85.3" font-family="Times,serif" font-size="14.00">Rhaego</text>
<text text-anchor="start" x="720.5" y="-70.3" font-family="Times,serif" font-size="14.00">298&#45;298</text>
</a>
</g>
<g><a xlink:href="/character/display?id=Rhaego" xlink:title="Rhaego" target="_blank">
</a>
</g>
</g>
<!-- 140 -->
<g id="node24" class="node"><title>140</title>
<g id="a_node24"><a xlink:href="/character/display?id=Mya_Stone" xlink:title="Mya Stone" target="_blank">
<polygon fill="white" stroke="black" points="1788.5,-133 1687.5,-133 1687.5,-31 1788.5,-31 1788.5,-133"/>
</a>
</g>
<g id="a_node24_23"><a xlink:href="http://awoiaf.westeros.org/index.php/Mya_Stone" xlink:title="Mya Stone" target="_blank">
<text text-anchor="start" x="1699.5" y="-85.3" font-family="Times,serif" font-size="14.00">Mya Stone</text>
<text text-anchor="start" x="1722" y="-70.3" font-family="Times,serif" font-size="14.00">279&#45;</text>
</a>
</g>
<g><a xlink:href="/character/display?id=Mya_Stone" xlink:title="Mya Stone" target="_blank">
</a>
</g>
</g>
<!-- 142 -->
<g id="node25" class="node"><title>142</title>
<g id="a_node25"><a xlink:href="/character/display?id=Bella" xlink:title="Bella" target="_blank">
<polygon fill="white" stroke="black" points="2007.5,-113 1946.5,-113 1946.5,-51 2007.5,-51 2007.5,-113"/>
</a>
</g>
<g id="a_node25_24"><a xlink:href="http://awoiaf.westeros.org/index.php/Bella" xlink:title="Bella" target="_blank">
<text text-anchor="start" x="1958.5" y="-85.3" font-family="Times,serif" font-size="14.00">Bella</text>
<text text-anchor="start" x="1961" y="-70.3" font-family="Times,serif" font-size="14.00">283&#45;</text>
</a>
</g>
<g><a xlink:href="/character/display?id=Bella" xlink:title="Bella" target="_blank">
</a>
</g>
</g>
<!-- 144 -->
<g id="node26" class="node"><title>144</title>
<g id="a_node26"><a xlink:href="/character/display?id=Gendry" xlink:title="Gendry" target="_blank">
<polygon fill="white" stroke="black" points="2174,-121 2096,-121 2096,-43 2174,-43 2174,-121"/>
</a>
</g>
<g id="a_node26_25"><a xlink:href="http://awoiaf.westeros.org/index.php/Gendry" xlink:title="Gendry" target="_blank">
<text text-anchor="start" x="2108.5" y="-85.3" font-family="Times,serif" font-size="14.00">Gendry</text>
<text text-anchor="start" x="2119" y="-70.3" font-family="Times,serif" font-size="14.00">283&#45;</text>
</a>
</g>
<g><a xlink:href="/character/display?id=Gendry" xlink:title="Gendry" target="_blank">
</a>
</g>
</g>
<!-- 146 -->
<g id="node27" class="node"><title>146</title>
<g id="a_node27"><a xlink:href="/character/display?id=Edric_Storm" xlink:title="Edric Storm" target="_blank">
<polygon fill="white" stroke="black" points="2340.25,-138.5 2227.75,-138.5 2227.75,-25.5 2340.25,-25.5 2340.25,-138.5"/>
</a>
</g>
<g id="a_node27_26"><a xlink:href="http://awoiaf.westeros.org/index.php/Edric_Storm" xlink:title="Edric Storm" target="_blank">
<text text-anchor="start" x="2240.5" y="-85.3" font-family="Times,serif" font-size="14.00">Edric Storm</text>
<text text-anchor="start" x="2268.5" y="-70.3" font-family="Times,serif" font-size="14.00">287&#45;</text>
</a>
</g>
<g><a xlink:href="/character/display?id=Edric_Storm" xlink:title="Edric Storm" target="_blank">
</a>
</g>
</g>
<!-- 148 -->
<g id="node28" class="node"><title>148</title>
<g id="a_node28"><a xlink:href="/character/display?id=Barra" xlink:title="Barra" target="_blank">
<polygon fill="white" stroke="black" points="2513.5,-124 2430.5,-124 2430.5,-40 2513.5,-40 2513.5,-124"/>
</a>
</g>
<g id="a_node28_27"><a xlink:href="http://awoiaf.westeros.org/index.php/Barra" xlink:title="Barra" target="_blank">
<text text-anchor="start" x="2451.5" y="-85.3" font-family="Times,serif" font-size="14.00">Barra</text>
<text text-anchor="start" x="2442.5" y="-70.3" font-family="Times,serif" font-size="14.00">298&#45;299</text>
</a>
</g>
<g><a xlink:href="/character/display?id=Barra" xlink:title="Barra" target="_blank">
</a>
</g>
</g>
<!-- 150 -->
<g id="node29" class="node"><title>150</title>
<g id="a_node29"><a xlink:title="Unknown Twins" target="_blank">
<polygon fill="white" stroke="black" points="2699.25,-151.5 2560.75,-151.5 2560.75,-12.5 2699.25,-12.5 2699.25,-151.5"/>
<text text-anchor="start" x="2573.5" y="-85.3" font-family="Times,serif" font-size="14.00">Unknown Twins</text>
<text text-anchor="start" x="2605.5" y="-70.3" font-family="Times,serif" font-size="14.00">???&#45;???</text>
</a>
</g>
</g>
<!-- 152 -->
<g id="node30" class="node"><title>152</title>
<g id="a_node30"><a xlink:title="Nine Bastards" target="_blank">
<polygon fill="white" stroke="black" points="2900,-146 2772,-146 2772,-18 2900,-18 2900,-146"/>
<text text-anchor="start" x="2784.5" y="-85.3" font-family="Times,serif" font-size="14.00">Nine Bastards</text>
<text text-anchor="start" x="2811" y="-70.3" font-family="Times,serif" font-size="14.00">???&#45;???</text>
</a>
</g>
</g>
<!-- 155 -->
<g id="node31" class="node"><title>155</title>
<g id="a_node31"><a xlink:href="/character/display?id=Shireen_Baratheon" xlink:title="Shireen Baratheon" target="_blank">
<polygon fill="white" stroke="black" points="3104.25,-161.5 2945.75,-161.5 2945.75,-2.5 3104.25,-2.5 3104.25,-161.5"/>
</a>
</g>
<g id="a_node31_30"><a xlink:href="http://awoiaf.westeros.org/index.php/Shireen_Baratheon" xlink:title="Shireen Baratheon" target="_blank">
<text text-anchor="start" x="2958.5" y="-85.3" font-family="Times,serif" font-size="14.00">Shireen Baratheon</text>
<text text-anchor="start" x="3009.5" y="-70.3" font-family="Times,serif" font-size="14.00">289&#45;</text>
</a>
</g>
<g><a xlink:href="/character/display?id=Shireen_Baratheon" xlink:title="Shireen Baratheon" target="_blank">
</a>
</g>
</g>
<!-- 158 -->
<g id="node32" class="node"><title>158</title>
<g id="a_node32"><a xlink:href="/character/display?id=Betha_Blackwood" xlink:title="Betha Blackwood" target="_blank">
<polygon fill="white" stroke="black" points="1287.5,-1155 1138.5,-1155 1138.5,-1005 1287.5,-1005 1287.5,-1155"/>
</a>
</g>
<g id="a_node32_31"><a xlink:href="http://awoiaf.westeros.org/index.php/Betha_Blackwood" xlink:title="Betha Blackwood" target="_blank">
<text text-anchor="start" x="1150.5" y="-1083.3" font-family="Times,serif" font-size="14.00">Betha Blackwood</text>
<text text-anchor="start" x="1188" y="-1068.3" font-family="Times,serif" font-size="14.00">???&#45;???</text>
</a>
</g>
<g><a xlink:href="/character/display?id=Betha_Blackwood" xlink:title="Betha Blackwood" target="_blank">
</a>
</g>
</g>
<!-- 158&#45;&gt;157+158 -->
<g id="edge2" class="edge"><title>158&#45;&gt;157+158</title>
<path fill="none" stroke="black" d="M1157.77,-1004.94C1142.3,-984.194 1128.81,-966.112 1125.68,-961.916"/>
</g>
<!-- 179 -->
<g id="node33" class="node"><title>179</title>
<g id="a_node33"><a xlink:href="/character/display?id=Ormund_Baratheon" xlink:title="Ormund Baratheon" target="_blank">
<polygon fill="white" stroke="black" points="2490.25,-908.5 2327.75,-908.5 2327.75,-745.5 2490.25,-745.5 2490.25,-908.5"/>
</a>
</g>
<g id="a_node33_32"><a xlink:href="http://awoiaf.westeros.org/index.php/Ormund_Baratheon" xlink:title="Ormund Baratheon" target="_blank">
<text text-anchor="start" x="2340.5" y="-830.3" font-family="Times,serif" font-size="14.00">Ormund Baratheon</text>
<text text-anchor="start" x="2382" y="-815.3" font-family="Times,serif" font-size="14.00">???&#45;260</text>
</a>
</g>
<g><a xlink:href="/character/display?id=Ormund_Baratheon" xlink:title="Ormund Baratheon" target="_blank">
</a>
</g>
</g>
<!-- 179&#45;&gt;179+178 -->
<g id="edge29" class="edge"><title>179&#45;&gt;179+178</title>
<path fill="none" stroke="black" d="M2409,-745.273C2409,-721.685 2409,-700.886 2409,-696.054"/>
</g>
<!-- 137 -->
<g id="node34" class="node"><title>137</title>
<g id="a_node34"><a xlink:href="/character/display?id=Cassana_Estermont" xlink:title="Cassana Estermont" target="_blank">
<polygon fill="white" stroke="black" points="2859,-656 2693,-656 2693,-490 2859,-490 2859,-656"/>
</a>
</g>
<g id="a_node34_33"><a xlink:href="http://awoiaf.westeros.org/index.php/Cassana_Estermont" xlink:title="Cassana Estermont" target="_blank">
<text text-anchor="start" x="2705.5" y="-576.3" font-family="Times,serif" font-size="14.00">Cassana Estermont</text>
<text text-anchor="start" x="2748.5" y="-561.3" font-family="Times,serif" font-size="14.00">???&#45;278</text>
</a>
</g>
<g><a xlink:href="/character/display?id=Cassana_Estermont" xlink:title="Cassana Estermont" target="_blank">
</a>
</g>
</g>
<!-- 137&#45;&gt;136+137 -->
<g id="edge8" class="edge"><title>137&#45;&gt;136+137</title>
<path fill="none" stroke="black" d="M2776,-489.675C2776,-472.412 2776,-458.171 2776,-454.142"/>
</g>
<!-- 121 -->
<g id="node35" class="node"><title>121</title>
<g id="a_node35"><a xlink:href="/character/display?id=Elia_Martell" xlink:title="Elia Martell" target="_blank">
<polygon fill="white" stroke="black" points="1418.25,-382.5 1307.75,-382.5 1307.75,-271.5 1418.25,-271.5 1418.25,-382.5"/>
</a>
</g>
<g id="a_node35_34"><a xlink:href="http://awoiaf.westeros.org/index.php/Elia_Martell" xlink:title="Elia Martell" target="_blank">
<text text-anchor="start" x="1320.5" y="-330.3" font-family="Times,serif" font-size="14.00">Elia Martell</text>
<text text-anchor="start" x="1334" y="-315.3" font-family="Times,serif" font-size="14.00">256&#45;283</text>
</a>
</g>
<g><a xlink:href="/character/display?id=Elia_Martell" xlink:title="Elia Martell" target="_blank">
</a>
</g>
</g>
<!-- 121&#45;&gt;165+121 -->
<g id="edge10" class="edge"><title>121&#45;&gt;165+121</title>
<path fill="none" stroke="black" d="M1328.78,-271.334C1310.14,-241.564 1290.15,-209.63 1286.57,-203.904"/>
</g>
<!-- 175 -->
<g id="node36" class="node"><title>175</title>
<g id="a_node36"><a xlink:href="/character/display?id=Drogo" xlink:title="Drogo" target="_blank">
<polygon fill="white" stroke="black" points="1107.5,-369 1024.5,-369 1024.5,-285 1107.5,-285 1107.5,-369"/>
</a>
</g>
<g id="a_node36_35"><a xlink:href="http://awoiaf.westeros.org/index.php/Drogo" xlink:title="Drogo" target="_blank">
<text text-anchor="start" x="1044" y="-330.3" font-family="Times,serif" font-size="14.00">Drogo</text>
<text text-anchor="start" x="1036.5" y="-315.3" font-family="Times,serif" font-size="14.00">267&#45;298</text>
</a>
</g>
<g><a xlink:href="/character/display?id=Drogo" xlink:title="Drogo" target="_blank">
</a>
</g>
</g>
<!-- 175&#45;&gt;174+175 -->
<g id="edge12" class="edge"><title>175&#45;&gt;174+175</title>
<path fill="none" stroke="black" d="M1050.89,-284.757C1042.76,-268.26 1031.04,-250.674 1015,-240 968.204,-208.862 773.074,-203.531 751.871,-203.04"/>
</g>
<!-- 139 -->
<g id="node37" class="node"><title>139</title>
<g id="a_node37"><a xlink:title="Unknown Woman" target="_blank">
<polygon fill="white" stroke="black" points="1778.25,-402.5 1627.75,-402.5 1627.75,-251.5 1778.25,-251.5 1778.25,-402.5"/>
<text text-anchor="start" x="1640.5" y="-330.3" font-family="Times,serif" font-size="14.00">Unknown Woman</text>
<text text-anchor="start" x="1678.5" y="-315.3" font-family="Times,serif" font-size="14.00">???&#45;???</text>
</a>
</g>
</g>
<!-- 139&#45;&gt;138+139 -->
<g id="edge14" class="edge"><title>139&#45;&gt;138+139</title>
<path fill="none" stroke="black" stroke-dasharray="5,2" d="M1724.27,-251.26C1730.68,-228.723 1736.38,-208.677 1737.71,-204.017"/>
</g>
<!-- 141 -->
<g id="node38" class="node"><title>141</title>
<g id="a_node38"><a xlink:title="Unknown Woman" target="_blank">
<polygon fill="white" stroke="black" points="1947.25,-402.5 1796.75,-402.5 1796.75,-251.5 1947.25,-251.5 1947.25,-402.5"/>
<text text-anchor="start" x="1809.5" y="-330.3" font-family="Times,serif" font-size="14.00">Unknown Woman</text>
<text text-anchor="start" x="1847.5" y="-315.3" font-family="Times,serif" font-size="14.00">???&#45;???</text>
</a>
</g>
</g>
<!-- 141&#45;&gt;138+141 -->
<g id="edge16" class="edge"><title>141&#45;&gt;138+141</title>
<path fill="none" stroke="black" stroke-dasharray="5,2" d="M1935.8,-251.26C1955.04,-228.723 1972.15,-208.677 1976.13,-204.017"/>
</g>
<!-- 143 -->
<g id="node39" class="node"><title>143</title>
<g id="a_node39"><a xlink:title="Unknown Woman" target="_blank">
<polygon fill="white" stroke="black" points="2116.25,-402.5 1965.75,-402.5 1965.75,-251.5 2116.25,-251.5 2116.25,-402.5"/>
<text text-anchor="start" x="1978.5" y="-330.3" font-family="Times,serif" font-size="14.00">Unknown Woman</text>
<text text-anchor="start" x="2016.5" y="-315.3" font-family="Times,serif" font-size="14.00">???&#45;???</text>
</a>
</g>
</g>
<!-- 143&#45;&gt;138+143 -->
<g id="edge18" class="edge"><title>143&#45;&gt;138+143</title>
<path fill="none" stroke="black" stroke-dasharray="5,2" d="M2098.12,-251.26C2115.34,-228.723 2130.66,-208.677 2134.22,-204.017"/>
</g>
<!-- 145 -->
<g id="node40" class="node"><title>145</title>
<g id="a_node40"><a xlink:href="/character/display?id=Delena_Florent" xlink:title="Delena Florent" target="_blank">
<polygon fill="white" stroke="black" points="2267,-393 2135,-393 2135,-261 2267,-261 2267,-393"/>
</a>
</g>
<g id="a_node40_39"><a xlink:href="http://awoiaf.westeros.org/index.php/Delena_Florent" xlink:title="Delena Florent" target="_blank">
<text text-anchor="start" x="2147.5" y="-330.3" font-family="Times,serif" font-size="14.00">Delena Florent</text>
<text text-anchor="start" x="2187" y="-315.3" font-family="Times,serif" font-size="14.00">???&#45;</text>
</a>
</g>
<g><a xlink:href="/character/display?id=Delena_Florent" xlink:title="Delena Florent" target="_blank">
</a>
</g>
</g>
<!-- 145&#45;&gt;138+145 -->
<g id="edge20" class="edge"><title>145&#45;&gt;138+145</title>
<path fill="none" stroke="black" stroke-dasharray="5,2" d="M2244.93,-260.898C2262.35,-235.083 2279.2,-210.116 2283.14,-204.278"/>
</g>
<!-- 147 -->
<g id="node41" class="node"><title>147</title>
<g id="a_node41"><a xlink:title="Unknown Woman" target="_blank">
<polygon fill="white" stroke="black" points="2618.25,-402.5 2467.75,-402.5 2467.75,-251.5 2618.25,-251.5 2618.25,-402.5"/>
<text text-anchor="start" x="2480.5" y="-330.3" font-family="Times,serif" font-size="14.00">Unknown Woman</text>
<text text-anchor="start" x="2516" y="-315.3" font-family="Times,serif" font-size="14.00">???&#45;299</text>
</a>
</g>
</g>
<!-- 147&#45;&gt;138+147 -->
<g id="edge22" class="edge"><title>147&#45;&gt;138+147</title>
<path fill="none" stroke="black" stroke-dasharray="5,2" d="M2499.86,-251.26C2486.85,-228.723 2475.28,-208.677 2472.59,-204.017"/>
</g>
<!-- 149 -->
<g id="node42" class="node"><title>149</title>
<g id="a_node42"><a xlink:title="Unknown Woman" target="_blank">
<polygon fill="white" stroke="black" points="2787.25,-402.5 2636.75,-402.5 2636.75,-251.5 2787.25,-251.5 2787.25,-402.5"/>
<text text-anchor="start" x="2649.5" y="-330.3" font-family="Times,serif" font-size="14.00">Unknown Woman</text>
<text text-anchor="start" x="2687.5" y="-315.3" font-family="Times,serif" font-size="14.00">???&#45;???</text>
</a>
</g>
</g>
<!-- 149&#45;&gt;138+149 -->
<g id="edge24" class="edge"><title>149&#45;&gt;138+149</title>
<path fill="none" stroke="black" stroke-dasharray="5,2" d="M2662.17,-251.26C2647.15,-228.723 2633.78,-208.677 2630.68,-204.017"/>
</g>
<!-- 151 -->
<g id="node43" class="node"><title>151</title>
<g id="a_node43"><a xlink:title="Various Women" target="_blank">
<polygon fill="white" stroke="black" points="2942.25,-395.5 2805.75,-395.5 2805.75,-258.5 2942.25,-258.5 2942.25,-395.5"/>
<text text-anchor="start" x="2818.5" y="-330.3" font-family="Times,serif" font-size="14.00">Various Women</text>
<text text-anchor="start" x="2849.5" y="-315.3" font-family="Times,serif" font-size="14.00">???&#45;???</text>
</a>
</g>
</g>
<!-- 151&#45;&gt;138+151 -->
<g id="edge26" class="edge"><title>151&#45;&gt;138+151</title>
<path fill="none" stroke="black" stroke-dasharray="5,2" d="M2853.11,-258.383C2845.38,-233.374 2838.08,-209.728 2836.37,-204.207"/>
</g>
<!-- 154 -->
<g id="node44" class="node"><title>154</title>
<g id="a_node44"><a xlink:href="/character/display?id=Selyse_Florent" xlink:title="Selyse Florent" target="_blank">
<polygon fill="white" stroke="black" points="3089,-391 2961,-391 2961,-263 3089,-263 3089,-391"/>
</a>
</g>
<g id="a_node44_43"><a xlink:href="http://awoiaf.westeros.org/index.php/Selyse_Florent" xlink:title="Selyse Florent" target="_blank">
<text text-anchor="start" x="2973.5" y="-330.3" font-family="Times,serif" font-size="14.00">Selyse Florent</text>
<text text-anchor="start" x="3011" y="-315.3" font-family="Times,serif" font-size="14.00">???&#45;</text>
</a>
</g>
<g><a xlink:href="/character/display?id=Selyse_Florent" xlink:title="Selyse Florent" target="_blank">
</a>
</g>
</g>
<!-- 154&#45;&gt;153+154 -->
<g id="edge28" class="edge"><title>154&#45;&gt;153+154</title>
<path fill="none" stroke="black" d="M3025,-262.698C3025,-236.328 3025,-210.399 3025,-204.329"/>
</g>
<!-- 157+158&#45;&gt;159 -->
<g id="edge31" class="edge"><title>157+158&#45;&gt;159</title>
<path fill="none" stroke="black" d="M1125,-958.163C1125,-953.609 1125,-931.084 1125,-906.018"/>
</g>
<!-- 157+158&#45;&gt;161 -->
<g id="edge32" class="edge"><title>157+158&#45;&gt;161</title>
<path fill="none" stroke="black" d="M1126.3,-958.624C1134.52,-956.217 1179.86,-942.425 1212,-922 1215.3,-919.9 1218.6,-917.696 1221.89,-915.408"/>
</g>
<!-- 157+158&#45;&gt;162 -->
<g id="edge33" class="edge"><title>157+158&#45;&gt;162</title>
<path fill="none" stroke="black" d="M1123.65,-958.672C1115.15,-956.558 1068.36,-944.241 1037,-922 1029.1,-916.4 1021.41,-909.948 1014.08,-903.103"/>
</g>
<!-- 157+158&#45;&gt;177 -->
<g id="edge34" class="edge"><title>157+158&#45;&gt;177</title>
<path fill="none" stroke="black" d="M1123.2,-958.908C1102.86,-957.846 915.483,-947.441 867,-922 858.041,-917.299 849.518,-911.299 841.56,-904.612"/>
</g>
<!-- 157+158&#45;&gt;178 -->
<g id="edge35" class="edge"><title>157+158&#45;&gt;178</title>
<path fill="none" stroke="black" d="M1126.45,-958.843C1142.93,-957.051 1296.99,-940.168 1421,-922 1593.1,-896.785 1794.03,-861.579 1901.94,-842.198"/>
</g>
<!-- 161+162&#45;&gt;163 -->
<g id="edge36" class="edge"><title>161+162&#45;&gt;163</title>
<path fill="none" stroke="black" d="M950.694,-692.628C942.461,-690.244 897.048,-676.565 865,-656 861.798,-653.945 858.601,-651.774 855.425,-649.513"/>
</g>
<!-- 161+162&#45;&gt;164 -->
<g id="edge37" class="edge"><title>161+162&#45;&gt;164</title>
<path fill="none" stroke="black" d="M952,-691.664C952,-686.965 952,-670.447 952,-651.212"/>
</g>
<!-- 163+164&#45;&gt;165 -->
<g id="edge39" class="edge"><title>163+164&#45;&gt;165</title>
<path fill="none" stroke="black" d="M776.742,-450.963C800.028,-450.451 1049.96,-444.278 1116,-414 1119.58,-412.36 1123.11,-410.525 1126.58,-408.531"/>
</g>
<!-- 163+164&#45;&gt;168 -->
<g id="edge40" class="edge"><title>163+164&#45;&gt;168</title>
<path fill="none" stroke="black" d="M773.445,-451.014C748.232,-451.223 423.849,-453.133 339,-414 333.311,-411.376 327.777,-408.215 322.44,-404.675"/>
</g>
<!-- 163+164&#45;&gt;169 -->
<g id="edge41" class="edge"><title>163+164&#45;&gt;169</title>
<path fill="none" stroke="black" d="M773.493,-450.453C765.521,-447.521 727.623,-433.072 701,-414 696.856,-411.032 692.725,-407.864 688.64,-404.56"/>
</g>
<!-- 163+164&#45;&gt;170 -->
<g id="edge42" class="edge"><title>163+164&#45;&gt;170</title>
<path fill="none" stroke="black" d="M775,-449.619C775,-443.522 775,-418.17 775,-392.179"/>
</g>
<!-- 163+164&#45;&gt;171 -->
<g id="edge43" class="edge"><title>163+164&#45;&gt;171</title>
<path fill="none" stroke="black" d="M776.515,-450.465C784.528,-447.589 822.604,-433.384 849,-414 854.352,-410.07 859.663,-405.779 864.859,-401.278"/>
</g>
<!-- 163+164&#45;&gt;172 -->
<g id="edge44" class="edge"><title>163+164&#45;&gt;172</title>
<path fill="none" stroke="black" d="M776.68,-450.973C811.056,-450.409 1362.08,-440.959 1427,-414 1430.2,-412.67 1433.37,-411.186 1436.49,-409.571"/>
</g>
<!-- 163+164&#45;&gt;173 -->
<g id="edge45" class="edge"><title>163+164&#45;&gt;173</title>
<path fill="none" stroke="black" d="M773.426,-450.972C741.224,-450.4 225.061,-440.829 165,-414 159.376,-411.488 153.911,-408.442 148.639,-405.014"/>
</g>
<!-- 163+164&#45;&gt;174 -->
<g id="edge46" class="edge"><title>163+164&#45;&gt;174</title>
<path fill="none" stroke="black" d="M773.283,-450.883C753.818,-449.541 574.554,-436.652 527,-414 524.005,-412.573 521.038,-411.018 518.106,-409.355"/>
</g>
<!-- 136+137&#45;&gt;138 -->
<g id="edge47" class="edge"><title>136+137&#45;&gt;138</title>
<path fill="none" stroke="black" d="M2774.38,-450.951C2752.73,-450.277 2520.33,-442.422 2459,-414 2455.63,-412.437 2452.3,-410.703 2449.02,-408.826"/>
</g>
<!-- 136+137&#45;&gt;153 -->
<g id="edge48" class="edge"><title>136+137&#45;&gt;153</title>
<path fill="none" stroke="black" d="M2777.65,-450.958C2799.67,-450.378 3036.01,-443.499 3098,-414 3102.82,-411.705 3107.54,-409.038 3112.13,-406.094"/>
</g>
<!-- 136+137&#45;&gt;156 -->
<g id="edge49" class="edge"><title>136+137&#45;&gt;156</title>
<path fill="none" stroke="black" d="M2777.77,-451.042C2806.54,-451.698 3176.66,-459.208 3273,-414 3281.08,-410.21 3288.78,-405.267 3296.01,-399.664"/>
</g>
<!-- 165+121&#45;&gt;166 -->
<g id="edge50" class="edge"><title>165+121&#45;&gt;166</title>
<path fill="none" stroke="black" d="M1286.56,-200.246C1289.09,-196.812 1299.99,-182.027 1313.24,-164.053"/>
</g>
<!-- 165+121&#45;&gt;167 -->
<g id="edge51" class="edge"><title>165+121&#45;&gt;167</title>
<path fill="none" stroke="black" d="M1285.44,-200.246C1282.55,-196.321 1268.73,-177.572 1252.95,-156.179"/>
</g>
<!-- 174+175&#45;&gt;176 -->
<g id="edge52" class="edge"><title>174+175&#45;&gt;176</title>
<path fill="none" stroke="black" d="M750,-199.675C750,-192.205 750,-154.61 750,-124.084"/>
</g>
<!-- 138+139&#45;&gt;140 -->
<g id="edge53" class="edge"><title>138+139&#45;&gt;140</title>
<path fill="none" stroke="black" stroke-dasharray="5,2" d="M1738,-199.675C1738,-192.94 1738,-161.711 1738,-133.257"/>
</g>
<!-- 138+141&#45;&gt;142 -->
<g id="edge54" class="edge"><title>138+141&#45;&gt;142</title>
<path fill="none" stroke="black" stroke-dasharray="5,2" d="M1977,-199.675C1977,-191.269 1977,-144.706 1977,-113.005"/>
</g>
<!-- 138+143&#45;&gt;144 -->
<g id="edge55" class="edge"><title>138+143&#45;&gt;144</title>
<path fill="none" stroke="black" stroke-dasharray="5,2" d="M2135,-199.675C2135,-191.952 2135,-152.027 2135,-121.006"/>
</g>
<!-- 138+145&#45;&gt;146 -->
<g id="edge56" class="edge"><title>138+145&#45;&gt;146</title>
<path fill="none" stroke="black" stroke-dasharray="5,2" d="M2284,-199.675C2284,-193.37 2284,-165.602 2284,-138.739"/>
</g>
<!-- 138+147&#45;&gt;148 -->
<g id="edge57" class="edge"><title>138+147&#45;&gt;148</title>
<path fill="none" stroke="black" stroke-dasharray="5,2" d="M2472,-199.675C2472,-192.205 2472,-154.61 2472,-124.084"/>
</g>
<!-- 138+149&#45;&gt;150 -->
<g id="edge58" class="edge"><title>138+149&#45;&gt;150</title>
<path fill="none" stroke="black" stroke-dasharray="5,2" d="M2630,-199.675C2630,-194.383 2630,-173.97 2630,-151.662"/>
</g>
<!-- 138+151&#45;&gt;152 -->
<g id="edge59" class="edge"><title>138+151&#45;&gt;152</title>
<path fill="none" stroke="black" stroke-dasharray="5,2" d="M2836,-199.675C2836,-193.952 2836,-170.549 2836,-146.189"/>
</g>
<!-- 153+154&#45;&gt;155 -->
<g id="edge60" class="edge"><title>153+154&#45;&gt;155</title>
<path fill="none" stroke="black" d="M3025,-199.675C3025,-195.193 3025,-179.866 3025,-161.728"/>
</g>
<!-- 179+178&#45;&gt;136 -->
<g id="edge38" class="edge"><title>179+178&#45;&gt;136</title>
<path fill="none" stroke="black" d="M2409.8,-692.24C2413.96,-688.281 2433.82,-669.373 2456.48,-647.799"/>
</g>
</g>
</svg>
