<?xml version="1.0" encoding="UTF-8" standalone="no"?>
<!DOCTYPE svg PUBLIC "-//W3C//DTD SVG 1.1//EN"
 "http://www.w3.org/Graphics/SVG/1.1/DTD/svg11.dtd">
<!-- Generated by graphviz version 2.36.0 (20140111.2315)
 -->
<!-- Title:   Pages: 1 -->
<svg width="1617pt" height="1166pt"
 viewBox="0.00 0.00 1617.00 1166.00" xmlns="http://www.w3.org/2000/svg" xmlns:xlink="http://www.w3.org/1999/xlink">
<g id="graph0" class="graph" transform="scale(1 1) rotate(0) translate(4 1162)">
<title> </title>
<polygon fill="white" stroke="none" points="-4,4 -4,-1162 1613,-1162 1613,4 -4,4"/>
<!-- 163 -->
<g id="node1" class="node"><title>163</title>
<g id="a_node1"><a xlink:href="/character/display?id=Aerys_II_Targaryen" xlink:title="Aerys II Targaryen" target="_blank">
<polygon fill="white" stroke="black" points="894.25,-651.5 733.75,-651.5 733.75,-490.5 894.25,-490.5 894.25,-651.5"/>
</a>
</g>
<g id="a_node1_0"><a xlink:href="http://awoiaf.westeros.org/index.php/Aerys_II_Targaryen" xlink:title="Aerys II Targaryen" target="_blank">
<text text-anchor="start" x="746.5" y="-574.3" font-family="Times,serif" font-size="14.00">Aerys II Targaryen</text>
<text text-anchor="start" x="785" y="-559.3" font-family="Times,serif" font-size="14.00">244&#45;283</text>
</a>
</g>
<g><a xlink:href="/character/display?id=Aerys_II_Targaryen" xlink:title="Aerys II Targaryen" target="_blank">
</a>
</g>
</g>
<!-- 163+164 -->
<g id="node20" class="node"><title>163+164</title>
<g id="a_node20"><a xlink:title=" ">
<ellipse fill="black" stroke="black" cx="902" cy="-452" rx="1.8" ry="1.8"/>
</a>
</g>
</g>
<!-- 163&#45;&gt;163+164 -->
<g id="edge1" class="edge"><title>163&#45;&gt;163+164</title>
<g id="a_edge1"><a xlink:title=" ">
<path fill="none" stroke="black" d="M873.914,-490.341C887.548,-472.214 898.826,-457.22 901.432,-453.755"/>
</a>
</g>
</g>
<!-- 161 -->
<g id="node2" class="node"><title>161</title>
<g id="a_node2"><a xlink:href="/character/display?id=Jaehaerys_II_Targaryen" xlink:title="Jaehaerys II Targaryen" target="_blank">
<polygon fill="white" stroke="black" points="903,-918 713,-918 713,-728 903,-728 903,-918"/>
</a>
</g>
<g id="a_node2_1"><a xlink:href="http://awoiaf.westeros.org/index.php/Jaehaerys_II_Targaryen" xlink:title="Jaehaerys II Targaryen" target="_blank">
<text text-anchor="start" x="725.5" y="-826.3" font-family="Times,serif" font-size="14.00">Jaehaerys II Targaryen</text>
<text text-anchor="start" x="778.5" y="-811.3" font-family="Times,serif" font-size="14.00">225&#45;262</text>
</a>
</g>
<g><a xlink:href="/character/display?id=Jaehaerys_II_Targaryen" xlink:title="Jaehaerys II Targaryen" target="_blank">
</a>
</g>
</g>
<!-- 161+162 -->
<g id="node21" class="node"><title>161+162</title>
<g id="a_node21"><a xlink:title=" ">
<ellipse fill="black" stroke="black" cx="902" cy="-690" rx="1.8" ry="1.8"/>
</a>
</g>
</g>
<!-- 161&#45;&gt;161+162 -->
<g id="edge3" class="edge"><title>161&#45;&gt;161+162</title>
<g id="a_edge3"><a xlink:title=" ">
<path fill="none" stroke="black" d="M875.566,-727.839C888.643,-709.615 899.074,-695.078 901.477,-691.729"/>
</a>
</g>
</g>
<!-- 162 -->
<g id="node3" class="node"><title>162</title>
<g id="a_node3"><a xlink:href="/character/display?id=Shaera_Targaryen" xlink:title="Shaera Targaryen" target="_blank">
<polygon fill="white" stroke="black" points="1073,-899 921,-899 921,-747 1073,-747 1073,-899"/>
</a>
</g>
<g id="a_node3_2"><a xlink:href="http://awoiaf.westeros.org/index.php/Shaera_Targaryen" xlink:title="Shaera Targaryen" target="_blank">
<text text-anchor="start" x="933.5" y="-826.3" font-family="Times,serif" font-size="14.00">Shaera Targaryen</text>
<text text-anchor="start" x="967.5" y="-811.3" font-family="Times,serif" font-size="14.00">226&#45;259</text>
</a>
</g>
<g><a xlink:href="/character/display?id=Shaera_Targaryen" xlink:title="Shaera Targaryen" target="_blank">
</a>
</g>
</g>
<!-- 162&#45;&gt;161+162 -->
<g id="edge4" class="edge"><title>162&#45;&gt;161+162</title>
<g id="a_edge4"><a xlink:title=" ">
<path fill="none" stroke="black" d="M942.564,-746.936C923.991,-721.325 906.864,-697.707 902.872,-692.203"/>
</a>
</g>
</g>
<!-- 157 -->
<g id="node4" class="node"><title>157</title>
<g id="a_node4"><a xlink:href="/character/display?id=Aegon_V_Targaryen" xlink:title="Aegon V Targaryen" target="_blank">
<polygon fill="white" stroke="black" points="896.25,-1157.5 733.75,-1157.5 733.75,-994.5 896.25,-994.5 896.25,-1157.5"/>
</a>
</g>
<g id="a_node4_3"><a xlink:href="http://awoiaf.westeros.org/index.php/Aegon_V_Targaryen" xlink:title="Aegon V Targaryen" target="_blank">
<text text-anchor="start" x="746.5" y="-1079.3" font-family="Times,serif" font-size="14.00">Aegon V Targaryen</text>
<text text-anchor="start" x="786" y="-1064.3" font-family="Times,serif" font-size="14.00">200&#45;259</text>
</a>
</g>
<g><a xlink:href="/character/display?id=Aegon_V_Targaryen" xlink:title="Aegon V Targaryen" target="_blank">
</a>
</g>
</g>
<!-- 157+158 -->
<g id="node22" class="node"><title>157+158</title>
<g id="a_node22"><a xlink:title=" ">
<ellipse fill="black" stroke="black" cx="902" cy="-956" rx="1.8" ry="1.8"/>
</a>
</g>
</g>
<!-- 157&#45;&gt;157+158 -->
<g id="edge5" class="edge"><title>157&#45;&gt;157+158</title>
<g id="a_edge5"><a xlink:title=" ">
<path fill="none" stroke="black" d="M874.473,-994.336C887.854,-976.187 898.894,-961.213 901.444,-957.754"/>
</a>
</g>
</g>
<!-- 158 -->
<g id="node5" class="node"><title>158</title>
<g id="a_node5"><a xlink:href="/character/display?id=Betha_Blackwood" xlink:title="Betha Blackwood" target="_blank">
<polygon fill="white" stroke="black" points="1064.5,-1151 915.5,-1151 915.5,-1001 1064.5,-1001 1064.5,-1151"/>
</a>
</g>
<g id="a_node5_4"><a xlink:href="http://awoiaf.westeros.org/index.php/Betha_Blackwood" xlink:title="Betha Blackwood" target="_blank">
<text text-anchor="start" x="927.5" y="-1079.3" font-family="Times,serif" font-size="14.00">Betha Blackwood</text>
<text text-anchor="start" x="965" y="-1064.3" font-family="Times,serif" font-size="14.00">???&#45;???</text>
</a>
</g>
<g><a xlink:href="/character/display?id=Betha_Blackwood" xlink:title="Betha Blackwood" target="_blank">
</a>
</g>
</g>
<!-- 158&#45;&gt;157+158 -->
<g id="edge6" class="edge"><title>158&#45;&gt;157+158</title>
<g id="a_edge6"><a xlink:title=" ">
<path fill="none" stroke="black" d="M934.768,-1000.94C919.297,-980.194 905.812,-962.112 902.683,-957.916"/>
</a>
</g>
</g>
<!-- 165 -->
<g id="node6" class="node"><title>165</title>
<g id="a_node6"><a xlink:href="/character/display?id=Rhaegar_Targaryen" xlink:title="Rhaegar Targaryen" target="_blank">
<polygon fill="white" stroke="black" points="291.25,-408.5 128.75,-408.5 128.75,-245.5 291.25,-245.5 291.25,-408.5"/>
</a>
</g>
<g id="a_node6_5"><a xlink:href="http://awoiaf.westeros.org/index.php/Rhaegar_Targaryen" xlink:title="Rhaegar Targaryen" target="_blank">
<text text-anchor="start" x="141.5" y="-330.3" font-family="Times,serif" font-size="14.00">Rhaegar Targaryen</text>
<text text-anchor="start" x="181" y="-315.3" font-family="Times,serif" font-size="14.00">259&#45;283</text>
</a>
</g>
<g><a xlink:href="/character/display?id=Rhaegar_Targaryen" xlink:title="Rhaegar Targaryen" target="_blank">
</a>
</g>
</g>
<!-- 165+121 -->
<g id="node23" class="node"><title>165+121</title>
<g id="a_node23"><a xlink:title=" ">
<ellipse fill="black" stroke="black" cx="132" cy="-202" rx="1.8" ry="1.8"/>
</a>
</g>
</g>
<!-- 165&#45;&gt;165+121 -->
<g id="edge7" class="edge"><title>165&#45;&gt;165+121</title>
<g id="a_edge7"><a xlink:title=" ">
<path fill="none" stroke="black" d="M158.843,-245.33C145.979,-225.044 135.075,-207.849 132.55,-203.868"/>
</a>
</g>
</g>
<!-- 168 -->
<g id="node7" class="node"><title>168</title>
<g id="a_node7"><a xlink:href="/character/display?id=Shaena_Targaryen" xlink:title="Shaena Targaryen" target="_blank">
<polygon fill="white" stroke="black" points="567.25,-404.5 412.75,-404.5 412.75,-249.5 567.25,-249.5 567.25,-404.5"/>
</a>
</g>
<g id="a_node7_6"><a xlink:href="http://awoiaf.westeros.org/index.php/Shaena_Targaryen" xlink:title="Shaena Targaryen" target="_blank">
<text text-anchor="start" x="425.5" y="-330.3" font-family="Times,serif" font-size="14.00">Shaena Targaryen</text>
<text text-anchor="start" x="461" y="-315.3" font-family="Times,serif" font-size="14.00">267&#45;267</text>
</a>
</g>
<g><a xlink:href="/character/display?id=Shaena_Targaryen" xlink:title="Shaena Targaryen" target="_blank">
</a>
</g>
</g>
<!-- 169 -->
<g id="node8" class="node"><title>169</title>
<g id="a_node8"><a xlink:href="/character/display?id=Daeron_Targaryen_(son_of_Aerys_II)" xlink:title="Daeron Targaryen" target="_blank">
<polygon fill="white" stroke="black" points="740.25,-404.5 585.75,-404.5 585.75,-249.5 740.25,-249.5 740.25,-404.5"/>
</a>
</g>
<g id="a_node8_7"><a xlink:href="http://awoiaf.westeros.org/index.php/Daeron_Targaryen_(son_of_Aerys_II)" xlink:title="Daeron Targaryen" target="_blank">
<text text-anchor="start" x="598.5" y="-330.3" font-family="Times,serif" font-size="14.00">Daeron Targaryen</text>
<text text-anchor="start" x="634" y="-315.3" font-family="Times,serif" font-size="14.00">269&#45;269</text>
</a>
</g>
<g><a xlink:href="/character/display?id=Daeron_Targaryen_(son_of_Aerys_II)" xlink:title="Daeron Targaryen" target="_blank">
</a>
</g>
</g>
<!-- 170 -->
<g id="node9" class="node"><title>170</title>
<g id="a_node9"><a xlink:title="Stillborn Child" target="_blank">
<polygon fill="white" stroke="black" points="889,-392 759,-392 759,-262 889,-262 889,-392"/>
<text text-anchor="start" x="771.5" y="-330.3" font-family="Times,serif" font-size="14.00">Stillborn Child</text>
<text text-anchor="start" x="799" y="-315.3" font-family="Times,serif" font-size="14.00">???&#45;???</text>
</a>
</g>
</g>
<!-- 171 -->
<g id="node10" class="node"><title>171</title>
<g id="a_node10"><a xlink:href="/character/display?id=Aegon_Targaryen_(son_of_Aerys_II)" xlink:title="Aegon Targaryen" target="_blank">
<polygon fill="white" stroke="black" points="1055,-401 907,-401 907,-253 1055,-253 1055,-401"/>
</a>
</g>
<g id="a_node10_9"><a xlink:href="http://awoiaf.westeros.org/index.php/Aegon_Targaryen_(son_of_Aerys_II)" xlink:title="Aegon Targaryen" target="_blank">
<text text-anchor="start" x="919.5" y="-330.3" font-family="Times,serif" font-size="14.00">Aegon Targaryen</text>
<text text-anchor="start" x="951.5" y="-315.3" font-family="Times,serif" font-size="14.00">272&#45;273</text>
</a>
</g>
<g><a xlink:href="/character/display?id=Aegon_Targaryen_(son_of_Aerys_II)" xlink:title="Aegon Targaryen" target="_blank">
</a>
</g>
</g>
<!-- 172 -->
<g id="node11" class="node"><title>172</title>
<g id="a_node11"><a xlink:href="/character/display?id=Jaehaerys_Targaryen_(son_of_Aerys_II)" xlink:title="Jaehaerys Targaryen" target="_blank">
<polygon fill="white" stroke="black" points="1246.25,-413.5 1073.75,-413.5 1073.75,-240.5 1246.25,-240.5 1246.25,-413.5"/>
</a>
</g>
<g id="a_node11_10"><a xlink:href="http://awoiaf.westeros.org/index.php/Jaehaerys_Targaryen_(son_of_Aerys_II)" xlink:title="Jaehaerys Targaryen" target="_blank">
<text text-anchor="start" x="1086.5" y="-330.3" font-family="Times,serif" font-size="14.00">Jaehaerys Targaryen</text>
<text text-anchor="start" x="1131" y="-315.3" font-family="Times,serif" font-size="14.00">274&#45;274</text>
</a>
</g>
<g><a xlink:href="/character/display?id=Jaehaerys_Targaryen_(son_of_Aerys_II)" xlink:title="Jaehaerys Targaryen" target="_blank">
</a>
</g>
</g>
<!-- 173 -->
<g id="node12" class="node"><title>173</title>
<g id="a_node12"><a xlink:href="/character/display?id=Viserys_Targaryen" xlink:title="Viserys Targaryen" target="_blank">
<polygon fill="white" stroke="black" points="1421,-405 1265,-405 1265,-249 1421,-249 1421,-405"/>
</a>
</g>
<g id="a_node12_11"><a xlink:href="http://awoiaf.westeros.org/index.php/Viserys_Targaryen" xlink:title="Viserys Targaryen" target="_blank">
<text text-anchor="start" x="1277.5" y="-330.3" font-family="Times,serif" font-size="14.00">Viserys Targaryen</text>
<text text-anchor="start" x="1313.5" y="-315.3" font-family="Times,serif" font-size="14.00">276&#45;298</text>
</a>
</g>
<g><a xlink:href="/character/display?id=Viserys_Targaryen" xlink:title="Viserys Targaryen" target="_blank">
</a>
</g>
</g>
<!-- 174 -->
<g id="node13" class="node"><title>174</title>
<g id="a_node13"><a xlink:href="/character/display?id=Daenerys_Targaryen" xlink:title="Daenerys Targaryen" target="_blank">
<polygon fill="white" stroke="black" points="1609,-412 1439,-412 1439,-242 1609,-242 1609,-412"/>
</a>
</g>
<g id="a_node13_12"><a xlink:href="http://awoiaf.westeros.org/index.php/Daenerys_Targaryen" xlink:title="Daenerys Targaryen" target="_blank">
<text text-anchor="start" x="1451.5" y="-330.3" font-family="Times,serif" font-size="14.00">Daenerys Targaryen</text>
<text text-anchor="start" x="1508" y="-315.3" font-family="Times,serif" font-size="14.00">284&#45;</text>
</a>
</g>
<g><a xlink:href="/character/display?id=Daenerys_Targaryen" xlink:title="Daenerys Targaryen" target="_blank">
</a>
</g>
</g>
<!-- 174+175 -->
<g id="node24" class="node"><title>174+175</title>
<g id="a_node24"><a xlink:title=" ">
<ellipse fill="black" stroke="black" cx="960" cy="-202" rx="1.8" ry="1.8"/>
</a>
</g>
</g>
<!-- 174&#45;&gt;174+175 -->
<g id="edge9" class="edge"><title>174&#45;&gt;174+175</title>
<g id="a_edge9"><a xlink:title=" ">
<path fill="none" stroke="black" d="M1438.72,-244.208C1435.85,-242.687 1432.94,-241.278 1430,-240 1337.66,-199.891 988.787,-202.701 961.673,-202.981"/>
</a>
</g>
</g>
<!-- 166 -->
<g id="node14" class="node"><title>166</title>
<g id="a_node14"><a xlink:href="/character/display?id=Rhaenys_Targaryen" xlink:title="Rhaenys Targaryen" target="_blank">
<polygon fill="white" stroke="black" points="170,-164 6,-164 6,-0 170,-0 170,-164"/>
</a>
</g>
<g id="a_node14_13"><a xlink:href="http://awoiaf.westeros.org/index.php/Rhaenys_Targaryen" xlink:title="Rhaenys Targaryen" target="_blank">
<text text-anchor="start" x="18.5" y="-85.3" font-family="Times,serif" font-size="14.00">Rhaenys Targaryen</text>
<text text-anchor="start" x="58.5" y="-70.3" font-family="Times,serif" font-size="14.00">280&#45;283</text>
</a>
</g>
<g><a xlink:href="/character/display?id=Rhaenys_Targaryen" xlink:title="Rhaenys Targaryen" target="_blank">
</a>
</g>
</g>
<!-- 167 -->
<g id="node15" class="node"><title>167</title>
<g id="a_node15"><a xlink:href="/character/display?id=Aegon_Targaryen_(son_of_Rhaegar)" xlink:title="Aegon Targaryen" target="_blank">
<polygon fill="white" stroke="black" points="336,-156 188,-156 188,-8 336,-8 336,-156"/>
</a>
</g>
<g id="a_node15_14"><a xlink:href="http://awoiaf.westeros.org/index.php/Aegon_Targaryen_(son_of_Rhaegar)" xlink:title="Aegon Targaryen" target="_blank">
<text text-anchor="start" x="200.5" y="-85.3" font-family="Times,serif" font-size="14.00">Aegon Targaryen</text>
<text text-anchor="start" x="232.5" y="-70.3" font-family="Times,serif" font-size="14.00">281&#45;283</text>
</a>
</g>
<g><a xlink:href="/character/display?id=Aegon_Targaryen_(son_of_Rhaegar)" xlink:title="Aegon Targaryen" target="_blank">
</a>
</g>
</g>
<!-- 176 -->
<g id="node16" class="node"><title>176</title>
<g id="a_node16"><a xlink:href="/character/display?id=Rhaego" xlink:title="Rhaego" target="_blank">
<polygon fill="white" stroke="black" points="1001.5,-124 918.5,-124 918.5,-40 1001.5,-40 1001.5,-124"/>
</a>
</g>
<g id="a_node16_15"><a xlink:href="http://awoiaf.westeros.org/index.php/Rhaego" xlink:title="Rhaego" target="_blank">
<text text-anchor="start" x="933" y="-85.3" font-family="Times,serif" font-size="14.00">Rhaego</text>
<text text-anchor="start" x="930.5" y="-70.3" font-family="Times,serif" font-size="14.00">298&#45;298</text>
</a>
</g>
<g><a xlink:href="/character/display?id=Rhaego" xlink:title="Rhaego" target="_blank">
</a>
</g>
</g>
<!-- 164 -->
<g id="node17" class="node"><title>164</title>
<g id="a_node17"><a xlink:href="/character/display?id=Rhaella_Targaryen" xlink:title="Rhaella Targaryen" target="_blank">
<polygon fill="white" stroke="black" points="1069,-649 913,-649 913,-493 1069,-493 1069,-649"/>
</a>
</g>
<g id="a_node17_16"><a xlink:href="http://awoiaf.westeros.org/index.php/Rhaella_Targaryen" xlink:title="Rhaella Targaryen" target="_blank">
<text text-anchor="start" x="925.5" y="-574.3" font-family="Times,serif" font-size="14.00">Rhaella Targaryen</text>
<text text-anchor="start" x="961.5" y="-559.3" font-family="Times,serif" font-size="14.00">245&#45;284</text>
</a>
</g>
<g><a xlink:href="/character/display?id=Rhaella_Targaryen" xlink:title="Rhaella Targaryen" target="_blank">
</a>
</g>
</g>
<!-- 164&#45;&gt;163+164 -->
<g id="edge2" class="edge"><title>164&#45;&gt;163+164</title>
<g id="a_edge2"><a xlink:title=" ">
<path fill="none" stroke="black" d="M932.38,-492.938C917.799,-473.77 905.475,-457.568 902.622,-453.818"/>
</a>
</g>
</g>
<!-- 121 -->
<g id="node18" class="node"><title>121</title>
<g id="a_node18"><a xlink:href="/character/display?id=Elia_Martell" xlink:title="Elia Martell" target="_blank">
<polygon fill="white" stroke="black" points="110.25,-382.5 -0.25,-382.5 -0.25,-271.5 110.25,-271.5 110.25,-382.5"/>
</a>
</g>
<g id="a_node18_17"><a xlink:href="http://awoiaf.westeros.org/index.php/Elia_Martell" xlink:title="Elia Martell" target="_blank">
<text text-anchor="start" x="12.5" y="-330.3" font-family="Times,serif" font-size="14.00">Elia Martell</text>
<text text-anchor="start" x="26" y="-315.3" font-family="Times,serif" font-size="14.00">256&#45;283</text>
</a>
</g>
<g><a xlink:href="/character/display?id=Elia_Martell" xlink:title="Elia Martell" target="_blank">
</a>
</g>
</g>
<!-- 121&#45;&gt;165+121 -->
<g id="edge8" class="edge"><title>121&#45;&gt;165+121</title>
<g id="a_edge8"><a xlink:title=" ">
<path fill="none" stroke="black" d="M89.2217,-271.334C107.859,-241.564 127.849,-209.63 131.434,-203.904"/>
</a>
</g>
</g>
<!-- 175 -->
<g id="node19" class="node"><title>175</title>
<g id="a_node19"><a xlink:href="/character/display?id=Drogo" xlink:title="Drogo" target="_blank">
<polygon fill="white" stroke="black" points="393.5,-369 310.5,-369 310.5,-285 393.5,-285 393.5,-369"/>
</a>
</g>
<g id="a_node19_18"><a xlink:href="http://awoiaf.westeros.org/index.php/Drogo" xlink:title="Drogo" target="_blank">
<text text-anchor="start" x="330" y="-330.3" font-family="Times,serif" font-size="14.00">Drogo</text>
<text text-anchor="start" x="322.5" y="-315.3" font-family="Times,serif" font-size="14.00">267&#45;298</text>
</a>
</g>
<g><a xlink:href="/character/display?id=Drogo" xlink:title="Drogo" target="_blank">
</a>
</g>
</g>
<!-- 175&#45;&gt;174+175 -->
<g id="edge10" class="edge"><title>175&#45;&gt;174+175</title>
<g id="a_edge10"><a xlink:title=" ">
<path fill="none" stroke="black" d="M366.533,-284.64C374.603,-267.91 386.435,-250.177 403,-240 453.99,-208.673 925.11,-203.353 958.172,-203.018"/>
</a>
</g>
</g>
<!-- 163+164&#45;&gt;165 -->
<g id="edge14" class="edge"><title>163+164&#45;&gt;165</title>
<path fill="none" stroke="black" d="M900.45,-450.969C868.741,-450.336 360.459,-439.795 301,-414 297.311,-412.4 293.68,-410.581 290.117,-408.585"/>
</g>
<!-- 163+164&#45;&gt;168 -->
<g id="edge15" class="edge"><title>163+164&#45;&gt;168</title>
<path fill="none" stroke="black" d="M900.331,-450.963C878.022,-450.442 638.598,-444.177 576,-414 570.484,-411.341 565.114,-408.181 559.928,-404.667"/>
</g>
<!-- 163+164&#45;&gt;169 -->
<g id="edge16" class="edge"><title>163+164&#45;&gt;169</title>
<path fill="none" stroke="black" d="M900.387,-450.93C887.922,-450.327 805.965,-445.245 750,-414 744.993,-411.205 740.075,-408.042 735.282,-404.622"/>
</g>
<!-- 163+164&#45;&gt;170 -->
<g id="edge17" class="edge"><title>163+164&#45;&gt;170</title>
<path fill="none" stroke="black" d="M901.502,-450.215C898.44,-445.386 881.734,-419.043 864.613,-392.044"/>
</g>
<!-- 163+164&#45;&gt;171 -->
<g id="edge18" class="edge"><title>163+164&#45;&gt;171</title>
<path fill="none" stroke="black" d="M902.504,-450.215C905.251,-445.938 918.835,-424.789 933.951,-401.254"/>
</g>
<!-- 163+164&#45;&gt;172 -->
<g id="edge19" class="edge"><title>163+164&#45;&gt;172</title>
<path fill="none" stroke="black" d="M903.705,-450.931C916.876,-450.334 1003.53,-445.29 1064,-414 1067.18,-412.355 1070.34,-410.579 1073.46,-408.696"/>
</g>
<!-- 163+164&#45;&gt;173 -->
<g id="edge20" class="edge"><title>163+164&#45;&gt;173</title>
<path fill="none" stroke="black" d="M903.521,-450.979C925.813,-450.647 1186.68,-446.095 1255,-414 1260.41,-411.457 1265.7,-408.441 1270.81,-405.087"/>
</g>
<!-- 163+164&#45;&gt;174 -->
<g id="edge21" class="edge"><title>163+164&#45;&gt;174</title>
<path fill="none" stroke="black" d="M903.525,-451.032C931.14,-451.592 1325.72,-458.765 1430,-414 1432.95,-412.735 1435.86,-411.337 1438.74,-409.826"/>
</g>
<!-- 161+162&#45;&gt;163 -->
<g id="edge11" class="edge"><title>161+162&#45;&gt;163</title>
<path fill="none" stroke="black" d="M901.438,-688.253C898.847,-684.808 887.598,-669.852 873.986,-651.754"/>
</g>
<!-- 161+162&#45;&gt;164 -->
<g id="edge25" class="edge"><title>161+162&#45;&gt;164</title>
<path fill="none" stroke="black" d="M902.568,-688.253C905.307,-684.652 917.612,-668.476 932.213,-649.282"/>
</g>
<!-- 157+158&#45;&gt;161 -->
<g id="edge12" class="edge"><title>157+158&#45;&gt;161</title>
<path fill="none" stroke="black" d="M901.4,-954.163C898.851,-950.612 888.459,-936.129 875.476,-918.035"/>
</g>
<!-- 157+158&#45;&gt;162 -->
<g id="edge13" class="edge"><title>157+158&#45;&gt;162</title>
<path fill="none" stroke="black" d="M902.607,-954.163C906.036,-949.435 923.514,-925.333 942.517,-899.13"/>
</g>
<!-- 165+121&#45;&gt;166 -->
<g id="edge22" class="edge"><title>165+121&#45;&gt;166</title>
<path fill="none" stroke="black" d="M131.506,-199.675C129.91,-195.396 124.628,-181.23 118.267,-164.17"/>
</g>
<!-- 165+121&#45;&gt;167 -->
<g id="edge23" class="edge"><title>165+121&#45;&gt;167</title>
<path fill="none" stroke="black" d="M133.2,-200.129C138.644,-196.163 161.512,-179.34 179,-164 181.876,-161.477 184.782,-158.883 187.698,-156.241"/>
</g>
<!-- 174+175&#45;&gt;176 -->
<g id="edge24" class="edge"><title>174+175&#45;&gt;176</title>
<path fill="none" stroke="black" d="M960,-199.675C960,-192.205 960,-154.61 960,-124.084"/>
</g>
</g>
</svg>
