<?xml version="1.0" encoding="UTF-8" standalone="no"?>
<!DOCTYPE svg PUBLIC "-//W3C//DTD SVG 1.1//EN"
 "http://www.w3.org/Graphics/SVG/1.1/DTD/svg11.dtd">
<!-- Generated by graphviz version 2.36.0 (20140111.2315)
 -->
<!-- Title: family Pages: 1 -->
<svg width="1132pt" height="626pt"
 viewBox="0.00 0.00 1132.00 626.00" xmlns="http://www.w3.org/2000/svg" xmlns:xlink="http://www.w3.org/1999/xlink">
<g id="graph0" class="graph" transform="scale(1 1) rotate(0) translate(4 622)">
<title>family</title>
<polygon fill="white" stroke="none" points="-4,4 -4,-622 1128,-622 1128,4 -4,4"/>
<!-- 20 -->
<g id="node1" class="node"><title>20</title>
<g id="a_node1"><a xlink:href="/character/display?id=Lysa_Arryn" xlink:title="Lysa Tully" target="_blank">
<polygon fill="white" stroke="black" points="449.25,-342.5 350.75,-342.5 350.75,-243.5 449.25,-243.5 449.25,-342.5"/>
</a>
</g>
<g id="a_node1_0"><a xlink:href="http://awoiaf.westeros.org/index.php/Lysa_Arryn" xlink:title="Lysa Tully" target="_blank">
<text text-anchor="start" x="363.5" y="-296.3" font-family="Times,serif" font-size="14.00">Lysa Tully</text>
<text text-anchor="start" x="371" y="-281.3" font-family="Times,serif" font-size="14.00">266&#45;300</text>
</a>
</g>
<g><a xlink:href="/character/display?id=Lysa_Arryn" xlink:title="Lysa Tully" target="_blank">
</a>
</g>
</g>
<!-- 22+20 -->
<g id="node15" class="node"><title>22+20</title>
<ellipse fill="black" stroke="black" cx="404" cy="-158" rx="1.8" ry="1.8"/>
</g>
<!-- 20&#45;&gt;22+20 -->
<g id="edge2" class="edge"><title>20&#45;&gt;22+20</title>
<path fill="none" stroke="black" d="M401.467,-243.231C402.519,-208.238 403.784,-166.179 403.975,-159.821"/>
</g>
<!-- 22 -->
<g id="node2" class="node"><title>22</title>
<g id="a_node2"><a xlink:href="/character/display?id=Jon_Arryn" xlink:title="Jon Arryn" target="_blank">
<polygon fill="white" stroke="black" points="562.25,-340.5 467.75,-340.5 467.75,-245.5 562.25,-245.5 562.25,-340.5"/>
</a>
</g>
<g id="a_node2_1"><a xlink:href="http://awoiaf.westeros.org/index.php/Jon_Arryn" xlink:title="Jon Arryn" target="_blank">
<text text-anchor="start" x="480.5" y="-296.3" font-family="Times,serif" font-size="14.00">Jon Arryn</text>
<text text-anchor="start" x="486" y="-281.3" font-family="Times,serif" font-size="14.00">217&#45;298</text>
</a>
</g>
<g><a xlink:href="/character/display?id=Jon_Arryn" xlink:title="Jon Arryn" target="_blank">
</a>
</g>
</g>
<!-- 22&#45;&gt;22+20 -->
<g id="edge1" class="edge"><title>22&#45;&gt;22+20</title>
<path fill="none" stroke="black" d="M492.613,-245.238C483.314,-228.597 471.519,-210.426 458,-196 440.593,-177.425 412.304,-163.028 405.504,-159.719"/>
</g>
<!-- 22+70 -->
<g id="node16" class="node"><title>22+70</title>
<ellipse fill="black" stroke="black" cx="576" cy="-158" rx="1.8" ry="1.8"/>
</g>
<!-- 22&#45;&gt;22+70 -->
<g id="edge3" class="edge"><title>22&#45;&gt;22+70</title>
<path fill="none" stroke="black" d="M536.335,-245.483C552.551,-210.126 572.578,-166.461 575.608,-159.854"/>
</g>
<!-- 22+71 -->
<g id="node17" class="node"><title>22+71</title>
<ellipse fill="black" stroke="black" cx="777" cy="-158" rx="1.8" ry="1.8"/>
</g>
<!-- 22&#45;&gt;22+71 -->
<g id="edge5" class="edge"><title>22&#45;&gt;22+71</title>
<path fill="none" stroke="black" d="M532.139,-245.313C541.053,-227.245 553.764,-208.052 571,-196 607.032,-170.805 759.026,-160.181 775.542,-159.094"/>
</g>
<!-- 23 -->
<g id="node3" class="node"><title>23</title>
<g id="a_node3"><a xlink:href="/character/display?id=Robert_Arryn" xlink:title="Robert Arryn" target="_blank">
<polygon fill="white" stroke="black" points="463.5,-120 344.5,-120 344.5,-1.42109e-14 463.5,-1.42109e-14 463.5,-120"/>
</a>
</g>
<g id="a_node3_2"><a xlink:href="http://awoiaf.westeros.org/index.php/Robert_Arryn" xlink:title="Robert Arryn" target="_blank">
<text text-anchor="start" x="356.5" y="-63.3" font-family="Times,serif" font-size="14.00">Robert Arryn</text>
<text text-anchor="start" x="388" y="-48.3" font-family="Times,serif" font-size="14.00">292&#45;</text>
</a>
</g>
<g><a xlink:href="/character/display?id=Robert_Arryn" xlink:title="Robert Arryn" target="_blank">
</a>
</g>
</g>
<!-- 68 -->
<g id="node4" class="node"><title>68</title>
<g id="a_node4"><a xlink:href="/character/display?id=Jasper_Arryn" xlink:title="Jasper Arryn" target="_blank">
<polygon fill="white" stroke="black" points="497.25,-600.5 380.75,-600.5 380.75,-483.5 497.25,-483.5 497.25,-600.5"/>
</a>
</g>
<g id="a_node4_3"><a xlink:href="http://awoiaf.westeros.org/index.php/Jasper_Arryn" xlink:title="Jasper Arryn" target="_blank">
<text text-anchor="start" x="393.5" y="-545.3" font-family="Times,serif" font-size="14.00">Jasper Arryn</text>
<text text-anchor="start" x="414.5" y="-530.3" font-family="Times,serif" font-size="14.00">???&#45;???</text>
</a>
</g>
<g><a xlink:href="/character/display?id=Jasper_Arryn" xlink:title="Jasper Arryn" target="_blank">
</a>
</g>
</g>
<!-- 68+69 -->
<g id="node18" class="node"><title>68+69</title>
<ellipse fill="black" stroke="black" cx="515" cy="-428" rx="1.8" ry="1.8"/>
</g>
<!-- 68&#45;&gt;68+69 -->
<g id="edge7" class="edge"><title>68&#45;&gt;68+69</title>
<path fill="none" stroke="black" d="M478.113,-483.36C494.407,-459.347 510.428,-435.737 514.179,-430.21"/>
</g>
<!-- 69 -->
<g id="node5" class="node"><title>69</title>
<g id="a_node5"><a xlink:title="Unknown Woman" target="_blank">
<polygon fill="white" stroke="black" points="666.25,-617.5 515.75,-617.5 515.75,-466.5 666.25,-466.5 666.25,-617.5"/>
<text text-anchor="start" x="528.5" y="-545.3" font-family="Times,serif" font-size="14.00">Unknown Woman</text>
<text text-anchor="start" x="566.5" y="-530.3" font-family="Times,serif" font-size="14.00">???&#45;???</text>
</a>
</g>
</g>
<!-- 69&#45;&gt;68+69 -->
<g id="edge8" class="edge"><title>69&#45;&gt;68+69</title>
<path fill="none" stroke="black" d="M540.307,-466.294C528.109,-448.318 517.882,-433.247 515.516,-429.76"/>
</g>
<!-- 70 -->
<g id="node6" class="node"><title>70</title>
<g id="a_node6"><a xlink:href="/character/display?id=Jeyne_Royce" xlink:title="Jeyne Royce" target="_blank">
<polygon fill="white" stroke="black" points="693.25,-349.5 580.75,-349.5 580.75,-236.5 693.25,-236.5 693.25,-349.5"/>
</a>
</g>
<g id="a_node6_5"><a xlink:href="http://awoiaf.westeros.org/index.php/Jeyne_Royce" xlink:title="Jeyne Royce" target="_blank">
<text text-anchor="start" x="593.5" y="-296.3" font-family="Times,serif" font-size="14.00">Jeyne Royce</text>
<text text-anchor="start" x="612.5" y="-281.3" font-family="Times,serif" font-size="14.00">???&#45;???</text>
</a>
</g>
<g><a xlink:href="/character/display?id=Jeyne_Royce" xlink:title="Jeyne Royce" target="_blank">
</a>
</g>
</g>
<!-- 70&#45;&gt;22+70 -->
<g id="edge4" class="edge"><title>70&#45;&gt;22+70</title>
<path fill="none" stroke="black" d="M611.484,-236.367C596.335,-203.338 579.501,-166.633 576.478,-160.042"/>
</g>
<!-- 71 -->
<g id="node7" class="node"><title>71</title>
<g id="a_node7"><a xlink:href="/character/display?id=Rowena_Arryn" xlink:title="Rowena Arryn" target="_blank">
<polygon fill="white" stroke="black" points="960,-357 832,-357 832,-229 960,-229 960,-357"/>
</a>
</g>
<g id="a_node7_6"><a xlink:href="http://awoiaf.westeros.org/index.php/Rowena_Arryn" xlink:title="Rowena Arryn" target="_blank">
<text text-anchor="start" x="844.5" y="-296.3" font-family="Times,serif" font-size="14.00">Rowena Arryn</text>
<text text-anchor="start" x="871" y="-281.3" font-family="Times,serif" font-size="14.00">???&#45;???</text>
</a>
</g>
<g><a xlink:href="/character/display?id=Rowena_Arryn" xlink:title="Rowena Arryn" target="_blank">
</a>
</g>
</g>
<!-- 71&#45;&gt;22+71 -->
<g id="edge6" class="edge"><title>71&#45;&gt;22+71</title>
<path fill="none" stroke="black" d="M850.597,-228.841C841.556,-217.526 831.812,-206.125 822,-196 806.234,-179.73 783.605,-163.604 778.195,-159.827"/>
</g>
<!-- 72 -->
<g id="node8" class="node"><title>72</title>
<g id="a_node8"><a xlink:href="/character/display?id=Alys_Arryn" xlink:title="Alys Arryn" target="_blank">
<polygon fill="white" stroke="black" points="813.5,-344 712.5,-344 712.5,-242 813.5,-242 813.5,-344"/>
</a>
</g>
<g id="a_node8_7"><a xlink:href="http://awoiaf.westeros.org/index.php/Alys_Arryn" xlink:title="Alys Arryn" target="_blank">
<text text-anchor="start" x="724.5" y="-296.3" font-family="Times,serif" font-size="14.00">Alys Arryn</text>
<text text-anchor="start" x="735.5" y="-281.3" font-family="Times,serif" font-size="14.00">218&#45;???</text>
</a>
</g>
<g><a xlink:href="/character/display?id=Alys_Arryn" xlink:title="Alys Arryn" target="_blank">
</a>
</g>
</g>
<!-- 74 -->
<g id="node9" class="node"><title>74</title>
<g id="a_node9"><a xlink:title="Daughter" target="_blank">
<polygon fill="white" stroke="black" points="990.25,-588.5 897.75,-588.5 897.75,-495.5 990.25,-495.5 990.25,-588.5"/>
<text text-anchor="start" x="910.5" y="-545.3" font-family="Times,serif" font-size="14.00">Daughter</text>
<text text-anchor="start" x="919.5" y="-530.3" font-family="Times,serif" font-size="14.00">???&#45;???</text>
</a>
</g>
</g>
<!-- 75+74 -->
<g id="node19" class="node"><title>75+74</title>
<ellipse fill="black" stroke="black" cx="1005" cy="-428" rx="1.8" ry="1.8"/>
</g>
<!-- 74&#45;&gt;75+74 -->
<g id="edge10" class="edge"><title>74&#45;&gt;75+74</title>
<path fill="none" stroke="black" d="M968.811,-495.445C984.116,-467.344 1001.4,-435.606 1004.51,-429.902"/>
</g>
<!-- 75 -->
<g id="node10" class="node"><title>75</title>
<g id="a_node10"><a xlink:href="/character/display?id=Denys_Arryn" xlink:title="Denys Arryn" target="_blank">
<polygon fill="white" stroke="black" points="1123.5,-600 1008.5,-600 1008.5,-484 1123.5,-484 1123.5,-600"/>
</a>
</g>
<g id="a_node10_9"><a xlink:href="http://awoiaf.westeros.org/index.php/Denys_Arryn" xlink:title="Denys Arryn" target="_blank">
<text text-anchor="start" x="1020.5" y="-545.3" font-family="Times,serif" font-size="14.00">Denys Arryn</text>
<text text-anchor="start" x="1038.5" y="-530.3" font-family="Times,serif" font-size="14.00">???&#45;283</text>
</a>
</g>
<g><a xlink:href="/character/display?id=Denys_Arryn" xlink:title="Denys Arryn" target="_blank">
</a>
</g>
</g>
<!-- 75&#45;&gt;75+74 -->
<g id="edge9" class="edge"><title>75&#45;&gt;75+74</title>
<path fill="none" stroke="black" d="M1034.79,-483.688C1021.65,-459.576 1008.7,-435.79 1005.66,-430.22"/>
</g>
<!-- 76 -->
<g id="node11" class="node"><title>76</title>
<g id="a_node11"><a xlink:title="Son" target="_blank">
<polygon fill="white" stroke="black" points="1031.25,-319.5 978.75,-319.5 978.75,-266.5 1031.25,-266.5 1031.25,-319.5"/>
<text text-anchor="start" x="992" y="-296.3" font-family="Times,serif" font-size="14.00">Son</text>
<text text-anchor="start" x="991.5" y="-281.3" font-family="Times,serif" font-size="14.00">???&#45;</text>
</a>
</g>
</g>
<!-- 86 -->
<g id="node12" class="node"><title>86</title>
<g id="a_node12"><a xlink:href="/character/display?id=Ronnel_Arryn" xlink:title="Ronnel Arryn" target="_blank">
<polygon fill="white" stroke="black" points="332.25,-353.5 211.75,-353.5 211.75,-232.5 332.25,-232.5 332.25,-353.5"/>
</a>
</g>
<g id="a_node12_11"><a xlink:href="http://awoiaf.westeros.org/index.php/Ronnel_Arryn" xlink:title="Ronnel Arryn" target="_blank">
<text text-anchor="start" x="224.5" y="-296.3" font-family="Times,serif" font-size="14.00">Ronnel Arryn</text>
<text text-anchor="start" x="245" y="-281.3" font-family="Times,serif" font-size="14.00">219&#45;???</text>
</a>
</g>
<g><a xlink:href="/character/display?id=Ronnel_Arryn" xlink:title="Ronnel Arryn" target="_blank">
</a>
</g>
</g>
<!-- 86+87 -->
<g id="node20" class="node"><title>86+87</title>
<ellipse fill="black" stroke="black" cx="183" cy="-158" rx="1.8" ry="1.8"/>
</g>
<!-- 86&#45;&gt;86+87 -->
<g id="edge11" class="edge"><title>86&#45;&gt;86+87</title>
<path fill="none" stroke="black" d="M231.926,-232.114C210.518,-200.122 187.73,-166.068 183.645,-159.964"/>
</g>
<!-- 87 -->
<g id="node13" class="node"><title>87</title>
<g id="a_node13"><a xlink:title="Lady of House Belmore" target="_blank">
<polygon fill="white" stroke="black" points="193.5,-390 0.5,-390 0.5,-196 193.5,-196 193.5,-390"/>
<text text-anchor="start" x="12.5" y="-296.3" font-family="Times,serif" font-size="14.00">Lady of House Belmore</text>
<text text-anchor="start" x="72" y="-281.3" font-family="Times,serif" font-size="14.00">???&#45;???</text>
</a>
</g>
</g>
<!-- 87&#45;&gt;86+87 -->
<g id="edge12" class="edge"><title>87&#45;&gt;86+87</title>
<path fill="none" stroke="black" d="M159.272,-195.695C170.621,-178.145 179.711,-164.087 182.274,-160.122"/>
</g>
<!-- 88 -->
<g id="node14" class="node"><title>88</title>
<g id="a_node14"><a xlink:href="/character/display?id=Elbert_Arryn" xlink:title="Elbert Arryn" target="_blank">
<polygon fill="white" stroke="black" points="240.5,-118 125.5,-118 125.5,-2 240.5,-2 240.5,-118"/>
</a>
</g>
<g id="a_node14_13"><a xlink:href="http://awoiaf.westeros.org/index.php/Elbert_Arryn" xlink:title="Elbert Arryn" target="_blank">
<text text-anchor="start" x="137.5" y="-63.3" font-family="Times,serif" font-size="14.00">Elbert Arryn</text>
<text text-anchor="start" x="155.5" y="-48.3" font-family="Times,serif" font-size="14.00">???&#45;282</text>
</a>
</g>
<g><a xlink:href="/character/display?id=Elbert_Arryn" xlink:title="Elbert Arryn" target="_blank">
</a>
</g>
</g>
<!-- 22+20&#45;&gt;23 -->
<g id="edge14" class="edge"><title>22+20&#45;&gt;23</title>
<path fill="none" stroke="black" d="M404,-155.922C404,-151.884 404,-137.028 404,-120.227"/>
</g>
<!-- 68+69&#45;&gt;22 -->
<g id="edge13" class="edge"><title>68+69&#45;&gt;22</title>
<path fill="none" stroke="black" d="M515,-426.151C515,-419.558 515,-375.872 515,-340.505"/>
</g>
<!-- 68+69&#45;&gt;72 -->
<g id="edge15" class="edge"><title>68+69&#45;&gt;72</title>
<path fill="none" stroke="black" d="M516.716,-426.847C533.548,-425.323 669.224,-412.425 702,-390 718.623,-378.627 731.684,-361.076 741.381,-344.076"/>
</g>
<!-- 68+69&#45;&gt;86 -->
<g id="edge17" class="edge"><title>68+69&#45;&gt;86</title>
<path fill="none" stroke="black" d="M513.453,-427.073C500.046,-427.632 402.541,-430.193 341,-390 326.737,-380.685 314.469,-367.318 304.403,-353.507"/>
</g>
<!-- 75+74&#45;&gt;76 -->
<g id="edge16" class="edge"><title>75+74&#45;&gt;76</title>
<path fill="none" stroke="black" d="M1005,-426.151C1005,-418.164 1005,-355.743 1005,-319.619"/>
</g>
<!-- 86+87&#45;&gt;88 -->
<g id="edge18" class="edge"><title>86+87&#45;&gt;88</title>
<path fill="none" stroke="black" d="M183,-155.922C183,-151.72 183,-135.797 183,-118.161"/>
</g>
</g>
</svg>
