<?xml version="1.0" encoding="UTF-8" standalone="no"?>
<!DOCTYPE svg PUBLIC "-//W3C//DTD SVG 1.1//EN"
 "http://www.w3.org/Graphics/SVG/1.1/DTD/svg11.dtd">
<!-- Generated by graphviz version 2.36.0 (20140111.2315)
 -->
<!-- Title: family Pages: 1 -->
<svg width="1055pt" height="600pt"
 viewBox="0.00 0.00 1055.00 600.00" xmlns="http://www.w3.org/2000/svg" xmlns:xlink="http://www.w3.org/1999/xlink">
<g id="graph0" class="graph" transform="scale(1 1) rotate(0) translate(4 596)">
<title>family</title>
<polygon fill="white" stroke="none" points="-4,4 -4,-596 1051,-596 1051,4 -4,4"/>
<!-- 20 -->
<g id="node1" class="node"><title>20</title>
<g id="a_node1"><a xlink:href="http://awoiaf.westeros.org/index.php/Lysa_Arryn" xlink:title="Lysa Tully\n266&#45;300" target="_blank">
<polygon fill="white" stroke="black" points="422,-326 332,-326 332,-236 422,-236 422,-326"/>
<text text-anchor="middle" x="377" y="-284.8" font-family="Times,serif" font-size="14.00">Lysa Tully</text>
<text text-anchor="middle" x="377" y="-269.8" font-family="Times,serif" font-size="14.00">266&#45;300</text>
</a>
</g>
</g>
<!-- 22+20 -->
<g id="node15" class="node"><title>22+20</title>
<ellipse fill="black" stroke="black" cx="381" cy="-150" rx="1.8" ry="1.8"/>
</g>
<!-- 20&#45;&gt;22+20 -->
<g id="edge2" class="edge"><title>20&#45;&gt;22+20</title>
<path fill="none" stroke="black" d="M378.365,-235.966C379.434,-201.516 380.771,-158.374 380.974,-151.844"/>
</g>
<!-- 22 -->
<g id="node2" class="node"><title>22</title>
<g id="a_node2"><a xlink:href="http://awoiaf.westeros.org/index.php/Jon_Arryn" xlink:title="Jon Arryn\n217&#45;298" target="_blank">
<polygon fill="white" stroke="black" points="526,-324 440,-324 440,-238 526,-238 526,-324"/>
<text text-anchor="middle" x="483" y="-284.8" font-family="Times,serif" font-size="14.00">Jon Arryn</text>
<text text-anchor="middle" x="483" y="-269.8" font-family="Times,serif" font-size="14.00">217&#45;298</text>
</a>
</g>
</g>
<!-- 22&#45;&gt;22+20 -->
<g id="edge1" class="edge"><title>22&#45;&gt;22+20</title>
<path fill="none" stroke="black" d="M463.876,-237.727C455.223,-221.191 444.005,-202.706 431,-188 414.976,-169.88 388.713,-155.142 382.397,-151.74"/>
</g>
<!-- 22+70 -->
<g id="node16" class="node"><title>22+70</title>
<ellipse fill="black" stroke="black" cx="539" cy="-150" rx="1.8" ry="1.8"/>
</g>
<!-- 22&#45;&gt;22+70 -->
<g id="edge3" class="edge"><title>22&#45;&gt;22+70</title>
<path fill="none" stroke="black" d="M501.336,-237.761C516.393,-203.078 535.697,-158.608 538.622,-151.871"/>
</g>
<!-- 22+71 -->
<g id="node17" class="node"><title>22+71</title>
<ellipse fill="black" stroke="black" cx="727" cy="-150" rx="1.8" ry="1.8"/>
</g>
<!-- 22&#45;&gt;22+71 -->
<g id="edge5" class="edge"><title>22&#45;&gt;22+71</title>
<path fill="none" stroke="black" d="M497.574,-237.753C505.849,-219.789 518.018,-200.21 535,-188 568.074,-164.22 707.884,-152.508 725.231,-151.137"/>
</g>
<!-- 23 -->
<g id="node3" class="node"><title>23</title>
<g id="a_node3"><a xlink:href="http://awoiaf.westeros.org/index.php/Robert_Arryn" xlink:title="Robert Arryn\n292&#45;" target="_blank">
<polygon fill="white" stroke="black" points="436.25,-111.5 325.75,-111.5 325.75,-0.5 436.25,-0.5 436.25,-111.5"/>
<text text-anchor="middle" x="381" y="-59.8" font-family="Times,serif" font-size="14.00">Robert Arryn</text>
<text text-anchor="middle" x="381" y="-44.8" font-family="Times,serif" font-size="14.00">292&#45;</text>
</a>
</g>
</g>
<!-- 68 -->
<g id="node4" class="node"><title>68</title>
<g id="a_node4"><a xlink:href="http://awoiaf.westeros.org/index.php/Jasper_Arryn" xlink:title="Jasper Arryn\n???&#45;???" target="_blank">
<polygon fill="white" stroke="black" points="466,-575 358,-575 358,-467 466,-467 466,-575"/>
<text text-anchor="middle" x="412" y="-524.8" font-family="Times,serif" font-size="14.00">Jasper Arryn</text>
<text text-anchor="middle" x="412" y="-509.8" font-family="Times,serif" font-size="14.00">???&#45;???</text>
</a>
</g>
</g>
<!-- 68+69 -->
<g id="node18" class="node"><title>68+69</title>
<ellipse fill="black" stroke="black" cx="483" cy="-412" rx="1.8" ry="1.8"/>
</g>
<!-- 68&#45;&gt;68+69 -->
<g id="edge7" class="edge"><title>68&#45;&gt;68+69</title>
<path fill="none" stroke="black" d="M447.292,-466.813C462.884,-443.316 478.529,-419.738 482.197,-414.211"/>
</g>
<!-- 69 -->
<g id="node5" class="node"><title>69</title>
<polygon fill="white" stroke="black" points="626,-592 484,-592 484,-450 626,-450 626,-592"/>
<text text-anchor="middle" x="555" y="-524.8" font-family="Times,serif" font-size="14.00">Unknown Woman</text>
<text text-anchor="middle" x="555" y="-509.8" font-family="Times,serif" font-size="14.00">???&#45;???</text>
</g>
<!-- 69&#45;&gt;68+69 -->
<g id="edge8" class="edge"><title>69&#45;&gt;68+69</title>
<path fill="none" stroke="black" d="M507.778,-449.823C495.904,-432.176 485.839,-417.219 483.508,-413.755"/>
</g>
<!-- 70 -->
<g id="node6" class="node"><title>70</title>
<g id="a_node6"><a xlink:href="http://awoiaf.westeros.org/index.php/Jeyne_Royce" xlink:title="Jeyne Royce\n???&#45;???" target="_blank">
<polygon fill="white" stroke="black" points="648,-333 544,-333 544,-229 648,-229 648,-333"/>
<text text-anchor="middle" x="596" y="-284.8" font-family="Times,serif" font-size="14.00">Jeyne Royce</text>
<text text-anchor="middle" x="596" y="-269.8" font-family="Times,serif" font-size="14.00">???&#45;???</text>
</a>
</g>
</g>
<!-- 70&#45;&gt;22+70 -->
<g id="edge4" class="edge"><title>70&#45;&gt;22+70</title>
<path fill="none" stroke="black" d="M573.308,-228.645C558.903,-196.044 542.43,-158.763 539.468,-152.06"/>
</g>
<!-- 71 -->
<g id="node7" class="node"><title>71</title>
<g id="a_node7"><a xlink:href="http://awoiaf.westeros.org/index.php/Rowena_Arryn" xlink:title="Rowena Arryn\n???&#45;???" target="_blank">
<polygon fill="white" stroke="black" points="896.25,-340.5 777.75,-340.5 777.75,-221.5 896.25,-221.5 896.25,-340.5"/>
<text text-anchor="middle" x="837" y="-284.8" font-family="Times,serif" font-size="14.00">Rowena Arryn</text>
<text text-anchor="middle" x="837" y="-269.8" font-family="Times,serif" font-size="14.00">???&#45;???</text>
</a>
</g>
</g>
<!-- 71&#45;&gt;22+71 -->
<g id="edge6" class="edge"><title>71&#45;&gt;22+71</title>
<path fill="none" stroke="black" d="M795.581,-221.218C786.854,-209.875 777.424,-198.32 768,-188 753.517,-172.141 732.989,-155.707 728.083,-151.846"/>
</g>
<!-- 72 -->
<g id="node8" class="node"><title>72</title>
<g id="a_node8"><a xlink:href="http://awoiaf.westeros.org/index.php/Alys_Arryn" xlink:title="Alys Arryn\n218&#45;???" target="_blank">
<polygon fill="white" stroke="black" points="759.25,-327.5 666.75,-327.5 666.75,-234.5 759.25,-234.5 759.25,-327.5"/>
<text text-anchor="middle" x="713" y="-284.8" font-family="Times,serif" font-size="14.00">Alys Arryn</text>
<text text-anchor="middle" x="713" y="-269.8" font-family="Times,serif" font-size="14.00">218&#45;???</text>
</a>
</g>
</g>
<!-- 74 -->
<g id="node9" class="node"><title>74</title>
<polygon fill="white" stroke="black" points="922.5,-563 839.5,-563 839.5,-479 922.5,-479 922.5,-563"/>
<text text-anchor="middle" x="881" y="-524.8" font-family="Times,serif" font-size="14.00">Daughter</text>
<text text-anchor="middle" x="881" y="-509.8" font-family="Times,serif" font-size="14.00">???&#45;???</text>
</g>
<!-- 75+74 -->
<g id="node19" class="node"><title>75+74</title>
<ellipse fill="black" stroke="black" cx="937" cy="-412" rx="1.8" ry="1.8"/>
</g>
<!-- 74&#45;&gt;75+74 -->
<g id="edge10" class="edge"><title>74&#45;&gt;75+74</title>
<path fill="none" stroke="black" d="M902.491,-478.937C916.803,-451.591 933.516,-419.656 936.524,-413.909"/>
</g>
<!-- 75 -->
<g id="node10" class="node"><title>75</title>
<g id="a_node10"><a xlink:href="http://awoiaf.westeros.org/index.php/Denys_Arryn" xlink:title="Denys Arryn\n???&#45;283" target="_blank">
<polygon fill="white" stroke="black" points="1047.25,-574.5 940.75,-574.5 940.75,-467.5 1047.25,-467.5 1047.25,-574.5"/>
<text text-anchor="middle" x="994" y="-524.8" font-family="Times,serif" font-size="14.00">Denys Arryn</text>
<text text-anchor="middle" x="994" y="-509.8" font-family="Times,serif" font-size="14.00">???&#45;283</text>
</a>
</g>
</g>
<!-- 75&#45;&gt;75+74 -->
<g id="edge9" class="edge"><title>75&#45;&gt;75+74</title>
<path fill="none" stroke="black" d="M966.001,-467.44C953.388,-443.763 940.644,-419.84 937.655,-414.229"/>
</g>
<!-- 76 -->
<g id="node11" class="node"><title>76</title>
<polygon fill="white" stroke="black" points="958.5,-303 915.5,-303 915.5,-259 958.5,-259 958.5,-303"/>
<text text-anchor="middle" x="937" y="-284.8" font-family="Times,serif" font-size="14.00">Son</text>
<text text-anchor="middle" x="937" y="-269.8" font-family="Times,serif" font-size="14.00">???&#45;</text>
</g>
<!-- 86 -->
<g id="node12" class="node"><title>86</title>
<g id="a_node12"><a xlink:href="http://awoiaf.westeros.org/index.php/Ronnel_Arryn" xlink:title="Ronnel Arryn\n219&#45;???" target="_blank">
<polygon fill="white" stroke="black" points="313.5,-337 202.5,-337 202.5,-225 313.5,-225 313.5,-337"/>
<text text-anchor="middle" x="258" y="-284.8" font-family="Times,serif" font-size="14.00">Ronnel Arryn</text>
<text text-anchor="middle" x="258" y="-269.8" font-family="Times,serif" font-size="14.00">219&#45;???</text>
</a>
</g>
</g>
<!-- 86+87 -->
<g id="node20" class="node"><title>86+87</title>
<ellipse fill="black" stroke="black" cx="173" cy="-150" rx="1.8" ry="1.8"/>
</g>
<!-- 86&#45;&gt;86+87 -->
<g id="edge11" class="edge"><title>86&#45;&gt;86+87</title>
<path fill="none" stroke="black" d="M221.706,-224.918C200.769,-193.143 177.779,-158.252 173.652,-151.989"/>
</g>
<!-- 87 -->
<g id="node13" class="node"><title>87</title>
<polygon fill="white" stroke="black" points="184.25,-373.5 -0.25,-373.5 -0.25,-188.5 184.25,-188.5 184.25,-373.5"/>
<text text-anchor="middle" x="92" y="-284.8" font-family="Times,serif" font-size="14.00">Lady of House Belmore</text>
<text text-anchor="middle" x="92" y="-269.8" font-family="Times,serif" font-size="14.00">???&#45;???</text>
</g>
<!-- 87&#45;&gt;86+87 -->
<g id="edge12" class="edge"><title>87&#45;&gt;86+87</title>
<path fill="none" stroke="black" d="M149.571,-188.312C161.116,-169.927 170.395,-155.149 172.534,-151.741"/>
</g>
<!-- 88 -->
<g id="node14" class="node"><title>88</title>
<g id="a_node14"><a xlink:href="http://awoiaf.westeros.org/index.php/Elbert_Arryn" xlink:title="Elbert Arryn\n???&#45;282" target="_blank">
<polygon fill="white" stroke="black" points="226.25,-109.5 119.75,-109.5 119.75,-2.5 226.25,-2.5 226.25,-109.5"/>
<text text-anchor="middle" x="173" y="-59.8" font-family="Times,serif" font-size="14.00">Elbert Arryn</text>
<text text-anchor="middle" x="173" y="-44.8" font-family="Times,serif" font-size="14.00">???&#45;282</text>
</a>
</g>
</g>
<!-- 22+20&#45;&gt;23 -->
<g id="edge14" class="edge"><title>22+20&#45;&gt;23</title>
<path fill="none" stroke="black" d="M381,-147.967C381,-143.94 381,-128.68 381,-111.779"/>
</g>
<!-- 68+69&#45;&gt;22 -->
<g id="edge13" class="edge"><title>68+69&#45;&gt;22</title>
<path fill="none" stroke="black" d="M483,-410.176C483,-403.589 483,-358.818 483,-324.022"/>
</g>
<!-- 68+69&#45;&gt;72 -->
<g id="edge15" class="edge"><title>68+69&#45;&gt;72</title>
<path fill="none" stroke="black" d="M484.57,-411.108C498.177,-411.958 597.039,-416.514 657,-374 673.169,-362.536 685.549,-344.792 694.505,-327.935"/>
</g>
<!-- 68+69&#45;&gt;86 -->
<g id="edge17" class="edge"><title>68+69&#45;&gt;86</title>
<path fill="none" stroke="black" d="M481.246,-411.045C467.704,-411.307 378.855,-411.518 323,-374 309.039,-364.622 297.122,-351.162 287.452,-337.422"/>
</g>
<!-- 75+74&#45;&gt;76 -->
<g id="edge16" class="edge"><title>75+74&#45;&gt;76</title>
<path fill="none" stroke="black" d="M937,-410.176C937,-402.151 937,-337.457 937,-303.166"/>
</g>
<!-- 86+87&#45;&gt;88 -->
<g id="edge18" class="edge"><title>86+87&#45;&gt;88</title>
<path fill="none" stroke="black" d="M173,-147.967C173,-143.762 173,-127.312 173,-109.533"/>
</g>
</g>
</svg>
