<?xml version="1.0" encoding="UTF-8" standalone="no"?>
<!DOCTYPE svg PUBLIC "-//W3C//DTD SVG 1.1//EN"
 "http://www.w3.org/Graphics/SVG/1.1/DTD/svg11.dtd">
<!-- Generated by graphviz version 2.36.0 (20140111.2315)
 -->
<!-- Title: family Pages: 1 -->
<svg width="202pt" height="286pt"
 viewBox="0.00 0.00 202.00 286.00" xmlns="http://www.w3.org/2000/svg" xmlns:xlink="http://www.w3.org/1999/xlink">
<g id="graph0" class="graph" transform="scale(1 1) rotate(0) translate(4 282)">
<title>family</title>
<polygon fill="white" stroke="none" points="-4,4 -4,-282 198,-282 198,4 -4,4"/>
<!-- 20 -->
<g id="node1" class="node"><title>20</title>
<g id="a_node1"><a xlink:href="http://awoiaf.westeros.org/index.php/Lysa_Arryn" xlink:title="Lysa Tully\n266&#45;300" target="_blank">
<polygon fill="none" stroke="black" points="90,-278 0,-278 0,-188 90,-188 90,-278"/>
<text text-anchor="middle" x="45" y="-236.8" font-family="Times,serif" font-size="14.00">Lysa Tully</text>
<text text-anchor="middle" x="45" y="-221.8" font-family="Times,serif" font-size="14.00">266&#45;300</text>
</a>
</g>
</g>
<!-- 22+20 -->
<g id="node4" class="node"><title>22+20</title>
<ellipse fill="black" stroke="black" cx="98" cy="-150" rx="1.8" ry="1.8"/>
</g>
<!-- 20&#45;&gt;22+20 -->
<g id="edge2" class="edge"><title>20&#45;&gt;22+20</title>
<path fill="none" stroke="black" d="M73.9811,-187.708C84.8078,-171.162 95.0773,-155.467 97.4754,-151.802"/>
</g>
<!-- 22 -->
<g id="node2" class="node"><title>22</title>
<g id="a_node2"><a xlink:href="http://awoiaf.westeros.org/index.php/Jon_Arryn" xlink:title="Jon Arryn\n217&#45;298" target="_blank">
<polygon fill="none" stroke="black" points="194,-276 108,-276 108,-190 194,-190 194,-276"/>
<text text-anchor="middle" x="151" y="-236.8" font-family="Times,serif" font-size="14.00">Jon Arryn</text>
<text text-anchor="middle" x="151" y="-221.8" font-family="Times,serif" font-size="14.00">217&#45;298</text>
</a>
</g>
</g>
<!-- 22&#45;&gt;22+20 -->
<g id="edge1" class="edge"><title>22&#45;&gt;22+20</title>
<path fill="none" stroke="black" d="M123.258,-189.602C112.038,-172.454 101.115,-155.76 98.5594,-151.855"/>
</g>
<!-- 23 -->
<g id="node3" class="node"><title>23</title>
<g id="a_node3"><a xlink:href="http://awoiaf.westeros.org/index.php/Robert_Arryn" xlink:title="Robert Arryn\n292&#45;" target="_blank">
<polygon fill="none" stroke="black" points="153.25,-111.5 42.75,-111.5 42.75,-0.5 153.25,-0.5 153.25,-111.5"/>
<text text-anchor="middle" x="98" y="-59.8" font-family="Times,serif" font-size="14.00">Robert Arryn</text>
<text text-anchor="middle" x="98" y="-44.8" font-family="Times,serif" font-size="14.00">292&#45;</text>
</a>
</g>
</g>
<!-- 22+20&#45;&gt;23 -->
<g id="edge3" class="edge"><title>22+20&#45;&gt;23</title>
<path fill="none" stroke="black" d="M98,-147.967C98,-143.94 98,-128.68 98,-111.779"/>
</g>
</g>
</svg>
