<?xml version="1.0" encoding="UTF-8" standalone="no"?>
<!DOCTYPE svg PUBLIC "-//W3C//DTD SVG 1.1//EN"
 "http://www.w3.org/Graphics/SVG/1.1/DTD/svg11.dtd">
<!-- Generated by graphviz version 2.36.0 (20140111.2315)
 -->
<!-- Title: family Pages: 1 -->
<svg width="778pt" height="1232pt"
 viewBox="0.00 0.00 778.00 1232.00" xmlns="http://www.w3.org/2000/svg" xmlns:xlink="http://www.w3.org/1999/xlink">
<g id="graph0" class="graph" transform="scale(1 1) rotate(0) translate(4 1228)">
<title>family</title>
<polygon fill="white" stroke="none" points="-4,4 -4,-1228 774,-1228 774,4 -4,4"/>
<!-- 5 -->
<g id="node1" class="node"><title>5</title>
<g id="a_node1"><a xlink:href="http://awoiaf.westeros.org/index.php/Arya_Stark" xlink:title="Arya Stark\n289&#45;" target="_blank">
<polygon fill="white" stroke="black" points="453,-94 359,-94 359,-0 453,-0 453,-94"/>
<text text-anchor="middle" x="406" y="-50.8" font-family="Times,serif" font-size="14.00">Arya Stark</text>
<text text-anchor="middle" x="406" y="-35.8" font-family="Times,serif" font-size="14.00">289&#45;</text>
</a>
</g>
</g>
<!-- 1 -->
<g id="node2" class="node"><title>1</title>
<g id="a_node2"><a xlink:href="http://awoiaf.westeros.org/index.php/Eddard_Stark" xlink:title="Eddard Stark\n263&#45;299" target="_blank">
<polygon fill="white" stroke="black" points="363.25,-283.5 250.75,-283.5 250.75,-170.5 363.25,-170.5 363.25,-283.5"/>
<text text-anchor="middle" x="307" y="-230.8" font-family="Times,serif" font-size="14.00">Eddard Stark</text>
<text text-anchor="middle" x="307" y="-215.8" font-family="Times,serif" font-size="14.00">263&#45;299</text>
</a>
</g>
</g>
<!-- 1+2 -->
<g id="node18" class="node"><title>1+2</title>
<ellipse fill="black" stroke="black" cx="406" cy="-132" rx="1.8" ry="1.8"/>
</g>
<!-- 1&#45;&gt;1+2 -->
<g id="edge1" class="edge"><title>1&#45;&gt;1+2</title>
<path fill="none" stroke="black" d="M363.441,-172.98C382.894,-154.706 400.888,-137.802 405.083,-133.861"/>
</g>
<!-- 2 -->
<g id="node3" class="node"><title>2</title>
<g id="a_node3"><a xlink:href="http://awoiaf.westeros.org/index.php/Catelyn_Stark" xlink:title="Catelyn Tully\n264&#45;299" target="_blank">
<polygon fill="white" stroke="black" points="561.5,-283 450.5,-283 450.5,-171 561.5,-171 561.5,-283"/>
<text text-anchor="middle" x="506" y="-230.8" font-family="Times,serif" font-size="14.00">Catelyn Tully</text>
<text text-anchor="middle" x="506" y="-215.8" font-family="Times,serif" font-size="14.00">264&#45;299</text>
</a>
</g>
</g>
<!-- 2&#45;&gt;1+2 -->
<g id="edge2" class="edge"><title>2&#45;&gt;1+2</title>
<path fill="none" stroke="black" d="M450.444,-174.333C430.304,-155.603 411.382,-138.005 406.966,-133.898"/>
</g>
<!-- 10 -->
<g id="node4" class="node"><title>10</title>
<g id="a_node4"><a xlink:href="http://awoiaf.westeros.org/index.php/Rickard_Stark" xlink:title="Rickard Stark\n230&#45;282" target="_blank">
<polygon fill="white" stroke="black" points="355.5,-477 240.5,-477 240.5,-361 355.5,-361 355.5,-477"/>
<text text-anchor="middle" x="298" y="-422.8" font-family="Times,serif" font-size="14.00">Rickard Stark</text>
<text text-anchor="middle" x="298" y="-407.8" font-family="Times,serif" font-size="14.00">230&#45;282</text>
</a>
</g>
</g>
<!-- 10+11 -->
<g id="node19" class="node"><title>10+11</title>
<ellipse fill="black" stroke="black" cx="298" cy="-322" rx="1.8" ry="1.8"/>
</g>
<!-- 10&#45;&gt;10+11 -->
<g id="edge3" class="edge"><title>10&#45;&gt;10+11</title>
<path fill="none" stroke="black" d="M298,-360.819C298,-343.529 298,-328.026 298,-324.008"/>
</g>
<!-- 11 -->
<g id="node5" class="node"><title>11</title>
<g id="a_node5"><a xlink:href="http://awoiaf.westeros.org/index.php/Lyarra_Stark" xlink:title="Lyarra Stark\n???&#45;???" target="_blank">
<polygon fill="white" stroke="black" points="239,-622 131,-622 131,-514 239,-514 239,-622"/>
<text text-anchor="middle" x="185" y="-571.8" font-family="Times,serif" font-size="14.00">Lyarra Stark</text>
<text text-anchor="middle" x="185" y="-556.8" font-family="Times,serif" font-size="14.00">???&#45;???</text>
</a>
</g>
</g>
<!-- 11&#45;&gt;10+11 -->
<g id="edge4" class="edge"><title>11&#45;&gt;10+11</title>
<path fill="none" stroke="black" d="M185.058,-513.558C187.674,-468.528 197.693,-404.506 231,-360 249.152,-335.744 288.116,-325.345 296.422,-323.361"/>
</g>
<!-- 12 -->
<g id="node6" class="node"><title>12</title>
<g id="a_node6"><a xlink:href="http://awoiaf.westeros.org/index.php/Hoster_Tully" xlink:title="Hoster Tully\n237&#45;299" target="_blank">
<polygon fill="white" stroke="black" points="566.5,-472 461.5,-472 461.5,-366 566.5,-366 566.5,-472"/>
<text text-anchor="middle" x="514" y="-422.8" font-family="Times,serif" font-size="14.00">Hoster Tully</text>
<text text-anchor="middle" x="514" y="-407.8" font-family="Times,serif" font-size="14.00">237&#45;299</text>
</a>
</g>
</g>
<!-- 12+13 -->
<g id="node20" class="node"><title>12+13</title>
<ellipse fill="black" stroke="black" cx="514" cy="-322" rx="1.8" ry="1.8"/>
</g>
<!-- 12&#45;&gt;12+13 -->
<g id="edge5" class="edge"><title>12&#45;&gt;12+13</title>
<path fill="none" stroke="black" d="M514,-365.776C514,-346.46 514,-328.197 514,-323.933"/>
</g>
<!-- 13 -->
<g id="node7" class="node"><title>13</title>
<g id="a_node7"><a xlink:href="http://awoiaf.westeros.org/index.php/Minisa_Whent" xlink:title="Minisa Whent\n250&#45;268" target="_blank">
<polygon fill="white" stroke="black" points="702.25,-477.5 585.75,-477.5 585.75,-360.5 702.25,-360.5 702.25,-477.5"/>
<text text-anchor="middle" x="644" y="-422.8" font-family="Times,serif" font-size="14.00">Minisa Whent</text>
<text text-anchor="middle" x="644" y="-407.8" font-family="Times,serif" font-size="14.00">250&#45;268</text>
</a>
</g>
</g>
<!-- 13&#45;&gt;12+13 -->
<g id="edge6" class="edge"><title>13&#45;&gt;12+13</title>
<path fill="none" stroke="black" d="M585.383,-367.71C581.911,-365.05 578.434,-362.462 575,-360 552.453,-343.832 522.66,-327.63 515.564,-323.832"/>
</g>
<!-- 188 -->
<g id="node8" class="node"><title>188</title>
<g id="a_node8"><a xlink:href="http://awoiaf.westeros.org/index.php/Edwyle_Stark" xlink:title="Edwyle Stark\n???&#45;???" target="_blank">
<polygon fill="white" stroke="black" points="337.25,-785.5 224.75,-785.5 224.75,-672.5 337.25,-672.5 337.25,-785.5"/>
<text text-anchor="middle" x="281" y="-732.8" font-family="Times,serif" font-size="14.00">Edwyle Stark</text>
<text text-anchor="middle" x="281" y="-717.8" font-family="Times,serif" font-size="14.00">???&#45;???</text>
</a>
</g>
</g>
<!-- 188+189 -->
<g id="node21" class="node"><title>188+189</title>
<ellipse fill="black" stroke="black" cx="298" cy="-568" rx="1.8" ry="1.8"/>
</g>
<!-- 188&#45;&gt;188+189 -->
<g id="edge7" class="edge"><title>188&#45;&gt;188+189</title>
<path fill="none" stroke="black" d="M286.946,-672.39C291.465,-630.121 297.046,-577.919 297.891,-570.021"/>
</g>
<!-- 189 -->
<g id="node9" class="node"><title>189</title>
<g id="a_node9"><a xlink:href="http://awoiaf.westeros.org/index.php/Marna_Locke" xlink:title="Marna Locke\n???&#45;???" target="_blank">
<polygon fill="white" stroke="black" points="467.5,-785 356.5,-785 356.5,-673 467.5,-673 467.5,-785"/>
<text text-anchor="middle" x="412" y="-732.8" font-family="Times,serif" font-size="14.00">Marna Locke</text>
<text text-anchor="middle" x="412" y="-717.8" font-family="Times,serif" font-size="14.00">???&#45;???</text>
</a>
</g>
</g>
<!-- 189&#45;&gt;188+189 -->
<g id="edge8" class="edge"><title>189&#45;&gt;188+189</title>
<path fill="none" stroke="black" d="M372.448,-672.836C342.095,-630.5 304.435,-577.976 298.736,-570.027"/>
</g>
<!-- 205 -->
<g id="node10" class="node"><title>205</title>
<g id="a_node10"><a xlink:href="http://awoiaf.westeros.org/index.php/Rodrik Stark_(son_of_Beron)" xlink:title="Rodrik Stark\n???&#45;???" target="_blank">
<polygon fill="white" stroke="black" points="215,-1014 107,-1014 107,-906 215,-906 215,-1014"/>
<text text-anchor="middle" x="161" y="-963.8" font-family="Times,serif" font-size="14.00">Rodrik Stark</text>
<text text-anchor="middle" x="161" y="-948.8" font-family="Times,serif" font-size="14.00">???&#45;???</text>
</a>
</g>
</g>
<!-- 205+206 -->
<g id="node22" class="node"><title>205+206</title>
<ellipse fill="black" stroke="black" cx="161" cy="-838" rx="1.8" ry="1.8"/>
</g>
<!-- 205&#45;&gt;205+206 -->
<g id="edge9" class="edge"><title>205&#45;&gt;205+206</title>
<path fill="none" stroke="black" d="M161,-905.667C161,-876.623 161,-845.468 161,-839.882"/>
</g>
<!-- 206 -->
<g id="node11" class="node"><title>206</title>
<g id="a_node11"><a xlink:href="http://awoiaf.westeros.org/index.php/Arya_Flint" xlink:title="Arya Flint\n???&#45;???" target="_blank">
<polygon fill="white" stroke="black" points="88.25,-1004.5 -0.25,-1004.5 -0.25,-915.5 88.25,-915.5 88.25,-1004.5"/>
<text text-anchor="middle" x="44" y="-963.8" font-family="Times,serif" font-size="14.00">Arya Flint</text>
<text text-anchor="middle" x="44" y="-948.8" font-family="Times,serif" font-size="14.00">???&#45;???</text>
</a>
</g>
</g>
<!-- 206&#45;&gt;205+206 -->
<g id="edge10" class="edge"><title>206&#45;&gt;205+206</title>
<path fill="none" stroke="black" d="M67.1975,-915.192C75.7097,-901.619 86.1907,-887.281 98,-876 118.912,-856.024 152.547,-842.281 159.654,-839.514"/>
</g>
<!-- 105 -->
<g id="node12" class="node"><title>105</title>
<polygon fill="white" stroke="black" points="609.5,-791 486.5,-791 486.5,-667 609.5,-667 609.5,-791"/>
<text text-anchor="middle" x="548" y="-732.8" font-family="Times,serif" font-size="14.00">Unknown Tully</text>
<text text-anchor="middle" x="548" y="-717.8" font-family="Times,serif" font-size="14.00">???&#45;???</text>
</g>
<!-- 105+106 -->
<g id="node23" class="node"><title>105+106</title>
<ellipse fill="black" stroke="black" cx="548" cy="-568" rx="1.8" ry="1.8"/>
</g>
<!-- 105&#45;&gt;105+106 -->
<g id="edge11" class="edge"><title>105&#45;&gt;105+106</title>
<path fill="none" stroke="black" d="M548,-666.981C548,-625.645 548,-577.253 548,-569.944"/>
</g>
<!-- 106 -->
<g id="node13" class="node"><title>106</title>
<polygon fill="white" stroke="black" points="770,-800 628,-800 628,-658 770,-658 770,-800"/>
<text text-anchor="middle" x="699" y="-732.8" font-family="Times,serif" font-size="14.00">Unknown Woman</text>
<text text-anchor="middle" x="699" y="-717.8" font-family="Times,serif" font-size="14.00">???&#45;???</text>
</g>
<!-- 106&#45;&gt;105+106 -->
<g id="edge12" class="edge"><title>106&#45;&gt;105+106</title>
<path fill="none" stroke="black" d="M632.33,-657.797C595.039,-618.531 554.835,-576.197 548.781,-569.822"/>
</g>
<!-- 184 -->
<g id="node14" class="node"><title>184</title>
<g id="a_node14"><a xlink:href="http://awoiaf.westeros.org/index.php/Willam_Stark" xlink:title="Willam Stark\n???&#45;226" target="_blank">
<polygon fill="white" stroke="black" points="343,-1015 233,-1015 233,-905 343,-905 343,-1015"/>
<text text-anchor="middle" x="288" y="-963.8" font-family="Times,serif" font-size="14.00">Willam Stark</text>
<text text-anchor="middle" x="288" y="-948.8" font-family="Times,serif" font-size="14.00">???&#45;226</text>
</a>
</g>
</g>
<!-- 184+187 -->
<g id="node24" class="node"><title>184+187</title>
<ellipse fill="black" stroke="black" cx="288" cy="-838" rx="1.8" ry="1.8"/>
</g>
<!-- 184&#45;&gt;184+187 -->
<g id="edge13" class="edge"><title>184&#45;&gt;184+187</title>
<path fill="none" stroke="black" d="M288,-904.968C288,-876.103 288,-845.377 288,-839.87"/>
</g>
<!-- 187 -->
<g id="node15" class="node"><title>187</title>
<g id="a_node15"><a xlink:href="http://awoiaf.westeros.org/index.php/Melantha_Blackwood" xlink:title="Melantha Blackwood\n???&#45;???" target="_blank">
<polygon fill="white" stroke="black" points="528.25,-1043.5 361.75,-1043.5 361.75,-876.5 528.25,-876.5 528.25,-1043.5"/>
<text text-anchor="middle" x="445" y="-963.8" font-family="Times,serif" font-size="14.00">Melantha Blackwood</text>
<text text-anchor="middle" x="445" y="-948.8" font-family="Times,serif" font-size="14.00">???&#45;???</text>
</a>
</g>
</g>
<!-- 187&#45;&gt;184+187 -->
<g id="edge14" class="edge"><title>187&#45;&gt;184+187</title>
<path fill="none" stroke="black" d="M361.497,-883.095C358.328,-880.656 355.156,-878.284 352,-876 328.294,-858.845 296.049,-842.899 289.279,-839.615"/>
</g>
<!-- 180 -->
<g id="node16" class="node"><title>180</title>
<g id="a_node16"><a xlink:href="http://awoiaf.westeros.org/index.php/Beron_Stark" xlink:title="Beron Stark\n???&#45;???" target="_blank">
<polygon fill="white" stroke="black" points="214.25,-1223.5 111.75,-1223.5 111.75,-1120.5 214.25,-1120.5 214.25,-1223.5"/>
<text text-anchor="middle" x="163" y="-1175.8" font-family="Times,serif" font-size="14.00">Beron Stark</text>
<text text-anchor="middle" x="163" y="-1160.8" font-family="Times,serif" font-size="14.00">???&#45;???</text>
</a>
</g>
</g>
<!-- 180+181 -->
<g id="node25" class="node"><title>180+181</title>
<ellipse fill="black" stroke="black" cx="224" cy="-1082" rx="1.8" ry="1.8"/>
</g>
<!-- 180&#45;&gt;180+181 -->
<g id="edge15" class="edge"><title>180&#45;&gt;180+181</title>
<path fill="none" stroke="black" d="M198.131,-1120.32C209.995,-1103.2 220.903,-1087.47 223.445,-1083.8"/>
</g>
<!-- 181 -->
<g id="node17" class="node"><title>181</title>
<g id="a_node17"><a xlink:href="http://awoiaf.westeros.org/index.php/Lorra_Royce" xlink:title="Lorra Royce\n???&#45;???" target="_blank">
<polygon fill="white" stroke="black" points="337,-1224 233,-1224 233,-1120 337,-1120 337,-1224"/>
<text text-anchor="middle" x="285" y="-1175.8" font-family="Times,serif" font-size="14.00">Lorra Royce</text>
<text text-anchor="middle" x="285" y="-1160.8" font-family="Times,serif" font-size="14.00">???&#45;???</text>
</a>
</g>
</g>
<!-- 181&#45;&gt;180+181 -->
<g id="edge16" class="edge"><title>181&#45;&gt;180+181</title>
<path fill="none" stroke="black" d="M249.516,-1119.81C237.774,-1102.87 227.045,-1087.39 224.546,-1083.79"/>
</g>
<!-- 1+2&#45;&gt;5 -->
<g id="edge17" class="edge"><title>1+2&#45;&gt;5</title>
<path fill="none" stroke="black" d="M406,-130.068C406,-126.185 406,-110.731 406,-94.2627"/>
</g>
<!-- 10+11&#45;&gt;1 -->
<g id="edge18" class="edge"><title>10+11&#45;&gt;1</title>
<path fill="none" stroke="black" d="M298.101,-319.956C298.493,-315.905 299.973,-300.61 301.617,-283.626"/>
</g>
<!-- 12+13&#45;&gt;2 -->
<g id="edge19" class="edge"><title>12+13&#45;&gt;2</title>
<path fill="none" stroke="black" d="M513.91,-319.956C513.558,-315.865 512.22,-300.308 510.742,-283.123"/>
</g>
<!-- 188+189&#45;&gt;10 -->
<g id="edge20" class="edge"><title>188+189&#45;&gt;10</title>
<path fill="none" stroke="black" d="M298,-566.061C298,-559.141 298,-515.247 298,-477.367"/>
</g>
<!-- 205+206&#45;&gt;11 -->
<g id="edge21" class="edge"><title>205+206&#45;&gt;11</title>
<path fill="none" stroke="black" d="M161.087,-836.03C162.193,-823.678 173.597,-696.338 180.248,-622.059"/>
</g>
<!-- 105+106&#45;&gt;12 -->
<g id="edge22" class="edge"><title>105+106&#45;&gt;12</title>
<path fill="none" stroke="black" d="M547.783,-566.061C546.109,-558.823 535.079,-511.136 526.071,-472.189"/>
</g>
<!-- 184+187&#45;&gt;188 -->
<g id="edge23" class="edge"><title>184+187&#45;&gt;188</title>
<path fill="none" stroke="black" d="M287.921,-835.798C287.573,-830.472 286.119,-808.25 284.633,-785.537"/>
</g>
<!-- 180+181&#45;&gt;205 -->
<g id="edge24" class="edge"><title>180+181&#45;&gt;205</title>
<path fill="none" stroke="black" d="M223.598,-1080.23C220.831,-1074.96 204.275,-1043.43 188.885,-1014.11"/>
</g>
<!-- 180+181&#45;&gt;184 -->
<g id="edge25" class="edge"><title>180+181&#45;&gt;184</title>
<path fill="none" stroke="black" d="M224.409,-1080.23C227.187,-1075.02 243.658,-1044.14 259.139,-1015.11"/>
</g>
</g>
</svg>
