<?xml version="1.0" encoding="UTF-8" standalone="no"?>
<!DOCTYPE svg PUBLIC "-//W3C//DTD SVG 1.1//EN"
 "http://www.w3.org/Graphics/SVG/1.1/DTD/svg11.dtd">
<!-- Generated by graphviz version 2.36.0 (20140111.2315)
 -->
<!-- Title:   Pages: 1 -->
<svg width="579pt" height="632pt"
 viewBox="0.00 0.00 579.00 632.00" xmlns="http://www.w3.org/2000/svg" xmlns:xlink="http://www.w3.org/1999/xlink">
<g id="graph0" class="graph" transform="scale(1 1) rotate(0) translate(4 628)">
<title> </title>
<polygon fill="white" stroke="none" points="-4,4 -4,-628 575,-628 575,4 -4,4"/>
<!-- 25 -->
<g id="node1" class="node"><title>25</title>
<g id="a_node1"><a xlink:href="/character/display?id=Balon_Greyjoy" xlink:title="Balon Greyjoy" target="_blank">
<polygon fill="white" stroke="black" points="430,-343 304,-343 304,-217 430,-217 430,-343"/>
</a>
</g>
<g id="a_node1_0"><a xlink:href="http://awoiaf.westeros.org/index.php/Balon_Greyjoy" xlink:title="Balon Greyjoy" target="_blank">
<text text-anchor="start" x="316.5" y="-283.3" font-family="Times,serif" font-size="14.00">Balon Greyjoy</text>
<text text-anchor="start" x="337.5" y="-268.3" font-family="Times,serif" font-size="14.00">256&#45;299</text>
</a>
</g>
<g><a xlink:href="/character/display?id=Balon_Greyjoy" xlink:title="Balon Greyjoy" target="_blank">
</a>
</g>
</g>
<!-- 25+26 -->
<g id="node9" class="node"><title>25+26</title>
<g id="a_node9"><a xlink:title=" ">
<ellipse fill="black" stroke="black" cx="291" cy="-172" rx="1.8" ry="1.8"/>
</a>
</g>
</g>
<!-- 25&#45;&gt;25+26 -->
<g id="edge1" class="edge"><title>25&#45;&gt;25+26</title>
<g id="a_edge1"><a xlink:title=" ">
<path fill="none" stroke="black" d="M322.351,-216.726C307.876,-196.537 294.729,-178.201 291.669,-173.932"/>
</a>
</g>
</g>
<!-- 31 -->
<g id="node2" class="node"><title>31</title>
<g id="a_node2"><a xlink:href="/character/display?id=Quellon_Grejoy" xlink:title="Quellon Greyjoy" target="_blank">
<polygon fill="white" stroke="black" points="344,-595 204,-595 204,-455 344,-455 344,-595"/>
</a>
</g>
<g id="a_node2_1"><a xlink:href="http://awoiaf.westeros.org/index.php/Quellon_Grejoy" xlink:title="Quellon Greyjoy" target="_blank">
<text text-anchor="start" x="216.5" y="-528.3" font-family="Times,serif" font-size="14.00">Quellon Greyjoy</text>
<text text-anchor="start" x="246.5" y="-513.3" font-family="Times,serif" font-size="14.00">???&#45;283</text>
</a>
</g>
<g><a xlink:href="/character/display?id=Quellon_Grejoy" xlink:title="Quellon Greyjoy" target="_blank">
</a>
</g>
</g>
<!-- 31+37 -->
<g id="node10" class="node"><title>31+37</title>
<g id="a_node10"><a xlink:title=" ">
<ellipse fill="black" stroke="black" cx="367" cy="-388" rx="1.8" ry="1.8"/>
</a>
</g>
</g>
<!-- 31&#45;&gt;31+37 -->
<g id="edge3" class="edge"><title>31&#45;&gt;31+37</title>
<g id="a_edge3"><a xlink:title=" ">
<path fill="none" stroke="black" d="M321.59,-454.918C342.326,-424.817 362.773,-395.136 366.424,-389.836"/>
</a>
</g>
</g>
<!-- 37 -->
<g id="node3" class="node"><title>37</title>
<g id="a_node3"><a xlink:title="Lady of House Sunderly" target="_blank">
<polygon fill="white" stroke="black" points="559.25,-623.5 362.75,-623.5 362.75,-426.5 559.25,-426.5 559.25,-623.5"/>
<text text-anchor="start" x="375.5" y="-528.3" font-family="Times,serif" font-size="14.00">Lady of House Sunderly</text>
<text text-anchor="start" x="436.5" y="-513.3" font-family="Times,serif" font-size="14.00">???&#45;???</text>
</a>
</g>
</g>
<!-- 37&#45;&gt;31+37 -->
<g id="edge4" class="edge"><title>37&#45;&gt;31+37</title>
<g id="a_edge4"><a xlink:title=" ">
<path fill="none" stroke="black" d="M392.935,-426.247C380.072,-407.773 369.863,-393.111 367.511,-389.734"/>
</a>
</g>
</g>
<!-- 27 -->
<g id="node4" class="node"><title>27</title>
<g id="a_node4"><a xlink:href="/character/display?id=Rodrik_Greyjoy" xlink:title="Rodrik Greyjoy" target="_blank">
<polygon fill="white" stroke="black" points="134,-134 0,-134 0,-0 134,-0 134,-134"/>
</a>
</g>
<g id="a_node4_3"><a xlink:href="http://awoiaf.westeros.org/index.php/Rodrik_Greyjoy" xlink:title="Rodrik Greyjoy" target="_blank">
<text text-anchor="start" x="12.5" y="-70.3" font-family="Times,serif" font-size="14.00">Rodrik Greyjoy</text>
<text text-anchor="start" x="37.5" y="-55.3" font-family="Times,serif" font-size="14.00">268&#45;289</text>
</a>
</g>
<g><a xlink:href="/character/display?id=Rodrik_Greyjoy" xlink:title="Rodrik Greyjoy" target="_blank">
</a>
</g>
</g>
<!-- 28 -->
<g id="node5" class="node"><title>28</title>
<g id="a_node5"><a xlink:href="/character/display?id=Maron_Greyjoy" xlink:title="Maron Greyjoy" target="_blank">
<polygon fill="white" stroke="black" points="285.25,-133.5 152.75,-133.5 152.75,-0.5 285.25,-0.5 285.25,-133.5"/>
</a>
</g>
<g id="a_node5_4"><a xlink:href="http://awoiaf.westeros.org/index.php/Maron_Greyjoy" xlink:title="Maron Greyjoy" target="_blank">
<text text-anchor="start" x="165.5" y="-70.3" font-family="Times,serif" font-size="14.00">Maron Greyjoy</text>
<text text-anchor="start" x="190" y="-55.3" font-family="Times,serif" font-size="14.00">269&#45;289</text>
</a>
</g>
<g><a xlink:href="/character/display?id=Maron_Greyjoy" xlink:title="Maron Greyjoy" target="_blank">
</a>
</g>
</g>
<!-- 29 -->
<g id="node6" class="node"><title>29</title>
<g id="a_node6"><a xlink:href="/character/display?id=Asha_Greyjoy" xlink:title="Asha Greyjoy" target="_blank">
<polygon fill="white" stroke="black" points="424.25,-127.5 303.75,-127.5 303.75,-6.5 424.25,-6.5 424.25,-127.5"/>
</a>
</g>
<g id="a_node6_5"><a xlink:href="http://awoiaf.westeros.org/index.php/Asha_Greyjoy" xlink:title="Asha Greyjoy" target="_blank">
<text text-anchor="start" x="316.5" y="-70.3" font-family="Times,serif" font-size="14.00">Asha Greyjoy</text>
<text text-anchor="start" x="348.5" y="-55.3" font-family="Times,serif" font-size="14.00">275&#45;</text>
</a>
</g>
<g><a xlink:href="/character/display?id=Asha_Greyjoy" xlink:title="Asha Greyjoy" target="_blank">
</a>
</g>
</g>
<!-- 30 -->
<g id="node7" class="node"><title>30</title>
<g id="a_node7"><a xlink:href="/character/display?id=Theon_Greyjoy" xlink:title="Theon Greyjoy" target="_blank">
<polygon fill="white" stroke="black" points="571.25,-131.5 442.75,-131.5 442.75,-2.5 571.25,-2.5 571.25,-131.5"/>
</a>
</g>
<g id="a_node7_6"><a xlink:href="http://awoiaf.westeros.org/index.php/Theon_Greyjoy" xlink:title="Theon Greyjoy" target="_blank">
<text text-anchor="start" x="455.5" y="-70.3" font-family="Times,serif" font-size="14.00">Theon Greyjoy</text>
<text text-anchor="start" x="491.5" y="-55.3" font-family="Times,serif" font-size="14.00">278&#45;</text>
</a>
</g>
<g><a xlink:href="/character/display?id=Theon_Greyjoy" xlink:title="Theon Greyjoy" target="_blank">
</a>
</g>
</g>
<!-- 26 -->
<g id="node8" class="node"><title>26</title>
<g id="a_node8"><a xlink:href="/character/display?id=Alannys_Harlaw" xlink:title="Alannys Harlaw" target="_blank">
<polygon fill="white" stroke="black" points="286,-350 146,-350 146,-210 286,-210 286,-350"/>
</a>
</g>
<g id="a_node8_7"><a xlink:href="http://awoiaf.westeros.org/index.php/Alannys_Harlaw" xlink:title="Alannys Harlaw" target="_blank">
<text text-anchor="start" x="158.5" y="-283.3" font-family="Times,serif" font-size="14.00">Alannys Harlaw</text>
<text text-anchor="start" x="202" y="-268.3" font-family="Times,serif" font-size="14.00">???&#45;</text>
</a>
</g>
<g><a xlink:href="/character/display?id=Alannys_Harlaw" xlink:title="Alannys Harlaw" target="_blank">
</a>
</g>
</g>
<!-- 26&#45;&gt;25+26 -->
<g id="edge2" class="edge"><title>26&#45;&gt;25+26</title>
<g id="a_edge2"><a xlink:title=" ">
<path fill="none" stroke="black" d="M264.979,-209.776C277.431,-192.177 288.014,-177.22 290.466,-173.755"/>
</a>
</g>
</g>
<!-- 25+26&#45;&gt;27 -->
<g id="edge6" class="edge"><title>25+26&#45;&gt;27</title>
<path fill="none" stroke="black" d="M289.446,-170.886C277.441,-169.955 198.441,-162.866 143,-134 140.055,-132.467 137.128,-130.797 134.234,-129.021"/>
</g>
<!-- 25+26&#45;&gt;28 -->
<g id="edge7" class="edge"><title>25+26&#45;&gt;28</title>
<path fill="none" stroke="black" d="M290.191,-169.843C287.287,-165.688 276.917,-150.853 264.955,-133.742"/>
</g>
<!-- 25+26&#45;&gt;29 -->
<g id="edge8" class="edge"><title>25+26&#45;&gt;29</title>
<path fill="none" stroke="black" d="M291.82,-169.843C295.109,-165.202 307.843,-147.235 321.721,-127.655"/>
</g>
<!-- 25+26&#45;&gt;30 -->
<g id="edge9" class="edge"><title>25+26&#45;&gt;30</title>
<path fill="none" stroke="black" d="M292.494,-170.877C304.039,-169.879 379.997,-162.381 433,-134 436.187,-132.294 439.349,-130.423 442.469,-128.427"/>
</g>
<!-- 31+37&#45;&gt;25 -->
<g id="edge5" class="edge"><title>31+37&#45;&gt;25</title>
<path fill="none" stroke="black" d="M367,-385.81C367,-381.101 367,-363.068 367,-343.255"/>
</g>
</g>
</svg>
