<?xml version="1.0" encoding="UTF-8" standalone="no"?>
<!DOCTYPE svg PUBLIC "-//W3C//DTD SVG 1.1//EN"
 "http://www.w3.org/Graphics/SVG/1.1/DTD/svg11.dtd">
<!-- Generated by graphviz version 2.36.0 (20140111.2315)
 -->
<!-- Title: family Pages: 1 -->
<svg width="4313pt" height="2392pt"
 viewBox="0.00 0.00 4313.00 2392.00" xmlns="http://www.w3.org/2000/svg" xmlns:xlink="http://www.w3.org/1999/xlink">
<g id="graph0" class="graph" transform="scale(1 1) rotate(0) translate(4 2388)">
<title>family</title>
<polygon fill="white" stroke="none" points="-4,4 -4,-2388 4309,-2388 4309,4 -4,4"/>
<!-- 49 -->
<g id="node1" class="node"><title>49</title>
<g id="a_node1"><a xlink:href="http://awoiaf.westeros.org/index.php/Cersei_Lannister" xlink:title="&lt;&lt;table href = \&quot;/character/display?id=Cersei_Lannister\&quot;&gt;&lt;/table&gt;&gt;" target="_blank">
<polygon fill="white" stroke="black" points="518.25,-1139.5 -0.25,-1139.5 -0.25,-620.5 518.25,-620.5 518.25,-1139.5"/>
<text text-anchor="middle" x="259" y="-876.3" font-family="Times,serif" font-size="14.00">&lt;&lt;table href = &quot;/character/display?id=Cersei_Lannister&quot;&gt;&lt;/table&gt;&gt;</text>
</a>
</g>
</g>
<!-- 138+49 -->
<g id="node18" class="node"><title>138+49</title>
<ellipse fill="black" stroke="black" cx="530" cy="-572" rx="1.8" ry="1.8"/>
</g>
<!-- 49&#45;&gt;138+49 -->
<g id="edge8" class="edge"><title>49&#45;&gt;138+49</title>
<path fill="none" stroke="black" d="M487.954,-620.477C510.039,-595.538 525.667,-577.893 529.229,-573.871"/>
</g>
<!-- 50 -->
<g id="node2" class="node"><title>50</title>
<g id="a_node2"><a xlink:href="http://awoiaf.westeros.org/index.php/Joffrey_Baratheon" xlink:title="&lt;&lt;table href = \&quot;/character/display?id=Joffrey_Baratheon\&quot;&gt;&lt;/table&gt;&gt;" target="_blank">
<polygon fill="white" stroke="black" points="3748,-1143 3222,-1143 3222,-617 3748,-617 3748,-1143"/>
<text text-anchor="middle" x="3485" y="-876.3" font-family="Times,serif" font-size="14.00">&lt;&lt;table href = &quot;/character/display?id=Joffrey_Baratheon&quot;&gt;&lt;/table&gt;&gt;</text>
</a>
</g>
</g>
<!-- 50+96 -->
<g id="node15" class="node"><title>50+96</title>
<ellipse fill="black" stroke="black" cx="3213" cy="-572" rx="1.8" ry="1.8"/>
</g>
<!-- 50&#45;&gt;50+96 -->
<g id="edge1" class="edge"><title>50&#45;&gt;50+96</title>
<path fill="none" stroke="black" d="M3251.97,-616.842C3231.38,-593.683 3216.99,-577.486 3213.71,-573.798"/>
</g>
<!-- 51 -->
<g id="node3" class="node"><title>51</title>
<g id="a_node3"><a xlink:href="http://awoiaf.westeros.org/index.php/Myrcella_Baratheon" xlink:title="&lt;&lt;table href = \&quot;/character/display?id=Myrcella_Baratheon\&quot;&gt;&lt;/table&gt;&gt;" target="_blank">
<polygon fill="white" stroke="black" points="2696,-2384 2154,-2384 2154,-1842 2696,-1842 2696,-2384"/>
<text text-anchor="middle" x="2425" y="-2109.3" font-family="Times,serif" font-size="14.00">&lt;&lt;table href = &quot;/character/display?id=Myrcella_Baratheon&quot;&gt;&lt;/table&gt;&gt;</text>
</a>
</g>
</g>
<!-- 52 -->
<g id="node4" class="node"><title>52</title>
<g id="a_node4"><a xlink:href="http://awoiaf.westeros.org/index.php/Tommen_Baratheon" xlink:title="&lt;&lt;table href = \&quot;/character/display?id=Tommen_Baratheon\&quot;&gt;&lt;/table&gt;&gt;" target="_blank">
<polygon fill="white" stroke="black" points="4305.25,-1149.5 3766.75,-1149.5 3766.75,-610.5 4305.25,-610.5 4305.25,-1149.5"/>
<text text-anchor="middle" x="4036" y="-876.3" font-family="Times,serif" font-size="14.00">&lt;&lt;table href = &quot;/character/display?id=Tommen_Baratheon&quot;&gt;&lt;/table&gt;&gt;</text>
</a>
</g>
</g>
<!-- 52+96 -->
<g id="node16" class="node"><title>52+96</title>
<ellipse fill="black" stroke="black" cx="3769" cy="-572" rx="1.8" ry="1.8"/>
</g>
<!-- 52&#45;&gt;52+96 -->
<g id="edge3" class="edge"><title>52&#45;&gt;52+96</title>
<path fill="none" stroke="black" d="M3801.47,-610.216C3784.76,-591.06 3773.13,-577.735 3769.91,-574.039"/>
</g>
<!-- 96 -->
<g id="node5" class="node"><title>96</title>
<g id="a_node5"><a xlink:href="http://awoiaf.westeros.org/index.php/Margaery_Tyrell" xlink:title="&lt;&lt;table href = \&quot;/character/display?id=Margaery_Tyrell\&quot;&gt;&lt;/table&gt;&gt;" target="_blank">
<polygon fill="white" stroke="black" points="3203.25,-1137.5 2688.75,-1137.5 2688.75,-622.5 3203.25,-622.5 3203.25,-1137.5"/>
<text text-anchor="middle" x="2946" y="-876.3" font-family="Times,serif" font-size="14.00">&lt;&lt;table href = &quot;/character/display?id=Margaery_Tyrell&quot;&gt;&lt;/table&gt;&gt;</text>
</a>
</g>
</g>
<!-- 96&#45;&gt;50+96 -->
<g id="edge2" class="edge"><title>96&#45;&gt;50+96</title>
<path fill="none" stroke="black" d="M3170.1,-622.164C3192.58,-596.407 3208.56,-578.084 3212.21,-573.905"/>
</g>
<!-- 96&#45;&gt;52+96 -->
<g id="edge4" class="edge"><title>96&#45;&gt;52+96</title>
<path fill="none" stroke="black" d="M3188.66,-622.328C3196.65,-617.88 3204.77,-613.753 3213,-610 3267.35,-585.217 3734.42,-573.813 3767.19,-573.042"/>
</g>
<!-- 156+96 -->
<g id="node20" class="node"><title>156+96</title>
<ellipse fill="black" stroke="black" cx="2678" cy="-572" rx="1.8" ry="1.8"/>
</g>
<!-- 96&#45;&gt;156+96 -->
<g id="edge12" class="edge"><title>96&#45;&gt;156+96</title>
<path fill="none" stroke="black" d="M2721.06,-622.164C2698.5,-596.407 2682.45,-578.084 2678.79,-573.905"/>
</g>
<!-- 136 -->
<g id="node6" class="node"><title>136</title>
<g id="a_node6"><a xlink:href="http://awoiaf.westeros.org/index.php/Steffon_Baratheon" xlink:title="&lt;&lt;table href = \&quot;/character/display?id=Steffon_Baratheon\&quot;&gt;&lt;/table&gt;&gt;" target="_blank">
<polygon fill="white" stroke="black" points="1856.25,-1760.5 1327.75,-1760.5 1327.75,-1231.5 1856.25,-1231.5 1856.25,-1760.5"/>
<text text-anchor="middle" x="1592" y="-1492.3" font-family="Times,serif" font-size="14.00">&lt;&lt;table href = &quot;/character/display?id=Steffon_Baratheon&quot;&gt;&lt;/table&gt;&gt;</text>
</a>
</g>
</g>
<!-- 136+137 -->
<g id="node17" class="node"><title>136+137</title>
<ellipse fill="black" stroke="black" cx="1868" cy="-1188" rx="1.8" ry="1.8"/>
</g>
<!-- 136&#45;&gt;136+137 -->
<g id="edge5" class="edge"><title>136&#45;&gt;136+137</title>
<path fill="none" stroke="black" d="M1829.91,-1231.23C1850.08,-1208.86 1864.12,-1193.31 1867.31,-1189.77"/>
</g>
<!-- 137 -->
<g id="node7" class="node"><title>137</title>
<g id="a_node7"><a xlink:href="http://awoiaf.westeros.org/index.php/Cassana_Estermont" xlink:title="&lt;&lt;table href = \&quot;/character/display?id=Cassana_Estermont\&quot;&gt;&lt;/table&gt;&gt;" target="_blank">
<polygon fill="white" stroke="black" points="2413.25,-1765.5 1874.75,-1765.5 1874.75,-1226.5 2413.25,-1226.5 2413.25,-1765.5"/>
<text text-anchor="middle" x="2144" y="-1492.3" font-family="Times,serif" font-size="14.00">&lt;&lt;table href = &quot;/character/display?id=Cassana_Estermont&quot;&gt;&lt;/table&gt;&gt;</text>
</a>
</g>
</g>
<!-- 137&#45;&gt;136+137 -->
<g id="edge6" class="edge"><title>137&#45;&gt;136+137</title>
<path fill="none" stroke="black" d="M1901.57,-1226.22C1884.29,-1207.06 1872.27,-1193.74 1868.94,-1190.04"/>
</g>
<!-- 138 -->
<g id="node8" class="node"><title>138</title>
<g id="a_node8"><a xlink:href="http://awoiaf.westeros.org/index.php/Robert_Baratheon" xlink:title="&lt;&lt;table href = \&quot;/character/display?id=Robert_Baratheon\&quot;&gt;&lt;/table&gt;&gt;" target="_blank">
<polygon fill="white" stroke="black" points="1063.25,-1143.5 536.75,-1143.5 536.75,-616.5 1063.25,-616.5 1063.25,-1143.5"/>
<text text-anchor="middle" x="800" y="-876.3" font-family="Times,serif" font-size="14.00">&lt;&lt;table href = &quot;/character/display?id=Robert_Baratheon&quot;&gt;&lt;/table&gt;&gt;</text>
</a>
</g>
</g>
<!-- 138&#45;&gt;138+49 -->
<g id="edge7" class="edge"><title>138&#45;&gt;138+49</title>
<path fill="none" stroke="black" d="M568.112,-616.193C547.959,-593.353 533.894,-577.413 530.693,-573.785"/>
</g>
<!-- 153 -->
<g id="node9" class="node"><title>153</title>
<g id="a_node9"><a xlink:href="http://awoiaf.westeros.org/index.php/Stannis_Baratheon" xlink:title="&lt;&lt;table href = \&quot;/character/display?id=Stannis_Baratheon\&quot;&gt;&lt;/table&gt;&gt;" target="_blank">
<polygon fill="white" stroke="black" points="2133.25,-1145.5 1602.75,-1145.5 1602.75,-614.5 2133.25,-614.5 2133.25,-1145.5"/>
<text text-anchor="middle" x="1868" y="-876.3" font-family="Times,serif" font-size="14.00">&lt;&lt;table href = &quot;/character/display?id=Stannis_Baratheon&quot;&gt;&lt;/table&gt;&gt;</text>
</a>
</g>
</g>
<!-- 153+154 -->
<g id="node19" class="node"><title>153+154</title>
<ellipse fill="black" stroke="black" cx="1600" cy="-572" rx="1.8" ry="1.8"/>
</g>
<!-- 153&#45;&gt;153+154 -->
<g id="edge9" class="edge"><title>153&#45;&gt;153+154</title>
<path fill="none" stroke="black" d="M1636.14,-614.269C1616.97,-592.38 1603.68,-577.2 1600.65,-573.747"/>
</g>
<!-- 154 -->
<g id="node10" class="node"><title>154</title>
<g id="a_node10"><a xlink:href="http://awoiaf.westeros.org/index.php/Selyse_Florent" xlink:title="&lt;&lt;table href = \&quot;/character/display?id=Selyse_Florent\&quot;&gt;&lt;/table&gt;&gt;" target="_blank">
<polygon fill="white" stroke="black" points="1583.5,-1131 1082.5,-1131 1082.5,-629 1583.5,-629 1583.5,-1131"/>
<text text-anchor="middle" x="1333" y="-876.3" font-family="Times,serif" font-size="14.00">&lt;&lt;table href = &quot;/character/display?id=Selyse_Florent&quot;&gt;&lt;/table&gt;&gt;</text>
</a>
</g>
</g>
<!-- 154&#45;&gt;153+154 -->
<g id="edge10" class="edge"><title>154&#45;&gt;153+154</title>
<path fill="none" stroke="black" d="M1551.34,-628.769C1576.57,-599.848 1594.9,-578.84 1599.09,-574.041"/>
</g>
<!-- 155 -->
<g id="node11" class="node"><title>155</title>
<g id="a_node11"><a xlink:href="http://awoiaf.westeros.org/index.php/Shireen_Baratheon" xlink:title="&lt;&lt;table href = \&quot;/character/display?id=Shireen_Baratheon\&quot;&gt;&lt;/table&gt;&gt;" target="_blank">
<polygon fill="white" stroke="black" points="1866.25,-533.5 1333.75,-533.5 1333.75,-0.5 1866.25,-0.5 1866.25,-533.5"/>
<text text-anchor="middle" x="1600" y="-263.3" font-family="Times,serif" font-size="14.00">&lt;&lt;table href = &quot;/character/display?id=Shireen_Baratheon&quot;&gt;&lt;/table&gt;&gt;</text>
</a>
</g>
</g>
<!-- 156 -->
<g id="node12" class="node"><title>156</title>
<g id="a_node12"><a xlink:href="http://awoiaf.westeros.org/index.php/Renly_Baratheon" xlink:title="&lt;&lt;table href = \&quot;/character/display?id=Renly_Baratheon\&quot;&gt;&lt;/table&gt;&gt;" target="_blank">
<polygon fill="white" stroke="black" points="2670,-1139 2152,-1139 2152,-621 2670,-621 2670,-1139"/>
<text text-anchor="middle" x="2411" y="-876.3" font-family="Times,serif" font-size="14.00">&lt;&lt;table href = &quot;/character/display?id=Renly_Baratheon&quot;&gt;&lt;/table&gt;&gt;</text>
</a>
</g>
</g>
<!-- 156&#45;&gt;156+96 -->
<g id="edge11" class="edge"><title>156&#45;&gt;156+96</title>
<path fill="none" stroke="black" d="M2636.28,-620.812C2658.18,-595.711 2673.7,-577.931 2677.23,-573.878"/>
</g>
<!-- 178 -->
<g id="node13" class="node"><title>178</title>
<g id="a_node13"><a xlink:href="http://awoiaf.westeros.org/index.php/Rhaelle_Targaryen" xlink:title="&lt;&lt;table href = \&quot;/character/display?id=Rhaelle_Targaryen\&quot;&gt;&lt;/table&gt;&gt;" target="_blank">
<polygon fill="white" stroke="black" points="1582,-2378 1052,-2378 1052,-1848 1582,-1848 1582,-2378"/>
<text text-anchor="middle" x="1317" y="-2109.3" font-family="Times,serif" font-size="14.00">&lt;&lt;table href = &quot;/character/display?id=Rhaelle_Targaryen&quot;&gt;&lt;/table&gt;&gt;</text>
</a>
</g>
</g>
<!-- 179+178 -->
<g id="node21" class="node"><title>179+178</title>
<ellipse fill="black" stroke="black" cx="1592" cy="-1804" rx="1.8" ry="1.8"/>
</g>
<!-- 178&#45;&gt;179+178 -->
<g id="edge14" class="edge"><title>178&#45;&gt;179+178</title>
<path fill="none" stroke="black" d="M1553.76,-1847.69C1574,-1825.09 1588.1,-1809.36 1591.31,-1805.78"/>
</g>
<!-- 179 -->
<g id="node14" class="node"><title>179</title>
<g id="a_node14"><a xlink:href="http://awoiaf.westeros.org/index.php/Ormund_Baratheon" xlink:title="&lt;&lt;table href = \&quot;/character/display?id=Ormund_Baratheon\&quot;&gt;&lt;/table&gt;&gt;" target="_blank">
<polygon fill="white" stroke="black" points="2136,-2381 1600,-2381 1600,-1845 2136,-1845 2136,-2381"/>
<text text-anchor="middle" x="1868" y="-2109.3" font-family="Times,serif" font-size="14.00">&lt;&lt;table href = &quot;/character/display?id=Ormund_Baratheon&quot;&gt;&lt;/table&gt;&gt;</text>
</a>
</g>
</g>
<!-- 179&#45;&gt;179+178 -->
<g id="edge13" class="edge"><title>179&#45;&gt;179+178</title>
<path fill="none" stroke="black" d="M1627.8,-1844.82C1608.76,-1823.65 1595.63,-1809.04 1592.65,-1805.72"/>
</g>
<!-- 136+137&#45;&gt;138 -->
<g id="edge16" class="edge"><title>136+137&#45;&gt;138</title>
<path fill="none" stroke="black" d="M1866.43,-1187C1829.43,-1186.89 1151.8,-1184.46 1073,-1150 1068.43,-1148 1063.89,-1145.89 1059.39,-1143.67"/>
</g>
<!-- 136+137&#45;&gt;153 -->
<g id="edge17" class="edge"><title>136+137&#45;&gt;153</title>
<path fill="none" stroke="black" d="M1868,-1186.12C1868,-1182.42 1868,-1167.29 1868,-1145.6"/>
</g>
<!-- 136+137&#45;&gt;156 -->
<g id="edge19" class="edge"><title>136+137&#45;&gt;156</title>
<path fill="none" stroke="black" d="M1869.9,-1186.91C1891.46,-1185.88 2089.95,-1175.78 2142,-1150 2148.81,-1146.63 2155.54,-1143.02 2162.21,-1139.2"/>
</g>
<!-- 153+154&#45;&gt;155 -->
<g id="edge18" class="edge"><title>153+154&#45;&gt;155</title>
<path fill="none" stroke="black" d="M1600,-570.131C1600,-566.677 1600,-553.155 1600,-533.609"/>
</g>
<!-- 179+178&#45;&gt;136 -->
<g id="edge15" class="edge"><title>179+178&#45;&gt;136</title>
<path fill="none" stroke="black" d="M1592,-1802.12C1592,-1798.37 1592,-1782.86 1592,-1760.67"/>
</g>
</g>
</svg>
