<?xml version="1.0" encoding="UTF-8" standalone="no"?>
<!DOCTYPE svg PUBLIC "-//W3C//DTD SVG 1.1//EN"
 "http://www.w3.org/Graphics/SVG/1.1/DTD/svg11.dtd">
<!-- Generated by graphviz version 2.36.0 (20140111.2315)
 -->
<!-- Title: family Pages: 1 -->
<svg width="1285pt" height="872pt"
 viewBox="0.00 0.00 1285.00 872.00" xmlns="http://www.w3.org/2000/svg" xmlns:xlink="http://www.w3.org/1999/xlink">
<g id="graph0" class="graph" transform="scale(1 1) rotate(0) translate(4 868)">
<title>family</title>
<polygon fill="white" stroke="none" points="-4,4 -4,-868 1281,-868 1281,4 -4,4"/>
<!-- 49 -->
<g id="node1" class="node"><title>49</title>
<g id="a_node1"><a xlink:href="http://awoiaf.westeros.org/index.php/Cersei_Lannister" xlink:title="Cersei Lannister\n266&#45;" target="_blank">
<polygon fill="white" stroke="black" points="136.25,-378.5 -0.25,-378.5 -0.25,-241.5 136.25,-241.5 136.25,-378.5"/>
<text text-anchor="middle" x="68" y="-313.8" font-family="Times,serif" font-size="14.00">Cersei Lannister</text>
<text text-anchor="middle" x="68" y="-298.8" font-family="Times,serif" font-size="14.00">266&#45;</text>
</a>
</g>
</g>
<!-- 138+49 -->
<g id="node18" class="node"><title>138+49</title>
<ellipse fill="black" stroke="black" cx="150" cy="-188" rx="1.8" ry="1.8"/>
</g>
<!-- 49&#45;&gt;138+49 -->
<g id="edge8" class="edge"><title>49&#45;&gt;138+49</title>
<path fill="none" stroke="black" d="M114.272,-241.285C130.547,-217.468 145.695,-195.3 149.228,-190.13"/>
</g>
<!-- 50 -->
<g id="node2" class="node"><title>50</title>
<g id="a_node2"><a xlink:href="http://awoiaf.westeros.org/index.php/Joffrey_Baratheon" xlink:title="Joffrey I Baratheon\n286&#45;300" target="_blank">
<polygon fill="white" stroke="black" points="1092,-387 938,-387 938,-233 1092,-233 1092,-387"/>
<text text-anchor="middle" x="1015" y="-313.8" font-family="Times,serif" font-size="14.00">Joffrey I Baratheon</text>
<text text-anchor="middle" x="1015" y="-298.8" font-family="Times,serif" font-size="14.00">286&#45;300</text>
</a>
</g>
</g>
<!-- 50+96 -->
<g id="node15" class="node"><title>50+96</title>
<ellipse fill="black" stroke="black" cx="933" cy="-188" rx="1.8" ry="1.8"/>
</g>
<!-- 50&#45;&gt;50+96 -->
<g id="edge1" class="edge"><title>50&#45;&gt;50+96</title>
<path fill="none" stroke="black" d="M962.836,-232.662C948.685,-211.954 936.455,-194.056 933.619,-189.905"/>
</g>
<!-- 51 -->
<g id="node3" class="node"><title>51</title>
<g id="a_node3"><a xlink:href="http://awoiaf.westeros.org/index.php/Myrcella_Baratheon" xlink:title="Myrcella Baratheon\n290&#45;" target="_blank">
<polygon fill="white" stroke="black" points="793.25,-863.5 634.75,-863.5 634.75,-704.5 793.25,-704.5 793.25,-863.5"/>
<text text-anchor="middle" x="714" y="-787.8" font-family="Times,serif" font-size="14.00">Myrcella Baratheon</text>
<text text-anchor="middle" x="714" y="-772.8" font-family="Times,serif" font-size="14.00">290&#45;</text>
</a>
</g>
</g>
<!-- 52 -->
<g id="node4" class="node"><title>52</title>
<g id="a_node4"><a xlink:href="http://awoiaf.westeros.org/index.php/Tommen_Baratheon" xlink:title="Tommen I Baratheon\n291&#45;" target="_blank">
<polygon fill="white" stroke="black" points="1277.25,-393.5 1110.75,-393.5 1110.75,-226.5 1277.25,-226.5 1277.25,-393.5"/>
<text text-anchor="middle" x="1194" y="-313.8" font-family="Times,serif" font-size="14.00">Tommen I Baratheon</text>
<text text-anchor="middle" x="1194" y="-298.8" font-family="Times,serif" font-size="14.00">291&#45;</text>
</a>
</g>
</g>
<!-- 52+96 -->
<g id="node16" class="node"><title>52+96</title>
<ellipse fill="black" stroke="black" cx="1114" cy="-188" rx="1.8" ry="1.8"/>
</g>
<!-- 52&#45;&gt;52+96 -->
<g id="edge3" class="edge"><title>52&#45;&gt;52+96</title>
<path fill="none" stroke="black" d="M1138.87,-226.311C1126.75,-208.123 1116.8,-193.198 1114.5,-189.751"/>
</g>
<!-- 96 -->
<g id="node5" class="node"><title>96</title>
<g id="a_node5"><a xlink:href="http://awoiaf.westeros.org/index.php/Margaery_Tyrell" xlink:title="Margaery Tyrell\n283&#45;" target="_blank">
<polygon fill="white" stroke="black" points="919.25,-376.5 786.75,-376.5 786.75,-243.5 919.25,-243.5 919.25,-376.5"/>
<text text-anchor="middle" x="853" y="-313.8" font-family="Times,serif" font-size="14.00">Margaery Tyrell</text>
<text text-anchor="middle" x="853" y="-298.8" font-family="Times,serif" font-size="14.00">283&#45;</text>
</a>
</g>
</g>
<!-- 96&#45;&gt;50+96 -->
<g id="edge2" class="edge"><title>96&#45;&gt;50+96</title>
<path fill="none" stroke="black" d="M896.745,-243.382C913.087,-218.869 928.588,-195.618 932.208,-190.188"/>
</g>
<!-- 96&#45;&gt;52+96 -->
<g id="edge4" class="edge"><title>96&#45;&gt;52+96</title>
<path fill="none" stroke="black" d="M905.355,-243.181C912.729,-236.645 920.661,-230.702 929,-226 996.905,-187.713 1098.45,-188.636 1112.39,-188.955"/>
</g>
<!-- 156+96 -->
<g id="node20" class="node"><title>156+96</title>
<ellipse fill="black" stroke="black" cx="776" cy="-188" rx="1.8" ry="1.8"/>
</g>
<!-- 96&#45;&gt;156+96 -->
<g id="edge12" class="edge"><title>96&#45;&gt;156+96</title>
<path fill="none" stroke="black" d="M810.895,-243.382C795.166,-218.869 780.246,-195.618 776.762,-190.188"/>
</g>
<!-- 136 -->
<g id="node6" class="node"><title>136</title>
<g id="a_node6"><a xlink:href="http://awoiaf.westeros.org/index.php/Steffon_Baratheon" xlink:title="Steffon Baratheon\n246&#45;278" target="_blank">
<polygon fill="white" stroke="black" points="527,-622 381,-622 381,-476 527,-476 527,-622"/>
<text text-anchor="middle" x="454" y="-552.8" font-family="Times,serif" font-size="14.00">Steffon Baratheon</text>
<text text-anchor="middle" x="454" y="-537.8" font-family="Times,serif" font-size="14.00">246&#45;278</text>
</a>
</g>
</g>
<!-- 136+137 -->
<g id="node17" class="node"><title>136+137</title>
<ellipse fill="black" stroke="black" cx="539" cy="-432" rx="1.8" ry="1.8"/>
</g>
<!-- 136&#45;&gt;136+137 -->
<g id="edge5" class="edge"><title>136&#45;&gt;136+137</title>
<path fill="none" stroke="black" d="M507.349,-475.822C522.292,-455.605 535.318,-437.982 538.34,-433.892"/>
</g>
<!-- 137 -->
<g id="node7" class="node"><title>137</title>
<g id="a_node7"><a xlink:href="http://awoiaf.westeros.org/index.php/Cassana_Estermont" xlink:title="Cassana Estermont\n???&#45;278" target="_blank">
<polygon fill="white" stroke="black" points="702.25,-627.5 545.75,-627.5 545.75,-470.5 702.25,-470.5 702.25,-627.5"/>
<text text-anchor="middle" x="624" y="-552.8" font-family="Times,serif" font-size="14.00">Cassana Estermont</text>
<text text-anchor="middle" x="624" y="-537.8" font-family="Times,serif" font-size="14.00">???&#45;278</text>
</a>
</g>
</g>
<!-- 137&#45;&gt;136+137 -->
<g id="edge6" class="edge"><title>137&#45;&gt;136+137</title>
<path fill="none" stroke="black" d="M566.597,-470.337C553.238,-452.263 542.128,-437.232 539.56,-433.757"/>
</g>
<!-- 138 -->
<g id="node8" class="node"><title>138</title>
<g id="a_node8"><a xlink:href="http://awoiaf.westeros.org/index.php/Robert_Baratheon" xlink:title="Robert I Baratheon\n262&#45;298" target="_blank">
<polygon fill="white" stroke="black" points="309.25,-387.5 154.75,-387.5 154.75,-232.5 309.25,-232.5 309.25,-387.5"/>
<text text-anchor="middle" x="232" y="-313.8" font-family="Times,serif" font-size="14.00">Robert I Baratheon</text>
<text text-anchor="middle" x="232" y="-298.8" font-family="Times,serif" font-size="14.00">262&#45;298</text>
</a>
</g>
</g>
<!-- 138&#45;&gt;138+49 -->
<g id="edge7" class="edge"><title>138&#45;&gt;138+49</title>
<path fill="none" stroke="black" d="M179.604,-232.323C165.542,-211.744 153.423,-194.009 150.613,-189.897"/>
</g>
<!-- 153 -->
<g id="node9" class="node"><title>153</title>
<g id="a_node9"><a xlink:href="http://awoiaf.westeros.org/index.php/Stannis_Baratheon" xlink:title="Stannis Baratheon\n264&#45;" target="_blank">
<polygon fill="white" stroke="black" points="613.25,-384.5 464.75,-384.5 464.75,-235.5 613.25,-235.5 613.25,-384.5"/>
<text text-anchor="middle" x="539" y="-313.8" font-family="Times,serif" font-size="14.00">Stannis Baratheon</text>
<text text-anchor="middle" x="539" y="-298.8" font-family="Times,serif" font-size="14.00">264&#45;</text>
</a>
</g>
</g>
<!-- 153+154 -->
<g id="node19" class="node"><title>153+154</title>
<ellipse fill="black" stroke="black" cx="463" cy="-188" rx="1.8" ry="1.8"/>
</g>
<!-- 153&#45;&gt;153+154 -->
<g id="edge9" class="edge"><title>153&#45;&gt;153+154</title>
<path fill="none" stroke="black" d="M492.384,-235.395C478.618,-213.661 466.445,-194.44 463.617,-189.975"/>
</g>
<!-- 154 -->
<g id="node10" class="node"><title>154</title>
<g id="a_node10"><a xlink:href="http://awoiaf.westeros.org/index.php/Selyse_Florent" xlink:title="Selyse Florent\n???&#45;" target="_blank">
<polygon fill="white" stroke="black" points="446.25,-369.5 327.75,-369.5 327.75,-250.5 446.25,-250.5 446.25,-369.5"/>
<text text-anchor="middle" x="387" y="-313.8" font-family="Times,serif" font-size="14.00">Selyse Florent</text>
<text text-anchor="middle" x="387" y="-298.8" font-family="Times,serif" font-size="14.00">???&#45;</text>
</a>
</g>
</g>
<!-- 154&#45;&gt;153+154 -->
<g id="edge10" class="edge"><title>154&#45;&gt;153+154</title>
<path fill="none" stroke="black" d="M424.109,-250.406C441.593,-222.801 459.328,-194.798 462.5,-189.79"/>
</g>
<!-- 155 -->
<g id="node11" class="node"><title>155</title>
<g id="a_node11"><a xlink:href="http://awoiaf.westeros.org/index.php/Shireen_Baratheon" xlink:title="Shireen Baratheon\n289&#45;" target="_blank">
<polygon fill="white" stroke="black" points="537.5,-150 388.5,-150 388.5,-1.42109e-14 537.5,-1.42109e-14 537.5,-150"/>
<text text-anchor="middle" x="463" y="-78.8" font-family="Times,serif" font-size="14.00">Shireen Baratheon</text>
<text text-anchor="middle" x="463" y="-63.8" font-family="Times,serif" font-size="14.00">289&#45;</text>
</a>
</g>
</g>
<!-- 156 -->
<g id="node12" class="node"><title>156</title>
<g id="a_node12"><a xlink:href="http://awoiaf.westeros.org/index.php/Renly_Baratheon" xlink:title="Renly Baratheon\n277&#45;299" target="_blank">
<polygon fill="white" stroke="black" points="768,-378 632,-378 632,-242 768,-242 768,-378"/>
<text text-anchor="middle" x="700" y="-313.8" font-family="Times,serif" font-size="14.00">Renly Baratheon</text>
<text text-anchor="middle" x="700" y="-298.8" font-family="Times,serif" font-size="14.00">277&#45;299</text>
</a>
</g>
</g>
<!-- 156&#45;&gt;156+96 -->
<g id="edge11" class="edge"><title>156&#45;&gt;156+96</title>
<path fill="none" stroke="black" d="M742.444,-241.983C757.677,-217.932 771.943,-195.405 775.272,-190.149"/>
</g>
<!-- 178 -->
<g id="node13" class="node"><title>178</title>
<g id="a_node13"><a xlink:href="http://awoiaf.westeros.org/index.php/Rhaelle_Targaryen" xlink:title="Rhaelle Targaryen\n229&#45;???" target="_blank">
<polygon fill="white" stroke="black" points="443.25,-857.5 296.75,-857.5 296.75,-710.5 443.25,-710.5 443.25,-857.5"/>
<text text-anchor="middle" x="370" y="-787.8" font-family="Times,serif" font-size="14.00">Rhaelle Targaryen</text>
<text text-anchor="middle" x="370" y="-772.8" font-family="Times,serif" font-size="14.00">229&#45;???</text>
</a>
</g>
</g>
<!-- 179+178 -->
<g id="node21" class="node"><title>179+178</title>
<ellipse fill="black" stroke="black" cx="454" cy="-666" rx="1.8" ry="1.8"/>
</g>
<!-- 178&#45;&gt;179+178 -->
<g id="edge14" class="edge"><title>178&#45;&gt;179+178</title>
<path fill="none" stroke="black" d="M422.722,-710.194C437.489,-689.801 450.361,-672.025 453.348,-667.9"/>
</g>
<!-- 179 -->
<g id="node14" class="node"><title>179</title>
<g id="a_node14"><a xlink:href="http://awoiaf.westeros.org/index.php/Ormund_Baratheon" xlink:title="Ormund Baratheon\n???&#45;260" target="_blank">
<polygon fill="white" stroke="black" points="616,-861 462,-861 462,-707 616,-707 616,-861"/>
<text text-anchor="middle" x="539" y="-787.8" font-family="Times,serif" font-size="14.00">Ormund Baratheon</text>
<text text-anchor="middle" x="539" y="-772.8" font-family="Times,serif" font-size="14.00">???&#45;260</text>
</a>
</g>
</g>
<!-- 179&#45;&gt;179+178 -->
<g id="edge13" class="edge"><title>179&#45;&gt;179+178</title>
<path fill="none" stroke="black" d="M483.252,-706.921C469.233,-687.789 457.351,-671.574 454.6,-667.819"/>
</g>
<!-- 136+137&#45;&gt;138 -->
<g id="edge16" class="edge"><title>136+137&#45;&gt;138</title>
<path fill="none" stroke="black" d="M537.102,-431.095C520.642,-431.839 400.683,-435.664 318,-394 314.201,-392.086 310.459,-389.946 306.79,-387.629"/>
</g>
<!-- 136+137&#45;&gt;153 -->
<g id="edge17" class="edge"><title>136+137&#45;&gt;153</title>
<path fill="none" stroke="black" d="M539,-429.652C539,-424.58 539,-405.845 539,-384.712"/>
</g>
<!-- 136+137&#45;&gt;156 -->
<g id="edge19" class="edge"><title>136+137&#45;&gt;156</title>
<path fill="none" stroke="black" d="M540.265,-430.644C548.239,-428.363 592.166,-415.204 622,-394 628.608,-389.303 635.101,-383.982 641.345,-378.357"/>
</g>
<!-- 153+154&#45;&gt;155 -->
<g id="edge18" class="edge"><title>153+154&#45;&gt;155</title>
<path fill="none" stroke="black" d="M463,-185.753C463,-181.538 463,-167.12 463,-150.058"/>
</g>
<!-- 179+178&#45;&gt;136 -->
<g id="edge15" class="edge"><title>179+178&#45;&gt;136</title>
<path fill="none" stroke="black" d="M454,-663.708C454,-658.971 454,-641.796 454,-622.178"/>
</g>
</g>
</svg>
