<?xml version="1.0" encoding="UTF-8" standalone="no"?>
<!DOCTYPE svg PUBLIC "-//W3C//DTD SVG 1.1//EN"
 "http://www.w3.org/Graphics/SVG/1.1/DTD/svg11.dtd">
<!-- Generated by graphviz version 2.36.0 (20140111.2315)
 -->
<!-- Title: family Pages: 1 -->
<svg width="573pt" height="1084pt"
 viewBox="0.00 0.00 573.00 1084.00" xmlns="http://www.w3.org/2000/svg" xmlns:xlink="http://www.w3.org/1999/xlink">
<g id="graph0" class="graph" transform="scale(1 1) rotate(0) translate(4 1080)">
<title>family</title>
<polygon fill="white" stroke="none" points="-4,4 -4,-1080 569,-1080 569,4 -4,4"/>
<!-- 15 -->
<g id="node1" class="node"><title>15</title>
<g id="a_node1"><a xlink:href="/character/display?id=Benjen_Stark" xlink:title="Benjen Stark" target="_blank">
<polygon fill="white" stroke="black" points="311.25,-119.5 192.75,-119.5 192.75,-0.5 311.25,-0.5 311.25,-119.5"/>
</a>
</g>
<g id="a_node1_0"><a xlink:href="http://awoiaf.westeros.org/index.php/Benjen_Stark" xlink:title="Benjen Stark" target="_blank">
<text text-anchor="start" x="205.5" y="-63.3" font-family="Times,serif" font-size="14.00">Benjen Stark</text>
<text text-anchor="start" x="236.5" y="-48.3" font-family="Times,serif" font-size="14.00">267&#45;</text>
</a>
</g>
<g><a xlink:href="/character/display?id=Benjen_Stark" xlink:title="Benjen Stark" target="_blank">
</a>
</g>
</g>
<!-- 10 -->
<g id="node2" class="node"><title>10</title>
<g id="a_node2"><a xlink:href="/character/display?id=Rickard_Stark" xlink:title="Rickard Stark" target="_blank">
<polygon fill="white" stroke="black" points="361.25,-321.5 236.75,-321.5 236.75,-196.5 361.25,-196.5 361.25,-321.5"/>
</a>
</g>
<g id="a_node2_1"><a xlink:href="http://awoiaf.westeros.org/index.php/Rickard_Stark" xlink:title="Rickard Stark" target="_blank">
<text text-anchor="start" x="249.5" y="-262.3" font-family="Times,serif" font-size="14.00">Rickard Stark</text>
<text text-anchor="start" x="270" y="-247.3" font-family="Times,serif" font-size="14.00">230&#45;282</text>
</a>
</g>
<g><a xlink:href="/character/display?id=Rickard_Stark" xlink:title="Rickard Stark" target="_blank">
</a>
</g>
</g>
<!-- 10+11 -->
<g id="node12" class="node"><title>10+11</title>
<ellipse fill="black" stroke="black" cx="252" cy="-158" rx="1.8" ry="1.8"/>
</g>
<!-- 10&#45;&gt;10+11 -->
<g id="edge1" class="edge"><title>10&#45;&gt;10+11</title>
<path fill="none" stroke="black" d="M269.769,-196.428C261.406,-178.812 254.074,-163.368 252.371,-159.782"/>
</g>
<!-- 11 -->
<g id="node3" class="node"><title>11</title>
<g id="a_node3"><a xlink:href="/character/display?id=Lyarra_Stark" xlink:title="Lyarra Stark" target="_blank">
<polygon fill="white" stroke="black" points="257.25,-475.5 140.75,-475.5 140.75,-358.5 257.25,-358.5 257.25,-475.5"/>
</a>
</g>
<g id="a_node3_2"><a xlink:href="http://awoiaf.westeros.org/index.php/Lyarra_Stark" xlink:title="Lyarra Stark" target="_blank">
<text text-anchor="start" x="153.5" y="-420.3" font-family="Times,serif" font-size="14.00">Lyarra Stark</text>
<text text-anchor="start" x="174.5" y="-405.3" font-family="Times,serif" font-size="14.00">???&#45;???</text>
</a>
</g>
<g><a xlink:href="/character/display?id=Lyarra_Stark" xlink:title="Lyarra Stark" target="_blank">
</a>
</g>
</g>
<!-- 11&#45;&gt;10+11 -->
<g id="edge2" class="edge"><title>11&#45;&gt;10+11</title>
<path fill="none" stroke="black" d="M199.086,-358.186C200.857,-312.761 207.176,-248.602 227,-196 233.124,-179.75 247.672,-163.609 251.213,-159.828"/>
</g>
<!-- 188 -->
<g id="node4" class="node"><title>188</title>
<g id="a_node4"><a xlink:href="/character/display?id=Edwyle_Stark" xlink:title="Edwyle Stark" target="_blank">
<polygon fill="white" stroke="black" points="361,-634 239,-634 239,-512 361,-512 361,-634"/>
</a>
</g>
<g id="a_node4_3"><a xlink:href="http://awoiaf.westeros.org/index.php/Edwyle_Stark" xlink:title="Edwyle Stark" target="_blank">
<text text-anchor="start" x="251.5" y="-576.3" font-family="Times,serif" font-size="14.00">Edwyle Stark</text>
<text text-anchor="start" x="275" y="-561.3" font-family="Times,serif" font-size="14.00">???&#45;???</text>
</a>
</g>
<g><a xlink:href="/character/display?id=Edwyle_Stark" xlink:title="Edwyle Stark" target="_blank">
</a>
</g>
</g>
<!-- 188+189 -->
<g id="node13" class="node"><title>188+189</title>
<ellipse fill="black" stroke="black" cx="300" cy="-417" rx="1.8" ry="1.8"/>
</g>
<!-- 188&#45;&gt;188+189 -->
<g id="edge3" class="edge"><title>188&#45;&gt;188+189</title>
<path fill="none" stroke="black" d="M300,-511.577C300,-471.804 300,-425.836 300,-418.896"/>
</g>
<!-- 189 -->
<g id="node5" class="node"><title>189</title>
<g id="a_node5"><a xlink:href="/character/display?id=Marna_Locke" xlink:title="Marna Locke" target="_blank">
<polygon fill="white" stroke="black" points="500.25,-633.5 379.75,-633.5 379.75,-512.5 500.25,-512.5 500.25,-633.5"/>
</a>
</g>
<g id="a_node5_4"><a xlink:href="http://awoiaf.westeros.org/index.php/Marna_Locke" xlink:title="Marna Locke" target="_blank">
<text text-anchor="start" x="392.5" y="-576.3" font-family="Times,serif" font-size="14.00">Marna Locke</text>
<text text-anchor="start" x="415.5" y="-561.3" font-family="Times,serif" font-size="14.00">???&#45;???</text>
</a>
</g>
<g><a xlink:href="/character/display?id=Marna_Locke" xlink:title="Marna Locke" target="_blank">
</a>
</g>
</g>
<!-- 189&#45;&gt;188+189 -->
<g id="edge4" class="edge"><title>189&#45;&gt;188+189</title>
<path fill="none" stroke="black" d="M385.872,-512.46C349.554,-472.51 307.219,-425.941 300.825,-418.908"/>
</g>
<!-- 205 -->
<g id="node6" class="node"><title>205</title>
<g id="a_node6"><a xlink:href="/character/display?id=Rodrik Stark_(son_of_Beron)" xlink:title="Rodrik Stark" target="_blank">
<polygon fill="white" stroke="black" points="233.25,-856.5 116.75,-856.5 116.75,-739.5 233.25,-739.5 233.25,-856.5"/>
</a>
</g>
<g id="a_node6_5"><a xlink:href="http://awoiaf.westeros.org/index.php/Rodrik Stark_(son_of_Beron)" xlink:title="Rodrik Stark" target="_blank">
<text text-anchor="start" x="129.5" y="-801.3" font-family="Times,serif" font-size="14.00">Rodrik Stark</text>
<text text-anchor="start" x="150.5" y="-786.3" font-family="Times,serif" font-size="14.00">???&#45;???</text>
</a>
</g>
<g><a xlink:href="/character/display?id=Rodrik Stark_(son_of_Beron)" xlink:title="Rodrik Stark" target="_blank">
</a>
</g>
</g>
<!-- 205+206 -->
<g id="node14" class="node"><title>205+206</title>
<ellipse fill="black" stroke="black" cx="175" cy="-672" rx="1.8" ry="1.8"/>
</g>
<!-- 205&#45;&gt;205+206 -->
<g id="edge5" class="edge"><title>205&#45;&gt;205+206</title>
<path fill="none" stroke="black" d="M175,-739.356C175,-710.01 175,-679.356 175,-673.867"/>
</g>
<!-- 206 -->
<g id="node7" class="node"><title>206</title>
<g id="a_node7"><a xlink:href="/character/display?id=Arya_Flint" xlink:title="Arya Flint" target="_blank">
<polygon fill="white" stroke="black" points="97.5,-847 0.5,-847 0.5,-749 97.5,-749 97.5,-847"/>
</a>
</g>
<g id="a_node7_6"><a xlink:href="http://awoiaf.westeros.org/index.php/Arya_Flint" xlink:title="Arya Flint" target="_blank">
<text text-anchor="start" x="12.5" y="-801.3" font-family="Times,serif" font-size="14.00">Arya Flint</text>
<text text-anchor="start" x="24" y="-786.3" font-family="Times,serif" font-size="14.00">???&#45;???</text>
</a>
</g>
<g><a xlink:href="/character/display?id=Arya_Flint" xlink:title="Arya Flint" target="_blank">
</a>
</g>
</g>
<!-- 206&#45;&gt;205+206 -->
<g id="edge6" class="edge"><title>206&#45;&gt;205+206</title>
<path fill="none" stroke="black" d="M75.3236,-748.603C84.1928,-735.048 94.9413,-721.023 107,-710 129.618,-689.325 165.886,-676.128 173.549,-673.489"/>
</g>
<!-- 184 -->
<g id="node8" class="node"><title>184</title>
<g id="a_node8"><a xlink:href="/character/display?id=Willam_Stark" xlink:title="Willam Stark" target="_blank">
<polygon fill="white" stroke="black" points="370.25,-857.5 251.75,-857.5 251.75,-738.5 370.25,-738.5 370.25,-857.5"/>
</a>
</g>
<g id="a_node8_7"><a xlink:href="http://awoiaf.westeros.org/index.php/Willam_Stark" xlink:title="Willam Stark" target="_blank">
<text text-anchor="start" x="264.5" y="-801.3" font-family="Times,serif" font-size="14.00">Willam Stark</text>
<text text-anchor="start" x="284" y="-786.3" font-family="Times,serif" font-size="14.00">???&#45;226</text>
</a>
</g>
<g><a xlink:href="/character/display?id=Willam_Stark" xlink:title="Willam Stark" target="_blank">
</a>
</g>
</g>
<!-- 184+187 -->
<g id="node15" class="node"><title>184+187</title>
<ellipse fill="black" stroke="black" cx="311" cy="-672" rx="1.8" ry="1.8"/>
</g>
<!-- 184&#45;&gt;184+187 -->
<g id="edge7" class="edge"><title>184&#45;&gt;184+187</title>
<path fill="none" stroke="black" d="M311,-738.268C311,-709.223 311,-679.218 311,-673.848"/>
</g>
<!-- 187 -->
<g id="node9" class="node"><title>187</title>
<g id="a_node9"><a xlink:href="/character/display?id=Melantha_Blackwood" xlink:title="Melantha Blackwood" target="_blank">
<polygon fill="white" stroke="black" points="564.5,-886 389.5,-886 389.5,-710 564.5,-710 564.5,-886"/>
</a>
</g>
<g id="a_node9_8"><a xlink:href="http://awoiaf.westeros.org/index.php/Melantha_Blackwood" xlink:title="Melantha Blackwood" target="_blank">
<text text-anchor="start" x="401.5" y="-801.3" font-family="Times,serif" font-size="14.00">Melantha Blackwood</text>
<text text-anchor="start" x="452" y="-786.3" font-family="Times,serif" font-size="14.00">???&#45;???</text>
</a>
</g>
<g><a xlink:href="/character/display?id=Melantha_Blackwood" xlink:title="Melantha Blackwood" target="_blank">
</a>
</g>
</g>
<!-- 187&#45;&gt;184+187 -->
<g id="edge8" class="edge"><title>187&#45;&gt;184+187</title>
<path fill="none" stroke="black" d="M389.356,-717.542C385.903,-714.942 382.445,-712.419 379,-710 353.921,-692.391 319.576,-676.799 312.362,-673.599"/>
</g>
<!-- 180 -->
<g id="node10" class="node"><title>180</title>
<g id="a_node10"><a xlink:href="/character/display?id=Beron_Stark" xlink:title="Beron Stark" target="_blank">
<polygon fill="white" stroke="black" points="233.5,-1075 122.5,-1075 122.5,-963 233.5,-963 233.5,-1075"/>
</a>
</g>
<g id="a_node10_9"><a xlink:href="http://awoiaf.westeros.org/index.php/Beron_Stark" xlink:title="Beron Stark" target="_blank">
<text text-anchor="start" x="134.5" y="-1022.3" font-family="Times,serif" font-size="14.00">Beron Stark</text>
<text text-anchor="start" x="153" y="-1007.3" font-family="Times,serif" font-size="14.00">???&#45;???</text>
</a>
</g>
<g><a xlink:href="/character/display?id=Beron_Stark" xlink:title="Beron Stark" target="_blank">
</a>
</g>
</g>
<!-- 180+181 -->
<g id="node16" class="node"><title>180+181</title>
<ellipse fill="black" stroke="black" cx="243" cy="-924" rx="1.8" ry="1.8"/>
</g>
<!-- 180&#45;&gt;180+181 -->
<g id="edge9" class="edge"><title>180&#45;&gt;180+181</title>
<path fill="none" stroke="black" d="M216.562,-962.827C228.809,-945.304 239.865,-929.485 242.438,-925.804"/>
</g>
<!-- 181 -->
<g id="node11" class="node"><title>181</title>
<g id="a_node11"><a xlink:href="/character/display?id=Lorra_Royce" xlink:title="Lorra Royce" target="_blank">
<polygon fill="white" stroke="black" points="365.25,-1075.5 252.75,-1075.5 252.75,-962.5 365.25,-962.5 365.25,-1075.5"/>
</a>
</g>
<g id="a_node11_10"><a xlink:href="http://awoiaf.westeros.org/index.php/Lorra_Royce" xlink:title="Lorra Royce" target="_blank">
<text text-anchor="start" x="265.5" y="-1022.3" font-family="Times,serif" font-size="14.00">Lorra Royce</text>
<text text-anchor="start" x="284.5" y="-1007.3" font-family="Times,serif" font-size="14.00">???&#45;???</text>
</a>
</g>
<g><a xlink:href="/character/display?id=Lorra_Royce" xlink:title="Lorra Royce" target="_blank">
</a>
</g>
</g>
<!-- 181&#45;&gt;180+181 -->
<g id="edge10" class="edge"><title>181&#45;&gt;180+181</title>
<path fill="none" stroke="black" d="M269.464,-962.291C257.165,-944.96 246.128,-929.407 243.561,-925.79"/>
</g>
<!-- 10+11&#45;&gt;15 -->
<g id="edge11" class="edge"><title>10+11&#45;&gt;15</title>
<path fill="none" stroke="black" d="M252,-155.922C252,-151.843 252,-136.723 252,-119.712"/>
</g>
<!-- 188+189&#45;&gt;10 -->
<g id="edge12" class="edge"><title>188+189&#45;&gt;10</title>
<path fill="none" stroke="black" d="M299.994,-415.004C299.947,-407.712 299.652,-361.735 299.396,-321.732"/>
</g>
<!-- 205+206&#45;&gt;11 -->
<g id="edge13" class="edge"><title>205+206&#45;&gt;11</title>
<path fill="none" stroke="black" d="M175.107,-669.872C176.28,-657.502 186.838,-546.209 193.521,-475.761"/>
</g>
<!-- 184+187&#45;&gt;188 -->
<g id="edge14" class="edge"><title>184+187&#45;&gt;188</title>
<path fill="none" stroke="black" d="M310.876,-669.911C310.416,-665.852 308.729,-650.973 306.816,-634.104"/>
</g>
<!-- 180+181&#45;&gt;205 -->
<g id="edge15" class="edge"><title>180+181&#45;&gt;205</title>
<path fill="none" stroke="black" d="M242.566,-922.208C239.67,-916.928 222.779,-886.126 206.611,-856.644"/>
</g>
<!-- 180+181&#45;&gt;184 -->
<g id="edge16" class="edge"><title>180+181&#45;&gt;184</title>
<path fill="none" stroke="black" d="M243.434,-922.208C246.296,-916.99 262.827,-886.844 278.82,-857.681"/>
</g>
</g>
</svg>
