<?xml version="1.0" encoding="UTF-8" standalone="no"?>
<!DOCTYPE svg PUBLIC "-//W3C//DTD SVG 1.1//EN"
 "http://www.w3.org/Graphics/SVG/1.1/DTD/svg11.dtd">
<!-- Generated by graphviz version 2.36.0 (20140111.2315)
 -->
<!-- Title: family Pages: 1 -->
<svg width="1633pt" height="1366pt"
 viewBox="0.00 0.00 1633.00 1366.00" xmlns="http://www.w3.org/2000/svg" xmlns:xlink="http://www.w3.org/1999/xlink">
<g id="graph0" class="graph" transform="scale(1 1) rotate(0) translate(4 1362)">
<title>family</title>
<polygon fill="white" stroke="none" points="-4,4 -4,-1362 1629,-1362 1629,4 -4,4"/>
<!-- 180 -->
<g id="node1" class="node"><title>180</title>
<g id="a_node1"><a xlink:href="http://awoiaf.westeros.org/index.php/Beron_Stark" xlink:title="&lt;TABLE&gt;" target="_blank">
<polygon fill="white" stroke="black" points="642.5,-1357 527.5,-1357 527.5,-1241 642.5,-1241 642.5,-1357"/>
</a>
</g>
<g id="a_node1_0"><a xlink:href="/character/display?id=Beron_Stark" xlink:title="&lt;TABLE&gt;" target="_blank">
<polygon fill="none" stroke="black" points="538,-1280 538,-1317 632,-1317 632,-1280 538,-1280"/>
<text text-anchor="start" x="541.5" y="-1302.3" font-family="Times,serif" font-size="14.00">Beron Stark</text>
<text text-anchor="start" x="560" y="-1287.3" font-family="Times,serif" font-size="14.00">???&#45;???</text>
<polygon fill="none" stroke="black" points="535,-1277.5 535,-1320.5 635,-1320.5 635,-1277.5 535,-1277.5"/>
</a>
</g>
<g><a xlink:href="http://awoiaf.westeros.org/index.php/Beron_Stark" xlink:title="&lt;TABLE&gt;" target="_blank">
</a>
</g>
</g>
<!-- 180+181 -->
<g id="node39" class="node"><title>180+181</title>
<ellipse fill="black" stroke="black" cx="652" cy="-1202" rx="1.8" ry="1.8"/>
</g>
<!-- 180&#45;&gt;180+181 -->
<g id="edge1" class="edge"><title>180&#45;&gt;180+181</title>
<path fill="none" stroke="black" d="M625.327,-1240.82C637.743,-1223.21 648.853,-1207.46 651.436,-1203.8"/>
</g>
<!-- 183 -->
<g id="node2" class="node"><title>183</title>
<g id="a_node2"><a xlink:href="http://awoiaf.westeros.org/index.php/Donner_Stark" xlink:title="&lt;TABLE&gt;" target="_blank">
<polygon fill="white" stroke="black" points="572,-1137 446,-1137 446,-1011 572,-1011 572,-1137"/>
</a>
</g>
<g id="a_node2_1"><a xlink:href="/character/display?id=Donner_Stark" xlink:title="&lt;TABLE&gt;" target="_blank">
<polygon fill="none" stroke="black" points="457,-1055 457,-1092 561,-1092 561,-1055 457,-1055"/>
<text text-anchor="start" x="460.5" y="-1077.3" font-family="Times,serif" font-size="14.00">Donner Stark</text>
<text text-anchor="start" x="484" y="-1062.3" font-family="Times,serif" font-size="14.00">???&#45;???</text>
<polygon fill="none" stroke="black" points="454,-1052.5 454,-1095.5 564,-1095.5 564,-1052.5 454,-1052.5"/>
</a>
</g>
<g><a xlink:href="http://awoiaf.westeros.org/index.php/Donner_Stark" xlink:title="&lt;TABLE&gt;" target="_blank">
</a>
</g>
</g>
<!-- 184 -->
<g id="node3" class="node"><title>184</title>
<g id="a_node3"><a xlink:href="http://awoiaf.westeros.org/index.php/Willam_Stark" xlink:title="&lt;TABLE&gt;" target="_blank">
<polygon fill="white" stroke="black" points="713.25,-1135.5 590.75,-1135.5 590.75,-1012.5 713.25,-1012.5 713.25,-1135.5"/>
</a>
</g>
<g id="a_node3_2"><a xlink:href="/character/display?id=Willam_Stark" xlink:title="&lt;TABLE&gt;" target="_blank">
<polygon fill="none" stroke="black" points="602,-1055 602,-1092 703,-1092 703,-1055 602,-1055"/>
<text text-anchor="start" x="605.5" y="-1077.3" font-family="Times,serif" font-size="14.00">Willam Stark</text>
<text text-anchor="start" x="625" y="-1062.3" font-family="Times,serif" font-size="14.00">???&#45;226</text>
<polygon fill="none" stroke="black" points="598.5,-1052.5 598.5,-1095.5 705.5,-1095.5 705.5,-1052.5 598.5,-1052.5"/>
</a>
</g>
<g><a xlink:href="http://awoiaf.westeros.org/index.php/Willam_Stark" xlink:title="&lt;TABLE&gt;" target="_blank">
</a>
</g>
</g>
<!-- 184+185 -->
<g id="node40" class="node"><title>184+185</title>
<ellipse fill="black" stroke="black" cx="381" cy="-946" rx="1.8" ry="1.8"/>
</g>
<!-- 184&#45;&gt;184+185 -->
<g id="edge3" class="edge"><title>184&#45;&gt;184+185</title>
<path fill="none" stroke="black" d="M613.211,-1012.05C603.856,-1001.28 593.036,-991.217 581,-984 508.925,-940.778 398.001,-945.942 382.758,-946.882"/>
</g>
<!-- 184+187 -->
<g id="node41" class="node"><title>184+187</title>
<ellipse fill="black" stroke="black" cx="734" cy="-946" rx="1.8" ry="1.8"/>
</g>
<!-- 184&#45;&gt;184+187 -->
<g id="edge5" class="edge"><title>184&#45;&gt;184+187</title>
<path fill="none" stroke="black" d="M691.559,-1012.21C710.562,-983.015 729.978,-953.18 733.452,-947.842"/>
</g>
<!-- 198 -->
<g id="node4" class="node"><title>198</title>
<g id="a_node4"><a xlink:href="http://awoiaf.westeros.org/index.php/Artos_Stark" xlink:title="&lt;TABLE&gt;" target="_blank">
<polygon fill="white" stroke="black" points="1607.5,-1130 1496.5,-1130 1496.5,-1018 1607.5,-1018 1607.5,-1130"/>
</a>
</g>
<g id="a_node4_3"><a xlink:href="/character/display?id=Artos_Stark" xlink:title="&lt;TABLE&gt;" target="_blank">
<polygon fill="none" stroke="black" points="1507,-1055 1507,-1092 1597,-1092 1597,-1055 1507,-1055"/>
<text text-anchor="start" x="1510.5" y="-1077.3" font-family="Times,serif" font-size="14.00">Artos Stark</text>
<text text-anchor="start" x="1527" y="-1062.3" font-family="Times,serif" font-size="14.00">???&#45;???</text>
<polygon fill="none" stroke="black" points="1504,-1052.5 1504,-1095.5 1600,-1095.5 1600,-1052.5 1504,-1052.5"/>
</a>
</g>
<g><a xlink:href="http://awoiaf.westeros.org/index.php/Artos_Stark" xlink:title="&lt;TABLE&gt;" target="_blank">
</a>
</g>
</g>
<!-- 198+199 -->
<g id="node42" class="node"><title>198+199</title>
<ellipse fill="black" stroke="black" cx="1484" cy="-946" rx="1.8" ry="1.8"/>
</g>
<!-- 198&#45;&gt;198+199 -->
<g id="edge7" class="edge"><title>198&#45;&gt;198+199</title>
<path fill="none" stroke="black" d="M1522.17,-1017.73C1505.62,-987.054 1487.72,-953.888 1484.51,-947.94"/>
</g>
<!-- 202 -->
<g id="node5" class="node"><title>202</title>
<g id="a_node5"><a xlink:href="http://awoiaf.westeros.org/index.php/Berena_Stark" xlink:title="&lt;TABLE&gt;" target="_blank">
<polygon fill="white" stroke="black" points="1477.5,-1136 1354.5,-1136 1354.5,-1012 1477.5,-1012 1477.5,-1136"/>
</a>
</g>
<g id="a_node5_4"><a xlink:href="/character/display?id=Berena_Stark" xlink:title="&lt;TABLE&gt;" target="_blank">
<polygon fill="none" stroke="black" points="1365,-1055 1365,-1092 1467,-1092 1467,-1055 1365,-1055"/>
<text text-anchor="start" x="1368.5" y="-1077.3" font-family="Times,serif" font-size="14.00">Berena Stark</text>
<text text-anchor="start" x="1391" y="-1062.3" font-family="Times,serif" font-size="14.00">???&#45;???</text>
<polygon fill="none" stroke="black" points="1362,-1052.5 1362,-1095.5 1470,-1095.5 1470,-1052.5 1362,-1052.5"/>
</a>
</g>
<g><a xlink:href="http://awoiaf.westeros.org/index.php/Berena_Stark" xlink:title="&lt;TABLE&gt;" target="_blank">
</a>
</g>
</g>
<!-- 203 -->
<g id="node6" class="node"><title>203</title>
<g id="a_node6"><a xlink:href="http://awoiaf.westeros.org/index.php/Alysanne_Stark" xlink:title="&lt;TABLE&gt;" target="_blank">
<polygon fill="white" stroke="black" points="138,-1143 0,-1143 0,-1005 138,-1005 138,-1143"/>
</a>
</g>
<g id="a_node6_5"><a xlink:href="/character/display?id=Alysanne_Stark" xlink:title="&lt;TABLE&gt;" target="_blank">
<polygon fill="none" stroke="black" points="11,-1055 11,-1092 127,-1092 127,-1055 11,-1055"/>
<text text-anchor="start" x="14.5" y="-1077.3" font-family="Times,serif" font-size="14.00">Alysanne Stark</text>
<text text-anchor="start" x="44" y="-1062.3" font-family="Times,serif" font-size="14.00">???&#45;???</text>
<polygon fill="none" stroke="black" points="8,-1052.5 8,-1095.5 130,-1095.5 130,-1052.5 8,-1052.5"/>
</a>
</g>
<g><a xlink:href="http://awoiaf.westeros.org/index.php/Alysanne_Stark" xlink:title="&lt;TABLE&gt;" target="_blank">
</a>
</g>
</g>
<!-- 204 -->
<g id="node7" class="node"><title>204</title>
<g id="a_node7"><a xlink:href="http://awoiaf.westeros.org/index.php/Errold_Stark" xlink:title="&lt;TABLE&gt;" target="_blank">
<polygon fill="white" stroke="black" points="275.25,-1133.5 156.75,-1133.5 156.75,-1014.5 275.25,-1014.5 275.25,-1133.5"/>
</a>
</g>
<g id="a_node7_6"><a xlink:href="/character/display?id=Errold_Stark" xlink:title="&lt;TABLE&gt;" target="_blank">
<polygon fill="none" stroke="black" points="168,-1055 168,-1092 265,-1092 265,-1055 168,-1055"/>
<text text-anchor="start" x="171.5" y="-1077.3" font-family="Times,serif" font-size="14.00">Errold Stark</text>
<text text-anchor="start" x="191.5" y="-1062.3" font-family="Times,serif" font-size="14.00">???&#45;???</text>
<polygon fill="none" stroke="black" points="164.5,-1052.5 164.5,-1095.5 267.5,-1095.5 267.5,-1052.5 164.5,-1052.5"/>
</a>
</g>
<g><a xlink:href="http://awoiaf.westeros.org/index.php/Errold_Stark" xlink:title="&lt;TABLE&gt;" target="_blank">
</a>
</g>
</g>
<!-- 205 -->
<g id="node8" class="node"><title>205</title>
<g id="a_node8"><a xlink:href="http://awoiaf.westeros.org/index.php/Rodrik Stark_(son_of_Beron)" xlink:title="&lt;TABLE&gt;" target="_blank">
<polygon fill="white" stroke="black" points="1171.25,-1134.5 1050.75,-1134.5 1050.75,-1013.5 1171.25,-1013.5 1171.25,-1134.5"/>
</a>
</g>
<g id="a_node8_7"><a xlink:href="/character/display?id=Rodrik Stark_(son_of_Beron)" xlink:title="&lt;TABLE&gt;" target="_blank">
<polygon fill="none" stroke="black" points="1062,-1055 1062,-1092 1161,-1092 1161,-1055 1062,-1055"/>
<text text-anchor="start" x="1065.5" y="-1077.3" font-family="Times,serif" font-size="14.00">Rodrik Stark</text>
<text text-anchor="start" x="1086.5" y="-1062.3" font-family="Times,serif" font-size="14.00">???&#45;???</text>
<polygon fill="none" stroke="black" points="1058.5,-1052.5 1058.5,-1095.5 1163.5,-1095.5 1163.5,-1052.5 1058.5,-1052.5"/>
</a>
</g>
<g><a xlink:href="http://awoiaf.westeros.org/index.php/Rodrik Stark_(son_of_Beron)" xlink:title="&lt;TABLE&gt;" target="_blank">
</a>
</g>
</g>
<!-- 205+206 -->
<g id="node43" class="node"><title>205+206</title>
<ellipse fill="black" stroke="black" cx="1046" cy="-946" rx="1.8" ry="1.8"/>
</g>
<!-- 205&#45;&gt;205+206 -->
<g id="edge9" class="edge"><title>205&#45;&gt;205+206</title>
<path fill="none" stroke="black" d="M1080.21,-1013.32C1064.99,-983.807 1049.26,-953.318 1046.44,-947.861"/>
</g>
<!-- 186 -->
<g id="node9" class="node"><title>186</title>
<g id="a_node9"><a xlink:href="http://awoiaf.westeros.org/index.php/Brandon_Stark_(son_of_Willam)" xlink:title="&lt;TABLE&gt;" target="_blank">
<polygon fill="white" stroke="black" points="448,-904 314,-904 314,-770 448,-770 448,-904"/>
</a>
</g>
<g id="a_node9_8"><a xlink:href="/character/display?id=Brandon_Stark_(son_of_Willam)" xlink:title="&lt;TABLE&gt;" target="_blank">
<polygon fill="none" stroke="black" points="325,-818 325,-855 437,-855 437,-818 325,-818"/>
<text text-anchor="start" x="328.5" y="-840.3" font-family="Times,serif" font-size="14.00">Brandon Stark</text>
<text text-anchor="start" x="356" y="-825.3" font-family="Times,serif" font-size="14.00">???&#45;???</text>
<polygon fill="none" stroke="black" points="322,-815.5 322,-858.5 440,-858.5 440,-815.5 322,-815.5"/>
</a>
</g>
<g><a xlink:href="http://awoiaf.westeros.org/index.php/Brandon_Stark_(son_of_Willam)" xlink:title="&lt;TABLE&gt;" target="_blank">
</a>
</g>
</g>
<!-- 188 -->
<g id="node10" class="node"><title>188</title>
<g id="a_node10"><a xlink:href="http://awoiaf.westeros.org/index.php/Edwyle_Stark" xlink:title="&lt;TABLE&gt;" target="_blank">
<polygon fill="white" stroke="black" points="634,-900 508,-900 508,-774 634,-774 634,-900"/>
</a>
</g>
<g id="a_node10_9"><a xlink:href="/character/display?id=Edwyle_Stark" xlink:title="&lt;TABLE&gt;" target="_blank">
<polygon fill="none" stroke="black" points="519,-818 519,-855 623,-855 623,-818 519,-818"/>
<text text-anchor="start" x="522.5" y="-840.3" font-family="Times,serif" font-size="14.00">Edwyle Stark</text>
<text text-anchor="start" x="546" y="-825.3" font-family="Times,serif" font-size="14.00">???&#45;???</text>
<polygon fill="none" stroke="black" points="516,-815.5 516,-858.5 626,-858.5 626,-815.5 516,-815.5"/>
</a>
</g>
<g><a xlink:href="http://awoiaf.westeros.org/index.php/Edwyle_Stark" xlink:title="&lt;TABLE&gt;" target="_blank">
</a>
</g>
</g>
<!-- 188+189 -->
<g id="node44" class="node"><title>188+189</title>
<ellipse fill="black" stroke="black" cx="715" cy="-669" rx="1.8" ry="1.8"/>
</g>
<!-- 188&#45;&gt;188+189 -->
<g id="edge11" class="edge"><title>188&#45;&gt;188+189</title>
<path fill="none" stroke="black" d="M625.03,-773.715C662.698,-730.292 707.377,-678.788 714.128,-671.005"/>
</g>
<!-- 190 -->
<g id="node11" class="node"><title>190</title>
<g id="a_node11"><a xlink:href="http://awoiaf.westeros.org/index.php/Jocelyn_Stark" xlink:title="&lt;TABLE&gt;" target="_blank">
<polygon fill="white" stroke="black" points="922,-900 796,-900 796,-774 922,-774 922,-900"/>
</a>
</g>
<g id="a_node11_10"><a xlink:href="/character/display?id=Jocelyn_Stark" xlink:title="&lt;TABLE&gt;" target="_blank">
<polygon fill="none" stroke="black" points="807,-818 807,-855 911,-855 911,-818 807,-818"/>
<text text-anchor="start" x="810.5" y="-840.3" font-family="Times,serif" font-size="14.00">Jocelyn Stark</text>
<text text-anchor="start" x="834" y="-825.3" font-family="Times,serif" font-size="14.00">???&#45;???</text>
<polygon fill="none" stroke="black" points="804,-815.5 804,-858.5 914,-858.5 914,-815.5 804,-815.5"/>
</a>
</g>
<g><a xlink:href="http://awoiaf.westeros.org/index.php/Jocelyn_Stark" xlink:title="&lt;TABLE&gt;" target="_blank">
</a>
</g>
</g>
<!-- 191+190 -->
<g id="node48" class="node"><title>191+190</title>
<ellipse fill="black" stroke="black" cx="998" cy="-669" rx="1.8" ry="1.8"/>
</g>
<!-- 190&#45;&gt;191+190 -->
<g id="edge20" class="edge"><title>190&#45;&gt;191+190</title>
<path fill="none" stroke="black" d="M911.154,-773.715C947.514,-730.292 990.642,-678.788 997.158,-671.005"/>
</g>
<!-- 200 -->
<g id="node12" class="node"><title>200</title>
<g id="a_node12"><a xlink:href="http://awoiaf.westeros.org/index.php/Brandon_Stark_(son_of_Artos)" xlink:title="&lt;TABLE&gt;" target="_blank">
<polygon fill="white" stroke="black" points="1625,-904 1491,-904 1491,-770 1625,-770 1625,-904"/>
</a>
</g>
<g id="a_node12_11"><a xlink:href="/character/display?id=Brandon_Stark_(son_of_Artos)" xlink:title="&lt;TABLE&gt;" target="_blank">
<polygon fill="none" stroke="black" points="1502,-818 1502,-855 1614,-855 1614,-818 1502,-818"/>
<text text-anchor="start" x="1505.5" y="-840.3" font-family="Times,serif" font-size="14.00">Brandon Stark</text>
<text text-anchor="start" x="1533" y="-825.3" font-family="Times,serif" font-size="14.00">???&#45;???</text>
<polygon fill="none" stroke="black" points="1499,-815.5 1499,-858.5 1617,-858.5 1617,-815.5 1499,-815.5"/>
</a>
</g>
<g><a xlink:href="http://awoiaf.westeros.org/index.php/Brandon_Stark_(son_of_Artos)" xlink:title="&lt;TABLE&gt;" target="_blank">
</a>
</g>
</g>
<!-- 201 -->
<g id="node13" class="node"><title>201</title>
<g id="a_node13"><a xlink:href="http://awoiaf.westeros.org/index.php/Benjen_Stark_(son_of_Artos)" xlink:title="&lt;TABLE&gt;" target="_blank">
<polygon fill="white" stroke="black" points="1472.25,-898.5 1349.75,-898.5 1349.75,-775.5 1472.25,-775.5 1472.25,-898.5"/>
</a>
</g>
<g id="a_node13_12"><a xlink:href="/character/display?id=Benjen_Stark_(son_of_Artos)" xlink:title="&lt;TABLE&gt;" target="_blank">
<polygon fill="none" stroke="black" points="1361,-818 1361,-855 1462,-855 1462,-818 1361,-818"/>
<text text-anchor="start" x="1364.5" y="-840.3" font-family="Times,serif" font-size="14.00">Benjen Stark</text>
<text text-anchor="start" x="1386.5" y="-825.3" font-family="Times,serif" font-size="14.00">???&#45;???</text>
<polygon fill="none" stroke="black" points="1357.5,-815.5 1357.5,-858.5 1464.5,-858.5 1464.5,-815.5 1357.5,-815.5"/>
</a>
</g>
<g><a xlink:href="http://awoiaf.westeros.org/index.php/Benjen_Stark_(son_of_Artos)" xlink:title="&lt;TABLE&gt;" target="_blank">
</a>
</g>
</g>
<!-- 11 -->
<g id="node14" class="node"><title>11</title>
<g id="a_node14"><a xlink:href="http://awoiaf.westeros.org/index.php/Lyarra_Stark" xlink:title="&lt;TABLE&gt;" target="_blank">
<polygon fill="white" stroke="black" points="1306.25,-729.5 1185.75,-729.5 1185.75,-608.5 1306.25,-608.5 1306.25,-729.5"/>
</a>
</g>
<g id="a_node14_13"><a xlink:href="/character/display?id=Lyarra_Stark" xlink:title="&lt;TABLE&gt;" target="_blank">
<polygon fill="none" stroke="black" points="1197,-650 1197,-687 1296,-687 1296,-650 1197,-650"/>
<text text-anchor="start" x="1200.5" y="-672.3" font-family="Times,serif" font-size="14.00">Lyarra Stark</text>
<text text-anchor="start" x="1221.5" y="-657.3" font-family="Times,serif" font-size="14.00">???&#45;???</text>
<polygon fill="none" stroke="black" points="1193.5,-647.5 1193.5,-690.5 1298.5,-690.5 1298.5,-647.5 1193.5,-647.5"/>
</a>
</g>
<g><a xlink:href="http://awoiaf.westeros.org/index.php/Lyarra_Stark" xlink:title="&lt;TABLE&gt;" target="_blank">
</a>
</g>
</g>
<!-- 10+11 -->
<g id="node45" class="node"><title>10+11</title>
<ellipse fill="black" stroke="black" cx="968" cy="-404" rx="1.8" ry="1.8"/>
</g>
<!-- 11&#45;&gt;10+11 -->
<g id="edge14" class="edge"><title>11&#45;&gt;10+11</title>
<path fill="none" stroke="black" d="M1242.31,-608.328C1235.79,-556.567 1218.03,-483.6 1170,-442 1137.39,-413.757 985.923,-405.847 969.454,-405.066"/>
</g>
<!-- 207 -->
<g id="node15" class="node"><title>207</title>
<g id="a_node15"><a xlink:href="http://awoiaf.westeros.org/index.php/Branda_Stark" xlink:title="&lt;TABLE&gt;" target="_blank">
<polygon fill="white" stroke="black" points="1065.25,-899.5 940.75,-899.5 940.75,-774.5 1065.25,-774.5 1065.25,-899.5"/>
</a>
</g>
<g id="a_node15_14"><a xlink:href="/character/display?id=Branda_Stark" xlink:title="&lt;TABLE&gt;" target="_blank">
<polygon fill="none" stroke="black" points="952,-818 952,-855 1055,-855 1055,-818 952,-818"/>
<text text-anchor="start" x="955.5" y="-840.3" font-family="Times,serif" font-size="14.00">Branda Stark</text>
<text text-anchor="start" x="978.5" y="-825.3" font-family="Times,serif" font-size="14.00">???&#45;???</text>
<polygon fill="none" stroke="black" points="948.5,-815.5 948.5,-858.5 1057.5,-858.5 1057.5,-815.5 948.5,-815.5"/>
</a>
</g>
<g><a xlink:href="http://awoiaf.westeros.org/index.php/Branda_Stark" xlink:title="&lt;TABLE&gt;" target="_blank">
</a>
</g>
</g>
<!-- 10 -->
<g id="node16" class="node"><title>10</title>
<g id="a_node16"><a xlink:href="http://awoiaf.westeros.org/index.php/Rickard_Stark" xlink:title="&lt;TABLE&gt;" target="_blank">
<polygon fill="white" stroke="black" points="804.25,-571.5 675.75,-571.5 675.75,-442.5 804.25,-442.5 804.25,-571.5"/>
</a>
</g>
<g id="a_node16_15"><a xlink:href="/character/display?id=Rickard_Stark" xlink:title="&lt;TABLE&gt;" target="_blank">
<polygon fill="none" stroke="black" points="687,-488 687,-525 794,-525 794,-488 687,-488"/>
<text text-anchor="start" x="690.5" y="-510.3" font-family="Times,serif" font-size="14.00">Rickard Stark</text>
<text text-anchor="start" x="711" y="-495.3" font-family="Times,serif" font-size="14.00">230&#45;282</text>
<polygon fill="none" stroke="black" points="683.5,-485.5 683.5,-528.5 796.5,-528.5 796.5,-485.5 683.5,-485.5"/>
</a>
</g>
<g><a xlink:href="http://awoiaf.westeros.org/index.php/Rickard_Stark" xlink:title="&lt;TABLE&gt;" target="_blank">
</a>
</g>
</g>
<!-- 10&#45;&gt;10+11 -->
<g id="edge13" class="edge"><title>10&#45;&gt;10+11</title>
<path fill="none" stroke="black" d="M804.722,-453.359C811.361,-449.167 818.178,-445.289 825,-442 879.514,-415.715 955.047,-406.448 966.516,-405.161"/>
</g>
<!-- 192 -->
<g id="node17" class="node"><title>192</title>
<polygon fill="white" stroke="black" points="1161.25,-555.5 1064.75,-555.5 1064.75,-458.5 1161.25,-458.5 1161.25,-555.5"/>
<polygon fill="none" stroke="black" points="1076,-488 1076,-525 1151,-525 1151,-488 1076,-488"/>
<text text-anchor="start" x="1079.5" y="-510.3" font-family="Times,serif" font-size="14.00">Daughter</text>
<text text-anchor="start" x="1088.5" y="-495.3" font-family="Times,serif" font-size="14.00">???&#45;???</text>
<polygon fill="none" stroke="black" points="1072.5,-485.5 1072.5,-528.5 1153.5,-528.5 1153.5,-485.5 1072.5,-485.5"/>
</g>
<!-- 194 -->
<g id="node18" class="node"><title>194</title>
<polygon fill="white" stroke="black" points="931.25,-555.5 834.75,-555.5 834.75,-458.5 931.25,-458.5 931.25,-555.5"/>
<polygon fill="none" stroke="black" points="846,-488 846,-525 921,-525 921,-488 846,-488"/>
<text text-anchor="start" x="849.5" y="-510.3" font-family="Times,serif" font-size="14.00">Daughter</text>
<text text-anchor="start" x="858.5" y="-495.3" font-family="Times,serif" font-size="14.00">???&#45;???</text>
<polygon fill="none" stroke="black" points="842.5,-485.5 842.5,-528.5 923.5,-528.5 923.5,-485.5 842.5,-485.5"/>
</g>
<!-- 196 -->
<g id="node19" class="node"><title>196</title>
<polygon fill="white" stroke="black" points="1046.25,-555.5 949.75,-555.5 949.75,-458.5 1046.25,-458.5 1046.25,-555.5"/>
<polygon fill="none" stroke="black" points="961,-488 961,-525 1036,-525 1036,-488 961,-488"/>
<text text-anchor="start" x="964.5" y="-510.3" font-family="Times,serif" font-size="14.00">Daughter</text>
<text text-anchor="start" x="973.5" y="-495.3" font-family="Times,serif" font-size="14.00">???&#45;???</text>
<polygon fill="none" stroke="black" points="957.5,-485.5 957.5,-528.5 1038.5,-528.5 1038.5,-485.5 957.5,-485.5"/>
</g>
<!-- 1 -->
<g id="node20" class="node"><title>1</title>
<g id="a_node20"><a xlink:href="http://awoiaf.westeros.org/index.php/Eddard_Stark" xlink:title="&lt;TABLE&gt;" target="_blank">
<polygon fill="white" stroke="black" points="1321,-351 1195,-351 1195,-225 1321,-225 1321,-351"/>
</a>
</g>
<g id="a_node20_19"><a xlink:href="/character/display?id=Eddard_Stark" xlink:title="&lt;TABLE&gt;" target="_blank">
<polygon fill="none" stroke="black" points="1206,-269 1206,-306 1310,-306 1310,-269 1206,-269"/>
<text text-anchor="start" x="1209.5" y="-291.3" font-family="Times,serif" font-size="14.00">Eddard Stark</text>
<text text-anchor="start" x="1228.5" y="-276.3" font-family="Times,serif" font-size="14.00">263&#45;299</text>
<polygon fill="none" stroke="black" points="1203,-266.5 1203,-309.5 1313,-309.5 1313,-266.5 1203,-266.5"/>
</a>
</g>
<g><a xlink:href="http://awoiaf.westeros.org/index.php/Eddard_Stark" xlink:title="&lt;TABLE&gt;" target="_blank">
</a>
</g>
</g>
<!-- 1+2 -->
<g id="node46" class="node"><title>1+2</title>
<ellipse fill="black" stroke="black" cx="992" cy="-172" rx="1.8" ry="1.8"/>
</g>
<!-- 1&#45;&gt;1+2 -->
<g id="edge15" class="edge"><title>1&#45;&gt;1+2</title>
<path fill="none" stroke="black" d="M1207.02,-224.768C1200.42,-219.153 1193.37,-214.064 1186,-210 1114.53,-170.612 1008.27,-172.481 993.682,-172.939"/>
</g>
<!-- 1+9 -->
<g id="node47" class="node"><title>1+9</title>
<ellipse fill="black" stroke="black" cx="1406" cy="-172" rx="1.8" ry="1.8"/>
</g>
<!-- 1&#45;&gt;1+9 -->
<g id="edge17" class="edge"><title>1&#45;&gt;1+9</title>
<path fill="none" stroke="black" stroke-dasharray="5,2" d="M1312.28,-224.724C1318.01,-219.462 1323.96,-214.457 1330,-210 1357.39,-189.777 1397.55,-175.821 1404.84,-173.381"/>
</g>
<!-- 14 -->
<g id="node21" class="node"><title>14</title>
<g id="a_node21"><a xlink:href="http://awoiaf.westeros.org/index.php/Lyanna_Stark" xlink:title="&lt;TABLE&gt;" target="_blank">
<polygon fill="white" stroke="black" points="1177,-351 1051,-351 1051,-225 1177,-225 1177,-351"/>
</a>
</g>
<g id="a_node21_20"><a xlink:href="/character/display?id=Lyanna_Stark" xlink:title="&lt;TABLE&gt;" target="_blank">
<polygon fill="none" stroke="black" points="1062,-269 1062,-306 1166,-306 1166,-269 1062,-269"/>
<text text-anchor="start" x="1065.5" y="-291.3" font-family="Times,serif" font-size="14.00">Lyanna Stark</text>
<text text-anchor="start" x="1084.5" y="-276.3" font-family="Times,serif" font-size="14.00">266&#45;283</text>
<polygon fill="none" stroke="black" points="1059,-266.5 1059,-309.5 1169,-309.5 1169,-266.5 1059,-266.5"/>
</a>
</g>
<g><a xlink:href="http://awoiaf.westeros.org/index.php/Lyanna_Stark" xlink:title="&lt;TABLE&gt;" target="_blank">
</a>
</g>
</g>
<!-- 15 -->
<g id="node22" class="node"><title>15</title>
<g id="a_node22"><a xlink:href="http://awoiaf.westeros.org/index.php/Benjen_Stark" xlink:title="&lt;TABLE&gt;" target="_blank">
<polygon fill="white" stroke="black" points="736.25,-349.5 613.75,-349.5 613.75,-226.5 736.25,-226.5 736.25,-349.5"/>
</a>
</g>
<g id="a_node22_21"><a xlink:href="/character/display?id=Benjen_Stark" xlink:title="&lt;TABLE&gt;" target="_blank">
<polygon fill="none" stroke="black" points="625,-269 625,-306 726,-306 726,-269 625,-269"/>
<text text-anchor="start" x="628.5" y="-291.3" font-family="Times,serif" font-size="14.00">Benjen Stark</text>
<text text-anchor="start" x="659.5" y="-276.3" font-family="Times,serif" font-size="14.00">267&#45;</text>
<polygon fill="none" stroke="black" points="621.5,-266.5 621.5,-309.5 728.5,-309.5 728.5,-266.5 621.5,-266.5"/>
</a>
</g>
<g><a xlink:href="http://awoiaf.westeros.org/index.php/Benjen_Stark" xlink:title="&lt;TABLE&gt;" target="_blank">
</a>
</g>
</g>
<!-- 16 -->
<g id="node23" class="node"><title>16</title>
<g id="a_node23"><a xlink:href="http://awoiaf.westeros.org/index.php/Brandon_Stark" xlink:title="&lt;TABLE&gt;" target="_blank">
<polygon fill="white" stroke="black" points="889,-355 755,-355 755,-221 889,-221 889,-355"/>
</a>
</g>
<g id="a_node23_22"><a xlink:href="/character/display?id=Brandon_Stark" xlink:title="&lt;TABLE&gt;" target="_blank">
<polygon fill="none" stroke="black" points="766,-269 766,-306 878,-306 878,-269 766,-269"/>
<text text-anchor="start" x="769.5" y="-291.3" font-family="Times,serif" font-size="14.00">Brandon Stark</text>
<text text-anchor="start" x="792.5" y="-276.3" font-family="Times,serif" font-size="14.00">262&#45;282</text>
<polygon fill="none" stroke="black" points="763,-266.5 763,-309.5 881,-309.5 881,-266.5 763,-266.5"/>
</a>
</g>
<g><a xlink:href="http://awoiaf.westeros.org/index.php/Brandon_Stark" xlink:title="&lt;TABLE&gt;" target="_blank">
</a>
</g>
</g>
<!-- 3 -->
<g id="node24" class="node"><title>3</title>
<g id="a_node24"><a xlink:href="http://awoiaf.westeros.org/index.php/Robb_Stark" xlink:title="&lt;TABLE&gt;" target="_blank">
<polygon fill="white" stroke="black" points="1329,-122 1219,-122 1219,-12 1329,-12 1329,-122"/>
</a>
</g>
<g id="a_node24_23"><a xlink:href="/character/display?id=Robb_Stark" xlink:title="&lt;TABLE&gt;" target="_blank">
<polygon fill="none" stroke="black" points="1230,-48 1230,-85 1318,-85 1318,-48 1230,-48"/>
<text text-anchor="start" x="1233.5" y="-70.3" font-family="Times,serif" font-size="14.00">Robb Stark</text>
<text text-anchor="start" x="1244.5" y="-55.3" font-family="Times,serif" font-size="14.00">283&#45;299</text>
<polygon fill="none" stroke="black" points="1227,-45.5 1227,-88.5 1321,-88.5 1321,-45.5 1227,-45.5"/>
</a>
</g>
<g><a xlink:href="http://awoiaf.westeros.org/index.php/Robb_Stark" xlink:title="&lt;TABLE&gt;" target="_blank">
</a>
</g>
</g>
<!-- 4 -->
<g id="node25" class="node"><title>4</title>
<g id="a_node25"><a xlink:href="http://awoiaf.westeros.org/index.php/Sansa_Stark" xlink:title="&lt;TABLE&gt;" target="_blank">
<polygon fill="white" stroke="black" points="781.25,-124.5 666.75,-124.5 666.75,-9.5 781.25,-9.5 781.25,-124.5"/>
</a>
</g>
<g id="a_node25_24"><a xlink:href="/character/display?id=Sansa_Stark" xlink:title="&lt;TABLE&gt;" target="_blank">
<polygon fill="none" stroke="black" points="678,-48 678,-85 771,-85 771,-48 678,-48"/>
<text text-anchor="start" x="681.5" y="-70.3" font-family="Times,serif" font-size="14.00">Sansa Stark</text>
<text text-anchor="start" x="708.5" y="-55.3" font-family="Times,serif" font-size="14.00">286&#45;</text>
<polygon fill="none" stroke="black" points="674.5,-45.5 674.5,-88.5 773.5,-88.5 773.5,-45.5 674.5,-45.5"/>
</a>
</g>
<g><a xlink:href="http://awoiaf.westeros.org/index.php/Sansa_Stark" xlink:title="&lt;TABLE&gt;" target="_blank">
</a>
</g>
</g>
<!-- 5 -->
<g id="node26" class="node"><title>5</title>
<g id="a_node26"><a xlink:href="http://awoiaf.westeros.org/index.php/Arya_Stark" xlink:title="&lt;TABLE&gt;" target="_blank">
<polygon fill="white" stroke="black" points="906.25,-120.5 799.75,-120.5 799.75,-13.5 906.25,-13.5 906.25,-120.5"/>
</a>
</g>
<g id="a_node26_25"><a xlink:href="/character/display?id=Arya_Stark" xlink:title="&lt;TABLE&gt;" target="_blank">
<polygon fill="none" stroke="black" points="811,-48 811,-85 896,-85 896,-48 811,-48"/>
<text text-anchor="start" x="814.5" y="-70.3" font-family="Times,serif" font-size="14.00">Arya Stark</text>
<text text-anchor="start" x="837.5" y="-55.3" font-family="Times,serif" font-size="14.00">289&#45;</text>
<polygon fill="none" stroke="black" points="807.5,-45.5 807.5,-88.5 898.5,-88.5 898.5,-45.5 807.5,-45.5"/>
</a>
</g>
<g><a xlink:href="http://awoiaf.westeros.org/index.php/Arya_Stark" xlink:title="&lt;TABLE&gt;" target="_blank">
</a>
</g>
</g>
<!-- 6 -->
<g id="node27" class="node"><title>6</title>
<g id="a_node27"><a xlink:href="http://awoiaf.westeros.org/index.php/Bran_Stark" xlink:title="&lt;TABLE&gt;" target="_blank">
<polygon fill="white" stroke="black" points="1059,-134 925,-134 925,-0 1059,-0 1059,-134"/>
</a>
</g>
<g id="a_node27_26"><a xlink:href="/character/display?id=Bran_Stark" xlink:title="&lt;TABLE&gt;" target="_blank">
<polygon fill="none" stroke="black" points="936,-48 936,-85 1048,-85 1048,-48 936,-48"/>
<text text-anchor="start" x="939.5" y="-70.3" font-family="Times,serif" font-size="14.00">Brandon Stark</text>
<text text-anchor="start" x="976" y="-55.3" font-family="Times,serif" font-size="14.00">290&#45;</text>
<polygon fill="none" stroke="black" points="933,-45.5 933,-88.5 1051,-88.5 1051,-45.5 933,-45.5"/>
</a>
</g>
<g><a xlink:href="http://awoiaf.westeros.org/index.php/Bran_Stark" xlink:title="&lt;TABLE&gt;" target="_blank">
</a>
</g>
</g>
<!-- 7 -->
<g id="node28" class="node"><title>7</title>
<g id="a_node28"><a xlink:href="http://awoiaf.westeros.org/index.php/Rickon_Stark" xlink:title="&lt;TABLE&gt;" target="_blank">
<polygon fill="white" stroke="black" points="1200.25,-128.5 1077.75,-128.5 1077.75,-5.5 1200.25,-5.5 1200.25,-128.5"/>
</a>
</g>
<g id="a_node28_27"><a xlink:href="/character/display?id=Rickon_Stark" xlink:title="&lt;TABLE&gt;" target="_blank">
<polygon fill="none" stroke="black" points="1089,-48 1089,-85 1190,-85 1190,-48 1089,-48"/>
<text text-anchor="start" x="1092.5" y="-70.3" font-family="Times,serif" font-size="14.00">Rickon Stark</text>
<text text-anchor="start" x="1123.5" y="-55.3" font-family="Times,serif" font-size="14.00">295&#45;</text>
<polygon fill="none" stroke="black" points="1085.5,-45.5 1085.5,-88.5 1192.5,-88.5 1192.5,-45.5 1085.5,-45.5"/>
</a>
</g>
<g><a xlink:href="http://awoiaf.westeros.org/index.php/Rickon_Stark" xlink:title="&lt;TABLE&gt;" target="_blank">
</a>
</g>
</g>
<!-- 8 -->
<g id="node29" class="node"><title>8</title>
<g id="a_node29"><a xlink:href="http://awoiaf.westeros.org/index.php/Jon_Snow" xlink:title="&lt;TABLE&gt;" target="_blank">
<polygon fill="white" stroke="black" points="1454,-115 1358,-115 1358,-19 1454,-19 1454,-115"/>
</a>
</g>
<g id="a_node29_28"><a xlink:href="/character/display?id=Jon_Snow" xlink:title="&lt;TABLE&gt;" target="_blank">
<polygon fill="none" stroke="black" points="1369,-48 1369,-85 1443,-85 1443,-48 1369,-48"/>
<text text-anchor="start" x="1372.5" y="-70.3" font-family="Times,serif" font-size="14.00">Jon Snow</text>
<text text-anchor="start" x="1390" y="-55.3" font-family="Times,serif" font-size="14.00">283&#45;</text>
<polygon fill="none" stroke="black" points="1366,-45.5 1366,-88.5 1446,-88.5 1446,-45.5 1366,-45.5"/>
</a>
</g>
<g><a xlink:href="http://awoiaf.westeros.org/index.php/Jon_Snow" xlink:title="&lt;TABLE&gt;" target="_blank">
</a>
</g>
</g>
<!-- 181 -->
<g id="node30" class="node"><title>181</title>
<g id="a_node30"><a xlink:href="http://awoiaf.westeros.org/index.php/Lorra_Royce" xlink:title="&lt;TABLE&gt;" target="_blank">
<polygon fill="white" stroke="black" points="778.25,-1357.5 661.75,-1357.5 661.75,-1240.5 778.25,-1240.5 778.25,-1357.5"/>
</a>
</g>
<g id="a_node30_29"><a xlink:href="/character/display?id=Lorra_Royce" xlink:title="&lt;TABLE&gt;" target="_blank">
<polygon fill="none" stroke="black" points="673,-1280 673,-1317 768,-1317 768,-1280 673,-1280"/>
<text text-anchor="start" x="676.5" y="-1302.3" font-family="Times,serif" font-size="14.00">Lorra Royce</text>
<text text-anchor="start" x="695.5" y="-1287.3" font-family="Times,serif" font-size="14.00">???&#45;???</text>
<polygon fill="none" stroke="black" points="669.5,-1277.5 669.5,-1320.5 770.5,-1320.5 770.5,-1277.5 669.5,-1277.5"/>
</a>
</g>
<g><a xlink:href="http://awoiaf.westeros.org/index.php/Lorra_Royce" xlink:title="&lt;TABLE&gt;" target="_blank">
</a>
</g>
</g>
<!-- 181&#45;&gt;180+181 -->
<g id="edge2" class="edge"><title>181&#45;&gt;180+181</title>
<path fill="none" stroke="black" d="M678.68,-1240.27C666.221,-1222.87 655.138,-1207.38 652.562,-1203.79"/>
</g>
<!-- 185 -->
<g id="node31" class="node"><title>185</title>
<g id="a_node31"><a xlink:href="http://awoiaf.westeros.org/index.php/Lyanne_Glover" xlink:title="&lt;TABLE&gt;" target="_blank">
<polygon fill="white" stroke="black" points="428,-1141 294,-1141 294,-1007 428,-1007 428,-1141"/>
</a>
</g>
<g id="a_node31_30"><a xlink:href="/character/display?id=Lyanne_Glover" xlink:title="&lt;TABLE&gt;" target="_blank">
<polygon fill="none" stroke="black" points="305,-1055 305,-1092 417,-1092 417,-1055 305,-1055"/>
<text text-anchor="start" x="308.5" y="-1077.3" font-family="Times,serif" font-size="14.00">Lyanne Glover</text>
<text text-anchor="start" x="336" y="-1062.3" font-family="Times,serif" font-size="14.00">???&#45;???</text>
<polygon fill="none" stroke="black" points="302,-1052.5 302,-1095.5 420,-1095.5 420,-1052.5 302,-1052.5"/>
</a>
</g>
<g><a xlink:href="http://awoiaf.westeros.org/index.php/Lyanne_Glover" xlink:title="&lt;TABLE&gt;" target="_blank">
</a>
</g>
</g>
<!-- 185&#45;&gt;184+185 -->
<g id="edge4" class="edge"><title>185&#45;&gt;184+185</title>
<path fill="none" stroke="black" d="M371.527,-1006.68C375.743,-980.118 379.834,-954.347 380.791,-948.319"/>
</g>
<!-- 187 -->
<g id="node32" class="node"><title>187</title>
<g id="a_node32"><a xlink:href="http://awoiaf.westeros.org/index.php/Melantha_Blackwood" xlink:title="&lt;TABLE&gt;" target="_blank">
<polygon fill="white" stroke="black" points="912,-1164 732,-1164 732,-984 912,-984 912,-1164"/>
</a>
</g>
<g id="a_node32_31"><a xlink:href="/character/display?id=Melantha_Blackwood" xlink:title="&lt;TABLE&gt;" target="_blank">
<polygon fill="none" stroke="black" points="743,-1055 743,-1092 901,-1092 901,-1055 743,-1055"/>
<text text-anchor="start" x="746.5" y="-1077.3" font-family="Times,serif" font-size="14.00">Melantha Blackwood</text>
<text text-anchor="start" x="797" y="-1062.3" font-family="Times,serif" font-size="14.00">???&#45;???</text>
<polygon fill="none" stroke="black" points="740,-1052.5 740,-1095.5 904,-1095.5 904,-1052.5 740,-1052.5"/>
</a>
</g>
<g><a xlink:href="http://awoiaf.westeros.org/index.php/Melantha_Blackwood" xlink:title="&lt;TABLE&gt;" target="_blank">
</a>
</g>
</g>
<!-- 187&#45;&gt;184+187 -->
<g id="edge6" class="edge"><title>187&#45;&gt;184+187</title>
<path fill="none" stroke="black" d="M759.69,-983.783C747.048,-965.682 736.861,-951.096 734.511,-947.732"/>
</g>
<!-- 199 -->
<g id="node33" class="node"><title>199</title>
<g id="a_node33"><a xlink:href="http://awoiaf.westeros.org/index.php/Lysara_Karstark" xlink:title="&lt;TABLE&gt;" target="_blank">
<polygon fill="white" stroke="black" points="1336,-1147 1190,-1147 1190,-1001 1336,-1001 1336,-1147"/>
</a>
</g>
<g id="a_node33_32"><a xlink:href="/character/display?id=Lysara_Karstark" xlink:title="&lt;TABLE&gt;" target="_blank">
<polygon fill="none" stroke="black" points="1201,-1055 1201,-1092 1325,-1092 1325,-1055 1201,-1055"/>
<text text-anchor="start" x="1204.5" y="-1077.3" font-family="Times,serif" font-size="14.00">Lysara Karstark</text>
<text text-anchor="start" x="1238" y="-1062.3" font-family="Times,serif" font-size="14.00">???&#45;???</text>
<polygon fill="none" stroke="black" points="1198,-1052.5 1198,-1095.5 1328,-1095.5 1328,-1052.5 1198,-1052.5"/>
</a>
</g>
<g><a xlink:href="http://awoiaf.westeros.org/index.php/Lysara_Karstark" xlink:title="&lt;TABLE&gt;" target="_blank">
</a>
</g>
</g>
<!-- 199&#45;&gt;198+199 -->
<g id="edge8" class="edge"><title>199&#45;&gt;198+199</title>
<path fill="none" stroke="black" d="M1322.28,-1000.81C1329.47,-994.543 1337.09,-988.778 1345,-984 1395.45,-953.536 1471.01,-947.795 1482.51,-947.084"/>
</g>
<!-- 206 -->
<g id="node34" class="node"><title>206</title>
<g id="a_node34"><a xlink:href="http://awoiaf.westeros.org/index.php/Arya_Flint" xlink:title="&lt;TABLE&gt;" target="_blank">
<polygon fill="white" stroke="black" points="1031.5,-1125 930.5,-1125 930.5,-1023 1031.5,-1023 1031.5,-1125"/>
</a>
</g>
<g id="a_node34_33"><a xlink:href="/character/display?id=Arya_Flint" xlink:title="&lt;TABLE&gt;" target="_blank">
<polygon fill="none" stroke="black" points="941,-1055 941,-1092 1021,-1092 1021,-1055 941,-1055"/>
<text text-anchor="start" x="944.5" y="-1077.3" font-family="Times,serif" font-size="14.00">Arya Flint</text>
<text text-anchor="start" x="956" y="-1062.3" font-family="Times,serif" font-size="14.00">???&#45;???</text>
<polygon fill="none" stroke="black" points="938,-1052.5 938,-1095.5 1024,-1095.5 1024,-1052.5 938,-1052.5"/>
</a>
</g>
<g><a xlink:href="http://awoiaf.westeros.org/index.php/Arya_Flint" xlink:title="&lt;TABLE&gt;" target="_blank">
</a>
</g>
</g>
<!-- 206&#45;&gt;205+206 -->
<g id="edge10" class="edge"><title>206&#45;&gt;205+206</title>
<path fill="none" stroke="black" d="M1006.88,-1022.84C1023.3,-990.996 1042.09,-954.583 1045.47,-948.035"/>
</g>
<!-- 189 -->
<g id="node35" class="node"><title>189</title>
<g id="a_node35"><a xlink:href="http://awoiaf.westeros.org/index.php/Marna_Locke" xlink:title="&lt;TABLE&gt;" target="_blank">
<polygon fill="white" stroke="black" points="777.25,-899.5 652.75,-899.5 652.75,-774.5 777.25,-774.5 777.25,-899.5"/>
</a>
</g>
<g id="a_node35_34"><a xlink:href="/character/display?id=Marna_Locke" xlink:title="&lt;TABLE&gt;" target="_blank">
<polygon fill="none" stroke="black" points="664,-818 664,-855 767,-855 767,-818 664,-818"/>
<text text-anchor="start" x="667.5" y="-840.3" font-family="Times,serif" font-size="14.00">Marna Locke</text>
<text text-anchor="start" x="690.5" y="-825.3" font-family="Times,serif" font-size="14.00">???&#45;???</text>
<polygon fill="none" stroke="black" points="660.5,-815.5 660.5,-858.5 769.5,-858.5 769.5,-815.5 660.5,-815.5"/>
</a>
</g>
<g><a xlink:href="http://awoiaf.westeros.org/index.php/Marna_Locke" xlink:title="&lt;TABLE&gt;" target="_blank">
</a>
</g>
</g>
<!-- 189&#45;&gt;188+189 -->
<g id="edge12" class="edge"><title>189&#45;&gt;188+189</title>
<path fill="none" stroke="black" d="M715,-774.188C715,-730.679 715,-678.845 715,-671.012"/>
</g>
<!-- 191 -->
<g id="node36" class="node"><title>191</title>
<g id="a_node36"><a xlink:href="http://awoiaf.westeros.org/index.php/Benedict_Royce" xlink:title="&lt;TABLE&gt;" target="_blank">
<polygon fill="white" stroke="black" points="1224.25,-907.5 1083.75,-907.5 1083.75,-766.5 1224.25,-766.5 1224.25,-907.5"/>
</a>
</g>
<g id="a_node36_35"><a xlink:href="/character/display?id=Benedict_Royce" xlink:title="&lt;TABLE&gt;" target="_blank">
<polygon fill="none" stroke="black" points="1095,-818 1095,-855 1214,-855 1214,-818 1095,-818"/>
<text text-anchor="start" x="1098.5" y="-840.3" font-family="Times,serif" font-size="14.00">Benedict Royce</text>
<text text-anchor="start" x="1129.5" y="-825.3" font-family="Times,serif" font-size="14.00">???&#45;???</text>
<polygon fill="none" stroke="black" points="1091.5,-815.5 1091.5,-858.5 1216.5,-858.5 1216.5,-815.5 1091.5,-815.5"/>
</a>
</g>
<g><a xlink:href="http://awoiaf.westeros.org/index.php/Benedict_Royce" xlink:title="&lt;TABLE&gt;" target="_blank">
</a>
</g>
</g>
<!-- 191&#45;&gt;191+190 -->
<g id="edge19" class="edge"><title>191&#45;&gt;191+190</title>
<path fill="none" stroke="black" d="M1088.29,-766.082C1048.99,-724.26 1005.42,-677.892 998.848,-670.902"/>
</g>
<!-- 2 -->
<g id="node37" class="node"><title>2</title>
<g id="a_node37"><a xlink:href="http://awoiaf.westeros.org/index.php/Catelyn_Stark" xlink:title="&lt;TABLE&gt;" target="_blank">
<polygon fill="white" stroke="black" points="1032.25,-350.5 907.75,-350.5 907.75,-225.5 1032.25,-225.5 1032.25,-350.5"/>
</a>
</g>
<g id="a_node37_36"><a xlink:href="/character/display?id=Catelyn_Stark" xlink:title="&lt;TABLE&gt;" target="_blank">
<polygon fill="none" stroke="black" points="919,-269 919,-306 1022,-306 1022,-269 919,-269"/>
<text text-anchor="start" x="922.5" y="-291.3" font-family="Times,serif" font-size="14.00">Catelyn Tully</text>
<text text-anchor="start" x="941" y="-276.3" font-family="Times,serif" font-size="14.00">264&#45;299</text>
<polygon fill="none" stroke="black" points="915.5,-266.5 915.5,-309.5 1024.5,-309.5 1024.5,-266.5 915.5,-266.5"/>
</a>
</g>
<g><a xlink:href="http://awoiaf.westeros.org/index.php/Catelyn_Stark" xlink:title="&lt;TABLE&gt;" target="_blank">
</a>
</g>
</g>
<!-- 2&#45;&gt;1+2 -->
<g id="edge16" class="edge"><title>2&#45;&gt;1+2</title>
<path fill="none" stroke="black" d="M981.901,-225.329C986.437,-201.826 990.767,-179.389 991.779,-174.147"/>
</g>
<!-- 9 -->
<g id="node38" class="node"><title>9</title>
<polygon fill="white" stroke="black" points="1494.25,-365.5 1339.75,-365.5 1339.75,-210.5 1494.25,-210.5 1494.25,-365.5"/>
<polygon fill="none" stroke="black" points="1351,-269 1351,-306 1484,-306 1484,-269 1351,-269"/>
<text text-anchor="start" x="1354.5" y="-291.3" font-family="Times,serif" font-size="14.00">Unknown Woman</text>
<text text-anchor="start" x="1392.5" y="-276.3" font-family="Times,serif" font-size="14.00">???&#45;???</text>
<polygon fill="none" stroke="black" points="1347.5,-266.5 1347.5,-309.5 1486.5,-309.5 1486.5,-266.5 1347.5,-266.5"/>
</g>
<!-- 9&#45;&gt;1+9 -->
<g id="edge18" class="edge"><title>9&#45;&gt;1+9</title>
<path fill="none" stroke="black" stroke-dasharray="5,2" d="M1409.6,-210.328C1407.89,-192.606 1406.46,-177.776 1406.09,-173.956"/>
</g>
<!-- 180+181&#45;&gt;183 -->
<g id="edge21" class="edge"><title>180+181&#45;&gt;183</title>
<path fill="none" stroke="black" d="M650.518,-1200.49C642.685,-1197.74 605.532,-1184.06 581,-1164 571.461,-1156.2 562.32,-1146.96 553.943,-1137.43"/>
</g>
<!-- 180+181&#45;&gt;184 -->
<g id="edge22" class="edge"><title>180+181&#45;&gt;184</title>
<path fill="none" stroke="black" d="M652,-1200.2C652,-1194.96 652,-1164.98 652,-1135.68"/>
</g>
<!-- 180+181&#45;&gt;198 -->
<g id="edge23" class="edge"><title>180+181&#45;&gt;198</title>
<path fill="none" stroke="black" d="M653.658,-1201.01C692.629,-1201.32 1406.33,-1206.34 1486,-1164 1500.61,-1156.24 1512.85,-1143.64 1522.67,-1130.34"/>
</g>
<!-- 180+181&#45;&gt;202 -->
<g id="edge24" class="edge"><title>180+181&#45;&gt;202</title>
<path fill="none" stroke="black" d="M653.793,-1200.99C690.485,-1200.86 1278.58,-1198.19 1345,-1164 1357.83,-1157.4 1369.11,-1147.32 1378.69,-1136.29"/>
</g>
<!-- 180+181&#45;&gt;203 -->
<g id="edge25" class="edge"><title>180+181&#45;&gt;203</title>
<path fill="none" stroke="black" d="M650.352,-1200.96C620.533,-1200.15 195.589,-1188.2 147,-1164 136.518,-1158.78 126.836,-1151.47 118.119,-1143.26"/>
</g>
<!-- 180+181&#45;&gt;204 -->
<g id="edge26" class="edge"><title>180+181&#45;&gt;204</title>
<path fill="none" stroke="black" d="M650.406,-1201.01C627.036,-1201.16 353.621,-1202.01 285,-1164 271.66,-1156.61 260.044,-1145.46 250.339,-1133.53"/>
</g>
<!-- 180+181&#45;&gt;205 -->
<g id="edge27" class="edge"><title>180+181&#45;&gt;205</title>
<path fill="none" stroke="black" d="M653.684,-1201.02C678.363,-1201.28 967.107,-1203.47 1040,-1164 1053.21,-1156.85 1064.83,-1146.1 1074.65,-1134.52"/>
</g>
<!-- 184+185&#45;&gt;186 -->
<g id="edge28" class="edge"><title>184+185&#45;&gt;186</title>
<path fill="none" stroke="black" d="M381,-943.798C381,-939.298 381,-922.739 381,-904.013"/>
</g>
<!-- 184+187&#45;&gt;188 -->
<g id="edge29" class="edge"><title>184+187&#45;&gt;188</title>
<path fill="none" stroke="black" d="M732.624,-944.656C723.948,-942.446 676.123,-929.642 643,-908 639.351,-905.616 635.729,-903.03 632.162,-900.304"/>
</g>
<!-- 184+187&#45;&gt;190 -->
<g id="edge30" class="edge"><title>184+187&#45;&gt;190</title>
<path fill="none" stroke="black" d="M735.338,-944.152C741.408,-940.284 766.881,-923.825 786,-908 789.246,-905.313 792.525,-902.514 795.803,-899.649"/>
</g>
<!-- 198+199&#45;&gt;200 -->
<g id="edge31" class="edge"><title>198+199&#45;&gt;200</title>
<path fill="none" stroke="black" d="M1484.83,-943.798C1487.94,-939.298 1499.4,-922.739 1512.35,-904.013"/>
</g>
<!-- 198+199&#45;&gt;201 -->
<g id="edge32" class="edge"><title>198+199&#45;&gt;201</title>
<path fill="none" stroke="black" d="M1483.18,-943.798C1479.81,-938.862 1466.55,-919.416 1452.29,-898.516"/>
</g>
<!-- 205+206&#45;&gt;11 -->
<g id="edge33" class="edge"><title>205+206&#45;&gt;11</title>
<path fill="none" stroke="black" d="M1047.79,-944.936C1065.39,-944.268 1206.96,-937.987 1233,-908 1274.98,-859.647 1270.96,-782.784 1261.21,-729.548"/>
</g>
<!-- 205+206&#45;&gt;207 -->
<g id="edge34" class="edge"><title>205+206&#45;&gt;207</title>
<path fill="none" stroke="black" d="M1045.52,-943.798C1043.57,-938.954 1036.01,-920.134 1027.79,-899.681"/>
</g>
<!-- 188+189&#45;&gt;10 -->
<g id="edge35" class="edge"><title>188+189&#45;&gt;10</title>
<path fill="none" stroke="black" d="M715.16,-666.978C716.324,-659.526 723.644,-612.679 730.039,-571.753"/>
</g>
<!-- 10+11&#45;&gt;1 -->
<g id="edge39" class="edge"><title>10+11&#45;&gt;1</title>
<path fill="none" stroke="black" d="M969.888,-403.119C986.264,-404.066 1105.54,-409.283 1186,-366 1193.58,-361.925 1200.8,-356.751 1207.54,-351.019"/>
</g>
<!-- 10+11&#45;&gt;14 -->
<g id="edge40" class="edge"><title>10+11&#45;&gt;14</title>
<path fill="none" stroke="black" d="M969.497,-402.464C977.414,-399.584 1015.03,-385.362 1041,-366 1047.06,-361.486 1053.04,-356.443 1058.83,-351.156"/>
</g>
<!-- 10+11&#45;&gt;15 -->
<g id="edge41" class="edge"><title>10+11&#45;&gt;15</title>
<path fill="none" stroke="black" d="M966.075,-403.133C949.383,-404.198 827.809,-410.219 746,-366 737.842,-361.59 730.116,-355.882 722.975,-349.567"/>
</g>
<!-- 10+11&#45;&gt;16 -->
<g id="edge42" class="edge"><title>10+11&#45;&gt;16</title>
<path fill="none" stroke="black" d="M966.574,-402.44C959.028,-399.438 923.155,-384.694 898,-366 893.477,-362.639 888.971,-359.008 884.539,-355.217"/>
</g>
<!-- 1+2&#45;&gt;3 -->
<g id="edge43" class="edge"><title>1+2&#45;&gt;3</title>
<path fill="none" stroke="black" d="M993.872,-171.101C1010.1,-171.897 1128.36,-176.079 1209,-134 1215.27,-130.726 1221.31,-126.628 1227.01,-122.086"/>
</g>
<!-- 1+2&#45;&gt;4 -->
<g id="edge44" class="edge"><title>1+2&#45;&gt;4</title>
<path fill="none" stroke="black" d="M990.259,-171.062C975.158,-171.525 865.136,-173.43 790,-134 784.978,-131.364 780.095,-128.216 775.408,-124.744"/>
</g>
<!-- 1+2&#45;&gt;5 -->
<g id="edge45" class="edge"><title>1+2&#45;&gt;5</title>
<path fill="none" stroke="black" d="M990.846,-170.615C983.573,-168.153 943.493,-154.082 916,-134 910.5,-129.982 905.07,-125.452 899.841,-120.695"/>
</g>
<!-- 1+2&#45;&gt;6 -->
<g id="edge46" class="edge"><title>1+2&#45;&gt;6</title>
<path fill="none" stroke="black" d="M992,-169.843C992,-165.71 992,-151.011 992,-134.015"/>
</g>
<!-- 1+2&#45;&gt;7 -->
<g id="edge47" class="edge"><title>1+2&#45;&gt;7</title>
<path fill="none" stroke="black" d="M993.138,-170.593C1000.32,-167.997 1039.92,-153.252 1068,-134 1071.19,-131.811 1074.38,-129.483 1077.55,-127.058"/>
</g>
<!-- 1+9&#45;&gt;8 -->
<g id="edge48" class="edge"><title>1+9&#45;&gt;8</title>
<path fill="none" stroke="black" stroke-dasharray="5,2" d="M1406,-169.843C1406,-164.23 1406,-139.121 1406,-115.242"/>
</g>
<!-- 191+190&#45;&gt;192 -->
<g id="edge36" class="edge"><title>191+190&#45;&gt;192</title>
<path fill="none" stroke="black" d="M998.734,-666.978C1004.82,-658.515 1047.42,-599.238 1078.84,-555.532"/>
</g>
<!-- 191+190&#45;&gt;194 -->
<g id="edge37" class="edge"><title>191+190&#45;&gt;194</title>
<path fill="none" stroke="black" d="M997.266,-666.978C991.183,-658.515 948.577,-599.238 917.163,-555.532"/>
</g>
<!-- 191+190&#45;&gt;196 -->
<g id="edge38" class="edge"><title>191+190&#45;&gt;196</title>
<path fill="none" stroke="black" d="M998,-666.978C998,-658.515 998,-599.238 998,-555.532"/>
</g>
</g>
</svg>
