<?xml version="1.0" encoding="UTF-8" standalone="no"?>
<!DOCTYPE svg PUBLIC "-//W3C//DTD SVG 1.1//EN"
 "http://www.w3.org/Graphics/SVG/1.1/DTD/svg11.dtd">
<!-- Generated by graphviz version 2.36.0 (20140111.2315)
 -->
<!-- Title: family Pages: 1 -->
<svg width="778pt" height="1260pt"
 viewBox="0.00 0.00 778.00 1260.00" xmlns="http://www.w3.org/2000/svg" xmlns:xlink="http://www.w3.org/1999/xlink">
<g id="graph0" class="graph" transform="scale(1 1) rotate(0) translate(4 1256)">
<title>family</title>
<polygon fill="white" stroke="none" points="-4,4 -4,-1256 774,-1256 774,4 -4,4"/>
<!-- 6 -->
<g id="node1" class="node"><title>6</title>
<g id="a_node1"><a xlink:href="http://awoiaf.westeros.org/index.php/Bran_Stark" xlink:title="Brandon Stark\n290&#45;" target="_blank">
<polygon fill="white" stroke="black" points="466.25,-121.5 345.75,-121.5 345.75,-0.5 466.25,-0.5 466.25,-121.5"/>
<text text-anchor="middle" x="406" y="-64.8" font-family="Times,serif" font-size="14.00">Brandon Stark</text>
<text text-anchor="middle" x="406" y="-49.8" font-family="Times,serif" font-size="14.00">290&#45;</text>
</a>
</g>
</g>
<!-- 1 -->
<g id="node2" class="node"><title>1</title>
<g id="a_node2"><a xlink:href="http://awoiaf.westeros.org/index.php/Eddard_Stark" xlink:title="Eddard Stark\n263&#45;299" target="_blank">
<polygon fill="white" stroke="black" points="363.25,-311.5 250.75,-311.5 250.75,-198.5 363.25,-198.5 363.25,-311.5"/>
<text text-anchor="middle" x="307" y="-258.8" font-family="Times,serif" font-size="14.00">Eddard Stark</text>
<text text-anchor="middle" x="307" y="-243.8" font-family="Times,serif" font-size="14.00">263&#45;299</text>
</a>
</g>
</g>
<!-- 1+2 -->
<g id="node18" class="node"><title>1+2</title>
<ellipse fill="black" stroke="black" cx="406" cy="-160" rx="1.8" ry="1.8"/>
</g>
<!-- 1&#45;&gt;1+2 -->
<g id="edge1" class="edge"><title>1&#45;&gt;1+2</title>
<path fill="none" stroke="black" d="M363.441,-200.98C382.894,-182.706 400.888,-165.802 405.083,-161.861"/>
</g>
<!-- 2 -->
<g id="node3" class="node"><title>2</title>
<g id="a_node3"><a xlink:href="http://awoiaf.westeros.org/index.php/Catelyn_Stark" xlink:title="Catelyn Tully\n264&#45;299" target="_blank">
<polygon fill="white" stroke="black" points="561.5,-311 450.5,-311 450.5,-199 561.5,-199 561.5,-311"/>
<text text-anchor="middle" x="506" y="-258.8" font-family="Times,serif" font-size="14.00">Catelyn Tully</text>
<text text-anchor="middle" x="506" y="-243.8" font-family="Times,serif" font-size="14.00">264&#45;299</text>
</a>
</g>
</g>
<!-- 2&#45;&gt;1+2 -->
<g id="edge2" class="edge"><title>2&#45;&gt;1+2</title>
<path fill="none" stroke="black" d="M450.444,-202.333C430.304,-183.603 411.382,-166.005 406.966,-161.898"/>
</g>
<!-- 10 -->
<g id="node4" class="node"><title>10</title>
<g id="a_node4"><a xlink:href="http://awoiaf.westeros.org/index.php/Rickard_Stark" xlink:title="Rickard Stark\n230&#45;282" target="_blank">
<polygon fill="white" stroke="black" points="355.5,-505 240.5,-505 240.5,-389 355.5,-389 355.5,-505"/>
<text text-anchor="middle" x="298" y="-450.8" font-family="Times,serif" font-size="14.00">Rickard Stark</text>
<text text-anchor="middle" x="298" y="-435.8" font-family="Times,serif" font-size="14.00">230&#45;282</text>
</a>
</g>
</g>
<!-- 10+11 -->
<g id="node19" class="node"><title>10+11</title>
<ellipse fill="black" stroke="black" cx="298" cy="-350" rx="1.8" ry="1.8"/>
</g>
<!-- 10&#45;&gt;10+11 -->
<g id="edge3" class="edge"><title>10&#45;&gt;10+11</title>
<path fill="none" stroke="black" d="M298,-388.819C298,-371.529 298,-356.026 298,-352.008"/>
</g>
<!-- 11 -->
<g id="node5" class="node"><title>11</title>
<g id="a_node5"><a xlink:href="http://awoiaf.westeros.org/index.php/Lyarra_Stark" xlink:title="Lyarra Stark\n???&#45;???" target="_blank">
<polygon fill="white" stroke="black" points="239,-650 131,-650 131,-542 239,-542 239,-650"/>
<text text-anchor="middle" x="185" y="-599.8" font-family="Times,serif" font-size="14.00">Lyarra Stark</text>
<text text-anchor="middle" x="185" y="-584.8" font-family="Times,serif" font-size="14.00">???&#45;???</text>
</a>
</g>
</g>
<!-- 11&#45;&gt;10+11 -->
<g id="edge4" class="edge"><title>11&#45;&gt;10+11</title>
<path fill="none" stroke="black" d="M185.058,-541.558C187.674,-496.528 197.693,-432.506 231,-388 249.152,-363.744 288.116,-353.345 296.422,-351.361"/>
</g>
<!-- 12 -->
<g id="node6" class="node"><title>12</title>
<g id="a_node6"><a xlink:href="http://awoiaf.westeros.org/index.php/Hoster_Tully" xlink:title="Hoster Tully\n237&#45;299" target="_blank">
<polygon fill="white" stroke="black" points="566.5,-500 461.5,-500 461.5,-394 566.5,-394 566.5,-500"/>
<text text-anchor="middle" x="514" y="-450.8" font-family="Times,serif" font-size="14.00">Hoster Tully</text>
<text text-anchor="middle" x="514" y="-435.8" font-family="Times,serif" font-size="14.00">237&#45;299</text>
</a>
</g>
</g>
<!-- 12+13 -->
<g id="node20" class="node"><title>12+13</title>
<ellipse fill="black" stroke="black" cx="514" cy="-350" rx="1.8" ry="1.8"/>
</g>
<!-- 12&#45;&gt;12+13 -->
<g id="edge5" class="edge"><title>12&#45;&gt;12+13</title>
<path fill="none" stroke="black" d="M514,-393.776C514,-374.46 514,-356.197 514,-351.933"/>
</g>
<!-- 13 -->
<g id="node7" class="node"><title>13</title>
<g id="a_node7"><a xlink:href="http://awoiaf.westeros.org/index.php/Minisa_Whent" xlink:title="Minisa Whent\n250&#45;268" target="_blank">
<polygon fill="white" stroke="black" points="702.25,-505.5 585.75,-505.5 585.75,-388.5 702.25,-388.5 702.25,-505.5"/>
<text text-anchor="middle" x="644" y="-450.8" font-family="Times,serif" font-size="14.00">Minisa Whent</text>
<text text-anchor="middle" x="644" y="-435.8" font-family="Times,serif" font-size="14.00">250&#45;268</text>
</a>
</g>
</g>
<!-- 13&#45;&gt;12+13 -->
<g id="edge6" class="edge"><title>13&#45;&gt;12+13</title>
<path fill="none" stroke="black" d="M585.383,-395.71C581.911,-393.05 578.434,-390.462 575,-388 552.453,-371.832 522.66,-355.63 515.564,-351.832"/>
</g>
<!-- 188 -->
<g id="node8" class="node"><title>188</title>
<g id="a_node8"><a xlink:href="http://awoiaf.westeros.org/index.php/Edwyle_Stark" xlink:title="Edwyle Stark\n???&#45;???" target="_blank">
<polygon fill="white" stroke="black" points="337.25,-813.5 224.75,-813.5 224.75,-700.5 337.25,-700.5 337.25,-813.5"/>
<text text-anchor="middle" x="281" y="-760.8" font-family="Times,serif" font-size="14.00">Edwyle Stark</text>
<text text-anchor="middle" x="281" y="-745.8" font-family="Times,serif" font-size="14.00">???&#45;???</text>
</a>
</g>
</g>
<!-- 188+189 -->
<g id="node21" class="node"><title>188+189</title>
<ellipse fill="black" stroke="black" cx="298" cy="-596" rx="1.8" ry="1.8"/>
</g>
<!-- 188&#45;&gt;188+189 -->
<g id="edge7" class="edge"><title>188&#45;&gt;188+189</title>
<path fill="none" stroke="black" d="M286.946,-700.39C291.465,-658.121 297.046,-605.919 297.891,-598.021"/>
</g>
<!-- 189 -->
<g id="node9" class="node"><title>189</title>
<g id="a_node9"><a xlink:href="http://awoiaf.westeros.org/index.php/Marna_Locke" xlink:title="Marna Locke\n???&#45;???" target="_blank">
<polygon fill="white" stroke="black" points="467.5,-813 356.5,-813 356.5,-701 467.5,-701 467.5,-813"/>
<text text-anchor="middle" x="412" y="-760.8" font-family="Times,serif" font-size="14.00">Marna Locke</text>
<text text-anchor="middle" x="412" y="-745.8" font-family="Times,serif" font-size="14.00">???&#45;???</text>
</a>
</g>
</g>
<!-- 189&#45;&gt;188+189 -->
<g id="edge8" class="edge"><title>189&#45;&gt;188+189</title>
<path fill="none" stroke="black" d="M372.448,-700.836C342.095,-658.5 304.435,-605.976 298.736,-598.027"/>
</g>
<!-- 205 -->
<g id="node10" class="node"><title>205</title>
<g id="a_node10"><a xlink:href="http://awoiaf.westeros.org/index.php/Rodrik Stark_(son_of_Beron)" xlink:title="Rodrik Stark\n???&#45;???" target="_blank">
<polygon fill="white" stroke="black" points="215,-1042 107,-1042 107,-934 215,-934 215,-1042"/>
<text text-anchor="middle" x="161" y="-991.8" font-family="Times,serif" font-size="14.00">Rodrik Stark</text>
<text text-anchor="middle" x="161" y="-976.8" font-family="Times,serif" font-size="14.00">???&#45;???</text>
</a>
</g>
</g>
<!-- 205+206 -->
<g id="node22" class="node"><title>205+206</title>
<ellipse fill="black" stroke="black" cx="161" cy="-866" rx="1.8" ry="1.8"/>
</g>
<!-- 205&#45;&gt;205+206 -->
<g id="edge9" class="edge"><title>205&#45;&gt;205+206</title>
<path fill="none" stroke="black" d="M161,-933.667C161,-904.623 161,-873.468 161,-867.882"/>
</g>
<!-- 206 -->
<g id="node11" class="node"><title>206</title>
<g id="a_node11"><a xlink:href="http://awoiaf.westeros.org/index.php/Arya_Flint" xlink:title="Arya Flint\n???&#45;???" target="_blank">
<polygon fill="white" stroke="black" points="88.25,-1032.5 -0.25,-1032.5 -0.25,-943.5 88.25,-943.5 88.25,-1032.5"/>
<text text-anchor="middle" x="44" y="-991.8" font-family="Times,serif" font-size="14.00">Arya Flint</text>
<text text-anchor="middle" x="44" y="-976.8" font-family="Times,serif" font-size="14.00">???&#45;???</text>
</a>
</g>
</g>
<!-- 206&#45;&gt;205+206 -->
<g id="edge10" class="edge"><title>206&#45;&gt;205+206</title>
<path fill="none" stroke="black" d="M67.1975,-943.192C75.7097,-929.619 86.1907,-915.281 98,-904 118.912,-884.024 152.547,-870.281 159.654,-867.514"/>
</g>
<!-- 105 -->
<g id="node12" class="node"><title>105</title>
<polygon fill="white" stroke="black" points="609.5,-819 486.5,-819 486.5,-695 609.5,-695 609.5,-819"/>
<text text-anchor="middle" x="548" y="-760.8" font-family="Times,serif" font-size="14.00">Unknown Tully</text>
<text text-anchor="middle" x="548" y="-745.8" font-family="Times,serif" font-size="14.00">???&#45;???</text>
</g>
<!-- 105+106 -->
<g id="node23" class="node"><title>105+106</title>
<ellipse fill="black" stroke="black" cx="548" cy="-596" rx="1.8" ry="1.8"/>
</g>
<!-- 105&#45;&gt;105+106 -->
<g id="edge11" class="edge"><title>105&#45;&gt;105+106</title>
<path fill="none" stroke="black" d="M548,-694.981C548,-653.645 548,-605.253 548,-597.944"/>
</g>
<!-- 106 -->
<g id="node13" class="node"><title>106</title>
<polygon fill="white" stroke="black" points="770,-828 628,-828 628,-686 770,-686 770,-828"/>
<text text-anchor="middle" x="699" y="-760.8" font-family="Times,serif" font-size="14.00">Unknown Woman</text>
<text text-anchor="middle" x="699" y="-745.8" font-family="Times,serif" font-size="14.00">???&#45;???</text>
</g>
<!-- 106&#45;&gt;105+106 -->
<g id="edge12" class="edge"><title>106&#45;&gt;105+106</title>
<path fill="none" stroke="black" d="M632.33,-685.797C595.039,-646.531 554.835,-604.197 548.781,-597.822"/>
</g>
<!-- 184 -->
<g id="node14" class="node"><title>184</title>
<g id="a_node14"><a xlink:href="http://awoiaf.westeros.org/index.php/Willam_Stark" xlink:title="Willam Stark\n???&#45;226" target="_blank">
<polygon fill="white" stroke="black" points="343,-1043 233,-1043 233,-933 343,-933 343,-1043"/>
<text text-anchor="middle" x="288" y="-991.8" font-family="Times,serif" font-size="14.00">Willam Stark</text>
<text text-anchor="middle" x="288" y="-976.8" font-family="Times,serif" font-size="14.00">???&#45;226</text>
</a>
</g>
</g>
<!-- 184+187 -->
<g id="node24" class="node"><title>184+187</title>
<ellipse fill="black" stroke="black" cx="288" cy="-866" rx="1.8" ry="1.8"/>
</g>
<!-- 184&#45;&gt;184+187 -->
<g id="edge13" class="edge"><title>184&#45;&gt;184+187</title>
<path fill="none" stroke="black" d="M288,-932.968C288,-904.103 288,-873.377 288,-867.87"/>
</g>
<!-- 187 -->
<g id="node15" class="node"><title>187</title>
<g id="a_node15"><a xlink:href="http://awoiaf.westeros.org/index.php/Melantha_Blackwood" xlink:title="Melantha Blackwood\n???&#45;???" target="_blank">
<polygon fill="white" stroke="black" points="528.25,-1071.5 361.75,-1071.5 361.75,-904.5 528.25,-904.5 528.25,-1071.5"/>
<text text-anchor="middle" x="445" y="-991.8" font-family="Times,serif" font-size="14.00">Melantha Blackwood</text>
<text text-anchor="middle" x="445" y="-976.8" font-family="Times,serif" font-size="14.00">???&#45;???</text>
</a>
</g>
</g>
<!-- 187&#45;&gt;184+187 -->
<g id="edge14" class="edge"><title>187&#45;&gt;184+187</title>
<path fill="none" stroke="black" d="M361.497,-911.095C358.328,-908.656 355.156,-906.284 352,-904 328.294,-886.845 296.049,-870.899 289.279,-867.615"/>
</g>
<!-- 180 -->
<g id="node16" class="node"><title>180</title>
<g id="a_node16"><a xlink:href="http://awoiaf.westeros.org/index.php/Beron_Stark" xlink:title="Beron Stark\n???&#45;???" target="_blank">
<polygon fill="white" stroke="black" points="214.25,-1251.5 111.75,-1251.5 111.75,-1148.5 214.25,-1148.5 214.25,-1251.5"/>
<text text-anchor="middle" x="163" y="-1203.8" font-family="Times,serif" font-size="14.00">Beron Stark</text>
<text text-anchor="middle" x="163" y="-1188.8" font-family="Times,serif" font-size="14.00">???&#45;???</text>
</a>
</g>
</g>
<!-- 180+181 -->
<g id="node25" class="node"><title>180+181</title>
<ellipse fill="black" stroke="black" cx="224" cy="-1110" rx="1.8" ry="1.8"/>
</g>
<!-- 180&#45;&gt;180+181 -->
<g id="edge15" class="edge"><title>180&#45;&gt;180+181</title>
<path fill="none" stroke="black" d="M198.131,-1148.32C209.995,-1131.2 220.903,-1115.47 223.445,-1111.8"/>
</g>
<!-- 181 -->
<g id="node17" class="node"><title>181</title>
<g id="a_node17"><a xlink:href="http://awoiaf.westeros.org/index.php/Lorra_Royce" xlink:title="Lorra Royce\n???&#45;???" target="_blank">
<polygon fill="white" stroke="black" points="337,-1252 233,-1252 233,-1148 337,-1148 337,-1252"/>
<text text-anchor="middle" x="285" y="-1203.8" font-family="Times,serif" font-size="14.00">Lorra Royce</text>
<text text-anchor="middle" x="285" y="-1188.8" font-family="Times,serif" font-size="14.00">???&#45;???</text>
</a>
</g>
</g>
<!-- 181&#45;&gt;180+181 -->
<g id="edge16" class="edge"><title>181&#45;&gt;180+181</title>
<path fill="none" stroke="black" d="M249.516,-1147.81C237.774,-1130.87 227.045,-1115.39 224.546,-1111.79"/>
</g>
<!-- 1+2&#45;&gt;6 -->
<g id="edge17" class="edge"><title>1+2&#45;&gt;6</title>
<path fill="none" stroke="black" d="M406,-157.911C406,-153.81 406,-138.666 406,-121.584"/>
</g>
<!-- 10+11&#45;&gt;1 -->
<g id="edge18" class="edge"><title>10+11&#45;&gt;1</title>
<path fill="none" stroke="black" d="M298.101,-347.956C298.493,-343.905 299.973,-328.61 301.617,-311.626"/>
</g>
<!-- 12+13&#45;&gt;2 -->
<g id="edge19" class="edge"><title>12+13&#45;&gt;2</title>
<path fill="none" stroke="black" d="M513.91,-347.956C513.558,-343.865 512.22,-328.308 510.742,-311.123"/>
</g>
<!-- 188+189&#45;&gt;10 -->
<g id="edge20" class="edge"><title>188+189&#45;&gt;10</title>
<path fill="none" stroke="black" d="M298,-594.061C298,-587.141 298,-543.247 298,-505.367"/>
</g>
<!-- 205+206&#45;&gt;11 -->
<g id="edge21" class="edge"><title>205+206&#45;&gt;11</title>
<path fill="none" stroke="black" d="M161.087,-864.03C162.193,-851.678 173.597,-724.338 180.248,-650.059"/>
</g>
<!-- 105+106&#45;&gt;12 -->
<g id="edge22" class="edge"><title>105+106&#45;&gt;12</title>
<path fill="none" stroke="black" d="M547.783,-594.061C546.109,-586.823 535.079,-539.136 526.071,-500.189"/>
</g>
<!-- 184+187&#45;&gt;188 -->
<g id="edge23" class="edge"><title>184+187&#45;&gt;188</title>
<path fill="none" stroke="black" d="M287.921,-863.798C287.573,-858.472 286.119,-836.25 284.633,-813.537"/>
</g>
<!-- 180+181&#45;&gt;205 -->
<g id="edge24" class="edge"><title>180+181&#45;&gt;205</title>
<path fill="none" stroke="black" d="M223.598,-1108.23C220.831,-1102.96 204.275,-1071.43 188.885,-1042.11"/>
</g>
<!-- 180+181&#45;&gt;184 -->
<g id="edge25" class="edge"><title>180+181&#45;&gt;184</title>
<path fill="none" stroke="black" d="M224.409,-1108.23C227.187,-1103.02 243.658,-1072.14 259.139,-1043.11"/>
</g>
</g>
</svg>
