<?xml version="1.0" encoding="UTF-8" standalone="no"?>
<!DOCTYPE svg PUBLIC "-//W3C//DTD SVG 1.1//EN"
 "http://www.w3.org/Graphics/SVG/1.1/DTD/svg11.dtd">
<!-- Generated by graphviz version 2.36.0 (20140111.2315)
 -->
<!-- Title:   Pages: 1 -->
<svg width="832pt" height="1322pt"
 viewBox="0.00 0.00 832.00 1322.00" xmlns="http://www.w3.org/2000/svg" xmlns:xlink="http://www.w3.org/1999/xlink">
<g id="graph0" class="graph" transform="scale(1 1) rotate(0) translate(4 1318)">
<title> </title>
<polygon fill="white" stroke="none" points="-4,4 -4,-1318 828,-1318 828,4 -4,4"/>
<!-- 6 -->
<g id="node1" class="node"><title>6</title>
<g id="a_node1"><a xlink:href="/character/display?id=Bran_Stark" xlink:title="Brandon Stark" target="_blank">
<polygon fill="white" stroke="black" points="503,-130 373,-130 373,-0 503,-0 503,-130"/>
</a>
</g>
<g id="a_node1_0"><a xlink:href="http://awoiaf.westeros.org/index.php/Bran_Stark" xlink:title="Brandon Stark" target="_blank">
<text text-anchor="start" x="385.5" y="-68.3" font-family="Times,serif" font-size="14.00">Brandon Stark</text>
<text text-anchor="start" x="422" y="-53.3" font-family="Times,serif" font-size="14.00">290&#45;</text>
</a>
</g>
<g><a xlink:href="/character/display?id=Bran_Stark" xlink:title="Brandon Stark" target="_blank">
</a>
</g>
</g>
<!-- 1 -->
<g id="node2" class="node"><title>1</title>
<g id="a_node2"><a xlink:href="/character/display?id=Eddard_Stark" xlink:title="Eddard Stark" target="_blank">
<polygon fill="white" stroke="black" points="393,-328 271,-328 271,-206 393,-206 393,-328"/>
</a>
</g>
<g id="a_node2_1"><a xlink:href="http://awoiaf.westeros.org/index.php/Eddard_Stark" xlink:title="Eddard Stark" target="_blank">
<text text-anchor="start" x="283.5" y="-270.3" font-family="Times,serif" font-size="14.00">Eddard Stark</text>
<text text-anchor="start" x="302.5" y="-255.3" font-family="Times,serif" font-size="14.00">263&#45;299</text>
</a>
</g>
<g><a xlink:href="/character/display?id=Eddard_Stark" xlink:title="Eddard Stark" target="_blank">
</a>
</g>
</g>
<!-- 1+2 -->
<g id="node18" class="node"><title>1+2</title>
<g id="a_node18"><a xlink:title=" ">
<ellipse fill="black" stroke="black" cx="438" cy="-168" rx="1.8" ry="1.8"/>
</a>
</g>
</g>
<!-- 1&#45;&gt;1+2 -->
<g id="edge1" class="edge"><title>1&#45;&gt;1+2</title>
<g id="a_edge1"><a xlink:title=" ">
<path fill="none" stroke="black" d="M393.046,-210.137C413.664,-191.27 432.618,-173.925 437.035,-169.883"/>
</a>
</g>
</g>
<!-- 2 -->
<g id="node3" class="node"><title>2</title>
<g id="a_node3"><a xlink:href="/character/display?id=Catelyn_Stark" xlink:title="Catelyn Tully" target="_blank">
<polygon fill="white" stroke="black" points="604.25,-327.5 483.75,-327.5 483.75,-206.5 604.25,-206.5 604.25,-327.5"/>
</a>
</g>
<g id="a_node3_2"><a xlink:href="http://awoiaf.westeros.org/index.php/Catelyn_Stark" xlink:title="Catelyn Tully" target="_blank">
<text text-anchor="start" x="496.5" y="-270.3" font-family="Times,serif" font-size="14.00">Catelyn Tully</text>
<text text-anchor="start" x="515" y="-255.3" font-family="Times,serif" font-size="14.00">264&#45;299</text>
</a>
</g>
<g><a xlink:href="/character/display?id=Catelyn_Stark" xlink:title="Catelyn Tully" target="_blank">
</a>
</g>
</g>
<!-- 2&#45;&gt;1+2 -->
<g id="edge2" class="edge"><title>2&#45;&gt;1+2</title>
<g id="a_edge2"><a xlink:title=" ">
<path fill="none" stroke="black" d="M483.569,-210.7C462.74,-191.639 443.473,-174.008 438.982,-169.898"/>
</a>
</g>
</g>
<!-- 10 -->
<g id="node4" class="node"><title>10</title>
<g id="a_node4"><a xlink:href="/character/display?id=Rickard_Stark" xlink:title="Rickard Stark" target="_blank">
<polygon fill="white" stroke="black" points="384.25,-529.5 259.75,-529.5 259.75,-404.5 384.25,-404.5 384.25,-529.5"/>
</a>
</g>
<g id="a_node4_3"><a xlink:href="http://awoiaf.westeros.org/index.php/Rickard_Stark" xlink:title="Rickard Stark" target="_blank">
<text text-anchor="start" x="272.5" y="-470.3" font-family="Times,serif" font-size="14.00">Rickard Stark</text>
<text text-anchor="start" x="293" y="-455.3" font-family="Times,serif" font-size="14.00">230&#45;282</text>
</a>
</g>
<g><a xlink:href="/character/display?id=Rickard_Stark" xlink:title="Rickard Stark" target="_blank">
</a>
</g>
</g>
<!-- 10+11 -->
<g id="node19" class="node"><title>10+11</title>
<g id="a_node19"><a xlink:title=" ">
<ellipse fill="black" stroke="black" cx="322" cy="-366" rx="1.8" ry="1.8"/>
</a>
</g>
</g>
<!-- 10&#45;&gt;10+11 -->
<g id="edge3" class="edge"><title>10&#45;&gt;10+11</title>
<g id="a_edge3"><a xlink:title=" ">
<path fill="none" stroke="black" d="M322,-404.428C322,-387.126 322,-371.92 322,-367.986"/>
</a>
</g>
</g>
<!-- 11 -->
<g id="node5" class="node"><title>11</title>
<g id="a_node5"><a xlink:href="/character/display?id=Lyarra_Stark" xlink:title="Lyarra Stark" target="_blank">
<polygon fill="white" stroke="black" points="259.25,-683.5 142.75,-683.5 142.75,-566.5 259.25,-566.5 259.25,-683.5"/>
</a>
</g>
<g id="a_node5_4"><a xlink:href="http://awoiaf.westeros.org/index.php/Lyarra_Stark" xlink:title="Lyarra Stark" target="_blank">
<text text-anchor="start" x="155.5" y="-628.3" font-family="Times,serif" font-size="14.00">Lyarra Stark</text>
<text text-anchor="start" x="176.5" y="-613.3" font-family="Times,serif" font-size="14.00">???&#45;???</text>
</a>
</g>
<g><a xlink:href="/character/display?id=Lyarra_Stark" xlink:title="Lyarra Stark" target="_blank">
</a>
</g>
</g>
<!-- 11&#45;&gt;10+11 -->
<g id="edge4" class="edge"><title>11&#45;&gt;10+11</title>
<g id="a_edge4"><a xlink:title=" ">
<path fill="none" stroke="black" d="M200.766,-566.453C203.396,-518.452 214.003,-450.609 250,-404 269.586,-378.64 311.396,-369.104 320.307,-367.321"/>
</a>
</g>
</g>
<!-- 12 -->
<g id="node6" class="node"><title>12</title>
<g id="a_node6"><a xlink:href="/character/display?id=Hoster_Tully" xlink:title="Hoster Tully" target="_blank">
<polygon fill="white" stroke="black" points="610.25,-524.5 495.75,-524.5 495.75,-409.5 610.25,-409.5 610.25,-524.5"/>
</a>
</g>
<g id="a_node6_5"><a xlink:href="http://awoiaf.westeros.org/index.php/Hoster_Tully" xlink:title="Hoster Tully" target="_blank">
<text text-anchor="start" x="508.5" y="-470.3" font-family="Times,serif" font-size="14.00">Hoster Tully</text>
<text text-anchor="start" x="524" y="-455.3" font-family="Times,serif" font-size="14.00">237&#45;299</text>
</a>
</g>
<g><a xlink:href="/character/display?id=Hoster_Tully" xlink:title="Hoster Tully" target="_blank">
</a>
</g>
</g>
<!-- 12+13 -->
<g id="node20" class="node"><title>12+13</title>
<g id="a_node20"><a xlink:title=" ">
<ellipse fill="black" stroke="black" cx="553" cy="-366" rx="1.8" ry="1.8"/>
</a>
</g>
</g>
<!-- 12&#45;&gt;12+13 -->
<g id="edge5" class="edge"><title>12&#45;&gt;12+13</title>
<g id="a_edge5"><a xlink:title=" ">
<path fill="none" stroke="black" d="M553,-409.272C553,-389.917 553,-372.069 553,-367.909"/>
</a>
</g>
</g>
<!-- 13 -->
<g id="node7" class="node"><title>13</title>
<g id="a_node7"><a xlink:href="/character/display?id=Minisa_Whent" xlink:title="Minisa Whent" target="_blank">
<polygon fill="white" stroke="black" points="755,-530 629,-530 629,-404 755,-404 755,-530"/>
</a>
</g>
<g id="a_node7_6"><a xlink:href="http://awoiaf.westeros.org/index.php/Minisa_Whent" xlink:title="Minisa Whent" target="_blank">
<text text-anchor="start" x="641.5" y="-470.3" font-family="Times,serif" font-size="14.00">Minisa Whent</text>
<text text-anchor="start" x="662.5" y="-455.3" font-family="Times,serif" font-size="14.00">250&#45;268</text>
</a>
</g>
<g><a xlink:href="/character/display?id=Minisa_Whent" xlink:title="Minisa Whent" target="_blank">
</a>
</g>
</g>
<!-- 13&#45;&gt;12+13 -->
<g id="edge6" class="edge"><title>13&#45;&gt;12+13</title>
<g id="a_edge6"><a xlink:title=" ">
<path fill="none" stroke="black" d="M628.878,-411.145C625.58,-408.674 622.277,-406.278 619,-404 594.409,-386.903 561.269,-370.911 554.313,-367.617"/>
</a>
</g>
</g>
<!-- 188 -->
<g id="node8" class="node"><title>188</title>
<g id="a_node8"><a xlink:href="/character/display?id=Edwyle_Stark" xlink:title="Edwyle Stark" target="_blank">
<polygon fill="white" stroke="black" points="365,-857 243,-857 243,-735 365,-735 365,-857"/>
</a>
</g>
<g id="a_node8_7"><a xlink:href="http://awoiaf.westeros.org/index.php/Edwyle_Stark" xlink:title="Edwyle Stark" target="_blank">
<text text-anchor="start" x="255.5" y="-799.3" font-family="Times,serif" font-size="14.00">Edwyle Stark</text>
<text text-anchor="start" x="279" y="-784.3" font-family="Times,serif" font-size="14.00">???&#45;???</text>
</a>
</g>
<g><a xlink:href="/character/display?id=Edwyle_Stark" xlink:title="Edwyle Stark" target="_blank">
</a>
</g>
</g>
<!-- 188+189 -->
<g id="node21" class="node"><title>188+189</title>
<g id="a_node21"><a xlink:title=" ">
<ellipse fill="black" stroke="black" cx="322" cy="-625" rx="1.8" ry="1.8"/>
</a>
</g>
</g>
<!-- 188&#45;&gt;188+189 -->
<g id="edge7" class="edge"><title>188&#45;&gt;188+189</title>
<g id="a_edge7"><a xlink:title=" ">
<path fill="none" stroke="black" d="M310.397,-734.941C315.166,-690.161 321.003,-635.36 321.886,-627.071"/>
</a>
</g>
</g>
<!-- 189 -->
<g id="node9" class="node"><title>189</title>
<g id="a_node9"><a xlink:href="/character/display?id=Marna_Locke" xlink:title="Marna Locke" target="_blank">
<polygon fill="white" stroke="black" points="504.25,-856.5 383.75,-856.5 383.75,-735.5 504.25,-735.5 504.25,-856.5"/>
</a>
</g>
<g id="a_node9_8"><a xlink:href="http://awoiaf.westeros.org/index.php/Marna_Locke" xlink:title="Marna Locke" target="_blank">
<text text-anchor="start" x="396.5" y="-799.3" font-family="Times,serif" font-size="14.00">Marna Locke</text>
<text text-anchor="start" x="419.5" y="-784.3" font-family="Times,serif" font-size="14.00">???&#45;???</text>
</a>
</g>
<g><a xlink:href="/character/display?id=Marna_Locke" xlink:title="Marna Locke" target="_blank">
</a>
</g>
</g>
<!-- 189&#45;&gt;188+189 -->
<g id="edge8" class="edge"><title>189&#45;&gt;188+189</title>
<g id="a_edge8"><a xlink:title=" ">
<path fill="none" stroke="black" d="M400.987,-735.417C368.607,-690.562 328.8,-635.42 322.778,-627.078"/>
</a>
</g>
</g>
<!-- 205 -->
<g id="node10" class="node"><title>205</title>
<g id="a_node10"><a xlink:href="/character/display?id=Rodrik Stark_(son_of_Beron)" xlink:title="Rodrik Stark" target="_blank">
<polygon fill="white" stroke="black" points="233.25,-1094.5 116.75,-1094.5 116.75,-977.5 233.25,-977.5 233.25,-1094.5"/>
</a>
</g>
<g id="a_node10_9"><a xlink:href="http://awoiaf.westeros.org/index.php/Rodrik Stark_(son_of_Beron)" xlink:title="Rodrik Stark" target="_blank">
<text text-anchor="start" x="129.5" y="-1039.3" font-family="Times,serif" font-size="14.00">Rodrik Stark</text>
<text text-anchor="start" x="150.5" y="-1024.3" font-family="Times,serif" font-size="14.00">???&#45;???</text>
</a>
</g>
<g><a xlink:href="/character/display?id=Rodrik Stark_(son_of_Beron)" xlink:title="Rodrik Stark" target="_blank">
</a>
</g>
</g>
<!-- 205+206 -->
<g id="node22" class="node"><title>205+206</title>
<g id="a_node22"><a xlink:title=" ">
<ellipse fill="black" stroke="black" cx="175" cy="-910" rx="1.8" ry="1.8"/>
</a>
</g>
</g>
<!-- 205&#45;&gt;205+206 -->
<g id="edge9" class="edge"><title>205&#45;&gt;205+206</title>
<g id="a_edge9"><a xlink:title=" ">
<path fill="none" stroke="black" d="M175,-977.356C175,-948.01 175,-917.356 175,-911.867"/>
</a>
</g>
</g>
<!-- 206 -->
<g id="node11" class="node"><title>206</title>
<g id="a_node11"><a xlink:href="/character/display?id=Arya_Flint" xlink:title="Arya Flint" target="_blank">
<polygon fill="white" stroke="black" points="97.5,-1085 0.5,-1085 0.5,-987 97.5,-987 97.5,-1085"/>
</a>
</g>
<g id="a_node11_10"><a xlink:href="http://awoiaf.westeros.org/index.php/Arya_Flint" xlink:title="Arya Flint" target="_blank">
<text text-anchor="start" x="12.5" y="-1039.3" font-family="Times,serif" font-size="14.00">Arya Flint</text>
<text text-anchor="start" x="24" y="-1024.3" font-family="Times,serif" font-size="14.00">???&#45;???</text>
</a>
</g>
<g><a xlink:href="/character/display?id=Arya_Flint" xlink:title="Arya Flint" target="_blank">
</a>
</g>
</g>
<!-- 206&#45;&gt;205+206 -->
<g id="edge10" class="edge"><title>206&#45;&gt;205+206</title>
<g id="a_edge10"><a xlink:title=" ">
<path fill="none" stroke="black" d="M75.3236,-986.603C84.1928,-973.048 94.9413,-959.023 107,-948 129.618,-927.325 165.886,-914.128 173.549,-911.489"/>
</a>
</g>
</g>
<!-- 105 -->
<g id="node12" class="node"><title>105</title>
<g id="a_node12"><a xlink:title="Unknown Tully" target="_blank">
<polygon fill="white" stroke="black" points="655.25,-862.5 522.75,-862.5 522.75,-729.5 655.25,-729.5 655.25,-862.5"/>
<text text-anchor="start" x="535.5" y="-799.3" font-family="Times,serif" font-size="14.00">Unknown Tully</text>
<text text-anchor="start" x="564.5" y="-784.3" font-family="Times,serif" font-size="14.00">???&#45;???</text>
</a>
</g>
</g>
<!-- 105+106 -->
<g id="node23" class="node"><title>105+106</title>
<g id="a_node23"><a xlink:title=" ">
<ellipse fill="black" stroke="black" cx="589" cy="-625" rx="1.8" ry="1.8"/>
</a>
</g>
</g>
<!-- 105&#45;&gt;105+106 -->
<g id="edge11" class="edge"><title>105&#45;&gt;105+106</title>
<g id="a_edge11"><a xlink:title=" ">
<path fill="none" stroke="black" d="M589,-729.176C589,-685.431 589,-634.656 589,-626.99"/>
</a>
</g>
</g>
<!-- 106 -->
<g id="node13" class="node"><title>106</title>
<g id="a_node13"><a xlink:title="Unknown Woman" target="_blank">
<polygon fill="white" stroke="black" points="824.25,-871.5 673.75,-871.5 673.75,-720.5 824.25,-720.5 824.25,-871.5"/>
<text text-anchor="start" x="686.5" y="-799.3" font-family="Times,serif" font-size="14.00">Unknown Woman</text>
<text text-anchor="start" x="724.5" y="-784.3" font-family="Times,serif" font-size="14.00">???&#45;???</text>
</a>
</g>
</g>
<!-- 106&#45;&gt;105+106 -->
<g id="edge12" class="edge"><title>106&#45;&gt;105+106</title>
<g id="a_edge12"><a xlink:title=" ">
<path fill="none" stroke="black" d="M678.356,-720.382C638.843,-678.646 596.243,-633.65 589.827,-626.874"/>
</a>
</g>
</g>
<!-- 184 -->
<g id="node14" class="node"><title>184</title>
<g id="a_node14"><a xlink:href="/character/display?id=Willam_Stark" xlink:title="Willam Stark" target="_blank">
<polygon fill="white" stroke="black" points="370.25,-1095.5 251.75,-1095.5 251.75,-976.5 370.25,-976.5 370.25,-1095.5"/>
</a>
</g>
<g id="a_node14_13"><a xlink:href="http://awoiaf.westeros.org/index.php/Willam_Stark" xlink:title="Willam Stark" target="_blank">
<text text-anchor="start" x="264.5" y="-1039.3" font-family="Times,serif" font-size="14.00">Willam Stark</text>
<text text-anchor="start" x="284" y="-1024.3" font-family="Times,serif" font-size="14.00">???&#45;226</text>
</a>
</g>
<g><a xlink:href="/character/display?id=Willam_Stark" xlink:title="Willam Stark" target="_blank">
</a>
</g>
</g>
<!-- 184+187 -->
<g id="node24" class="node"><title>184+187</title>
<g id="a_node24"><a xlink:title=" ">
<ellipse fill="black" stroke="black" cx="311" cy="-910" rx="1.8" ry="1.8"/>
</a>
</g>
</g>
<!-- 184&#45;&gt;184+187 -->
<g id="edge13" class="edge"><title>184&#45;&gt;184+187</title>
<g id="a_edge13"><a xlink:title=" ">
<path fill="none" stroke="black" d="M311,-976.268C311,-947.223 311,-917.218 311,-911.848"/>
</a>
</g>
</g>
<!-- 187 -->
<g id="node15" class="node"><title>187</title>
<g id="a_node15"><a xlink:href="/character/display?id=Melantha_Blackwood" xlink:title="Melantha Blackwood" target="_blank">
<polygon fill="white" stroke="black" points="564.5,-1124 389.5,-1124 389.5,-948 564.5,-948 564.5,-1124"/>
</a>
</g>
<g id="a_node15_14"><a xlink:href="http://awoiaf.westeros.org/index.php/Melantha_Blackwood" xlink:title="Melantha Blackwood" target="_blank">
<text text-anchor="start" x="401.5" y="-1039.3" font-family="Times,serif" font-size="14.00">Melantha Blackwood</text>
<text text-anchor="start" x="452" y="-1024.3" font-family="Times,serif" font-size="14.00">???&#45;???</text>
</a>
</g>
<g><a xlink:href="/character/display?id=Melantha_Blackwood" xlink:title="Melantha Blackwood" target="_blank">
</a>
</g>
</g>
<!-- 187&#45;&gt;184+187 -->
<g id="edge14" class="edge"><title>187&#45;&gt;184+187</title>
<g id="a_edge14"><a xlink:title=" ">
<path fill="none" stroke="black" d="M389.356,-955.542C385.903,-952.942 382.445,-950.419 379,-948 353.921,-930.391 319.576,-914.799 312.362,-911.599"/>
</a>
</g>
</g>
<!-- 180 -->
<g id="node16" class="node"><title>180</title>
<g id="a_node16"><a xlink:href="/character/display?id=Beron_Stark" xlink:title="Beron Stark" target="_blank">
<polygon fill="white" stroke="black" points="233.5,-1313 122.5,-1313 122.5,-1201 233.5,-1201 233.5,-1313"/>
</a>
</g>
<g id="a_node16_15"><a xlink:href="http://awoiaf.westeros.org/index.php/Beron_Stark" xlink:title="Beron Stark" target="_blank">
<text text-anchor="start" x="134.5" y="-1260.3" font-family="Times,serif" font-size="14.00">Beron Stark</text>
<text text-anchor="start" x="153" y="-1245.3" font-family="Times,serif" font-size="14.00">???&#45;???</text>
</a>
</g>
<g><a xlink:href="/character/display?id=Beron_Stark" xlink:title="Beron Stark" target="_blank">
</a>
</g>
</g>
<!-- 180+181 -->
<g id="node25" class="node"><title>180+181</title>
<g id="a_node25"><a xlink:title=" ">
<ellipse fill="black" stroke="black" cx="243" cy="-1162" rx="1.8" ry="1.8"/>
</a>
</g>
</g>
<!-- 180&#45;&gt;180+181 -->
<g id="edge15" class="edge"><title>180&#45;&gt;180+181</title>
<g id="a_edge15"><a xlink:title=" ">
<path fill="none" stroke="black" d="M216.562,-1200.83C228.809,-1183.3 239.865,-1167.48 242.438,-1163.8"/>
</a>
</g>
</g>
<!-- 181 -->
<g id="node17" class="node"><title>181</title>
<g id="a_node17"><a xlink:href="/character/display?id=Lorra_Royce" xlink:title="Lorra Royce" target="_blank">
<polygon fill="white" stroke="black" points="365.25,-1313.5 252.75,-1313.5 252.75,-1200.5 365.25,-1200.5 365.25,-1313.5"/>
</a>
</g>
<g id="a_node17_16"><a xlink:href="http://awoiaf.westeros.org/index.php/Lorra_Royce" xlink:title="Lorra Royce" target="_blank">
<text text-anchor="start" x="265.5" y="-1260.3" font-family="Times,serif" font-size="14.00">Lorra Royce</text>
<text text-anchor="start" x="284.5" y="-1245.3" font-family="Times,serif" font-size="14.00">???&#45;???</text>
</a>
</g>
<g><a xlink:href="/character/display?id=Lorra_Royce" xlink:title="Lorra Royce" target="_blank">
</a>
</g>
</g>
<!-- 181&#45;&gt;180+181 -->
<g id="edge16" class="edge"><title>181&#45;&gt;180+181</title>
<g id="a_edge16"><a xlink:title=" ">
<path fill="none" stroke="black" d="M269.464,-1200.29C257.165,-1182.96 246.128,-1167.41 243.561,-1163.79"/>
</a>
</g>
</g>
<!-- 1+2&#45;&gt;6 -->
<g id="edge17" class="edge"><title>1+2&#45;&gt;6</title>
<path fill="none" stroke="black" d="M438,-165.866C438,-161.77 438,-147.089 438,-130.197"/>
</g>
<!-- 10+11&#45;&gt;1 -->
<g id="edge18" class="edge"><title>10+11&#45;&gt;1</title>
<path fill="none" stroke="black" d="M322.112,-363.911C322.531,-359.852 324.065,-344.973 325.804,-328.104"/>
</g>
<!-- 12+13&#45;&gt;2 -->
<g id="edge19" class="edge"><title>12+13&#45;&gt;2</title>
<path fill="none" stroke="black" d="M552.899,-363.911C552.518,-359.81 551.113,-344.666 549.528,-327.584"/>
</g>
<!-- 188+189&#45;&gt;10 -->
<g id="edge20" class="edge"><title>188+189&#45;&gt;10</title>
<path fill="none" stroke="black" d="M322,-623.004C322,-615.712 322,-569.735 322,-529.732"/>
</g>
<!-- 205+206&#45;&gt;11 -->
<g id="edge21" class="edge"><title>205+206&#45;&gt;11</title>
<path fill="none" stroke="black" d="M175.075,-908.188C176.142,-896.565 188.425,-762.87 195.694,-683.749"/>
</g>
<!-- 105+106&#45;&gt;12 -->
<g id="edge22" class="edge"><title>105+106&#45;&gt;12</title>
<path fill="none" stroke="black" d="M588.77,-623.004C587.016,-615.401 575.555,-565.738 566.072,-524.644"/>
</g>
<!-- 184+187&#45;&gt;188 -->
<g id="edge23" class="edge"><title>184+187&#45;&gt;188</title>
<path fill="none" stroke="black" d="M310.921,-907.742C310.583,-902.335 309.206,-880.294 307.768,-857.282"/>
</g>
<!-- 180+181&#45;&gt;205 -->
<g id="edge24" class="edge"><title>180+181&#45;&gt;205</title>
<path fill="none" stroke="black" d="M242.566,-1160.21C239.67,-1154.93 222.779,-1124.13 206.611,-1094.64"/>
</g>
<!-- 180+181&#45;&gt;184 -->
<g id="edge25" class="edge"><title>180+181&#45;&gt;184</title>
<path fill="none" stroke="black" d="M243.434,-1160.21C246.296,-1154.99 262.827,-1124.84 278.82,-1095.68"/>
</g>
</g>
</svg>
