<?xml version="1.0" encoding="UTF-8" standalone="no"?>
<!DOCTYPE svg PUBLIC "-//W3C//DTD SVG 1.1//EN"
 "http://www.w3.org/Graphics/SVG/1.1/DTD/svg11.dtd">
<!-- Generated by graphviz version 2.36.0 (20140111.2315)
 -->
<!-- Title: family Pages: 1 -->
<svg width="309pt" height="362pt"
 viewBox="0.00 0.00 309.00 362.00" xmlns="http://www.w3.org/2000/svg" xmlns:xlink="http://www.w3.org/1999/xlink">
<g id="graph0" class="graph" transform="scale(1 1) rotate(0) translate(4 358)">
<title>family</title>
<polygon fill="white" stroke="none" points="-4,4 -4,-358 305,-358 305,4 -4,4"/>
<!-- 107 -->
<g id="node1" class="node"><title>107</title>
<g id="a_node1"><a xlink:href="/character/display?id=Brynden_Tully" xlink:title="Brynden Tully" target="_blank">
<polygon fill="white" stroke="black" points="209,-126 83,-126 83,-0 209,-0 209,-126"/>
</a>
</g>
<g id="a_node1_0"><a xlink:href="http://awoiaf.westeros.org/index.php/Brynden_Tully" xlink:title="Brynden Tully" target="_blank">
<text text-anchor="start" x="95.5" y="-66.3" font-family="Times,serif" font-size="14.00">Brynden Tully</text>
<text text-anchor="start" x="130" y="-51.3" font-family="Times,serif" font-size="14.00">242&#45;</text>
</a>
</g>
<g><a xlink:href="/character/display?id=Brynden_Tully" xlink:title="Brynden Tully" target="_blank">
</a>
</g>
</g>
<!-- 105 -->
<g id="node2" class="node"><title>105</title>
<g id="a_node2"><a xlink:title="Unknown Tully" target="_blank">
<polygon fill="white" stroke="black" points="132.25,-344.5 -0.25,-344.5 -0.25,-211.5 132.25,-211.5 132.25,-344.5"/>
<text text-anchor="start" x="12.5" y="-281.3" font-family="Times,serif" font-size="14.00">Unknown Tully</text>
<text text-anchor="start" x="41.5" y="-266.3" font-family="Times,serif" font-size="14.00">???&#45;???</text>
</a>
</g>
</g>
<!-- 105+106 -->
<g id="node4" class="node"><title>105+106</title>
<ellipse fill="black" stroke="black" cx="146" cy="-164" rx="1.8" ry="1.8"/>
</g>
<!-- 105&#45;&gt;105+106 -->
<g id="edge1" class="edge"><title>105&#45;&gt;105+106</title>
<path fill="none" stroke="black" d="M112.999,-211.201C128.236,-189.869 142.075,-170.495 145.296,-165.985"/>
</g>
<!-- 106 -->
<g id="node3" class="node"><title>106</title>
<g id="a_node3"><a xlink:title="Unknown Woman" target="_blank">
<polygon fill="white" stroke="black" points="301.25,-353.5 150.75,-353.5 150.75,-202.5 301.25,-202.5 301.25,-353.5"/>
<text text-anchor="start" x="163.5" y="-281.3" font-family="Times,serif" font-size="14.00">Unknown Woman</text>
<text text-anchor="start" x="201.5" y="-266.3" font-family="Times,serif" font-size="14.00">???&#45;???</text>
</a>
</g>
</g>
<!-- 106&#45;&gt;105+106 -->
<g id="edge2" class="edge"><title>106&#45;&gt;105+106</title>
<path fill="none" stroke="black" d="M172.639,-202.294C159.798,-184.318 149.033,-169.247 146.543,-165.76"/>
</g>
<!-- 105+106&#45;&gt;107 -->
<g id="edge3" class="edge"><title>105+106&#45;&gt;107</title>
<path fill="none" stroke="black" d="M146,-161.888C146,-157.81 146,-143.024 146,-126.136"/>
</g>
</g>
</svg>
