<?xml version="1.0" encoding="UTF-8" standalone="no"?>
<!DOCTYPE svg PUBLIC "-//W3C//DTD SVG 1.1//EN"
 "http://www.w3.org/Graphics/SVG/1.1/DTD/svg11.dtd">
<!-- Generated by graphviz version 2.36.0 (20140111.2315)
 -->
<!-- Title: family Pages: 1 -->
<svg width="604pt" height="732pt"
 viewBox="0.00 0.00 604.00 732.00" xmlns="http://www.w3.org/2000/svg" xmlns:xlink="http://www.w3.org/1999/xlink">
<g id="graph0" class="graph" transform="scale(1 1) rotate(0) translate(4 728)">
<title>family</title>
<polygon fill="white" stroke="none" points="-4,4 -4,-728 600,-728 600,4 -4,4"/>
<!-- 2 -->
<g id="node1" class="node"><title>2</title>
<g id="a_node1"><a xlink:href="http://awoiaf.westeros.org/index.php/Catelyn_Stark" xlink:title="Catelyn Tully\n264&#45;299" target="_blank">
<polygon fill="white" stroke="black" points="402.5,-311 291.5,-311 291.5,-199 402.5,-199 402.5,-311"/>
<text text-anchor="middle" x="347" y="-258.8" font-family="Times,serif" font-size="14.00">Catelyn Tully</text>
<text text-anchor="middle" x="347" y="-243.8" font-family="Times,serif" font-size="14.00">264&#45;299</text>
</a>
</g>
</g>
<!-- 1+2 -->
<g id="node14" class="node"><title>1+2</title>
<ellipse fill="black" stroke="black" cx="281" cy="-160" rx="1.8" ry="1.8"/>
</g>
<!-- 2&#45;&gt;1+2 -->
<g id="edge6" class="edge"><title>2&#45;&gt;1+2</title>
<path fill="none" stroke="black" d="M307.845,-198.827C295.409,-181.304 284.183,-165.485 281.571,-161.804"/>
</g>
<!-- 12 -->
<g id="node2" class="node"><title>12</title>
<g id="a_node2"><a xlink:href="http://awoiaf.westeros.org/index.php/Hoster_Tully" xlink:title="Hoster Tully\n237&#45;299" target="_blank">
<polygon fill="white" stroke="black" points="334.5,-500 229.5,-500 229.5,-394 334.5,-394 334.5,-500"/>
<text text-anchor="middle" x="282" y="-450.8" font-family="Times,serif" font-size="14.00">Hoster Tully</text>
<text text-anchor="middle" x="282" y="-435.8" font-family="Times,serif" font-size="14.00">237&#45;299</text>
</a>
</g>
</g>
<!-- 12+13 -->
<g id="node12" class="node"><title>12+13</title>
<ellipse fill="black" stroke="black" cx="347" cy="-350" rx="1.8" ry="1.8"/>
</g>
<!-- 12&#45;&gt;12+13 -->
<g id="edge1" class="edge"><title>12&#45;&gt;12+13</title>
<path fill="none" stroke="black" d="M317.733,-393.776C330.949,-374.46 343.444,-356.197 346.362,-351.933"/>
</g>
<!-- 13 -->
<g id="node3" class="node"><title>13</title>
<g id="a_node3"><a xlink:href="http://awoiaf.westeros.org/index.php/Minisa_Whent" xlink:title="Minisa Whent\n250&#45;268" target="_blank">
<polygon fill="white" stroke="black" points="470.25,-505.5 353.75,-505.5 353.75,-388.5 470.25,-388.5 470.25,-505.5"/>
<text text-anchor="middle" x="412" y="-450.8" font-family="Times,serif" font-size="14.00">Minisa Whent</text>
<text text-anchor="middle" x="412" y="-435.8" font-family="Times,serif" font-size="14.00">250&#45;268</text>
</a>
</g>
</g>
<!-- 13&#45;&gt;12+13 -->
<g id="edge2" class="edge"><title>13&#45;&gt;12+13</title>
<path fill="none" stroke="black" d="M372.503,-388.274C360.594,-370.868 350,-355.384 347.538,-351.786"/>
</g>
<!-- 105 -->
<g id="node4" class="node"><title>105</title>
<polygon fill="white" stroke="black" points="268.5,-715 145.5,-715 145.5,-591 268.5,-591 268.5,-715"/>
<text text-anchor="middle" x="207" y="-656.8" font-family="Times,serif" font-size="14.00">Unknown Tully</text>
<text text-anchor="middle" x="207" y="-641.8" font-family="Times,serif" font-size="14.00">???&#45;???</text>
</g>
<!-- 105+106 -->
<g id="node13" class="node"><title>105+106</title>
<ellipse fill="black" stroke="black" cx="282" cy="-544" rx="1.8" ry="1.8"/>
</g>
<!-- 105&#45;&gt;105+106 -->
<g id="edge3" class="edge"><title>105&#45;&gt;105+106</title>
<path fill="none" stroke="black" d="M249.758,-590.999C264.495,-569.973 278.128,-550.525 281.305,-545.991"/>
</g>
<!-- 106 -->
<g id="node5" class="node"><title>106</title>
<polygon fill="white" stroke="black" points="429,-724 287,-724 287,-582 429,-582 429,-724"/>
<text text-anchor="middle" x="358" y="-656.8" font-family="Times,serif" font-size="14.00">Unknown Woman</text>
<text text-anchor="middle" x="358" y="-641.8" font-family="Times,serif" font-size="14.00">???&#45;???</text>
</g>
<!-- 106&#45;&gt;105+106 -->
<g id="edge4" class="edge"><title>106&#45;&gt;105+106</title>
<path fill="none" stroke="black" d="M308.155,-581.823C295.62,-564.176 284.996,-549.219 282.536,-545.755"/>
</g>
<!-- 3 -->
<g id="node6" class="node"><title>3</title>
<g id="a_node6"><a xlink:href="http://awoiaf.westeros.org/index.php/Robb_Stark" xlink:title="Robb Stark\n283&#45;299" target="_blank">
<polygon fill="white" stroke="black" points="96.25,-109.5 -0.25,-109.5 -0.25,-12.5 96.25,-12.5 96.25,-109.5"/>
<text text-anchor="middle" x="48" y="-64.8" font-family="Times,serif" font-size="14.00">Robb Stark</text>
<text text-anchor="middle" x="48" y="-49.8" font-family="Times,serif" font-size="14.00">283&#45;299</text>
</a>
</g>
</g>
<!-- 4 -->
<g id="node7" class="node"><title>4</title>
<g id="a_node7"><a xlink:href="http://awoiaf.westeros.org/index.php/Sansa_Stark" xlink:title="Sansa Stark\n286&#45;" target="_blank">
<polygon fill="white" stroke="black" points="215.5,-112 114.5,-112 114.5,-10 215.5,-10 215.5,-112"/>
<text text-anchor="middle" x="165" y="-64.8" font-family="Times,serif" font-size="14.00">Sansa Stark</text>
<text text-anchor="middle" x="165" y="-49.8" font-family="Times,serif" font-size="14.00">286&#45;</text>
</a>
</g>
</g>
<!-- 5 -->
<g id="node8" class="node"><title>5</title>
<g id="a_node8"><a xlink:href="http://awoiaf.westeros.org/index.php/Arya_Stark" xlink:title="Arya Stark\n289&#45;" target="_blank">
<polygon fill="white" stroke="black" points="328,-108 234,-108 234,-14 328,-14 328,-108"/>
<text text-anchor="middle" x="281" y="-64.8" font-family="Times,serif" font-size="14.00">Arya Stark</text>
<text text-anchor="middle" x="281" y="-49.8" font-family="Times,serif" font-size="14.00">289&#45;</text>
</a>
</g>
</g>
<!-- 6 -->
<g id="node9" class="node"><title>6</title>
<g id="a_node9"><a xlink:href="http://awoiaf.westeros.org/index.php/Bran_Stark" xlink:title="Brandon Stark\n290&#45;" target="_blank">
<polygon fill="white" stroke="black" points="467.25,-121.5 346.75,-121.5 346.75,-0.5 467.25,-0.5 467.25,-121.5"/>
<text text-anchor="middle" x="407" y="-64.8" font-family="Times,serif" font-size="14.00">Brandon Stark</text>
<text text-anchor="middle" x="407" y="-49.8" font-family="Times,serif" font-size="14.00">290&#45;</text>
</a>
</g>
</g>
<!-- 7 -->
<g id="node10" class="node"><title>7</title>
<g id="a_node10"><a xlink:href="http://awoiaf.westeros.org/index.php/Rickon_Stark" xlink:title="Rickon Stark\n295&#45;" target="_blank">
<polygon fill="white" stroke="black" points="596,-116 486,-116 486,-6 596,-6 596,-116"/>
<text text-anchor="middle" x="541" y="-64.8" font-family="Times,serif" font-size="14.00">Rickon Stark</text>
<text text-anchor="middle" x="541" y="-49.8" font-family="Times,serif" font-size="14.00">295&#45;</text>
</a>
</g>
</g>
<!-- 1 -->
<g id="node11" class="node"><title>1</title>
<g id="a_node11"><a xlink:href="http://awoiaf.westeros.org/index.php/Eddard_Stark" xlink:title="Eddard Stark\n263&#45;299" target="_blank">
<polygon fill="white" stroke="black" points="272.25,-311.5 159.75,-311.5 159.75,-198.5 272.25,-198.5 272.25,-311.5"/>
<text text-anchor="middle" x="216" y="-258.8" font-family="Times,serif" font-size="14.00">Eddard Stark</text>
<text text-anchor="middle" x="216" y="-243.8" font-family="Times,serif" font-size="14.00">263&#45;299</text>
</a>
</g>
</g>
<!-- 1&#45;&gt;1+2 -->
<g id="edge5" class="edge"><title>1&#45;&gt;1+2</title>
<path fill="none" stroke="black" d="M254.937,-198.291C267.049,-180.96 277.92,-165.407 280.448,-161.79"/>
</g>
<!-- 12+13&#45;&gt;2 -->
<g id="edge7" class="edge"><title>12+13&#45;&gt;2</title>
<path fill="none" stroke="black" d="M347,-347.956C347,-343.865 347,-328.308 347,-311.123"/>
</g>
<!-- 105+106&#45;&gt;12 -->
<g id="edge8" class="edge"><title>105+106&#45;&gt;12</title>
<path fill="none" stroke="black" d="M282,-541.933C282,-537.428 282,-519.311 282,-500.173"/>
</g>
<!-- 1+2&#45;&gt;3 -->
<g id="edge9" class="edge"><title>1+2&#45;&gt;3</title>
<path fill="none" stroke="black" d="M279.474,-159.014C266.245,-159.073 169.887,-158.22 105,-122 98.8527,-118.569 92.9703,-114.252 87.4768,-109.516"/>
</g>
<!-- 1+2&#45;&gt;4 -->
<g id="edge10" class="edge"><title>1+2&#45;&gt;4</title>
<path fill="none" stroke="black" d="M279.542,-158.184C272.93,-154.455 245.22,-138.507 225,-122 221.234,-118.926 217.442,-115.647 213.693,-112.268"/>
</g>
<!-- 1+2&#45;&gt;5 -->
<g id="edge11" class="edge"><title>1+2&#45;&gt;5</title>
<path fill="none" stroke="black" d="M281,-157.911C281,-152.749 281,-130.085 281,-108.085"/>
</g>
<!-- 1+2&#45;&gt;6 -->
<g id="edge12" class="edge"><title>1+2&#45;&gt;6</title>
<path fill="none" stroke="black" d="M282.429,-158.147C288.915,-154.258 316.162,-137.718 337,-122 340.195,-119.59 343.433,-117.079 346.676,-114.509"/>
</g>
<!-- 1+2&#45;&gt;7 -->
<g id="edge13" class="edge"><title>1+2&#45;&gt;7</title>
<path fill="none" stroke="black" d="M282.67,-159.024C297.157,-159.166 402.751,-158.883 476,-122 479.429,-120.273 482.808,-118.312 486.115,-116.177"/>
</g>
</g>
</svg>
