<?xml version="1.0" encoding="UTF-8" standalone="no"?>
<!DOCTYPE svg PUBLIC "-//W3C//DTD SVG 1.1//EN"
 "http://www.w3.org/Graphics/SVG/1.1/DTD/svg11.dtd">
<!-- Generated by graphviz version 2.36.0 (20140111.2315)
 -->
<!-- Title: family Pages: 1 -->
<svg width="649pt" height="766pt"
 viewBox="0.00 0.00 649.00 766.00" xmlns="http://www.w3.org/2000/svg" xmlns:xlink="http://www.w3.org/1999/xlink">
<g id="graph0" class="graph" transform="scale(1 1) rotate(0) translate(4 762)">
<title>family</title>
<polygon fill="white" stroke="none" points="-4,4 -4,-762 645,-762 645,4 -4,4"/>
<!-- 2 -->
<g id="node1" class="node"><title>2</title>
<g id="a_node1"><a xlink:href="/character/display?id=Catelyn_Stark" xlink:title="Catelyn Tully" target="_blank">
<polygon fill="white" stroke="black" points="434.25,-327.5 313.75,-327.5 313.75,-206.5 434.25,-206.5 434.25,-327.5"/>
</a>
</g>
<g id="a_node1_0"><a xlink:href="http://awoiaf.westeros.org/index.php/Catelyn_Stark" xlink:title="Catelyn Tully" target="_blank">
<text text-anchor="start" x="326.5" y="-270.3" font-family="Times,serif" font-size="14.00">Catelyn Tully</text>
<text text-anchor="start" x="345" y="-255.3" font-family="Times,serif" font-size="14.00">264&#45;299</text>
</a>
</g>
<g><a xlink:href="/character/display?id=Catelyn_Stark" xlink:title="Catelyn Tully" target="_blank">
</a>
</g>
</g>
<!-- 1+2 -->
<g id="node14" class="node"><title>1+2</title>
<ellipse fill="black" stroke="black" cx="304" cy="-168" rx="1.8" ry="1.8"/>
</g>
<!-- 2&#45;&gt;1+2 -->
<g id="edge6" class="edge"><title>2&#45;&gt;1+2</title>
<path fill="none" stroke="black" d="M330.864,-206.225C318.259,-188.759 307.145,-173.358 304.563,-169.781"/>
</g>
<!-- 12 -->
<g id="node2" class="node"><title>12</title>
<g id="a_node2"><a xlink:href="/character/display?id=Hoster_Tully" xlink:title="Hoster Tully" target="_blank">
<polygon fill="white" stroke="black" points="362.25,-524.5 247.75,-524.5 247.75,-409.5 362.25,-409.5 362.25,-524.5"/>
</a>
</g>
<g id="a_node2_1"><a xlink:href="http://awoiaf.westeros.org/index.php/Hoster_Tully" xlink:title="Hoster Tully" target="_blank">
<text text-anchor="start" x="260.5" y="-470.3" font-family="Times,serif" font-size="14.00">Hoster Tully</text>
<text text-anchor="start" x="276" y="-455.3" font-family="Times,serif" font-size="14.00">237&#45;299</text>
</a>
</g>
<g><a xlink:href="/character/display?id=Hoster_Tully" xlink:title="Hoster Tully" target="_blank">
</a>
</g>
</g>
<!-- 12+13 -->
<g id="node12" class="node"><title>12+13</title>
<ellipse fill="black" stroke="black" cx="374" cy="-366" rx="1.8" ry="1.8"/>
</g>
<!-- 12&#45;&gt;12+13 -->
<g id="edge1" class="edge"><title>12&#45;&gt;12+13</title>
<path fill="none" stroke="black" d="M344.538,-409.272C358.028,-389.917 370.467,-372.069 373.366,-367.909"/>
</g>
<!-- 13 -->
<g id="node3" class="node"><title>13</title>
<g id="a_node3"><a xlink:href="/character/display?id=Minisa_Whent" xlink:title="Minisa Whent" target="_blank">
<polygon fill="white" stroke="black" points="507,-530 381,-530 381,-404 507,-404 507,-530"/>
</a>
</g>
<g id="a_node3_2"><a xlink:href="http://awoiaf.westeros.org/index.php/Minisa_Whent" xlink:title="Minisa Whent" target="_blank">
<text text-anchor="start" x="393.5" y="-470.3" font-family="Times,serif" font-size="14.00">Minisa Whent</text>
<text text-anchor="start" x="414.5" y="-455.3" font-family="Times,serif" font-size="14.00">250&#45;268</text>
</a>
</g>
<g><a xlink:href="/character/display?id=Minisa_Whent" xlink:title="Minisa Whent" target="_blank">
</a>
</g>
</g>
<!-- 13&#45;&gt;12+13 -->
<g id="edge2" class="edge"><title>13&#45;&gt;12+13</title>
<path fill="none" stroke="black" d="M400.065,-403.864C387.759,-386.46 377.033,-371.289 374.543,-367.768"/>
</g>
<!-- 105 -->
<g id="node4" class="node"><title>105</title>
<g id="a_node4"><a xlink:title="Unknown Tully" target="_blank">
<polygon fill="white" stroke="black" points="291.25,-748.5 158.75,-748.5 158.75,-615.5 291.25,-615.5 291.25,-748.5"/>
<text text-anchor="start" x="171.5" y="-685.3" font-family="Times,serif" font-size="14.00">Unknown Tully</text>
<text text-anchor="start" x="200.5" y="-670.3" font-family="Times,serif" font-size="14.00">???&#45;???</text>
</a>
</g>
</g>
<!-- 105+106 -->
<g id="node13" class="node"><title>105+106</title>
<ellipse fill="black" stroke="black" cx="305" cy="-568" rx="1.8" ry="1.8"/>
</g>
<!-- 105&#45;&gt;105+106 -->
<g id="edge3" class="edge"><title>105&#45;&gt;105+106</title>
<path fill="none" stroke="black" d="M271.999,-615.201C287.236,-593.869 301.075,-574.495 304.296,-569.985"/>
</g>
<!-- 106 -->
<g id="node5" class="node"><title>106</title>
<g id="a_node5"><a xlink:title="Unknown Woman" target="_blank">
<polygon fill="white" stroke="black" points="460.25,-757.5 309.75,-757.5 309.75,-606.5 460.25,-606.5 460.25,-757.5"/>
<text text-anchor="start" x="322.5" y="-685.3" font-family="Times,serif" font-size="14.00">Unknown Woman</text>
<text text-anchor="start" x="360.5" y="-670.3" font-family="Times,serif" font-size="14.00">???&#45;???</text>
</a>
</g>
</g>
<!-- 106&#45;&gt;105+106 -->
<g id="edge4" class="edge"><title>106&#45;&gt;105+106</title>
<path fill="none" stroke="black" d="M331.639,-606.294C318.798,-588.318 308.033,-573.247 305.543,-569.76"/>
</g>
<!-- 3 -->
<g id="node6" class="node"><title>3</title>
<g id="a_node6"><a xlink:href="/character/display?id=Robb_Stark" xlink:title="Robb Stark" target="_blank">
<polygon fill="white" stroke="black" points="105.5,-118 0.5,-118 0.5,-12 105.5,-12 105.5,-118"/>
</a>
</g>
<g id="a_node6_5"><a xlink:href="http://awoiaf.westeros.org/index.php/Robb_Stark" xlink:title="Robb Stark" target="_blank">
<text text-anchor="start" x="12.5" y="-68.3" font-family="Times,serif" font-size="14.00">Robb Stark</text>
<text text-anchor="start" x="23.5" y="-53.3" font-family="Times,serif" font-size="14.00">283&#45;299</text>
</a>
</g>
<g><a xlink:href="/character/display?id=Robb_Stark" xlink:title="Robb Stark" target="_blank">
</a>
</g>
</g>
<!-- 4 -->
<g id="node7" class="node"><title>4</title>
<g id="a_node7"><a xlink:href="/character/display?id=Sansa_Stark" xlink:title="Sansa Stark" target="_blank">
<polygon fill="white" stroke="black" points="234.25,-120.5 123.75,-120.5 123.75,-9.5 234.25,-9.5 234.25,-120.5"/>
</a>
</g>
<g id="a_node7_6"><a xlink:href="http://awoiaf.westeros.org/index.php/Sansa_Stark" xlink:title="Sansa Stark" target="_blank">
<text text-anchor="start" x="136.5" y="-68.3" font-family="Times,serif" font-size="14.00">Sansa Stark</text>
<text text-anchor="start" x="163.5" y="-53.3" font-family="Times,serif" font-size="14.00">286&#45;</text>
</a>
</g>
<g><a xlink:href="/character/display?id=Sansa_Stark" xlink:title="Sansa Stark" target="_blank">
</a>
</g>
</g>
<!-- 5 -->
<g id="node8" class="node"><title>5</title>
<g id="a_node8"><a xlink:href="/character/display?id=Arya_Stark" xlink:title="Arya Stark" target="_blank">
<polygon fill="white" stroke="black" points="355.25,-116.5 252.75,-116.5 252.75,-13.5 355.25,-13.5 355.25,-116.5"/>
</a>
</g>
<g id="a_node8_7"><a xlink:href="http://awoiaf.westeros.org/index.php/Arya_Stark" xlink:title="Arya Stark" target="_blank">
<text text-anchor="start" x="265.5" y="-68.3" font-family="Times,serif" font-size="14.00">Arya Stark</text>
<text text-anchor="start" x="288.5" y="-53.3" font-family="Times,serif" font-size="14.00">289&#45;</text>
</a>
</g>
<g><a xlink:href="/character/display?id=Arya_Stark" xlink:title="Arya Stark" target="_blank">
</a>
</g>
</g>
<!-- 6 -->
<g id="node9" class="node"><title>6</title>
<g id="a_node9"><a xlink:href="/character/display?id=Bran_Stark" xlink:title="Brandon Stark" target="_blank">
<polygon fill="white" stroke="black" points="504,-130 374,-130 374,-0 504,-0 504,-130"/>
</a>
</g>
<g id="a_node9_8"><a xlink:href="http://awoiaf.westeros.org/index.php/Bran_Stark" xlink:title="Brandon Stark" target="_blank">
<text text-anchor="start" x="386.5" y="-68.3" font-family="Times,serif" font-size="14.00">Brandon Stark</text>
<text text-anchor="start" x="423" y="-53.3" font-family="Times,serif" font-size="14.00">290&#45;</text>
</a>
</g>
<g><a xlink:href="/character/display?id=Bran_Stark" xlink:title="Brandon Stark" target="_blank">
</a>
</g>
</g>
<!-- 7 -->
<g id="node10" class="node"><title>7</title>
<g id="a_node10"><a xlink:href="/character/display?id=Rickon_Stark" xlink:title="Rickon Stark" target="_blank">
<polygon fill="white" stroke="black" points="641.25,-124.5 522.75,-124.5 522.75,-5.5 641.25,-5.5 641.25,-124.5"/>
</a>
</g>
<g id="a_node10_9"><a xlink:href="http://awoiaf.westeros.org/index.php/Rickon_Stark" xlink:title="Rickon Stark" target="_blank">
<text text-anchor="start" x="535.5" y="-68.3" font-family="Times,serif" font-size="14.00">Rickon Stark</text>
<text text-anchor="start" x="566.5" y="-53.3" font-family="Times,serif" font-size="14.00">295&#45;</text>
</a>
</g>
<g><a xlink:href="/character/display?id=Rickon_Stark" xlink:title="Rickon Stark" target="_blank">
</a>
</g>
</g>
<!-- 1 -->
<g id="node11" class="node"><title>1</title>
<g id="a_node11"><a xlink:href="/character/display?id=Eddard_Stark" xlink:title="Eddard Stark" target="_blank">
<polygon fill="white" stroke="black" points="295,-328 173,-328 173,-206 295,-206 295,-328"/>
</a>
</g>
<g id="a_node11_10"><a xlink:href="http://awoiaf.westeros.org/index.php/Eddard_Stark" xlink:title="Eddard Stark" target="_blank">
<text text-anchor="start" x="185.5" y="-270.3" font-family="Times,serif" font-size="14.00">Eddard Stark</text>
<text text-anchor="start" x="204.5" y="-255.3" font-family="Times,serif" font-size="14.00">263&#45;299</text>
</a>
</g>
<g><a xlink:href="/character/display?id=Eddard_Stark" xlink:title="Eddard Stark" target="_blank">
</a>
</g>
</g>
<!-- 1&#45;&gt;1+2 -->
<g id="edge5" class="edge"><title>1&#45;&gt;1+2</title>
<path fill="none" stroke="black" d="M277.336,-205.948C289.867,-188.585 300.883,-173.319 303.442,-169.774"/>
</g>
<!-- 12+13&#45;&gt;2 -->
<g id="edge7" class="edge"><title>12+13&#45;&gt;2</title>
<path fill="none" stroke="black" d="M374,-363.911C374,-359.81 374,-344.666 374,-327.584"/>
</g>
<!-- 105+106&#45;&gt;12 -->
<g id="edge8" class="edge"><title>105+106&#45;&gt;12</title>
<path fill="none" stroke="black" d="M305,-565.888C305,-561.363 305,-543.662 305,-524.53"/>
</g>
<!-- 1+2&#45;&gt;3 -->
<g id="edge9" class="edge"><title>1+2&#45;&gt;3</title>
<path fill="none" stroke="black" d="M302.355,-167.047C288.086,-167.381 184.157,-168.406 114,-130 107.941,-126.683 102.127,-122.555 96.66,-118.003"/>
</g>
<!-- 1+2&#45;&gt;4 -->
<g id="edge10" class="edge"><title>1+2&#45;&gt;4</title>
<path fill="none" stroke="black" d="M302.433,-166.203C295.33,-162.558 265.57,-146.918 244,-130 240.262,-127.068 236.507,-123.944 232.791,-120.714"/>
</g>
<!-- 1+2&#45;&gt;5 -->
<g id="edge11" class="edge"><title>1+2&#45;&gt;5</title>
<path fill="none" stroke="black" d="M304,-165.866C304,-160.708 304,-138.766 304,-116.759"/>
</g>
<!-- 1+2&#45;&gt;6 -->
<g id="edge12" class="edge"><title>1+2&#45;&gt;6</title>
<path fill="none" stroke="black" d="M305.539,-166.167C312.523,-162.363 341.841,-146.139 364,-130 367.182,-127.682 370.398,-125.264 373.616,-122.783"/>
</g>
<!-- 1+2&#45;&gt;7 -->
<g id="edge13" class="edge"><title>1+2&#45;&gt;7</title>
<path fill="none" stroke="black" d="M305.79,-167.056C321.315,-167.472 434.475,-169.054 513,-130 516.218,-128.399 519.393,-126.601 522.508,-124.651"/>
</g>
</g>
</svg>
