<?xml version="1.0" encoding="UTF-8" standalone="no"?>
<!DOCTYPE svg PUBLIC "-//W3C//DTD SVG 1.1//EN"
 "http://www.w3.org/Graphics/SVG/1.1/DTD/svg11.dtd">
<!-- Generated by graphviz version 2.36.0 (20140111.2315)
 -->
<!-- Title: family Pages: 1 -->
<svg width="752pt" height="1258pt"
 viewBox="0.00 0.00 752.00 1258.00" xmlns="http://www.w3.org/2000/svg" xmlns:xlink="http://www.w3.org/1999/xlink">
<g id="graph0" class="graph" transform="scale(1 1) rotate(0) translate(4 1254)">
<title>family</title>
<polygon fill="white" stroke="none" points="-4,4 -4,-1254 748,-1254 748,4 -4,4"/>
<!-- 1 -->
<g id="node1" class="node"><title>1</title>
<g id="a_node1"><a xlink:href="http://awoiaf.westeros.org/index.php/Eddard_Stark" xlink:title="Eddard Stark\n263&#45;299" target="_blank">
<polygon fill="white" stroke="black" points="504.25,-325.5 391.75,-325.5 391.75,-212.5 504.25,-212.5 504.25,-325.5"/>
<text text-anchor="middle" x="448" y="-272.8" font-family="Times,serif" font-size="14.00">Eddard Stark</text>
<text text-anchor="middle" x="448" y="-257.8" font-family="Times,serif" font-size="14.00">263&#45;299</text>
</a>
</g>
</g>
<!-- 1+2 -->
<g id="node20" class="node"><title>1+2</title>
<ellipse fill="black" stroke="black" cx="293" cy="-160" rx="1.8" ry="1.8"/>
</g>
<!-- 1&#45;&gt;1+2 -->
<g id="edge1" class="edge"><title>1&#45;&gt;1+2</title>
<path fill="none" stroke="black" d="M391.563,-222.762C380.307,-214.263 368.428,-205.651 357,-198 332.684,-181.721 300.915,-165.09 294.257,-161.647"/>
</g>
<!-- 1+9 -->
<g id="node21" class="node"><title>1+9</title>
<ellipse fill="black" stroke="black" cx="643" cy="-160" rx="1.8" ry="1.8"/>
</g>
<!-- 1&#45;&gt;1+9 -->
<g id="edge3" class="edge"><title>1&#45;&gt;1+9</title>
<path fill="none" stroke="black" stroke-dasharray="5,2" d="M504.289,-231.984C522.74,-220.654 543.511,-208.395 563,-198 594.324,-181.292 634.576,-164.48 641.848,-161.474"/>
</g>
<!-- 10 -->
<g id="node2" class="node"><title>10</title>
<g id="a_node2"><a xlink:href="http://awoiaf.westeros.org/index.php/Rickard_Stark" xlink:title="Rickard Stark\n230&#45;282" target="_blank">
<polygon fill="white" stroke="black" points="550.5,-532 435.5,-532 435.5,-416 550.5,-416 550.5,-532"/>
<text text-anchor="middle" x="493" y="-477.8" font-family="Times,serif" font-size="14.00">Rickard Stark</text>
<text text-anchor="middle" x="493" y="-462.8" font-family="Times,serif" font-size="14.00">230&#45;282</text>
</a>
</g>
</g>
<!-- 10+11 -->
<g id="node22" class="node"><title>10+11</title>
<ellipse fill="black" stroke="black" cx="448" cy="-378" rx="1.8" ry="1.8"/>
</g>
<!-- 10&#45;&gt;10+11 -->
<g id="edge5" class="edge"><title>10&#45;&gt;10+11</title>
<path fill="none" stroke="black" d="M465.656,-415.881C457.411,-398.658 450.077,-383.338 448.372,-379.777"/>
</g>
<!-- 11 -->
<g id="node3" class="node"><title>11</title>
<g id="a_node3"><a xlink:href="http://awoiaf.westeros.org/index.php/Lyarra_Stark" xlink:title="Lyarra Stark\n???&#45;???" target="_blank">
<polygon fill="white" stroke="black" points="453,-676 345,-676 345,-568 453,-568 453,-676"/>
<text text-anchor="middle" x="399" y="-625.8" font-family="Times,serif" font-size="14.00">Lyarra Stark</text>
<text text-anchor="middle" x="399" y="-610.8" font-family="Times,serif" font-size="14.00">???&#45;???</text>
</a>
</g>
</g>
<!-- 11&#45;&gt;10+11 -->
<g id="edge6" class="edge"><title>11&#45;&gt;10+11</title>
<path fill="none" stroke="black" d="M400.139,-567.84C402.422,-525.643 408.775,-465.689 426,-416 431.483,-400.183 444.215,-383.718 447.312,-379.848"/>
</g>
<!-- 188 -->
<g id="node4" class="node"><title>188</title>
<g id="a_node4"><a xlink:href="http://awoiaf.westeros.org/index.php/Edwyle_Stark" xlink:title="Edwyle Stark\n???&#45;???" target="_blank">
<polygon fill="white" stroke="black" points="550.25,-825.5 437.75,-825.5 437.75,-712.5 550.25,-712.5 550.25,-825.5"/>
<text text-anchor="middle" x="494" y="-772.8" font-family="Times,serif" font-size="14.00">Edwyle Stark</text>
<text text-anchor="middle" x="494" y="-757.8" font-family="Times,serif" font-size="14.00">???&#45;???</text>
</a>
</g>
</g>
<!-- 188+189 -->
<g id="node23" class="node"><title>188+189</title>
<ellipse fill="black" stroke="black" cx="494" cy="-622" rx="1.8" ry="1.8"/>
</g>
<!-- 188&#45;&gt;188+189 -->
<g id="edge7" class="edge"><title>188&#45;&gt;188+189</title>
<path fill="none" stroke="black" d="M494,-712.354C494,-674.658 494,-630.526 494,-623.861"/>
</g>
<!-- 189 -->
<g id="node5" class="node"><title>189</title>
<g id="a_node5"><a xlink:href="http://awoiaf.westeros.org/index.php/Marna_Locke" xlink:title="Marna Locke\n???&#45;???" target="_blank">
<polygon fill="white" stroke="black" points="680.5,-825 569.5,-825 569.5,-713 680.5,-713 680.5,-825"/>
<text text-anchor="middle" x="625" y="-772.8" font-family="Times,serif" font-size="14.00">Marna Locke</text>
<text text-anchor="middle" x="625" y="-757.8" font-family="Times,serif" font-size="14.00">???&#45;???</text>
</a>
</g>
</g>
<!-- 189&#45;&gt;188+189 -->
<g id="edge8" class="edge"><title>189&#45;&gt;188+189</title>
<path fill="none" stroke="black" d="M575.101,-712.768C540.973,-674.992 500.844,-630.576 494.783,-623.866"/>
</g>
<!-- 205 -->
<g id="node6" class="node"><title>205</title>
<g id="a_node6"><a xlink:href="http://awoiaf.westeros.org/index.php/Rodrik Stark_(son_of_Beron)" xlink:title="Rodrik Stark\n???&#45;???" target="_blank">
<polygon fill="white" stroke="black" points="431,-1040 323,-1040 323,-932 431,-932 431,-1040"/>
<text text-anchor="middle" x="377" y="-989.8" font-family="Times,serif" font-size="14.00">Rodrik Stark</text>
<text text-anchor="middle" x="377" y="-974.8" font-family="Times,serif" font-size="14.00">???&#45;???</text>
</a>
</g>
</g>
<!-- 205+206 -->
<g id="node24" class="node"><title>205+206</title>
<ellipse fill="black" stroke="black" cx="377" cy="-864" rx="1.8" ry="1.8"/>
</g>
<!-- 205&#45;&gt;205+206 -->
<g id="edge9" class="edge"><title>205&#45;&gt;205+206</title>
<path fill="none" stroke="black" d="M377,-931.667C377,-902.623 377,-871.468 377,-865.882"/>
</g>
<!-- 206 -->
<g id="node7" class="node"><title>206</title>
<g id="a_node7"><a xlink:href="http://awoiaf.westeros.org/index.php/Arya_Flint" xlink:title="Arya Flint\n???&#45;???" target="_blank">
<polygon fill="white" stroke="black" points="304.25,-1030.5 215.75,-1030.5 215.75,-941.5 304.25,-941.5 304.25,-1030.5"/>
<text text-anchor="middle" x="260" y="-989.8" font-family="Times,serif" font-size="14.00">Arya Flint</text>
<text text-anchor="middle" x="260" y="-974.8" font-family="Times,serif" font-size="14.00">???&#45;???</text>
</a>
</g>
</g>
<!-- 206&#45;&gt;205+206 -->
<g id="edge10" class="edge"><title>206&#45;&gt;205+206</title>
<path fill="none" stroke="black" d="M283.198,-941.192C291.71,-927.619 302.191,-913.281 314,-902 334.912,-882.024 368.547,-868.281 375.654,-865.514"/>
</g>
<!-- 184 -->
<g id="node8" class="node"><title>184</title>
<g id="a_node8"><a xlink:href="http://awoiaf.westeros.org/index.php/Willam_Stark" xlink:title="Willam Stark\n???&#45;226" target="_blank">
<polygon fill="white" stroke="black" points="559,-1041 449,-1041 449,-931 559,-931 559,-1041"/>
<text text-anchor="middle" x="504" y="-989.8" font-family="Times,serif" font-size="14.00">Willam Stark</text>
<text text-anchor="middle" x="504" y="-974.8" font-family="Times,serif" font-size="14.00">???&#45;226</text>
</a>
</g>
</g>
<!-- 184+187 -->
<g id="node25" class="node"><title>184+187</title>
<ellipse fill="black" stroke="black" cx="504" cy="-864" rx="1.8" ry="1.8"/>
</g>
<!-- 184&#45;&gt;184+187 -->
<g id="edge11" class="edge"><title>184&#45;&gt;184+187</title>
<path fill="none" stroke="black" d="M504,-930.968C504,-902.103 504,-871.377 504,-865.87"/>
</g>
<!-- 187 -->
<g id="node9" class="node"><title>187</title>
<g id="a_node9"><a xlink:href="http://awoiaf.westeros.org/index.php/Melantha_Blackwood" xlink:title="Melantha Blackwood\n???&#45;???" target="_blank">
<polygon fill="white" stroke="black" points="744.25,-1069.5 577.75,-1069.5 577.75,-902.5 744.25,-902.5 744.25,-1069.5"/>
<text text-anchor="middle" x="661" y="-989.8" font-family="Times,serif" font-size="14.00">Melantha Blackwood</text>
<text text-anchor="middle" x="661" y="-974.8" font-family="Times,serif" font-size="14.00">???&#45;???</text>
</a>
</g>
</g>
<!-- 187&#45;&gt;184+187 -->
<g id="edge12" class="edge"><title>187&#45;&gt;184+187</title>
<path fill="none" stroke="black" d="M577.497,-909.095C574.328,-906.656 571.156,-904.284 568,-902 544.294,-884.845 512.049,-868.899 505.279,-865.615"/>
</g>
<!-- 180 -->
<g id="node10" class="node"><title>180</title>
<g id="a_node10"><a xlink:href="http://awoiaf.westeros.org/index.php/Beron_Stark" xlink:title="Beron Stark\n???&#45;???" target="_blank">
<polygon fill="white" stroke="black" points="430.25,-1249.5 327.75,-1249.5 327.75,-1146.5 430.25,-1146.5 430.25,-1249.5"/>
<text text-anchor="middle" x="379" y="-1201.8" font-family="Times,serif" font-size="14.00">Beron Stark</text>
<text text-anchor="middle" x="379" y="-1186.8" font-family="Times,serif" font-size="14.00">???&#45;???</text>
</a>
</g>
</g>
<!-- 180+181 -->
<g id="node26" class="node"><title>180+181</title>
<ellipse fill="black" stroke="black" cx="440" cy="-1108" rx="1.8" ry="1.8"/>
</g>
<!-- 180&#45;&gt;180+181 -->
<g id="edge13" class="edge"><title>180&#45;&gt;180+181</title>
<path fill="none" stroke="black" d="M414.131,-1146.32C425.995,-1129.2 436.903,-1113.47 439.445,-1109.8"/>
</g>
<!-- 181 -->
<g id="node11" class="node"><title>181</title>
<g id="a_node11"><a xlink:href="http://awoiaf.westeros.org/index.php/Lorra_Royce" xlink:title="Lorra Royce\n???&#45;???" target="_blank">
<polygon fill="white" stroke="black" points="553,-1250 449,-1250 449,-1146 553,-1146 553,-1250"/>
<text text-anchor="middle" x="501" y="-1201.8" font-family="Times,serif" font-size="14.00">Lorra Royce</text>
<text text-anchor="middle" x="501" y="-1186.8" font-family="Times,serif" font-size="14.00">???&#45;???</text>
</a>
</g>
</g>
<!-- 181&#45;&gt;180+181 -->
<g id="edge14" class="edge"><title>181&#45;&gt;180+181</title>
<path fill="none" stroke="black" d="M465.516,-1145.81C453.774,-1128.87 443.045,-1113.39 440.546,-1109.79"/>
</g>
<!-- 3 -->
<g id="node12" class="node"><title>3</title>
<g id="a_node12"><a xlink:href="http://awoiaf.westeros.org/index.php/Robb_Stark" xlink:title="Robb Stark\n283&#45;299" target="_blank">
<polygon fill="white" stroke="black" points="96.25,-109.5 -0.25,-109.5 -0.25,-12.5 96.25,-12.5 96.25,-109.5"/>
<text text-anchor="middle" x="48" y="-64.8" font-family="Times,serif" font-size="14.00">Robb Stark</text>
<text text-anchor="middle" x="48" y="-49.8" font-family="Times,serif" font-size="14.00">283&#45;299</text>
</a>
</g>
</g>
<!-- 4 -->
<g id="node13" class="node"><title>4</title>
<g id="a_node13"><a xlink:href="http://awoiaf.westeros.org/index.php/Sansa_Stark" xlink:title="Sansa Stark\n286&#45;" target="_blank">
<polygon fill="white" stroke="black" points="215.5,-112 114.5,-112 114.5,-10 215.5,-10 215.5,-112"/>
<text text-anchor="middle" x="165" y="-64.8" font-family="Times,serif" font-size="14.00">Sansa Stark</text>
<text text-anchor="middle" x="165" y="-49.8" font-family="Times,serif" font-size="14.00">286&#45;</text>
</a>
</g>
</g>
<!-- 5 -->
<g id="node14" class="node"><title>5</title>
<g id="a_node14"><a xlink:href="http://awoiaf.westeros.org/index.php/Arya_Stark" xlink:title="Arya Stark\n289&#45;" target="_blank">
<polygon fill="white" stroke="black" points="328,-108 234,-108 234,-14 328,-14 328,-108"/>
<text text-anchor="middle" x="281" y="-64.8" font-family="Times,serif" font-size="14.00">Arya Stark</text>
<text text-anchor="middle" x="281" y="-49.8" font-family="Times,serif" font-size="14.00">289&#45;</text>
</a>
</g>
</g>
<!-- 6 -->
<g id="node15" class="node"><title>6</title>
<g id="a_node15"><a xlink:href="http://awoiaf.westeros.org/index.php/Bran_Stark" xlink:title="Brandon Stark\n290&#45;" target="_blank">
<polygon fill="white" stroke="black" points="467.25,-121.5 346.75,-121.5 346.75,-0.5 467.25,-0.5 467.25,-121.5"/>
<text text-anchor="middle" x="407" y="-64.8" font-family="Times,serif" font-size="14.00">Brandon Stark</text>
<text text-anchor="middle" x="407" y="-49.8" font-family="Times,serif" font-size="14.00">290&#45;</text>
</a>
</g>
</g>
<!-- 7 -->
<g id="node16" class="node"><title>7</title>
<g id="a_node16"><a xlink:href="http://awoiaf.westeros.org/index.php/Rickon_Stark" xlink:title="Rickon Stark\n295&#45;" target="_blank">
<polygon fill="white" stroke="black" points="596,-116 486,-116 486,-6 596,-6 596,-116"/>
<text text-anchor="middle" x="541" y="-64.8" font-family="Times,serif" font-size="14.00">Rickon Stark</text>
<text text-anchor="middle" x="541" y="-49.8" font-family="Times,serif" font-size="14.00">295&#45;</text>
</a>
</g>
</g>
<!-- 8 -->
<g id="node17" class="node"><title>8</title>
<g id="a_node17"><a xlink:href="http://awoiaf.westeros.org/index.php/Jon_Snow" xlink:title="Jon Snow\n283&#45;" target="_blank">
<polygon fill="white" stroke="black" points="697.25,-102.5 614.75,-102.5 614.75,-19.5 697.25,-19.5 697.25,-102.5"/>
<text text-anchor="middle" x="656" y="-64.8" font-family="Times,serif" font-size="14.00">Jon Snow</text>
<text text-anchor="middle" x="656" y="-49.8" font-family="Times,serif" font-size="14.00">283&#45;</text>
</a>
</g>
</g>
<!-- 2 -->
<g id="node18" class="node"><title>2</title>
<g id="a_node18"><a xlink:href="http://awoiaf.westeros.org/index.php/Catelyn_Stark" xlink:title="Catelyn Tully\n264&#45;299" target="_blank">
<polygon fill="white" stroke="black" points="348.5,-325 237.5,-325 237.5,-213 348.5,-213 348.5,-325"/>
<text text-anchor="middle" x="293" y="-272.8" font-family="Times,serif" font-size="14.00">Catelyn Tully</text>
<text text-anchor="middle" x="293" y="-257.8" font-family="Times,serif" font-size="14.00">264&#45;299</text>
</a>
</g>
</g>
<!-- 2&#45;&gt;1+2 -->
<g id="edge2" class="edge"><title>2&#45;&gt;1+2</title>
<path fill="none" stroke="black" d="M293,-212.933C293,-189.992 293,-167.437 293,-162.156"/>
</g>
<!-- 9 -->
<g id="node19" class="node"><title>9</title>
<polygon fill="white" stroke="black" points="714,-340 572,-340 572,-198 714,-198 714,-340"/>
<text text-anchor="middle" x="643" y="-272.8" font-family="Times,serif" font-size="14.00">Unknown Woman</text>
<text text-anchor="middle" x="643" y="-257.8" font-family="Times,serif" font-size="14.00">???&#45;???</text>
</g>
<!-- 9&#45;&gt;1+9 -->
<g id="edge4" class="edge"><title>9&#45;&gt;1+9</title>
<path fill="none" stroke="black" stroke-dasharray="5,2" d="M643,-197.823C643,-180.491 643,-165.754 643,-161.952"/>
</g>
<!-- 1+2&#45;&gt;3 -->
<g id="edge21" class="edge"><title>1+2&#45;&gt;3</title>
<path fill="none" stroke="black" d="M291.371,-159.043C277.248,-159.344 174.377,-160.142 105,-122 98.8307,-118.608 92.9348,-114.317 87.4336,-109.594"/>
</g>
<!-- 1+2&#45;&gt;4 -->
<g id="edge22" class="edge"><title>1+2&#45;&gt;4</title>
<path fill="none" stroke="black" d="M291.618,-158.427C284.308,-155.362 249.545,-140.346 225,-122 220.87,-118.913 216.748,-115.549 212.709,-112.041"/>
</g>
<!-- 1+2&#45;&gt;5 -->
<g id="edge23" class="edge"><title>1+2&#45;&gt;5</title>
<path fill="none" stroke="black" d="M292.865,-157.911C292.227,-152.749 289.423,-130.085 286.701,-108.085"/>
</g>
<!-- 1+2&#45;&gt;6 -->
<g id="edge24" class="edge"><title>1+2&#45;&gt;6</title>
<path fill="none" stroke="black" d="M294.092,-158.088C299.052,-153.945 319.957,-136.469 337,-122 340.172,-119.307 343.423,-116.541 346.702,-113.747"/>
</g>
<!-- 1+2&#45;&gt;7 -->
<g id="edge25" class="edge"><title>1+2&#45;&gt;7</title>
<path fill="none" stroke="black" d="M294.568,-158.998C308.17,-158.917 407.306,-157.107 476,-122 479.419,-120.253 482.79,-118.275 486.09,-116.127"/>
</g>
<!-- 1+9&#45;&gt;8 -->
<g id="edge26" class="edge"><title>1+9&#45;&gt;8</title>
<path fill="none" stroke="black" stroke-dasharray="5,2" d="M643.146,-157.911C643.896,-152.312 647.406,-126.121 650.569,-102.522"/>
</g>
<!-- 10+11&#45;&gt;1 -->
<g id="edge15" class="edge"><title>10+11&#45;&gt;1</title>
<path fill="none" stroke="black" d="M448,-375.798C448,-370.472 448,-348.25 448,-325.537"/>
</g>
<!-- 188+189&#45;&gt;10 -->
<g id="edge16" class="edge"><title>188+189&#45;&gt;10</title>
<path fill="none" stroke="black" d="M493.994,-620.068C493.947,-613.219 493.65,-569.907 493.393,-532.376"/>
</g>
<!-- 205+206&#45;&gt;11 -->
<g id="edge17" class="edge"><title>205+206&#45;&gt;11</title>
<path fill="none" stroke="black" d="M377.098,-861.93C378.183,-850.094 388.019,-742.788 394.135,-676.068"/>
</g>
<!-- 184+187&#45;&gt;188 -->
<g id="edge18" class="edge"><title>184+187&#45;&gt;188</title>
<path fill="none" stroke="black" d="M503.888,-861.956C503.452,-857.905 501.808,-842.61 499.981,-825.626"/>
</g>
<!-- 180+181&#45;&gt;205 -->
<g id="edge19" class="edge"><title>180+181&#45;&gt;205</title>
<path fill="none" stroke="black" d="M439.598,-1106.23C436.831,-1100.96 420.275,-1069.43 404.885,-1040.11"/>
</g>
<!-- 180+181&#45;&gt;184 -->
<g id="edge20" class="edge"><title>180+181&#45;&gt;184</title>
<path fill="none" stroke="black" d="M440.409,-1106.23C443.187,-1101.02 459.658,-1070.14 475.139,-1041.11"/>
</g>
</g>
</svg>
