<?xml version="1.0" encoding="UTF-8" standalone="no"?>
<!DOCTYPE svg PUBLIC "-//W3C//DTD SVG 1.1//EN"
 "http://www.w3.org/Graphics/SVG/1.1/DTD/svg11.dtd">
<!-- Generated by graphviz version 2.36.0 (20140111.2315)
 -->
<!-- Title: family Pages: 1 -->
<svg width="356pt" height="560pt"
 viewBox="0.00 0.00 356.00 560.00" xmlns="http://www.w3.org/2000/svg" xmlns:xlink="http://www.w3.org/1999/xlink">
<g id="graph0" class="graph" transform="scale(1 1) rotate(0) translate(4 556)">
<title>family</title>
<polygon fill="white" stroke="none" points="-4,4 -4,-556 352,-556 352,4 -4,4"/>
<!-- 19 -->
<g id="node1" class="node"><title>19</title>
<g id="a_node1"><a xlink:href="/character/display?id=Edmure_Tully" xlink:title="Edmure Tully" target="_blank">
<polygon fill="white" stroke="black" points="276,-122 154,-122 154,7.10543e-15 276,7.10543e-15 276,-122"/>
</a>
</g>
<g id="a_node1_0"><a xlink:href="http://awoiaf.westeros.org/index.php/Edmure_Tully" xlink:title="Edmure Tully" target="_blank">
<text text-anchor="start" x="166.5" y="-64.3" font-family="Times,serif" font-size="14.00">Edmure Tully</text>
<text text-anchor="start" x="199" y="-49.3" font-family="Times,serif" font-size="14.00">267&#45;</text>
</a>
</g>
<g><a xlink:href="/character/display?id=Edmure_Tully" xlink:title="Edmure Tully" target="_blank">
</a>
</g>
</g>
<!-- 12 -->
<g id="node2" class="node"><title>12</title>
<g id="a_node2"><a xlink:href="/character/display?id=Hoster_Tully" xlink:title="Hoster Tully" target="_blank">
<polygon fill="white" stroke="black" points="203.25,-318.5 88.75,-318.5 88.75,-203.5 203.25,-203.5 203.25,-318.5"/>
</a>
</g>
<g id="a_node2_1"><a xlink:href="http://awoiaf.westeros.org/index.php/Hoster_Tully" xlink:title="Hoster Tully" target="_blank">
<text text-anchor="start" x="101.5" y="-264.3" font-family="Times,serif" font-size="14.00">Hoster Tully</text>
<text text-anchor="start" x="117" y="-249.3" font-family="Times,serif" font-size="14.00">237&#45;299</text>
</a>
</g>
<g><a xlink:href="/character/display?id=Hoster_Tully" xlink:title="Hoster Tully" target="_blank">
</a>
</g>
</g>
<!-- 12+13 -->
<g id="node6" class="node"><title>12+13</title>
<ellipse fill="black" stroke="black" cx="215" cy="-160" rx="1.8" ry="1.8"/>
</g>
<!-- 12&#45;&gt;12+13 -->
<g id="edge1" class="edge"><title>12&#45;&gt;12+13</title>
<path fill="none" stroke="black" d="M185.538,-203.272C199.028,-183.917 211.467,-166.069 214.366,-161.909"/>
</g>
<!-- 13 -->
<g id="node3" class="node"><title>13</title>
<g id="a_node3"><a xlink:href="/character/display?id=Minisa_Whent" xlink:title="Minisa Whent" target="_blank">
<polygon fill="white" stroke="black" points="348,-324 222,-324 222,-198 348,-198 348,-324"/>
</a>
</g>
<g id="a_node3_2"><a xlink:href="http://awoiaf.westeros.org/index.php/Minisa_Whent" xlink:title="Minisa Whent" target="_blank">
<text text-anchor="start" x="234.5" y="-264.3" font-family="Times,serif" font-size="14.00">Minisa Whent</text>
<text text-anchor="start" x="255.5" y="-249.3" font-family="Times,serif" font-size="14.00">250&#45;268</text>
</a>
</g>
<g><a xlink:href="/character/display?id=Minisa_Whent" xlink:title="Minisa Whent" target="_blank">
</a>
</g>
</g>
<!-- 13&#45;&gt;12+13 -->
<g id="edge2" class="edge"><title>13&#45;&gt;12+13</title>
<path fill="none" stroke="black" d="M241.065,-197.864C228.759,-180.46 218.033,-165.289 215.543,-161.768"/>
</g>
<!-- 105 -->
<g id="node4" class="node"><title>105</title>
<g id="a_node4"><a xlink:title="Unknown Tully" target="_blank">
<polygon fill="white" stroke="black" points="132.25,-542.5 -0.25,-542.5 -0.25,-409.5 132.25,-409.5 132.25,-542.5"/>
<text text-anchor="start" x="12.5" y="-479.3" font-family="Times,serif" font-size="14.00">Unknown Tully</text>
<text text-anchor="start" x="41.5" y="-464.3" font-family="Times,serif" font-size="14.00">???&#45;???</text>
</a>
</g>
</g>
<!-- 105+106 -->
<g id="node7" class="node"><title>105+106</title>
<ellipse fill="black" stroke="black" cx="146" cy="-362" rx="1.8" ry="1.8"/>
</g>
<!-- 105&#45;&gt;105+106 -->
<g id="edge3" class="edge"><title>105&#45;&gt;105+106</title>
<path fill="none" stroke="black" d="M112.999,-409.201C128.236,-387.869 142.075,-368.495 145.296,-363.985"/>
</g>
<!-- 106 -->
<g id="node5" class="node"><title>106</title>
<g id="a_node5"><a xlink:title="Unknown Woman" target="_blank">
<polygon fill="white" stroke="black" points="301.25,-551.5 150.75,-551.5 150.75,-400.5 301.25,-400.5 301.25,-551.5"/>
<text text-anchor="start" x="163.5" y="-479.3" font-family="Times,serif" font-size="14.00">Unknown Woman</text>
<text text-anchor="start" x="201.5" y="-464.3" font-family="Times,serif" font-size="14.00">???&#45;???</text>
</a>
</g>
</g>
<!-- 106&#45;&gt;105+106 -->
<g id="edge4" class="edge"><title>106&#45;&gt;105+106</title>
<path fill="none" stroke="black" d="M172.639,-400.294C159.798,-382.318 149.033,-367.247 146.543,-363.76"/>
</g>
<!-- 12+13&#45;&gt;19 -->
<g id="edge5" class="edge"><title>12+13&#45;&gt;19</title>
<path fill="none" stroke="black" d="M215,-157.911C215,-153.852 215,-138.973 215,-122.104"/>
</g>
<!-- 105+106&#45;&gt;12 -->
<g id="edge6" class="edge"><title>105+106&#45;&gt;12</title>
<path fill="none" stroke="black" d="M146,-359.888C146,-355.363 146,-337.662 146,-318.53"/>
</g>
</g>
</svg>
