<?xml version="1.0" encoding="UTF-8" standalone="no"?>
<!DOCTYPE svg PUBLIC "-//W3C//DTD SVG 1.1//EN"
 "http://www.w3.org/Graphics/SVG/1.1/DTD/svg11.dtd">
<!-- Generated by graphviz version 2.36.0 (20140111.2315)
 -->
<!-- Title: family Pages: 1 -->
<svg width="578pt" height="574pt"
 viewBox="0.00 0.00 578.00 574.00" xmlns="http://www.w3.org/2000/svg" xmlns:xlink="http://www.w3.org/1999/xlink">
<g id="graph0" class="graph" transform="scale(1 1) rotate(0) translate(4 570)">
<title>family</title>
<polygon fill="white" stroke="none" points="-4,4 -4,-570 574,-570 574,4 -4,4"/>
<!-- hoster -->
<g id="node1" class="node"><title>hoster</title>
<polygon fill="none" stroke="black" points="203.5,-560 98.5,-560 98.5,-454 203.5,-454 203.5,-560"/>
<text text-anchor="middle" x="151" y="-503.3" font-family="Times,serif" font-size="14.00">Hoster Tully</text>
</g>
<!-- hosterandwife -->
<g id="node2" class="node"><title>hosterandwife</title>
<polygon fill="lightgrey" stroke="black" points="216,-411.5 215.75,-411 216,-410.5 216.25,-411 216,-411.5"/>
</g>
<!-- hoster&#45;&gt;hosterandwife -->
<g id="edge1" class="edge"><title>hoster&#45;&gt;hosterandwife</title>
<path fill="none" stroke="black" d="M182,-453.946C182,-431.744 182,-411 182,-411 182,-411 211.883,-411 215.618,-411"/>
</g>
<!-- hosterchildren -->
<g id="node13" class="node"><title>hosterchildren</title>
<polygon fill="lightgrey" stroke="black" points="216,-373.5 215.75,-373 216,-372.5 216.25,-373 216,-373.5"/>
</g>
<!-- hosterandwife&#45;&gt;hosterchildren -->
<g id="edge6" class="edge"><title>hosterandwife&#45;&gt;hosterchildren</title>
<path fill="none" stroke="black" d="M216,-410.34C216,-405.767 216,-378.816 216,-373.802"/>
</g>
<!-- minisa -->
<g id="node3" class="node"><title>minisa</title>
<polygon fill="none" stroke="black" points="339.25,-565.5 222.75,-565.5 222.75,-448.5 339.25,-448.5 339.25,-565.5"/>
<text text-anchor="middle" x="281" y="-503.3" font-family="Times,serif" font-size="14.00">Minisa Whent</text>
</g>
<!-- minisa&#45;&gt;hosterandwife -->
<g id="edge2" class="edge"><title>minisa&#45;&gt;hosterandwife</title>
<path fill="none" stroke="black" d="M247.125,-448.391C247.125,-428.404 247.125,-411 247.125,-411 247.125,-411 219.769,-411 216.35,-411"/>
</g>
<!-- 1 -->
<g id="node4" class="node"><title>1</title>
<polygon fill="none" stroke="black" points="403.25,-335.5 290.75,-335.5 290.75,-222.5 403.25,-222.5 403.25,-335.5"/>
<text text-anchor="middle" x="347" y="-282.8" font-family="Times,serif" font-size="14.00">Eddard Stark</text>
<text text-anchor="middle" x="347" y="-267.8" font-family="Times,serif" font-size="14.00"> 263&#45;299</text>
</g>
<!-- 1+2 -->
<g id="node5" class="node"><title>1+2</title>
<polygon fill="lightgrey" stroke="black" points="281,-185.5 280.75,-185 281,-184.5 281.25,-185 281,-185.5"/>
</g>
<!-- 1&#45;&gt;1+2 -->
<g id="edge3" class="edge"><title>1&#45;&gt;1+2</title>
<path fill="none" stroke="black" d="M309.375,-222.421C309.375,-202.513 309.375,-185 309.375,-185 309.375,-185 284.436,-185 281.319,-185"/>
</g>
<!-- children1+2 -->
<g id="node12" class="node"><title>children1+2</title>
<polygon fill="lightgrey" stroke="black" points="281,-147.5 280.75,-147 281,-146.5 281.25,-147 281,-147.5"/>
</g>
<!-- 1+2&#45;&gt;children1+2 -->
<g id="edge5" class="edge"><title>1+2&#45;&gt;children1+2</title>
<path fill="none" stroke="black" d="M281,-184.34C281,-179.767 281,-152.816 281,-147.802"/>
</g>
<!-- 2 -->
<g id="node6" class="node"><title>2</title>
<polygon fill="none" stroke="black" points="271.5,-335 160.5,-335 160.5,-223 271.5,-223 271.5,-335"/>
<text text-anchor="middle" x="216" y="-282.8" font-family="Times,serif" font-size="14.00">Catelyn Tully</text>
<text text-anchor="middle" x="216" y="-267.8" font-family="Times,serif" font-size="14.00"> 263&#45;299</text>
</g>
<!-- 2&#45;&gt;1+2 -->
<g id="edge4" class="edge"><title>2&#45;&gt;1+2</title>
<path fill="none" stroke="black" d="M252.75,-222.962C252.75,-202.832 252.75,-185 252.75,-185 252.75,-185 277.579,-185 280.683,-185"/>
</g>
<!-- 3 -->
<g id="node7" class="node"><title>3</title>
<polygon fill="none" stroke="black" points="96.25,-103.5 -0.25,-103.5 -0.25,-6.5 96.25,-6.5 96.25,-103.5"/>
<text text-anchor="middle" x="48" y="-51.3" font-family="Times,serif" font-size="14.00">Robb Stark</text>
</g>
<!-- 4 -->
<g id="node8" class="node"><title>4</title>
<polygon fill="none" stroke="black" points="215.5,-106 114.5,-106 114.5,-4 215.5,-4 215.5,-106"/>
<text text-anchor="middle" x="165" y="-51.3" font-family="Times,serif" font-size="14.00">Sansa Stark</text>
</g>
<!-- 5 -->
<g id="node9" class="node"><title>5</title>
<polygon fill="none" stroke="black" points="328,-102 234,-102 234,-8 328,-8 328,-102"/>
<text text-anchor="middle" x="281" y="-51.3" font-family="Times,serif" font-size="14.00">Arya Stark</text>
</g>
<!-- 6 -->
<g id="node10" class="node"><title>6</title>
<polygon fill="none" stroke="black" points="441.25,-102.5 346.75,-102.5 346.75,-7.5 441.25,-7.5 441.25,-102.5"/>
<text text-anchor="middle" x="394" y="-51.3" font-family="Times,serif" font-size="14.00">Bran Stark</text>
</g>
<!-- 7 -->
<g id="node11" class="node"><title>7</title>
<polygon fill="none" stroke="black" points="570,-110 460,-110 460,-7.10543e-15 570,-7.10543e-15 570,-110"/>
<text text-anchor="middle" x="515" y="-51.3" font-family="Times,serif" font-size="14.00">Rickon Stark</text>
</g>
<!-- children1+2&#45;&gt;3 -->
<g id="edge8" class="edge"><title>children1+2&#45;&gt;3</title>
<path fill="none" stroke="black" d="M280.332,-147C266.665,-147 48,-147 48,-147 48,-147 48,-125.762 48,-103.694"/>
</g>
<!-- children1+2&#45;&gt;4 -->
<g id="edge9" class="edge"><title>children1+2&#45;&gt;4</title>
<path fill="none" stroke="black" d="M280.933,-146C278.116,-146 188,-146 188,-146 188,-146 188,-126.829 188,-106.086"/>
</g>
<!-- children1+2&#45;&gt;5 -->
<g id="edge10" class="edge"><title>children1+2&#45;&gt;5</title>
<path fill="none" stroke="black" d="M281,-146.413C281,-142.755 281,-122.593 281,-102.133"/>
</g>
<!-- children1+2&#45;&gt;6 -->
<g id="edge11" class="edge"><title>children1+2&#45;&gt;6</title>
<path fill="none" stroke="black" d="M281.068,-146C283.915,-146 375,-146 375,-146 375,-146 375,-124.65 375,-102.632"/>
</g>
<!-- children1+2&#45;&gt;7 -->
<g id="edge12" class="edge"><title>children1+2&#45;&gt;7</title>
<path fill="none" stroke="black" d="M281.38,-147C291.84,-147 515,-147 515,-147 515,-147 515,-129.704 515,-110.11"/>
</g>
<!-- hosterchildren&#45;&gt;2 -->
<g id="edge7" class="edge"><title>hosterchildren&#45;&gt;2</title>
<path fill="none" stroke="black" d="M216,-372.4C216,-369.147 216,-353.123 216,-335.241"/>
</g>
</g>
</svg>
