<?xml version="1.0" encoding="UTF-8" standalone="no"?>
<!DOCTYPE svg PUBLIC "-//W3C//DTD SVG 1.1//EN"
 "http://www.w3.org/Graphics/SVG/1.1/DTD/svg11.dtd">
<!-- Generated by graphviz version 2.36.0 (20140111.2315)
 -->
<!-- Title: family Pages: 1 -->
<svg width="604pt" height="320pt"
 viewBox="0.00 0.00 604.00 320.00" xmlns="http://www.w3.org/2000/svg" xmlns:xlink="http://www.w3.org/1999/xlink">
<g id="graph0" class="graph" transform="scale(1 1) rotate(0) translate(4 316)">
<title>family</title>
<polygon fill="white" stroke="none" points="-4,4 -4,-316 600,-316 600,4 -4,4"/>
<!-- 1 -->
<g id="node1" class="node"><title>1</title>
<g id="a_node1"><a xlink:href="http://www.google.com" xlink:title="Eddard Stark">
<polygon fill="none" stroke="black" points="272.25,-311.5 159.75,-311.5 159.75,-198.5 272.25,-198.5 272.25,-311.5"/>
<text text-anchor="middle" x="216" y="-251.3" font-family="Times,serif" font-size="14.00">Eddard Stark</text>
</a>
</g>
</g>
<!-- 1+2 -->
<g id="node8" class="node"><title>1+2</title>
<ellipse fill="black" stroke="black" cx="281" cy="-160" rx="1.8" ry="1.8"/>
</g>
<!-- 1&#45;&gt;1+2 -->
<g id="edge1" class="edge"><title>1&#45;&gt;1+2</title>
<path fill="none" stroke="black" d="M254.937,-198.291C267.049,-180.96 277.92,-165.407 280.448,-161.79"/>
</g>
<!-- 2 -->
<g id="node2" class="node"><title>2</title>
<g id="a_node2"><a xlink:href="http://www.google.com" xlink:title="Catelyn Tully">
<polygon fill="none" stroke="black" points="402.5,-311 291.5,-311 291.5,-199 402.5,-199 402.5,-311"/>
<text text-anchor="middle" x="347" y="-251.3" font-family="Times,serif" font-size="14.00">Catelyn Tully</text>
</a>
</g>
</g>
<!-- 2&#45;&gt;1+2 -->
<g id="edge2" class="edge"><title>2&#45;&gt;1+2</title>
<path fill="none" stroke="black" d="M307.845,-198.827C295.409,-181.304 284.183,-165.485 281.571,-161.804"/>
</g>
<!-- 3 -->
<g id="node3" class="node"><title>3</title>
<g id="a_node3"><a xlink:href="http://www.google.com" xlink:title="Robb Stark">
<polygon fill="none" stroke="black" points="96.25,-109.5 -0.25,-109.5 -0.25,-12.5 96.25,-12.5 96.25,-109.5"/>
<text text-anchor="middle" x="48" y="-57.3" font-family="Times,serif" font-size="14.00">Robb Stark</text>
</a>
</g>
</g>
<!-- 4 -->
<g id="node4" class="node"><title>4</title>
<g id="a_node4"><a xlink:href="http://www.google.com" xlink:title="Sansa Stark">
<polygon fill="none" stroke="black" points="215.5,-112 114.5,-112 114.5,-10 215.5,-10 215.5,-112"/>
<text text-anchor="middle" x="165" y="-57.3" font-family="Times,serif" font-size="14.00">Sansa Stark</text>
</a>
</g>
</g>
<!-- 5 -->
<g id="node5" class="node"><title>5</title>
<g id="a_node5"><a xlink:href="http://www.google.com" xlink:title="Arya Stark">
<polygon fill="none" stroke="black" points="328,-108 234,-108 234,-14 328,-14 328,-108"/>
<text text-anchor="middle" x="281" y="-57.3" font-family="Times,serif" font-size="14.00">Arya Stark</text>
</a>
</g>
</g>
<!-- 6 -->
<g id="node6" class="node"><title>6</title>
<g id="a_node6"><a xlink:href="http://www.google.com" xlink:title="Brandon Stark">
<polygon fill="none" stroke="black" points="467.25,-121.5 346.75,-121.5 346.75,-0.5 467.25,-0.5 467.25,-121.5"/>
<text text-anchor="middle" x="407" y="-57.3" font-family="Times,serif" font-size="14.00">Brandon Stark</text>
</a>
</g>
</g>
<!-- 7 -->
<g id="node7" class="node"><title>7</title>
<g id="a_node7"><a xlink:href="http://www.google.com" xlink:title="Rickon Stark">
<polygon fill="none" stroke="black" points="596,-116 486,-116 486,-6 596,-6 596,-116"/>
<text text-anchor="middle" x="541" y="-57.3" font-family="Times,serif" font-size="14.00">Rickon Stark</text>
</a>
</g>
</g>
<!-- 1+2&#45;&gt;3 -->
<g id="edge3" class="edge"><title>1+2&#45;&gt;3</title>
<path fill="none" stroke="black" d="M279.474,-159.014C266.245,-159.073 169.887,-158.22 105,-122 98.8527,-118.569 92.9703,-114.252 87.4768,-109.516"/>
</g>
<!-- 1+2&#45;&gt;4 -->
<g id="edge4" class="edge"><title>1+2&#45;&gt;4</title>
<path fill="none" stroke="black" d="M279.542,-158.184C272.93,-154.455 245.22,-138.507 225,-122 221.234,-118.926 217.442,-115.647 213.693,-112.268"/>
</g>
<!-- 1+2&#45;&gt;5 -->
<g id="edge5" class="edge"><title>1+2&#45;&gt;5</title>
<path fill="none" stroke="black" d="M281,-157.911C281,-152.749 281,-130.085 281,-108.085"/>
</g>
<!-- 1+2&#45;&gt;6 -->
<g id="edge6" class="edge"><title>1+2&#45;&gt;6</title>
<path fill="none" stroke="black" d="M282.429,-158.147C288.915,-154.258 316.162,-137.718 337,-122 340.195,-119.59 343.433,-117.079 346.676,-114.509"/>
</g>
<!-- 1+2&#45;&gt;7 -->
<g id="edge7" class="edge"><title>1+2&#45;&gt;7</title>
<path fill="none" stroke="black" d="M282.67,-159.024C297.157,-159.166 402.751,-158.883 476,-122 479.429,-120.273 482.808,-118.312 486.115,-116.177"/>
</g>
</g>
</svg>
