<?xml version="1.0" encoding="UTF-8" standalone="no"?>
<!DOCTYPE svg PUBLIC "-//W3C//DTD SVG 1.1//EN"
 "http://www.w3.org/Graphics/SVG/1.1/DTD/svg11.dtd">
<!-- Generated by graphviz version 2.36.0 (20140111.2315)
 -->
<!-- Title: family Pages: 1 -->
<svg width="3024pt" height="676pt"
 viewBox="0.00 0.00 3024.00 676.00" xmlns="http://www.w3.org/2000/svg" xmlns:xlink="http://www.w3.org/1999/xlink">
<g id="graph0" class="graph" transform="scale(1 1) rotate(0) translate(4 672)">
<title>family</title>
<polygon fill="white" stroke="none" points="-4,4 -4,-672 3020,-672 3020,4 -4,4"/>
<!-- 1 -->
<g id="node1" class="node"><title>1</title>
<g id="a_node1"><a xlink:href="http://awoiaf.westeros.org/index.php/Eddard_Stark" xlink:title="Eddard Stark\n263&#45;299" target="_blank">
<polygon fill="none" stroke="black" points="1119.25,-382.5 1006.75,-382.5 1006.75,-269.5 1119.25,-269.5 1119.25,-382.5"/>
<text text-anchor="middle" x="1063" y="-329.8" font-family="Times,serif" font-size="14.00">Eddard Stark</text>
<text text-anchor="middle" x="1063" y="-314.8" font-family="Times,serif" font-size="14.00">263&#45;299</text>
</a>
</g>
</g>
<!-- 1+2 -->
<g id="node43" class="node"><title>1+2</title>
<ellipse fill="black" stroke="black" cx="773" cy="-216" rx="1.8" ry="1.8"/>
</g>
<!-- 1&#45;&gt;1+2 -->
<g id="edge1" class="edge"><title>1&#45;&gt;1+2</title>
<path fill="none" stroke="black" d="M1018.75,-269.485C1012.01,-263.528 1004.71,-258.14 997,-254 954.982,-231.437 792.234,-218.468 774.559,-217.117"/>
</g>
<!-- 1+9 -->
<g id="node44" class="node"><title>1+9</title>
<ellipse fill="black" stroke="black" cx="1209" cy="-216" rx="1.8" ry="1.8"/>
</g>
<!-- 1&#45;&gt;1+9 -->
<g id="edge3" class="edge"><title>1&#45;&gt;1+9</title>
<path fill="none" stroke="black" stroke-dasharray="5,2" d="M1110.72,-269.23C1116.59,-263.75 1122.73,-258.546 1129,-254 1157.74,-233.155 1200.09,-219.704 1207.78,-217.365"/>
</g>
<!-- 2 -->
<g id="node2" class="node"><title>2</title>
<g id="a_node2"><a xlink:href="http://awoiaf.westeros.org/index.php/Catelyn_Stark" xlink:title="Catelyn Tully\n264&#45;299" target="_blank">
<polygon fill="none" stroke="black" points="785.5,-382 674.5,-382 674.5,-270 785.5,-270 785.5,-382"/>
<text text-anchor="middle" x="730" y="-329.8" font-family="Times,serif" font-size="14.00">Catelyn Tully</text>
<text text-anchor="middle" x="730" y="-314.8" font-family="Times,serif" font-size="14.00">264&#45;299</text>
</a>
</g>
</g>
<!-- 2&#45;&gt;1+2 -->
<g id="edge2" class="edge"><title>2&#45;&gt;1+2</title>
<path fill="none" stroke="black" d="M752.004,-269.734C761.261,-246.484 770.393,-223.547 772.532,-218.176"/>
</g>
<!-- 3 -->
<g id="node3" class="node"><title>3</title>
<g id="a_node3"><a xlink:href="http://awoiaf.westeros.org/index.php/Robb_Stark" xlink:title="Robb Stark\n283&#45;299" target="_blank">
<polygon fill="none" stroke="black" points="419.25,-157.5 322.75,-157.5 322.75,-60.5 419.25,-60.5 419.25,-157.5"/>
<text text-anchor="middle" x="371" y="-112.8" font-family="Times,serif" font-size="14.00">Robb Stark</text>
<text text-anchor="middle" x="371" y="-97.8" font-family="Times,serif" font-size="14.00">283&#45;299</text>
</a>
</g>
</g>
<!-- 3+18 -->
<g id="node45" class="node"><title>3+18</title>
<ellipse fill="black" stroke="black" cx="503" cy="-2" rx="1.8" ry="1.8"/>
</g>
<!-- 3&#45;&gt;3+18 -->
<g id="edge5" class="edge"><title>3&#45;&gt;3+18</title>
<path fill="none" stroke="black" d="M407.39,-60.2495C414.116,-52.9756 421.424,-45.9296 429,-40 454.789,-19.8145 493.339,-6.23555 501.463,-3.50663"/>
</g>
<!-- 4 -->
<g id="node4" class="node"><title>4</title>
<g id="a_node4"><a xlink:href="http://awoiaf.westeros.org/index.php/Sansa_Stark" xlink:title="Sansa Stark\n286&#45;" target="_blank">
<polygon fill="none" stroke="black" points="823.5,-160 722.5,-160 722.5,-58 823.5,-58 823.5,-160"/>
<text text-anchor="middle" x="773" y="-112.8" font-family="Times,serif" font-size="14.00">Sansa Stark</text>
<text text-anchor="middle" x="773" y="-97.8" font-family="Times,serif" font-size="14.00">286&#45;</text>
</a>
</g>
</g>
<!-- 17+4 -->
<g id="node48" class="node"><title>17+4</title>
<ellipse fill="black" stroke="black" cx="841" cy="-2" rx="1.8" ry="1.8"/>
</g>
<!-- 4&#45;&gt;17+4 -->
<g id="edge12" class="edge"><title>4&#45;&gt;17+4</title>
<path fill="none" stroke="black" d="M805.407,-57.9601C820.732,-34.2967 836.489,-9.96543 840.189,-4.25235"/>
</g>
<!-- 5 -->
<g id="node5" class="node"><title>5</title>
<g id="a_node5"><a xlink:href="http://awoiaf.westeros.org/index.php/Arya_Stark" xlink:title="Arya Stark\n289&#45;" target="_blank">
<polygon fill="none" stroke="black" points="1090,-156 996,-156 996,-62 1090,-62 1090,-156"/>
<text text-anchor="middle" x="1043" y="-112.8" font-family="Times,serif" font-size="14.00">Arya Stark</text>
<text text-anchor="middle" x="1043" y="-97.8" font-family="Times,serif" font-size="14.00">289&#45;</text>
</a>
</g>
</g>
<!-- 6 -->
<g id="node6" class="node"><title>6</title>
<g id="a_node6"><a xlink:href="http://awoiaf.westeros.org/index.php/Bran_Stark" xlink:title="Brandon Stark\n290&#45;" target="_blank">
<polygon fill="none" stroke="black" points="1229.25,-169.5 1108.75,-169.5 1108.75,-48.5 1229.25,-48.5 1229.25,-169.5"/>
<text text-anchor="middle" x="1169" y="-112.8" font-family="Times,serif" font-size="14.00">Brandon Stark</text>
<text text-anchor="middle" x="1169" y="-97.8" font-family="Times,serif" font-size="14.00">290&#45;</text>
</a>
</g>
</g>
<!-- 7 -->
<g id="node7" class="node"><title>7</title>
<g id="a_node7"><a xlink:href="http://awoiaf.westeros.org/index.php/Rickon_Stark" xlink:title="Rickon Stark\n295&#45;" target="_blank">
<polygon fill="none" stroke="black" points="548,-164 438,-164 438,-54 548,-54 548,-164"/>
<text text-anchor="middle" x="493" y="-112.8" font-family="Times,serif" font-size="14.00">Rickon Stark</text>
<text text-anchor="middle" x="493" y="-97.8" font-family="Times,serif" font-size="14.00">295&#45;</text>
</a>
</g>
</g>
<!-- 8 -->
<g id="node8" class="node"><title>8</title>
<g id="a_node8"><a xlink:href="http://awoiaf.westeros.org/index.php/Jon_Snow" xlink:title="Jon Snow\n283&#45;" target="_blank">
<polygon fill="none" stroke="black" points="1330.25,-150.5 1247.75,-150.5 1247.75,-67.5 1330.25,-67.5 1330.25,-150.5"/>
<text text-anchor="middle" x="1289" y="-112.8" font-family="Times,serif" font-size="14.00">Jon Snow</text>
<text text-anchor="middle" x="1289" y="-97.8" font-family="Times,serif" font-size="14.00">283&#45;</text>
</a>
</g>
</g>
<!-- 9 -->
<g id="node9" class="node"><title>9</title>
<polygon fill="none" stroke="black" points="1280,-397 1138,-397 1138,-255 1280,-255 1280,-397"/>
<text text-anchor="middle" x="1209" y="-329.8" font-family="Times,serif" font-size="14.00">Unknown Woman</text>
<text text-anchor="middle" x="1209" y="-314.8" font-family="Times,serif" font-size="14.00">???&#45;???</text>
</g>
<!-- 9&#45;&gt;1+9 -->
<g id="edge4" class="edge"><title>9&#45;&gt;1+9</title>
<path fill="none" stroke="black" stroke-dasharray="5,2" d="M1209,-254.773C1209,-237.046 1209,-221.891 1209,-217.979"/>
</g>
<!-- 10 -->
<g id="node10" class="node"><title>10</title>
<g id="a_node10"><a xlink:href="http://awoiaf.westeros.org/index.php/Rickard_Stark" xlink:title="Rickard Stark\n230&#45;282" target="_blank">
<polygon fill="none" stroke="black" points="1201.5,-629 1086.5,-629 1086.5,-513 1201.5,-513 1201.5,-629"/>
<text text-anchor="middle" x="1144" y="-574.8" font-family="Times,serif" font-size="14.00">Rickard Stark</text>
<text text-anchor="middle" x="1144" y="-559.8" font-family="Times,serif" font-size="14.00">230&#45;282</text>
</a>
</g>
</g>
<!-- 10+11 -->
<g id="node46" class="node"><title>10+11</title>
<ellipse fill="black" stroke="black" cx="1209" cy="-436" rx="1.8" ry="1.8"/>
</g>
<!-- 10&#45;&gt;10+11 -->
<g id="edge7" class="edge"><title>10&#45;&gt;10+11</title>
<path fill="none" stroke="black" d="M1171.94,-512.824C1187.91,-480.156 1205.37,-444.425 1208.5,-438.013"/>
</g>
<!-- 11 -->
<g id="node11" class="node"><title>11</title>
<g id="a_node11"><a xlink:href="http://awoiaf.westeros.org/index.php/Lyarra_Stark" xlink:title="Lyarra Stark\n???&#45;???" target="_blank">
<polygon fill="none" stroke="black" points="1328,-625 1220,-625 1220,-517 1328,-517 1328,-625"/>
<text text-anchor="middle" x="1274" y="-574.8" font-family="Times,serif" font-size="14.00">Lyarra Stark</text>
<text text-anchor="middle" x="1274" y="-559.8" font-family="Times,serif" font-size="14.00">???&#45;???</text>
</a>
</g>
</g>
<!-- 11&#45;&gt;10+11 -->
<g id="edge8" class="edge"><title>11&#45;&gt;10+11</title>
<path fill="none" stroke="black" d="M1247.94,-516.67C1231.55,-483.137 1212.89,-444.951 1209.53,-438.085"/>
</g>
<!-- 12 -->
<g id="node12" class="node"><title>12</title>
<g id="a_node12"><a xlink:href="http://awoiaf.westeros.org/index.php/Hoster_Tully" xlink:title="Hoster Tully\n237&#45;299" target="_blank">
<polygon fill="none" stroke="black" points="384.5,-624 279.5,-624 279.5,-518 384.5,-518 384.5,-624"/>
<text text-anchor="middle" x="332" y="-574.8" font-family="Times,serif" font-size="14.00">Hoster Tully</text>
<text text-anchor="middle" x="332" y="-559.8" font-family="Times,serif" font-size="14.00">237&#45;299</text>
</a>
</g>
</g>
<!-- 12+13 -->
<g id="node47" class="node"><title>12+13</title>
<ellipse fill="black" stroke="black" cx="397" cy="-436" rx="1.8" ry="1.8"/>
</g>
<!-- 12&#45;&gt;12+13 -->
<g id="edge9" class="edge"><title>12&#45;&gt;12+13</title>
<path fill="none" stroke="black" d="M357.503,-517.817C374.291,-483.467 393.693,-443.767 396.622,-437.774"/>
</g>
<!-- 13 -->
<g id="node13" class="node"><title>13</title>
<g id="a_node13"><a xlink:href="http://awoiaf.westeros.org/index.php/Minisa_Whent" xlink:title="Minisa Whent\n250&#45;268" target="_blank">
<polygon fill="none" stroke="black" points="520.25,-629.5 403.75,-629.5 403.75,-512.5 520.25,-512.5 520.25,-629.5"/>
<text text-anchor="middle" x="462" y="-574.8" font-family="Times,serif" font-size="14.00">Minisa Whent</text>
<text text-anchor="middle" x="462" y="-559.8" font-family="Times,serif" font-size="14.00">250&#45;268</text>
</a>
</g>
</g>
<!-- 13&#45;&gt;12+13 -->
<g id="edge10" class="edge"><title>13&#45;&gt;12+13</title>
<path fill="none" stroke="black" d="M433.868,-512.438C417.948,-479.863 400.604,-444.374 397.492,-438.006"/>
</g>
<!-- 14 -->
<g id="node14" class="node"><title>14</title>
<g id="a_node14"><a xlink:href="http://awoiaf.westeros.org/index.php/Lyanna_Stark" xlink:title="Lyanna Stark\n266&#45;283" target="_blank">
<polygon fill="none" stroke="black" points="1411.25,-382.5 1298.75,-382.5 1298.75,-269.5 1411.25,-269.5 1411.25,-382.5"/>
<text text-anchor="middle" x="1355" y="-329.8" font-family="Times,serif" font-size="14.00">Lyanna Stark</text>
<text text-anchor="middle" x="1355" y="-314.8" font-family="Times,serif" font-size="14.00">266&#45;283</text>
</a>
</g>
</g>
<!-- 15 -->
<g id="node15" class="node"><title>15</title>
<g id="a_node15"><a xlink:href="http://awoiaf.westeros.org/index.php/Benjen_Stark" xlink:title="Benjen Stark\n267&#45;" target="_blank">
<polygon fill="none" stroke="black" points="1540,-381 1430,-381 1430,-271 1540,-271 1540,-381"/>
<text text-anchor="middle" x="1485" y="-329.8" font-family="Times,serif" font-size="14.00">Benjen Stark</text>
<text text-anchor="middle" x="1485" y="-314.8" font-family="Times,serif" font-size="14.00">267&#45;</text>
</a>
</g>
</g>
<!-- 16 -->
<g id="node16" class="node"><title>16</title>
<g id="a_node16"><a xlink:href="http://awoiaf.westeros.org/index.php/Brandon_Stark" xlink:title="Brandon Stark\n262&#45;282" target="_blank">
<polygon fill="none" stroke="black" points="988.25,-386.5 867.75,-386.5 867.75,-265.5 988.25,-265.5 988.25,-386.5"/>
<text text-anchor="middle" x="928" y="-329.8" font-family="Times,serif" font-size="14.00">Brandon Stark</text>
<text text-anchor="middle" x="928" y="-314.8" font-family="Times,serif" font-size="14.00">262&#45;282</text>
</a>
</g>
</g>
<!-- 17 -->
<g id="node17" class="node"><title>17</title>
<g id="a_node17"><a xlink:href="http://awoiaf.westeros.org/index.php/Tyrion_Lannister" xlink:title="Tyrion Lannister\n273&#45;" target="_blank">
<polygon fill="none" stroke="black" points="978,-177 842,-177 842,-41 978,-41 978,-177"/>
<text text-anchor="middle" x="910" y="-112.8" font-family="Times,serif" font-size="14.00">Tyrion Lannister</text>
<text text-anchor="middle" x="910" y="-97.8" font-family="Times,serif" font-size="14.00">273&#45;</text>
</a>
</g>
</g>
<!-- 17&#45;&gt;17+4 -->
<g id="edge11" class="edge"><title>17&#45;&gt;17+4</title>
<path fill="none" stroke="black" d="M865.911,-40.9074C854.078,-22.9014 843.88,-7.38304 841.516,-3.7848"/>
</g>
<!-- 18 -->
<g id="node18" class="node"><title>18</title>
<g id="a_node18"><a xlink:href="http://awoiaf.westeros.org/index.php/Jeyne_Westerling" xlink:title="Jeyne Westerling\n283&#45;" target="_blank">
<polygon fill="none" stroke="black" points="704,-178 566,-178 566,-40 704,-40 704,-178"/>
<text text-anchor="middle" x="635" y="-112.8" font-family="Times,serif" font-size="14.00">Jeyne Westerling</text>
<text text-anchor="middle" x="635" y="-97.8" font-family="Times,serif" font-size="14.00">283&#45;</text>
</a>
</g>
</g>
<!-- 18&#45;&gt;3+18 -->
<g id="edge6" class="edge"><title>18&#45;&gt;3+18</title>
<path fill="none" stroke="black" d="M565.597,-46.7886C562.714,-44.4708 559.841,-42.1997 557,-40 536.872,-24.415 510.624,-7.77562 504.377,-3.8593"/>
</g>
<!-- 19 -->
<g id="node19" class="node"><title>19</title>
<g id="a_node19"><a xlink:href="http://awoiaf.westeros.org/index.php/Edmure_Tully" xlink:title="Edmure Tully\n267&#45;" target="_blank">
<polygon fill="none" stroke="black" points="229.25,-382.5 116.75,-382.5 116.75,-269.5 229.25,-269.5 229.25,-382.5"/>
<text text-anchor="middle" x="173" y="-329.8" font-family="Times,serif" font-size="14.00">Edmure Tully</text>
<text text-anchor="middle" x="173" y="-314.8" font-family="Times,serif" font-size="14.00">267&#45;</text>
</a>
</g>
</g>
<!-- 19+21 -->
<g id="node49" class="node"><title>19+21</title>
<ellipse fill="black" stroke="black" cx="111" cy="-216" rx="1.8" ry="1.8"/>
</g>
<!-- 19&#45;&gt;19+21 -->
<g id="edge13" class="edge"><title>19&#45;&gt;19+21</title>
<path fill="none" stroke="black" d="M141.092,-269.418C127.799,-246.263 114.73,-223.497 111.67,-218.167"/>
</g>
<!-- 20 -->
<g id="node20" class="node"><title>20</title>
<g id="a_node20"><a xlink:href="http://awoiaf.westeros.org/index.php/Lysa_Arryn" xlink:title="Lysa Tully\n266&#45;300" target="_blank">
<polygon fill="none" stroke="black" points="442,-371 352,-371 352,-281 442,-281 442,-371"/>
<text text-anchor="middle" x="397" y="-329.8" font-family="Times,serif" font-size="14.00">Lysa Tully</text>
<text text-anchor="middle" x="397" y="-314.8" font-family="Times,serif" font-size="14.00">266&#45;300</text>
</a>
</g>
</g>
<!-- 22+20 -->
<g id="node50" class="node"><title>22+20</title>
<ellipse fill="black" stroke="black" cx="291" cy="-216" rx="1.8" ry="1.8"/>
</g>
<!-- 20&#45;&gt;22+20 -->
<g id="edge16" class="edge"><title>20&#45;&gt;22+20</title>
<path fill="none" stroke="black" d="M366.7,-280.831C359.432,-271.521 351.342,-262.081 343,-254 325.174,-236.732 298.731,-221.355 292.399,-217.78"/>
</g>
<!-- 24+20 -->
<g id="node51" class="node"><title>24+20</title>
<ellipse fill="black" stroke="black" cx="456" cy="-216" rx="1.8" ry="1.8"/>
</g>
<!-- 20&#45;&gt;24+20 -->
<g id="edge18" class="edge"><title>20&#45;&gt;24+20</title>
<path fill="none" stroke="black" d="M421.168,-280.761C435.934,-253.731 452.544,-223.327 455.528,-217.863"/>
</g>
<!-- 21 -->
<g id="node21" class="node"><title>21</title>
<g id="a_node21"><a xlink:href="http://awoiaf.westeros.org/index.php/Roslin_Frey" xlink:title="Roslin Frey\n282&#45;" target="_blank">
<polygon fill="none" stroke="black" points="97.5,-375 0.5,-375 0.5,-277 97.5,-277 97.5,-375"/>
<text text-anchor="middle" x="49" y="-329.8" font-family="Times,serif" font-size="14.00">Roslin Frey</text>
<text text-anchor="middle" x="49" y="-314.8" font-family="Times,serif" font-size="14.00">282&#45;</text>
</a>
</g>
</g>
<!-- 21&#45;&gt;19+21 -->
<g id="edge14" class="edge"><title>21&#45;&gt;19+21</title>
<path fill="none" stroke="black" d="M76.7359,-276.686C91.6961,-250.626 107.682,-222.78 110.547,-217.788"/>
</g>
<!-- 22 -->
<g id="node22" class="node"><title>22</title>
<g id="a_node22"><a xlink:href="http://awoiaf.westeros.org/index.php/Jon_Arryn" xlink:title="Jon Arryn\n217&#45;298" target="_blank">
<polygon fill="none" stroke="black" points="334,-369 248,-369 248,-283 334,-283 334,-369"/>
<text text-anchor="middle" x="291" y="-329.8" font-family="Times,serif" font-size="14.00">Jon Arryn</text>
<text text-anchor="middle" x="291" y="-314.8" font-family="Times,serif" font-size="14.00">217&#45;298</text>
</a>
</g>
</g>
<!-- 22&#45;&gt;22+20 -->
<g id="edge15" class="edge"><title>22&#45;&gt;22+20</title>
<path fill="none" stroke="black" d="M291,-282.935C291,-255.453 291,-223.631 291,-217.905"/>
</g>
<!-- 23 -->
<g id="node23" class="node"><title>23</title>
<g id="a_node23"><a xlink:href="http://awoiaf.westeros.org/index.php/Robert_Arryn" xlink:title="Robert Arryn\n292&#45;" target="_blank">
<polygon fill="none" stroke="black" points="304.25,-164.5 193.75,-164.5 193.75,-53.5 304.25,-53.5 304.25,-164.5"/>
<text text-anchor="middle" x="249" y="-112.8" font-family="Times,serif" font-size="14.00">Robert Arryn</text>
<text text-anchor="middle" x="249" y="-97.8" font-family="Times,serif" font-size="14.00">292&#45;</text>
</a>
</g>
</g>
<!-- 24 -->
<g id="node24" class="node"><title>24</title>
<g id="a_node24"><a xlink:href="http://awoiaf.westeros.org/index.php/Petyr_Baelish" xlink:title="Petyr Baelish\n268&#45;" target="_blank">
<polygon fill="none" stroke="black" points="571.5,-382 460.5,-382 460.5,-270 571.5,-270 571.5,-382"/>
<text text-anchor="middle" x="516" y="-329.8" font-family="Times,serif" font-size="14.00">Petyr Baelish</text>
<text text-anchor="middle" x="516" y="-314.8" font-family="Times,serif" font-size="14.00">268&#45;</text>
</a>
</g>
</g>
<!-- 24&#45;&gt;24+20 -->
<g id="edge17" class="edge"><title>24&#45;&gt;24+20</title>
<path fill="none" stroke="black" d="M485.297,-269.734C472.38,-246.484 459.637,-223.547 456.653,-218.176"/>
</g>
<!-- 25 -->
<g id="node25" class="node"><title>25</title>
<g id="a_node25"><a xlink:href="http://awoiaf.westeros.org/index.php/Balon_Greyjoy" xlink:title="Balon Greyjoy\n256&#45;299" target="_blank">
<polygon fill="none" stroke="black" points="1706.25,-384.5 1589.75,-384.5 1589.75,-267.5 1706.25,-267.5 1706.25,-384.5"/>
<text text-anchor="middle" x="1648" y="-329.8" font-family="Times,serif" font-size="14.00">Balon Greyjoy</text>
<text text-anchor="middle" x="1648" y="-314.8" font-family="Times,serif" font-size="14.00">256&#45;299</text>
</a>
</g>
</g>
<!-- 25+26 -->
<g id="node52" class="node"><title>25+26</title>
<ellipse fill="black" stroke="black" cx="1664" cy="-216" rx="1.8" ry="1.8"/>
</g>
<!-- 25&#45;&gt;25+26 -->
<g id="edge19" class="edge"><title>25&#45;&gt;25+26</title>
<path fill="none" stroke="black" d="M1656.56,-267.206C1659.89,-244.738 1663.09,-223.15 1663.84,-218.104"/>
</g>
<!-- 26 -->
<g id="node26" class="node"><title>26</title>
<g id="a_node26"><a xlink:href="http://awoiaf.westeros.org/index.php/Alannys_Harlaw" xlink:title="Alannys Harlaw\n???&#45;" target="_blank">
<polygon fill="none" stroke="black" points="1855.25,-391.5 1724.75,-391.5 1724.75,-260.5 1855.25,-260.5 1855.25,-391.5"/>
<text text-anchor="middle" x="1790" y="-329.8" font-family="Times,serif" font-size="14.00">Alannys Harlaw</text>
<text text-anchor="middle" x="1790" y="-314.8" font-family="Times,serif" font-size="14.00">???&#45;</text>
</a>
</g>
</g>
<!-- 26&#45;&gt;25+26 -->
<g id="edge20" class="edge"><title>26&#45;&gt;25+26</title>
<path fill="none" stroke="black" d="M1724.59,-262.162C1721.38,-259.368 1718.17,-256.634 1715,-254 1696.15,-238.35 1671.24,-221.759 1665.31,-217.856"/>
</g>
<!-- 27 -->
<g id="node27" class="node"><title>27</title>
<g id="a_node27"><a xlink:href="http://awoiaf.westeros.org/index.php/Rodrik_Greyjoy" xlink:title="Rodrik Greyjoy\n268&#45;289" target="_blank">
<polygon fill="none" stroke="black" points="1515.25,-171.5 1390.75,-171.5 1390.75,-46.5 1515.25,-46.5 1515.25,-171.5"/>
<text text-anchor="middle" x="1453" y="-112.8" font-family="Times,serif" font-size="14.00">Rodrik Greyjoy</text>
<text text-anchor="middle" x="1453" y="-97.8" font-family="Times,serif" font-size="14.00">268&#45;289</text>
</a>
</g>
</g>
<!-- 28 -->
<g id="node28" class="node"><title>28</title>
<g id="a_node28"><a xlink:href="http://awoiaf.westeros.org/index.php/Maron_Greyjoy" xlink:title="Maron Greyjoy\n269&#45;289" target="_blank">
<polygon fill="none" stroke="black" points="1657.5,-171 1534.5,-171 1534.5,-47 1657.5,-47 1657.5,-171"/>
<text text-anchor="middle" x="1596" y="-112.8" font-family="Times,serif" font-size="14.00">Maron Greyjoy</text>
<text text-anchor="middle" x="1596" y="-97.8" font-family="Times,serif" font-size="14.00">269&#45;289</text>
</a>
</g>
</g>
<!-- 29 -->
<g id="node29" class="node"><title>29</title>
<g id="a_node29"><a xlink:href="http://awoiaf.westeros.org/index.php/Asha_Greyjoy" xlink:title="Asha Greyjoy\n275&#45;" target="_blank">
<polygon fill="none" stroke="black" points="1787.5,-165 1676.5,-165 1676.5,-53 1787.5,-53 1787.5,-165"/>
<text text-anchor="middle" x="1732" y="-112.8" font-family="Times,serif" font-size="14.00">Asha Greyjoy</text>
<text text-anchor="middle" x="1732" y="-97.8" font-family="Times,serif" font-size="14.00">275&#45;</text>
</a>
</g>
</g>
<!-- 30 -->
<g id="node30" class="node"><title>30</title>
<g id="a_node30"><a xlink:href="http://awoiaf.westeros.org/index.php/Theon_Greyjoy" xlink:title="Theon Greyjoy\n278&#45;" target="_blank">
<polygon fill="none" stroke="black" points="1925.5,-169 1806.5,-169 1806.5,-49 1925.5,-49 1925.5,-169"/>
<text text-anchor="middle" x="1866" y="-112.8" font-family="Times,serif" font-size="14.00">Theon Greyjoy</text>
<text text-anchor="middle" x="1866" y="-97.8" font-family="Times,serif" font-size="14.00">278&#45;</text>
</a>
</g>
</g>
<!-- 31 -->
<g id="node31" class="node"><title>31</title>
<g id="a_node31"><a xlink:href="http://awoiaf.westeros.org/index.php/Quellon_Grejoy" xlink:title="Quellon Greyjoy\n???&#45;283" target="_blank">
<polygon fill="none" stroke="black" points="2601.25,-636.5 2470.75,-636.5 2470.75,-505.5 2601.25,-505.5 2601.25,-636.5"/>
<text text-anchor="middle" x="2536" y="-574.8" font-family="Times,serif" font-size="14.00">Quellon Greyjoy</text>
<text text-anchor="middle" x="2536" y="-559.8" font-family="Times,serif" font-size="14.00">???&#45;283</text>
</a>
</g>
</g>
<!-- 31+32 -->
<g id="node53" class="node"><title>31+32</title>
<ellipse fill="black" stroke="black" cx="2675" cy="-436" rx="1.8" ry="1.8"/>
</g>
<!-- 31&#45;&gt;31+32 -->
<g id="edge21" class="edge"><title>31&#45;&gt;31+32</title>
<path fill="none" stroke="black" d="M2580.79,-505.492C2590.08,-494.308 2600.31,-483.3 2611,-474 2633.08,-454.796 2666.6,-440.45 2673.66,-437.542"/>
</g>
<!-- 31+37 -->
<g id="node54" class="node"><title>31+37</title>
<ellipse fill="black" stroke="black" cx="2162" cy="-436" rx="1.8" ry="1.8"/>
</g>
<!-- 31&#45;&gt;31+37 -->
<g id="edge23" class="edge"><title>31&#45;&gt;31+37</title>
<path fill="none" stroke="black" d="M2470.43,-546.681C2368.19,-510.325 2180.65,-443.633 2163.3,-437.461"/>
</g>
<!-- 31+42 -->
<g id="node55" class="node"><title>31+42</title>
<ellipse fill="black" stroke="black" cx="2935" cy="-436" rx="1.8" ry="1.8"/>
</g>
<!-- 31&#45;&gt;31+42 -->
<g id="edge25" class="edge"><title>31&#45;&gt;31+42</title>
<path fill="none" stroke="black" d="M2575.12,-505.026C2585.32,-492.898 2597.35,-481.649 2611,-474 2671.26,-440.242 2910.99,-437.223 2933.33,-437.014"/>
</g>
<!-- 32 -->
<g id="node32" class="node"><title>32</title>
<polygon fill="none" stroke="black" points="2813.5,-668 2620.5,-668 2620.5,-474 2813.5,-474 2813.5,-668"/>
<text text-anchor="middle" x="2717" y="-574.8" font-family="Times,serif" font-size="14.00">Lady of House Stonetree</text>
<text text-anchor="middle" x="2717" y="-559.8" font-family="Times,serif" font-size="14.00">???&#45;???</text>
</g>
<!-- 32&#45;&gt;31+32 -->
<g id="edge22" class="edge"><title>32&#45;&gt;31+32</title>
<path fill="none" stroke="black" d="M2686.59,-473.695C2681.05,-456.145 2676.61,-442.087 2675.35,-438.122"/>
</g>
<!-- 34 -->
<g id="node33" class="node"><title>34</title>
<g id="a_node33"><a xlink:href="http://awoiaf.westeros.org/index.php/Harlon_Greyjoy" xlink:title="Harlon Greyjoy\n253&#45;???" target="_blank">
<polygon fill="none" stroke="black" points="2588,-389 2462,-389 2462,-263 2588,-263 2588,-389"/>
<text text-anchor="middle" x="2525" y="-329.8" font-family="Times,serif" font-size="14.00">Harlon Greyjoy</text>
<text text-anchor="middle" x="2525" y="-314.8" font-family="Times,serif" font-size="14.00">253&#45;???</text>
</a>
</g>
</g>
<!-- 35 -->
<g id="node34" class="node"><title>35</title>
<g id="a_node34"><a xlink:href="http://awoiaf.westeros.org/index.php/Quenton_Greyjoy" xlink:title="Quenton Greyjoy\n254&#45;???" target="_blank">
<polygon fill="none" stroke="black" points="2743.25,-394.5 2606.75,-394.5 2606.75,-257.5 2743.25,-257.5 2743.25,-394.5"/>
<text text-anchor="middle" x="2675" y="-329.8" font-family="Times,serif" font-size="14.00">Quenton Greyjoy</text>
<text text-anchor="middle" x="2675" y="-314.8" font-family="Times,serif" font-size="14.00">254&#45;???</text>
</a>
</g>
</g>
<!-- 36 -->
<g id="node35" class="node"><title>36</title>
<g id="a_node35"><a xlink:href="http://awoiaf.westeros.org/index.php/Donel_Greyjoy" xlink:title="Donel Greyjoy\n255&#45;???" target="_blank">
<polygon fill="none" stroke="black" points="2880,-385 2762,-385 2762,-267 2880,-267 2880,-385"/>
<text text-anchor="middle" x="2821" y="-329.8" font-family="Times,serif" font-size="14.00">Donel Greyjoy</text>
<text text-anchor="middle" x="2821" y="-314.8" font-family="Times,serif" font-size="14.00">255&#45;???</text>
</a>
</g>
</g>
<!-- 37 -->
<g id="node36" class="node"><title>37</title>
<polygon fill="none" stroke="black" points="2256,-665 2068,-665 2068,-477 2256,-477 2256,-665"/>
<text text-anchor="middle" x="2162" y="-574.8" font-family="Times,serif" font-size="14.00">Lady of House Sunderly</text>
<text text-anchor="middle" x="2162" y="-559.8" font-family="Times,serif" font-size="14.00">???&#45;???</text>
</g>
<!-- 37&#45;&gt;31+37 -->
<g id="edge24" class="edge"><title>37&#45;&gt;31+37</title>
<path fill="none" stroke="black" d="M2162,-476.904C2162,-457.696 2162,-442.032 2162,-438.006"/>
</g>
<!-- 38 -->
<g id="node37" class="node"><title>38</title>
<g id="a_node37"><a xlink:href="http://awoiaf.westeros.org/index.php/Euron_Greyjoy" xlink:title="Euron Greyjoy\n256&#45;" target="_blank">
<polygon fill="none" stroke="black" points="1993.5,-386 1874.5,-386 1874.5,-266 1993.5,-266 1993.5,-386"/>
<text text-anchor="middle" x="1934" y="-329.8" font-family="Times,serif" font-size="14.00">Euron Greyjoy</text>
<text text-anchor="middle" x="1934" y="-314.8" font-family="Times,serif" font-size="14.00">256&#45;</text>
</a>
</g>
</g>
<!-- 39 -->
<g id="node38" class="node"><title>39</title>
<g id="a_node38"><a xlink:href="http://awoiaf.westeros.org/index.php/Victarion_Greyjoy" xlink:title="Victarion Greyjoy\n257&#45;" target="_blank">
<polygon fill="none" stroke="black" points="2155.25,-397.5 2012.75,-397.5 2012.75,-254.5 2155.25,-254.5 2155.25,-397.5"/>
<text text-anchor="middle" x="2084" y="-329.8" font-family="Times,serif" font-size="14.00">Victarion Greyjoy</text>
<text text-anchor="middle" x="2084" y="-314.8" font-family="Times,serif" font-size="14.00">257&#45;</text>
</a>
</g>
</g>
<!-- 40 -->
<g id="node39" class="node"><title>40</title>
<g id="a_node39"><a xlink:href="http://awoiaf.westeros.org/index.php/Urrigon_Greyjoy" xlink:title="Urrigon Greyjoy\n268&#45;283" target="_blank">
<polygon fill="none" stroke="black" points="2306,-392 2174,-392 2174,-260 2306,-260 2306,-392"/>
<text text-anchor="middle" x="2240" y="-329.8" font-family="Times,serif" font-size="14.00">Urrigon Greyjoy</text>
<text text-anchor="middle" x="2240" y="-314.8" font-family="Times,serif" font-size="14.00">268&#45;283</text>
</a>
</g>
</g>
<!-- 41 -->
<g id="node40" class="node"><title>41</title>
<g id="a_node40"><a xlink:href="http://awoiaf.westeros.org/index.php/Aeron_Greyjoy" xlink:title="Aeron Greyjoy\n269&#45;" target="_blank">
<polygon fill="none" stroke="black" points="2443.25,-385.5 2324.75,-385.5 2324.75,-266.5 2443.25,-266.5 2443.25,-385.5"/>
<text text-anchor="middle" x="2384" y="-329.8" font-family="Times,serif" font-size="14.00">Aeron Greyjoy</text>
<text text-anchor="middle" x="2384" y="-314.8" font-family="Times,serif" font-size="14.00">269&#45;</text>
</a>
</g>
</g>
<!-- 42 -->
<g id="node41" class="node"><title>42</title>
<polygon fill="none" stroke="black" points="3016.25,-652.5 2853.75,-652.5 2853.75,-489.5 3016.25,-489.5 3016.25,-652.5"/>
<text text-anchor="middle" x="2935" y="-574.8" font-family="Times,serif" font-size="14.00">Lady of House Piper</text>
<text text-anchor="middle" x="2935" y="-559.8" font-family="Times,serif" font-size="14.00">???&#45;???</text>
</g>
<!-- 42&#45;&gt;31+42 -->
<g id="edge26" class="edge"><title>42&#45;&gt;31+42</title>
<path fill="none" stroke="black" d="M2935,-489.183C2935,-464.815 2935,-443.138 2935,-438.1"/>
</g>
<!-- 43 -->
<g id="node42" class="node"><title>43</title>
<g id="a_node42"><a xlink:href="http://awoiaf.westeros.org/index.php/Robin_Greyjoy" xlink:title="Robin Greyjoy\n269&#45;" target="_blank">
<polygon fill="none" stroke="black" points="3016,-385 2898,-385 2898,-267 3016,-267 3016,-385"/>
<text text-anchor="middle" x="2957" y="-329.8" font-family="Times,serif" font-size="14.00">Robin Greyjoy</text>
<text text-anchor="middle" x="2957" y="-314.8" font-family="Times,serif" font-size="14.00">269&#45;</text>
</a>
</g>
</g>
<!-- 1+2&#45;&gt;3 -->
<g id="edge29" class="edge"><title>1+2&#45;&gt;3</title>
<path fill="none" stroke="black" d="M771.23,-214.989C747.581,-214.821 493.8,-212.221 429,-178 419.533,-173 410.955,-165.756 403.476,-157.84"/>
</g>
<!-- 1+2&#45;&gt;4 -->
<g id="edge30" class="edge"><title>1+2&#45;&gt;4</title>
<path fill="none" stroke="black" d="M773,-213.821C773,-208.256 773,-183.898 773,-160.174"/>
</g>
<!-- 1+2&#45;&gt;5 -->
<g id="edge31" class="edge"><title>1+2&#45;&gt;5</title>
<path fill="none" stroke="black" d="M774.496,-214.886C791.452,-213.571 947.558,-200.927 987,-178 996.52,-172.466 1005.11,-164.666 1012.55,-156.313"/>
</g>
<!-- 1+2&#45;&gt;6 -->
<g id="edge32" class="edge"><title>1+2&#45;&gt;6</title>
<path fill="none" stroke="black" d="M774.668,-214.96C796.957,-214.399 1036.19,-207.723 1099,-178 1103.9,-175.681 1108.67,-172.879 1113.26,-169.752"/>
</g>
<!-- 1+2&#45;&gt;7 -->
<g id="edge33" class="edge"><title>1+2&#45;&gt;7</title>
<path fill="none" stroke="black" d="M771.13,-215.112C754.912,-216.003 636.781,-220.828 557,-178 550.001,-174.243 543.336,-169.432 537.135,-164.11"/>
</g>
<!-- 1+9&#45;&gt;8 -->
<g id="edge34" class="edge"><title>1+9&#45;&gt;8</title>
<path fill="none" stroke="black" stroke-dasharray="5,2" d="M1209.72,-214.09C1213.02,-209.955 1226.88,-192.508 1238,-178 1244.73,-169.217 1251.9,-159.744 1258.67,-150.739"/>
</g>
<!-- 10+11&#45;&gt;1 -->
<g id="edge27" class="edge"><title>10+11&#45;&gt;1</title>
<path fill="none" stroke="black" d="M1207.78,-434.635C1200.09,-432.296 1157.74,-418.845 1129,-398 1122.73,-393.454 1116.59,-388.25 1110.72,-382.77"/>
</g>
<!-- 10+11&#45;&gt;14 -->
<g id="edge35" class="edge"><title>10+11&#45;&gt;14</title>
<path fill="none" stroke="black" d="M1210.22,-434.635C1217.91,-432.296 1260.26,-418.845 1289,-398 1295.27,-393.454 1301.41,-388.25 1307.28,-382.77"/>
</g>
<!-- 10+11&#45;&gt;15 -->
<g id="edge36" class="edge"><title>10+11&#45;&gt;15</title>
<path fill="none" stroke="black" d="M1210.83,-435.108C1226.71,-435.964 1342.39,-440.556 1420,-398 1428.21,-393.501 1435.93,-387.572 1443,-381.055"/>
</g>
<!-- 10+11&#45;&gt;16 -->
<g id="edge37" class="edge"><title>10+11&#45;&gt;16</title>
<path fill="none" stroke="black" d="M1207.17,-435.093C1191.29,-435.823 1075.62,-439.553 997,-398 991.073,-394.867 985.351,-391.042 979.909,-386.806"/>
</g>
<!-- 12+13&#45;&gt;2 -->
<g id="edge28" class="edge"><title>12+13&#45;&gt;2</title>
<path fill="none" stroke="black" d="M398.501,-434.838C411.535,-433.401 506.791,-422.325 580,-398 612.263,-387.28 646.653,-371.358 674.355,-357.306"/>
</g>
<!-- 12+13&#45;&gt;19 -->
<g id="edge38" class="edge"><title>12+13&#45;&gt;19</title>
<path fill="none" stroke="black" d="M395.31,-434.969C382.261,-434.66 296.501,-431.379 239,-398 231.723,-393.775 224.77,-388.493 218.293,-382.726"/>
</g>
<!-- 12+13&#45;&gt;20 -->
<g id="edge39" class="edge"><title>12+13&#45;&gt;20</title>
<path fill="none" stroke="black" d="M397,-433.787C397,-427.484 397,-397.74 397,-371.239"/>
</g>
<!-- 22+20&#45;&gt;23 -->
<g id="edge40" class="edge"><title>22+20&#45;&gt;23</title>
<path fill="none" stroke="black" d="M290.528,-213.821C288.446,-208.616 279.79,-186.975 270.915,-164.787"/>
</g>
<!-- 25+26&#45;&gt;27 -->
<g id="edge42" class="edge"><title>25+26&#45;&gt;27</title>
<path fill="none" stroke="black" d="M1662.53,-214.883C1651.17,-213.928 1576.48,-206.693 1525,-178 1521.55,-176.075 1518.13,-173.946 1514.78,-171.667"/>
</g>
<!-- 25+26&#45;&gt;28 -->
<g id="edge43" class="edge"><title>25+26&#45;&gt;28</title>
<path fill="none" stroke="black" d="M1663.24,-213.821C1660.19,-209.112 1648.42,-190.948 1635.57,-171.098"/>
</g>
<!-- 25+26&#45;&gt;29 -->
<g id="edge44" class="edge"><title>25+26&#45;&gt;29</title>
<path fill="none" stroke="black" d="M1664.76,-213.821C1668.12,-208.639 1682.03,-187.162 1696.33,-165.075"/>
</g>
<!-- 25+26&#45;&gt;30 -->
<g id="edge45" class="edge"><title>25+26&#45;&gt;30</title>
<path fill="none" stroke="black" d="M1665.69,-214.843C1677.42,-213.687 1747.73,-205.773 1796,-178 1800.55,-175.381 1805.03,-172.399 1809.38,-169.18"/>
</g>
<!-- 31+32&#45;&gt;34 -->
<g id="edge46" class="edge"><title>31+32&#45;&gt;34</title>
<path fill="none" stroke="black" d="M2673.84,-434.605C2666.53,-432.082 2626.21,-417.704 2598,-398 2594.09,-395.267 2590.19,-392.32 2586.34,-389.235"/>
</g>
<!-- 31+32&#45;&gt;35 -->
<g id="edge47" class="edge"><title>31+32&#45;&gt;35</title>
<path fill="none" stroke="black" d="M2675,-433.787C2675,-429.338 2675,-413.208 2675,-394.785"/>
</g>
<!-- 31+32&#45;&gt;36 -->
<g id="edge48" class="edge"><title>31+32&#45;&gt;36</title>
<path fill="none" stroke="black" d="M2676.17,-434.615C2683.52,-432.156 2724.07,-418.099 2752,-398 2757.44,-394.084 2762.83,-389.714 2768.04,-385.118"/>
</g>
<!-- 31+37&#45;&gt;25 -->
<g id="edge41" class="edge"><title>31+37&#45;&gt;25</title>
<path fill="none" stroke="black" d="M2160.4,-435.025C2134.5,-435.41 1801.31,-439.53 1715,-398 1707.82,-394.546 1701.02,-389.967 1694.7,-384.793"/>
</g>
<!-- 31+37&#45;&gt;38 -->
<g id="edge49" class="edge"><title>31+37&#45;&gt;38</title>
<path fill="none" stroke="black" d="M2160.31,-434.96C2147.23,-434.584 2061.24,-430.895 2003,-398 1997.01,-394.619 1991.21,-390.561 1985.69,-386.12"/>
</g>
<!-- 31+37&#45;&gt;39 -->
<g id="edge50" class="edge"><title>31+37&#45;&gt;39</title>
<path fill="none" stroke="black" d="M2161.12,-433.787C2158.08,-429.569 2147.45,-414.857 2135.02,-397.643"/>
</g>
<!-- 31+37&#45;&gt;40 -->
<g id="edge51" class="edge"><title>31+37&#45;&gt;40</title>
<path fill="none" stroke="black" d="M2162.88,-433.787C2166.24,-429.129 2178.85,-411.671 2192.93,-392.18"/>
</g>
<!-- 31+37&#45;&gt;41 -->
<g id="edge52" class="edge"><title>31+37&#45;&gt;41</title>
<path fill="none" stroke="black" d="M2163.63,-434.943C2176.22,-434.438 2258.98,-429.961 2315,-398 2321.12,-394.508 2327.05,-390.313 2332.69,-385.73"/>
</g>
<!-- 31+42&#45;&gt;43 -->
<g id="edge53" class="edge"><title>31+42&#45;&gt;43</title>
<path fill="none" stroke="black" d="M2935.25,-433.787C2936.31,-428.573 2940.64,-407.319 2945.16,-385.129"/>
</g>
</g>
</svg>
