<?xml version="1.0" encoding="UTF-8" standalone="no"?>
<!DOCTYPE svg PUBLIC "-//W3C//DTD SVG 1.1//EN"
 "http://www.w3.org/Graphics/SVG/1.1/DTD/svg11.dtd">
<!-- Generated by graphviz version 2.36.0 (20140111.2315)
 -->
<!-- Title: family Pages: 1 -->
<svg width="679pt" height="502pt"
 viewBox="0.00 0.00 679.00 502.00" xmlns="http://www.w3.org/2000/svg" xmlns:xlink="http://www.w3.org/1999/xlink">
<g id="graph0" class="graph" transform="scale(1 1) rotate(0) translate(4 498)">
<title>family</title>
<polygon fill="white" stroke="none" points="-4,4 -4,-498 675,-498 675,4 -4,4"/>
<!-- hoster -->
<g id="node1" class="node"><title>hoster</title>
<polygon fill="none" stroke="black" points="279.5,-488 174.5,-488 174.5,-382 279.5,-382 279.5,-488"/>
<text text-anchor="middle" x="227" y="-431.3" font-family="Times,serif" font-size="14.00">Hoster Tully</text>
</g>
<!-- hm -->
<g id="node2" class="node"><title>hm</title>
<ellipse fill="black" stroke="black" cx="292" cy="-338" rx="1.8" ry="1.8"/>
</g>
<!-- hoster&#45;&gt;hm -->
<g id="edge1" class="edge"><title>hoster&#45;&gt;hm</title>
<path fill="none" stroke="black" d="M262.733,-381.776C275.949,-362.46 288.444,-344.197 291.362,-339.933"/>
</g>
<!-- 2 -->
<g id="node4" class="node"><title>2</title>
<polygon fill="none" stroke="black" points="347.5,-299 236.5,-299 236.5,-187 347.5,-187 347.5,-299"/>
<text text-anchor="middle" x="292" y="-246.8" font-family="Times,serif" font-size="14.00">Catelyn Tully</text>
<text text-anchor="middle" x="292" y="-231.8" font-family="Times,serif" font-size="14.00"> 263&#45;299</text>
</g>
<!-- hm&#45;&gt;2 -->
<g id="edge3" class="edge"><title>hm&#45;&gt;2</title>
<path fill="none" stroke="black" d="M292,-335.956C292,-331.865 292,-316.308 292,-299.123"/>
</g>
<!-- minisa -->
<g id="node3" class="node"><title>minisa</title>
<polygon fill="none" stroke="black" points="415.25,-493.5 298.75,-493.5 298.75,-376.5 415.25,-376.5 415.25,-493.5"/>
<text text-anchor="middle" x="357" y="-431.3" font-family="Times,serif" font-size="14.00">Minisa Whent</text>
</g>
<!-- minisa&#45;&gt;hm -->
<g id="edge2" class="edge"><title>minisa&#45;&gt;hm</title>
<path fill="none" stroke="black" d="M317.503,-376.274C305.594,-358.868 295,-343.384 292.538,-339.786"/>
</g>
<!-- 1+2 -->
<g id="node6" class="node"><title>1+2</title>
<ellipse fill="black" stroke="black" cx="292" cy="-148" rx="1.8" ry="1.8"/>
</g>
<!-- 2&#45;&gt;1+2 -->
<g id="edge6" class="edge"><title>2&#45;&gt;1+2</title>
<path fill="none" stroke="black" d="M292,-186.827C292,-169.304 292,-153.485 292,-149.804"/>
</g>
<!-- 1 -->
<g id="node5" class="node"><title>1</title>
<polygon fill="none" stroke="black" points="525.25,-299.5 412.75,-299.5 412.75,-186.5 525.25,-186.5 525.25,-299.5"/>
<text text-anchor="middle" x="469" y="-246.8" font-family="Times,serif" font-size="14.00">Eddard Stark</text>
<text text-anchor="middle" x="469" y="-231.8" font-family="Times,serif" font-size="14.00"> 263&#45;299</text>
</g>
<!-- 1&#45;&gt;1+2 -->
<g id="edge4" class="edge"><title>1&#45;&gt;1+2</title>
<path fill="none" stroke="black" d="M412.509,-212.319C364.351,-187.015 301.579,-154.033 292.989,-149.52"/>
</g>
<!-- 1+8 -->
<g id="node7" class="node"><title>1+8</title>
<ellipse fill="black" stroke="black" cx="618" cy="-148" rx="1.8" ry="1.8"/>
</g>
<!-- 1&#45;&gt;1+8 -->
<g id="edge5" class="edge"><title>1&#45;&gt;1+8</title>
<path fill="none" stroke="black" d="M525.45,-206.374C536.245,-199.591 547.463,-192.564 558,-186 581.268,-171.506 609.755,-154.048 616.513,-149.91"/>
</g>
<!-- 3 -->
<g id="node8" class="node"><title>3</title>
<polygon fill="none" stroke="black" points="96.25,-103.5 -0.25,-103.5 -0.25,-6.5 96.25,-6.5 96.25,-103.5"/>
<text text-anchor="middle" x="48" y="-51.3" font-family="Times,serif" font-size="14.00">Robb Stark</text>
</g>
<!-- 1+2&#45;&gt;3 -->
<g id="edge7" class="edge"><title>1+2&#45;&gt;3</title>
<path fill="none" stroke="black" d="M290.394,-147.013C276.468,-147.064 174.978,-146.152 105,-110 101.367,-108.123 97.8023,-105.944 94.3404,-103.56"/>
</g>
<!-- 4 -->
<g id="node9" class="node"><title>4</title>
<polygon fill="none" stroke="black" points="215.5,-106 114.5,-106 114.5,-4 215.5,-4 215.5,-106"/>
<text text-anchor="middle" x="165" y="-51.3" font-family="Times,serif" font-size="14.00">Sansa Stark</text>
</g>
<!-- 1+2&#45;&gt;4 -->
<g id="edge8" class="edge"><title>1+2&#45;&gt;4</title>
<path fill="none" stroke="black" d="M290.657,-146.4C283.544,-143.192 249.68,-127.571 225,-110 221.918,-107.806 218.818,-105.473 215.739,-103.057"/>
</g>
<!-- 5 -->
<g id="node10" class="node"><title>5</title>
<polygon fill="none" stroke="black" points="328,-102 234,-102 234,-8 328,-8 328,-102"/>
<text text-anchor="middle" x="281" y="-51.3" font-family="Times,serif" font-size="14.00">Arya Stark</text>
</g>
<!-- 1+2&#45;&gt;5 -->
<g id="edge9" class="edge"><title>1+2&#45;&gt;5</title>
<path fill="none" stroke="black" d="M291.876,-145.978C291.319,-141.37 288.965,-121.893 286.589,-102.233"/>
</g>
<!-- 6 -->
<g id="node11" class="node"><title>6</title>
<polygon fill="none" stroke="black" points="441.25,-102.5 346.75,-102.5 346.75,-7.5 441.25,-7.5 441.25,-102.5"/>
<text text-anchor="middle" x="394" y="-51.3" font-family="Times,serif" font-size="14.00">Bran Stark</text>
</g>
<!-- 1+2&#45;&gt;6 -->
<g id="edge10" class="edge"><title>1+2&#45;&gt;6</title>
<path fill="none" stroke="black" d="M293.137,-146.113C298.301,-142.077 320.016,-124.994 337,-110 340.168,-107.203 343.404,-104.292 346.646,-101.335"/>
</g>
<!-- 7 -->
<g id="node12" class="node"><title>7</title>
<polygon fill="none" stroke="black" points="570,-110 460,-110 460,-7.10543e-15 570,-7.10543e-15 570,-110"/>
<text text-anchor="middle" x="515" y="-51.3" font-family="Times,serif" font-size="14.00">Rickon Stark</text>
</g>
<!-- 1+2&#45;&gt;7 -->
<g id="edge11" class="edge"><title>1+2&#45;&gt;7</title>
<path fill="none" stroke="black" d="M293.652,-146.9C306.422,-146.072 390.472,-139.614 450,-110 453.284,-108.366 456.546,-106.537 459.76,-104.565"/>
</g>
<!-- 9 -->
<g id="node14" class="node"><title>9</title>
<polygon fill="none" stroke="black" points="671.25,-96.5 588.75,-96.5 588.75,-13.5 671.25,-13.5 671.25,-96.5"/>
<text text-anchor="middle" x="630" y="-51.3" font-family="Times,serif" font-size="14.00">Jon Snow</text>
</g>
<!-- 1+8&#45;&gt;9 -->
<g id="edge13" class="edge"><title>1+8&#45;&gt;9</title>
<path fill="none" stroke="black" d="M618.135,-145.978C618.799,-140.94 621.807,-118.132 624.627,-96.7422"/>
</g>
<!-- 8 -->
<g id="node13" class="node"><title>8</title>
<polygon fill="none" stroke="black" points="668.5,-294 567.5,-294 567.5,-192 668.5,-192 668.5,-294"/>
<text text-anchor="middle" x="618" y="-246.8" font-family="Times,serif" font-size="14.00"> &#160;&#160;&#160;&#160;&#160;&#160;??? &#160;&#160;&#160;&#160;&#160;&#160;</text>
<text text-anchor="middle" x="618" y="-231.8" font-family="Times,serif" font-size="14.00">???&#45;???</text>
</g>
<!-- 8&#45;&gt;1+8 -->
<g id="edge12" class="edge"><title>8&#45;&gt;1+8</title>
<path fill="none" stroke="black" d="M618,-191.961C618,-172.7 618,-154.254 618,-149.943"/>
</g>
</g>
</svg>
