<?xml version="1.0" encoding="UTF-8" standalone="no"?>
<!DOCTYPE svg PUBLIC "-//W3C//DTD SVG 1.1//EN"
 "http://www.w3.org/Graphics/SVG/1.1/DTD/svg11.dtd">
<!-- Generated by graphviz version 2.36.0 (20140111.2315)
 -->
<!-- Title: family Pages: 1 -->
<svg width="1577pt" height="598pt"
 viewBox="0.00 0.00 1577.00 598.00" xmlns="http://www.w3.org/2000/svg" xmlns:xlink="http://www.w3.org/1999/xlink">
<g id="graph0" class="graph" transform="scale(1 1) rotate(0) translate(4 594)">
<title>family</title>
<polygon fill="white" stroke="none" points="-4,4 -4,-594 1573,-594 1573,4 -4,4"/>
<!-- 1 -->
<g id="node1" class="node"><title>1</title>
<g id="a_node1"><a xlink:href="http://awoiaf.westeros.org/index.php/Eddard_Stark" xlink:title="Eddard Stark\n263&#45;299" target="_blank">
<polygon fill="none" stroke="black" points="1148.25,-381.5 1035.75,-381.5 1035.75,-268.5 1148.25,-268.5 1148.25,-381.5"/>
<text text-anchor="middle" x="1092" y="-328.8" font-family="Times,serif" font-size="14.00">Eddard Stark</text>
<text text-anchor="middle" x="1092" y="-313.8" font-family="Times,serif" font-size="14.00">263&#45;299</text>
</a>
</g>
</g>
<!-- 1+2 -->
<g id="node25" class="node"><title>1+2</title>
<ellipse fill="black" stroke="black" cx="773" cy="-216" rx="1.8" ry="1.8"/>
</g>
<!-- 1&#45;&gt;1+2 -->
<g id="edge1" class="edge"><title>1&#45;&gt;1+2</title>
<path fill="none" stroke="black" d="M1046.96,-268.459C1040.44,-262.877 1033.41,-257.857 1026,-254 978.357,-229.196 794.704,-218.223 774.76,-217.097"/>
</g>
<!-- 1+9 -->
<g id="node26" class="node"><title>1+9</title>
<ellipse fill="black" stroke="black" cx="1238" cy="-216" rx="1.8" ry="1.8"/>
</g>
<!-- 1&#45;&gt;1+9 -->
<g id="edge3" class="edge"><title>1&#45;&gt;1+9</title>
<path fill="none" stroke="black" d="M1140.55,-268.327C1146.17,-263.18 1152.04,-258.294 1158,-254 1186.81,-233.257 1229.11,-219.723 1236.78,-217.368"/>
</g>
<!-- 2 -->
<g id="node2" class="node"><title>2</title>
<g id="a_node2"><a xlink:href="http://awoiaf.westeros.org/index.php/Catelyn_Stark" xlink:title="Catelyn Tully\n264&#45;299" target="_blank">
<polygon fill="none" stroke="black" points="785.5,-381 674.5,-381 674.5,-269 785.5,-269 785.5,-381"/>
<text text-anchor="middle" x="730" y="-328.8" font-family="Times,serif" font-size="14.00">Catelyn Tully</text>
<text text-anchor="middle" x="730" y="-313.8" font-family="Times,serif" font-size="14.00">264&#45;299</text>
</a>
</g>
</g>
<!-- 2&#45;&gt;1+2 -->
<g id="edge2" class="edge"><title>2&#45;&gt;1+2</title>
<path fill="none" stroke="black" d="M752.13,-268.933C761.349,-245.992 770.413,-223.437 772.535,-218.156"/>
</g>
<!-- 3 -->
<g id="node3" class="node"><title>3</title>
<g id="a_node3"><a xlink:href="http://awoiaf.westeros.org/index.php/Robb_Stark" xlink:title="Robb Stark\n283&#45;299" target="_blank">
<polygon fill="none" stroke="black" points="419.25,-157.5 322.75,-157.5 322.75,-60.5 419.25,-60.5 419.25,-157.5"/>
<text text-anchor="middle" x="371" y="-112.8" font-family="Times,serif" font-size="14.00">Robb Stark</text>
<text text-anchor="middle" x="371" y="-97.8" font-family="Times,serif" font-size="14.00">283&#45;299</text>
</a>
</g>
</g>
<!-- 3+18 -->
<g id="node27" class="node"><title>3+18</title>
<ellipse fill="black" stroke="black" cx="503" cy="-2" rx="1.8" ry="1.8"/>
</g>
<!-- 3&#45;&gt;3+18 -->
<g id="edge5" class="edge"><title>3&#45;&gt;3+18</title>
<path fill="none" stroke="black" d="M407.39,-60.2495C414.116,-52.9756 421.424,-45.9296 429,-40 454.789,-19.8145 493.339,-6.23555 501.463,-3.50663"/>
</g>
<!-- 4 -->
<g id="node4" class="node"><title>4</title>
<g id="a_node4"><a xlink:href="http://awoiaf.westeros.org/index.php/Sansa_Stark" xlink:title="Sansa Stark\n286&#45;" target="_blank">
<polygon fill="none" stroke="black" points="823.5,-160 722.5,-160 722.5,-58 823.5,-58 823.5,-160"/>
<text text-anchor="middle" x="773" y="-112.8" font-family="Times,serif" font-size="14.00">Sansa Stark</text>
<text text-anchor="middle" x="773" y="-97.8" font-family="Times,serif" font-size="14.00">286&#45;</text>
</a>
</g>
</g>
<!-- 17+4 -->
<g id="node30" class="node"><title>17+4</title>
<ellipse fill="black" stroke="black" cx="841" cy="-2" rx="1.8" ry="1.8"/>
</g>
<!-- 4&#45;&gt;17+4 -->
<g id="edge12" class="edge"><title>4&#45;&gt;17+4</title>
<path fill="none" stroke="black" d="M805.407,-57.9601C820.732,-34.2967 836.489,-9.96543 840.189,-4.25235"/>
</g>
<!-- 5 -->
<g id="node5" class="node"><title>5</title>
<g id="a_node5"><a xlink:href="http://awoiaf.westeros.org/index.php/Arya_Stark" xlink:title="Arya Stark\n289&#45;" target="_blank">
<polygon fill="none" stroke="black" points="1090,-156 996,-156 996,-62 1090,-62 1090,-156"/>
<text text-anchor="middle" x="1043" y="-112.8" font-family="Times,serif" font-size="14.00">Arya Stark</text>
<text text-anchor="middle" x="1043" y="-97.8" font-family="Times,serif" font-size="14.00">289&#45;</text>
</a>
</g>
</g>
<!-- 6 -->
<g id="node6" class="node"><title>6</title>
<g id="a_node6"><a xlink:href="http://awoiaf.westeros.org/index.php/Bran_Stark" xlink:title="Brandon Stark\n290&#45;" target="_blank">
<polygon fill="none" stroke="black" points="1229.25,-169.5 1108.75,-169.5 1108.75,-48.5 1229.25,-48.5 1229.25,-169.5"/>
<text text-anchor="middle" x="1169" y="-112.8" font-family="Times,serif" font-size="14.00">Brandon Stark</text>
<text text-anchor="middle" x="1169" y="-97.8" font-family="Times,serif" font-size="14.00">290&#45;</text>
</a>
</g>
</g>
<!-- 7 -->
<g id="node7" class="node"><title>7</title>
<g id="a_node7"><a xlink:href="http://awoiaf.westeros.org/index.php/Rickon_Stark" xlink:title="Rickon Stark\n295&#45;" target="_blank">
<polygon fill="none" stroke="black" points="548,-164 438,-164 438,-54 548,-54 548,-164"/>
<text text-anchor="middle" x="493" y="-112.8" font-family="Times,serif" font-size="14.00">Rickon Stark</text>
<text text-anchor="middle" x="493" y="-97.8" font-family="Times,serif" font-size="14.00">295&#45;</text>
</a>
</g>
</g>
<!-- 8 -->
<g id="node8" class="node"><title>8</title>
<g id="a_node8"><a xlink:href="http://awoiaf.westeros.org/index.php/Jon_Snow" xlink:title="Jon Snow\n283&#45;" target="_blank">
<polygon fill="none" stroke="black" points="1330.25,-150.5 1247.75,-150.5 1247.75,-67.5 1330.25,-67.5 1330.25,-150.5"/>
<text text-anchor="middle" x="1289" y="-112.8" font-family="Times,serif" font-size="14.00">Jon Snow</text>
<text text-anchor="middle" x="1289" y="-97.8" font-family="Times,serif" font-size="14.00">283&#45;</text>
</a>
</g>
</g>
<!-- 9 -->
<g id="node9" class="node"><title>9</title>
<polygon fill="none" stroke="black" points="1309,-396 1167,-396 1167,-254 1309,-254 1309,-396"/>
<text text-anchor="middle" x="1238" y="-328.8" font-family="Times,serif" font-size="14.00">Unknown Woman</text>
<text text-anchor="middle" x="1238" y="-313.8" font-family="Times,serif" font-size="14.00">???&#45;???</text>
</g>
<!-- 9&#45;&gt;1+9 -->
<g id="edge4" class="edge"><title>9&#45;&gt;1+9</title>
<path fill="none" stroke="black" d="M1238,-253.823C1238,-236.491 1238,-221.754 1238,-217.952"/>
</g>
<!-- 10 -->
<g id="node10" class="node"><title>10</title>
<g id="a_node10"><a xlink:href="http://awoiaf.westeros.org/index.php/Rickard_Stark" xlink:title="Rickard Stark\n230&#45;282" target="_blank">
<polygon fill="none" stroke="black" points="1230.5,-589 1115.5,-589 1115.5,-473 1230.5,-473 1230.5,-589"/>
<text text-anchor="middle" x="1173" y="-534.8" font-family="Times,serif" font-size="14.00">Rickard Stark</text>
<text text-anchor="middle" x="1173" y="-519.8" font-family="Times,serif" font-size="14.00">230&#45;282</text>
</a>
</g>
</g>
<!-- 10+11 -->
<g id="node28" class="node"><title>10+11</title>
<ellipse fill="black" stroke="black" cx="1238" cy="-434" rx="1.8" ry="1.8"/>
</g>
<!-- 10&#45;&gt;10+11 -->
<g id="edge7" class="edge"><title>10&#45;&gt;10+11</title>
<path fill="none" stroke="black" d="M1212.12,-472.819C1224.17,-455.215 1234.95,-439.463 1237.45,-435.8"/>
</g>
<!-- 11 -->
<g id="node11" class="node"><title>11</title>
<g id="a_node11"><a xlink:href="http://awoiaf.westeros.org/index.php/Lyarra_Stark" xlink:title="Lyarra Stark\n???&#45;???" target="_blank">
<polygon fill="none" stroke="black" points="1357,-585 1249,-585 1249,-477 1357,-477 1357,-585"/>
<text text-anchor="middle" x="1303" y="-534.8" font-family="Times,serif" font-size="14.00">Lyarra Stark</text>
<text text-anchor="middle" x="1303" y="-519.8" font-family="Times,serif" font-size="14.00">???&#45;???</text>
</a>
</g>
</g>
<!-- 11&#45;&gt;10+11 -->
<g id="edge8" class="edge"><title>11&#45;&gt;10+11</title>
<path fill="none" stroke="black" d="M1266.7,-476.945C1253.67,-457.904 1241.47,-440.071 1238.62,-435.91"/>
</g>
<!-- 12 -->
<g id="node12" class="node"><title>12</title>
<g id="a_node12"><a xlink:href="http://awoiaf.westeros.org/index.php/Hoster_Tully" xlink:title="Hoster Tully\n237&#45;299" target="_blank">
<polygon fill="none" stroke="black" points="384.5,-584 279.5,-584 279.5,-478 384.5,-478 384.5,-584"/>
<text text-anchor="middle" x="332" y="-534.8" font-family="Times,serif" font-size="14.00">Hoster Tully</text>
<text text-anchor="middle" x="332" y="-519.8" font-family="Times,serif" font-size="14.00">237&#45;299</text>
</a>
</g>
</g>
<!-- 12+13 -->
<g id="node29" class="node"><title>12+13</title>
<ellipse fill="black" stroke="black" cx="397" cy="-434" rx="1.8" ry="1.8"/>
</g>
<!-- 12&#45;&gt;12+13 -->
<g id="edge9" class="edge"><title>12&#45;&gt;12+13</title>
<path fill="none" stroke="black" d="M367.733,-477.776C380.949,-458.46 393.444,-440.197 396.362,-435.933"/>
</g>
<!-- 13 -->
<g id="node13" class="node"><title>13</title>
<g id="a_node13"><a xlink:href="http://awoiaf.westeros.org/index.php/Minisa_Whent" xlink:title="Minisa Whent\n250&#45;268" target="_blank">
<polygon fill="none" stroke="black" points="520.25,-589.5 403.75,-589.5 403.75,-472.5 520.25,-472.5 520.25,-589.5"/>
<text text-anchor="middle" x="462" y="-534.8" font-family="Times,serif" font-size="14.00">Minisa Whent</text>
<text text-anchor="middle" x="462" y="-519.8" font-family="Times,serif" font-size="14.00">250&#45;268</text>
</a>
</g>
</g>
<!-- 13&#45;&gt;12+13 -->
<g id="edge10" class="edge"><title>13&#45;&gt;12+13</title>
<path fill="none" stroke="black" d="M422.503,-472.274C410.594,-454.868 400,-439.384 397.538,-435.786"/>
</g>
<!-- 14 -->
<g id="node14" class="node"><title>14</title>
<g id="a_node14"><a xlink:href="http://awoiaf.westeros.org/index.php/Lyanna_Stark" xlink:title="Lyanna Stark\n266&#45;283" target="_blank">
<polygon fill="none" stroke="black" points="1440.25,-381.5 1327.75,-381.5 1327.75,-268.5 1440.25,-268.5 1440.25,-381.5"/>
<text text-anchor="middle" x="1384" y="-328.8" font-family="Times,serif" font-size="14.00">Lyanna Stark</text>
<text text-anchor="middle" x="1384" y="-313.8" font-family="Times,serif" font-size="14.00">266&#45;283</text>
</a>
</g>
</g>
<!-- 15 -->
<g id="node15" class="node"><title>15</title>
<g id="a_node15"><a xlink:href="http://awoiaf.westeros.org/index.php/Benjen_Stark" xlink:title="Benjen Stark\n267&#45;" target="_blank">
<polygon fill="none" stroke="black" points="1569,-380 1459,-380 1459,-270 1569,-270 1569,-380"/>
<text text-anchor="middle" x="1514" y="-328.8" font-family="Times,serif" font-size="14.00">Benjen Stark</text>
<text text-anchor="middle" x="1514" y="-313.8" font-family="Times,serif" font-size="14.00">267&#45;</text>
</a>
</g>
</g>
<!-- 16 -->
<g id="node16" class="node"><title>16</title>
<g id="a_node16"><a xlink:href="http://awoiaf.westeros.org/index.php/Brandon_Stark" xlink:title="Brandon Stark\n262&#45;282" target="_blank">
<polygon fill="none" stroke="black" points="1017.25,-385.5 896.75,-385.5 896.75,-264.5 1017.25,-264.5 1017.25,-385.5"/>
<text text-anchor="middle" x="957" y="-328.8" font-family="Times,serif" font-size="14.00">Brandon Stark</text>
<text text-anchor="middle" x="957" y="-313.8" font-family="Times,serif" font-size="14.00">262&#45;282</text>
</a>
</g>
</g>
<!-- 17 -->
<g id="node17" class="node"><title>17</title>
<g id="a_node17"><a xlink:href="http://awoiaf.westeros.org/index.php/Tyrion_Lannister" xlink:title="Tyrion Lannister\n273&#45;" target="_blank">
<polygon fill="none" stroke="black" points="978,-177 842,-177 842,-41 978,-41 978,-177"/>
<text text-anchor="middle" x="910" y="-112.8" font-family="Times,serif" font-size="14.00">Tyrion Lannister</text>
<text text-anchor="middle" x="910" y="-97.8" font-family="Times,serif" font-size="14.00">273&#45;</text>
</a>
</g>
</g>
<!-- 17&#45;&gt;17+4 -->
<g id="edge11" class="edge"><title>17&#45;&gt;17+4</title>
<path fill="none" stroke="black" d="M865.911,-40.9074C854.078,-22.9014 843.88,-7.38304 841.516,-3.7848"/>
</g>
<!-- 18 -->
<g id="node18" class="node"><title>18</title>
<g id="a_node18"><a xlink:href="http://awoiaf.westeros.org/index.php/Jeyne_Westerling" xlink:title="Jeyne Westerling\n283&#45;" target="_blank">
<polygon fill="none" stroke="black" points="704,-178 566,-178 566,-40 704,-40 704,-178"/>
<text text-anchor="middle" x="635" y="-112.8" font-family="Times,serif" font-size="14.00">Jeyne Westerling</text>
<text text-anchor="middle" x="635" y="-97.8" font-family="Times,serif" font-size="14.00">283&#45;</text>
</a>
</g>
</g>
<!-- 18&#45;&gt;3+18 -->
<g id="edge6" class="edge"><title>18&#45;&gt;3+18</title>
<path fill="none" stroke="black" d="M565.597,-46.7886C562.714,-44.4708 559.841,-42.1997 557,-40 536.872,-24.415 510.624,-7.77562 504.377,-3.8593"/>
</g>
<!-- 19 -->
<g id="node19" class="node"><title>19</title>
<g id="a_node19"><a xlink:href="http://awoiaf.westeros.org/index.php/Edmure_Tully" xlink:title="Edmure Tully\n267&#45;" target="_blank">
<polygon fill="none" stroke="black" points="229.25,-381.5 116.75,-381.5 116.75,-268.5 229.25,-268.5 229.25,-381.5"/>
<text text-anchor="middle" x="173" y="-328.8" font-family="Times,serif" font-size="14.00">Edmure Tully</text>
<text text-anchor="middle" x="173" y="-313.8" font-family="Times,serif" font-size="14.00">267&#45;</text>
</a>
</g>
</g>
<!-- 19+21 -->
<g id="node31" class="node"><title>19+21</title>
<ellipse fill="black" stroke="black" cx="111" cy="-216" rx="1.8" ry="1.8"/>
</g>
<!-- 19&#45;&gt;19+21 -->
<g id="edge13" class="edge"><title>19&#45;&gt;19+21</title>
<path fill="none" stroke="black" d="M140.729,-268.306C127.547,-245.557 114.672,-223.338 111.66,-218.138"/>
</g>
<!-- 20 -->
<g id="node20" class="node"><title>20</title>
<g id="a_node20"><a xlink:href="http://awoiaf.westeros.org/index.php/Lysa_Arryn" xlink:title="Lysa Tully\n266&#45;300" target="_blank">
<polygon fill="none" stroke="black" points="442,-370 352,-370 352,-280 442,-280 442,-370"/>
<text text-anchor="middle" x="397" y="-328.8" font-family="Times,serif" font-size="14.00">Lysa Tully</text>
<text text-anchor="middle" x="397" y="-313.8" font-family="Times,serif" font-size="14.00">266&#45;300</text>
</a>
</g>
</g>
<!-- 22+20 -->
<g id="node32" class="node"><title>22+20</title>
<ellipse fill="black" stroke="black" cx="291" cy="-216" rx="1.8" ry="1.8"/>
</g>
<!-- 20&#45;&gt;22+20 -->
<g id="edge16" class="edge"><title>20&#45;&gt;22+20</title>
<path fill="none" stroke="black" d="M366.047,-279.738C358.935,-270.798 351.074,-261.768 343,-254 325.115,-236.793 298.716,-221.37 292.396,-217.783"/>
</g>
<!-- 24+20 -->
<g id="node33" class="node"><title>24+20</title>
<ellipse fill="black" stroke="black" cx="456" cy="-216" rx="1.8" ry="1.8"/>
</g>
<!-- 20&#45;&gt;24+20 -->
<g id="edge18" class="edge"><title>20&#45;&gt;24+20</title>
<path fill="none" stroke="black" d="M421.338,-279.861C436.067,-253.15 452.567,-223.226 455.532,-217.85"/>
</g>
<!-- 21 -->
<g id="node21" class="node"><title>21</title>
<g id="a_node21"><a xlink:href="http://awoiaf.westeros.org/index.php/Roslin_Frey" xlink:title="Roslin Frey\n282&#45;" target="_blank">
<polygon fill="none" stroke="black" points="97.5,-374 0.5,-374 0.5,-276 97.5,-276 97.5,-374"/>
<text text-anchor="middle" x="49" y="-328.8" font-family="Times,serif" font-size="14.00">Roslin Frey</text>
<text text-anchor="middle" x="49" y="-313.8" font-family="Times,serif" font-size="14.00">282&#45;</text>
</a>
</g>
</g>
<!-- 21&#45;&gt;19+21 -->
<g id="edge14" class="edge"><title>21&#45;&gt;19+21</title>
<path fill="none" stroke="black" d="M76.9166,-275.821C91.8303,-250.083 107.705,-222.686 110.551,-217.775"/>
</g>
<!-- 22 -->
<g id="node22" class="node"><title>22</title>
<g id="a_node22"><a xlink:href="http://awoiaf.westeros.org/index.php/Jon_Arryn" xlink:title="Jon Arryn\n217&#45;298" target="_blank">
<polygon fill="none" stroke="black" points="334,-368 248,-368 248,-282 334,-282 334,-368"/>
<text text-anchor="middle" x="291" y="-328.8" font-family="Times,serif" font-size="14.00">Jon Arryn</text>
<text text-anchor="middle" x="291" y="-313.8" font-family="Times,serif" font-size="14.00">217&#45;298</text>
</a>
</g>
</g>
<!-- 22&#45;&gt;22+20 -->
<g id="edge15" class="edge"><title>22&#45;&gt;22+20</title>
<path fill="none" stroke="black" d="M291,-281.711C291,-254.606 291,-223.482 291,-217.885"/>
</g>
<!-- 23 -->
<g id="node23" class="node"><title>23</title>
<g id="a_node23"><a xlink:href="http://awoiaf.westeros.org/index.php/Robert_Arryn" xlink:title="Robert Arryn\n292&#45;" target="_blank">
<polygon fill="none" stroke="black" points="304.25,-164.5 193.75,-164.5 193.75,-53.5 304.25,-53.5 304.25,-164.5"/>
<text text-anchor="middle" x="249" y="-112.8" font-family="Times,serif" font-size="14.00">Robert Arryn</text>
<text text-anchor="middle" x="249" y="-97.8" font-family="Times,serif" font-size="14.00">292&#45;</text>
</a>
</g>
</g>
<!-- 24 -->
<g id="node24" class="node"><title>24</title>
<g id="a_node24"><a xlink:href="http://awoiaf.westeros.org/index.php/Petyr_Baelish" xlink:title="Petyr Baelish\n268&#45;" target="_blank">
<polygon fill="none" stroke="black" points="571.5,-381 460.5,-381 460.5,-269 571.5,-269 571.5,-381"/>
<text text-anchor="middle" x="516" y="-328.8" font-family="Times,serif" font-size="14.00">Petyr Baelish</text>
<text text-anchor="middle" x="516" y="-313.8" font-family="Times,serif" font-size="14.00">268&#45;</text>
</a>
</g>
</g>
<!-- 24&#45;&gt;24+20 -->
<g id="edge17" class="edge"><title>24&#45;&gt;24+20</title>
<path fill="none" stroke="black" d="M485.121,-268.933C472.257,-245.992 459.609,-223.437 456.648,-218.156"/>
</g>
<!-- 1+2&#45;&gt;3 -->
<g id="edge21" class="edge"><title>1+2&#45;&gt;3</title>
<path fill="none" stroke="black" d="M771.23,-214.989C747.581,-214.821 493.8,-212.221 429,-178 419.533,-173 410.955,-165.756 403.476,-157.84"/>
</g>
<!-- 1+2&#45;&gt;4 -->
<g id="edge22" class="edge"><title>1+2&#45;&gt;4</title>
<path fill="none" stroke="black" d="M773,-213.821C773,-208.256 773,-183.898 773,-160.174"/>
</g>
<!-- 1+2&#45;&gt;5 -->
<g id="edge23" class="edge"><title>1+2&#45;&gt;5</title>
<path fill="none" stroke="black" d="M774.496,-214.886C791.452,-213.571 947.558,-200.927 987,-178 996.52,-172.466 1005.11,-164.666 1012.55,-156.313"/>
</g>
<!-- 1+2&#45;&gt;6 -->
<g id="edge24" class="edge"><title>1+2&#45;&gt;6</title>
<path fill="none" stroke="black" d="M774.668,-214.96C796.957,-214.399 1036.19,-207.723 1099,-178 1103.9,-175.681 1108.67,-172.879 1113.26,-169.752"/>
</g>
<!-- 1+2&#45;&gt;7 -->
<g id="edge25" class="edge"><title>1+2&#45;&gt;7</title>
<path fill="none" stroke="black" d="M771.13,-215.112C754.912,-216.003 636.781,-220.828 557,-178 550.001,-174.243 543.336,-169.432 537.135,-164.11"/>
</g>
<!-- 1+9&#45;&gt;8 -->
<g id="edge26" class="edge"><title>1+9&#45;&gt;8</title>
<path fill="none" stroke="black" d="M1238.57,-213.821C1241.64,-207.512 1256.43,-177.054 1269.21,-150.746"/>
</g>
<!-- 10+11&#45;&gt;1 -->
<g id="edge19" class="edge"><title>10+11&#45;&gt;1</title>
<path fill="none" stroke="black" d="M1236.78,-432.632C1229.11,-430.277 1186.81,-416.743 1158,-396 1152.04,-391.706 1146.17,-386.82 1140.55,-381.673"/>
</g>
<!-- 10+11&#45;&gt;14 -->
<g id="edge27" class="edge"><title>10+11&#45;&gt;14</title>
<path fill="none" stroke="black" d="M1239.22,-432.632C1246.89,-430.277 1289.19,-416.743 1318,-396 1323.96,-391.706 1329.83,-386.82 1335.45,-381.673"/>
</g>
<!-- 10+11&#45;&gt;15 -->
<g id="edge28" class="edge"><title>10+11&#45;&gt;15</title>
<path fill="none" stroke="black" d="M1239.83,-433.104C1255.69,-433.926 1371.24,-438.281 1449,-396 1456.72,-391.801 1464.03,-386.341 1470.77,-380.321"/>
</g>
<!-- 10+11&#45;&gt;16 -->
<g id="edge29" class="edge"><title>10+11&#45;&gt;16</title>
<path fill="none" stroke="black" d="M1236.17,-433.089C1220.31,-433.784 1104.76,-437.274 1026,-396 1020.41,-393.069 1014.99,-389.524 1009.81,-385.602"/>
</g>
<!-- 12+13&#45;&gt;2 -->
<g id="edge20" class="edge"><title>12+13&#45;&gt;2</title>
<path fill="none" stroke="black" d="M398.5,-432.835C411.525,-431.372 506.725,-420.125 580,-396 612.21,-385.395 646.596,-369.694 674.308,-355.848"/>
</g>
<!-- 12+13&#45;&gt;19 -->
<g id="edge30" class="edge"><title>12+13&#45;&gt;19</title>
<path fill="none" stroke="black" d="M395.313,-432.965C382.28,-432.628 296.619,-429.176 239,-396 232.052,-392 225.389,-387.038 219.149,-381.617"/>
</g>
<!-- 12+13&#45;&gt;20 -->
<g id="edge31" class="edge"><title>12+13&#45;&gt;20</title>
<path fill="none" stroke="black" d="M397,-431.798C397,-425.576 397,-396.301 397,-370.119"/>
</g>
<!-- 22+20&#45;&gt;23 -->
<g id="edge32" class="edge"><title>22+20&#45;&gt;23</title>
<path fill="none" stroke="black" d="M290.528,-213.821C288.446,-208.616 279.79,-186.975 270.915,-164.787"/>
</g>
</g>
</svg>
