<?xml version="1.0" encoding="UTF-8" standalone="no"?>
<!DOCTYPE svg PUBLIC "-//W3C//DTD SVG 1.1//EN"
 "http://www.w3.org/Graphics/SVG/1.1/DTD/svg11.dtd">
<!-- Generated by graphviz version 2.36.0 (20140111.2315)
 -->
<!-- Title: family Pages: 1 -->
<svg width="722pt" height="348pt"
 viewBox="0.00 0.00 722.00 348.00" xmlns="http://www.w3.org/2000/svg" xmlns:xlink="http://www.w3.org/1999/xlink">
<g id="graph0" class="graph" transform="scale(1 1) rotate(0) translate(4 344)">
<title>family</title>
<polygon fill="white" stroke="none" points="-4,4 -4,-344 718,-344 718,4 -4,4"/>
<!-- 1 -->
<g id="node1" class="node"><title>1</title>
<g id="a_node1"><a xlink:href="http://awoiaf.westeros.org/index.php/Eddard_Stark" xlink:title="Eddard Stark\n263&#45;299" target="_blank">
<polygon fill="none" stroke="black" points="541.25,-325.5 428.75,-325.5 428.75,-212.5 541.25,-212.5 541.25,-325.5"/>
<text text-anchor="middle" x="485" y="-272.8" font-family="Times,serif" font-size="14.00">Eddard Stark</text>
<text text-anchor="middle" x="485" y="-257.8" font-family="Times,serif" font-size="14.00">263&#45;299</text>
</a>
</g>
</g>
<!-- 1+2 -->
<g id="node10" class="node"><title>1+2</title>
<ellipse fill="black" stroke="black" cx="330" cy="-160" rx="1.8" ry="1.8"/>
</g>
<!-- 1&#45;&gt;1+2 -->
<g id="edge1" class="edge"><title>1&#45;&gt;1+2</title>
<path fill="none" stroke="black" d="M428.563,-222.762C417.307,-214.263 405.428,-205.651 394,-198 369.684,-181.721 337.915,-165.09 331.257,-161.647"/>
</g>
<!-- 1+9 -->
<g id="node11" class="node"><title>1+9</title>
<ellipse fill="black" stroke="black" cx="643" cy="-160" rx="1.8" ry="1.8"/>
</g>
<!-- 1&#45;&gt;1+9 -->
<g id="edge3" class="edge"><title>1&#45;&gt;1+9</title>
<path fill="none" stroke="black" d="M541.355,-213.972C548.404,-208.266 555.706,-202.803 563,-198 592.651,-178.476 634.263,-163.952 641.804,-161.4"/>
</g>
<!-- 2 -->
<g id="node2" class="node"><title>2</title>
<g id="a_node2"><a xlink:href="http://awoiaf.westeros.org/index.php/Catelyn_Stark" xlink:title="Catelyn Tully\n263&#45;299" target="_blank">
<polygon fill="none" stroke="black" points="385.5,-325 274.5,-325 274.5,-213 385.5,-213 385.5,-325"/>
<text text-anchor="middle" x="330" y="-272.8" font-family="Times,serif" font-size="14.00">Catelyn Tully</text>
<text text-anchor="middle" x="330" y="-257.8" font-family="Times,serif" font-size="14.00">263&#45;299</text>
</a>
</g>
</g>
<!-- 2&#45;&gt;1+2 -->
<g id="edge2" class="edge"><title>2&#45;&gt;1+2</title>
<path fill="none" stroke="black" d="M330,-212.933C330,-189.992 330,-167.437 330,-162.156"/>
</g>
<!-- 3 -->
<g id="node3" class="node"><title>3</title>
<g id="a_node3"><a xlink:href="http://awoiaf.westeros.org/index.php/Robb_Stark" xlink:title="Robb Stark\n283&#45;299" target="_blank">
<polygon fill="none" stroke="black" points="96.25,-109.5 -0.25,-109.5 -0.25,-12.5 96.25,-12.5 96.25,-109.5"/>
<text text-anchor="middle" x="48" y="-64.8" font-family="Times,serif" font-size="14.00">Robb Stark</text>
<text text-anchor="middle" x="48" y="-49.8" font-family="Times,serif" font-size="14.00">283&#45;299</text>
</a>
</g>
</g>
<!-- 4 -->
<g id="node4" class="node"><title>4</title>
<g id="a_node4"><a xlink:href="http://awoiaf.westeros.org/index.php/Sansa_Stark" xlink:title="Sansa Stark\n286&#45;" target="_blank">
<polygon fill="none" stroke="black" points="215.5,-112 114.5,-112 114.5,-10 215.5,-10 215.5,-112"/>
<text text-anchor="middle" x="165" y="-64.8" font-family="Times,serif" font-size="14.00">Sansa Stark</text>
<text text-anchor="middle" x="165" y="-49.8" font-family="Times,serif" font-size="14.00">286&#45;</text>
</a>
</g>
</g>
<!-- 5 -->
<g id="node5" class="node"><title>5</title>
<g id="a_node5"><a xlink:href="http://awoiaf.westeros.org/index.php/Arya_Stark" xlink:title="Arya Stark\n289&#45;" target="_blank">
<polygon fill="none" stroke="black" points="328,-108 234,-108 234,-14 328,-14 328,-108"/>
<text text-anchor="middle" x="281" y="-64.8" font-family="Times,serif" font-size="14.00">Arya Stark</text>
<text text-anchor="middle" x="281" y="-49.8" font-family="Times,serif" font-size="14.00">289&#45;</text>
</a>
</g>
</g>
<!-- 6 -->
<g id="node6" class="node"><title>6</title>
<g id="a_node6"><a xlink:href="http://awoiaf.westeros.org/index.php/Bran_Stark" xlink:title="Brandon Stark\n290&#45;" target="_blank">
<polygon fill="none" stroke="black" points="467.25,-121.5 346.75,-121.5 346.75,-0.5 467.25,-0.5 467.25,-121.5"/>
<text text-anchor="middle" x="407" y="-64.8" font-family="Times,serif" font-size="14.00">Brandon Stark</text>
<text text-anchor="middle" x="407" y="-49.8" font-family="Times,serif" font-size="14.00">290&#45;</text>
</a>
</g>
</g>
<!-- 7 -->
<g id="node7" class="node"><title>7</title>
<g id="a_node7"><a xlink:href="http://awoiaf.westeros.org/index.php/Rickon_Stark" xlink:title="Rickon Stark\n295&#45;" target="_blank">
<polygon fill="none" stroke="black" points="596,-116 486,-116 486,-6 596,-6 596,-116"/>
<text text-anchor="middle" x="541" y="-64.8" font-family="Times,serif" font-size="14.00">Rickon Stark</text>
<text text-anchor="middle" x="541" y="-49.8" font-family="Times,serif" font-size="14.00">295&#45;</text>
</a>
</g>
</g>
<!-- 8 -->
<g id="node8" class="node"><title>8</title>
<g id="a_node8"><a xlink:href="http://awoiaf.westeros.org/index.php/Jon_Snow" xlink:title="Jon Snow\n283&#45;" target="_blank">
<polygon fill="none" stroke="black" points="697.25,-102.5 614.75,-102.5 614.75,-19.5 697.25,-19.5 697.25,-102.5"/>
<text text-anchor="middle" x="656" y="-64.8" font-family="Times,serif" font-size="14.00">Jon Snow</text>
<text text-anchor="middle" x="656" y="-49.8" font-family="Times,serif" font-size="14.00">283&#45;</text>
</a>
</g>
</g>
<!-- 9 -->
<g id="node9" class="node"><title>9</title>
<polygon fill="none" stroke="black" points="714,-340 572,-340 572,-198 714,-198 714,-340"/>
<text text-anchor="middle" x="643" y="-272.8" font-family="Times,serif" font-size="14.00">Unknown Woman</text>
<text text-anchor="middle" x="643" y="-257.8" font-family="Times,serif" font-size="14.00">???&#45;???</text>
</g>
<!-- 9&#45;&gt;1+9 -->
<g id="edge4" class="edge"><title>9&#45;&gt;1+9</title>
<path fill="none" stroke="black" d="M643,-197.823C643,-180.491 643,-165.754 643,-161.952"/>
</g>
<!-- 1+2&#45;&gt;3 -->
<g id="edge5" class="edge"><title>1+2&#45;&gt;3</title>
<path fill="none" stroke="black" d="M328.054,-159.131C311.181,-160.18 188.263,-166.092 105,-122 98.7783,-118.705 92.8501,-114.474 87.3309,-109.784"/>
</g>
<!-- 1+2&#45;&gt;4 -->
<g id="edge6" class="edge"><title>1+2&#45;&gt;4</title>
<path fill="none" stroke="black" d="M328.405,-158.716C318.349,-156.869 262.941,-145.898 225,-122 220.388,-119.095 215.856,-115.776 211.477,-112.224"/>
</g>
<!-- 1+2&#45;&gt;5 -->
<g id="edge7" class="edge"><title>1+2&#45;&gt;5</title>
<path fill="none" stroke="black" d="M329.45,-157.911C326.842,-152.749 315.393,-130.085 304.28,-108.085"/>
</g>
<!-- 1+2&#45;&gt;6 -->
<g id="edge8" class="edge"><title>1+2&#45;&gt;6</title>
<path fill="none" stroke="black" d="M330.865,-157.911C334.12,-153.81 346.141,-138.666 359.701,-121.584"/>
</g>
<!-- 1+2&#45;&gt;7 -->
<g id="edge9" class="edge"><title>1+2&#45;&gt;7</title>
<path fill="none" stroke="black" d="M331.541,-158.896C343.445,-158.04 421.75,-151.413 476,-122 479.375,-120.17 482.711,-118.125 485.983,-115.925"/>
</g>
<!-- 1+9&#45;&gt;8 -->
<g id="edge10" class="edge"><title>1+9&#45;&gt;8</title>
<path fill="none" stroke="black" d="M643.146,-157.911C643.896,-152.312 647.406,-126.121 650.569,-102.522"/>
</g>
</g>
</svg>
