<?xml version="1.0" encoding="UTF-8" standalone="no"?>
<!DOCTYPE svg PUBLIC "-//W3C//DTD SVG 1.1//EN"
 "http://www.w3.org/Graphics/SVG/1.1/DTD/svg11.dtd">
<!-- Generated by graphviz version 2.36.0 (20140111.2315)
 -->
<!-- Title: family Pages: 1 -->
<svg width="1578pt" height="624pt"
 viewBox="0.00 0.00 1578.00 624.00" xmlns="http://www.w3.org/2000/svg" xmlns:xlink="http://www.w3.org/1999/xlink">
<g id="graph0" class="graph" transform="scale(1 1) rotate(0) translate(4 620)">
<title>family</title>
<polygon fill="white" stroke="none" points="-4,4 -4,-620 1574,-620 1574,4 -4,4"/>
<!-- 25 -->
<g id="node1" class="node"><title>25</title>
<g id="a_node1"><a xlink:href="http://awoiaf.westeros.org/index.php/Balon_Greyjoy" xlink:title="Balon Greyjoy\n256&#45;299" target="_blank">
<polygon fill="none" stroke="black" points="260.25,-332.5 143.75,-332.5 143.75,-215.5 260.25,-215.5 260.25,-332.5"/>
<text text-anchor="middle" x="202" y="-277.8" font-family="Times,serif" font-size="14.00">Balon Greyjoy</text>
<text text-anchor="middle" x="202" y="-262.8" font-family="Times,serif" font-size="14.00">256&#45;299</text>
</a>
</g>
</g>
<!-- 25+26 -->
<g id="node19" class="node"><title>25+26</title>
<ellipse fill="black" stroke="black" cx="273" cy="-164" rx="1.8" ry="1.8"/>
</g>
<!-- 25&#45;&gt;25+26 -->
<g id="edge1" class="edge"><title>25&#45;&gt;25+26</title>
<path fill="none" stroke="black" d="M239.994,-215.206C254.765,-192.738 268.957,-171.15 272.274,-166.104"/>
</g>
<!-- 26 -->
<g id="node2" class="node"><title>26</title>
<g id="a_node2"><a xlink:href="http://awoiaf.westeros.org/index.php/Alannys_Harlaw" xlink:title="Alannys Harlaw\n???&#45;" target="_blank">
<polygon fill="none" stroke="black" points="409.25,-339.5 278.75,-339.5 278.75,-208.5 409.25,-208.5 409.25,-339.5"/>
<text text-anchor="middle" x="344" y="-277.8" font-family="Times,serif" font-size="14.00">Alannys Harlaw</text>
<text text-anchor="middle" x="344" y="-262.8" font-family="Times,serif" font-size="14.00">???&#45;</text>
</a>
</g>
</g>
<!-- 26&#45;&gt;25+26 -->
<g id="edge2" class="edge"><title>26&#45;&gt;25+26</title>
<path fill="none" stroke="black" d="M301.469,-208.305C288.238,-188.18 276.365,-170.118 273.603,-165.917"/>
</g>
<!-- 27 -->
<g id="node3" class="node"><title>27</title>
<g id="a_node3"><a xlink:href="http://awoiaf.westeros.org/index.php/Rodrik_Greyjoy" xlink:title="Rodrik Greyjoy\n268&#45;289" target="_blank">
<polygon fill="none" stroke="black" points="124.25,-125.5 -0.25,-125.5 -0.25,-0.5 124.25,-0.5 124.25,-125.5"/>
<text text-anchor="middle" x="62" y="-66.8" font-family="Times,serif" font-size="14.00">Rodrik Greyjoy</text>
<text text-anchor="middle" x="62" y="-51.8" font-family="Times,serif" font-size="14.00">268&#45;289</text>
</a>
</g>
</g>
<!-- 28 -->
<g id="node4" class="node"><title>28</title>
<g id="a_node4"><a xlink:href="http://awoiaf.westeros.org/index.php/Maron_Greyjoy" xlink:title="Maron Greyjoy\n269&#45;289" target="_blank">
<polygon fill="none" stroke="black" points="266.5,-125 143.5,-125 143.5,-1 266.5,-1 266.5,-125"/>
<text text-anchor="middle" x="205" y="-66.8" font-family="Times,serif" font-size="14.00">Maron Greyjoy</text>
<text text-anchor="middle" x="205" y="-51.8" font-family="Times,serif" font-size="14.00">269&#45;289</text>
</a>
</g>
</g>
<!-- 29 -->
<g id="node5" class="node"><title>29</title>
<g id="a_node5"><a xlink:href="http://awoiaf.westeros.org/index.php/Asha_Greyjoy" xlink:title="Asha Greyjoy\n275&#45;" target="_blank">
<polygon fill="none" stroke="black" points="396.5,-119 285.5,-119 285.5,-7 396.5,-7 396.5,-119"/>
<text text-anchor="middle" x="341" y="-66.8" font-family="Times,serif" font-size="14.00">Asha Greyjoy</text>
<text text-anchor="middle" x="341" y="-51.8" font-family="Times,serif" font-size="14.00">275&#45;</text>
</a>
</g>
</g>
<!-- 30 -->
<g id="node6" class="node"><title>30</title>
<g id="a_node6"><a xlink:href="http://awoiaf.westeros.org/index.php/Theon_Greyjoy" xlink:title="Theon Greyjoy\n278&#45;" target="_blank">
<polygon fill="none" stroke="black" points="534.5,-123 415.5,-123 415.5,-3 534.5,-3 534.5,-123"/>
<text text-anchor="middle" x="475" y="-66.8" font-family="Times,serif" font-size="14.00">Theon Greyjoy</text>
<text text-anchor="middle" x="475" y="-51.8" font-family="Times,serif" font-size="14.00">278&#45;</text>
</a>
</g>
</g>
<!-- 31 -->
<g id="node7" class="node"><title>31</title>
<g id="a_node7"><a xlink:href="http://awoiaf.westeros.org/index.php/Quellon_Grejoy" xlink:title="Quellon Greyjoy\n???&#45;283" target="_blank">
<polygon fill="none" stroke="black" points="1134.25,-584.5 1003.75,-584.5 1003.75,-453.5 1134.25,-453.5 1134.25,-584.5"/>
<text text-anchor="middle" x="1069" y="-522.8" font-family="Times,serif" font-size="14.00">Quellon Greyjoy</text>
<text text-anchor="middle" x="1069" y="-507.8" font-family="Times,serif" font-size="14.00">???&#45;283</text>
</a>
</g>
</g>
<!-- 31+32 -->
<g id="node20" class="node"><title>31+32</title>
<ellipse fill="black" stroke="black" cx="1229" cy="-384" rx="1.8" ry="1.8"/>
</g>
<!-- 31&#45;&gt;31+32 -->
<g id="edge3" class="edge"><title>31&#45;&gt;31+32</title>
<path fill="none" stroke="black" d="M1112.12,-453.469C1121.7,-442.03 1132.46,-430.937 1144,-422 1173.52,-399.134 1219.34,-387.325 1227.68,-385.312"/>
</g>
<!-- 31+37 -->
<g id="node21" class="node"><title>31+37</title>
<ellipse fill="black" stroke="black" cx="716" cy="-384" rx="1.8" ry="1.8"/>
</g>
<!-- 31&#45;&gt;31+37 -->
<g id="edge5" class="edge"><title>31&#45;&gt;31+37</title>
<path fill="none" stroke="black" d="M1003.61,-492.445C953.262,-472.874 881.866,-445.359 819,-422 777.679,-406.647 726.659,-388.734 717.457,-385.51"/>
</g>
<!-- 31+42 -->
<g id="node22" class="node"><title>31+42</title>
<ellipse fill="black" stroke="black" cx="1489" cy="-384" rx="1.8" ry="1.8"/>
</g>
<!-- 31&#45;&gt;31+42 -->
<g id="edge7" class="edge"><title>31&#45;&gt;31+42</title>
<path fill="none" stroke="black" d="M1107.67,-453.446C1117.96,-441.135 1130.13,-429.705 1144,-422 1208.5,-386.155 1465.53,-385.031 1487.5,-385.001"/>
</g>
<!-- 32 -->
<g id="node8" class="node"><title>32</title>
<polygon fill="none" stroke="black" points="1346.5,-616 1153.5,-616 1153.5,-422 1346.5,-422 1346.5,-616"/>
<text text-anchor="middle" x="1250" y="-522.8" font-family="Times,serif" font-size="14.00">Lady of House Stonetree</text>
<text text-anchor="middle" x="1250" y="-507.8" font-family="Times,serif" font-size="14.00">???&#45;???</text>
</g>
<!-- 32&#45;&gt;31+32 -->
<g id="edge4" class="edge"><title>32&#45;&gt;31+32</title>
<path fill="none" stroke="black" d="M1234.79,-421.695C1232.02,-404.145 1229.8,-390.087 1229.18,-386.122"/>
</g>
<!-- 34 -->
<g id="node9" class="node"><title>34</title>
<g id="a_node9"><a xlink:href="http://awoiaf.westeros.org/index.php/Harlon_Greyjoy" xlink:title="Harlon Greyjoy\n253&#45;???" target="_blank">
<polygon fill="none" stroke="black" points="1142,-337 1016,-337 1016,-211 1142,-211 1142,-337"/>
<text text-anchor="middle" x="1079" y="-277.8" font-family="Times,serif" font-size="14.00">Harlon Greyjoy</text>
<text text-anchor="middle" x="1079" y="-262.8" font-family="Times,serif" font-size="14.00">253&#45;???</text>
</a>
</g>
</g>
<!-- 35 -->
<g id="node10" class="node"><title>35</title>
<g id="a_node10"><a xlink:href="http://awoiaf.westeros.org/index.php/Quenton_Greyjoy" xlink:title="Quenton Greyjoy\n254&#45;???" target="_blank">
<polygon fill="none" stroke="black" points="1297.25,-342.5 1160.75,-342.5 1160.75,-205.5 1297.25,-205.5 1297.25,-342.5"/>
<text text-anchor="middle" x="1229" y="-277.8" font-family="Times,serif" font-size="14.00">Quenton Greyjoy</text>
<text text-anchor="middle" x="1229" y="-262.8" font-family="Times,serif" font-size="14.00">254&#45;???</text>
</a>
</g>
</g>
<!-- 36 -->
<g id="node11" class="node"><title>36</title>
<g id="a_node11"><a xlink:href="http://awoiaf.westeros.org/index.php/Donel_Greyjoy" xlink:title="Donel Greyjoy\n255&#45;???" target="_blank">
<polygon fill="none" stroke="black" points="1434,-333 1316,-333 1316,-215 1434,-215 1434,-333"/>
<text text-anchor="middle" x="1375" y="-277.8" font-family="Times,serif" font-size="14.00">Donel Greyjoy</text>
<text text-anchor="middle" x="1375" y="-262.8" font-family="Times,serif" font-size="14.00">255&#45;???</text>
</a>
</g>
</g>
<!-- 37 -->
<g id="node12" class="node"><title>37</title>
<polygon fill="none" stroke="black" points="810,-613 622,-613 622,-425 810,-425 810,-613"/>
<text text-anchor="middle" x="716" y="-522.8" font-family="Times,serif" font-size="14.00">Lady of House Sunderly</text>
<text text-anchor="middle" x="716" y="-507.8" font-family="Times,serif" font-size="14.00">???&#45;???</text>
</g>
<!-- 37&#45;&gt;31+37 -->
<g id="edge6" class="edge"><title>37&#45;&gt;31+37</title>
<path fill="none" stroke="black" d="M716,-424.904C716,-405.696 716,-390.032 716,-386.006"/>
</g>
<!-- 38 -->
<g id="node13" class="node"><title>38</title>
<g id="a_node13"><a xlink:href="http://awoiaf.westeros.org/index.php/Euron_Greyjoy" xlink:title="Euron Greyjoy\n256&#45;" target="_blank">
<polygon fill="none" stroke="black" points="547.5,-334 428.5,-334 428.5,-214 547.5,-214 547.5,-334"/>
<text text-anchor="middle" x="488" y="-277.8" font-family="Times,serif" font-size="14.00">Euron Greyjoy</text>
<text text-anchor="middle" x="488" y="-262.8" font-family="Times,serif" font-size="14.00">256&#45;</text>
</a>
</g>
</g>
<!-- 39 -->
<g id="node14" class="node"><title>39</title>
<g id="a_node14"><a xlink:href="http://awoiaf.westeros.org/index.php/Victarion_Greyjoy" xlink:title="Victarion Greyjoy\n257&#45;" target="_blank">
<polygon fill="none" stroke="black" points="709.25,-345.5 566.75,-345.5 566.75,-202.5 709.25,-202.5 709.25,-345.5"/>
<text text-anchor="middle" x="638" y="-277.8" font-family="Times,serif" font-size="14.00">Victarion Greyjoy</text>
<text text-anchor="middle" x="638" y="-262.8" font-family="Times,serif" font-size="14.00">257&#45;</text>
</a>
</g>
</g>
<!-- 40 -->
<g id="node15" class="node"><title>40</title>
<g id="a_node15"><a xlink:href="http://awoiaf.westeros.org/index.php/Urrigon_Greyjoy" xlink:title="Urrigon Greyjoy\n268&#45;283" target="_blank">
<polygon fill="none" stroke="black" points="860,-340 728,-340 728,-208 860,-208 860,-340"/>
<text text-anchor="middle" x="794" y="-277.8" font-family="Times,serif" font-size="14.00">Urrigon Greyjoy</text>
<text text-anchor="middle" x="794" y="-262.8" font-family="Times,serif" font-size="14.00">268&#45;283</text>
</a>
</g>
</g>
<!-- 41 -->
<g id="node16" class="node"><title>41</title>
<g id="a_node16"><a xlink:href="http://awoiaf.westeros.org/index.php/Aeron_Greyjoy" xlink:title="Aeron Greyjoy\n269&#45;" target="_blank">
<polygon fill="none" stroke="black" points="997.25,-333.5 878.75,-333.5 878.75,-214.5 997.25,-214.5 997.25,-333.5"/>
<text text-anchor="middle" x="938" y="-277.8" font-family="Times,serif" font-size="14.00">Aeron Greyjoy</text>
<text text-anchor="middle" x="938" y="-262.8" font-family="Times,serif" font-size="14.00">269&#45;</text>
</a>
</g>
</g>
<!-- 42 -->
<g id="node17" class="node"><title>42</title>
<polygon fill="none" stroke="black" points="1570.25,-600.5 1407.75,-600.5 1407.75,-437.5 1570.25,-437.5 1570.25,-600.5"/>
<text text-anchor="middle" x="1489" y="-522.8" font-family="Times,serif" font-size="14.00">Lady of House Piper</text>
<text text-anchor="middle" x="1489" y="-507.8" font-family="Times,serif" font-size="14.00">???&#45;???</text>
</g>
<!-- 42&#45;&gt;31+42 -->
<g id="edge8" class="edge"><title>42&#45;&gt;31+42</title>
<path fill="none" stroke="black" d="M1489,-437.183C1489,-412.815 1489,-391.138 1489,-386.1"/>
</g>
<!-- 43 -->
<g id="node18" class="node"><title>43</title>
<g id="a_node18"><a xlink:href="http://awoiaf.westeros.org/index.php/Robin_Greyjoy" xlink:title="Robin Greyjoy\n269&#45;" target="_blank">
<polygon fill="none" stroke="black" points="1570,-333 1452,-333 1452,-215 1570,-215 1570,-333"/>
<text text-anchor="middle" x="1511" y="-277.8" font-family="Times,serif" font-size="14.00">Robin Greyjoy</text>
<text text-anchor="middle" x="1511" y="-262.8" font-family="Times,serif" font-size="14.00">269&#45;</text>
</a>
</g>
</g>
<!-- 25+26&#45;&gt;27 -->
<g id="edge10" class="edge"><title>25+26&#45;&gt;27</title>
<path fill="none" stroke="black" d="M271.542,-162.861C260.274,-161.742 186.123,-153.503 134,-126 130.79,-124.306 127.601,-122.446 124.451,-120.46"/>
</g>
<!-- 25+26&#45;&gt;28 -->
<g id="edge11" class="edge"><title>25+26&#45;&gt;28</title>
<path fill="none" stroke="black" d="M272.236,-161.888C269.376,-157.725 258.853,-142.404 246.952,-125.078"/>
</g>
<!-- 25+26&#45;&gt;29 -->
<g id="edge12" class="edge"><title>25+26&#45;&gt;29</title>
<path fill="none" stroke="black" d="M273.764,-161.888C276.945,-157.257 289.606,-138.824 303.098,-119.181"/>
</g>
<!-- 25+26&#45;&gt;30 -->
<g id="edge13" class="edge"><title>25+26&#45;&gt;30</title>
<path fill="none" stroke="black" d="M274.388,-162.85C285.114,-161.645 355.683,-152.883 405,-126 408.421,-124.135 411.816,-122.075 415.159,-119.873"/>
</g>
<!-- 31+32&#45;&gt;34 -->
<g id="edge14" class="edge"><title>31+32&#45;&gt;34</title>
<path fill="none" stroke="black" d="M1227.84,-382.605C1220.53,-380.082 1180.21,-365.704 1152,-346 1148.09,-343.267 1144.19,-340.32 1140.34,-337.235"/>
</g>
<!-- 31+32&#45;&gt;35 -->
<g id="edge15" class="edge"><title>31+32&#45;&gt;35</title>
<path fill="none" stroke="black" d="M1229,-381.787C1229,-377.338 1229,-361.208 1229,-342.785"/>
</g>
<!-- 31+32&#45;&gt;36 -->
<g id="edge16" class="edge"><title>31+32&#45;&gt;36</title>
<path fill="none" stroke="black" d="M1230.17,-382.615C1237.52,-380.156 1278.07,-366.099 1306,-346 1311.44,-342.084 1316.83,-337.714 1322.04,-333.118"/>
</g>
<!-- 31+37&#45;&gt;25 -->
<g id="edge9" class="edge"><title>31+37&#45;&gt;25</title>
<path fill="none" stroke="black" d="M714.402,-383.025C688.503,-383.41 355.308,-387.53 269,-346 261.822,-342.546 255.021,-337.967 248.702,-332.793"/>
</g>
<!-- 31+37&#45;&gt;38 -->
<g id="edge17" class="edge"><title>31+37&#45;&gt;38</title>
<path fill="none" stroke="black" d="M714.307,-382.96C701.226,-382.584 615.238,-378.895 557,-346 551.014,-342.619 545.213,-338.561 539.687,-334.12"/>
</g>
<!-- 31+37&#45;&gt;39 -->
<g id="edge18" class="edge"><title>31+37&#45;&gt;39</title>
<path fill="none" stroke="black" d="M715.124,-381.787C712.078,-377.569 701.452,-362.857 689.02,-345.643"/>
</g>
<!-- 31+37&#45;&gt;40 -->
<g id="edge19" class="edge"><title>31+37&#45;&gt;40</title>
<path fill="none" stroke="black" d="M716.876,-381.787C720.24,-377.129 732.849,-359.671 746.926,-340.18"/>
</g>
<!-- 31+37&#45;&gt;41 -->
<g id="edge20" class="edge"><title>31+37&#45;&gt;41</title>
<path fill="none" stroke="black" d="M717.63,-382.943C730.22,-382.438 812.982,-377.961 869,-346 875.121,-342.508 881.051,-338.313 886.695,-333.73"/>
</g>
<!-- 31+42&#45;&gt;43 -->
<g id="edge21" class="edge"><title>31+42&#45;&gt;43</title>
<path fill="none" stroke="black" d="M1489.25,-381.787C1490.31,-376.573 1494.64,-355.319 1499.16,-333.129"/>
</g>
</g>
</svg>
