<?xml version="1.0" encoding="UTF-8" standalone="no"?>
<!DOCTYPE svg PUBLIC "-//W3C//DTD SVG 1.1//EN"
 "http://www.w3.org/Graphics/SVG/1.1/DTD/svg11.dtd">
<!-- Generated by graphviz version 2.36.0 (20140111.2315)
 -->
<!-- Title: family Pages: 1 -->
<svg width="1677pt" height="650pt"
 viewBox="0.00 0.00 1677.00 650.00" xmlns="http://www.w3.org/2000/svg" xmlns:xlink="http://www.w3.org/1999/xlink">
<g id="graph0" class="graph" transform="scale(1 1) rotate(0) translate(4 646)">
<title>family</title>
<polygon fill="white" stroke="none" points="-4,4 -4,-646 1673,-646 1673,4 -4,4"/>
<!-- 25 -->
<g id="node1" class="node"><title>25</title>
<g id="a_node1"><a xlink:href="/character/display?id=Balon_Greyjoy" xlink:title="Balon Greyjoy" target="_blank">
<polygon fill="white" stroke="black" points="279,-349 153,-349 153,-223 279,-223 279,-349"/>
</a>
</g>
<g id="a_node1_0"><a xlink:href="http://awoiaf.westeros.org/index.php/Balon_Greyjoy" xlink:title="Balon Greyjoy" target="_blank">
<text text-anchor="start" x="165.5" y="-289.3" font-family="Times,serif" font-size="14.00">Balon Greyjoy</text>
<text text-anchor="start" x="186.5" y="-274.3" font-family="Times,serif" font-size="14.00">256&#45;299</text>
</a>
</g>
<g><a xlink:href="/character/display?id=Balon_Greyjoy" xlink:title="Balon Greyjoy" target="_blank">
</a>
</g>
</g>
<!-- 25+26 -->
<g id="node19" class="node"><title>25+26</title>
<ellipse fill="black" stroke="black" cx="291" cy="-172" rx="1.8" ry="1.8"/>
</g>
<!-- 25&#45;&gt;25+26 -->
<g id="edge1" class="edge"><title>25&#45;&gt;25+26</title>
<path fill="none" stroke="black" d="M257.667,-222.777C272.772,-200.22 286.964,-179.027 290.276,-174.082"/>
</g>
<!-- 26 -->
<g id="node2" class="node"><title>26</title>
<g id="a_node2"><a xlink:href="/character/display?id=Alannys_Harlaw" xlink:title="Alannys Harlaw" target="_blank">
<polygon fill="white" stroke="black" points="437,-356 297,-356 297,-216 437,-216 437,-356"/>
</a>
</g>
<g id="a_node2_1"><a xlink:href="http://awoiaf.westeros.org/index.php/Alannys_Harlaw" xlink:title="Alannys Harlaw" target="_blank">
<text text-anchor="start" x="309.5" y="-289.3" font-family="Times,serif" font-size="14.00">Alannys Harlaw</text>
<text text-anchor="start" x="353" y="-274.3" font-family="Times,serif" font-size="14.00">???&#45;</text>
</a>
</g>
<g><a xlink:href="/character/display?id=Alannys_Harlaw" xlink:title="Alannys Harlaw" target="_blank">
</a>
</g>
</g>
<!-- 26&#45;&gt;25+26 -->
<g id="edge2" class="edge"><title>26&#45;&gt;25+26</title>
<path fill="none" stroke="black" d="M320.166,-215.982C306.481,-195.815 294.415,-178.032 291.612,-173.902"/>
</g>
<!-- 27 -->
<g id="node3" class="node"><title>27</title>
<g id="a_node3"><a xlink:href="/character/display?id=Rodrik_Greyjoy" xlink:title="Rodrik Greyjoy" target="_blank">
<polygon fill="white" stroke="black" points="134,-134 0,-134 0,-0 134,-0 134,-134"/>
</a>
</g>
<g id="a_node3_2"><a xlink:href="http://awoiaf.westeros.org/index.php/Rodrik_Greyjoy" xlink:title="Rodrik Greyjoy" target="_blank">
<text text-anchor="start" x="12.5" y="-70.3" font-family="Times,serif" font-size="14.00">Rodrik Greyjoy</text>
<text text-anchor="start" x="37.5" y="-55.3" font-family="Times,serif" font-size="14.00">268&#45;289</text>
</a>
</g>
<g><a xlink:href="/character/display?id=Rodrik_Greyjoy" xlink:title="Rodrik Greyjoy" target="_blank">
</a>
</g>
</g>
<!-- 28 -->
<g id="node4" class="node"><title>28</title>
<g id="a_node4"><a xlink:href="/character/display?id=Maron_Greyjoy" xlink:title="Maron Greyjoy" target="_blank">
<polygon fill="white" stroke="black" points="285.25,-133.5 152.75,-133.5 152.75,-0.5 285.25,-0.5 285.25,-133.5"/>
</a>
</g>
<g id="a_node4_3"><a xlink:href="http://awoiaf.westeros.org/index.php/Maron_Greyjoy" xlink:title="Maron Greyjoy" target="_blank">
<text text-anchor="start" x="165.5" y="-70.3" font-family="Times,serif" font-size="14.00">Maron Greyjoy</text>
<text text-anchor="start" x="190" y="-55.3" font-family="Times,serif" font-size="14.00">269&#45;289</text>
</a>
</g>
<g><a xlink:href="/character/display?id=Maron_Greyjoy" xlink:title="Maron Greyjoy" target="_blank">
</a>
</g>
</g>
<!-- 29 -->
<g id="node5" class="node"><title>29</title>
<g id="a_node5"><a xlink:href="/character/display?id=Asha_Greyjoy" xlink:title="Asha Greyjoy" target="_blank">
<polygon fill="white" stroke="black" points="424.25,-127.5 303.75,-127.5 303.75,-6.5 424.25,-6.5 424.25,-127.5"/>
</a>
</g>
<g id="a_node5_4"><a xlink:href="http://awoiaf.westeros.org/index.php/Asha_Greyjoy" xlink:title="Asha Greyjoy" target="_blank">
<text text-anchor="start" x="316.5" y="-70.3" font-family="Times,serif" font-size="14.00">Asha Greyjoy</text>
<text text-anchor="start" x="348.5" y="-55.3" font-family="Times,serif" font-size="14.00">275&#45;</text>
</a>
</g>
<g><a xlink:href="/character/display?id=Asha_Greyjoy" xlink:title="Asha Greyjoy" target="_blank">
</a>
</g>
</g>
<!-- 30 -->
<g id="node6" class="node"><title>30</title>
<g id="a_node6"><a xlink:href="/character/display?id=Theon_Greyjoy" xlink:title="Theon Greyjoy" target="_blank">
<polygon fill="white" stroke="black" points="571.25,-131.5 442.75,-131.5 442.75,-2.5 571.25,-2.5 571.25,-131.5"/>
</a>
</g>
<g id="a_node6_5"><a xlink:href="http://awoiaf.westeros.org/index.php/Theon_Greyjoy" xlink:title="Theon Greyjoy" target="_blank">
<text text-anchor="start" x="455.5" y="-70.3" font-family="Times,serif" font-size="14.00">Theon Greyjoy</text>
<text text-anchor="start" x="491.5" y="-55.3" font-family="Times,serif" font-size="14.00">278&#45;</text>
</a>
</g>
<g><a xlink:href="/character/display?id=Theon_Greyjoy" xlink:title="Theon Greyjoy" target="_blank">
</a>
</g>
</g>
<!-- 31 -->
<g id="node7" class="node"><title>31</title>
<g id="a_node7"><a xlink:href="/character/display?id=Quellon_Grejoy" xlink:title="Quellon Greyjoy" target="_blank">
<polygon fill="white" stroke="black" points="1209,-610 1069,-610 1069,-470 1209,-470 1209,-610"/>
</a>
</g>
<g id="a_node7_6"><a xlink:href="http://awoiaf.westeros.org/index.php/Quellon_Grejoy" xlink:title="Quellon Greyjoy" target="_blank">
<text text-anchor="start" x="1081.5" y="-543.3" font-family="Times,serif" font-size="14.00">Quellon Greyjoy</text>
<text text-anchor="start" x="1111.5" y="-528.3" font-family="Times,serif" font-size="14.00">???&#45;283</text>
</a>
</g>
<g><a xlink:href="/character/display?id=Quellon_Grejoy" xlink:title="Quellon Greyjoy" target="_blank">
</a>
</g>
</g>
<!-- 31+32 -->
<g id="node20" class="node"><title>31+32</title>
<ellipse fill="black" stroke="black" cx="1306" cy="-400" rx="1.8" ry="1.8"/>
</g>
<!-- 31&#45;&gt;31+32 -->
<g id="edge3" class="edge"><title>31&#45;&gt;31+32</title>
<path fill="none" stroke="black" d="M1185.94,-469.994C1195.92,-458.337 1207.08,-447.088 1219,-438 1249.28,-414.909 1296.13,-403.283 1304.65,-401.306"/>
</g>
<!-- 31+37 -->
<g id="node21" class="node"><title>31+37</title>
<ellipse fill="black" stroke="black" cx="761" cy="-400" rx="1.8" ry="1.8"/>
</g>
<!-- 31&#45;&gt;31+37 -->
<g id="edge5" class="edge"><title>31&#45;&gt;31+37</title>
<path fill="none" stroke="black" d="M1068.98,-512.382C1014.36,-491.745 936.519,-462.611 868,-438 825.083,-422.585 772.075,-404.722 762.513,-401.508"/>
</g>
<!-- 31+42 -->
<g id="node22" class="node"><title>31+42</title>
<ellipse fill="black" stroke="black" cx="1582" cy="-400" rx="1.8" ry="1.8"/>
</g>
<!-- 31&#45;&gt;31+42 -->
<g id="edge7" class="edge"><title>31&#45;&gt;31+42</title>
<path fill="none" stroke="black" d="M1181.24,-469.983C1192.02,-457.431 1204.68,-445.846 1219,-438 1287.05,-400.712 1557.32,-400.907 1580.42,-400.993"/>
</g>
<!-- 32 -->
<g id="node8" class="node"><title>32</title>
<g id="a_node8"><a xlink:title="Lady of House Stonetree" target="_blank">
<polygon fill="white" stroke="black" points="1430.25,-641.5 1227.75,-641.5 1227.75,-438.5 1430.25,-438.5 1430.25,-641.5"/>
<text text-anchor="start" x="1240.5" y="-543.3" font-family="Times,serif" font-size="14.00">Lady of House Stonetree</text>
<text text-anchor="start" x="1304.5" y="-528.3" font-family="Times,serif" font-size="14.00">???&#45;???</text>
</a>
</g>
</g>
<!-- 32&#45;&gt;31+32 -->
<g id="edge4" class="edge"><title>32&#45;&gt;31+32</title>
<path fill="none" stroke="black" d="M1312.22,-438.345C1309.24,-420.438 1306.86,-406.163 1306.19,-402.139"/>
</g>
<!-- 34 -->
<g id="node9" class="node"><title>34</title>
<g id="a_node9"><a xlink:href="/character/display?id=Harlon_Greyjoy" xlink:title="Harlon Greyjoy" target="_blank">
<polygon fill="white" stroke="black" points="1214.25,-353.5 1079.75,-353.5 1079.75,-218.5 1214.25,-218.5 1214.25,-353.5"/>
</a>
</g>
<g id="a_node9_8"><a xlink:href="http://awoiaf.westeros.org/index.php/Harlon_Greyjoy" xlink:title="Harlon Greyjoy" target="_blank">
<text text-anchor="start" x="1092.5" y="-289.3" font-family="Times,serif" font-size="14.00">Harlon Greyjoy</text>
<text text-anchor="start" x="1120" y="-274.3" font-family="Times,serif" font-size="14.00">253&#45;???</text>
</a>
</g>
<g><a xlink:href="/character/display?id=Harlon_Greyjoy" xlink:title="Harlon Greyjoy" target="_blank">
</a>
</g>
</g>
<!-- 35 -->
<g id="node10" class="node"><title>35</title>
<g id="a_node10"><a xlink:href="/character/display?id=Quenton_Greyjoy" xlink:title="Quenton Greyjoy" target="_blank">
<polygon fill="white" stroke="black" points="1379,-359 1233,-359 1233,-213 1379,-213 1379,-359"/>
</a>
</g>
<g id="a_node10_9"><a xlink:href="http://awoiaf.westeros.org/index.php/Quenton_Greyjoy" xlink:title="Quenton Greyjoy" target="_blank">
<text text-anchor="start" x="1245.5" y="-289.3" font-family="Times,serif" font-size="14.00">Quenton Greyjoy</text>
<text text-anchor="start" x="1278.5" y="-274.3" font-family="Times,serif" font-size="14.00">254&#45;???</text>
</a>
</g>
<g><a xlink:href="/character/display?id=Quenton_Greyjoy" xlink:title="Quenton Greyjoy" target="_blank">
</a>
</g>
</g>
<!-- 36 -->
<g id="node11" class="node"><title>36</title>
<g id="a_node11"><a xlink:href="/character/display?id=Donel_Greyjoy" xlink:title="Donel Greyjoy" target="_blank">
<polygon fill="white" stroke="black" points="1524.25,-349.5 1397.75,-349.5 1397.75,-222.5 1524.25,-222.5 1524.25,-349.5"/>
</a>
</g>
<g id="a_node11_10"><a xlink:href="http://awoiaf.westeros.org/index.php/Donel_Greyjoy" xlink:title="Donel Greyjoy" target="_blank">
<text text-anchor="start" x="1410.5" y="-289.3" font-family="Times,serif" font-size="14.00">Donel Greyjoy</text>
<text text-anchor="start" x="1434" y="-274.3" font-family="Times,serif" font-size="14.00">255&#45;???</text>
</a>
</g>
<g><a xlink:href="/character/display?id=Donel_Greyjoy" xlink:title="Donel Greyjoy" target="_blank">
</a>
</g>
</g>
<!-- 37 -->
<g id="node12" class="node"><title>37</title>
<g id="a_node12"><a xlink:title="Lady of House Sunderly" target="_blank">
<polygon fill="white" stroke="black" points="859.25,-638.5 662.75,-638.5 662.75,-441.5 859.25,-441.5 859.25,-638.5"/>
<text text-anchor="start" x="675.5" y="-543.3" font-family="Times,serif" font-size="14.00">Lady of House Sunderly</text>
<text text-anchor="start" x="736.5" y="-528.3" font-family="Times,serif" font-size="14.00">???&#45;???</text>
</a>
</g>
</g>
<!-- 37&#45;&gt;31+37 -->
<g id="edge6" class="edge"><title>37&#45;&gt;31+37</title>
<path fill="none" stroke="black" d="M761,-441.286C761,-421.462 761,-405.486 761,-401.802"/>
</g>
<!-- 38 -->
<g id="node13" class="node"><title>38</title>
<g id="a_node13"><a xlink:href="/character/display?id=Euron_Greyjoy" xlink:title="Euron Greyjoy" target="_blank">
<polygon fill="white" stroke="black" points="584.25,-350.5 455.75,-350.5 455.75,-221.5 584.25,-221.5 584.25,-350.5"/>
</a>
</g>
<g id="a_node13_12"><a xlink:href="http://awoiaf.westeros.org/index.php/Euron_Greyjoy" xlink:title="Euron Greyjoy" target="_blank">
<text text-anchor="start" x="468.5" y="-289.3" font-family="Times,serif" font-size="14.00">Euron Greyjoy</text>
<text text-anchor="start" x="504.5" y="-274.3" font-family="Times,serif" font-size="14.00">256&#45;</text>
</a>
</g>
<g><a xlink:href="/character/display?id=Euron_Greyjoy" xlink:title="Euron Greyjoy" target="_blank">
</a>
</g>
</g>
<!-- 39 -->
<g id="node14" class="node"><title>39</title>
<g id="a_node14"><a xlink:href="/character/display?id=Victarion_Greyjoy" xlink:title="Victarion Greyjoy" target="_blank">
<polygon fill="white" stroke="black" points="755,-362 603,-362 603,-210 755,-210 755,-362"/>
</a>
</g>
<g id="a_node14_13"><a xlink:href="http://awoiaf.westeros.org/index.php/Victarion_Greyjoy" xlink:title="Victarion Greyjoy" target="_blank">
<text text-anchor="start" x="615.5" y="-289.3" font-family="Times,serif" font-size="14.00">Victarion Greyjoy</text>
<text text-anchor="start" x="663" y="-274.3" font-family="Times,serif" font-size="14.00">257&#45;</text>
</a>
</g>
<g><a xlink:href="/character/display?id=Victarion_Greyjoy" xlink:title="Victarion Greyjoy" target="_blank">
</a>
</g>
</g>
<!-- 40 -->
<g id="node15" class="node"><title>40</title>
<g id="a_node15"><a xlink:href="/character/display?id=Urrigon_Greyjoy" xlink:title="Urrigon Greyjoy" target="_blank">
<polygon fill="white" stroke="black" points="914.25,-356.5 773.75,-356.5 773.75,-215.5 914.25,-215.5 914.25,-356.5"/>
</a>
</g>
<g id="a_node15_14"><a xlink:href="http://awoiaf.westeros.org/index.php/Urrigon_Greyjoy" xlink:title="Urrigon Greyjoy" target="_blank">
<text text-anchor="start" x="786.5" y="-289.3" font-family="Times,serif" font-size="14.00">Urrigon Greyjoy</text>
<text text-anchor="start" x="815" y="-274.3" font-family="Times,serif" font-size="14.00">268&#45;283</text>
</a>
</g>
<g><a xlink:href="/character/display?id=Urrigon_Greyjoy" xlink:title="Urrigon Greyjoy" target="_blank">
</a>
</g>
</g>
<!-- 41 -->
<g id="node16" class="node"><title>41</title>
<g id="a_node16"><a xlink:href="/character/display?id=Aeron_Greyjoy" xlink:title="Aeron Greyjoy" target="_blank">
<polygon fill="white" stroke="black" points="1061,-350 933,-350 933,-222 1061,-222 1061,-350"/>
</a>
</g>
<g id="a_node16_15"><a xlink:href="http://awoiaf.westeros.org/index.php/Aeron_Greyjoy" xlink:title="Aeron Greyjoy" target="_blank">
<text text-anchor="start" x="945.5" y="-289.3" font-family="Times,serif" font-size="14.00">Aeron Greyjoy</text>
<text text-anchor="start" x="981" y="-274.3" font-family="Times,serif" font-size="14.00">269&#45;</text>
</a>
</g>
<g><a xlink:href="/character/display?id=Aeron_Greyjoy" xlink:title="Aeron Greyjoy" target="_blank">
</a>
</g>
</g>
<!-- 42 -->
<g id="node17" class="node"><title>42</title>
<g id="a_node17"><a xlink:title="Lady of House Piper" target="_blank">
<polygon fill="white" stroke="black" points="1668,-626 1496,-626 1496,-454 1668,-454 1668,-626"/>
<text text-anchor="start" x="1508.5" y="-543.3" font-family="Times,serif" font-size="14.00">Lady of House Piper</text>
<text text-anchor="start" x="1557" y="-528.3" font-family="Times,serif" font-size="14.00">???&#45;???</text>
</a>
</g>
</g>
<!-- 42&#45;&gt;31+42 -->
<g id="edge8" class="edge"><title>42&#45;&gt;31+42</title>
<path fill="none" stroke="black" d="M1582,-453.96C1582,-429.111 1582,-407.2 1582,-402.111"/>
</g>
<!-- 43 -->
<g id="node18" class="node"><title>43</title>
<g id="a_node18"><a xlink:href="/character/display?id=Robin_Greyjoy" xlink:title="Robin Greyjoy" target="_blank">
<polygon fill="white" stroke="black" points="1669.25,-349.5 1542.75,-349.5 1542.75,-222.5 1669.25,-222.5 1669.25,-349.5"/>
</a>
</g>
<g id="a_node18_17"><a xlink:href="http://awoiaf.westeros.org/index.php/Robin_Greyjoy" xlink:title="Robin Greyjoy" target="_blank">
<text text-anchor="start" x="1555.5" y="-289.3" font-family="Times,serif" font-size="14.00">Robin Greyjoy</text>
<text text-anchor="start" x="1590.5" y="-274.3" font-family="Times,serif" font-size="14.00">269&#45;</text>
</a>
</g>
<g><a xlink:href="/character/display?id=Robin_Greyjoy" xlink:title="Robin Greyjoy" target="_blank">
</a>
</g>
</g>
<!-- 25+26&#45;&gt;27 -->
<g id="edge10" class="edge"><title>25+26&#45;&gt;27</title>
<path fill="none" stroke="black" d="M289.446,-170.886C277.441,-169.955 198.441,-162.866 143,-134 140.055,-132.467 137.128,-130.797 134.234,-129.021"/>
</g>
<!-- 25+26&#45;&gt;28 -->
<g id="edge11" class="edge"><title>25+26&#45;&gt;28</title>
<path fill="none" stroke="black" d="M290.191,-169.843C287.287,-165.688 276.917,-150.853 264.955,-133.742"/>
</g>
<!-- 25+26&#45;&gt;29 -->
<g id="edge12" class="edge"><title>25+26&#45;&gt;29</title>
<path fill="none" stroke="black" d="M291.82,-169.843C295.109,-165.202 307.843,-147.235 321.721,-127.655"/>
</g>
<!-- 25+26&#45;&gt;30 -->
<g id="edge13" class="edge"><title>25+26&#45;&gt;30</title>
<path fill="none" stroke="black" d="M292.494,-170.877C304.039,-169.879 379.997,-162.381 433,-134 436.187,-132.294 439.349,-130.423 442.469,-128.427"/>
</g>
<!-- 31+32&#45;&gt;34 -->
<g id="edge14" class="edge"><title>31+32&#45;&gt;34</title>
<path fill="none" stroke="black" d="M1304.76,-398.623C1296.96,-396.213 1253.95,-382.401 1224,-362 1220.14,-359.373 1216.31,-356.544 1212.52,-353.578"/>
</g>
<!-- 31+32&#45;&gt;35 -->
<g id="edge15" class="edge"><title>31+32&#45;&gt;35</title>
<path fill="none" stroke="black" d="M1306,-397.742C1306,-393.272 1306,-377.435 1306,-359.079"/>
</g>
<!-- 31+32&#45;&gt;36 -->
<g id="edge16" class="edge"><title>31+32&#45;&gt;36</title>
<path fill="none" stroke="black" d="M1307.24,-398.634C1315.09,-396.287 1358.33,-382.799 1388,-362 1393.36,-358.245 1398.65,-354.063 1403.79,-349.649"/>
</g>
<!-- 31+37&#45;&gt;25 -->
<g id="edge9" class="edge"><title>31+37&#45;&gt;25</title>
<path fill="none" stroke="black" d="M759.31,-399.033C731.923,-399.551 379.58,-405.331 288,-362 280.821,-358.603 273.983,-354.159 267.581,-349.127"/>
</g>
<!-- 31+37&#45;&gt;38 -->
<g id="edge17" class="edge"><title>31+37&#45;&gt;38</title>
<path fill="none" stroke="black" d="M759.224,-398.979C745.509,-398.743 655.332,-395.911 594,-362 588.077,-358.725 582.32,-354.83 576.806,-350.563"/>
</g>
<!-- 31+37&#45;&gt;39 -->
<g id="edge18" class="edge"><title>31+37&#45;&gt;39</title>
<path fill="none" stroke="black" d="M760.079,-397.742C756.982,-393.512 746.434,-379.105 733.923,-362.017"/>
</g>
<!-- 31+37&#45;&gt;40 -->
<g id="edge19" class="edge"><title>31+37&#45;&gt;40</title>
<path fill="none" stroke="black" d="M761.932,-397.742C765.387,-393.08 778.007,-376.051 792.349,-356.698"/>
</g>
<!-- 31+37&#45;&gt;41 -->
<g id="edge20" class="edge"><title>31+37&#45;&gt;41</title>
<path fill="none" stroke="black" d="M762.723,-398.965C776.031,-398.622 863.524,-395.138 923,-362 929.072,-358.617 934.972,-354.586 940.617,-350.173"/>
</g>
<!-- 31+42&#45;&gt;43 -->
<g id="edge21" class="edge"><title>31+42&#45;&gt;43</title>
<path fill="none" stroke="black" d="M1582.27,-397.742C1583.39,-392.527 1587.82,-371.84 1592.56,-349.733"/>
</g>
</g>
</svg>
