<?xml version="1.0" encoding="UTF-8" standalone="no"?>
<!DOCTYPE svg PUBLIC "-//W3C//DTD SVG 1.1//EN"
 "http://www.w3.org/Graphics/SVG/1.1/DTD/svg11.dtd">
<!-- Generated by graphviz version 2.36.0 (20140111.2315)
 -->
<!-- Title: family Pages: 1 -->
<svg width="953pt" height="766pt"
 viewBox="0.00 0.00 953.00 766.00" xmlns="http://www.w3.org/2000/svg" xmlns:xlink="http://www.w3.org/1999/xlink">
<g id="graph0" class="graph" transform="scale(1 1) rotate(0) translate(4 762)">
<title>family</title>
<polygon fill="white" stroke="none" points="-4,4 -4,-762 949,-762 949,4 -4,4"/>
<!-- 12 -->
<g id="node1" class="node"><title>12</title>
<g id="a_node1"><a xlink:href="/character/display?id=Hoster_Tully" xlink:title="Hoster Tully" target="_blank">
<polygon fill="white" stroke="black" points="835.25,-524.5 720.75,-524.5 720.75,-409.5 835.25,-409.5 835.25,-524.5"/>
</a>
</g>
<g id="a_node1_0"><a xlink:href="http://awoiaf.westeros.org/index.php/Hoster_Tully" xlink:title="Hoster Tully" target="_blank">
<text text-anchor="start" x="733.5" y="-470.3" font-family="Times,serif" font-size="14.00">Hoster Tully</text>
<text text-anchor="start" x="749" y="-455.3" font-family="Times,serif" font-size="14.00">237&#45;299</text>
</a>
</g>
<g><a xlink:href="/character/display?id=Hoster_Tully" xlink:title="Hoster Tully" target="_blank">
</a>
</g>
</g>
<!-- 12+13 -->
<g id="node17" class="node"><title>12+13</title>
<ellipse fill="black" stroke="black" cx="708" cy="-366" rx="1.8" ry="1.8"/>
</g>
<!-- 12&#45;&gt;12+13 -->
<g id="edge1" class="edge"><title>12&#45;&gt;12+13</title>
<path fill="none" stroke="black" d="M737.889,-409.272C724.204,-389.917 711.584,-372.069 708.643,-367.909"/>
</g>
<!-- 105 -->
<g id="node2" class="node"><title>105</title>
<g id="a_node2"><a xlink:title="Unknown Tully" target="_blank">
<polygon fill="white" stroke="black" points="764.25,-748.5 631.75,-748.5 631.75,-615.5 764.25,-615.5 764.25,-748.5"/>
<text text-anchor="start" x="644.5" y="-685.3" font-family="Times,serif" font-size="14.00">Unknown Tully</text>
<text text-anchor="start" x="673.5" y="-670.3" font-family="Times,serif" font-size="14.00">???&#45;???</text>
</a>
</g>
</g>
<!-- 105+106 -->
<g id="node18" class="node"><title>105+106</title>
<ellipse fill="black" stroke="black" cx="778" cy="-568" rx="1.8" ry="1.8"/>
</g>
<!-- 105&#45;&gt;105+106 -->
<g id="edge3" class="edge"><title>105&#45;&gt;105+106</title>
<path fill="none" stroke="black" d="M744.999,-615.201C760.236,-593.869 774.075,-574.495 777.296,-569.985"/>
</g>
<!-- 106 -->
<g id="node3" class="node"><title>106</title>
<g id="a_node3"><a xlink:title="Unknown Woman" target="_blank">
<polygon fill="white" stroke="black" points="933.25,-757.5 782.75,-757.5 782.75,-606.5 933.25,-606.5 933.25,-757.5"/>
<text text-anchor="start" x="795.5" y="-685.3" font-family="Times,serif" font-size="14.00">Unknown Woman</text>
<text text-anchor="start" x="833.5" y="-670.3" font-family="Times,serif" font-size="14.00">???&#45;???</text>
</a>
</g>
</g>
<!-- 106&#45;&gt;105+106 -->
<g id="edge4" class="edge"><title>106&#45;&gt;105+106</title>
<path fill="none" stroke="black" d="M804.639,-606.294C791.798,-588.318 781.033,-573.247 778.543,-569.76"/>
</g>
<!-- 2 -->
<g id="node4" class="node"><title>2</title>
<g id="a_node4"><a xlink:href="/character/display?id=Catelyn_Stark" xlink:title="Catelyn Tully" target="_blank">
<polygon fill="white" stroke="black" points="451.25,-327.5 330.75,-327.5 330.75,-206.5 451.25,-206.5 451.25,-327.5"/>
</a>
</g>
<g id="a_node4_3"><a xlink:href="http://awoiaf.westeros.org/index.php/Catelyn_Stark" xlink:title="Catelyn Tully" target="_blank">
<text text-anchor="start" x="343.5" y="-270.3" font-family="Times,serif" font-size="14.00">Catelyn Tully</text>
<text text-anchor="start" x="362" y="-255.3" font-family="Times,serif" font-size="14.00">264&#45;299</text>
</a>
</g>
<g><a xlink:href="/character/display?id=Catelyn_Stark" xlink:title="Catelyn Tully" target="_blank">
</a>
</g>
</g>
<!-- 1+2 -->
<g id="node19" class="node"><title>1+2</title>
<ellipse fill="black" stroke="black" cx="304" cy="-168" rx="1.8" ry="1.8"/>
</g>
<!-- 2&#45;&gt;1+2 -->
<g id="edge6" class="edge"><title>2&#45;&gt;1+2</title>
<path fill="none" stroke="black" d="M337.388,-206.225C321.722,-188.759 307.909,-173.358 304.7,-169.781"/>
</g>
<!-- 19 -->
<g id="node5" class="node"><title>19</title>
<g id="a_node5"><a xlink:href="/character/display?id=Edmure_Tully" xlink:title="Edmure Tully" target="_blank">
<polygon fill="white" stroke="black" points="705,-328 583,-328 583,-206 705,-206 705,-328"/>
</a>
</g>
<g id="a_node5_4"><a xlink:href="http://awoiaf.westeros.org/index.php/Edmure_Tully" xlink:title="Edmure Tully" target="_blank">
<text text-anchor="start" x="595.5" y="-270.3" font-family="Times,serif" font-size="14.00">Edmure Tully</text>
<text text-anchor="start" x="628" y="-255.3" font-family="Times,serif" font-size="14.00">267&#45;</text>
</a>
</g>
<g><a xlink:href="/character/display?id=Edmure_Tully" xlink:title="Edmure Tully" target="_blank">
</a>
</g>
</g>
<!-- 20 -->
<g id="node6" class="node"><title>20</title>
<g id="a_node6"><a xlink:href="/character/display?id=Lysa_Arryn" xlink:title="Lysa Tully" target="_blank">
<polygon fill="white" stroke="black" points="822.25,-316.5 723.75,-316.5 723.75,-217.5 822.25,-217.5 822.25,-316.5"/>
</a>
</g>
<g id="a_node6_5"><a xlink:href="http://awoiaf.westeros.org/index.php/Lysa_Arryn" xlink:title="Lysa Tully" target="_blank">
<text text-anchor="start" x="736.5" y="-270.3" font-family="Times,serif" font-size="14.00">Lysa Tully</text>
<text text-anchor="start" x="744" y="-255.3" font-family="Times,serif" font-size="14.00">266&#45;300</text>
</a>
</g>
<g><a xlink:href="/character/display?id=Lysa_Arryn" xlink:title="Lysa Tully" target="_blank">
</a>
</g>
</g>
<!-- 22+20 -->
<g id="node20" class="node"><title>22+20</title>
<ellipse fill="black" stroke="black" cx="746" cy="-168" rx="1.8" ry="1.8"/>
</g>
<!-- 20&#45;&gt;22+20 -->
<g id="edge8" class="edge"><title>20&#45;&gt;22+20</title>
<path fill="none" stroke="black" d="M759.421,-217.216C753.538,-196.08 747.675,-175.017 746.301,-170.081"/>
</g>
<!-- 108 -->
<g id="node7" class="node"><title>108</title>
<g id="a_node7"><a xlink:title="Three Sons" target="_blank">
<polygon fill="white" stroke="black" points="945.25,-319.5 840.75,-319.5 840.75,-214.5 945.25,-214.5 945.25,-319.5"/>
<text text-anchor="start" x="853.5" y="-270.3" font-family="Times,serif" font-size="14.00">Three Sons</text>
<text text-anchor="start" x="868.5" y="-255.3" font-family="Times,serif" font-size="14.00">???&#45;???</text>
</a>
</g>
</g>
<!-- 3 -->
<g id="node8" class="node"><title>3</title>
<g id="a_node8"><a xlink:href="/character/display?id=Robb_Stark" xlink:title="Robb Stark" target="_blank">
<polygon fill="white" stroke="black" points="105.5,-118 0.5,-118 0.5,-12 105.5,-12 105.5,-118"/>
</a>
</g>
<g id="a_node8_7"><a xlink:href="http://awoiaf.westeros.org/index.php/Robb_Stark" xlink:title="Robb Stark" target="_blank">
<text text-anchor="start" x="12.5" y="-68.3" font-family="Times,serif" font-size="14.00">Robb Stark</text>
<text text-anchor="start" x="23.5" y="-53.3" font-family="Times,serif" font-size="14.00">283&#45;299</text>
</a>
</g>
<g><a xlink:href="/character/display?id=Robb_Stark" xlink:title="Robb Stark" target="_blank">
</a>
</g>
</g>
<!-- 4 -->
<g id="node9" class="node"><title>4</title>
<g id="a_node9"><a xlink:href="/character/display?id=Sansa_Stark" xlink:title="Sansa Stark" target="_blank">
<polygon fill="white" stroke="black" points="234.25,-120.5 123.75,-120.5 123.75,-9.5 234.25,-9.5 234.25,-120.5"/>
</a>
</g>
<g id="a_node9_8"><a xlink:href="http://awoiaf.westeros.org/index.php/Sansa_Stark" xlink:title="Sansa Stark" target="_blank">
<text text-anchor="start" x="136.5" y="-68.3" font-family="Times,serif" font-size="14.00">Sansa Stark</text>
<text text-anchor="start" x="163.5" y="-53.3" font-family="Times,serif" font-size="14.00">286&#45;</text>
</a>
</g>
<g><a xlink:href="/character/display?id=Sansa_Stark" xlink:title="Sansa Stark" target="_blank">
</a>
</g>
</g>
<!-- 5 -->
<g id="node10" class="node"><title>5</title>
<g id="a_node10"><a xlink:href="/character/display?id=Arya_Stark" xlink:title="Arya Stark" target="_blank">
<polygon fill="white" stroke="black" points="355.25,-116.5 252.75,-116.5 252.75,-13.5 355.25,-13.5 355.25,-116.5"/>
</a>
</g>
<g id="a_node10_9"><a xlink:href="http://awoiaf.westeros.org/index.php/Arya_Stark" xlink:title="Arya Stark" target="_blank">
<text text-anchor="start" x="265.5" y="-68.3" font-family="Times,serif" font-size="14.00">Arya Stark</text>
<text text-anchor="start" x="288.5" y="-53.3" font-family="Times,serif" font-size="14.00">289&#45;</text>
</a>
</g>
<g><a xlink:href="/character/display?id=Arya_Stark" xlink:title="Arya Stark" target="_blank">
</a>
</g>
</g>
<!-- 6 -->
<g id="node11" class="node"><title>6</title>
<g id="a_node11"><a xlink:href="/character/display?id=Bran_Stark" xlink:title="Brandon Stark" target="_blank">
<polygon fill="white" stroke="black" points="504,-130 374,-130 374,-0 504,-0 504,-130"/>
</a>
</g>
<g id="a_node11_10"><a xlink:href="http://awoiaf.westeros.org/index.php/Bran_Stark" xlink:title="Brandon Stark" target="_blank">
<text text-anchor="start" x="386.5" y="-68.3" font-family="Times,serif" font-size="14.00">Brandon Stark</text>
<text text-anchor="start" x="423" y="-53.3" font-family="Times,serif" font-size="14.00">290&#45;</text>
</a>
</g>
<g><a xlink:href="/character/display?id=Bran_Stark" xlink:title="Brandon Stark" target="_blank">
</a>
</g>
</g>
<!-- 7 -->
<g id="node12" class="node"><title>7</title>
<g id="a_node12"><a xlink:href="/character/display?id=Rickon_Stark" xlink:title="Rickon Stark" target="_blank">
<polygon fill="white" stroke="black" points="641.25,-124.5 522.75,-124.5 522.75,-5.5 641.25,-5.5 641.25,-124.5"/>
</a>
</g>
<g id="a_node12_11"><a xlink:href="http://awoiaf.westeros.org/index.php/Rickon_Stark" xlink:title="Rickon Stark" target="_blank">
<text text-anchor="start" x="535.5" y="-68.3" font-family="Times,serif" font-size="14.00">Rickon Stark</text>
<text text-anchor="start" x="566.5" y="-53.3" font-family="Times,serif" font-size="14.00">295&#45;</text>
</a>
</g>
<g><a xlink:href="/character/display?id=Rickon_Stark" xlink:title="Rickon Stark" target="_blank">
</a>
</g>
</g>
<!-- 23 -->
<g id="node13" class="node"><title>23</title>
<g id="a_node13"><a xlink:href="/character/display?id=Robert_Arryn" xlink:title="Robert Arryn" target="_blank">
<polygon fill="white" stroke="black" points="805.5,-125 686.5,-125 686.5,-5 805.5,-5 805.5,-125"/>
</a>
</g>
<g id="a_node13_12"><a xlink:href="http://awoiaf.westeros.org/index.php/Robert_Arryn" xlink:title="Robert Arryn" target="_blank">
<text text-anchor="start" x="698.5" y="-68.3" font-family="Times,serif" font-size="14.00">Robert Arryn</text>
<text text-anchor="start" x="730" y="-53.3" font-family="Times,serif" font-size="14.00">292&#45;</text>
</a>
</g>
<g><a xlink:href="/character/display?id=Robert_Arryn" xlink:title="Robert Arryn" target="_blank">
</a>
</g>
</g>
<!-- 13 -->
<g id="node14" class="node"><title>13</title>
<g id="a_node14"><a xlink:href="/character/display?id=Minisa_Whent" xlink:title="Minisa Whent" target="_blank">
<polygon fill="white" stroke="black" points="702,-530 576,-530 576,-404 702,-404 702,-530"/>
</a>
</g>
<g id="a_node14_13"><a xlink:href="http://awoiaf.westeros.org/index.php/Minisa_Whent" xlink:title="Minisa Whent" target="_blank">
<text text-anchor="start" x="588.5" y="-470.3" font-family="Times,serif" font-size="14.00">Minisa Whent</text>
<text text-anchor="start" x="609.5" y="-455.3" font-family="Times,serif" font-size="14.00">250&#45;268</text>
</a>
</g>
<g><a xlink:href="/character/display?id=Minisa_Whent" xlink:title="Minisa Whent" target="_blank">
</a>
</g>
</g>
<!-- 13&#45;&gt;12+13 -->
<g id="edge2" class="edge"><title>13&#45;&gt;12+13</title>
<path fill="none" stroke="black" d="M682.307,-403.864C694.437,-386.46 705.011,-371.289 707.465,-367.768"/>
</g>
<!-- 1 -->
<g id="node15" class="node"><title>1</title>
<g id="a_node15"><a xlink:href="/character/display?id=Eddard_Stark" xlink:title="Eddard Stark" target="_blank">
<polygon fill="white" stroke="black" points="312,-328 190,-328 190,-206 312,-206 312,-328"/>
</a>
</g>
<g id="a_node15_14"><a xlink:href="http://awoiaf.westeros.org/index.php/Eddard_Stark" xlink:title="Eddard Stark" target="_blank">
<text text-anchor="start" x="202.5" y="-270.3" font-family="Times,serif" font-size="14.00">Eddard Stark</text>
<text text-anchor="start" x="221.5" y="-255.3" font-family="Times,serif" font-size="14.00">263&#45;299</text>
</a>
</g>
<g><a xlink:href="/character/display?id=Eddard_Stark" xlink:title="Eddard Stark" target="_blank">
</a>
</g>
</g>
<!-- 1&#45;&gt;1+2 -->
<g id="edge5" class="edge"><title>1&#45;&gt;1+2</title>
<path fill="none" stroke="black" d="M283.812,-205.948C293.299,-188.585 301.64,-173.319 303.577,-169.774"/>
</g>
<!-- 22 -->
<g id="node16" class="node"><title>22</title>
<g id="a_node16"><a xlink:href="/character/display?id=Jon_Arryn" xlink:title="Jon Arryn" target="_blank">
<polygon fill="white" stroke="black" points="564.25,-314.5 469.75,-314.5 469.75,-219.5 564.25,-219.5 564.25,-314.5"/>
</a>
</g>
<g id="a_node16_15"><a xlink:href="http://awoiaf.westeros.org/index.php/Jon_Arryn" xlink:title="Jon Arryn" target="_blank">
<text text-anchor="start" x="482.5" y="-270.3" font-family="Times,serif" font-size="14.00">Jon Arryn</text>
<text text-anchor="start" x="488" y="-255.3" font-family="Times,serif" font-size="14.00">217&#45;298</text>
</a>
</g>
<g><a xlink:href="/character/display?id=Jon_Arryn" xlink:title="Jon Arryn" target="_blank">
</a>
</g>
</g>
<!-- 22&#45;&gt;22+20 -->
<g id="edge7" class="edge"><title>22&#45;&gt;22+20</title>
<path fill="none" stroke="black" d="M555.488,-219.387C561.265,-214.304 567.485,-209.657 574,-206 636.86,-170.718 729.997,-169.043 744.166,-168.996"/>
</g>
<!-- 12+13&#45;&gt;2 -->
<g id="edge10" class="edge"><title>12+13&#45;&gt;2</title>
<path fill="none" stroke="black" d="M706.327,-365.097C689.829,-365.987 554.882,-371.736 460,-328 457.117,-326.671 454.263,-325.183 451.451,-323.57"/>
</g>
<!-- 12+13&#45;&gt;19 -->
<g id="edge11" class="edge"><title>12+13&#45;&gt;19</title>
<path fill="none" stroke="black" d="M707.281,-363.911C704.603,-359.852 694.786,-344.973 683.656,-328.104"/>
</g>
<!-- 12+13&#45;&gt;20 -->
<g id="edge12" class="edge"><title>12+13&#45;&gt;20</title>
<path fill="none" stroke="black" d="M708.73,-363.911C712.049,-358.957 726.17,-337.884 740.333,-316.749"/>
</g>
<!-- 12+13&#45;&gt;108 -->
<g id="edge13" class="edge"><title>12+13&#45;&gt;108</title>
<path fill="none" stroke="black" d="M709.572,-364.812C720.497,-363.452 785.994,-354.406 831,-328 835.263,-325.499 839.458,-322.645 843.53,-319.572"/>
</g>
<!-- 105+106&#45;&gt;12 -->
<g id="edge9" class="edge"><title>105+106&#45;&gt;12</title>
<path fill="none" stroke="black" d="M778,-565.888C778,-561.363 778,-543.662 778,-524.53"/>
</g>
<!-- 1+2&#45;&gt;3 -->
<g id="edge14" class="edge"><title>1+2&#45;&gt;3</title>
<path fill="none" stroke="black" d="M302.355,-167.047C288.086,-167.381 184.157,-168.406 114,-130 107.941,-126.683 102.127,-122.555 96.66,-118.003"/>
</g>
<!-- 1+2&#45;&gt;4 -->
<g id="edge15" class="edge"><title>1+2&#45;&gt;4</title>
<path fill="none" stroke="black" d="M302.768,-166.395C296.246,-163.162 265.217,-147.433 243,-130 239.291,-127.09 235.573,-123.983 231.898,-120.765"/>
</g>
<!-- 1+2&#45;&gt;5 -->
<g id="edge16" class="edge"><title>1+2&#45;&gt;5</title>
<path fill="none" stroke="black" d="M304,-165.866C304,-160.708 304,-138.766 304,-116.759"/>
</g>
<!-- 1+2&#45;&gt;6 -->
<g id="edge17" class="edge"><title>1+2&#45;&gt;6</title>
<path fill="none" stroke="black" d="M305.539,-166.167C312.523,-162.363 341.841,-146.139 364,-130 367.182,-127.682 370.398,-125.264 373.616,-122.783"/>
</g>
<!-- 1+2&#45;&gt;7 -->
<g id="edge18" class="edge"><title>1+2&#45;&gt;7</title>
<path fill="none" stroke="black" d="M305.79,-167.056C321.315,-167.472 434.475,-169.054 513,-130 516.218,-128.399 519.393,-126.601 522.508,-124.651"/>
</g>
<!-- 22+20&#45;&gt;23 -->
<g id="edge19" class="edge"><title>22+20&#45;&gt;23</title>
<path fill="none" stroke="black" d="M746,-165.866C746,-161.358 746,-144.031 746,-125.044"/>
</g>
</g>
</svg>
