<?xml version="1.0" encoding="UTF-8" standalone="no"?>
<!DOCTYPE svg PUBLIC "-//W3C//DTD SVG 1.1//EN"
 "http://www.w3.org/Graphics/SVG/1.1/DTD/svg11.dtd">
<!-- Generated by graphviz version 2.36.0 (20140111.2315)
 -->
<!-- Title: family Pages: 1 -->
<svg width="1068pt" height="1062pt"
 viewBox="0.00 0.00 1068.00 1062.00" xmlns="http://www.w3.org/2000/svg" xmlns:xlink="http://www.w3.org/1999/xlink">
<g id="graph0" class="graph" transform="scale(1 1) rotate(0) translate(4 1058)">
<title>family</title>
<polygon fill="white" stroke="none" points="-4,4 -4,-1058 1064,-1058 1064,4 -4,4"/>
<!-- 68 -->
<g id="node1" class="node"><title>68</title>
<g id="a_node1"><a xlink:href="/character/display?id=Jasper_Arryn" xlink:title="Jasper Arryn" target="_blank">
<polygon fill="white" stroke="black" points="308.25,-1036.5 191.75,-1036.5 191.75,-919.5 308.25,-919.5 308.25,-1036.5"/>
</a>
</g>
<g id="a_node1_0"><a xlink:href="http://awoiaf.westeros.org/index.php/Jasper_Arryn" xlink:title="Jasper Arryn" target="_blank">
<text text-anchor="start" x="204.5" y="-981.3" font-family="Times,serif" font-size="14.00">Jasper Arryn</text>
<text text-anchor="start" x="225.5" y="-966.3" font-family="Times,serif" font-size="14.00">???&#45;???</text>
</a>
</g>
<g><a xlink:href="/character/display?id=Jasper_Arryn" xlink:title="Jasper Arryn" target="_blank">
</a>
</g>
</g>
<!-- 68+69 -->
<g id="node23" class="node"><title>68+69</title>
<ellipse fill="black" stroke="black" cx="326" cy="-864" rx="1.8" ry="1.8"/>
</g>
<!-- 68&#45;&gt;68+69 -->
<g id="edge1" class="edge"><title>68&#45;&gt;68+69</title>
<path fill="none" stroke="black" d="M289.113,-919.36C305.407,-895.347 321.428,-871.737 325.179,-866.21"/>
</g>
<!-- 22 -->
<g id="node2" class="node"><title>22</title>
<g id="a_node2"><a xlink:href="/character/display?id=Jon_Arryn" xlink:title="Jon Arryn" target="_blank">
<polygon fill="white" stroke="black" points="132.25,-776.5 37.75,-776.5 37.75,-681.5 132.25,-681.5 132.25,-776.5"/>
</a>
</g>
<g id="a_node2_1"><a xlink:href="http://awoiaf.westeros.org/index.php/Jon_Arryn" xlink:title="Jon Arryn" target="_blank">
<text text-anchor="start" x="50.5" y="-732.3" font-family="Times,serif" font-size="14.00">Jon Arryn</text>
<text text-anchor="start" x="56" y="-717.3" font-family="Times,serif" font-size="14.00">217&#45;298</text>
</a>
</g>
<g><a xlink:href="/character/display?id=Jon_Arryn" xlink:title="Jon Arryn" target="_blank">
</a>
</g>
</g>
<!-- 22+20 -->
<g id="node24" class="node"><title>22+20</title>
<ellipse fill="black" stroke="black" cx="85" cy="-594" rx="1.8" ry="1.8"/>
</g>
<!-- 22&#45;&gt;22+20 -->
<g id="edge3" class="edge"><title>22&#45;&gt;22+20</title>
<path fill="none" stroke="black" d="M85,-681.483C85,-646.126 85,-602.461 85,-595.854"/>
</g>
<!-- 72 -->
<g id="node3" class="node"><title>72</title>
<g id="a_node3"><a xlink:href="/character/display?id=Alys_Arryn" xlink:title="Alys Arryn" target="_blank">
<polygon fill="white" stroke="black" points="376.5,-780 275.5,-780 275.5,-678 376.5,-678 376.5,-780"/>
</a>
</g>
<g id="a_node3_2"><a xlink:href="http://awoiaf.westeros.org/index.php/Alys_Arryn" xlink:title="Alys Arryn" target="_blank">
<text text-anchor="start" x="287.5" y="-732.3" font-family="Times,serif" font-size="14.00">Alys Arryn</text>
<text text-anchor="start" x="298.5" y="-717.3" font-family="Times,serif" font-size="14.00">218&#45;???</text>
</a>
</g>
<g><a xlink:href="/character/display?id=Alys_Arryn" xlink:title="Alys Arryn" target="_blank">
</a>
</g>
</g>
<!-- 73+72 -->
<g id="node28" class="node"><title>73+72</title>
<ellipse fill="black" stroke="black" cx="452" cy="-594" rx="1.8" ry="1.8"/>
</g>
<!-- 72&#45;&gt;73+72 -->
<g id="edge12" class="edge"><title>72&#45;&gt;73+72</title>
<path fill="none" stroke="black" d="M351.013,-677.633C360.493,-661.775 372.344,-645.02 386,-632 407.677,-611.333 443.094,-598.13 450.582,-595.489"/>
</g>
<!-- 86 -->
<g id="node4" class="node"><title>86</title>
<g id="a_node4"><a xlink:href="/character/display?id=Ronnel_Arryn" xlink:title="Ronnel Arryn" target="_blank">
<polygon fill="white" stroke="black" points="720.25,-789.5 599.75,-789.5 599.75,-668.5 720.25,-668.5 720.25,-789.5"/>
</a>
</g>
<g id="a_node4_3"><a xlink:href="http://awoiaf.westeros.org/index.php/Ronnel_Arryn" xlink:title="Ronnel Arryn" target="_blank">
<text text-anchor="start" x="612.5" y="-732.3" font-family="Times,serif" font-size="14.00">Ronnel Arryn</text>
<text text-anchor="start" x="633" y="-717.3" font-family="Times,serif" font-size="14.00">219&#45;???</text>
</a>
</g>
<g><a xlink:href="/character/display?id=Ronnel_Arryn" xlink:title="Ronnel Arryn" target="_blank">
</a>
</g>
</g>
<!-- 86+87 -->
<g id="node25" class="node"><title>86+87</title>
<ellipse fill="black" stroke="black" cx="860" cy="-594" rx="1.8" ry="1.8"/>
</g>
<!-- 86&#45;&gt;86+87 -->
<g id="edge5" class="edge"><title>86&#45;&gt;86+87</title>
<path fill="none" stroke="black" d="M709.863,-668.453C723.161,-655.132 738.248,-642.005 754,-632 792.172,-607.755 848.214,-597.066 858.386,-595.275"/>
</g>
<!-- 23 -->
<g id="node5" class="node"><title>23</title>
<g id="a_node5"><a xlink:href="/character/display?id=Robert_Arryn" xlink:title="Robert Arryn" target="_blank">
<polygon fill="white" stroke="black" points="119.5,-540 0.5,-540 0.5,-420 119.5,-420 119.5,-540"/>
</a>
</g>
<g id="a_node5_4"><a xlink:href="http://awoiaf.westeros.org/index.php/Robert_Arryn" xlink:title="Robert Arryn" target="_blank">
<text text-anchor="start" x="12.5" y="-483.3" font-family="Times,serif" font-size="14.00">Robert Arryn</text>
<text text-anchor="start" x="44" y="-468.3" font-family="Times,serif" font-size="14.00">292&#45;</text>
</a>
</g>
<g><a xlink:href="/character/display?id=Robert_Arryn" xlink:title="Robert Arryn" target="_blank">
</a>
</g>
</g>
<!-- 74 -->
<g id="node6" class="node"><title>74</title>
<g id="a_node6"><a xlink:title="Daughter" target="_blank">
<polygon fill="white" stroke="black" points="364.25,-526.5 271.75,-526.5 271.75,-433.5 364.25,-433.5 364.25,-526.5"/>
<text text-anchor="start" x="284.5" y="-483.3" font-family="Times,serif" font-size="14.00">Daughter</text>
<text text-anchor="start" x="293.5" y="-468.3" font-family="Times,serif" font-size="14.00">???&#45;???</text>
</a>
</g>
</g>
<!-- 75+74 -->
<g id="node29" class="node"><title>75+74</title>
<ellipse fill="black" stroke="black" cx="257" cy="-366" rx="1.8" ry="1.8"/>
</g>
<!-- 74&#45;&gt;75+74 -->
<g id="edge14" class="edge"><title>74&#45;&gt;75+74</title>
<path fill="none" stroke="black" d="M293.189,-433.445C277.884,-405.344 260.598,-373.606 257.491,-367.902"/>
</g>
<!-- 77 -->
<g id="node7" class="node"><title>77</title>
<g id="a_node7"><a xlink:title="Daughter" target="_blank">
<polygon fill="white" stroke="black" points="791.25,-526.5 698.75,-526.5 698.75,-433.5 791.25,-433.5 791.25,-526.5"/>
<text text-anchor="start" x="711.5" y="-483.3" font-family="Times,serif" font-size="14.00">Daughter</text>
<text text-anchor="start" x="720.5" y="-468.3" font-family="Times,serif" font-size="14.00">???&#45;???</text>
</a>
</g>
</g>
<!-- 78+77 -->
<g id="node30" class="node"><title>78+77</title>
<ellipse fill="black" stroke="black" cx="873" cy="-366" rx="1.8" ry="1.8"/>
</g>
<!-- 77&#45;&gt;78+77 -->
<g id="edge16" class="edge"><title>77&#45;&gt;78+77</title>
<path fill="none" stroke="black" d="M773.277,-433.245C781.085,-422.815 790.15,-412.357 800,-404 824.703,-383.042 863.308,-370.066 871.458,-367.479"/>
</g>
<!-- 84 -->
<g id="node8" class="node"><title>84</title>
<g id="a_node8"><a xlink:title="Six Daughters" target="_blank">
<polygon fill="white" stroke="black" points="509.25,-543.5 382.75,-543.5 382.75,-416.5 509.25,-416.5 509.25,-543.5"/>
<text text-anchor="start" x="395.5" y="-483.3" font-family="Times,serif" font-size="14.00">Six Daughters</text>
<text text-anchor="start" x="421.5" y="-468.3" font-family="Times,serif" font-size="14.00">???&#45;???</text>
</a>
</g>
</g>
<!-- 85 -->
<g id="node9" class="node"><title>85</title>
<g id="a_node9"><a xlink:href="/character/display?id=Jasper_Waynwood" xlink:title="Jasper Waynwood" target="_blank">
<polygon fill="white" stroke="black" points="680,-556 528,-556 528,-404 680,-404 680,-556"/>
</a>
</g>
<g id="a_node9_8"><a xlink:href="http://awoiaf.westeros.org/index.php/Jasper_Waynwood" xlink:title="Jasper Waynwood" target="_blank">
<text text-anchor="start" x="540.5" y="-483.3" font-family="Times,serif" font-size="14.00">Jasper Waynwood</text>
<text text-anchor="start" x="579" y="-468.3" font-family="Times,serif" font-size="14.00">???&#45;???</text>
</a>
</g>
<g><a xlink:href="/character/display?id=Jasper_Waynwood" xlink:title="Jasper Waynwood" target="_blank">
</a>
</g>
</g>
<!-- 88 -->
<g id="node10" class="node"><title>88</title>
<g id="a_node10"><a xlink:href="/character/display?id=Elbert_Arryn" xlink:title="Elbert Arryn" target="_blank">
<polygon fill="white" stroke="black" points="924.5,-538 809.5,-538 809.5,-422 924.5,-422 924.5,-538"/>
</a>
</g>
<g id="a_node10_9"><a xlink:href="http://awoiaf.westeros.org/index.php/Elbert_Arryn" xlink:title="Elbert Arryn" target="_blank">
<text text-anchor="start" x="821.5" y="-483.3" font-family="Times,serif" font-size="14.00">Elbert Arryn</text>
<text text-anchor="start" x="839.5" y="-468.3" font-family="Times,serif" font-size="14.00">???&#45;282</text>
</a>
</g>
<g><a xlink:href="/character/display?id=Elbert_Arryn" xlink:title="Elbert Arryn" target="_blank">
</a>
</g>
</g>
<!-- 76 -->
<g id="node11" class="node"><title>76</title>
<g id="a_node11"><a xlink:title="Son" target="_blank">
<polygon fill="white" stroke="black" points="283.25,-279.5 230.75,-279.5 230.75,-226.5 283.25,-226.5 283.25,-279.5"/>
<text text-anchor="start" x="244" y="-256.3" font-family="Times,serif" font-size="14.00">Son</text>
<text text-anchor="start" x="243.5" y="-241.3" font-family="Times,serif" font-size="14.00">???&#45;</text>
</a>
</g>
</g>
<!-- 79 -->
<g id="node12" class="node"><title>79</title>
<g id="a_node12"><a xlink:href="/character/display?id=Harrold_Hardyng" xlink:title="Harrold Hardyng" target="_blank">
<polygon fill="white" stroke="black" points="947.25,-327.5 798.75,-327.5 798.75,-178.5 947.25,-178.5 947.25,-327.5"/>
</a>
</g>
<g id="a_node12_11"><a xlink:href="http://awoiaf.westeros.org/index.php/Harrold_Hardyng" xlink:title="Harrold Hardyng" target="_blank">
<text text-anchor="start" x="811.5" y="-256.3" font-family="Times,serif" font-size="14.00">Harrold Hardyng</text>
<text text-anchor="start" x="857.5" y="-241.3" font-family="Times,serif" font-size="14.00">281&#45;</text>
</a>
</g>
<g><a xlink:href="/character/display?id=Harrold_Hardyng" xlink:title="Harrold Hardyng" target="_blank">
</a>
</g>
</g>
<!-- 79+80 -->
<g id="node26" class="node"><title>79+80</title>
<ellipse fill="black" stroke="black" cx="783" cy="-140" rx="1.8" ry="1.8"/>
</g>
<!-- 79&#45;&gt;79+80 -->
<g id="edge7" class="edge"><title>79&#45;&gt;79+80</title>
<path fill="none" stroke="black" stroke-dasharray="5,2" d="M813.219,-178.27C798.674,-160.331 786.446,-145.25 783.617,-141.761"/>
</g>
<!-- 79+82 -->
<g id="node27" class="node"><title>79+82</title>
<ellipse fill="black" stroke="black" cx="928" cy="-140" rx="1.8" ry="1.8"/>
</g>
<!-- 79&#45;&gt;79+82 -->
<g id="edge9" class="edge"><title>79&#45;&gt;79+82</title>
<path fill="none" stroke="black" stroke-dasharray="5,2" d="M909.533,-178.27C918.422,-160.331 925.894,-145.25 927.623,-141.761"/>
</g>
<!-- 81 -->
<g id="node13" class="node"><title>81</title>
<g id="a_node13"><a xlink:href="/character/display?id=Alys_Stone" xlink:title="Alys Stone" target="_blank">
<polygon fill="white" stroke="black" points="833.25,-101.5 732.75,-101.5 732.75,-0.5 833.25,-0.5 833.25,-101.5"/>
</a>
</g>
<g id="a_node13_12"><a xlink:href="http://awoiaf.westeros.org/index.php/Alys_Stone" xlink:title="Alys Stone" target="_blank">
<text text-anchor="start" x="745.5" y="-54.3" font-family="Times,serif" font-size="14.00">Alys Stone</text>
<text text-anchor="start" x="767.5" y="-39.3" font-family="Times,serif" font-size="14.00">298&#45;</text>
</a>
</g>
<g><a xlink:href="/character/display?id=Alys_Stone" xlink:title="Alys Stone" target="_blank">
</a>
</g>
</g>
<!-- 83 -->
<g id="node14" class="node"><title>83</title>
<g id="a_node14"><a xlink:title="Bastard" target="_blank">
<polygon fill="white" stroke="black" points="969,-92 887,-92 887,-10 969,-10 969,-92"/>
<text text-anchor="start" x="899.5" y="-54.3" font-family="Times,serif" font-size="14.00">Bastard</text>
<text text-anchor="start" x="903" y="-39.3" font-family="Times,serif" font-size="14.00">???&#45;???</text>
</a>
</g>
</g>
<!-- 69 -->
<g id="node15" class="node"><title>69</title>
<g id="a_node15"><a xlink:title="Unknown Woman" target="_blank">
<polygon fill="white" stroke="black" points="477.25,-1053.5 326.75,-1053.5 326.75,-902.5 477.25,-902.5 477.25,-1053.5"/>
<text text-anchor="start" x="339.5" y="-981.3" font-family="Times,serif" font-size="14.00">Unknown Woman</text>
<text text-anchor="start" x="377.5" y="-966.3" font-family="Times,serif" font-size="14.00">???&#45;???</text>
</a>
</g>
</g>
<!-- 69&#45;&gt;68+69 -->
<g id="edge2" class="edge"><title>69&#45;&gt;68+69</title>
<path fill="none" stroke="black" d="M351.307,-902.294C339.109,-884.318 328.882,-869.247 326.516,-865.76"/>
</g>
<!-- 20 -->
<g id="node16" class="node"><title>20</title>
<g id="a_node16"><a xlink:href="/character/display?id=Lysa_Arryn" xlink:title="Lysa Tully" target="_blank">
<polygon fill="white" stroke="black" points="249.25,-778.5 150.75,-778.5 150.75,-679.5 249.25,-679.5 249.25,-778.5"/>
</a>
</g>
<g id="a_node16_15"><a xlink:href="http://awoiaf.westeros.org/index.php/Lysa_Arryn" xlink:title="Lysa Tully" target="_blank">
<text text-anchor="start" x="163.5" y="-732.3" font-family="Times,serif" font-size="14.00">Lysa Tully</text>
<text text-anchor="start" x="171" y="-717.3" font-family="Times,serif" font-size="14.00">266&#45;300</text>
</a>
</g>
<g><a xlink:href="/character/display?id=Lysa_Arryn" xlink:title="Lysa Tully" target="_blank">
</a>
</g>
</g>
<!-- 20&#45;&gt;22+20 -->
<g id="edge4" class="edge"><title>20&#45;&gt;22+20</title>
<path fill="none" stroke="black" d="M175.554,-679.177C166.103,-663.074 154.332,-645.777 141,-632 122.848,-613.243 93.5871,-598.983 86.5554,-595.711"/>
</g>
<!-- 73 -->
<g id="node17" class="node"><title>73</title>
<g id="a_node17"><a xlink:href="/character/display?id=Elys_Waynwood" xlink:title="Elys Waynwood" target="_blank">
<polygon fill="white" stroke="black" points="532.25,-797.5 395.75,-797.5 395.75,-660.5 532.25,-660.5 532.25,-797.5"/>
</a>
</g>
<g id="a_node17_16"><a xlink:href="http://awoiaf.westeros.org/index.php/Elys_Waynwood" xlink:title="Elys Waynwood" target="_blank">
<text text-anchor="start" x="408.5" y="-732.3" font-family="Times,serif" font-size="14.00">Elys Waynwood</text>
<text text-anchor="start" x="439.5" y="-717.3" font-family="Times,serif" font-size="14.00">???&#45;???</text>
</a>
</g>
<g><a xlink:href="/character/display?id=Elys_Waynwood" xlink:title="Elys Waynwood" target="_blank">
</a>
</g>
</g>
<!-- 73&#45;&gt;73+72 -->
<g id="edge11" class="edge"><title>73&#45;&gt;73+72</title>
<path fill="none" stroke="black" d="M457.895,-660.331C455.208,-630.556 452.55,-601.092 452.075,-595.83"/>
</g>
<!-- 87 -->
<g id="node18" class="node"><title>87</title>
<g id="a_node18"><a xlink:title="Lady of House Belmore" target="_blank">
<polygon fill="white" stroke="black" points="956.5,-826 763.5,-826 763.5,-632 956.5,-632 956.5,-826"/>
<text text-anchor="start" x="775.5" y="-732.3" font-family="Times,serif" font-size="14.00">Lady of House Belmore</text>
<text text-anchor="start" x="835" y="-717.3" font-family="Times,serif" font-size="14.00">???&#45;???</text>
</a>
</g>
</g>
<!-- 87&#45;&gt;86+87 -->
<g id="edge6" class="edge"><title>87&#45;&gt;86+87</title>
<path fill="none" stroke="black" d="M860,-631.695C860,-614.145 860,-600.087 860,-596.122"/>
</g>
<!-- 75 -->
<g id="node19" class="node"><title>75</title>
<g id="a_node19"><a xlink:href="/character/display?id=Denys_Arryn" xlink:title="Denys Arryn" target="_blank">
<polygon fill="white" stroke="black" points="253.5,-538 138.5,-538 138.5,-422 253.5,-422 253.5,-538"/>
</a>
</g>
<g id="a_node19_18"><a xlink:href="http://awoiaf.westeros.org/index.php/Denys_Arryn" xlink:title="Denys Arryn" target="_blank">
<text text-anchor="start" x="150.5" y="-483.3" font-family="Times,serif" font-size="14.00">Denys Arryn</text>
<text text-anchor="start" x="168.5" y="-468.3" font-family="Times,serif" font-size="14.00">???&#45;283</text>
</a>
</g>
<g><a xlink:href="/character/display?id=Denys_Arryn" xlink:title="Denys Arryn" target="_blank">
</a>
</g>
</g>
<!-- 75&#45;&gt;75+74 -->
<g id="edge13" class="edge"><title>75&#45;&gt;75+74</title>
<path fill="none" stroke="black" d="M227.215,-421.688C240.347,-397.576 253.302,-373.79 256.336,-368.22"/>
</g>
<!-- 78 -->
<g id="node20" class="node"><title>78</title>
<g id="a_node20"><a xlink:title="Ser Hardyng" target="_blank">
<polygon fill="white" stroke="black" points="1060.25,-538.5 943.75,-538.5 943.75,-421.5 1060.25,-421.5 1060.25,-538.5"/>
<text text-anchor="start" x="956.5" y="-483.3" font-family="Times,serif" font-size="14.00">Ser Hardyng</text>
<text text-anchor="start" x="977.5" y="-468.3" font-family="Times,serif" font-size="14.00">???&#45;???</text>
</a>
</g>
</g>
<!-- 78&#45;&gt;78+77 -->
<g id="edge15" class="edge"><title>78&#45;&gt;78+77</title>
<path fill="none" stroke="black" d="M951.949,-421.238C945.799,-415.169 939.414,-409.292 933,-404 911.854,-386.554 881.776,-371.31 874.587,-367.772"/>
</g>
<!-- 80 -->
<g id="node21" class="node"><title>80</title>
<g id="a_node21"><a xlink:href="/character/display?id=Cissy" xlink:title="Cissy" target="_blank">
<polygon fill="white" stroke="black" points="780.25,-285.5 715.75,-285.5 715.75,-220.5 780.25,-220.5 780.25,-285.5"/>
</a>
</g>
<g id="a_node21_20"><a xlink:href="http://awoiaf.westeros.org/index.php/Cissy" xlink:title="Cissy" target="_blank">
<text text-anchor="start" x="728.5" y="-256.3" font-family="Times,serif" font-size="14.00">Cissy</text>
<text text-anchor="start" x="734.5" y="-241.3" font-family="Times,serif" font-size="14.00">???&#45;</text>
</a>
</g>
<g><a xlink:href="/character/display?id=Cissy" xlink:title="Cissy" target="_blank">
</a>
</g>
</g>
<!-- 80&#45;&gt;79+80 -->
<g id="edge8" class="edge"><title>80&#45;&gt;79+80</title>
<path fill="none" stroke="black" stroke-dasharray="5,2" d="M757.936,-220.489C767.475,-190.236 780.727,-148.208 782.74,-141.826"/>
</g>
<!-- 82 -->
<g id="node22" class="node"><title>82</title>
<g id="a_node22"><a xlink:href="/character/display?id=Saffron" xlink:title="Saffron" target="_blank">
<polygon fill="white" stroke="black" points="1042.25,-291.5 965.75,-291.5 965.75,-214.5 1042.25,-214.5 1042.25,-291.5"/>
</a>
</g>
<g id="a_node22_21"><a xlink:href="http://awoiaf.westeros.org/index.php/Saffron" xlink:title="Saffron" target="_blank">
<text text-anchor="start" x="978.5" y="-256.3" font-family="Times,serif" font-size="14.00">Saffron</text>
<text text-anchor="start" x="990.5" y="-241.3" font-family="Times,serif" font-size="14.00">???&#45;</text>
</a>
</g>
<g><a xlink:href="/character/display?id=Saffron" xlink:title="Saffron" target="_blank">
</a>
</g>
</g>
<!-- 82&#45;&gt;79+82 -->
<g id="edge10" class="edge"><title>82&#45;&gt;79+82</title>
<path fill="none" stroke="black" stroke-dasharray="5,2" d="M980.347,-214.383C972.748,-202.614 964.177,-189.66 956,-178 945.639,-163.227 931.972,-145.979 928.717,-141.897"/>
</g>
<!-- 68+69&#45;&gt;22 -->
<g id="edge17" class="edge"><title>68+69&#45;&gt;22</title>
<path fill="none" stroke="black" d="M324.297,-862.852C307.596,-861.374 172.988,-848.839 141,-826 123.884,-813.779 111.191,-794.561 102.257,-776.52"/>
</g>
<!-- 68+69&#45;&gt;72 -->
<g id="edge18" class="edge"><title>68+69&#45;&gt;72</title>
<path fill="none" stroke="black" d="M326,-862.151C326,-855.779 326,-814.762 326,-780.092"/>
</g>
<!-- 68+69&#45;&gt;86 -->
<g id="edge19" class="edge"><title>68+69&#45;&gt;86</title>
<path fill="none" stroke="black" d="M327.821,-863.028C343.621,-863.202 458.863,-863.137 541,-826 561.68,-816.65 581.82,-802.837 599.475,-788.585"/>
</g>
<!-- 22+20&#45;&gt;23 -->
<g id="edge20" class="edge"><title>22+20&#45;&gt;23</title>
<path fill="none" stroke="black" d="M84.7192,-591.742C83.4908,-586.239 78.4162,-563.505 73.1818,-540.054"/>
</g>
<!-- 86+87&#45;&gt;88 -->
<g id="edge25" class="edge"><title>86+87&#45;&gt;88</title>
<path fill="none" stroke="black" d="M860.079,-591.742C860.432,-586.095 861.919,-562.302 863.424,-538.21"/>
</g>
<!-- 79+80&#45;&gt;81 -->
<g id="edge28" class="edge"><title>79+80&#45;&gt;81</title>
<path fill="none" stroke="black" stroke-dasharray="5,2" d="M783,-138.023C783,-134.065 783,-118.637 783,-101.915"/>
</g>
<!-- 79+82&#45;&gt;83 -->
<g id="edge29" class="edge"><title>79+82&#45;&gt;83</title>
<path fill="none" stroke="black" stroke-dasharray="5,2" d="M928,-138.023C928,-133.319 928,-112.406 928,-92.3801"/>
</g>
<!-- 73+72&#45;&gt;74 -->
<g id="edge21" class="edge"><title>73+72&#45;&gt;74</title>
<path fill="none" stroke="black" d="M450.763,-592.674C442.971,-590.571 400.143,-578.312 373,-556 362.897,-547.695 353.681,-537.137 345.802,-526.583"/>
</g>
<!-- 73+72&#45;&gt;77 -->
<g id="edge22" class="edge"><title>73+72&#45;&gt;77</title>
<path fill="none" stroke="black" d="M453.662,-592.913C472.492,-591.908 645.836,-582 689,-556 700.971,-548.789 711.219,-537.959 719.55,-526.755"/>
</g>
<!-- 73+72&#45;&gt;84 -->
<g id="edge23" class="edge"><title>73+72&#45;&gt;84</title>
<path fill="none" stroke="black" d="M451.933,-591.742C451.653,-586.527 450.545,-565.84 449.361,-543.733"/>
</g>
<!-- 73+72&#45;&gt;85 -->
<g id="edge24" class="edge"><title>73+72&#45;&gt;85</title>
<path fill="none" stroke="black" d="M453.317,-592.388C460.293,-589.124 493.521,-573.257 518,-556 521.238,-553.717 524.496,-551.333 527.749,-548.878"/>
</g>
<!-- 75+74&#45;&gt;76 -->
<g id="edge26" class="edge"><title>75+74&#45;&gt;76</title>
<path fill="none" stroke="black" d="M257,-363.753C257,-355.608 257,-309.374 257,-279.57"/>
</g>
<!-- 78+77&#45;&gt;79 -->
<g id="edge27" class="edge"><title>78+77&#45;&gt;79</title>
<path fill="none" stroke="black" d="M873,-363.753C873,-359.514 873,-344.957 873,-327.768"/>
</g>
</g>
</svg>
