<?xml version="1.0" encoding="UTF-8" standalone="no"?>
<!DOCTYPE svg PUBLIC "-//W3C//DTD SVG 1.1//EN"
 "http://www.w3.org/Graphics/SVG/1.1/DTD/svg11.dtd">
<!-- Generated by graphviz version 2.36.0 (20140111.2315)
 -->
<!-- Title: family Pages: 1 -->
<svg width="599pt" height="630pt"
 viewBox="0.00 0.00 599.00 630.00" xmlns="http://www.w3.org/2000/svg" xmlns:xlink="http://www.w3.org/1999/xlink">
<g id="graph0" class="graph" transform="scale(1 1) rotate(0) translate(4 626)">
<title>family</title>
<polygon fill="white" stroke="none" points="-4,4 -4,-626 595,-626 595,4 -4,4"/>
<!-- 47 -->
<g id="node1" class="node"><title>47</title>
<g id="a_node1"><a xlink:href="/character/display?id=Joanna_Lannister" xlink:title="Joanna Lannister" target="_blank">
<polygon fill="white" stroke="black" points="226,-622 78,-622 78,-474 226,-474 226,-622"/>
</a>
</g>
<g id="a_node1_0"><a xlink:href="http://awoiaf.westeros.org/index.php/Joanna_Lannister" xlink:title="Joanna Lannister" target="_blank">
<text text-anchor="start" x="90.5" y="-551.3" font-family="Times,serif" font-size="14.00">Joanna Lannister</text>
<text text-anchor="start" x="122.5" y="-536.3" font-family="Times,serif" font-size="14.00">245&#45;273</text>
</a>
</g>
<g><a xlink:href="/character/display?id=Joanna_Lannister" xlink:title="Joanna Lannister" target="_blank">
</a>
</g>
</g>
<!-- 46+47 -->
<g id="node10" class="node"><title>46+47</title>
<ellipse fill="black" stroke="black" cx="233" cy="-436" rx="1.8" ry="1.8"/>
</g>
<!-- 47&#45;&gt;46+47 -->
<g id="edge4" class="edge"><title>47&#45;&gt;46+47</title>
<path fill="none" stroke="black" d="M205.803,-473.934C218.894,-456.157 229.898,-441.212 232.445,-437.754"/>
</g>
<!-- 17 -->
<g id="node2" class="node"><title>17</title>
<g id="a_node2"><a xlink:href="/character/display?id=Tyrion_Lannister" xlink:title="Tyrion Lannister" target="_blank">
<polygon fill="white" stroke="black" points="144.25,-397.5 -0.25,-397.5 -0.25,-252.5 144.25,-252.5 144.25,-397.5"/>
</a>
</g>
<g id="a_node2_1"><a xlink:href="http://awoiaf.westeros.org/index.php/Tyrion_Lannister" xlink:title="Tyrion Lannister" target="_blank">
<text text-anchor="start" x="12.5" y="-328.3" font-family="Times,serif" font-size="14.00">Tyrion Lannister</text>
<text text-anchor="start" x="56.5" y="-313.3" font-family="Times,serif" font-size="14.00">273&#45;</text>
</a>
</g>
<g><a xlink:href="/character/display?id=Tyrion_Lannister" xlink:title="Tyrion Lannister" target="_blank">
</a>
</g>
</g>
<!-- 48 -->
<g id="node3" class="node"><title>48</title>
<g id="a_node3"><a xlink:href="/character/display?id=Jaime_Lannister" xlink:title="Jaime Lannister" target="_blank">
<polygon fill="white" stroke="black" points="303,-395 163,-395 163,-255 303,-255 303,-395"/>
</a>
</g>
<g id="a_node3_2"><a xlink:href="http://awoiaf.westeros.org/index.php/Jaime_Lannister" xlink:title="Jaime Lannister" target="_blank">
<text text-anchor="start" x="175.5" y="-328.3" font-family="Times,serif" font-size="14.00">Jaime Lannister</text>
<text text-anchor="start" x="217" y="-313.3" font-family="Times,serif" font-size="14.00">266&#45;</text>
</a>
</g>
<g><a xlink:href="/character/display?id=Jaime_Lannister" xlink:title="Jaime Lannister" target="_blank">
</a>
</g>
</g>
<!-- 48+49 -->
<g id="node9" class="node"><title>48+49</title>
<ellipse fill="black" stroke="black" cx="313" cy="-214" rx="1.8" ry="1.8"/>
</g>
<!-- 48&#45;&gt;48+49 -->
<g id="edge1" class="edge"><title>48&#45;&gt;48+49</title>
<path fill="none" stroke="black" stroke-dasharray="5,2" d="M283.665,-254.969C297.557,-236.041 309.598,-219.636 312.391,-215.83"/>
</g>
<!-- 49 -->
<g id="node4" class="node"><title>49</title>
<g id="a_node4"><a xlink:href="/character/display?id=Cersei_Lannister" xlink:title="Cersei Lannister" target="_blank">
<polygon fill="white" stroke="black" points="467,-398 321,-398 321,-252 467,-252 467,-398"/>
</a>
</g>
<g id="a_node4_3"><a xlink:href="http://awoiaf.westeros.org/index.php/Cersei_Lannister" xlink:title="Cersei Lannister" target="_blank">
<text text-anchor="start" x="333.5" y="-328.3" font-family="Times,serif" font-size="14.00">Cersei Lannister</text>
<text text-anchor="start" x="378" y="-313.3" font-family="Times,serif" font-size="14.00">266&#45;</text>
</a>
</g>
<g><a xlink:href="/character/display?id=Cersei_Lannister" xlink:title="Cersei Lannister" target="_blank">
</a>
</g>
</g>
<!-- 49&#45;&gt;48+49 -->
<g id="edge2" class="edge"><title>49&#45;&gt;48+49</title>
<path fill="none" stroke="black" stroke-dasharray="5,2" d="M340.423,-251.902C327.243,-234.166 316.132,-219.215 313.56,-215.754"/>
</g>
<!-- 50 -->
<g id="node5" class="node"><title>50</title>
<g id="a_node5"><a xlink:href="/character/display?id=Joffrey_Baratheon" xlink:title="Joffrey I Baratheon" target="_blank">
<polygon fill="white" stroke="black" points="210.25,-169.5 47.75,-169.5 47.75,-6.5 210.25,-6.5 210.25,-169.5"/>
</a>
</g>
<g id="a_node5_4"><a xlink:href="http://awoiaf.westeros.org/index.php/Joffrey_Baratheon" xlink:title="Joffrey I Baratheon" target="_blank">
<text text-anchor="start" x="60.5" y="-91.3" font-family="Times,serif" font-size="14.00">Joffrey I Baratheon</text>
<text text-anchor="start" x="100" y="-76.3" font-family="Times,serif" font-size="14.00">286&#45;300</text>
</a>
</g>
<g><a xlink:href="/character/display?id=Joffrey_Baratheon" xlink:title="Joffrey I Baratheon" target="_blank">
</a>
</g>
</g>
<!-- 51 -->
<g id="node6" class="node"><title>51</title>
<g id="a_node6"><a xlink:href="/character/display?id=Myrcella_Baratheon" xlink:title="Myrcella Baratheon" target="_blank">
<polygon fill="white" stroke="black" points="396.5,-172 229.5,-172 229.5,-4 396.5,-4 396.5,-172"/>
</a>
</g>
<g id="a_node6_5"><a xlink:href="http://awoiaf.westeros.org/index.php/Myrcella_Baratheon" xlink:title="Myrcella Baratheon" target="_blank">
<text text-anchor="start" x="241.5" y="-91.3" font-family="Times,serif" font-size="14.00">Myrcella Baratheon</text>
<text text-anchor="start" x="297" y="-76.3" font-family="Times,serif" font-size="14.00">290&#45;</text>
</a>
</g>
<g><a xlink:href="/character/display?id=Myrcella_Baratheon" xlink:title="Myrcella Baratheon" target="_blank">
</a>
</g>
</g>
<!-- 52 -->
<g id="node7" class="node"><title>52</title>
<g id="a_node7"><a xlink:href="/character/display?id=Tommen_Baratheon" xlink:title="Tommen I Baratheon" target="_blank">
<polygon fill="white" stroke="black" points="590.5,-176 415.5,-176 415.5,-1.42109e-14 590.5,-1.42109e-14 590.5,-176"/>
</a>
</g>
<g id="a_node7_6"><a xlink:href="http://awoiaf.westeros.org/index.php/Tommen_Baratheon" xlink:title="Tommen I Baratheon" target="_blank">
<text text-anchor="start" x="427.5" y="-91.3" font-family="Times,serif" font-size="14.00">Tommen I Baratheon</text>
<text text-anchor="start" x="487" y="-76.3" font-family="Times,serif" font-size="14.00">291&#45;</text>
</a>
</g>
<g><a xlink:href="/character/display?id=Tommen_Baratheon" xlink:title="Tommen I Baratheon" target="_blank">
</a>
</g>
</g>
<!-- 46 -->
<g id="node8" class="node"><title>46</title>
<g id="a_node8"><a xlink:href="/character/display?id=Tywin_Lannister" xlink:title="Tywin Lannister" target="_blank">
<polygon fill="white" stroke="black" points="386,-619 244,-619 244,-477 386,-477 386,-619"/>
</a>
</g>
<g id="a_node8_7"><a xlink:href="http://awoiaf.westeros.org/index.php/Tywin_Lannister" xlink:title="Tywin Lannister" target="_blank">
<text text-anchor="start" x="256.5" y="-551.3" font-family="Times,serif" font-size="14.00">Tywin Lannister</text>
<text text-anchor="start" x="285.5" y="-536.3" font-family="Times,serif" font-size="14.00">242&#45;300</text>
</a>
</g>
<g><a xlink:href="/character/display?id=Tywin_Lannister" xlink:title="Tywin Lannister" target="_blank">
</a>
</g>
</g>
<!-- 46&#45;&gt;46+47 -->
<g id="edge3" class="edge"><title>46&#45;&gt;46+47</title>
<path fill="none" stroke="black" d="M262.604,-476.713C248.542,-457.849 236.423,-441.592 233.613,-437.822"/>
</g>
<!-- 48+49&#45;&gt;50 -->
<g id="edge8" class="edge"><title>48+49&#45;&gt;50</title>
<path fill="none" stroke="black" stroke-dasharray="5,2" d="M311.596,-212.66C302.74,-210.472 253.923,-197.782 220,-176 216.781,-173.933 213.578,-171.743 210.402,-169.455"/>
</g>
<!-- 48+49&#45;&gt;51 -->
<g id="edge9" class="edge"><title>48+49&#45;&gt;51</title>
<path fill="none" stroke="black" stroke-dasharray="5,2" d="M313,-211.607C313,-206.924 313,-190.973 313,-172.054"/>
</g>
<!-- 48+49&#45;&gt;52 -->
<g id="edge10" class="edge"><title>48+49&#45;&gt;52</title>
<path fill="none" stroke="black" stroke-dasharray="5,2" d="M314.379,-212.64C323.074,-210.329 371.038,-197.019 405,-176 408.482,-173.845 411.959,-171.563 415.415,-169.182"/>
</g>
<!-- 46+47&#45;&gt;17 -->
<g id="edge5" class="edge"><title>46+47&#45;&gt;17</title>
<path fill="none" stroke="black" d="M231.822,-434.593C224.395,-431.994 183.404,-417.235 154,-398 150.829,-395.926 147.653,-393.736 144.492,-391.462"/>
</g>
<!-- 46+47&#45;&gt;48 -->
<g id="edge6" class="edge"><title>46+47&#45;&gt;48</title>
<path fill="none" stroke="black" d="M233,-433.776C233,-429.355 233,-413.512 233,-395.282"/>
</g>
<!-- 46+47&#45;&gt;49 -->
<g id="edge7" class="edge"><title>46+47&#45;&gt;49</title>
<path fill="none" stroke="black" d="M234.178,-434.593C241.605,-431.994 282.596,-417.235 312,-398 314.854,-396.133 317.712,-394.173 320.559,-392.142"/>
</g>
</g>
</svg>
