<?xml version="1.0" encoding="UTF-8" standalone="no"?>
<!DOCTYPE svg PUBLIC "-//W3C//DTD SVG 1.1//EN"
 "http://www.w3.org/Graphics/SVG/1.1/DTD/svg11.dtd">
<!-- Generated by graphviz version 2.36.0 (20140111.2315)
 -->
<!-- Title: family Pages: 1 -->
<svg width="1741pt" height="676pt"
 viewBox="0.00 0.00 1741.00 676.00" xmlns="http://www.w3.org/2000/svg" xmlns:xlink="http://www.w3.org/1999/xlink">
<g id="graph0" class="graph" transform="scale(1 1) rotate(0) translate(4 672)">
<title>family</title>
<polygon fill="white" stroke="none" points="-4,4 -4,-672 1737,-672 1737,4 -4,4"/>
<!-- 4 -->
<g id="node1" class="node"><title>4</title>
<g id="a_node1"><a xlink:href="/character/display?id=Sansa_Stark" xlink:title="Sansa Stark" target="_blank">
<polygon fill="white" stroke="black" points="110.25,-180.5 -0.25,-180.5 -0.25,-69.5 110.25,-69.5 110.25,-180.5"/>
</a>
</g>
<g id="a_node1_0"><a xlink:href="http://awoiaf.westeros.org/index.php/Sansa_Stark" xlink:title="Sansa Stark" target="_blank">
<text text-anchor="start" x="12.5" y="-128.3" font-family="Times,serif" font-size="14.00">Sansa Stark</text>
<text text-anchor="start" x="39.5" y="-113.3" font-family="Times,serif" font-size="14.00">286&#45;</text>
</a>
</g>
<g><a xlink:href="/character/display?id=Sansa_Stark" xlink:title="Sansa Stark" target="_blank">
</a>
</g>
</g>
<!-- 17+4 -->
<g id="node22" class="node"><title>17+4</title>
<ellipse fill="black" stroke="black" cx="128" cy="-2" rx="1.8" ry="1.8"/>
</g>
<!-- 4&#45;&gt;17+4 -->
<g id="edge2" class="edge"><title>4&#45;&gt;17+4</title>
<path fill="none" stroke="black" d="M88.0826,-69.1645C105.587,-40.1508 124.148,-9.38426 127.475,-3.87053"/>
</g>
<!-- 17 -->
<g id="node2" class="node"><title>17</title>
<g id="a_node2"><a xlink:href="/character/display?id=Tyrion_Lannister" xlink:title="Tyrion Lannister" target="_blank">
<polygon fill="white" stroke="black" points="273.25,-197.5 128.75,-197.5 128.75,-52.5 273.25,-52.5 273.25,-197.5"/>
</a>
</g>
<g id="a_node2_1"><a xlink:href="http://awoiaf.westeros.org/index.php/Tyrion_Lannister" xlink:title="Tyrion Lannister" target="_blank">
<text text-anchor="start" x="141.5" y="-128.3" font-family="Times,serif" font-size="14.00">Tyrion Lannister</text>
<text text-anchor="start" x="185.5" y="-113.3" font-family="Times,serif" font-size="14.00">273&#45;</text>
</a>
</g>
<g><a xlink:href="/character/display?id=Tyrion_Lannister" xlink:title="Tyrion Lannister" target="_blank">
</a>
</g>
</g>
<!-- 17&#45;&gt;17+4 -->
<g id="edge1" class="edge"><title>17&#45;&gt;17+4</title>
<path fill="none" stroke="black" d="M157.692,-52.2153C143.938,-29.4171 131.52,-8.83527 128.631,-4.04605"/>
</g>
<!-- 44 -->
<g id="node3" class="node"><title>44</title>
<g id="a_node3"><a xlink:href="/character/display?id=Tytos_Lannister" xlink:title="Tytos Lannister" target="_blank">
<polygon fill="white" stroke="black" points="1127,-666 989,-666 989,-528 1127,-528 1127,-666"/>
</a>
</g>
<g id="a_node3_2"><a xlink:href="http://awoiaf.westeros.org/index.php/Tytos_Lannister" xlink:title="Tytos Lannister" target="_blank">
<text text-anchor="start" x="1001.5" y="-600.3" font-family="Times,serif" font-size="14.00">Tytos Lannister</text>
<text text-anchor="start" x="1028.5" y="-585.3" font-family="Times,serif" font-size="14.00">220&#45;267</text>
</a>
</g>
<g><a xlink:href="/character/display?id=Tytos_Lannister" xlink:title="Tytos Lannister" target="_blank">
</a>
</g>
</g>
<!-- 44+45 -->
<g id="node23" class="node"><title>44+45</title>
<ellipse fill="black" stroke="black" cx="1137" cy="-488" rx="1.8" ry="1.8"/>
</g>
<!-- 44&#45;&gt;44+45 -->
<g id="edge3" class="edge"><title>44&#45;&gt;44+45</title>
<path fill="none" stroke="black" d="M1108.26,-527.932C1121.89,-509.467 1133.67,-493.508 1136.4,-489.807"/>
</g>
<!-- 45 -->
<g id="node4" class="node"><title>45</title>
<g id="a_node4"><a xlink:href="/character/display?id=Jeyne_Marbrand" xlink:title="Jeyne Marbrand" target="_blank">
<polygon fill="white" stroke="black" points="1287,-668 1145,-668 1145,-526 1287,-526 1287,-668"/>
</a>
</g>
<g id="a_node4_3"><a xlink:href="http://awoiaf.westeros.org/index.php/Jeyne_Marbrand" xlink:title="Jeyne Marbrand" target="_blank">
<text text-anchor="start" x="1157.5" y="-600.3" font-family="Times,serif" font-size="14.00">Jeyne Marbrand</text>
<text text-anchor="start" x="1188.5" y="-585.3" font-family="Times,serif" font-size="14.00">???&#45;255</text>
</a>
</g>
<g><a xlink:href="/character/display?id=Jeyne_Marbrand" xlink:title="Jeyne Marbrand" target="_blank">
</a>
</g>
</g>
<!-- 45&#45;&gt;44+45 -->
<g id="edge4" class="edge"><title>45&#45;&gt;44+45</title>
<path fill="none" stroke="black" d="M1164.19,-525.823C1151.16,-508.176 1140.11,-493.219 1137.56,-489.755"/>
</g>
<!-- 46 -->
<g id="node5" class="node"><title>46</title>
<g id="a_node5"><a xlink:href="/character/display?id=Tywin_Lannister" xlink:title="Tywin Lannister" target="_blank">
<polygon fill="white" stroke="black" points="510,-439 368,-439 368,-297 510,-297 510,-439"/>
</a>
</g>
<g id="a_node5_4"><a xlink:href="http://awoiaf.westeros.org/index.php/Tywin_Lannister" xlink:title="Tywin Lannister" target="_blank">
<text text-anchor="start" x="380.5" y="-371.3" font-family="Times,serif" font-size="14.00">Tywin Lannister</text>
<text text-anchor="start" x="409.5" y="-356.3" font-family="Times,serif" font-size="14.00">242&#45;300</text>
</a>
</g>
<g><a xlink:href="/character/display?id=Tywin_Lannister" xlink:title="Tywin Lannister" target="_blank">
</a>
</g>
</g>
<!-- 46+47 -->
<g id="node24" class="node"><title>46+47</title>
<ellipse fill="black" stroke="black" cx="439" cy="-248" rx="1.8" ry="1.8"/>
</g>
<!-- 46&#45;&gt;46+47 -->
<g id="edge5" class="edge"><title>46&#45;&gt;46+47</title>
<path fill="none" stroke="black" d="M439,-296.995C439,-274.762 439,-254.691 439,-250.02"/>
</g>
<!-- 47 -->
<g id="node6" class="node"><title>47</title>
<g id="a_node6"><a xlink:href="/character/display?id=Joanna_Lannister" xlink:title="Joanna Lannister" target="_blank">
<polygon fill="white" stroke="black" points="676,-442 528,-442 528,-294 676,-294 676,-442"/>
</a>
</g>
<g id="a_node6_5"><a xlink:href="http://awoiaf.westeros.org/index.php/Joanna_Lannister" xlink:title="Joanna Lannister" target="_blank">
<text text-anchor="start" x="540.5" y="-371.3" font-family="Times,serif" font-size="14.00">Joanna Lannister</text>
<text text-anchor="start" x="572.5" y="-356.3" font-family="Times,serif" font-size="14.00">245&#45;273</text>
</a>
</g>
<g><a xlink:href="/character/display?id=Joanna_Lannister" xlink:title="Joanna Lannister" target="_blank">
</a>
</g>
</g>
<!-- 47&#45;&gt;46+47 -->
<g id="edge6" class="edge"><title>47&#45;&gt;46+47</title>
<path fill="none" stroke="black" d="M529.877,-293.99C526.282,-291.192 522.648,-288.513 519,-286 489.764,-265.861 447.815,-251.836 440.207,-249.384"/>
</g>
<!-- 48 -->
<g id="node7" class="node"><title>48</title>
<g id="a_node7"><a xlink:href="/character/display?id=Jaime_Lannister" xlink:title="Jaime Lannister" target="_blank">
<polygon fill="white" stroke="black" points="432,-195 292,-195 292,-55 432,-55 432,-195"/>
</a>
</g>
<g id="a_node7_6"><a xlink:href="http://awoiaf.westeros.org/index.php/Jaime_Lannister" xlink:title="Jaime Lannister" target="_blank">
<text text-anchor="start" x="304.5" y="-128.3" font-family="Times,serif" font-size="14.00">Jaime Lannister</text>
<text text-anchor="start" x="346" y="-113.3" font-family="Times,serif" font-size="14.00">266&#45;</text>
</a>
</g>
<g><a xlink:href="/character/display?id=Jaime_Lannister" xlink:title="Jaime Lannister" target="_blank">
</a>
</g>
</g>
<!-- 49 -->
<g id="node8" class="node"><title>49</title>
<g id="a_node8"><a xlink:href="/character/display?id=Cersei_Lannister" xlink:title="Cersei Lannister" target="_blank">
<polygon fill="white" stroke="black" points="596,-198 450,-198 450,-52 596,-52 596,-198"/>
</a>
</g>
<g id="a_node8_7"><a xlink:href="http://awoiaf.westeros.org/index.php/Cersei_Lannister" xlink:title="Cersei Lannister" target="_blank">
<text text-anchor="start" x="462.5" y="-128.3" font-family="Times,serif" font-size="14.00">Cersei Lannister</text>
<text text-anchor="start" x="507" y="-113.3" font-family="Times,serif" font-size="14.00">266&#45;</text>
</a>
</g>
<g><a xlink:href="/character/display?id=Cersei_Lannister" xlink:title="Cersei Lannister" target="_blank">
</a>
</g>
</g>
<!-- 53 -->
<g id="node9" class="node"><title>53</title>
<g id="a_node9"><a xlink:href="/character/display?id=Kevan_Lannister" xlink:title="Kevan Lannister" target="_blank">
<polygon fill="white" stroke="black" points="913.25,-439.5 770.75,-439.5 770.75,-296.5 913.25,-296.5 913.25,-439.5"/>
</a>
</g>
<g id="a_node9_8"><a xlink:href="http://awoiaf.westeros.org/index.php/Kevan_Lannister" xlink:title="Kevan Lannister" target="_blank">
<text text-anchor="start" x="783.5" y="-371.3" font-family="Times,serif" font-size="14.00">Kevan Lannister</text>
<text text-anchor="start" x="813" y="-356.3" font-family="Times,serif" font-size="14.00">244&#45;300</text>
</a>
</g>
<g><a xlink:href="/character/display?id=Kevan_Lannister" xlink:title="Kevan Lannister" target="_blank">
</a>
</g>
</g>
<!-- 53+54 -->
<g id="node25" class="node"><title>53+54</title>
<ellipse fill="black" stroke="black" cx="989" cy="-248" rx="1.8" ry="1.8"/>
</g>
<!-- 53&#45;&gt;53+54 -->
<g id="edge7" class="edge"><title>53&#45;&gt;53+54</title>
<path fill="none" stroke="black" d="M910.211,-296.295C914.441,-292.701 918.719,-289.242 923,-286 946.876,-267.918 980.575,-252.696 987.661,-249.582"/>
</g>
<!-- 54 -->
<g id="node10" class="node"><title>54</title>
<g id="a_node10"><a xlink:href="/character/display?id=Dorna_Swyft" xlink:title="Dorna Swyft" target="_blank">
<polygon fill="white" stroke="black" points="1046,-425 932,-425 932,-311 1046,-311 1046,-425"/>
</a>
</g>
<g id="a_node10_9"><a xlink:href="http://awoiaf.westeros.org/index.php/Dorna_Swyft" xlink:title="Dorna Swyft" target="_blank">
<text text-anchor="start" x="944.5" y="-371.3" font-family="Times,serif" font-size="14.00">Dorna Swyft</text>
<text text-anchor="start" x="975" y="-356.3" font-family="Times,serif" font-size="14.00">???&#45;</text>
</a>
</g>
<g><a xlink:href="/character/display?id=Dorna_Swyft" xlink:title="Dorna Swyft" target="_blank">
</a>
</g>
</g>
<!-- 54&#45;&gt;53+54 -->
<g id="edge8" class="edge"><title>54&#45;&gt;53+54</title>
<path fill="none" stroke="black" d="M989,-310.765C989,-283.222 989,-254.874 989,-249.801"/>
</g>
<!-- 55 -->
<g id="node11" class="node"><title>55</title>
<g id="a_node11"><a xlink:href="/character/display?id=Lancel_Lannister" xlink:title="Lancel Lannister" target="_blank">
<polygon fill="white" stroke="black" points="761.25,-198.5 614.75,-198.5 614.75,-51.5 761.25,-51.5 761.25,-198.5"/>
</a>
</g>
<g id="a_node11_10"><a xlink:href="http://awoiaf.westeros.org/index.php/Lancel_Lannister" xlink:title="Lancel Lannister" target="_blank">
<text text-anchor="start" x="627.5" y="-128.3" font-family="Times,serif" font-size="14.00">Lancel Lannister</text>
<text text-anchor="start" x="672.5" y="-113.3" font-family="Times,serif" font-size="14.00">282&#45;</text>
</a>
</g>
<g><a xlink:href="/character/display?id=Lancel_Lannister" xlink:title="Lancel Lannister" target="_blank">
</a>
</g>
</g>
<!-- 55+304 -->
<g id="node26" class="node"><title>55+304</title>
<ellipse fill="black" stroke="black" cx="762" cy="-2" rx="1.8" ry="1.8"/>
</g>
<!-- 55&#45;&gt;55+304 -->
<g id="edge9" class="edge"><title>55&#45;&gt;55+304</title>
<path fill="none" stroke="black" d="M732.541,-51.1701C746.254,-28.7472 758.524,-8.68415 761.377,-4.01874"/>
</g>
<!-- 56 -->
<g id="node12" class="node"><title>56</title>
<g id="a_node12"><a xlink:href="/character/display?id=Martyn_Lannister" xlink:title="Martyn Lannister" target="_blank">
<polygon fill="white" stroke="black" points="1065,-201 913,-201 913,-49 1065,-49 1065,-201"/>
</a>
</g>
<g id="a_node12_11"><a xlink:href="http://awoiaf.westeros.org/index.php/Martyn_Lannister" xlink:title="Martyn Lannister" target="_blank">
<text text-anchor="start" x="925.5" y="-128.3" font-family="Times,serif" font-size="14.00">Martyn Lannister</text>
<text text-anchor="start" x="973" y="-113.3" font-family="Times,serif" font-size="14.00">285&#45;</text>
</a>
</g>
<g><a xlink:href="/character/display?id=Martyn_Lannister" xlink:title="Martyn Lannister" target="_blank">
</a>
</g>
</g>
<!-- 57 -->
<g id="node13" class="node"><title>57</title>
<g id="a_node13"><a xlink:href="/character/display?id=Willem_Lannister" xlink:title="Willem Lannister" target="_blank">
<polygon fill="white" stroke="black" points="1232.25,-199.5 1083.75,-199.5 1083.75,-50.5 1232.25,-50.5 1232.25,-199.5"/>
</a>
</g>
<g id="a_node13_12"><a xlink:href="http://awoiaf.westeros.org/index.php/Willem_Lannister" xlink:title="Willem Lannister" target="_blank">
<text text-anchor="start" x="1096.5" y="-128.3" font-family="Times,serif" font-size="14.00">Willem Lannister</text>
<text text-anchor="start" x="1142.5" y="-113.3" font-family="Times,serif" font-size="14.00">285&#45;</text>
</a>
</g>
<g><a xlink:href="/character/display?id=Willem_Lannister" xlink:title="Willem Lannister" target="_blank">
</a>
</g>
</g>
<!-- 58 -->
<g id="node14" class="node"><title>58</title>
<g id="a_node14"><a xlink:href="/character/display?id=Janei_Lannister" xlink:title="Janei Lannister" target="_blank">
<polygon fill="white" stroke="black" points="1385.25,-192.5 1250.75,-192.5 1250.75,-57.5 1385.25,-57.5 1385.25,-192.5"/>
</a>
</g>
<g id="a_node14_13"><a xlink:href="http://awoiaf.westeros.org/index.php/Janei_Lannister" xlink:title="Janei Lannister" target="_blank">
<text text-anchor="start" x="1263.5" y="-128.3" font-family="Times,serif" font-size="14.00">Janei Lannister</text>
<text text-anchor="start" x="1302.5" y="-113.3" font-family="Times,serif" font-size="14.00">296&#45;</text>
</a>
</g>
<g><a xlink:href="/character/display?id=Janei_Lannister" xlink:title="Janei Lannister" target="_blank">
</a>
</g>
</g>
<!-- 59 -->
<g id="node15" class="node"><title>59</title>
<g id="a_node15"><a xlink:href="/character/display?id=Genna_Lannister" xlink:title="Genna Lannister" target="_blank">
<polygon fill="white" stroke="black" points="1209.25,-440.5 1064.75,-440.5 1064.75,-295.5 1209.25,-295.5 1209.25,-440.5"/>
</a>
</g>
<g id="a_node15_14"><a xlink:href="http://awoiaf.westeros.org/index.php/Genna_Lannister" xlink:title="Genna Lannister" target="_blank">
<text text-anchor="start" x="1077.5" y="-371.3" font-family="Times,serif" font-size="14.00">Genna Lannister</text>
<text text-anchor="start" x="1121.5" y="-356.3" font-family="Times,serif" font-size="14.00">245&#45;</text>
</a>
</g>
<g><a xlink:href="/character/display?id=Genna_Lannister" xlink:title="Genna Lannister" target="_blank">
</a>
</g>
</g>
<!-- 61 -->
<g id="node16" class="node"><title>61</title>
<g id="a_node16"><a xlink:href="/character/display?id=Tygget_Lannister" xlink:title="Tygget Lannister" target="_blank">
<polygon fill="white" stroke="black" points="1376.25,-442.5 1227.75,-442.5 1227.75,-293.5 1376.25,-293.5 1376.25,-442.5"/>
</a>
</g>
<g id="a_node16_15"><a xlink:href="http://awoiaf.westeros.org/index.php/Tygget_Lannister" xlink:title="Tygget Lannister" target="_blank">
<text text-anchor="start" x="1240.5" y="-371.3" font-family="Times,serif" font-size="14.00">Tygget Lannister</text>
<text text-anchor="start" x="1273" y="-356.3" font-family="Times,serif" font-size="14.00">250&#45;285</text>
</a>
</g>
<g><a xlink:href="/character/display?id=Tygget_Lannister" xlink:title="Tygget Lannister" target="_blank">
</a>
</g>
</g>
<!-- 61+62 -->
<g id="node27" class="node"><title>61+62</title>
<ellipse fill="black" stroke="black" cx="1475" cy="-248" rx="1.8" ry="1.8"/>
</g>
<!-- 61&#45;&gt;61+62 -->
<g id="edge11" class="edge"><title>61&#45;&gt;61+62</title>
<path fill="none" stroke="black" d="M1375.4,-293.445C1378.9,-290.83 1382.44,-288.334 1386,-286 1418.46,-264.705 1465.18,-251.62 1473.66,-249.353"/>
</g>
<!-- 62 -->
<g id="node17" class="node"><title>62</title>
<g id="a_node17"><a xlink:href="/character/display?id=Darless Marbrand" xlink:title="Darlessa Marbrand" target="_blank">
<polygon fill="white" stroke="black" points="1559,-450 1395,-450 1395,-286 1559,-286 1559,-450"/>
</a>
</g>
<g id="a_node17_16"><a xlink:href="http://awoiaf.westeros.org/index.php/Darless Marbrand" xlink:title="Darlessa Marbrand" target="_blank">
<text text-anchor="start" x="1407.5" y="-371.3" font-family="Times,serif" font-size="14.00">Darlessa Marbrand</text>
<text text-anchor="start" x="1463" y="-356.3" font-family="Times,serif" font-size="14.00">???&#45;</text>
</a>
</g>
<g><a xlink:href="/character/display?id=Darless Marbrand" xlink:title="Darlessa Marbrand" target="_blank">
</a>
</g>
</g>
<!-- 62&#45;&gt;61+62 -->
<g id="edge12" class="edge"><title>62&#45;&gt;61+62</title>
<path fill="none" stroke="black" d="M1475.62,-285.689C1475.33,-268.443 1475.09,-254.18 1475.02,-250.144"/>
</g>
<!-- 63 -->
<g id="node18" class="node"><title>63</title>
<g id="a_node18"><a xlink:href="/character/display?id=Tyrek_Lannister" xlink:title="Tyrek Lannister" target="_blank">
<polygon fill="white" stroke="black" points="1545,-195 1405,-195 1405,-55 1545,-55 1545,-195"/>
</a>
</g>
<g id="a_node18_17"><a xlink:href="http://awoiaf.westeros.org/index.php/Tyrek_Lannister" xlink:title="Tyrek Lannister" target="_blank">
<text text-anchor="start" x="1417.5" y="-128.3" font-family="Times,serif" font-size="14.00">Tyrek Lannister</text>
<text text-anchor="start" x="1445.5" y="-113.3" font-family="Times,serif" font-size="14.00">286&#45;299</text>
</a>
</g>
<g><a xlink:href="/character/display?id=Tyrek_Lannister" xlink:title="Tyrek Lannister" target="_blank">
</a>
</g>
</g>
<!-- 63+64 -->
<g id="node28" class="node"><title>63+64</title>
<ellipse fill="black" stroke="black" cx="1561" cy="-2" rx="1.8" ry="1.8"/>
</g>
<!-- 63&#45;&gt;63+64 -->
<g id="edge13" class="edge"><title>63&#45;&gt;63+64</title>
<path fill="none" stroke="black" d="M1524.28,-54.6659C1541.09,-31.0097 1556.6,-9.19515 1560.21,-4.11114"/>
</g>
<!-- 64 -->
<g id="node19" class="node"><title>64</title>
<g id="a_node19"><a xlink:href="/character/display?id=Ermesande_Hayford" xlink:title="Ermesande Hayford" target="_blank">
<polygon fill="white" stroke="black" points="1733,-210 1563,-210 1563,-40 1733,-40 1733,-210"/>
</a>
</g>
<g id="a_node19_18"><a xlink:href="http://awoiaf.westeros.org/index.php/Ermesande_Hayford" xlink:title="Ermesande Hayford" target="_blank">
<text text-anchor="start" x="1575.5" y="-128.3" font-family="Times,serif" font-size="14.00">Ermesande Hayford</text>
<text text-anchor="start" x="1632" y="-113.3" font-family="Times,serif" font-size="14.00">298&#45;</text>
</a>
</g>
<g><a xlink:href="/character/display?id=Ermesande_Hayford" xlink:title="Ermesande Hayford" target="_blank">
</a>
</g>
</g>
<!-- 64&#45;&gt;63+64 -->
<g id="edge14" class="edge"><title>64&#45;&gt;63+64</title>
<path fill="none" stroke="black" d="M1587.58,-39.9615C1574.59,-21.895 1563.98,-7.14622 1561.53,-3.74132"/>
</g>
<!-- 65 -->
<g id="node20" class="node"><title>65</title>
<g id="a_node20"><a xlink:href="/character/display?id=Gerion_Lannister" xlink:title="Gerion Lannister" target="_blank">
<polygon fill="white" stroke="black" points="1724.25,-441.5 1577.75,-441.5 1577.75,-294.5 1724.25,-294.5 1724.25,-441.5"/>
</a>
</g>
<g id="a_node20_19"><a xlink:href="http://awoiaf.westeros.org/index.php/Gerion_Lannister" xlink:title="Gerion Lannister" target="_blank">
<text text-anchor="start" x="1590.5" y="-371.3" font-family="Times,serif" font-size="14.00">Gerion Lannister</text>
<text text-anchor="start" x="1622" y="-356.3" font-family="Times,serif" font-size="14.00">255&#45;291</text>
</a>
</g>
<g><a xlink:href="/character/display?id=Gerion_Lannister" xlink:title="Gerion Lannister" target="_blank">
</a>
</g>
</g>
<!-- 304 -->
<g id="node21" class="node"><title>304</title>
<g id="a_node21"><a xlink:href="/character/display?id=Amerei_Frey" xlink:title="Amerei Frey" target="_blank">
<polygon fill="white" stroke="black" points="894.25,-182.5 779.75,-182.5 779.75,-67.5 894.25,-67.5 894.25,-182.5"/>
</a>
</g>
<g id="a_node21_20"><a xlink:href="http://awoiaf.westeros.org/index.php/Amerei_Frey" xlink:title="Amerei Frey" target="_blank">
<text text-anchor="start" x="792.5" y="-128.3" font-family="Times,serif" font-size="14.00">Amerei Frey</text>
<text text-anchor="start" x="821.5" y="-113.3" font-family="Times,serif" font-size="14.00">282&#45;</text>
</a>
</g>
<g><a xlink:href="/character/display?id=Amerei_Frey" xlink:title="Amerei Frey" target="_blank">
</a>
</g>
</g>
<!-- 304&#45;&gt;55+304 -->
<g id="edge10" class="edge"><title>304&#45;&gt;55+304</title>
<path fill="none" stroke="black" d="M801.916,-67.397C784.226,-38.8578 765.817,-9.15735 762.52,-3.83935"/>
</g>
<!-- 44+45&#45;&gt;46 -->
<g id="edge16" class="edge"><title>44+45&#45;&gt;46</title>
<path fill="none" stroke="black" d="M1135.4,-486.974C1102.77,-486.444 579.692,-477.52 519,-450 512.52,-447.062 506.28,-443.348 500.341,-439.135"/>
</g>
<!-- 44+45&#45;&gt;53 -->
<g id="edge19" class="edge"><title>44+45&#45;&gt;53</title>
<path fill="none" stroke="black" d="M1135.16,-487.09C1119.17,-487.788 1002.67,-491.303 923,-450 917.35,-447.071 911.847,-443.608 906.543,-439.792"/>
</g>
<!-- 44+45&#45;&gt;59 -->
<g id="edge24" class="edge"><title>44+45&#45;&gt;59</title>
<path fill="none" stroke="black" d="M1137,-485.675C1137,-480.611 1137,-461.7 1137,-440.533"/>
</g>
<!-- 44+45&#45;&gt;61 -->
<g id="edge25" class="edge"><title>44+45&#45;&gt;61</title>
<path fill="none" stroke="black" d="M1138.22,-486.618C1145.92,-484.173 1188.35,-470.189 1218,-450 1221.35,-447.719 1224.69,-445.301 1228,-442.779"/>
</g>
<!-- 44+45&#45;&gt;65 -->
<g id="edge27" class="edge"><title>44+45&#45;&gt;65</title>
<path fill="none" stroke="black" d="M1138.54,-487.011C1163.45,-487.171 1484.01,-488.46 1568,-450 1573.22,-447.611 1578.3,-444.75 1583.22,-441.551"/>
</g>
<!-- 46+47&#45;&gt;17 -->
<g id="edge15" class="edge"><title>46+47&#45;&gt;17</title>
<path fill="none" stroke="black" d="M437.339,-246.95C424.509,-246.501 340.164,-242.364 283,-210 276.793,-206.486 270.75,-202.362 264.943,-197.862"/>
</g>
<!-- 46+47&#45;&gt;48 -->
<g id="edge17" class="edge"><title>46+47&#45;&gt;48</title>
<path fill="none" stroke="black" d="M438.508,-246.227C435.716,-241.84 421.431,-219.392 405.947,-195.06"/>
</g>
<!-- 46+47&#45;&gt;49 -->
<g id="edge18" class="edge"><title>46+47&#45;&gt;49</title>
<path fill="none" stroke="black" d="M439.536,-246.227C442.457,-242.021 456.9,-221.215 472.973,-198.063"/>
</g>
<!-- 53+54&#45;&gt;55 -->
<g id="edge20" class="edge"><title>53+54&#45;&gt;55</title>
<path fill="none" stroke="black" d="M987.12,-247.102C970.819,-247.91 852.05,-252.17 771,-210 764.725,-206.735 758.635,-202.825 752.792,-198.502"/>
</g>
<!-- 53+54&#45;&gt;56 -->
<g id="edge21" class="edge"><title>53+54&#45;&gt;56</title>
<path fill="none" stroke="black" d="M989,-245.641C989,-240.604 989,-222.207 989,-201.298"/>
</g>
<!-- 53+54&#45;&gt;57 -->
<g id="edge22" class="edge"><title>53+54&#45;&gt;57</title>
<path fill="none" stroke="black" d="M990.287,-246.64C998.404,-244.329 1043.14,-231.021 1074,-210 1078.6,-206.865 1083.17,-203.457 1087.65,-199.868"/>
</g>
<!-- 53+54&#45;&gt;58 -->
<g id="edge23" class="edge"><title>53+54&#45;&gt;58</title>
<path fill="none" stroke="black" d="M990.754,-246.905C1010.64,-245.804 1193.72,-235.054 1241,-210 1249.74,-205.368 1258,-199.341 1265.64,-192.641"/>
</g>
<!-- 61+62&#45;&gt;63 -->
<g id="edge26" class="edge"><title>61+62&#45;&gt;63</title>
<path fill="none" stroke="black" d="M1475,-245.641C1475,-240.111 1475,-218.476 1475,-195.093"/>
</g>
</g>
</svg>
