<?xml version="1.0" encoding="UTF-8" standalone="no"?>
<!DOCTYPE svg PUBLIC "-//W3C//DTD SVG 1.1//EN"
 "http://www.w3.org/Graphics/SVG/1.1/DTD/svg11.dtd">
<!-- Generated by graphviz version 2.36.0 (20140111.2315)
 -->
<!-- Title: family Pages: 1 -->
<svg width="1642pt" height="652pt"
 viewBox="0.00 0.00 1642.00 652.00" xmlns="http://www.w3.org/2000/svg" xmlns:xlink="http://www.w3.org/1999/xlink">
<g id="graph0" class="graph" transform="scale(1 1) rotate(0) translate(4 648)">
<title>family</title>
<polygon fill="white" stroke="none" points="-4,4 -4,-648 1638,-648 1638,4 -4,4"/>
<!-- 4 -->
<g id="node1" class="node"><title>4</title>
<g id="a_node1"><a xlink:href="http://awoiaf.westeros.org/index.php/Sansa_Stark" xlink:title="Sansa Stark\n286&#45;" target="_blank">
<polygon fill="white" stroke="black" points="101.5,-172 0.5,-172 0.5,-70 101.5,-70 101.5,-172"/>
<text text-anchor="middle" x="51" y="-124.8" font-family="Times,serif" font-size="14.00">Sansa Stark</text>
<text text-anchor="middle" x="51" y="-109.8" font-family="Times,serif" font-size="14.00">286&#45;</text>
</a>
</g>
</g>
<!-- 17+4 -->
<g id="node22" class="node"><title>17+4</title>
<ellipse fill="black" stroke="black" cx="120" cy="-2" rx="1.8" ry="1.8"/>
</g>
<!-- 4&#45;&gt;17+4 -->
<g id="edge2" class="edge"><title>4&#45;&gt;17+4</title>
<path fill="none" stroke="black" d="M80.6627,-69.7025C97.6108,-40.9644 116.148,-9.53207 119.474,-3.89109"/>
</g>
<!-- 17 -->
<g id="node2" class="node"><title>17</title>
<g id="a_node2"><a xlink:href="http://awoiaf.westeros.org/index.php/Tyrion_Lannister" xlink:title="Tyrion Lannister\n273&#45;" target="_blank">
<polygon fill="white" stroke="black" points="256,-189 120,-189 120,-53 256,-53 256,-189"/>
<text text-anchor="middle" x="188" y="-124.8" font-family="Times,serif" font-size="14.00">Tyrion Lannister</text>
<text text-anchor="middle" x="188" y="-109.8" font-family="Times,serif" font-size="14.00">273&#45;</text>
</a>
</g>
</g>
<!-- 17&#45;&gt;17+4 -->
<g id="edge1" class="edge"><title>17&#45;&gt;17+4</title>
<path fill="none" stroke="black" d="M149.035,-52.9579C135.741,-30.0838 123.482,-8.99036 120.624,-4.0744"/>
</g>
<!-- 44 -->
<g id="node3" class="node"><title>44</title>
<g id="a_node3"><a xlink:href="http://awoiaf.westeros.org/index.php/Tytos_Lannister" xlink:title="Tytos Lannister\n220&#45;267" target="_blank">
<polygon fill="white" stroke="black" points="1060.25,-641.5 931.75,-641.5 931.75,-512.5 1060.25,-512.5 1060.25,-641.5"/>
<text text-anchor="middle" x="996" y="-580.8" font-family="Times,serif" font-size="14.00">Tytos Lannister</text>
<text text-anchor="middle" x="996" y="-565.8" font-family="Times,serif" font-size="14.00">220&#45;267</text>
</a>
</g>
</g>
<!-- 44+45 -->
<g id="node23" class="node"><title>44+45</title>
<ellipse fill="black" stroke="black" cx="1070" cy="-472" rx="1.8" ry="1.8"/>
</g>
<!-- 44&#45;&gt;44+45 -->
<g id="edge3" class="edge"><title>44&#45;&gt;44+45</title>
<path fill="none" stroke="black" d="M1041.81,-512.234C1055.06,-493.796 1066.71,-477.586 1069.41,-473.822"/>
</g>
<!-- 45 -->
<g id="node4" class="node"><title>45</title>
<g id="a_node4"><a xlink:href="http://awoiaf.westeros.org/index.php/Jeyne_Marbrand" xlink:title="Jeyne Marbrand\n???&#45;255" target="_blank">
<polygon fill="white" stroke="black" points="1211.25,-643.5 1078.75,-643.5 1078.75,-510.5 1211.25,-510.5 1211.25,-643.5"/>
<text text-anchor="middle" x="1145" y="-580.8" font-family="Times,serif" font-size="14.00">Jeyne Marbrand</text>
<text text-anchor="middle" x="1145" y="-565.8" font-family="Times,serif" font-size="14.00">???&#45;255</text>
</a>
</g>
</g>
<!-- 45&#45;&gt;44+45 -->
<g id="edge4" class="edge"><title>45&#45;&gt;44+45</title>
<path fill="none" stroke="black" d="M1097.29,-510.477C1084.35,-492.702 1073.16,-477.34 1070.57,-473.777"/>
</g>
<!-- 46 -->
<g id="node5" class="node"><title>46</title>
<g id="a_node5"><a xlink:href="http://awoiaf.westeros.org/index.php/Tywin_Lannister" xlink:title="Tywin Lannister\n242&#45;300" target="_blank">
<polygon fill="white" stroke="black" points="478.25,-422.5 345.75,-422.5 345.75,-289.5 478.25,-289.5 478.25,-422.5"/>
<text text-anchor="middle" x="412" y="-359.8" font-family="Times,serif" font-size="14.00">Tywin Lannister</text>
<text text-anchor="middle" x="412" y="-344.8" font-family="Times,serif" font-size="14.00">242&#45;300</text>
</a>
</g>
</g>
<!-- 46+47 -->
<g id="node24" class="node"><title>46+47</title>
<ellipse fill="black" stroke="black" cx="412" cy="-240" rx="1.8" ry="1.8"/>
</g>
<!-- 46&#45;&gt;46+47 -->
<g id="edge5" class="edge"><title>46&#45;&gt;46+47</title>
<path fill="none" stroke="black" d="M412,-289.346C412,-267.173 412,-246.788 412,-242.038"/>
</g>
<!-- 47 -->
<g id="node6" class="node"><title>47</title>
<g id="a_node6"><a xlink:href="http://awoiaf.westeros.org/index.php/Joanna_Lannister" xlink:title="Joanna Lannister\n245&#45;273" target="_blank">
<polygon fill="white" stroke="black" points="635.25,-425.5 496.75,-425.5 496.75,-286.5 635.25,-286.5 635.25,-425.5"/>
<text text-anchor="middle" x="566" y="-359.8" font-family="Times,serif" font-size="14.00">Joanna Lannister</text>
<text text-anchor="middle" x="566" y="-344.8" font-family="Times,serif" font-size="14.00">245&#45;273</text>
</a>
</g>
</g>
<!-- 47&#45;&gt;46+47 -->
<g id="edge6" class="edge"><title>47&#45;&gt;46+47</title>
<path fill="none" stroke="black" d="M498.2,-286.442C494.497,-283.487 490.753,-280.654 487,-278 459.97,-258.889 421.596,-244.471 413.525,-241.545"/>
</g>
<!-- 48 -->
<g id="node7" class="node"><title>48</title>
<g id="a_node7"><a xlink:href="http://awoiaf.westeros.org/index.php/Jaime_Lannister" xlink:title="Jaime Lannister\n266&#45;" target="_blank">
<polygon fill="white" stroke="black" points="405.25,-186.5 274.75,-186.5 274.75,-55.5 405.25,-55.5 405.25,-186.5"/>
<text text-anchor="middle" x="340" y="-124.8" font-family="Times,serif" font-size="14.00">Jaime Lannister</text>
<text text-anchor="middle" x="340" y="-109.8" font-family="Times,serif" font-size="14.00">266&#45;</text>
</a>
</g>
</g>
<!-- 49 -->
<g id="node8" class="node"><title>49</title>
<g id="a_node8"><a xlink:href="http://awoiaf.westeros.org/index.php/Cersei_Lannister" xlink:title="Cersei Lannister\n266&#45;" target="_blank">
<polygon fill="white" stroke="black" points="560.25,-189.5 423.75,-189.5 423.75,-52.5 560.25,-52.5 560.25,-189.5"/>
<text text-anchor="middle" x="492" y="-124.8" font-family="Times,serif" font-size="14.00">Cersei Lannister</text>
<text text-anchor="middle" x="492" y="-109.8" font-family="Times,serif" font-size="14.00">266&#45;</text>
</a>
</g>
</g>
<!-- 53 -->
<g id="node9" class="node"><title>53</title>
<g id="a_node9"><a xlink:href="http://awoiaf.westeros.org/index.php/Kevan_Lannister" xlink:title="Kevan Lannister\n244&#45;300" target="_blank">
<polygon fill="white" stroke="black" points="860,-423 726,-423 726,-289 860,-289 860,-423"/>
<text text-anchor="middle" x="793" y="-359.8" font-family="Times,serif" font-size="14.00">Kevan Lannister</text>
<text text-anchor="middle" x="793" y="-344.8" font-family="Times,serif" font-size="14.00">244&#45;300</text>
</a>
</g>
</g>
<!-- 53+54 -->
<g id="node25" class="node"><title>53+54</title>
<ellipse fill="black" stroke="black" cx="931" cy="-240" rx="1.8" ry="1.8"/>
</g>
<!-- 53&#45;&gt;53+54 -->
<g id="edge7" class="edge"><title>53&#45;&gt;53+54</title>
<path fill="none" stroke="black" d="M857.085,-288.724C861.363,-284.99 865.687,-281.384 870,-278 892.217,-260.567 923.246,-244.838 929.768,-241.605"/>
</g>
<!-- 54 -->
<g id="node10" class="node"><title>54</title>
<g id="a_node10"><a xlink:href="http://awoiaf.westeros.org/index.php/Dorna_Swyft" xlink:title="Dorna Swyft\n???&#45;" target="_blank">
<polygon fill="white" stroke="black" points="983.25,-408.5 878.75,-408.5 878.75,-303.5 983.25,-303.5 983.25,-408.5"/>
<text text-anchor="middle" x="931" y="-359.8" font-family="Times,serif" font-size="14.00">Dorna Swyft</text>
<text text-anchor="middle" x="931" y="-344.8" font-family="Times,serif" font-size="14.00">???&#45;</text>
</a>
</g>
</g>
<!-- 54&#45;&gt;53+54 -->
<g id="edge8" class="edge"><title>54&#45;&gt;53+54</title>
<path fill="none" stroke="black" d="M931,-303.337C931,-276.002 931,-247.015 931,-241.82"/>
</g>
<!-- 55 -->
<g id="node11" class="node"><title>55</title>
<g id="a_node11"><a xlink:href="http://awoiaf.westeros.org/index.php/Lancel_Lannister" xlink:title="Lancel Lannister\n282&#45;" target="_blank">
<polygon fill="white" stroke="black" points="717,-190 579,-190 579,-52 717,-52 717,-190"/>
<text text-anchor="middle" x="648" y="-124.8" font-family="Times,serif" font-size="14.00">Lancel Lannister</text>
<text text-anchor="middle" x="648" y="-109.8" font-family="Times,serif" font-size="14.00">282&#45;</text>
</a>
</g>
</g>
<!-- 55+304 -->
<g id="node26" class="node"><title>55+304</title>
<ellipse fill="black" stroke="black" cx="718" cy="-2" rx="1.8" ry="1.8"/>
</g>
<!-- 55&#45;&gt;55+304 -->
<g id="edge9" class="edge"><title>55&#45;&gt;55+304</title>
<path fill="none" stroke="black" d="M688.719,-51.9406C702.194,-29.4189 714.506,-8.84002 717.373,-4.04721"/>
</g>
<!-- 56 -->
<g id="node12" class="node"><title>56</title>
<g id="a_node12"><a xlink:href="http://awoiaf.westeros.org/index.php/Martyn_Lannister" xlink:title="Martyn Lannister\n285&#45;" target="_blank">
<polygon fill="white" stroke="black" points="1002.25,-192.5 859.75,-192.5 859.75,-49.5 1002.25,-49.5 1002.25,-192.5"/>
<text text-anchor="middle" x="931" y="-124.8" font-family="Times,serif" font-size="14.00">Martyn Lannister</text>
<text text-anchor="middle" x="931" y="-109.8" font-family="Times,serif" font-size="14.00">285&#45;</text>
</a>
</g>
</g>
<!-- 57 -->
<g id="node13" class="node"><title>57</title>
<g id="a_node13"><a xlink:href="http://awoiaf.westeros.org/index.php/Willem_Lannister" xlink:title="Willem Lannister\n285&#45;" target="_blank">
<polygon fill="white" stroke="black" points="1161,-191 1021,-191 1021,-51 1161,-51 1161,-191"/>
<text text-anchor="middle" x="1091" y="-124.8" font-family="Times,serif" font-size="14.00">Willem Lannister</text>
<text text-anchor="middle" x="1091" y="-109.8" font-family="Times,serif" font-size="14.00">285&#45;</text>
</a>
</g>
</g>
<!-- 58 -->
<g id="node14" class="node"><title>58</title>
<g id="a_node14"><a xlink:href="http://awoiaf.westeros.org/index.php/Janei_Lannister" xlink:title="Janei Lannister\n296&#45;" target="_blank">
<polygon fill="white" stroke="black" points="1305,-184 1179,-184 1179,-58 1305,-58 1305,-184"/>
<text text-anchor="middle" x="1242" y="-124.8" font-family="Times,serif" font-size="14.00">Janei Lannister</text>
<text text-anchor="middle" x="1242" y="-109.8" font-family="Times,serif" font-size="14.00">296&#45;</text>
</a>
</g>
</g>
<!-- 59 -->
<g id="node15" class="node"><title>59</title>
<g id="a_node15"><a xlink:href="http://awoiaf.westeros.org/index.php/Genna_Lannister" xlink:title="Genna Lannister\n245&#45;" target="_blank">
<polygon fill="white" stroke="black" points="1138,-424 1002,-424 1002,-288 1138,-288 1138,-424"/>
<text text-anchor="middle" x="1070" y="-359.8" font-family="Times,serif" font-size="14.00">Genna Lannister</text>
<text text-anchor="middle" x="1070" y="-344.8" font-family="Times,serif" font-size="14.00">245&#45;</text>
</a>
</g>
</g>
<!-- 61 -->
<g id="node16" class="node"><title>61</title>
<g id="a_node16"><a xlink:href="http://awoiaf.westeros.org/index.php/Tygget_Lannister" xlink:title="Tygget Lannister\n250&#45;285" target="_blank">
<polygon fill="white" stroke="black" points="1296,-426 1156,-426 1156,-286 1296,-286 1296,-426"/>
<text text-anchor="middle" x="1226" y="-359.8" font-family="Times,serif" font-size="14.00">Tygget Lannister</text>
<text text-anchor="middle" x="1226" y="-344.8" font-family="Times,serif" font-size="14.00">250&#45;285</text>
</a>
</g>
</g>
<!-- 61+62 -->
<g id="node27" class="node"><title>61+62</title>
<ellipse fill="black" stroke="black" cx="1390" cy="-240" rx="1.8" ry="1.8"/>
</g>
<!-- 61&#45;&gt;61+62 -->
<g id="edge11" class="edge"><title>61&#45;&gt;61+62</title>
<path fill="none" stroke="black" d="M1295.03,-285.889C1298.65,-283.116 1302.32,-280.469 1306,-278 1336.71,-257.413 1380.75,-243.752 1388.73,-241.372"/>
</g>
<!-- 62 -->
<g id="node17" class="node"><title>62</title>
<g id="a_node17"><a xlink:href="http://awoiaf.westeros.org/index.php/Darless Marbrand" xlink:title="Darlessa Marbrand\n???&#45;" target="_blank">
<polygon fill="white" stroke="black" points="1469.25,-433.5 1314.75,-433.5 1314.75,-278.5 1469.25,-278.5 1469.25,-433.5"/>
<text text-anchor="middle" x="1392" y="-359.8" font-family="Times,serif" font-size="14.00">Darlessa Marbrand</text>
<text text-anchor="middle" x="1392" y="-344.8" font-family="Times,serif" font-size="14.00">???&#45;</text>
</a>
</g>
</g>
<!-- 62&#45;&gt;61+62 -->
<g id="edge12" class="edge"><title>62&#45;&gt;61+62</title>
<path fill="none" stroke="black" d="M1390.65,-278.328C1390.34,-260.606 1390.08,-245.776 1390.02,-241.956"/>
</g>
<!-- 63 -->
<g id="node18" class="node"><title>63</title>
<g id="a_node18"><a xlink:href="http://awoiaf.westeros.org/index.php/Tyrek_Lannister" xlink:title="Tyrek Lannister\n286&#45;299" target="_blank">
<polygon fill="white" stroke="black" points="1455.25,-186.5 1324.75,-186.5 1324.75,-55.5 1455.25,-55.5 1455.25,-186.5"/>
<text text-anchor="middle" x="1390" y="-124.8" font-family="Times,serif" font-size="14.00">Tyrek Lannister</text>
<text text-anchor="middle" x="1390" y="-109.8" font-family="Times,serif" font-size="14.00">286&#45;299</text>
</a>
</g>
</g>
<!-- 63+64 -->
<g id="node28" class="node"><title>63+64</title>
<ellipse fill="black" stroke="black" cx="1472" cy="-2" rx="1.8" ry="1.8"/>
</g>
<!-- 63&#45;&gt;63+64 -->
<g id="edge13" class="edge"><title>63&#45;&gt;63+64</title>
<path fill="none" stroke="black" d="M1435.32,-55.3402C1451.91,-31.6637 1467.55,-9.34811 1471.2,-4.13916"/>
</g>
<!-- 64 -->
<g id="node19" class="node"><title>64</title>
<g id="a_node19"><a xlink:href="http://awoiaf.westeros.org/index.php/Ermesande_Hayford" xlink:title="Ermesande Hayford\n298&#45;" target="_blank">
<polygon fill="white" stroke="black" points="1634.25,-201.5 1473.75,-201.5 1473.75,-40.5 1634.25,-40.5 1634.25,-201.5"/>
<text text-anchor="middle" x="1554" y="-124.8" font-family="Times,serif" font-size="14.00">Ermesande Hayford</text>
<text text-anchor="middle" x="1554" y="-109.8" font-family="Times,serif" font-size="14.00">298&#45;</text>
</a>
</g>
</g>
<!-- 64&#45;&gt;63+64 -->
<g id="edge14" class="edge"><title>64&#45;&gt;63+64</title>
<path fill="none" stroke="black" d="M1498.17,-40.3412C1485.47,-22.2145 1474.96,-7.22017 1472.53,-3.75482"/>
</g>
<!-- 65 -->
<g id="node20" class="node"><title>65</title>
<g id="a_node20"><a xlink:href="http://awoiaf.westeros.org/index.php/Gerion_Lannister" xlink:title="Gerion Lannister\n255&#45;291" target="_blank">
<polygon fill="white" stroke="black" points="1626,-425 1488,-425 1488,-287 1626,-287 1626,-425"/>
<text text-anchor="middle" x="1557" y="-359.8" font-family="Times,serif" font-size="14.00">Gerion Lannister</text>
<text text-anchor="middle" x="1557" y="-344.8" font-family="Times,serif" font-size="14.00">255&#45;291</text>
</a>
</g>
</g>
<!-- 304 -->
<g id="node21" class="node"><title>304</title>
<g id="a_node21"><a xlink:href="http://awoiaf.westeros.org/index.php/Amerei_Frey" xlink:title="Amerei Frey\n282&#45;" target="_blank">
<polygon fill="white" stroke="black" points="840.5,-174 735.5,-174 735.5,-68 840.5,-68 840.5,-174"/>
<text text-anchor="middle" x="788" y="-124.8" font-family="Times,serif" font-size="14.00">Amerei Frey</text>
<text text-anchor="middle" x="788" y="-109.8" font-family="Times,serif" font-size="14.00">282&#45;</text>
</a>
</g>
</g>
<!-- 304&#45;&gt;55+304 -->
<g id="edge10" class="edge"><title>304&#45;&gt;55+304</title>
<path fill="none" stroke="black" d="M756.685,-67.6598C739.795,-39.4284 721.747,-9.26202 718.511,-3.85396"/>
</g>
<!-- 44+45&#45;&gt;46 -->
<g id="edge16" class="edge"><title>44+45&#45;&gt;46</title>
<path fill="none" stroke="black" d="M1068.5,-470.97C1037.76,-470.351 545.118,-460.037 488,-434 481.335,-430.962 474.936,-427.062 468.878,-422.634"/>
</g>
<!-- 44+45&#45;&gt;53 -->
<g id="edge19" class="edge"><title>44+45&#45;&gt;53</title>
<path fill="none" stroke="black" d="M1068.28,-471.057C1053.32,-471.481 944.382,-473.119 870,-434 864.144,-430.92 858.449,-427.243 852.982,-423.19"/>
</g>
<!-- 44+45&#45;&gt;59 -->
<g id="edge24" class="edge"><title>44+45&#45;&gt;59</title>
<path fill="none" stroke="black" d="M1070,-469.72C1070,-464.681 1070,-445.449 1070,-424.262"/>
</g>
<!-- 44+45&#45;&gt;61 -->
<g id="edge25" class="edge"><title>44+45&#45;&gt;61</title>
<path fill="none" stroke="black" d="M1071.16,-470.605C1078.47,-468.085 1118.8,-453.719 1147,-434 1150.45,-431.585 1153.9,-429.017 1157.31,-426.339"/>
</g>
<!-- 44+45&#45;&gt;65 -->
<g id="edge27" class="edge"><title>44+45&#45;&gt;65</title>
<path fill="none" stroke="black" d="M1071.76,-471.003C1097.51,-471.02 1398.86,-470.44 1478,-434 1483.39,-431.517 1488.64,-428.506 1493.69,-425.132"/>
</g>
<!-- 46+47&#45;&gt;17 -->
<g id="edge15" class="edge"><title>46+47&#45;&gt;17</title>
<path fill="none" stroke="black" d="M410.432,-238.928C398.323,-238.313 318.726,-233.158 265,-202 258.663,-198.325 252.511,-193.978 246.628,-189.24"/>
</g>
<!-- 46+47&#45;&gt;48 -->
<g id="edge17" class="edge"><title>46+47&#45;&gt;48</title>
<path fill="none" stroke="black" d="M411.54,-238.253C408.845,-233.874 394.703,-210.893 379.695,-186.505"/>
</g>
<!-- 46+47&#45;&gt;49 -->
<g id="edge18" class="edge"><title>46+47&#45;&gt;49</title>
<path fill="none" stroke="black" d="M412.511,-238.253C415.372,-234.069 429.847,-212.899 445.677,-189.747"/>
</g>
<!-- 53+54&#45;&gt;55 -->
<g id="edge20" class="edge"><title>53+54&#45;&gt;55</title>
<path fill="none" stroke="black" d="M929.229,-239.076C913.875,-239.658 802.014,-242.38 726,-202 719.662,-198.633 713.526,-194.568 707.667,-190.077"/>
</g>
<!-- 53+54&#45;&gt;56 -->
<g id="edge21" class="edge"><title>53+54&#45;&gt;56</title>
<path fill="none" stroke="black" d="M931,-237.686C931,-232.64 931,-213.726 931,-192.611"/>
</g>
<!-- 53+54&#45;&gt;57 -->
<g id="edge22" class="edge"><title>53+54&#45;&gt;57</title>
<path fill="none" stroke="black" d="M932.21,-238.621C939.838,-236.197 981.887,-222.317 1011,-202 1015.83,-198.628 1020.63,-194.947 1025.34,-191.077"/>
</g>
<!-- 53+54&#45;&gt;58 -->
<g id="edge23" class="edge"><title>53+54&#45;&gt;58</title>
<path fill="none" stroke="black" d="M932.665,-238.897C951.538,-237.707 1125.31,-226.169 1170,-202 1178.71,-197.289 1186.9,-191.099 1194.41,-184.246"/>
</g>
<!-- 61+62&#45;&gt;63 -->
<g id="edge26" class="edge"><title>61+62&#45;&gt;63</title>
<path fill="none" stroke="black" d="M1390,-237.686C1390,-232.163 1390,-210.027 1390,-186.574"/>
</g>
</g>
</svg>
