<?xml version="1.0" encoding="UTF-8" standalone="no"?>
<!DOCTYPE svg PUBLIC "-//W3C//DTD SVG 1.1//EN"
 "http://www.w3.org/Graphics/SVG/1.1/DTD/svg11.dtd">
<!-- Generated by graphviz version 2.36.0 (20140111.2315)
 -->
<!-- Title: family Pages: 1 -->
<svg width="264pt" height="184pt"
 viewBox="0.00 0.00 264.00 184.00" xmlns="http://www.w3.org/2000/svg" xmlns:xlink="http://www.w3.org/1999/xlink">
<g id="graph0" class="graph" transform="scale(1 1) rotate(0) translate(4 180)">
<title>family</title>
<polygon fill="white" stroke="none" points="-4,4 -4,-180 260,-180 260,4 -4,4"/>
<!-- 4 -->
<g id="node1" class="node"><title>4</title>
<g id="a_node1"><a xlink:href="http://awoiaf.westeros.org/index.php/Sansa_Stark" xlink:title="Sansa Stark\n286&#45;" target="_blank">
<polygon fill="none" stroke="black" points="101.5,-159 0.5,-159 0.5,-57 101.5,-57 101.5,-159"/>
<text text-anchor="middle" x="51" y="-111.8" font-family="Times,serif" font-size="14.00">Sansa Stark</text>
<text text-anchor="middle" x="51" y="-96.8" font-family="Times,serif" font-size="14.00">286&#45;</text>
</a>
</g>
</g>
<!-- 17+4 -->
<g id="node3" class="node"><title>17+4</title>
<ellipse fill="black" stroke="black" cx="119" cy="-2" rx="1.8" ry="1.8"/>
</g>
<!-- 4&#45;&gt;17+4 -->
<g id="edge2" class="edge"><title>4&#45;&gt;17+4</title>
<path fill="none" stroke="black" d="M83.8049,-56.8278C99.0202,-33.5574 114.555,-9.79829 118.201,-4.22211"/>
</g>
<!-- 17 -->
<g id="node2" class="node"><title>17</title>
<g id="a_node2"><a xlink:href="http://awoiaf.westeros.org/index.php/Tyrion_Lannister" xlink:title="Tyrion Lannister\n273&#45;" target="_blank">
<polygon fill="none" stroke="black" points="256,-176 120,-176 120,-40 256,-40 256,-176"/>
<text text-anchor="middle" x="188" y="-111.8" font-family="Times,serif" font-size="14.00">Tyrion Lannister</text>
<text text-anchor="middle" x="188" y="-96.8" font-family="Times,serif" font-size="14.00">273&#45;</text>
</a>
</g>
</g>
<!-- 17&#45;&gt;17+4 -->
<g id="edge1" class="edge"><title>17&#45;&gt;17+4</title>
<path fill="none" stroke="black" d="M143.521,-39.9593C131.839,-22.351 121.827,-7.26027 119.506,-3.76271"/>
</g>
</g>
</svg>
