<?xml version="1.0" encoding="UTF-8" standalone="no"?>
<!DOCTYPE svg PUBLIC "-//W3C//DTD SVG 1.1//EN"
 "http://www.w3.org/Graphics/SVG/1.1/DTD/svg11.dtd">
<!-- Generated by graphviz version 2.36.0 (20140111.2315)
 -->
<!-- Title: family Pages: 1 -->
<svg width="1589pt" height="1338pt"
 viewBox="0.00 0.00 1589.00 1338.00" xmlns="http://www.w3.org/2000/svg" xmlns:xlink="http://www.w3.org/1999/xlink">
<g id="graph0" class="graph" transform="scale(1 1) rotate(0) translate(4 1334)">
<title>family</title>
<polygon fill="white" stroke="none" points="-4,4 -4,-1334 1585,-1334 1585,4 -4,4"/>
<!-- 181 -->
<g id="node1" class="node"><title>181</title>
<g id="a_node1"><a xlink:href="/character/display?id=Lorra_Royce" xlink:title="Lorra Royce" target="_blank">
<polygon fill="white" stroke="black" points="625.25,-1329.5 512.75,-1329.5 512.75,-1216.5 625.25,-1216.5 625.25,-1329.5"/>
</a>
</g>
<g id="a_node1_0"><a xlink:href="http://awoiaf.westeros.org/index.php/Lorra_Royce" xlink:title="Lorra Royce" target="_blank">
<text text-anchor="start" x="525.5" y="-1276.3" font-family="Times,serif" font-size="14.00">Lorra Royce</text>
<text text-anchor="start" x="544.5" y="-1261.3" font-family="Times,serif" font-size="14.00">???&#45;???</text>
</a>
</g>
<g><a xlink:href="/character/display?id=Lorra_Royce" xlink:title="Lorra Royce" target="_blank">
</a>
</g>
</g>
<!-- 180+181 -->
<g id="node47" class="node"><title>180+181</title>
<ellipse fill="black" stroke="black" cx="634" cy="-1178" rx="1.8" ry="1.8"/>
</g>
<!-- 181&#45;&gt;180+181 -->
<g id="edge18" class="edge"><title>181&#45;&gt;180+181</title>
<path fill="none" stroke="black" d="M607.937,-1216.29C620.049,-1198.96 630.92,-1183.41 633.448,-1179.79"/>
</g>
<!-- 183 -->
<g id="node2" class="node"><title>183</title>
<g id="a_node2"><a xlink:href="/character/display?id=Donner_Stark" xlink:title="Donner Stark" target="_blank">
<polygon fill="white" stroke="black" points="556,-1113 434,-1113 434,-991 556,-991 556,-1113"/>
</a>
</g>
<g id="a_node2_1"><a xlink:href="http://awoiaf.westeros.org/index.php/Donner_Stark" xlink:title="Donner Stark" target="_blank">
<text text-anchor="start" x="446.5" y="-1055.3" font-family="Times,serif" font-size="14.00">Donner Stark</text>
<text text-anchor="start" x="470" y="-1040.3" font-family="Times,serif" font-size="14.00">???&#45;???</text>
</a>
</g>
<g><a xlink:href="/character/display?id=Donner_Stark" xlink:title="Donner Stark" target="_blank">
</a>
</g>
</g>
<!-- 184 -->
<g id="node3" class="node"><title>184</title>
<g id="a_node3"><a xlink:href="/character/display?id=Willam_Stark" xlink:title="Willam Stark" target="_blank">
<polygon fill="white" stroke="black" points="693.25,-1111.5 574.75,-1111.5 574.75,-992.5 693.25,-992.5 693.25,-1111.5"/>
</a>
</g>
<g id="a_node3_2"><a xlink:href="http://awoiaf.westeros.org/index.php/Willam_Stark" xlink:title="Willam Stark" target="_blank">
<text text-anchor="start" x="587.5" y="-1055.3" font-family="Times,serif" font-size="14.00">Willam Stark</text>
<text text-anchor="start" x="607" y="-1040.3" font-family="Times,serif" font-size="14.00">???&#45;226</text>
</a>
</g>
<g><a xlink:href="/character/display?id=Willam_Stark" xlink:title="Willam Stark" target="_blank">
</a>
</g>
</g>
<!-- 184+185 -->
<g id="node39" class="node"><title>184+185</title>
<ellipse fill="black" stroke="black" cx="371" cy="-926" rx="1.8" ry="1.8"/>
</g>
<!-- 184&#45;&gt;184+185 -->
<g id="edge1" class="edge"><title>184&#45;&gt;184+185</title>
<path fill="none" stroke="black" d="M597.088,-992.361C587.822,-981.494 577.039,-971.288 565,-964 495.191,-921.739 387.505,-926.077 372.707,-926.896"/>
</g>
<!-- 184+187 -->
<g id="node40" class="node"><title>184+187</title>
<ellipse fill="black" stroke="black" cx="714" cy="-926" rx="1.8" ry="1.8"/>
</g>
<!-- 184&#45;&gt;184+187 -->
<g id="edge3" class="edge"><title>184&#45;&gt;184+187</title>
<path fill="none" stroke="black" d="M671.891,-992.268C690.631,-963.223 709.988,-933.218 713.453,-927.848"/>
</g>
<!-- 198 -->
<g id="node4" class="node"><title>198</title>
<g id="a_node4"><a xlink:href="/character/display?id=Artos_Stark" xlink:title="Artos Stark" target="_blank">
<polygon fill="white" stroke="black" points="1564,-1106 1456,-1106 1456,-998 1564,-998 1564,-1106"/>
</a>
</g>
<g id="a_node4_3"><a xlink:href="http://awoiaf.westeros.org/index.php/Artos_Stark" xlink:title="Artos Stark" target="_blank">
<text text-anchor="start" x="1468.5" y="-1055.3" font-family="Times,serif" font-size="14.00">Artos Stark</text>
<text text-anchor="start" x="1485" y="-1040.3" font-family="Times,serif" font-size="14.00">???&#45;???</text>
</a>
</g>
<g><a xlink:href="/character/display?id=Artos_Stark" xlink:title="Artos Stark" target="_blank">
</a>
</g>
</g>
<!-- 198+199 -->
<g id="node41" class="node"><title>198+199</title>
<ellipse fill="black" stroke="black" cx="1444" cy="-926" rx="1.8" ry="1.8"/>
</g>
<!-- 198&#45;&gt;198+199 -->
<g id="edge5" class="edge"><title>198&#45;&gt;198+199</title>
<path fill="none" stroke="black" d="M1481.63,-997.693C1465.42,-967.236 1447.68,-933.923 1444.5,-927.944"/>
</g>
<!-- 202 -->
<g id="node5" class="node"><title>202</title>
<g id="a_node5"><a xlink:href="/character/display?id=Berena_Stark" xlink:title="Berena Stark" target="_blank">
<polygon fill="white" stroke="black" points="1437.5,-1112 1318.5,-1112 1318.5,-992 1437.5,-992 1437.5,-1112"/>
</a>
</g>
<g id="a_node5_4"><a xlink:href="http://awoiaf.westeros.org/index.php/Berena_Stark" xlink:title="Berena Stark" target="_blank">
<text text-anchor="start" x="1330.5" y="-1055.3" font-family="Times,serif" font-size="14.00">Berena Stark</text>
<text text-anchor="start" x="1353" y="-1040.3" font-family="Times,serif" font-size="14.00">???&#45;???</text>
</a>
</g>
<g><a xlink:href="/character/display?id=Berena_Stark" xlink:title="Berena Stark" target="_blank">
</a>
</g>
</g>
<!-- 203 -->
<g id="node6" class="node"><title>203</title>
<g id="a_node6"><a xlink:href="/character/display?id=Alysanne_Stark" xlink:title="Alysanne Stark" target="_blank">
<polygon fill="white" stroke="black" points="134,-1119 0,-1119 0,-985 134,-985 134,-1119"/>
</a>
</g>
<g id="a_node6_5"><a xlink:href="http://awoiaf.westeros.org/index.php/Alysanne_Stark" xlink:title="Alysanne Stark" target="_blank">
<text text-anchor="start" x="12.5" y="-1055.3" font-family="Times,serif" font-size="14.00">Alysanne Stark</text>
<text text-anchor="start" x="42" y="-1040.3" font-family="Times,serif" font-size="14.00">???&#45;???</text>
</a>
</g>
<g><a xlink:href="/character/display?id=Alysanne_Stark" xlink:title="Alysanne Stark" target="_blank">
</a>
</g>
</g>
<!-- 204 -->
<g id="node7" class="node"><title>204</title>
<g id="a_node7"><a xlink:href="/character/display?id=Errold_Stark" xlink:title="Errold Stark" target="_blank">
<polygon fill="white" stroke="black" points="267.25,-1109.5 152.75,-1109.5 152.75,-994.5 267.25,-994.5 267.25,-1109.5"/>
</a>
</g>
<g id="a_node7_6"><a xlink:href="http://awoiaf.westeros.org/index.php/Errold_Stark" xlink:title="Errold Stark" target="_blank">
<text text-anchor="start" x="165.5" y="-1055.3" font-family="Times,serif" font-size="14.00">Errold Stark</text>
<text text-anchor="start" x="185.5" y="-1040.3" font-family="Times,serif" font-size="14.00">???&#45;???</text>
</a>
</g>
<g><a xlink:href="/character/display?id=Errold_Stark" xlink:title="Errold Stark" target="_blank">
</a>
</g>
</g>
<!-- 205 -->
<g id="node8" class="node"><title>205</title>
<g id="a_node8"><a xlink:href="/character/display?id=Rodrik Stark_(son_of_Beron)" xlink:title="Rodrik Stark" target="_blank">
<polygon fill="white" stroke="black" points="1139.25,-1110.5 1022.75,-1110.5 1022.75,-993.5 1139.25,-993.5 1139.25,-1110.5"/>
</a>
</g>
<g id="a_node8_7"><a xlink:href="http://awoiaf.westeros.org/index.php/Rodrik Stark_(son_of_Beron)" xlink:title="Rodrik Stark" target="_blank">
<text text-anchor="start" x="1035.5" y="-1055.3" font-family="Times,serif" font-size="14.00">Rodrik Stark</text>
<text text-anchor="start" x="1056.5" y="-1040.3" font-family="Times,serif" font-size="14.00">???&#45;???</text>
</a>
</g>
<g><a xlink:href="/character/display?id=Rodrik Stark_(son_of_Beron)" xlink:title="Rodrik Stark" target="_blank">
</a>
</g>
</g>
<!-- 205+206 -->
<g id="node42" class="node"><title>205+206</title>
<ellipse fill="black" stroke="black" cx="1018" cy="-926" rx="1.8" ry="1.8"/>
</g>
<!-- 205&#45;&gt;205+206 -->
<g id="edge7" class="edge"><title>205&#45;&gt;205+206</title>
<path fill="none" stroke="black" d="M1051.71,-993.356C1036.8,-964.01 1021.23,-933.356 1018.44,-927.867"/>
</g>
<!-- 186 -->
<g id="node9" class="node"><title>186</title>
<g id="a_node9"><a xlink:href="/character/display?id=Brandon_Stark_(son_of_Willam)" xlink:title="Brandon Stark" target="_blank">
<polygon fill="white" stroke="black" points="436,-884 306,-884 306,-754 436,-754 436,-884"/>
</a>
</g>
<g id="a_node9_8"><a xlink:href="http://awoiaf.westeros.org/index.php/Brandon_Stark_(son_of_Willam)" xlink:title="Brandon Stark" target="_blank">
<text text-anchor="start" x="318.5" y="-822.3" font-family="Times,serif" font-size="14.00">Brandon Stark</text>
<text text-anchor="start" x="346" y="-807.3" font-family="Times,serif" font-size="14.00">???&#45;???</text>
</a>
</g>
<g><a xlink:href="/character/display?id=Brandon_Stark_(son_of_Willam)" xlink:title="Brandon Stark" target="_blank">
</a>
</g>
</g>
<!-- 188 -->
<g id="node10" class="node"><title>188</title>
<g id="a_node10"><a xlink:href="/character/display?id=Edwyle_Stark" xlink:title="Edwyle Stark" target="_blank">
<polygon fill="white" stroke="black" points="617,-880 495,-880 495,-758 617,-758 617,-880"/>
</a>
</g>
<g id="a_node10_9"><a xlink:href="http://awoiaf.westeros.org/index.php/Edwyle_Stark" xlink:title="Edwyle Stark" target="_blank">
<text text-anchor="start" x="507.5" y="-822.3" font-family="Times,serif" font-size="14.00">Edwyle Stark</text>
<text text-anchor="start" x="531" y="-807.3" font-family="Times,serif" font-size="14.00">???&#45;???</text>
</a>
</g>
<g><a xlink:href="/character/display?id=Edwyle_Stark" xlink:title="Edwyle Stark" target="_blank">
</a>
</g>
</g>
<!-- 188+189 -->
<g id="node43" class="node"><title>188+189</title>
<ellipse fill="black" stroke="black" cx="696" cy="-655" rx="1.8" ry="1.8"/>
</g>
<!-- 188&#45;&gt;188+189 -->
<g id="edge9" class="edge"><title>188&#45;&gt;188+189</title>
<path fill="none" stroke="black" d="M608.131,-757.677C644.825,-715.217 688.54,-664.632 695.147,-656.987"/>
</g>
<!-- 190 -->
<g id="node11" class="node"><title>190</title>
<g id="a_node11"><a xlink:href="/character/display?id=Jocelyn_Stark" xlink:title="Jocelyn Stark" target="_blank">
<polygon fill="white" stroke="black" points="897,-880 775,-880 775,-758 897,-758 897,-880"/>
</a>
</g>
<g id="a_node11_10"><a xlink:href="http://awoiaf.westeros.org/index.php/Jocelyn_Stark" xlink:title="Jocelyn Stark" target="_blank">
<text text-anchor="start" x="787.5" y="-822.3" font-family="Times,serif" font-size="14.00">Jocelyn Stark</text>
<text text-anchor="start" x="811" y="-807.3" font-family="Times,serif" font-size="14.00">???&#45;???</text>
</a>
</g>
<g><a xlink:href="/character/display?id=Jocelyn_Stark" xlink:title="Jocelyn Stark" target="_blank">
</a>
</g>
</g>
<!-- 191+190 -->
<g id="node48" class="node"><title>191+190</title>
<ellipse fill="black" stroke="black" cx="971" cy="-655" rx="1.8" ry="1.8"/>
</g>
<!-- 190&#45;&gt;191+190 -->
<g id="edge20" class="edge"><title>190&#45;&gt;191+190</title>
<path fill="none" stroke="black" d="M886.269,-757.677C921.653,-715.217 963.807,-664.632 970.177,-656.987"/>
</g>
<!-- 200 -->
<g id="node12" class="node"><title>200</title>
<g id="a_node12"><a xlink:href="/character/display?id=Brandon_Stark_(son_of_Artos)" xlink:title="Brandon Stark" target="_blank">
<polygon fill="white" stroke="black" points="1581,-884 1451,-884 1451,-754 1581,-754 1581,-884"/>
</a>
</g>
<g id="a_node12_11"><a xlink:href="http://awoiaf.westeros.org/index.php/Brandon_Stark_(son_of_Artos)" xlink:title="Brandon Stark" target="_blank">
<text text-anchor="start" x="1463.5" y="-822.3" font-family="Times,serif" font-size="14.00">Brandon Stark</text>
<text text-anchor="start" x="1491" y="-807.3" font-family="Times,serif" font-size="14.00">???&#45;???</text>
</a>
</g>
<g><a xlink:href="/character/display?id=Brandon_Stark_(son_of_Artos)" xlink:title="Brandon Stark" target="_blank">
</a>
</g>
</g>
<!-- 201 -->
<g id="node13" class="node"><title>201</title>
<g id="a_node13"><a xlink:href="/character/display?id=Benjen_Stark_(son_of_Artos)" xlink:title="Benjen Stark" target="_blank">
<polygon fill="white" stroke="black" points="1432.25,-878.5 1313.75,-878.5 1313.75,-759.5 1432.25,-759.5 1432.25,-878.5"/>
</a>
</g>
<g id="a_node13_12"><a xlink:href="http://awoiaf.westeros.org/index.php/Benjen_Stark_(son_of_Artos)" xlink:title="Benjen Stark" target="_blank">
<text text-anchor="start" x="1326.5" y="-822.3" font-family="Times,serif" font-size="14.00">Benjen Stark</text>
<text text-anchor="start" x="1348.5" y="-807.3" font-family="Times,serif" font-size="14.00">???&#45;???</text>
</a>
</g>
<g><a xlink:href="/character/display?id=Benjen_Stark_(son_of_Artos)" xlink:title="Benjen Stark" target="_blank">
</a>
</g>
</g>
<!-- 11 -->
<g id="node14" class="node"><title>11</title>
<g id="a_node14"><a xlink:href="/character/display?id=Lyarra_Stark" xlink:title="Lyarra Stark" target="_blank">
<polygon fill="white" stroke="black" points="1271.25,-713.5 1154.75,-713.5 1154.75,-596.5 1271.25,-596.5 1271.25,-713.5"/>
</a>
</g>
<g id="a_node14_13"><a xlink:href="http://awoiaf.westeros.org/index.php/Lyarra_Stark" xlink:title="Lyarra Stark" target="_blank">
<text text-anchor="start" x="1167.5" y="-658.3" font-family="Times,serif" font-size="14.00">Lyarra Stark</text>
<text text-anchor="start" x="1188.5" y="-643.3" font-family="Times,serif" font-size="14.00">???&#45;???</text>
</a>
</g>
<g><a xlink:href="/character/display?id=Lyarra_Stark" xlink:title="Lyarra Stark" target="_blank">
</a>
</g>
</g>
<!-- 10+11 -->
<g id="node44" class="node"><title>10+11</title>
<ellipse fill="black" stroke="black" cx="942" cy="-396" rx="1.8" ry="1.8"/>
</g>
<!-- 11&#45;&gt;10+11 -->
<g id="edge12" class="edge"><title>11&#45;&gt;10+11</title>
<path fill="none" stroke="black" d="M1208.84,-596.437C1202.02,-546.044 1184.08,-474.698 1137,-434 1105.72,-406.958 961.703,-398.1 943.823,-397.099"/>
</g>
<!-- 207 -->
<g id="node15" class="node"><title>207</title>
<g id="a_node15"><a xlink:href="/character/display?id=Branda_Stark" xlink:title="Branda Stark" target="_blank">
<polygon fill="white" stroke="black" points="1036.25,-879.5 915.75,-879.5 915.75,-758.5 1036.25,-758.5 1036.25,-879.5"/>
</a>
</g>
<g id="a_node15_14"><a xlink:href="http://awoiaf.westeros.org/index.php/Branda_Stark" xlink:title="Branda Stark" target="_blank">
<text text-anchor="start" x="928.5" y="-822.3" font-family="Times,serif" font-size="14.00">Branda Stark</text>
<text text-anchor="start" x="951.5" y="-807.3" font-family="Times,serif" font-size="14.00">???&#45;???</text>
</a>
</g>
<g><a xlink:href="/character/display?id=Branda_Stark" xlink:title="Branda Stark" target="_blank">
</a>
</g>
</g>
<!-- 10 -->
<g id="node16" class="node"><title>10</title>
<g id="a_node16"><a xlink:href="/character/display?id=Rickard_Stark" xlink:title="Rickard Stark" target="_blank">
<polygon fill="white" stroke="black" points="783.25,-559.5 658.75,-559.5 658.75,-434.5 783.25,-434.5 783.25,-559.5"/>
</a>
</g>
<g id="a_node16_15"><a xlink:href="http://awoiaf.westeros.org/index.php/Rickard_Stark" xlink:title="Rickard Stark" target="_blank">
<text text-anchor="start" x="671.5" y="-500.3" font-family="Times,serif" font-size="14.00">Rickard Stark</text>
<text text-anchor="start" x="692" y="-485.3" font-family="Times,serif" font-size="14.00">230&#45;282</text>
</a>
</g>
<g><a xlink:href="/character/display?id=Rickard_Stark" xlink:title="Rickard Stark" target="_blank">
</a>
</g>
</g>
<!-- 10&#45;&gt;10+11 -->
<g id="edge11" class="edge"><title>10&#45;&gt;10+11</title>
<path fill="none" stroke="black" d="M783.311,-445.672C790.079,-441.368 797.042,-437.376 804,-434 856.666,-408.445 929.509,-398.562 940.569,-397.174"/>
</g>
<!-- 192 -->
<g id="node17" class="node"><title>192</title>
<g id="a_node17"><a xlink:title="Daughter" target="_blank">
<polygon fill="white" stroke="black" points="1128.25,-543.5 1035.75,-543.5 1035.75,-450.5 1128.25,-450.5 1128.25,-543.5"/>
<text text-anchor="start" x="1048.5" y="-500.3" font-family="Times,serif" font-size="14.00">Daughter</text>
<text text-anchor="start" x="1057.5" y="-485.3" font-family="Times,serif" font-size="14.00">???&#45;???</text>
</a>
</g>
</g>
<!-- 194 -->
<g id="node18" class="node"><title>194</title>
<g id="a_node18"><a xlink:title="Daughter" target="_blank">
<polygon fill="white" stroke="black" points="906.25,-543.5 813.75,-543.5 813.75,-450.5 906.25,-450.5 906.25,-543.5"/>
<text text-anchor="start" x="826.5" y="-500.3" font-family="Times,serif" font-size="14.00">Daughter</text>
<text text-anchor="start" x="835.5" y="-485.3" font-family="Times,serif" font-size="14.00">???&#45;???</text>
</a>
</g>
</g>
<!-- 196 -->
<g id="node19" class="node"><title>196</title>
<g id="a_node19"><a xlink:title="Daughter" target="_blank">
<polygon fill="white" stroke="black" points="1017.25,-543.5 924.75,-543.5 924.75,-450.5 1017.25,-450.5 1017.25,-543.5"/>
<text text-anchor="start" x="937.5" y="-500.3" font-family="Times,serif" font-size="14.00">Daughter</text>
<text text-anchor="start" x="946.5" y="-485.3" font-family="Times,serif" font-size="14.00">???&#45;???</text>
</a>
</g>
</g>
<!-- 1 -->
<g id="node20" class="node"><title>1</title>
<g id="a_node20"><a xlink:href="/character/display?id=Eddard_Stark" xlink:title="Eddard Stark" target="_blank">
<polygon fill="white" stroke="black" points="1285,-343 1163,-343 1163,-221 1285,-221 1285,-343"/>
</a>
</g>
<g id="a_node20_19"><a xlink:href="http://awoiaf.westeros.org/index.php/Eddard_Stark" xlink:title="Eddard Stark" target="_blank">
<text text-anchor="start" x="1175.5" y="-285.3" font-family="Times,serif" font-size="14.00">Eddard Stark</text>
<text text-anchor="start" x="1194.5" y="-270.3" font-family="Times,serif" font-size="14.00">263&#45;299</text>
</a>
</g>
<g><a xlink:href="/character/display?id=Eddard_Stark" xlink:title="Eddard Stark" target="_blank">
</a>
</g>
</g>
<!-- 1+2 -->
<g id="node45" class="node"><title>1+2</title>
<ellipse fill="black" stroke="black" cx="966" cy="-168" rx="1.8" ry="1.8"/>
</g>
<!-- 1&#45;&gt;1+2 -->
<g id="edge13" class="edge"><title>1&#45;&gt;1+2</title>
<path fill="none" stroke="black" d="M1174.84,-220.785C1168.31,-215.166 1161.32,-210.065 1154,-206 1084.79,-167.551 981.776,-168.613 967.631,-168.953"/>
</g>
<!-- 1+9 -->
<g id="node46" class="node"><title>1+9</title>
<ellipse fill="black" stroke="black" cx="1368" cy="-168" rx="1.8" ry="1.8"/>
</g>
<!-- 1&#45;&gt;1+9 -->
<g id="edge15" class="edge"><title>1&#45;&gt;1+9</title>
<path fill="none" stroke="black" stroke-dasharray="5,2" d="M1276.4,-220.781C1282.1,-215.505 1288.01,-210.478 1294,-206 1320.23,-186.396 1358.44,-172.363 1366.48,-169.528"/>
</g>
<!-- 14 -->
<g id="node21" class="node"><title>14</title>
<g id="a_node21"><a xlink:href="/character/display?id=Lyanna_Stark" xlink:title="Lyanna Stark" target="_blank">
<polygon fill="white" stroke="black" points="1145,-343 1023,-343 1023,-221 1145,-221 1145,-343"/>
</a>
</g>
<g id="a_node21_20"><a xlink:href="http://awoiaf.westeros.org/index.php/Lyanna_Stark" xlink:title="Lyanna Stark" target="_blank">
<text text-anchor="start" x="1035.5" y="-285.3" font-family="Times,serif" font-size="14.00">Lyanna Stark</text>
<text text-anchor="start" x="1054.5" y="-270.3" font-family="Times,serif" font-size="14.00">266&#45;283</text>
</a>
</g>
<g><a xlink:href="/character/display?id=Lyanna_Stark" xlink:title="Lyanna Stark" target="_blank">
</a>
</g>
</g>
<!-- 15 -->
<g id="node22" class="node"><title>15</title>
<g id="a_node22"><a xlink:href="/character/display?id=Benjen_Stark" xlink:title="Benjen Stark" target="_blank">
<polygon fill="white" stroke="black" points="716.25,-341.5 597.75,-341.5 597.75,-222.5 716.25,-222.5 716.25,-341.5"/>
</a>
</g>
<g id="a_node22_21"><a xlink:href="http://awoiaf.westeros.org/index.php/Benjen_Stark" xlink:title="Benjen Stark" target="_blank">
<text text-anchor="start" x="610.5" y="-285.3" font-family="Times,serif" font-size="14.00">Benjen Stark</text>
<text text-anchor="start" x="641.5" y="-270.3" font-family="Times,serif" font-size="14.00">267&#45;</text>
</a>
</g>
<g><a xlink:href="/character/display?id=Benjen_Stark" xlink:title="Benjen Stark" target="_blank">
</a>
</g>
</g>
<!-- 16 -->
<g id="node23" class="node"><title>16</title>
<g id="a_node23"><a xlink:href="/character/display?id=Brandon_Stark" xlink:title="Brandon Stark" target="_blank">
<polygon fill="white" stroke="black" points="865,-347 735,-347 735,-217 865,-217 865,-347"/>
</a>
</g>
<g id="a_node23_22"><a xlink:href="http://awoiaf.westeros.org/index.php/Brandon_Stark" xlink:title="Brandon Stark" target="_blank">
<text text-anchor="start" x="747.5" y="-285.3" font-family="Times,serif" font-size="14.00">Brandon Stark</text>
<text text-anchor="start" x="770.5" y="-270.3" font-family="Times,serif" font-size="14.00">262&#45;282</text>
</a>
</g>
<g><a xlink:href="/character/display?id=Brandon_Stark" xlink:title="Brandon Stark" target="_blank">
</a>
</g>
</g>
<!-- 3 -->
<g id="node24" class="node"><title>3</title>
<g id="a_node24"><a xlink:href="/character/display?id=Robb_Stark" xlink:title="Robb Stark" target="_blank">
<polygon fill="white" stroke="black" points="1292.5,-118 1187.5,-118 1187.5,-12 1292.5,-12 1292.5,-118"/>
</a>
</g>
<g id="a_node24_23"><a xlink:href="http://awoiaf.westeros.org/index.php/Robb_Stark" xlink:title="Robb Stark" target="_blank">
<text text-anchor="start" x="1199.5" y="-68.3" font-family="Times,serif" font-size="14.00">Robb Stark</text>
<text text-anchor="start" x="1210.5" y="-53.3" font-family="Times,serif" font-size="14.00">283&#45;299</text>
</a>
</g>
<g><a xlink:href="/character/display?id=Robb_Stark" xlink:title="Robb Stark" target="_blank">
</a>
</g>
</g>
<!-- 4 -->
<g id="node25" class="node"><title>4</title>
<g id="a_node25"><a xlink:href="/character/display?id=Sansa_Stark" xlink:title="Sansa Stark" target="_blank">
<polygon fill="white" stroke="black" points="761.25,-120.5 650.75,-120.5 650.75,-9.5 761.25,-9.5 761.25,-120.5"/>
</a>
</g>
<g id="a_node25_24"><a xlink:href="http://awoiaf.westeros.org/index.php/Sansa_Stark" xlink:title="Sansa Stark" target="_blank">
<text text-anchor="start" x="663.5" y="-68.3" font-family="Times,serif" font-size="14.00">Sansa Stark</text>
<text text-anchor="start" x="690.5" y="-53.3" font-family="Times,serif" font-size="14.00">286&#45;</text>
</a>
</g>
<g><a xlink:href="/character/display?id=Sansa_Stark" xlink:title="Sansa Stark" target="_blank">
</a>
</g>
</g>
<!-- 5 -->
<g id="node26" class="node"><title>5</title>
<g id="a_node26"><a xlink:href="/character/display?id=Arya_Stark" xlink:title="Arya Stark" target="_blank">
<polygon fill="white" stroke="black" points="882.25,-116.5 779.75,-116.5 779.75,-13.5 882.25,-13.5 882.25,-116.5"/>
</a>
</g>
<g id="a_node26_25"><a xlink:href="http://awoiaf.westeros.org/index.php/Arya_Stark" xlink:title="Arya Stark" target="_blank">
<text text-anchor="start" x="792.5" y="-68.3" font-family="Times,serif" font-size="14.00">Arya Stark</text>
<text text-anchor="start" x="815.5" y="-53.3" font-family="Times,serif" font-size="14.00">289&#45;</text>
</a>
</g>
<g><a xlink:href="/character/display?id=Arya_Stark" xlink:title="Arya Stark" target="_blank">
</a>
</g>
</g>
<!-- 6 -->
<g id="node27" class="node"><title>6</title>
<g id="a_node27"><a xlink:href="/character/display?id=Bran_Stark" xlink:title="Brandon Stark" target="_blank">
<polygon fill="white" stroke="black" points="1031,-130 901,-130 901,-0 1031,-0 1031,-130"/>
</a>
</g>
<g id="a_node27_26"><a xlink:href="http://awoiaf.westeros.org/index.php/Bran_Stark" xlink:title="Brandon Stark" target="_blank">
<text text-anchor="start" x="913.5" y="-68.3" font-family="Times,serif" font-size="14.00">Brandon Stark</text>
<text text-anchor="start" x="950" y="-53.3" font-family="Times,serif" font-size="14.00">290&#45;</text>
</a>
</g>
<g><a xlink:href="/character/display?id=Bran_Stark" xlink:title="Brandon Stark" target="_blank">
</a>
</g>
</g>
<!-- 7 -->
<g id="node28" class="node"><title>7</title>
<g id="a_node28"><a xlink:href="/character/display?id=Rickon_Stark" xlink:title="Rickon Stark" target="_blank">
<polygon fill="white" stroke="black" points="1168.25,-124.5 1049.75,-124.5 1049.75,-5.5 1168.25,-5.5 1168.25,-124.5"/>
</a>
</g>
<g id="a_node28_27"><a xlink:href="http://awoiaf.westeros.org/index.php/Rickon_Stark" xlink:title="Rickon Stark" target="_blank">
<text text-anchor="start" x="1062.5" y="-68.3" font-family="Times,serif" font-size="14.00">Rickon Stark</text>
<text text-anchor="start" x="1093.5" y="-53.3" font-family="Times,serif" font-size="14.00">295&#45;</text>
</a>
</g>
<g><a xlink:href="/character/display?id=Rickon_Stark" xlink:title="Rickon Stark" target="_blank">
</a>
</g>
</g>
<!-- 8 -->
<g id="node29" class="node"><title>8</title>
<g id="a_node29"><a xlink:href="/character/display?id=Jon_Snow" xlink:title="Jon Snow" target="_blank">
<polygon fill="white" stroke="black" points="1414,-111 1322,-111 1322,-19 1414,-19 1414,-111"/>
</a>
</g>
<g id="a_node29_28"><a xlink:href="http://awoiaf.westeros.org/index.php/Jon_Snow" xlink:title="Jon Snow" target="_blank">
<text text-anchor="start" x="1334.5" y="-68.3" font-family="Times,serif" font-size="14.00">Jon Snow</text>
<text text-anchor="start" x="1352" y="-53.3" font-family="Times,serif" font-size="14.00">283&#45;</text>
</a>
</g>
<g><a xlink:href="/character/display?id=Jon_Snow" xlink:title="Jon Snow" target="_blank">
</a>
</g>
</g>
<!-- 180 -->
<g id="node30" class="node"><title>180</title>
<g id="a_node30"><a xlink:href="/character/display?id=Beron_Stark" xlink:title="Beron Stark" target="_blank">
<polygon fill="white" stroke="black" points="755.5,-1329 644.5,-1329 644.5,-1217 755.5,-1217 755.5,-1329"/>
</a>
</g>
<g id="a_node30_29"><a xlink:href="http://awoiaf.westeros.org/index.php/Beron_Stark" xlink:title="Beron Stark" target="_blank">
<text text-anchor="start" x="656.5" y="-1276.3" font-family="Times,serif" font-size="14.00">Beron Stark</text>
<text text-anchor="start" x="675" y="-1261.3" font-family="Times,serif" font-size="14.00">???&#45;???</text>
</a>
</g>
<g><a xlink:href="/character/display?id=Beron_Stark" xlink:title="Beron Stark" target="_blank">
</a>
</g>
</g>
<!-- 180&#45;&gt;180+181 -->
<g id="edge17" class="edge"><title>180&#45;&gt;180+181</title>
<path fill="none" stroke="black" d="M660.845,-1216.83C648.409,-1199.3 637.183,-1183.48 634.571,-1179.8"/>
</g>
<!-- 185 -->
<g id="node31" class="node"><title>185</title>
<g id="a_node31"><a xlink:href="/character/display?id=Lyanne_Glover" xlink:title="Lyanne Glover" target="_blank">
<polygon fill="white" stroke="black" points="416,-1117 286,-1117 286,-987 416,-987 416,-1117"/>
</a>
</g>
<g id="a_node31_30"><a xlink:href="http://awoiaf.westeros.org/index.php/Lyanne_Glover" xlink:title="Lyanne Glover" target="_blank">
<text text-anchor="start" x="298.5" y="-1055.3" font-family="Times,serif" font-size="14.00">Lyanne Glover</text>
<text text-anchor="start" x="326" y="-1040.3" font-family="Times,serif" font-size="14.00">???&#45;???</text>
</a>
</g>
<g><a xlink:href="/character/display?id=Lyanne_Glover" xlink:title="Lyanne Glover" target="_blank">
</a>
</g>
</g>
<!-- 185&#45;&gt;184+185 -->
<g id="edge2" class="edge"><title>185&#45;&gt;184+185</title>
<path fill="none" stroke="black" d="M361.351,-986.821C365.622,-960.346 369.806,-934.402 370.786,-928.329"/>
</g>
<!-- 187 -->
<g id="node32" class="node"><title>187</title>
<g id="a_node32"><a xlink:href="/character/display?id=Melantha_Blackwood" xlink:title="Melantha Blackwood" target="_blank">
<polygon fill="white" stroke="black" points="887.5,-1140 712.5,-1140 712.5,-964 887.5,-964 887.5,-1140"/>
</a>
</g>
<g id="a_node32_31"><a xlink:href="http://awoiaf.westeros.org/index.php/Melantha_Blackwood" xlink:title="Melantha Blackwood" target="_blank">
<text text-anchor="start" x="724.5" y="-1055.3" font-family="Times,serif" font-size="14.00">Melantha Blackwood</text>
<text text-anchor="start" x="775" y="-1040.3" font-family="Times,serif" font-size="14.00">???&#45;???</text>
</a>
</g>
<g><a xlink:href="/character/display?id=Melantha_Blackwood" xlink:title="Melantha Blackwood" target="_blank">
</a>
</g>
</g>
<!-- 187&#45;&gt;184+187 -->
<g id="edge4" class="edge"><title>187&#45;&gt;184+187</title>
<path fill="none" stroke="black" d="M739.57,-963.868C727.021,-945.774 716.856,-931.117 714.51,-927.736"/>
</g>
<!-- 199 -->
<g id="node33" class="node"><title>199</title>
<g id="a_node33"><a xlink:href="/character/display?id=Lysara_Karstark" xlink:title="Lysara Karstark" target="_blank">
<polygon fill="white" stroke="black" points="1300,-1123 1158,-1123 1158,-981 1300,-981 1300,-1123"/>
</a>
</g>
<g id="a_node33_32"><a xlink:href="http://awoiaf.westeros.org/index.php/Lysara_Karstark" xlink:title="Lysara Karstark" target="_blank">
<text text-anchor="start" x="1170.5" y="-1055.3" font-family="Times,serif" font-size="14.00">Lysara Karstark</text>
<text text-anchor="start" x="1204" y="-1040.3" font-family="Times,serif" font-size="14.00">???&#45;???</text>
</a>
</g>
<g><a xlink:href="/character/display?id=Lysara_Karstark" xlink:title="Lysara Karstark" target="_blank">
</a>
</g>
</g>
<!-- 199&#45;&gt;198+199 -->
<g id="edge6" class="edge"><title>199&#45;&gt;198+199</title>
<path fill="none" stroke="black" d="M1286.38,-980.914C1293.53,-974.61 1301.12,-968.806 1309,-964 1357.97,-934.15 1431.38,-927.891 1442.55,-927.096"/>
</g>
<!-- 206 -->
<g id="node34" class="node"><title>206</title>
<g id="a_node34"><a xlink:href="/character/display?id=Arya_Flint" xlink:title="Arya Flint" target="_blank">
<polygon fill="white" stroke="black" points="1003.5,-1101 906.5,-1101 906.5,-1003 1003.5,-1003 1003.5,-1101"/>
</a>
</g>
<g id="a_node34_33"><a xlink:href="http://awoiaf.westeros.org/index.php/Arya_Flint" xlink:title="Arya Flint" target="_blank">
<text text-anchor="start" x="918.5" y="-1055.3" font-family="Times,serif" font-size="14.00">Arya Flint</text>
<text text-anchor="start" x="930" y="-1040.3" font-family="Times,serif" font-size="14.00">???&#45;???</text>
</a>
</g>
<g><a xlink:href="/character/display?id=Arya_Flint" xlink:title="Arya Flint" target="_blank">
</a>
</g>
</g>
<!-- 206&#45;&gt;205+206 -->
<g id="edge8" class="edge"><title>206&#45;&gt;205+206</title>
<path fill="none" stroke="black" d="M979.538,-1002.7C995.569,-971.15 1014.13,-934.613 1017.47,-928.039"/>
</g>
<!-- 189 -->
<g id="node35" class="node"><title>189</title>
<g id="a_node35"><a xlink:href="/character/display?id=Marna_Locke" xlink:title="Marna Locke" target="_blank">
<polygon fill="white" stroke="black" points="756.25,-879.5 635.75,-879.5 635.75,-758.5 756.25,-758.5 756.25,-879.5"/>
</a>
</g>
<g id="a_node35_34"><a xlink:href="http://awoiaf.westeros.org/index.php/Marna_Locke" xlink:title="Marna Locke" target="_blank">
<text text-anchor="start" x="648.5" y="-822.3" font-family="Times,serif" font-size="14.00">Marna Locke</text>
<text text-anchor="start" x="671.5" y="-807.3" font-family="Times,serif" font-size="14.00">???&#45;???</text>
</a>
</g>
<g><a xlink:href="/character/display?id=Marna_Locke" xlink:title="Marna Locke" target="_blank">
</a>
</g>
</g>
<!-- 189&#45;&gt;188+189 -->
<g id="edge10" class="edge"><title>189&#45;&gt;188+189</title>
<path fill="none" stroke="black" d="M696,-758.137C696,-715.595 696,-664.688 696,-656.994"/>
</g>
<!-- 191 -->
<g id="node36" class="node"><title>191</title>
<g id="a_node36"><a xlink:href="/character/display?id=Benedict_Royce" xlink:title="Benedict Royce" target="_blank">
<polygon fill="white" stroke="black" points="1191.25,-887.5 1054.75,-887.5 1054.75,-750.5 1191.25,-750.5 1191.25,-887.5"/>
</a>
</g>
<g id="a_node36_35"><a xlink:href="http://awoiaf.westeros.org/index.php/Benedict_Royce" xlink:title="Benedict Royce" target="_blank">
<text text-anchor="start" x="1067.5" y="-822.3" font-family="Times,serif" font-size="14.00">Benedict Royce</text>
<text text-anchor="start" x="1098.5" y="-807.3" font-family="Times,serif" font-size="14.00">???&#45;???</text>
</a>
</g>
<g><a xlink:href="/character/display?id=Benedict_Royce" xlink:title="Benedict Royce" target="_blank">
</a>
</g>
</g>
<!-- 191&#45;&gt;191+190 -->
<g id="edge19" class="edge"><title>191&#45;&gt;191+190</title>
<path fill="none" stroke="black" d="M1059.42,-750.236C1021.02,-709.312 978.276,-663.755 971.832,-656.886"/>
</g>
<!-- 2 -->
<g id="node37" class="node"><title>2</title>
<g id="a_node37"><a xlink:href="/character/display?id=Catelyn_Stark" xlink:title="Catelyn Tully" target="_blank">
<polygon fill="white" stroke="black" points="1004.25,-342.5 883.75,-342.5 883.75,-221.5 1004.25,-221.5 1004.25,-342.5"/>
</a>
</g>
<g id="a_node37_36"><a xlink:href="http://awoiaf.westeros.org/index.php/Catelyn_Stark" xlink:title="Catelyn Tully" target="_blank">
<text text-anchor="start" x="896.5" y="-285.3" font-family="Times,serif" font-size="14.00">Catelyn Tully</text>
<text text-anchor="start" x="915" y="-270.3" font-family="Times,serif" font-size="14.00">264&#45;299</text>
</a>
</g>
<g><a xlink:href="/character/display?id=Catelyn_Stark" xlink:title="Catelyn Tully" target="_blank">
</a>
</g>
</g>
<!-- 2&#45;&gt;1+2 -->
<g id="edge14" class="edge"><title>2&#45;&gt;1+2</title>
<path fill="none" stroke="black" d="M955.709,-221.393C960.306,-197.989 964.737,-175.429 965.773,-170.154"/>
</g>
<!-- 9 -->
<g id="node38" class="node"><title>9</title>
<g id="a_node38"><a xlink:title="Unknown Woman" target="_blank">
<polygon fill="white" stroke="black" points="1454.25,-357.5 1303.75,-357.5 1303.75,-206.5 1454.25,-206.5 1454.25,-357.5"/>
<text text-anchor="start" x="1316.5" y="-285.3" font-family="Times,serif" font-size="14.00">Unknown Woman</text>
<text text-anchor="start" x="1354.5" y="-270.3" font-family="Times,serif" font-size="14.00">???&#45;???</text>
</a>
</g>
</g>
<!-- 9&#45;&gt;1+9 -->
<g id="edge16" class="edge"><title>9&#45;&gt;1+9</title>
<path fill="none" stroke="black" stroke-dasharray="5,2" d="M1371.66,-206.294C1369.93,-188.639 1368.47,-173.786 1368.09,-169.958"/>
</g>
<!-- 184+185&#45;&gt;186 -->
<g id="edge28" class="edge"><title>184+185&#45;&gt;186</title>
<path fill="none" stroke="black" d="M371,-923.821C371,-919.36 371,-902.822 371,-884.216"/>
</g>
<!-- 184+187&#45;&gt;188 -->
<g id="edge29" class="edge"><title>184+187&#45;&gt;188</title>
<path fill="none" stroke="black" d="M712.67,-924.645C704.286,-922.365 658.068,-909.215 626,-888 622.326,-885.569 618.676,-882.931 615.084,-880.153"/>
</g>
<!-- 184+187&#45;&gt;190 -->
<g id="edge30" class="edge"><title>184+187&#45;&gt;190</title>
<path fill="none" stroke="black" d="M715.31,-924.146C721.251,-920.254 746.192,-903.705 765,-888 768.275,-885.265 771.588,-882.416 774.9,-879.501"/>
</g>
<!-- 198+199&#45;&gt;200 -->
<g id="edge31" class="edge"><title>198+199&#45;&gt;200</title>
<path fill="none" stroke="black" d="M1444.81,-923.821C1447.87,-919.36 1459.21,-902.822 1471.97,-884.216"/>
</g>
<!-- 198+199&#45;&gt;201 -->
<g id="edge32" class="edge"><title>198+199&#45;&gt;201</title>
<path fill="none" stroke="black" d="M1443.2,-923.821C1439.88,-918.909 1426.66,-899.358 1412.57,-878.525"/>
</g>
<!-- 205+206&#45;&gt;11 -->
<g id="edge33" class="edge"><title>205+206&#45;&gt;11</title>
<path fill="none" stroke="black" d="M1019.75,-924.927C1036.88,-924.178 1174.69,-917.264 1200,-888 1240.97,-840.631 1237.03,-765.392 1227.58,-713.506"/>
</g>
<!-- 205+206&#45;&gt;207 -->
<g id="edge34" class="edge"><title>205+206&#45;&gt;207</title>
<path fill="none" stroke="black" d="M1017.53,-923.821C1015.6,-918.999 1008.03,-900.071 999.868,-879.671"/>
</g>
<!-- 188+189&#45;&gt;10 -->
<g id="edge35" class="edge"><title>188+189&#45;&gt;10</title>
<path fill="none" stroke="black" d="M696.16,-653.004C697.328,-645.712 704.696,-599.735 711.107,-559.732"/>
</g>
<!-- 10+11&#45;&gt;1 -->
<g id="edge39" class="edge"><title>10+11&#45;&gt;1</title>
<path fill="none" stroke="black" d="M943.837,-395.105C959.769,-395.934 1075.81,-400.344 1154,-358 1161.52,-353.929 1168.68,-348.748 1175.35,-343.016"/>
</g>
<!-- 10+11&#45;&gt;14 -->
<g id="edge40" class="edge"><title>10+11&#45;&gt;14</title>
<path fill="none" stroke="black" d="M943.455,-394.454C951.149,-391.526 987.706,-377.093 1013,-358 1019.01,-353.463 1024.96,-348.396 1030.71,-343.095"/>
</g>
<!-- 10+11&#45;&gt;15 -->
<g id="edge41" class="edge"><title>10+11&#45;&gt;15</title>
<path fill="none" stroke="black" d="M940.126,-395.119C923.878,-396.066 805.537,-401.28 726,-358 717.919,-353.602 710.273,-347.897 703.221,-341.596"/>
</g>
<!-- 10+11&#45;&gt;16 -->
<g id="edge42" class="edge"><title>10+11&#45;&gt;16</title>
<path fill="none" stroke="black" d="M940.616,-394.43C933.294,-391.38 898.483,-376.428 874,-358 869.469,-354.59 864.951,-350.906 860.508,-347.064"/>
</g>
<!-- 1+2&#45;&gt;3 -->
<g id="edge43" class="edge"><title>1+2&#45;&gt;3</title>
<path fill="none" stroke="black" d="M967.82,-167.087C983.608,-167.766 1098.63,-171.143 1177,-130 1183.21,-126.739 1189.19,-122.647 1194.82,-118.116"/>
</g>
<!-- 1+2&#45;&gt;4 -->
<g id="edge44" class="edge"><title>1+2&#45;&gt;4</title>
<path fill="none" stroke="black" d="M964.31,-167.048C949.654,-167.393 842.874,-168.495 770,-130 764.998,-127.358 760.137,-124.193 755.477,-120.705"/>
</g>
<!-- 1+2&#45;&gt;5 -->
<g id="edge45" class="edge"><title>1+2&#45;&gt;5</title>
<path fill="none" stroke="black" d="M964.483,-166.468C956.459,-163.607 918.336,-149.466 892,-130 886.569,-125.986 881.203,-121.46 876.039,-116.719"/>
</g>
<!-- 1+2&#45;&gt;6 -->
<g id="edge46" class="edge"><title>1+2&#45;&gt;6</title>
<path fill="none" stroke="black" d="M966,-165.866C966,-161.77 966,-147.089 966,-130.197"/>
</g>
<!-- 1+2&#45;&gt;7 -->
<g id="edge47" class="edge"><title>1+2&#45;&gt;7</title>
<path fill="none" stroke="black" d="M967.496,-166.438C975.413,-163.428 1013.08,-148.646 1040,-130 1043.22,-127.767 1046.45,-125.391 1049.65,-122.917"/>
</g>
<!-- 1+9&#45;&gt;8 -->
<g id="edge48" class="edge"><title>1+9&#45;&gt;8</title>
<path fill="none" stroke="black" stroke-dasharray="5,2" d="M1368,-165.866C1368,-160.274 1368,-134.96 1368,-111.219"/>
</g>
<!-- 180+181&#45;&gt;183 -->
<g id="edge21" class="edge"><title>180+181&#45;&gt;183</title>
<path fill="none" stroke="black" d="M632.56,-1176.48C624.948,-1173.68 588.848,-1159.79 565,-1140 555.453,-1132.08 546.304,-1122.68 537.951,-1113.03"/>
</g>
<!-- 180+181&#45;&gt;184 -->
<g id="edge22" class="edge"><title>180+181&#45;&gt;184</title>
<path fill="none" stroke="black" d="M634,-1175.61C634,-1168.98 634,-1139.8 634,-1111.57"/>
</g>
<!-- 180+181&#45;&gt;198 -->
<g id="edge23" class="edge"><title>180+181&#45;&gt;198</title>
<path fill="none" stroke="black" d="M635.614,-1177.01C673.563,-1177.27 1368.53,-1181.42 1446,-1140 1460.55,-1132.22 1472.66,-1119.51 1482.29,-1106.17"/>
</g>
<!-- 180+181&#45;&gt;202 -->
<g id="edge24" class="edge"><title>180+181&#45;&gt;202</title>
<path fill="none" stroke="black" d="M635.747,-1176.99C671.489,-1176.81 1244.37,-1173.44 1309,-1140 1321.84,-1133.36 1333.08,-1123.14 1342.55,-1112.01"/>
</g>
<!-- 180+181&#45;&gt;203 -->
<g id="edge25" class="edge"><title>180+181&#45;&gt;203</title>
<path fill="none" stroke="black" d="M632.397,-1176.95C603.403,-1176.11 190.206,-1163.62 143,-1140 132.598,-1134.79 123.008,-1127.48 114.396,-1119.28"/>
</g>
<!-- 180+181&#45;&gt;204 -->
<g id="edge26" class="edge"><title>180+181&#45;&gt;204</title>
<path fill="none" stroke="black" d="M632.448,-1177.01C609.708,-1177.08 343.658,-1177.19 277,-1140 263.848,-1132.66 252.433,-1121.57 242.935,-1109.73"/>
</g>
<!-- 180+181&#45;&gt;205 -->
<g id="edge27" class="edge"><title>180+181&#45;&gt;205</title>
<path fill="none" stroke="black" d="M635.641,-1177.02C659.691,-1177.21 941.072,-1178.65 1012,-1140 1025.03,-1132.9 1036.47,-1122.2 1046.09,-1110.7"/>
</g>
<!-- 191+190&#45;&gt;192 -->
<g id="edge36" class="edge"><title>191+190&#45;&gt;192</title>
<path fill="none" stroke="black" d="M971.709,-653.004C977.617,-644.7 1019.22,-586.228 1049.6,-543.541"/>
</g>
<!-- 191+190&#45;&gt;194 -->
<g id="edge37" class="edge"><title>191+190&#45;&gt;194</title>
<path fill="none" stroke="black" d="M970.291,-653.004C964.383,-644.7 922.777,-586.228 892.404,-543.541"/>
</g>
<!-- 191+190&#45;&gt;196 -->
<g id="edge38" class="edge"><title>191+190&#45;&gt;196</title>
<path fill="none" stroke="black" d="M971,-653.004C971,-644.7 971,-586.228 971,-543.541"/>
</g>
</g>
</svg>
