<?xml version="1.0" encoding="UTF-8" standalone="no"?>
<!DOCTYPE svg PUBLIC "-//W3C//DTD SVG 1.1//EN"
 "http://www.w3.org/Graphics/SVG/1.1/DTD/svg11.dtd">
<!-- Generated by graphviz version 2.36.0 (20140111.2315)
 -->
<!-- Title: family Pages: 1 -->
<svg width="356pt" height="734pt"
 viewBox="0.00 0.00 356.00 734.00" xmlns="http://www.w3.org/2000/svg" xmlns:xlink="http://www.w3.org/1999/xlink">
<g id="graph0" class="graph" transform="scale(1 1) rotate(0) translate(4 730)">
<title>family</title>
<polygon fill="white" stroke="none" points="-4,4 -4,-730 352,-730 352,4 -4,4"/>
<!-- 20 -->
<g id="node1" class="node"><title>20</title>
<g id="a_node1"><a xlink:href="/character/display?id=Lysa_Arryn" xlink:title="Lysa Tully" target="_blank">
<polygon fill="white" stroke="black" points="264.25,-295.5 165.75,-295.5 165.75,-196.5 264.25,-196.5 264.25,-295.5"/>
</a>
</g>
<g id="a_node1_0"><a xlink:href="http://awoiaf.westeros.org/index.php/Lysa_Arryn" xlink:title="Lysa Tully" target="_blank">
<text text-anchor="start" x="178.5" y="-249.3" font-family="Times,serif" font-size="14.00">Lysa Tully</text>
<text text-anchor="start" x="186" y="-234.3" font-family="Times,serif" font-size="14.00">266&#45;300</text>
</a>
</g>
<g><a xlink:href="/character/display?id=Lysa_Arryn" xlink:title="Lysa Tully" target="_blank">
</a>
</g>
</g>
<!-- 22+20 -->
<g id="node10" class="node"><title>22+20</title>
<ellipse fill="black" stroke="black" cx="157" cy="-158" rx="1.8" ry="1.8"/>
</g>
<!-- 20&#45;&gt;22+20 -->
<g id="edge6" class="edge"><title>20&#45;&gt;22+20</title>
<path fill="none" stroke="black" d="M182.271,-196.471C170.759,-179.402 160.045,-163.515 157.546,-159.81"/>
</g>
<!-- 12 -->
<g id="node2" class="node"><title>12</title>
<g id="a_node2"><a xlink:href="/character/display?id=Hoster_Tully" xlink:title="Hoster Tully" target="_blank">
<polygon fill="white" stroke="black" points="203.25,-492.5 88.75,-492.5 88.75,-377.5 203.25,-377.5 203.25,-492.5"/>
</a>
</g>
<g id="a_node2_1"><a xlink:href="http://awoiaf.westeros.org/index.php/Hoster_Tully" xlink:title="Hoster Tully" target="_blank">
<text text-anchor="start" x="101.5" y="-438.3" font-family="Times,serif" font-size="14.00">Hoster Tully</text>
<text text-anchor="start" x="117" y="-423.3" font-family="Times,serif" font-size="14.00">237&#45;299</text>
</a>
</g>
<g><a xlink:href="/character/display?id=Hoster_Tully" xlink:title="Hoster Tully" target="_blank">
</a>
</g>
</g>
<!-- 12+13 -->
<g id="node8" class="node"><title>12+13</title>
<ellipse fill="black" stroke="black" cx="215" cy="-334" rx="1.8" ry="1.8"/>
</g>
<!-- 12&#45;&gt;12+13 -->
<g id="edge1" class="edge"><title>12&#45;&gt;12+13</title>
<path fill="none" stroke="black" d="M185.538,-377.272C199.028,-357.917 211.467,-340.069 214.366,-335.909"/>
</g>
<!-- 13 -->
<g id="node3" class="node"><title>13</title>
<g id="a_node3"><a xlink:href="/character/display?id=Minisa_Whent" xlink:title="Minisa Whent" target="_blank">
<polygon fill="white" stroke="black" points="348,-498 222,-498 222,-372 348,-372 348,-498"/>
</a>
</g>
<g id="a_node3_2"><a xlink:href="http://awoiaf.westeros.org/index.php/Minisa_Whent" xlink:title="Minisa Whent" target="_blank">
<text text-anchor="start" x="234.5" y="-438.3" font-family="Times,serif" font-size="14.00">Minisa Whent</text>
<text text-anchor="start" x="255.5" y="-423.3" font-family="Times,serif" font-size="14.00">250&#45;268</text>
</a>
</g>
<g><a xlink:href="/character/display?id=Minisa_Whent" xlink:title="Minisa Whent" target="_blank">
</a>
</g>
</g>
<!-- 13&#45;&gt;12+13 -->
<g id="edge2" class="edge"><title>13&#45;&gt;12+13</title>
<path fill="none" stroke="black" d="M241.065,-371.864C228.759,-354.46 218.033,-339.289 215.543,-335.768"/>
</g>
<!-- 105 -->
<g id="node4" class="node"><title>105</title>
<g id="a_node4"><a xlink:title="Unknown Tully" target="_blank">
<polygon fill="white" stroke="black" points="132.25,-716.5 -0.25,-716.5 -0.25,-583.5 132.25,-583.5 132.25,-716.5"/>
<text text-anchor="start" x="12.5" y="-653.3" font-family="Times,serif" font-size="14.00">Unknown Tully</text>
<text text-anchor="start" x="41.5" y="-638.3" font-family="Times,serif" font-size="14.00">???&#45;???</text>
</a>
</g>
</g>
<!-- 105+106 -->
<g id="node9" class="node"><title>105+106</title>
<ellipse fill="black" stroke="black" cx="146" cy="-536" rx="1.8" ry="1.8"/>
</g>
<!-- 105&#45;&gt;105+106 -->
<g id="edge3" class="edge"><title>105&#45;&gt;105+106</title>
<path fill="none" stroke="black" d="M112.999,-583.201C128.236,-561.869 142.075,-542.495 145.296,-537.985"/>
</g>
<!-- 106 -->
<g id="node5" class="node"><title>106</title>
<g id="a_node5"><a xlink:title="Unknown Woman" target="_blank">
<polygon fill="white" stroke="black" points="301.25,-725.5 150.75,-725.5 150.75,-574.5 301.25,-574.5 301.25,-725.5"/>
<text text-anchor="start" x="163.5" y="-653.3" font-family="Times,serif" font-size="14.00">Unknown Woman</text>
<text text-anchor="start" x="201.5" y="-638.3" font-family="Times,serif" font-size="14.00">???&#45;???</text>
</a>
</g>
</g>
<!-- 106&#45;&gt;105+106 -->
<g id="edge4" class="edge"><title>106&#45;&gt;105+106</title>
<path fill="none" stroke="black" d="M172.639,-574.294C159.798,-556.318 149.033,-541.247 146.543,-537.76"/>
</g>
<!-- 23 -->
<g id="node6" class="node"><title>23</title>
<g id="a_node6"><a xlink:href="/character/display?id=Robert_Arryn" xlink:title="Robert Arryn" target="_blank">
<polygon fill="white" stroke="black" points="216.5,-120 97.5,-120 97.5,-1.42109e-14 216.5,-1.42109e-14 216.5,-120"/>
</a>
</g>
<g id="a_node6_5"><a xlink:href="http://awoiaf.westeros.org/index.php/Robert_Arryn" xlink:title="Robert Arryn" target="_blank">
<text text-anchor="start" x="109.5" y="-63.3" font-family="Times,serif" font-size="14.00">Robert Arryn</text>
<text text-anchor="start" x="141" y="-48.3" font-family="Times,serif" font-size="14.00">292&#45;</text>
</a>
</g>
<g><a xlink:href="/character/display?id=Robert_Arryn" xlink:title="Robert Arryn" target="_blank">
</a>
</g>
</g>
<!-- 22 -->
<g id="node7" class="node"><title>22</title>
<g id="a_node7"><a xlink:href="/character/display?id=Jon_Arryn" xlink:title="Jon Arryn" target="_blank">
<polygon fill="white" stroke="black" points="147.25,-293.5 52.75,-293.5 52.75,-198.5 147.25,-198.5 147.25,-293.5"/>
</a>
</g>
<g id="a_node7_6"><a xlink:href="http://awoiaf.westeros.org/index.php/Jon_Arryn" xlink:title="Jon Arryn" target="_blank">
<text text-anchor="start" x="65.5" y="-249.3" font-family="Times,serif" font-size="14.00">Jon Arryn</text>
<text text-anchor="start" x="71" y="-234.3" font-family="Times,serif" font-size="14.00">217&#45;298</text>
</a>
</g>
<g><a xlink:href="/character/display?id=Jon_Arryn" xlink:title="Jon Arryn" target="_blank">
</a>
</g>
</g>
<!-- 22&#45;&gt;22+20 -->
<g id="edge5" class="edge"><title>22&#45;&gt;22+20</title>
<path fill="none" stroke="black" d="M130.836,-198.476C142.587,-180.746 153.806,-163.82 156.427,-159.865"/>
</g>
<!-- 12+13&#45;&gt;20 -->
<g id="edge7" class="edge"><title>12+13&#45;&gt;20</title>
<path fill="none" stroke="black" d="M215,-332.034C215,-328.085 215,-312.582 215,-295.873"/>
</g>
<!-- 105+106&#45;&gt;12 -->
<g id="edge8" class="edge"><title>105+106&#45;&gt;12</title>
<path fill="none" stroke="black" d="M146,-533.888C146,-529.363 146,-511.662 146,-492.53"/>
</g>
<!-- 22+20&#45;&gt;23 -->
<g id="edge9" class="edge"><title>22+20&#45;&gt;23</title>
<path fill="none" stroke="black" d="M157,-155.922C157,-151.884 157,-137.028 157,-120.227"/>
</g>
</g>
</svg>
