<?xml version="1.0" encoding="UTF-8" standalone="no"?>
<!DOCTYPE svg PUBLIC "-//W3C//DTD SVG 1.1//EN"
 "http://www.w3.org/Graphics/SVG/1.1/DTD/svg11.dtd">
<!-- Generated by graphviz version 2.36.0 (20140111.2315)
 -->
<!-- Title: family Pages: 1 -->
<svg width="810pt" height="824pt"
 viewBox="0.00 0.00 810.00 824.00" xmlns="http://www.w3.org/2000/svg" xmlns:xlink="http://www.w3.org/1999/xlink">
<g id="graph0" class="graph" transform="scale(1 1) rotate(0) translate(4 820)">
<title>family</title>
<polygon fill="white" stroke="none" points="-4,4 -4,-820 806,-820 806,4 -4,4"/>
<!-- 109 -->
<g id="node1" class="node"><title>109</title>
<g id="a_node1"><a xlink:title="Unknown Martell" target="_blank">
<polygon fill="white" stroke="black" points="266.25,-815.5 115.75,-815.5 115.75,-664.5 266.25,-664.5 266.25,-815.5"/>
<text text-anchor="start" x="128.5" y="-743.3" font-family="Times,serif" font-size="14.00">Unknown Martell</text>
<text text-anchor="start" x="166.5" y="-728.3" font-family="Times,serif" font-size="14.00">???&#45;???</text>
</a>
</g>
</g>
<!-- 109+110 -->
<g id="node15" class="node"><title>109+110</title>
<ellipse fill="black" stroke="black" cx="275" cy="-626" rx="1.8" ry="1.8"/>
</g>
<!-- 109&#45;&gt;109+110 -->
<g id="edge1" class="edge"><title>109&#45;&gt;109+110</title>
<path fill="none" stroke="black" d="M247.029,-664.294C260.512,-646.318 271.815,-631.247 274.43,-627.76"/>
</g>
<!-- 110 -->
<g id="node2" class="node"><title>110</title>
<g id="a_node2"><a xlink:title="Unknown Woman" target="_blank">
<polygon fill="white" stroke="black" points="435.25,-815.5 284.75,-815.5 284.75,-664.5 435.25,-664.5 435.25,-815.5"/>
<text text-anchor="start" x="297.5" y="-743.3" font-family="Times,serif" font-size="14.00">Unknown Woman</text>
<text text-anchor="start" x="335.5" y="-728.3" font-family="Times,serif" font-size="14.00">???&#45;???</text>
</a>
</g>
</g>
<!-- 110&#45;&gt;109+110 -->
<g id="edge2" class="edge"><title>110&#45;&gt;109+110</title>
<path fill="none" stroke="black" d="M303.304,-664.294C289.661,-646.318 278.223,-631.247 275.577,-627.76"/>
</g>
<!-- 111 -->
<g id="node3" class="node"><title>111</title>
<g id="a_node3"><a xlink:title="Princess of Dorne" target="_blank">
<polygon fill="white" stroke="black" points="271.25,-587.5 118.75,-587.5 118.75,-434.5 271.25,-434.5 271.25,-587.5"/>
<text text-anchor="start" x="131.5" y="-514.3" font-family="Times,serif" font-size="14.00">Princess of Dorne</text>
<text text-anchor="start" x="170.5" y="-499.3" font-family="Times,serif" font-size="14.00">???&#45;???</text>
</a>
</g>
</g>
<!-- 113+111 -->
<g id="node16" class="node"><title>113+111</title>
<ellipse fill="black" stroke="black" cx="349" cy="-396" rx="1.8" ry="1.8"/>
</g>
<!-- 111&#45;&gt;113+111 -->
<g id="edge4" class="edge"><title>111&#45;&gt;113+111</title>
<path fill="none" stroke="black" d="M271.676,-440.778C274.785,-438.44 277.899,-436.172 281,-434 306.099,-416.42 340.429,-400.805 347.638,-397.6"/>
</g>
<!-- 112 -->
<g id="node4" class="node"><title>112</title>
<g id="a_node4"><a xlink:href="/character/display?id=Lewyn_Matell" xlink:title="Lewyn Martell" target="_blank">
<polygon fill="white" stroke="black" points="420.25,-576.5 289.75,-576.5 289.75,-445.5 420.25,-445.5 420.25,-576.5"/>
</a>
</g>
<g id="a_node4_3"><a xlink:href="http://awoiaf.westeros.org/index.php/Lewyn_Matell" xlink:title="Lewyn Martell" target="_blank">
<text text-anchor="start" x="302.5" y="-514.3" font-family="Times,serif" font-size="14.00">Lewyn Martell</text>
<text text-anchor="start" x="328" y="-499.3" font-family="Times,serif" font-size="14.00">???&#45;283</text>
</a>
</g>
<g><a xlink:href="/character/display?id=Lewyn_Matell" xlink:title="Lewyn Martell" target="_blank">
</a>
</g>
</g>
<!-- 113 -->
<g id="node5" class="node"><title>113</title>
<g id="a_node5"><a xlink:title="Unknown Man" target="_blank">
<polygon fill="white" stroke="black" points="569,-576 439,-576 439,-446 569,-446 569,-576"/>
<text text-anchor="start" x="451.5" y="-514.3" font-family="Times,serif" font-size="14.00">Unknown Man</text>
<text text-anchor="start" x="479" y="-499.3" font-family="Times,serif" font-size="14.00">???&#45;???</text>
</a>
</g>
</g>
<!-- 113&#45;&gt;113+111 -->
<g id="edge3" class="edge"><title>113&#45;&gt;113+111</title>
<path fill="none" stroke="black" d="M444.251,-445.842C439.266,-441.626 434.157,-437.624 429,-434 399.954,-413.586 357.851,-399.785 350.212,-397.376"/>
</g>
<!-- 114 -->
<g id="node6" class="node"><title>114</title>
<g id="a_node6"><a xlink:href="/character/display?id=Doran_Martell" xlink:title="Doran Martell" target="_blank">
<polygon fill="white" stroke="black" points="126.25,-353.5 -0.25,-353.5 -0.25,-226.5 126.25,-226.5 126.25,-353.5"/>
</a>
</g>
<g id="a_node6_5"><a xlink:href="http://awoiaf.westeros.org/index.php/Doran_Martell" xlink:title="Doran Martell" target="_blank">
<text text-anchor="start" x="12.5" y="-293.3" font-family="Times,serif" font-size="14.00">Doran Martell</text>
<text text-anchor="start" x="47.5" y="-278.3" font-family="Times,serif" font-size="14.00">247&#45;</text>
</a>
</g>
<g><a xlink:href="/character/display?id=Doran_Martell" xlink:title="Doran Martell" target="_blank">
</a>
</g>
</g>
<!-- 114+115 -->
<g id="node17" class="node"><title>114+115</title>
<ellipse fill="black" stroke="black" cx="411" cy="-184" rx="1.8" ry="1.8"/>
</g>
<!-- 114&#45;&gt;114+115 -->
<g id="edge5" class="edge"><title>114&#45;&gt;114+115</title>
<path fill="none" stroke="black" d="M126.327,-226.616C129.172,-224.935 132.067,-223.386 135,-222 188.111,-196.909 389.075,-186.114 409.348,-185.082"/>
</g>
<!-- 115 -->
<g id="node7" class="node"><title>115</title>
<g id="a_node7"><a xlink:href="/character/display?id=Mellario" xlink:title="Mellario" target="_blank">
<polygon fill="white" stroke="black" points="802,-333 716,-333 716,-247 802,-247 802,-333"/>
</a>
</g>
<g id="a_node7_6"><a xlink:href="http://awoiaf.westeros.org/index.php/Mellario" xlink:title="Mellario" target="_blank">
<text text-anchor="start" x="728.5" y="-293.3" font-family="Times,serif" font-size="14.00">Mellario</text>
<text text-anchor="start" x="743" y="-278.3" font-family="Times,serif" font-size="14.00">248&#45;</text>
</a>
</g>
<g><a xlink:href="/character/display?id=Mellario" xlink:title="Mellario" target="_blank">
</a>
</g>
</g>
<!-- 115&#45;&gt;114+115 -->
<g id="edge6" class="edge"><title>115&#45;&gt;114+115</title>
<path fill="none" stroke="black" d="M734.404,-246.846C726.82,-237.215 717.62,-228.047 707,-222 652.093,-190.739 432.952,-185.457 412.528,-185.03"/>
</g>
<!-- 116 -->
<g id="node8" class="node"><title>116</title>
<g id="a_node8"><a xlink:href="/character/display?id=Arianne_Martell" xlink:title="Arianne Martell" target="_blank">
<polygon fill="white" stroke="black" points="321,-143 181,-143 181,-3 321,-3 321,-143"/>
</a>
</g>
<g id="a_node8_7"><a xlink:href="http://awoiaf.westeros.org/index.php/Arianne_Martell" xlink:title="Arianne Martell" target="_blank">
<text text-anchor="start" x="193.5" y="-76.3" font-family="Times,serif" font-size="14.00">Arianne Martell</text>
<text text-anchor="start" x="235" y="-61.3" font-family="Times,serif" font-size="14.00">276&#45;</text>
</a>
</g>
<g><a xlink:href="/character/display?id=Arianne_Martell" xlink:title="Arianne Martell" target="_blank">
</a>
</g>
</g>
<!-- 117 -->
<g id="node9" class="node"><title>117</title>
<g id="a_node9"><a xlink:href="/character/display?id=Quentyn_Martell" xlink:title="Quentyn Martell" target="_blank">
<polygon fill="white" stroke="black" points="483,-145 339,-145 339,-1 483,-1 483,-145"/>
</a>
</g>
<g id="a_node9_8"><a xlink:href="http://awoiaf.westeros.org/index.php/Quentyn_Martell" xlink:title="Quentyn Martell" target="_blank">
<text text-anchor="start" x="351.5" y="-76.3" font-family="Times,serif" font-size="14.00">Quentyn Martell</text>
<text text-anchor="start" x="381.5" y="-61.3" font-family="Times,serif" font-size="14.00">281&#45;300</text>
</a>
</g>
<g><a xlink:href="/character/display?id=Quentyn_Martell" xlink:title="Quentyn Martell" target="_blank">
</a>
</g>
</g>
<!-- 118 -->
<g id="node10" class="node"><title>118</title>
<g id="a_node10"><a xlink:href="/character/display?id=Trystane_Martell" xlink:title="Trystane Martell" target="_blank">
<polygon fill="white" stroke="black" points="647,-146 501,-146 501,-0 647,-0 647,-146"/>
</a>
</g>
<g id="a_node10_9"><a xlink:href="http://awoiaf.westeros.org/index.php/Trystane_Martell" xlink:title="Trystane Martell" target="_blank">
<text text-anchor="start" x="513.5" y="-76.3" font-family="Times,serif" font-size="14.00">Trystane Martell</text>
<text text-anchor="start" x="558" y="-61.3" font-family="Times,serif" font-size="14.00">287&#45;</text>
</a>
</g>
<g><a xlink:href="/character/display?id=Trystane_Martell" xlink:title="Trystane Martell" target="_blank">
</a>
</g>
</g>
<!-- 119 -->
<g id="node11" class="node"><title>119</title>
<g id="a_node11"><a xlink:href="/character/display?id=Mors_Martell_(brother_of_Doran)" xlink:title="Mors Martell" target="_blank">
<polygon fill="white" stroke="black" points="265.25,-350.5 144.75,-350.5 144.75,-229.5 265.25,-229.5 265.25,-350.5"/>
</a>
</g>
<g id="a_node11_10"><a xlink:href="http://awoiaf.westeros.org/index.php/Mors_Martell_(brother_of_Doran)" xlink:title="Mors Martell" target="_blank">
<text text-anchor="start" x="157.5" y="-293.3" font-family="Times,serif" font-size="14.00">Mors Martell</text>
<text text-anchor="start" x="176" y="-278.3" font-family="Times,serif" font-size="14.00">248&#45;248</text>
</a>
</g>
<g><a xlink:href="/character/display?id=Mors_Martell_(brother_of_Doran)" xlink:title="Mors Martell" target="_blank">
</a>
</g>
</g>
<!-- 120 -->
<g id="node12" class="node"><title>120</title>
<g id="a_node12"><a xlink:href="/character/display?id=Olyvar_Martell" xlink:title="Olyvar Martell" target="_blank">
<polygon fill="white" stroke="black" points="414.25,-355.5 283.75,-355.5 283.75,-224.5 414.25,-224.5 414.25,-355.5"/>
</a>
</g>
<g id="a_node12_11"><a xlink:href="http://awoiaf.westeros.org/index.php/Olyvar_Martell" xlink:title="Olyvar Martell" target="_blank">
<text text-anchor="start" x="296.5" y="-293.3" font-family="Times,serif" font-size="14.00">Olyvar Martell</text>
<text text-anchor="start" x="320" y="-278.3" font-family="Times,serif" font-size="14.00">248&#45;248</text>
</a>
</g>
<g><a xlink:href="/character/display?id=Olyvar_Martell" xlink:title="Olyvar Martell" target="_blank">
</a>
</g>
</g>
<!-- 121 -->
<g id="node13" class="node"><title>121</title>
<g id="a_node13"><a xlink:href="/character/display?id=Elia_Martell" xlink:title="Elia Martell" target="_blank">
<polygon fill="white" stroke="black" points="543.25,-345.5 432.75,-345.5 432.75,-234.5 543.25,-234.5 543.25,-345.5"/>
</a>
</g>
<g id="a_node13_12"><a xlink:href="http://awoiaf.westeros.org/index.php/Elia_Martell" xlink:title="Elia Martell" target="_blank">
<text text-anchor="start" x="445.5" y="-293.3" font-family="Times,serif" font-size="14.00">Elia Martell</text>
<text text-anchor="start" x="459" y="-278.3" font-family="Times,serif" font-size="14.00">256&#45;283</text>
</a>
</g>
<g><a xlink:href="/character/display?id=Elia_Martell" xlink:title="Elia Martell" target="_blank">
</a>
</g>
</g>
<!-- 122 -->
<g id="node14" class="node"><title>122</title>
<g id="a_node14"><a xlink:href="/character/display?id=Oberyn_Martell" xlink:title="Oberyn Martell" target="_blank">
<polygon fill="white" stroke="black" points="698,-358 562,-358 562,-222 698,-222 698,-358"/>
</a>
</g>
<g id="a_node14_13"><a xlink:href="http://awoiaf.westeros.org/index.php/Oberyn_Martell" xlink:title="Oberyn Martell" target="_blank">
<text text-anchor="start" x="574.5" y="-293.3" font-family="Times,serif" font-size="14.00">Oberyn Martell</text>
<text text-anchor="start" x="600.5" y="-278.3" font-family="Times,serif" font-size="14.00">257&#45;300</text>
</a>
</g>
<g><a xlink:href="/character/display?id=Oberyn_Martell" xlink:title="Oberyn Martell" target="_blank">
</a>
</g>
</g>
<!-- 109+110&#45;&gt;111 -->
<g id="edge7" class="edge"><title>109+110&#45;&gt;111</title>
<path fill="none" stroke="black" d="M274.102,-623.731C271.08,-619.463 260.789,-604.927 248.583,-587.686"/>
</g>
<!-- 109+110&#45;&gt;112 -->
<g id="edge8" class="edge"><title>109+110&#45;&gt;112</title>
<path fill="none" stroke="black" d="M275.898,-623.731C279.555,-618.566 293.859,-598.362 309.319,-576.525"/>
</g>
<!-- 113+111&#45;&gt;114 -->
<g id="edge9" class="edge"><title>113+111&#45;&gt;114</title>
<path fill="none" stroke="black" d="M347.167,-395.068C331.27,-395.586 215.395,-397.864 135,-358 132.093,-356.559 129.222,-354.962 126.396,-353.242"/>
</g>
<!-- 113+111&#45;&gt;119 -->
<g id="edge13" class="edge"><title>113+111&#45;&gt;119</title>
<path fill="none" stroke="black" d="M347.499,-394.446C339.555,-391.474 301.775,-376.857 275,-358 271.699,-355.675 268.402,-353.198 265.137,-350.616"/>
</g>
<!-- 113+111&#45;&gt;120 -->
<g id="edge14" class="edge"><title>113+111&#45;&gt;120</title>
<path fill="none" stroke="black" d="M349,-393.832C349,-389.503 349,-373.691 349,-355.719"/>
</g>
<!-- 113+111&#45;&gt;121 -->
<g id="edge15" class="edge"><title>113+111&#45;&gt;121</title>
<path fill="none" stroke="black" d="M350.514,-394.463C358.523,-391.582 396.578,-377.349 423,-358 428.099,-354.266 433.153,-350.114 438.058,-345.759"/>
</g>
<!-- 113+111&#45;&gt;122 -->
<g id="edge16" class="edge"><title>113+111&#45;&gt;122</title>
<path fill="none" stroke="black" d="M350.728,-395.021C365.721,-395.141 475.043,-394.7 552,-358 555.223,-356.463 558.418,-354.758 561.57,-352.919"/>
</g>
<!-- 114+115&#45;&gt;116 -->
<g id="edge10" class="edge"><title>114+115&#45;&gt;116</title>
<path fill="none" stroke="black" d="M409.787,-182.607C402.136,-180.094 359.927,-165.77 330,-146 327.058,-144.057 324.118,-142.005 321.195,-139.872"/>
</g>
<!-- 114+115&#45;&gt;117 -->
<g id="edge11" class="edge"><title>114+115&#45;&gt;117</title>
<path fill="none" stroke="black" d="M411,-181.776C411,-177.496 411,-162.507 411,-145.011"/>
</g>
<!-- 114+115&#45;&gt;118 -->
<g id="edge12" class="edge"><title>114+115&#45;&gt;118</title>
<path fill="none" stroke="black" d="M412.208,-182.599C419.83,-180.042 461.891,-165.492 492,-146 494.863,-144.147 497.728,-142.198 500.582,-140.177"/>
</g>
</g>
</svg>
