<?xml version="1.0" encoding="UTF-8" standalone="no"?>
<!DOCTYPE svg PUBLIC "-//W3C//DTD SVG 1.1//EN"
 "http://www.w3.org/Graphics/SVG/1.1/DTD/svg11.dtd">
<!-- Generated by graphviz version 2.36.0 (20140111.2315)
 -->
<!-- Title: family Pages: 1 -->
<svg width="756pt" height="788pt"
 viewBox="0.00 0.00 756.00 788.00" xmlns="http://www.w3.org/2000/svg" xmlns:xlink="http://www.w3.org/1999/xlink">
<g id="graph0" class="graph" transform="scale(1 1) rotate(0) translate(4 784)">
<title>family</title>
<polygon fill="white" stroke="none" points="-4,4 -4,-784 752,-784 752,4 -4,4"/>
<!-- 109 -->
<g id="node1" class="node"><title>109</title>
<polygon fill="none" stroke="black" points="248,-780 106,-780 106,-638 248,-638 248,-780"/>
<text text-anchor="middle" x="177" y="-712.8" font-family="Times,serif" font-size="14.00">Unknown Martell</text>
<text text-anchor="middle" x="177" y="-697.8" font-family="Times,serif" font-size="14.00">???&#45;???</text>
</g>
<!-- 109+110 -->
<g id="node15" class="node"><title>109+110</title>
<ellipse fill="black" stroke="black" cx="257" cy="-600" rx="1.8" ry="1.8"/>
</g>
<!-- 109&#45;&gt;109+110 -->
<g id="edge1" class="edge"><title>109&#45;&gt;109+110</title>
<path fill="none" stroke="black" d="M229.469,-637.823C242.663,-620.176 253.846,-605.219 256.435,-601.755"/>
</g>
<!-- 110 -->
<g id="node2" class="node"><title>110</title>
<polygon fill="none" stroke="black" points="408,-780 266,-780 266,-638 408,-638 408,-780"/>
<text text-anchor="middle" x="337" y="-712.8" font-family="Times,serif" font-size="14.00">Unknown Woman</text>
<text text-anchor="middle" x="337" y="-697.8" font-family="Times,serif" font-size="14.00">???&#45;???</text>
</g>
<!-- 110&#45;&gt;109+110 -->
<g id="edge2" class="edge"><title>110&#45;&gt;109+110</title>
<path fill="none" stroke="black" d="M284.531,-637.823C271.337,-620.176 260.154,-605.219 257.565,-601.755"/>
</g>
<!-- 111 -->
<g id="node3" class="node"><title>111</title>
<polygon fill="none" stroke="black" points="254,-562 110,-562 110,-418 254,-418 254,-562"/>
<text text-anchor="middle" x="182" y="-493.8" font-family="Times,serif" font-size="14.00">Princess of Dorne</text>
<text text-anchor="middle" x="182" y="-478.8" font-family="Times,serif" font-size="14.00">???&#45;???</text>
</g>
<!-- 113+111 -->
<g id="node16" class="node"><title>113+111</title>
<ellipse fill="black" stroke="black" cx="327" cy="-380" rx="1.8" ry="1.8"/>
</g>
<!-- 111&#45;&gt;113+111 -->
<g id="edge4" class="edge"><title>111&#45;&gt;113+111</title>
<path fill="none" stroke="black" d="M254.303,-424.438C257.207,-422.224 260.112,-420.07 263,-418 286.783,-400.951 318.968,-384.922 325.724,-381.619"/>
</g>
<!-- 112 -->
<g id="node4" class="node"><title>112</title>
<g id="a_node4"><a xlink:href="http://awoiaf.westeros.org/index.php/Lewyn_Matell" xlink:title="Lewyn Martell\n???&#45;283" target="_blank">
<polygon fill="none" stroke="black" points="394,-551 272,-551 272,-429 394,-429 394,-551"/>
<text text-anchor="middle" x="333" y="-493.8" font-family="Times,serif" font-size="14.00">Lewyn Martell</text>
<text text-anchor="middle" x="333" y="-478.8" font-family="Times,serif" font-size="14.00">???&#45;283</text>
</a>
</g>
</g>
<!-- 113 -->
<g id="node5" class="node"><title>113</title>
<polygon fill="none" stroke="black" points="533.25,-550.5 412.75,-550.5 412.75,-429.5 533.25,-429.5 533.25,-550.5"/>
<text text-anchor="middle" x="473" y="-493.8" font-family="Times,serif" font-size="14.00">Unknown Man</text>
<text text-anchor="middle" x="473" y="-478.8" font-family="Times,serif" font-size="14.00">???&#45;???</text>
</g>
<!-- 113&#45;&gt;113+111 -->
<g id="edge3" class="edge"><title>113&#45;&gt;113+111</title>
<path fill="none" stroke="black" d="M417.161,-429.169C412.526,-425.206 407.78,-421.433 403,-418 375.346,-398.141 335.397,-383.889 328.149,-381.391"/>
</g>
<!-- 114 -->
<g id="node6" class="node"><title>114</title>
<g id="a_node6"><a xlink:href="http://awoiaf.westeros.org/index.php/Doran_Martell" xlink:title="Doran Martell\n247&#45;" target="_blank">
<polygon fill="none" stroke="black" points="118,-337 0,-337 0,-219 118,-219 118,-337"/>
<text text-anchor="middle" x="59" y="-281.8" font-family="Times,serif" font-size="14.00">Doran Martell</text>
<text text-anchor="middle" x="59" y="-266.8" font-family="Times,serif" font-size="14.00">247&#45;</text>
</a>
</g>
</g>
<!-- 114+115 -->
<g id="node17" class="node"><title>114+115</title>
<ellipse fill="black" stroke="black" cx="384" cy="-176" rx="1.8" ry="1.8"/>
</g>
<!-- 114&#45;&gt;114+115 -->
<g id="edge5" class="edge"><title>114&#45;&gt;114+115</title>
<path fill="none" stroke="black" d="M117.991,-218.881C120.942,-217.095 123.95,-215.455 127,-214 176.23,-190.515 362.044,-178.368 382.22,-177.109"/>
</g>
<!-- 115 -->
<g id="node7" class="node"><title>115</title>
<g id="a_node7"><a xlink:href="http://awoiaf.westeros.org/index.php/Mellario" xlink:title="Mellario\n248&#45;" target="_blank">
<polygon fill="none" stroke="black" points="748.25,-316.5 671.75,-316.5 671.75,-239.5 748.25,-239.5 748.25,-316.5"/>
<text text-anchor="middle" x="710" y="-281.8" font-family="Times,serif" font-size="14.00">Mellario</text>
<text text-anchor="middle" x="710" y="-266.8" font-family="Times,serif" font-size="14.00">248&#45;</text>
</a>
</g>
</g>
<!-- 115&#45;&gt;114+115 -->
<g id="edge6" class="edge"><title>115&#45;&gt;114+115</title>
<path fill="none" stroke="black" d="M688.882,-239.393C681.61,-229.631 672.583,-220.145 662,-214 610.84,-184.297 406.322,-177.646 385.682,-177.047"/>
</g>
<!-- 116 -->
<g id="node8" class="node"><title>116</title>
<g id="a_node8"><a xlink:href="http://awoiaf.westeros.org/index.php/Arianne_Martell" xlink:title="Arianne Martell\n276&#45;" target="_blank">
<polygon fill="none" stroke="black" points="298.25,-134.5 167.75,-134.5 167.75,-3.5 298.25,-3.5 298.25,-134.5"/>
<text text-anchor="middle" x="233" y="-72.8" font-family="Times,serif" font-size="14.00">Arianne Martell</text>
<text text-anchor="middle" x="233" y="-57.8" font-family="Times,serif" font-size="14.00">276&#45;</text>
</a>
</g>
</g>
<!-- 117 -->
<g id="node9" class="node"><title>117</title>
<g id="a_node9"><a xlink:href="http://awoiaf.westeros.org/index.php/Quentyn_Martell" xlink:title="Quentyn Martell\n281&#45;300" target="_blank">
<polygon fill="none" stroke="black" points="451.25,-136.5 316.75,-136.5 316.75,-1.5 451.25,-1.5 451.25,-136.5"/>
<text text-anchor="middle" x="384" y="-72.8" font-family="Times,serif" font-size="14.00">Quentyn Martell</text>
<text text-anchor="middle" x="384" y="-57.8" font-family="Times,serif" font-size="14.00">281&#45;300</text>
</a>
</g>
</g>
<!-- 118 -->
<g id="node10" class="node"><title>118</title>
<g id="a_node10"><a xlink:href="http://awoiaf.westeros.org/index.php/Trystane_Martell" xlink:title="Trystane Martell\n287&#45;" target="_blank">
<polygon fill="none" stroke="black" points="606.25,-137.5 469.75,-137.5 469.75,-0.5 606.25,-0.5 606.25,-137.5"/>
<text text-anchor="middle" x="538" y="-72.8" font-family="Times,serif" font-size="14.00">Trystane Martell</text>
<text text-anchor="middle" x="538" y="-57.8" font-family="Times,serif" font-size="14.00">287&#45;</text>
</a>
</g>
</g>
<!-- 119 -->
<g id="node11" class="node"><title>119</title>
<g id="a_node11"><a xlink:href="http://awoiaf.westeros.org/index.php/Mors_Martell_(brother_of_Doran)" xlink:title="Mors Martell\n248&#45;248" target="_blank">
<polygon fill="none" stroke="black" points="247.5,-334 136.5,-334 136.5,-222 247.5,-222 247.5,-334"/>
<text text-anchor="middle" x="192" y="-281.8" font-family="Times,serif" font-size="14.00">Mors Martell</text>
<text text-anchor="middle" x="192" y="-266.8" font-family="Times,serif" font-size="14.00">248&#45;248</text>
</a>
</g>
</g>
<!-- 120 -->
<g id="node12" class="node"><title>120</title>
<g id="a_node12"><a xlink:href="http://awoiaf.westeros.org/index.php/Olyvar_Martell" xlink:title="Olyvar Martell\n248&#45;248" target="_blank">
<polygon fill="none" stroke="black" points="388,-339 266,-339 266,-217 388,-217 388,-339"/>
<text text-anchor="middle" x="327" y="-281.8" font-family="Times,serif" font-size="14.00">Olyvar Martell</text>
<text text-anchor="middle" x="327" y="-266.8" font-family="Times,serif" font-size="14.00">248&#45;248</text>
</a>
</g>
</g>
<!-- 121 -->
<g id="node13" class="node"><title>121</title>
<g id="a_node13"><a xlink:href="http://awoiaf.westeros.org/index.php/Elia_Martell" xlink:title="Elia Martell\n256&#45;283" target="_blank">
<polygon fill="none" stroke="black" points="507.5,-329 406.5,-329 406.5,-227 507.5,-227 507.5,-329"/>
<text text-anchor="middle" x="457" y="-281.8" font-family="Times,serif" font-size="14.00">Elia Martell</text>
<text text-anchor="middle" x="457" y="-266.8" font-family="Times,serif" font-size="14.00">256&#45;283</text>
</a>
</g>
</g>
<!-- 122 -->
<g id="node14" class="node"><title>122</title>
<g id="a_node14"><a xlink:href="http://awoiaf.westeros.org/index.php/Oberyn_Martell" xlink:title="Oberyn Martell\n257&#45;300" target="_blank">
<polygon fill="none" stroke="black" points="653.25,-341.5 526.75,-341.5 526.75,-214.5 653.25,-214.5 653.25,-341.5"/>
<text text-anchor="middle" x="590" y="-281.8" font-family="Times,serif" font-size="14.00">Oberyn Martell</text>
<text text-anchor="middle" x="590" y="-266.8" font-family="Times,serif" font-size="14.00">257&#45;300</text>
</a>
</g>
</g>
<!-- 109+110&#45;&gt;111 -->
<g id="edge7" class="edge"><title>109+110&#45;&gt;111</title>
<path fill="none" stroke="black" d="M256.158,-597.787C253.261,-593.616 243.235,-579.179 231.451,-562.21"/>
</g>
<!-- 109+110&#45;&gt;112 -->
<g id="edge8" class="edge"><title>109+110&#45;&gt;112</title>
<path fill="none" stroke="black" d="M257.854,-597.787C261.409,-592.735 275.56,-572.626 290.639,-551.197"/>
</g>
<!-- 113+111&#45;&gt;114 -->
<g id="edge9" class="edge"><title>113+111&#45;&gt;114</title>
<path fill="none" stroke="black" d="M325.287,-379.036C310.427,-379.28 202.114,-379.693 127,-342 123.979,-340.484 120.997,-338.793 118.066,-336.966"/>
</g>
<!-- 113+111&#45;&gt;119 -->
<g id="edge13" class="edge"><title>113+111&#45;&gt;119</title>
<path fill="none" stroke="black" d="M325.581,-378.43C318.073,-375.377 282.361,-360.414 257,-342 253.566,-339.507 250.134,-336.839 246.741,-334.061"/>
</g>
<!-- 113+111&#45;&gt;120 -->
<g id="edge14" class="edge"><title>113+111&#45;&gt;120</title>
<path fill="none" stroke="black" d="M327,-377.877C327,-373.543 327,-357.238 327,-339.082"/>
</g>
<!-- 113+111&#45;&gt;121 -->
<g id="edge15" class="edge"><title>113+111&#45;&gt;121</title>
<path fill="none" stroke="black" d="M328.432,-378.448C336.009,-375.487 372.012,-360.917 397,-342 402.178,-338.08 407.31,-333.699 412.264,-329.123"/>
</g>
<!-- 113+111&#45;&gt;122 -->
<g id="edge16" class="edge"><title>113+111&#45;&gt;122</title>
<path fill="none" stroke="black" d="M328.609,-378.99C342.564,-378.84 444.322,-376.563 516,-342 519.496,-340.314 522.96,-338.423 526.372,-336.377"/>
</g>
<!-- 114+115&#45;&gt;116 -->
<g id="edge10" class="edge"><title>114+115&#45;&gt;116</title>
<path fill="none" stroke="black" d="M382.865,-174.588C375.705,-171.965 336.199,-157.077 308,-138 304.797,-135.833 301.591,-133.537 298.406,-131.149"/>
</g>
<!-- 114+115&#45;&gt;117 -->
<g id="edge11" class="edge"><title>114+115&#45;&gt;117</title>
<path fill="none" stroke="black" d="M384,-173.821C384,-169.563 384,-154.301 384,-136.74"/>
</g>
<!-- 114+115&#45;&gt;118 -->
<g id="edge12" class="edge"><title>114+115&#45;&gt;118</title>
<path fill="none" stroke="black" d="M385.13,-174.581C392.26,-171.913 431.616,-156.801 460,-138 463.145,-135.917 466.299,-133.717 469.44,-131.435"/>
</g>
</g>
</svg>
