<?xml version="1.0" encoding="UTF-8" standalone="no"?>
<!DOCTYPE svg PUBLIC "-//W3C//DTD SVG 1.1//EN"
 "http://www.w3.org/Graphics/SVG/1.1/DTD/svg11.dtd">
<!-- Generated by graphviz version 2.36.0 (20140111.2315)
 -->
<!-- Title: family Pages: 1 -->
<svg width="864pt" height="1034pt"
 viewBox="0.00 0.00 864.00 1034.00" xmlns="http://www.w3.org/2000/svg" xmlns:xlink="http://www.w3.org/1999/xlink">
<g id="graph0" class="graph" transform="scale(1 1) rotate(0) translate(4 1030)">
<title>family</title>
<polygon fill="white" stroke="none" points="-4,4 -4,-1030 860,-1030 860,4 -4,4"/>
<!-- 187 -->
<g id="node1" class="node"><title>187</title>
<g id="a_node1"><a xlink:href="/character/display?id=Melantha_Blackwood" xlink:title="&lt;TABLE&gt;" target="_blank">
<polygon fill="white" stroke="black" points="391.5,-1026 216.5,-1026 216.5,-850 391.5,-850 391.5,-1026"/>
</a>
</g>
<g id="a_node1_0"><a xlink:href="http://awoiaf.westeros.org/index.php/Melantha_Blackwood" xlink:title="&lt;TABLE&gt;" target="_blank">
<text text-anchor="start" x="228.5" y="-941.3" font-family="Times,serif" font-size="14.00">Melantha Blackwood</text>
<text text-anchor="start" x="279" y="-926.3" font-family="Times,serif" font-size="14.00">???&#45;???</text>
</a>
</g>
<g><a xlink:href="/character/display?id=Melantha_Blackwood" xlink:title="&lt;TABLE&gt;" target="_blank">
</a>
</g>
</g>
<!-- 184+187 -->
<g id="node28" class="node"><title>184+187</title>
<ellipse fill="black" stroke="black" cx="387" cy="-812" rx="1.8" ry="1.8"/>
</g>
<!-- 187&#45;&gt;184+187 -->
<g id="edge10" class="edge"><title>187&#45;&gt;184+187</title>
<path fill="none" stroke="black" d="M362.322,-849.868C374.433,-831.774 384.244,-817.117 386.507,-813.736"/>
</g>
<!-- 188 -->
<g id="node2" class="node"><title>188</title>
<g id="a_node2"><a xlink:href="/character/display?id=Edwyle_Stark" xlink:title="&lt;TABLE&gt;" target="_blank">
<polygon fill="white" stroke="black" points="596,-766 474,-766 474,-644 596,-644 596,-766"/>
</a>
</g>
<g id="a_node2_1"><a xlink:href="http://awoiaf.westeros.org/index.php/Edwyle_Stark" xlink:title="&lt;TABLE&gt;" target="_blank">
<text text-anchor="start" x="486.5" y="-708.3" font-family="Times,serif" font-size="14.00">Edwyle Stark</text>
<text text-anchor="start" x="510" y="-693.3" font-family="Times,serif" font-size="14.00">???&#45;???</text>
</a>
</g>
<g><a xlink:href="/character/display?id=Edwyle_Stark" xlink:title="&lt;TABLE&gt;" target="_blank">
</a>
</g>
</g>
<!-- 188+189 -->
<g id="node24" class="node"><title>188+189</title>
<ellipse fill="black" stroke="black" cx="580" cy="-598" rx="1.8" ry="1.8"/>
</g>
<!-- 188&#45;&gt;188+189 -->
<g id="edge1" class="edge"><title>188&#45;&gt;188+189</title>
<path fill="none" stroke="black" d="M560.785,-643.834C569.583,-623.306 577.696,-604.376 579.587,-599.964"/>
</g>
<!-- 190 -->
<g id="node3" class="node"><title>190</title>
<g id="a_node3"><a xlink:href="/character/display?id=Jocelyn_Stark" xlink:title="&lt;TABLE&gt;" target="_blank">
<polygon fill="white" stroke="black" points="300,-766 178,-766 178,-644 300,-644 300,-766"/>
</a>
</g>
<g id="a_node3_2"><a xlink:href="http://awoiaf.westeros.org/index.php/Jocelyn_Stark" xlink:title="&lt;TABLE&gt;" target="_blank">
<text text-anchor="start" x="190.5" y="-708.3" font-family="Times,serif" font-size="14.00">Jocelyn Stark</text>
<text text-anchor="start" x="214" y="-693.3" font-family="Times,serif" font-size="14.00">???&#45;???</text>
</a>
</g>
<g><a xlink:href="/character/display?id=Jocelyn_Stark" xlink:title="&lt;TABLE&gt;" target="_blank">
</a>
</g>
</g>
<!-- 191+190 -->
<g id="node29" class="node"><title>191+190</title>
<ellipse fill="black" stroke="black" cx="342" cy="-598" rx="1.8" ry="1.8"/>
</g>
<!-- 190&#45;&gt;191+190 -->
<g id="edge12" class="edge"><title>190&#45;&gt;191+190</title>
<path fill="none" stroke="black" d="M298.02,-643.834C318.157,-623.306 336.726,-604.376 341.054,-599.964"/>
</g>
<!-- 10 -->
<g id="node4" class="node"><title>10</title>
<g id="a_node4"><a xlink:href="/character/display?id=Rickard_Stark" xlink:title="&lt;TABLE&gt;" target="_blank">
<polygon fill="white" stroke="black" points="642.25,-559.5 517.75,-559.5 517.75,-434.5 642.25,-434.5 642.25,-559.5"/>
</a>
</g>
<g id="a_node4_3"><a xlink:href="http://awoiaf.westeros.org/index.php/Rickard_Stark" xlink:title="&lt;TABLE&gt;" target="_blank">
<text text-anchor="start" x="530.5" y="-500.3" font-family="Times,serif" font-size="14.00">Rickard Stark</text>
<text text-anchor="start" x="551" y="-485.3" font-family="Times,serif" font-size="14.00">230&#45;282</text>
</a>
</g>
<g><a xlink:href="/character/display?id=Rickard_Stark" xlink:title="&lt;TABLE&gt;" target="_blank">
</a>
</g>
</g>
<!-- 10+11 -->
<g id="node25" class="node"><title>10+11</title>
<ellipse fill="black" stroke="black" cx="344" cy="-396" rx="1.8" ry="1.8"/>
</g>
<!-- 10&#45;&gt;10+11 -->
<g id="edge3" class="edge"><title>10&#45;&gt;10+11</title>
<path fill="none" stroke="black" d="M517.629,-439.385C514.458,-437.441 511.241,-435.632 508,-434 446.474,-403.025 359.011,-397.716 345.72,-397.075"/>
</g>
<!-- 192 -->
<g id="node5" class="node"><title>192</title>
<polygon fill="white" stroke="black" points="388.25,-543.5 295.75,-543.5 295.75,-450.5 388.25,-450.5 388.25,-543.5"/>
<text text-anchor="start" x="308.5" y="-500.3" font-family="Times,serif" font-size="14.00">Daughter</text>
<text text-anchor="start" x="317.5" y="-485.3" font-family="Times,serif" font-size="14.00">???&#45;???</text>
</g>
<!-- 194 -->
<g id="node6" class="node"><title>194</title>
<polygon fill="white" stroke="black" points="499.25,-543.5 406.75,-543.5 406.75,-450.5 499.25,-450.5 499.25,-543.5"/>
<text text-anchor="start" x="419.5" y="-500.3" font-family="Times,serif" font-size="14.00">Daughter</text>
<text text-anchor="start" x="428.5" y="-485.3" font-family="Times,serif" font-size="14.00">???&#45;???</text>
</g>
<!-- 196 -->
<g id="node7" class="node"><title>196</title>
<polygon fill="white" stroke="black" points="277.25,-543.5 184.75,-543.5 184.75,-450.5 277.25,-450.5 277.25,-543.5"/>
<text text-anchor="start" x="197.5" y="-500.3" font-family="Times,serif" font-size="14.00">Daughter</text>
<text text-anchor="start" x="206.5" y="-485.3" font-family="Times,serif" font-size="14.00">???&#45;???</text>
</g>
<!-- 1 -->
<g id="node8" class="node"><title>1</title>
<g id="a_node8"><a xlink:href="/character/display?id=Eddard_Stark" xlink:title="&lt;TABLE&gt;" target="_blank">
<polygon fill="white" stroke="black" points="687,-343 565,-343 565,-221 687,-221 687,-343"/>
</a>
</g>
<g id="a_node8_7"><a xlink:href="http://awoiaf.westeros.org/index.php/Eddard_Stark" xlink:title="&lt;TABLE&gt;" target="_blank">
<text text-anchor="start" x="577.5" y="-285.3" font-family="Times,serif" font-size="14.00">Eddard Stark</text>
<text text-anchor="start" x="596.5" y="-270.3" font-family="Times,serif" font-size="14.00">263&#45;299</text>
</a>
</g>
<g><a xlink:href="/character/display?id=Eddard_Stark" xlink:title="&lt;TABLE&gt;" target="_blank">
</a>
</g>
</g>
<!-- 1+2 -->
<g id="node26" class="node"><title>1+2</title>
<ellipse fill="black" stroke="black" cx="368" cy="-168" rx="1.8" ry="1.8"/>
</g>
<!-- 1&#45;&gt;1+2 -->
<g id="edge5" class="edge"><title>1&#45;&gt;1+2</title>
<path fill="none" stroke="black" d="M576.844,-220.785C570.308,-215.166 563.318,-210.065 556,-206 486.792,-167.551 383.776,-168.613 369.631,-168.953"/>
</g>
<!-- 1+9 -->
<g id="node27" class="node"><title>1+9</title>
<ellipse fill="black" stroke="black" cx="770" cy="-168" rx="1.8" ry="1.8"/>
</g>
<!-- 1&#45;&gt;1+9 -->
<g id="edge7" class="edge"><title>1&#45;&gt;1+9</title>
<path fill="none" stroke="black" stroke-dasharray="5,2" d="M679.24,-220.834C684.998,-215.547 690.964,-210.503 697,-206 722.966,-186.629 760.585,-172.414 768.503,-169.536"/>
</g>
<!-- 14 -->
<g id="node9" class="node"><title>14</title>
<g id="a_node9"><a xlink:href="/character/display?id=Lyanna_Stark" xlink:title="&lt;TABLE&gt;" target="_blank">
<polygon fill="white" stroke="black" points="547,-343 425,-343 425,-221 547,-221 547,-343"/>
</a>
</g>
<g id="a_node9_8"><a xlink:href="http://awoiaf.westeros.org/index.php/Lyanna_Stark" xlink:title="&lt;TABLE&gt;" target="_blank">
<text text-anchor="start" x="437.5" y="-285.3" font-family="Times,serif" font-size="14.00">Lyanna Stark</text>
<text text-anchor="start" x="456.5" y="-270.3" font-family="Times,serif" font-size="14.00">266&#45;283</text>
</a>
</g>
<g><a xlink:href="/character/display?id=Lyanna_Stark" xlink:title="&lt;TABLE&gt;" target="_blank">
</a>
</g>
</g>
<!-- 15 -->
<g id="node10" class="node"><title>15</title>
<g id="a_node10"><a xlink:href="/character/display?id=Benjen_Stark" xlink:title="&lt;TABLE&gt;" target="_blank">
<polygon fill="white" stroke="black" points="118.25,-341.5 -0.25,-341.5 -0.25,-222.5 118.25,-222.5 118.25,-341.5"/>
</a>
</g>
<g id="a_node10_9"><a xlink:href="http://awoiaf.westeros.org/index.php/Benjen_Stark" xlink:title="&lt;TABLE&gt;" target="_blank">
<text text-anchor="start" x="12.5" y="-285.3" font-family="Times,serif" font-size="14.00">Benjen Stark</text>
<text text-anchor="start" x="43.5" y="-270.3" font-family="Times,serif" font-size="14.00">267&#45;</text>
</a>
</g>
<g><a xlink:href="/character/display?id=Benjen_Stark" xlink:title="&lt;TABLE&gt;" target="_blank">
</a>
</g>
</g>
<!-- 16 -->
<g id="node11" class="node"><title>16</title>
<g id="a_node11"><a xlink:href="/character/display?id=Brandon_Stark" xlink:title="&lt;TABLE&gt;" target="_blank">
<polygon fill="white" stroke="black" points="267,-347 137,-347 137,-217 267,-217 267,-347"/>
</a>
</g>
<g id="a_node11_10"><a xlink:href="http://awoiaf.westeros.org/index.php/Brandon_Stark" xlink:title="&lt;TABLE&gt;" target="_blank">
<text text-anchor="start" x="149.5" y="-285.3" font-family="Times,serif" font-size="14.00">Brandon Stark</text>
<text text-anchor="start" x="172.5" y="-270.3" font-family="Times,serif" font-size="14.00">262&#45;282</text>
</a>
</g>
<g><a xlink:href="/character/display?id=Brandon_Stark" xlink:title="&lt;TABLE&gt;" target="_blank">
</a>
</g>
</g>
<!-- 3 -->
<g id="node12" class="node"><title>3</title>
<g id="a_node12"><a xlink:href="/character/display?id=Robb_Stark" xlink:title="&lt;TABLE&gt;" target="_blank">
<polygon fill="white" stroke="black" points="694.5,-118 589.5,-118 589.5,-12 694.5,-12 694.5,-118"/>
</a>
</g>
<g id="a_node12_11"><a xlink:href="http://awoiaf.westeros.org/index.php/Robb_Stark" xlink:title="&lt;TABLE&gt;" target="_blank">
<text text-anchor="start" x="601.5" y="-68.3" font-family="Times,serif" font-size="14.00">Robb Stark</text>
<text text-anchor="start" x="612.5" y="-53.3" font-family="Times,serif" font-size="14.00">283&#45;299</text>
</a>
</g>
<g><a xlink:href="/character/display?id=Robb_Stark" xlink:title="&lt;TABLE&gt;" target="_blank">
</a>
</g>
</g>
<!-- 4 -->
<g id="node13" class="node"><title>4</title>
<g id="a_node13"><a xlink:href="/character/display?id=Sansa_Stark" xlink:title="&lt;TABLE&gt;" target="_blank">
<polygon fill="white" stroke="black" points="163.25,-120.5 52.75,-120.5 52.75,-9.5 163.25,-9.5 163.25,-120.5"/>
</a>
</g>
<g id="a_node13_12"><a xlink:href="http://awoiaf.westeros.org/index.php/Sansa_Stark" xlink:title="&lt;TABLE&gt;" target="_blank">
<text text-anchor="start" x="65.5" y="-68.3" font-family="Times,serif" font-size="14.00">Sansa Stark</text>
<text text-anchor="start" x="92.5" y="-53.3" font-family="Times,serif" font-size="14.00">286&#45;</text>
</a>
</g>
<g><a xlink:href="/character/display?id=Sansa_Stark" xlink:title="&lt;TABLE&gt;" target="_blank">
</a>
</g>
</g>
<!-- 5 -->
<g id="node14" class="node"><title>5</title>
<g id="a_node14"><a xlink:href="/character/display?id=Arya_Stark" xlink:title="&lt;TABLE&gt;" target="_blank">
<polygon fill="white" stroke="black" points="284.25,-116.5 181.75,-116.5 181.75,-13.5 284.25,-13.5 284.25,-116.5"/>
</a>
</g>
<g id="a_node14_13"><a xlink:href="http://awoiaf.westeros.org/index.php/Arya_Stark" xlink:title="&lt;TABLE&gt;" target="_blank">
<text text-anchor="start" x="194.5" y="-68.3" font-family="Times,serif" font-size="14.00">Arya Stark</text>
<text text-anchor="start" x="217.5" y="-53.3" font-family="Times,serif" font-size="14.00">289&#45;</text>
</a>
</g>
<g><a xlink:href="/character/display?id=Arya_Stark" xlink:title="&lt;TABLE&gt;" target="_blank">
</a>
</g>
</g>
<!-- 6 -->
<g id="node15" class="node"><title>6</title>
<g id="a_node15"><a xlink:href="/character/display?id=Bran_Stark" xlink:title="&lt;TABLE&gt;" target="_blank">
<polygon fill="white" stroke="black" points="433,-130 303,-130 303,-0 433,-0 433,-130"/>
</a>
</g>
<g id="a_node15_14"><a xlink:href="http://awoiaf.westeros.org/index.php/Bran_Stark" xlink:title="&lt;TABLE&gt;" target="_blank">
<text text-anchor="start" x="315.5" y="-68.3" font-family="Times,serif" font-size="14.00">Brandon Stark</text>
<text text-anchor="start" x="352" y="-53.3" font-family="Times,serif" font-size="14.00">290&#45;</text>
</a>
</g>
<g><a xlink:href="/character/display?id=Bran_Stark" xlink:title="&lt;TABLE&gt;" target="_blank">
</a>
</g>
</g>
<!-- 7 -->
<g id="node16" class="node"><title>7</title>
<g id="a_node16"><a xlink:href="/character/display?id=Rickon_Stark" xlink:title="&lt;TABLE&gt;" target="_blank">
<polygon fill="white" stroke="black" points="570.25,-124.5 451.75,-124.5 451.75,-5.5 570.25,-5.5 570.25,-124.5"/>
</a>
</g>
<g id="a_node16_15"><a xlink:href="http://awoiaf.westeros.org/index.php/Rickon_Stark" xlink:title="&lt;TABLE&gt;" target="_blank">
<text text-anchor="start" x="464.5" y="-68.3" font-family="Times,serif" font-size="14.00">Rickon Stark</text>
<text text-anchor="start" x="495.5" y="-53.3" font-family="Times,serif" font-size="14.00">295&#45;</text>
</a>
</g>
<g><a xlink:href="/character/display?id=Rickon_Stark" xlink:title="&lt;TABLE&gt;" target="_blank">
</a>
</g>
</g>
<!-- 8 -->
<g id="node17" class="node"><title>8</title>
<g id="a_node17"><a xlink:href="/character/display?id=Jon_Snow" xlink:title="&lt;TABLE&gt;" target="_blank">
<polygon fill="white" stroke="black" points="816,-111 724,-111 724,-19 816,-19 816,-111"/>
</a>
</g>
<g id="a_node17_16"><a xlink:href="http://awoiaf.westeros.org/index.php/Jon_Snow" xlink:title="&lt;TABLE&gt;" target="_blank">
<text text-anchor="start" x="736.5" y="-68.3" font-family="Times,serif" font-size="14.00">Jon Snow</text>
<text text-anchor="start" x="754" y="-53.3" font-family="Times,serif" font-size="14.00">283&#45;</text>
</a>
</g>
<g><a xlink:href="/character/display?id=Jon_Snow" xlink:title="&lt;TABLE&gt;" target="_blank">
</a>
</g>
</g>
<!-- 184 -->
<g id="node18" class="node"><title>184</title>
<g id="a_node18"><a xlink:href="/character/display?id=Willam_Stark" xlink:title="&lt;TABLE&gt;" target="_blank">
<polygon fill="white" stroke="black" points="529.25,-997.5 410.75,-997.5 410.75,-878.5 529.25,-878.5 529.25,-997.5"/>
</a>
</g>
<g id="a_node18_17"><a xlink:href="http://awoiaf.westeros.org/index.php/Willam_Stark" xlink:title="&lt;TABLE&gt;" target="_blank">
<text text-anchor="start" x="423.5" y="-941.3" font-family="Times,serif" font-size="14.00">Willam Stark</text>
<text text-anchor="start" x="443" y="-926.3" font-family="Times,serif" font-size="14.00">???&#45;226</text>
</a>
</g>
<g><a xlink:href="/character/display?id=Willam_Stark" xlink:title="&lt;TABLE&gt;" target="_blank">
</a>
</g>
</g>
<!-- 184&#45;&gt;184+187 -->
<g id="edge9" class="edge"><title>184&#45;&gt;184+187</title>
<path fill="none" stroke="black" d="M430.688,-878.268C411.246,-849.223 391.162,-819.218 387.567,-813.848"/>
</g>
<!-- 189 -->
<g id="node19" class="node"><title>189</title>
<g id="a_node19"><a xlink:href="/character/display?id=Marna_Locke" xlink:title="&lt;TABLE&gt;" target="_blank">
<polygon fill="white" stroke="black" points="735.25,-765.5 614.75,-765.5 614.75,-644.5 735.25,-644.5 735.25,-765.5"/>
</a>
</g>
<g id="a_node19_18"><a xlink:href="http://awoiaf.westeros.org/index.php/Marna_Locke" xlink:title="&lt;TABLE&gt;" target="_blank">
<text text-anchor="start" x="627.5" y="-708.3" font-family="Times,serif" font-size="14.00">Marna Locke</text>
<text text-anchor="start" x="650.5" y="-693.3" font-family="Times,serif" font-size="14.00">???&#45;???</text>
</a>
</g>
<g><a xlink:href="/character/display?id=Marna_Locke" xlink:title="&lt;TABLE&gt;" target="_blank">
</a>
</g>
</g>
<!-- 189&#45;&gt;188+189 -->
<g id="edge2" class="edge"><title>189&#45;&gt;188+189</title>
<path fill="none" stroke="black" d="M621.116,-644.444C602.354,-623.707 584.946,-604.467 580.887,-599.981"/>
</g>
<!-- 191 -->
<g id="node20" class="node"><title>191</title>
<g id="a_node20"><a xlink:href="/character/display?id=Benedict_Royce" xlink:title="&lt;TABLE&gt;" target="_blank">
<polygon fill="white" stroke="black" points="455.25,-773.5 318.75,-773.5 318.75,-636.5 455.25,-636.5 455.25,-773.5"/>
</a>
</g>
<g id="a_node20_19"><a xlink:href="http://awoiaf.westeros.org/index.php/Benedict_Royce" xlink:title="&lt;TABLE&gt;" target="_blank">
<text text-anchor="start" x="331.5" y="-708.3" font-family="Times,serif" font-size="14.00">Benedict Royce</text>
<text text-anchor="start" x="362.5" y="-693.3" font-family="Times,serif" font-size="14.00">???&#45;???</text>
</a>
</g>
<g><a xlink:href="/character/display?id=Benedict_Royce" xlink:title="&lt;TABLE&gt;" target="_blank">
</a>
</g>
</g>
<!-- 191&#45;&gt;191+190 -->
<g id="edge11" class="edge"><title>191&#45;&gt;191+190</title>
<path fill="none" stroke="black" d="M357.992,-636.315C350.373,-618.537 343.843,-603.301 342.33,-599.77"/>
</g>
<!-- 11 -->
<g id="node21" class="node"><title>11</title>
<g id="a_node21"><a xlink:href="/character/display?id=Lyarra_Stark" xlink:title="&lt;TABLE&gt;" target="_blank">
<polygon fill="white" stroke="black" points="166.25,-555.5 49.75,-555.5 49.75,-438.5 166.25,-438.5 166.25,-555.5"/>
</a>
</g>
<g id="a_node21_20"><a xlink:href="http://awoiaf.westeros.org/index.php/Lyarra_Stark" xlink:title="&lt;TABLE&gt;" target="_blank">
<text text-anchor="start" x="62.5" y="-500.3" font-family="Times,serif" font-size="14.00">Lyarra Stark</text>
<text text-anchor="start" x="83.5" y="-485.3" font-family="Times,serif" font-size="14.00">???&#45;???</text>
</a>
</g>
<g><a xlink:href="/character/display?id=Lyarra_Stark" xlink:title="&lt;TABLE&gt;" target="_blank">
</a>
</g>
</g>
<!-- 11&#45;&gt;10+11 -->
<g id="edge4" class="edge"><title>11&#45;&gt;10+11</title>
<path fill="none" stroke="black" d="M166.263,-439.077C169.133,-437.245 172.05,-435.54 175,-434 237.837,-401.199 328.444,-397.43 342.217,-397.042"/>
</g>
<!-- 2 -->
<g id="node22" class="node"><title>2</title>
<g id="a_node22"><a xlink:href="/character/display?id=Catelyn_Stark" xlink:title="&lt;TABLE&gt;" target="_blank">
<polygon fill="white" stroke="black" points="406.25,-342.5 285.75,-342.5 285.75,-221.5 406.25,-221.5 406.25,-342.5"/>
</a>
</g>
<g id="a_node22_21"><a xlink:href="http://awoiaf.westeros.org/index.php/Catelyn_Stark" xlink:title="&lt;TABLE&gt;" target="_blank">
<text text-anchor="start" x="298.5" y="-285.3" font-family="Times,serif" font-size="14.00">Catelyn Tully</text>
<text text-anchor="start" x="317" y="-270.3" font-family="Times,serif" font-size="14.00">264&#45;299</text>
</a>
</g>
<g><a xlink:href="/character/display?id=Catelyn_Stark" xlink:title="&lt;TABLE&gt;" target="_blank">
</a>
</g>
</g>
<!-- 2&#45;&gt;1+2 -->
<g id="edge6" class="edge"><title>2&#45;&gt;1+2</title>
<path fill="none" stroke="black" d="M357.709,-221.393C362.306,-197.989 366.737,-175.429 367.773,-170.154"/>
</g>
<!-- 9 -->
<g id="node23" class="node"><title>9</title>
<polygon fill="white" stroke="black" points="856.25,-357.5 705.75,-357.5 705.75,-206.5 856.25,-206.5 856.25,-357.5"/>
<text text-anchor="start" x="718.5" y="-285.3" font-family="Times,serif" font-size="14.00">Unknown Woman</text>
<text text-anchor="start" x="756.5" y="-270.3" font-family="Times,serif" font-size="14.00">???&#45;???</text>
</g>
<!-- 9&#45;&gt;1+9 -->
<g id="edge8" class="edge"><title>9&#45;&gt;1+9</title>
<path fill="none" stroke="black" stroke-dasharray="5,2" d="M773.663,-206.294C771.929,-188.639 770.47,-173.786 770.094,-169.958"/>
</g>
<!-- 188+189&#45;&gt;10 -->
<g id="edge15" class="edge"><title>188+189&#45;&gt;10</title>
<path fill="none" stroke="black" d="M580,-595.888C580,-591.767 580,-576.715 580,-559.608"/>
</g>
<!-- 10+11&#45;&gt;1 -->
<g id="edge19" class="edge"><title>10+11&#45;&gt;1</title>
<path fill="none" stroke="black" d="M345.837,-395.105C361.769,-395.934 477.808,-400.344 556,-358 563.518,-353.929 570.677,-348.748 577.349,-343.016"/>
</g>
<!-- 10+11&#45;&gt;14 -->
<g id="edge20" class="edge"><title>10+11&#45;&gt;14</title>
<path fill="none" stroke="black" d="M345.455,-394.454C353.149,-391.526 389.706,-377.093 415,-358 421.01,-353.463 426.96,-348.396 432.706,-343.095"/>
</g>
<!-- 10+11&#45;&gt;15 -->
<g id="edge21" class="edge"><title>10+11&#45;&gt;15</title>
<path fill="none" stroke="black" d="M342.126,-395.119C325.878,-396.066 207.537,-401.28 128,-358 119.919,-353.602 112.273,-347.897 105.221,-341.596"/>
</g>
<!-- 10+11&#45;&gt;16 -->
<g id="edge22" class="edge"><title>10+11&#45;&gt;16</title>
<path fill="none" stroke="black" d="M342.616,-394.43C335.294,-391.38 300.483,-376.428 276,-358 271.469,-354.59 266.951,-350.906 262.508,-347.064"/>
</g>
<!-- 1+2&#45;&gt;3 -->
<g id="edge23" class="edge"><title>1+2&#45;&gt;3</title>
<path fill="none" stroke="black" d="M369.82,-167.087C385.608,-167.766 500.629,-171.143 579,-130 585.212,-126.739 591.187,-122.647 596.816,-118.116"/>
</g>
<!-- 1+2&#45;&gt;4 -->
<g id="edge24" class="edge"><title>1+2&#45;&gt;4</title>
<path fill="none" stroke="black" d="M366.31,-167.048C351.654,-167.393 244.874,-168.495 172,-130 166.998,-127.358 162.137,-124.193 157.477,-120.705"/>
</g>
<!-- 1+2&#45;&gt;5 -->
<g id="edge25" class="edge"><title>1+2&#45;&gt;5</title>
<path fill="none" stroke="black" d="M366.483,-166.468C358.459,-163.607 320.336,-149.466 294,-130 288.569,-125.986 283.203,-121.46 278.039,-116.719"/>
</g>
<!-- 1+2&#45;&gt;6 -->
<g id="edge26" class="edge"><title>1+2&#45;&gt;6</title>
<path fill="none" stroke="black" d="M368,-165.866C368,-161.77 368,-147.089 368,-130.197"/>
</g>
<!-- 1+2&#45;&gt;7 -->
<g id="edge27" class="edge"><title>1+2&#45;&gt;7</title>
<path fill="none" stroke="black" d="M369.496,-166.438C377.413,-163.428 415.078,-148.646 442,-130 445.224,-127.767 448.449,-125.391 451.648,-122.917"/>
</g>
<!-- 1+9&#45;&gt;8 -->
<g id="edge28" class="edge"><title>1+9&#45;&gt;8</title>
<path fill="none" stroke="black" stroke-dasharray="5,2" d="M770,-165.866C770,-160.274 770,-134.96 770,-111.219"/>
</g>
<!-- 184+187&#45;&gt;188 -->
<g id="edge13" class="edge"><title>184+187&#45;&gt;188</title>
<path fill="none" stroke="black" d="M388.158,-810.602C395.458,-808.062 435.716,-793.595 464,-774 467.507,-771.57 471.007,-768.966 474.467,-766.246"/>
</g>
<!-- 184+187&#45;&gt;190 -->
<g id="edge14" class="edge"><title>184+187&#45;&gt;190</title>
<path fill="none" stroke="black" d="M385.825,-810.608C378.416,-808.106 337.562,-793.832 309,-774 305.521,-771.584 302.053,-768.992 298.629,-766.28"/>
</g>
<!-- 191+190&#45;&gt;192 -->
<g id="edge16" class="edge"><title>191+190&#45;&gt;192</title>
<path fill="none" stroke="black" d="M342,-595.888C342,-590.514 342,-566.549 342,-543.678"/>
</g>
<!-- 191+190&#45;&gt;194 -->
<g id="edge17" class="edge"><title>191+190&#45;&gt;194</title>
<path fill="none" stroke="black" d="M343.45,-596.202C350.021,-592.549 377.521,-576.885 397,-560 402.809,-554.965 408.613,-549.357 414.165,-543.629"/>
</g>
<!-- 191+190&#45;&gt;196 -->
<g id="edge18" class="edge"><title>191+190&#45;&gt;196</title>
<path fill="none" stroke="black" d="M340.518,-596.212C333.804,-592.604 305.718,-577.103 286,-560 280.239,-555.003 274.506,-549.418 269.037,-543.702"/>
</g>
</g>
</svg>
