<?xml version="1.0" encoding="UTF-8" standalone="no"?>
<!DOCTYPE svg PUBLIC "-//W3C//DTD SVG 1.1//EN"
 "http://www.w3.org/Graphics/SVG/1.1/DTD/svg11.dtd">
<!-- Generated by graphviz version 2.36.0 (20140111.2315)
 -->
<!-- Title: family Pages: 1 -->
<svg width="482pt" height="966pt"
 viewBox="0.00 0.00 482.00 966.00" xmlns="http://www.w3.org/2000/svg" xmlns:xlink="http://www.w3.org/1999/xlink">
<g id="graph0" class="graph" transform="scale(1 1) rotate(0) translate(4 962)">
<title>family</title>
<polygon fill="white" stroke="none" points="-4,4 -4,-962 478,-962 478,4 -4,4"/>
<!-- 300 -->
<g id="node1" class="node"><title>300</title>
<g id="a_node1"><a xlink:href="http://awoiaf.westeros.org/index.php/Merrett_Frey" xlink:title="Merrett Frey\n262&#45;300" target="_blank">
<polygon fill="white" stroke="black" points="354.25,-300.5 243.75,-300.5 243.75,-189.5 354.25,-189.5 354.25,-300.5"/>
<text text-anchor="middle" x="299" y="-248.8" font-family="Times,serif" font-size="14.00">Merrett Frey</text>
<text text-anchor="middle" x="299" y="-233.8" font-family="Times,serif" font-size="14.00">262&#45;300</text>
</a>
</g>
</g>
<!-- 300+301 -->
<g id="node13" class="node"><title>300+301</title>
<ellipse fill="black" stroke="black" cx="234" cy="-150" rx="1.8" ry="1.8"/>
</g>
<!-- 300&#45;&gt;300+301 -->
<g id="edge1" class="edge"><title>300&#45;&gt;300+301</title>
<path fill="none" stroke="black" d="M260.813,-189.364C248.433,-171.651 237.189,-155.563 234.572,-151.818"/>
</g>
<!-- 214 -->
<g id="node2" class="node"><title>214</title>
<g id="a_node2"><a xlink:href="http://awoiaf.westeros.org/index.php/Walder_Frey" xlink:title="Walder Frey\n208&#45;" target="_blank">
<polygon fill="white" stroke="black" points="280,-502 176,-502 176,-398 280,-398 280,-502"/>
<text text-anchor="middle" x="228" y="-453.8" font-family="Times,serif" font-size="14.00">Walder Frey</text>
<text text-anchor="middle" x="228" y="-438.8" font-family="Times,serif" font-size="14.00">208&#45;</text>
</a>
</g>
</g>
<!-- 214+278 -->
<g id="node14" class="node"><title>214+278</title>
<ellipse fill="black" stroke="black" cx="299" cy="-340" rx="1.8" ry="1.8"/>
</g>
<!-- 214&#45;&gt;214+278 -->
<g id="edge3" class="edge"><title>214&#45;&gt;214+278</title>
<path fill="none" stroke="black" d="M261.629,-397.846C278.26,-372.549 295.44,-346.416 298.515,-341.738"/>
</g>
<!-- 278 -->
<g id="node3" class="node"><title>278</title>
<g id="a_node3"><a xlink:href="http://awoiaf.westeros.org/index.php/Amarei_Crakehall" xlink:title="Amarei Crakehall\n245&#45;264" target="_blank">
<polygon fill="white" stroke="black" points="441.25,-521.5 298.75,-521.5 298.75,-378.5 441.25,-378.5 441.25,-521.5"/>
<text text-anchor="middle" x="370" y="-453.8" font-family="Times,serif" font-size="14.00">Amarei Crakehall</text>
<text text-anchor="middle" x="370" y="-438.8" font-family="Times,serif" font-size="14.00">245&#45;264</text>
</a>
</g>
</g>
<!-- 278&#45;&gt;214+278 -->
<g id="edge4" class="edge"><title>278&#45;&gt;214+278</title>
<path fill="none" stroke="black" d="M323.633,-378.47C311.845,-360.539 301.826,-345.299 299.506,-341.77"/>
</g>
<!-- 211 -->
<g id="node4" class="node"><title>211</title>
<polygon fill="white" stroke="black" points="214,-730 92,-730 92,-608 214,-608 214,-730"/>
<text text-anchor="middle" x="153" y="-672.8" font-family="Times,serif" font-size="14.00">Unknown Frey</text>
<text text-anchor="middle" x="153" y="-657.8" font-family="Times,serif" font-size="14.00">???&#45;???</text>
</g>
<!-- 211+213 -->
<g id="node15" class="node"><title>211+213</title>
<ellipse fill="black" stroke="black" cx="228" cy="-560" rx="1.8" ry="1.8"/>
</g>
<!-- 211&#45;&gt;211+213 -->
<g id="edge5" class="edge"><title>211&#45;&gt;211+213</title>
<path fill="none" stroke="black" d="M195.104,-607.932C210.063,-586.59 224.03,-566.664 227.288,-562.016"/>
</g>
<!-- 213 -->
<g id="node5" class="node"><title>213</title>
<polygon fill="white" stroke="black" points="374,-740 232,-740 232,-598 374,-598 374,-740"/>
<text text-anchor="middle" x="303" y="-672.8" font-family="Times,serif" font-size="14.00">Unknown Woman</text>
<text text-anchor="middle" x="303" y="-657.8" font-family="Times,serif" font-size="14.00">???&#45;???</text>
</g>
<!-- 213&#45;&gt;211+213 -->
<g id="edge6" class="edge"><title>213&#45;&gt;211+213</title>
<path fill="none" stroke="black" d="M253.811,-597.823C241.441,-580.176 230.957,-565.219 228.529,-561.755"/>
</g>
<!-- 209 -->
<g id="node6" class="node"><title>209</title>
<polygon fill="white" stroke="black" points="139,-948 17,-948 17,-826 139,-826 139,-948"/>
<text text-anchor="middle" x="78" y="-890.8" font-family="Times,serif" font-size="14.00">Unknown Frey</text>
<text text-anchor="middle" x="78" y="-875.8" font-family="Times,serif" font-size="14.00">???&#45;???</text>
</g>
<!-- 209+210 -->
<g id="node16" class="node"><title>209+210</title>
<ellipse fill="black" stroke="black" cx="153" cy="-778" rx="1.8" ry="1.8"/>
</g>
<!-- 209&#45;&gt;209+210 -->
<g id="edge7" class="edge"><title>209&#45;&gt;209+210</title>
<path fill="none" stroke="black" d="M120.104,-825.932C135.063,-804.59 149.03,-784.664 152.288,-780.016"/>
</g>
<!-- 210 -->
<g id="node7" class="node"><title>210</title>
<polygon fill="white" stroke="black" points="299,-958 157,-958 157,-816 299,-816 299,-958"/>
<text text-anchor="middle" x="228" y="-890.8" font-family="Times,serif" font-size="14.00">Unknown Woman</text>
<text text-anchor="middle" x="228" y="-875.8" font-family="Times,serif" font-size="14.00">???&#45;???</text>
</g>
<!-- 210&#45;&gt;209+210 -->
<g id="edge8" class="edge"><title>210&#45;&gt;209+210</title>
<path fill="none" stroke="black" d="M178.811,-815.823C166.441,-798.176 155.957,-783.219 153.529,-779.755"/>
</g>
<!-- 304 -->
<g id="node8" class="node"><title>304</title>
<g id="a_node8"><a xlink:href="http://awoiaf.westeros.org/index.php/Amerei_Frey" xlink:title="Amerei Frey\n282&#45;" target="_blank">
<polygon fill="white" stroke="black" points="105.5,-109 0.5,-109 0.5,-3 105.5,-3 105.5,-109"/>
<text text-anchor="middle" x="53" y="-59.8" font-family="Times,serif" font-size="14.00">Amerei Frey</text>
<text text-anchor="middle" x="53" y="-44.8" font-family="Times,serif" font-size="14.00">282&#45;</text>
</a>
</g>
</g>
<!-- 306 -->
<g id="node9" class="node"><title>306</title>
<g id="a_node9"><a xlink:href="http://awoiaf.westeros.org/index.php/Walda_Frey_(daughter_of_Merrett)" xlink:title="Walda Frey\n283&#45;" target="_blank">
<polygon fill="white" stroke="black" points="221.5,-105 124.5,-105 124.5,-7 221.5,-7 221.5,-105"/>
<text text-anchor="middle" x="173" y="-59.8" font-family="Times,serif" font-size="14.00">Walda Frey</text>
<text text-anchor="middle" x="173" y="-44.8" font-family="Times,serif" font-size="14.00">283&#45;</text>
</a>
</g>
</g>
<!-- 315 -->
<g id="node10" class="node"><title>315</title>
<g id="a_node10"><a xlink:href="http://awoiaf.westeros.org/index.php/Marissa_Frey" xlink:title="Marissa Frey\n286&#45;" target="_blank">
<polygon fill="white" stroke="black" points="351.5,-112 240.5,-112 240.5,-7.10543e-15 351.5,-7.10543e-15 351.5,-112"/>
<text text-anchor="middle" x="296" y="-59.8" font-family="Times,serif" font-size="14.00">Marissa Frey</text>
<text text-anchor="middle" x="296" y="-44.8" font-family="Times,serif" font-size="14.00">286&#45;</text>
</a>
</g>
</g>
<!-- 316 -->
<g id="node11" class="node"><title>316</title>
<g id="a_node11"><a xlink:href="http://awoiaf.westeros.org/index.php/Walder_Frey_(son_of_Merrett)" xlink:title="Walder Frey\n291&#45;300" target="_blank">
<polygon fill="white" stroke="black" points="474,-108 370,-108 370,-4 474,-4 474,-108"/>
<text text-anchor="middle" x="422" y="-59.8" font-family="Times,serif" font-size="14.00">Walder Frey</text>
<text text-anchor="middle" x="422" y="-44.8" font-family="Times,serif" font-size="14.00">291&#45;300</text>
</a>
</g>
</g>
<!-- 301 -->
<g id="node12" class="node"><title>301</title>
<g id="a_node12"><a xlink:href="http://awoiaf.westeros.org/index.php/Mariya_Darry" xlink:title="Mariya Darry\n???&#45;" target="_blank">
<polygon fill="white" stroke="black" points="225.25,-301.5 112.75,-301.5 112.75,-188.5 225.25,-188.5 225.25,-301.5"/>
<text text-anchor="middle" x="169" y="-248.8" font-family="Times,serif" font-size="14.00">Mariya Darry</text>
<text text-anchor="middle" x="169" y="-233.8" font-family="Times,serif" font-size="14.00">???&#45;</text>
</a>
</g>
</g>
<!-- 301&#45;&gt;300+301 -->
<g id="edge2" class="edge"><title>301&#45;&gt;300+301</title>
<path fill="none" stroke="black" d="M207.937,-188.291C220.049,-170.96 230.92,-155.407 233.448,-151.79"/>
</g>
<!-- 300+301&#45;&gt;304 -->
<g id="edge12" class="edge"><title>300+301&#45;&gt;304</title>
<path fill="none" stroke="black" d="M232.492,-148.778C222.005,-147.189 159.096,-136.871 115,-112 111.867,-110.233 108.754,-108.286 105.688,-106.212"/>
</g>
<!-- 300+301&#45;&gt;306 -->
<g id="edge13" class="edge"><title>300+301&#45;&gt;306</title>
<path fill="none" stroke="black" d="M233.315,-147.967C230.291,-143.407 217.719,-124.444 204.829,-105.004"/>
</g>
<!-- 300+301&#45;&gt;315 -->
<g id="edge14" class="edge"><title>300+301&#45;&gt;315</title>
<path fill="none" stroke="black" d="M234.696,-147.967C237.384,-143.979 247.493,-128.979 258.749,-112.276"/>
</g>
<!-- 300+301&#45;&gt;316 -->
<g id="edge15" class="edge"><title>300+301&#45;&gt;316</title>
<path fill="none" stroke="black" d="M235.598,-148.8C246.704,-147.355 313.327,-137.84 360,-112 363.273,-110.188 366.521,-108.177 369.714,-106.025"/>
</g>
<!-- 214+278&#45;&gt;300 -->
<g id="edge9" class="edge"><title>214+278&#45;&gt;300</title>
<path fill="none" stroke="black" d="M299,-337.956C299,-333.825 299,-318.003 299,-300.62"/>
</g>
<!-- 211+213&#45;&gt;214 -->
<g id="edge10" class="edge"><title>211+213&#45;&gt;214</title>
<path fill="none" stroke="black" d="M228,-557.787C228,-552.017 228,-526.602 228,-502.015"/>
</g>
<!-- 209+210&#45;&gt;211 -->
<g id="edge11" class="edge"><title>209+210&#45;&gt;211</title>
<path fill="none" stroke="black" d="M153,-775.798C153,-770.839 153,-751.234 153,-730.224"/>
</g>
</g>
</svg>
