<?xml version="1.0" encoding="UTF-8" standalone="no"?>
<!DOCTYPE svg PUBLIC "-//W3C//DTD SVG 1.1//EN"
 "http://www.w3.org/Graphics/SVG/1.1/DTD/svg11.dtd">
<!-- Generated by graphviz version 2.36.0 (20140111.2315)
 -->
<!-- Title:   Pages: 1 -->
<svg width="951pt" height="538pt"
 viewBox="0.00 0.00 951.00 538.00" xmlns="http://www.w3.org/2000/svg" xmlns:xlink="http://www.w3.org/1999/xlink">
<g id="graph0" class="graph" transform="scale(1 1) rotate(0) translate(4 534)">
<title> </title>
<polygon fill="white" stroke="none" points="-4,4 -4,-534 947,-534 947,4 -4,4"/>
<!-- 13 -->
<g id="node1" class="node"><title>13</title>
<g id="a_node1"><a xlink:href="/character/display?id=Minisa_Whent" xlink:title="Minisa Whent" target="_blank">
<polygon fill="white" stroke="black" points="343,-530 217,-530 217,-404 343,-404 343,-530"/>
</a>
</g>
<g id="a_node1_0"><a xlink:href="http://awoiaf.westeros.org/index.php/Minisa_Whent" xlink:title="Minisa Whent" target="_blank">
<text text-anchor="start" x="229.5" y="-470.3" font-family="Times,serif" font-size="14.00">Minisa Whent</text>
<text text-anchor="start" x="250.5" y="-455.3" font-family="Times,serif" font-size="14.00">250&#45;268</text>
</a>
</g>
<g><a xlink:href="/character/display?id=Minisa_Whent" xlink:title="Minisa Whent" target="_blank">
</a>
</g>
</g>
<!-- 12+13 -->
<g id="node15" class="node"><title>12+13</title>
<g id="a_node15"><a xlink:title=" ">
<ellipse fill="black" stroke="black" cx="349" cy="-366" rx="1.8" ry="1.8"/>
</a>
</g>
</g>
<!-- 13&#45;&gt;12+13 -->
<g id="edge2" class="edge"><title>13&#45;&gt;12+13</title>
<g id="a_edge2"><a xlink:title=" ">
<path fill="none" stroke="black" d="M323.307,-403.864C335.437,-386.46 346.011,-371.289 348.465,-367.768"/>
</a>
</g>
</g>
<!-- 2 -->
<g id="node2" class="node"><title>2</title>
<g id="a_node2"><a xlink:href="/character/display?id=Catelyn_Stark" xlink:title="Catelyn Tully" target="_blank">
<polygon fill="white" stroke="black" points="614.25,-327.5 493.75,-327.5 493.75,-206.5 614.25,-206.5 614.25,-327.5"/>
</a>
</g>
<g id="a_node2_1"><a xlink:href="http://awoiaf.westeros.org/index.php/Catelyn_Stark" xlink:title="Catelyn Tully" target="_blank">
<text text-anchor="start" x="506.5" y="-270.3" font-family="Times,serif" font-size="14.00">Catelyn Tully</text>
<text text-anchor="start" x="525" y="-255.3" font-family="Times,serif" font-size="14.00">264&#45;299</text>
</a>
</g>
<g><a xlink:href="/character/display?id=Catelyn_Stark" xlink:title="Catelyn Tully" target="_blank">
</a>
</g>
</g>
<!-- 1+2 -->
<g id="node16" class="node"><title>1+2</title>
<g id="a_node16"><a xlink:title=" ">
<ellipse fill="black" stroke="black" cx="616" cy="-168" rx="1.8" ry="1.8"/>
</a>
</g>
</g>
<!-- 2&#45;&gt;1+2 -->
<g id="edge4" class="edge"><title>2&#45;&gt;1+2</title>
<g id="a_edge4"><a xlink:title=" ">
<path fill="none" stroke="black" d="M592.206,-206.225C603.37,-188.759 613.214,-173.358 615.501,-169.781"/>
</a>
</g>
</g>
<!-- 19 -->
<g id="node3" class="node"><title>19</title>
<g id="a_node3"><a xlink:href="/character/display?id=Edmure_Tully" xlink:title="Edmure Tully" target="_blank">
<polygon fill="white" stroke="black" points="475,-328 353,-328 353,-206 475,-206 475,-328"/>
</a>
</g>
<g id="a_node3_2"><a xlink:href="http://awoiaf.westeros.org/index.php/Edmure_Tully" xlink:title="Edmure Tully" target="_blank">
<text text-anchor="start" x="365.5" y="-270.3" font-family="Times,serif" font-size="14.00">Edmure Tully</text>
<text text-anchor="start" x="398" y="-255.3" font-family="Times,serif" font-size="14.00">267&#45;</text>
</a>
</g>
<g><a xlink:href="/character/display?id=Edmure_Tully" xlink:title="Edmure Tully" target="_blank">
</a>
</g>
</g>
<!-- 20 -->
<g id="node4" class="node"><title>20</title>
<g id="a_node4"><a xlink:href="/character/display?id=Lysa_Arryn" xlink:title="Lysa Tully" target="_blank">
<polygon fill="white" stroke="black" points="334.25,-316.5 235.75,-316.5 235.75,-217.5 334.25,-217.5 334.25,-316.5"/>
</a>
</g>
<g id="a_node4_3"><a xlink:href="http://awoiaf.westeros.org/index.php/Lysa_Arryn" xlink:title="Lysa Tully" target="_blank">
<text text-anchor="start" x="248.5" y="-270.3" font-family="Times,serif" font-size="14.00">Lysa Tully</text>
<text text-anchor="start" x="256" y="-255.3" font-family="Times,serif" font-size="14.00">266&#45;300</text>
</a>
</g>
<g><a xlink:href="/character/display?id=Lysa_Arryn" xlink:title="Lysa Tully" target="_blank">
</a>
</g>
</g>
<!-- 22+20 -->
<g id="node17" class="node"><title>22+20</title>
<g id="a_node17"><a xlink:title=" ">
<ellipse fill="black" stroke="black" cx="135" cy="-168" rx="1.8" ry="1.8"/>
</a>
</g>
</g>
<!-- 20&#45;&gt;22+20 -->
<g id="edge6" class="edge"><title>20&#45;&gt;22+20</title>
<g id="a_edge6"><a xlink:title=" ">
<path fill="none" stroke="black" d="M240.932,-217.471C236.112,-213.322 231.099,-209.414 226,-206 193.122,-183.987 145.098,-171.485 136.383,-169.334"/>
</a>
</g>
</g>
<!-- 108 -->
<g id="node5" class="node"><title>108</title>
<g id="a_node5"><a xlink:title="Three Sons" target="_blank">
<polygon fill="white" stroke="black" points="217.25,-319.5 112.75,-319.5 112.75,-214.5 217.25,-214.5 217.25,-319.5"/>
<text text-anchor="start" x="125.5" y="-270.3" font-family="Times,serif" font-size="14.00">Three Sons</text>
<text text-anchor="start" x="140.5" y="-255.3" font-family="Times,serif" font-size="14.00">???&#45;???</text>
</a>
</g>
</g>
<!-- 3 -->
<g id="node6" class="node"><title>3</title>
<g id="a_node6"><a xlink:href="/character/display?id=Robb_Stark" xlink:title="Robb Stark" target="_blank">
<polygon fill="white" stroke="black" points="942.5,-118 837.5,-118 837.5,-12 942.5,-12 942.5,-118"/>
</a>
</g>
<g id="a_node6_5"><a xlink:href="http://awoiaf.westeros.org/index.php/Robb_Stark" xlink:title="Robb Stark" target="_blank">
<text text-anchor="start" x="849.5" y="-68.3" font-family="Times,serif" font-size="14.00">Robb Stark</text>
<text text-anchor="start" x="860.5" y="-53.3" font-family="Times,serif" font-size="14.00">283&#45;299</text>
</a>
</g>
<g><a xlink:href="/character/display?id=Robb_Stark" xlink:title="Robb Stark" target="_blank">
</a>
</g>
</g>
<!-- 4 -->
<g id="node7" class="node"><title>4</title>
<g id="a_node7"><a xlink:href="/character/display?id=Sansa_Stark" xlink:title="Sansa Stark" target="_blank">
<polygon fill="white" stroke="black" points="411.25,-120.5 300.75,-120.5 300.75,-9.5 411.25,-9.5 411.25,-120.5"/>
</a>
</g>
<g id="a_node7_6"><a xlink:href="http://awoiaf.westeros.org/index.php/Sansa_Stark" xlink:title="Sansa Stark" target="_blank">
<text text-anchor="start" x="313.5" y="-68.3" font-family="Times,serif" font-size="14.00">Sansa Stark</text>
<text text-anchor="start" x="340.5" y="-53.3" font-family="Times,serif" font-size="14.00">286&#45;</text>
</a>
</g>
<g><a xlink:href="/character/display?id=Sansa_Stark" xlink:title="Sansa Stark" target="_blank">
</a>
</g>
</g>
<!-- 5 -->
<g id="node8" class="node"><title>5</title>
<g id="a_node8"><a xlink:href="/character/display?id=Arya_Stark" xlink:title="Arya Stark" target="_blank">
<polygon fill="white" stroke="black" points="532.25,-116.5 429.75,-116.5 429.75,-13.5 532.25,-13.5 532.25,-116.5"/>
</a>
</g>
<g id="a_node8_7"><a xlink:href="http://awoiaf.westeros.org/index.php/Arya_Stark" xlink:title="Arya Stark" target="_blank">
<text text-anchor="start" x="442.5" y="-68.3" font-family="Times,serif" font-size="14.00">Arya Stark</text>
<text text-anchor="start" x="465.5" y="-53.3" font-family="Times,serif" font-size="14.00">289&#45;</text>
</a>
</g>
<g><a xlink:href="/character/display?id=Arya_Stark" xlink:title="Arya Stark" target="_blank">
</a>
</g>
</g>
<!-- 6 -->
<g id="node9" class="node"><title>6</title>
<g id="a_node9"><a xlink:href="/character/display?id=Bran_Stark" xlink:title="Brandon Stark" target="_blank">
<polygon fill="white" stroke="black" points="681,-130 551,-130 551,-0 681,-0 681,-130"/>
</a>
</g>
<g id="a_node9_8"><a xlink:href="http://awoiaf.westeros.org/index.php/Bran_Stark" xlink:title="Brandon Stark" target="_blank">
<text text-anchor="start" x="563.5" y="-68.3" font-family="Times,serif" font-size="14.00">Brandon Stark</text>
<text text-anchor="start" x="600" y="-53.3" font-family="Times,serif" font-size="14.00">290&#45;</text>
</a>
</g>
<g><a xlink:href="/character/display?id=Bran_Stark" xlink:title="Brandon Stark" target="_blank">
</a>
</g>
</g>
<!-- 7 -->
<g id="node10" class="node"><title>7</title>
<g id="a_node10"><a xlink:href="/character/display?id=Rickon_Stark" xlink:title="Rickon Stark" target="_blank">
<polygon fill="white" stroke="black" points="818.25,-124.5 699.75,-124.5 699.75,-5.5 818.25,-5.5 818.25,-124.5"/>
</a>
</g>
<g id="a_node10_9"><a xlink:href="http://awoiaf.westeros.org/index.php/Rickon_Stark" xlink:title="Rickon Stark" target="_blank">
<text text-anchor="start" x="712.5" y="-68.3" font-family="Times,serif" font-size="14.00">Rickon Stark</text>
<text text-anchor="start" x="743.5" y="-53.3" font-family="Times,serif" font-size="14.00">295&#45;</text>
</a>
</g>
<g><a xlink:href="/character/display?id=Rickon_Stark" xlink:title="Rickon Stark" target="_blank">
</a>
</g>
</g>
<!-- 23 -->
<g id="node11" class="node"><title>23</title>
<g id="a_node11"><a xlink:href="/character/display?id=Robert_Arryn" xlink:title="Robert Arryn" target="_blank">
<polygon fill="white" stroke="black" points="194.5,-125 75.5,-125 75.5,-5 194.5,-5 194.5,-125"/>
</a>
</g>
<g id="a_node11_10"><a xlink:href="http://awoiaf.westeros.org/index.php/Robert_Arryn" xlink:title="Robert Arryn" target="_blank">
<text text-anchor="start" x="87.5" y="-68.3" font-family="Times,serif" font-size="14.00">Robert Arryn</text>
<text text-anchor="start" x="119" y="-53.3" font-family="Times,serif" font-size="14.00">292&#45;</text>
</a>
</g>
<g><a xlink:href="/character/display?id=Robert_Arryn" xlink:title="Robert Arryn" target="_blank">
</a>
</g>
</g>
<!-- 12 -->
<g id="node12" class="node"><title>12</title>
<g id="a_node12"><a xlink:href="/character/display?id=Hoster_Tully" xlink:title="Hoster Tully" target="_blank">
<polygon fill="white" stroke="black" points="476.25,-524.5 361.75,-524.5 361.75,-409.5 476.25,-409.5 476.25,-524.5"/>
</a>
</g>
<g id="a_node12_11"><a xlink:href="http://awoiaf.westeros.org/index.php/Hoster_Tully" xlink:title="Hoster Tully" target="_blank">
<text text-anchor="start" x="374.5" y="-470.3" font-family="Times,serif" font-size="14.00">Hoster Tully</text>
<text text-anchor="start" x="390" y="-455.3" font-family="Times,serif" font-size="14.00">237&#45;299</text>
</a>
</g>
<g><a xlink:href="/character/display?id=Hoster_Tully" xlink:title="Hoster Tully" target="_blank">
</a>
</g>
</g>
<!-- 12&#45;&gt;12+13 -->
<g id="edge1" class="edge"><title>12&#45;&gt;12+13</title>
<g id="a_edge1"><a xlink:title=" ">
<path fill="none" stroke="black" d="M378.889,-409.272C365.204,-389.917 352.584,-372.069 349.643,-367.909"/>
</a>
</g>
</g>
<!-- 1 -->
<g id="node13" class="node"><title>1</title>
<g id="a_node13"><a xlink:href="/character/display?id=Eddard_Stark" xlink:title="Eddard Stark" target="_blank">
<polygon fill="white" stroke="black" points="755,-328 633,-328 633,-206 755,-206 755,-328"/>
</a>
</g>
<g id="a_node13_12"><a xlink:href="http://awoiaf.westeros.org/index.php/Eddard_Stark" xlink:title="Eddard Stark" target="_blank">
<text text-anchor="start" x="645.5" y="-270.3" font-family="Times,serif" font-size="14.00">Eddard Stark</text>
<text text-anchor="start" x="664.5" y="-255.3" font-family="Times,serif" font-size="14.00">263&#45;299</text>
</a>
</g>
<g><a xlink:href="/character/display?id=Eddard_Stark" xlink:title="Eddard Stark" target="_blank">
</a>
</g>
</g>
<!-- 1&#45;&gt;1+2 -->
<g id="edge3" class="edge"><title>1&#45;&gt;1+2</title>
<g id="a_edge3"><a xlink:title=" ">
<path fill="none" stroke="black" d="M645.711,-205.948C631.749,-188.585 619.473,-173.319 616.622,-169.774"/>
</a>
</g>
</g>
<!-- 22 -->
<g id="node14" class="node"><title>22</title>
<g id="a_node14"><a xlink:href="/character/display?id=Jon_Arryn" xlink:title="Jon Arryn" target="_blank">
<polygon fill="white" stroke="black" points="94.25,-314.5 -0.25,-314.5 -0.25,-219.5 94.25,-219.5 94.25,-314.5"/>
</a>
</g>
<g id="a_node14_13"><a xlink:href="http://awoiaf.westeros.org/index.php/Jon_Arryn" xlink:title="Jon Arryn" target="_blank">
<text text-anchor="start" x="12.5" y="-270.3" font-family="Times,serif" font-size="14.00">Jon Arryn</text>
<text text-anchor="start" x="18" y="-255.3" font-family="Times,serif" font-size="14.00">217&#45;298</text>
</a>
</g>
<g><a xlink:href="/character/display?id=Jon_Arryn" xlink:title="Jon Arryn" target="_blank">
</a>
</g>
</g>
<!-- 22&#45;&gt;22+20 -->
<g id="edge5" class="edge"><title>22&#45;&gt;22+20</title>
<g id="a_edge5"><a xlink:title=" ">
<path fill="none" stroke="black" d="M89.1958,-219.489C108.957,-197.706 129.205,-175.388 133.958,-170.148"/>
</a>
</g>
</g>
<!-- 12+13&#45;&gt;2 -->
<g id="edge7" class="edge"><title>12+13&#45;&gt;2</title>
<path fill="none" stroke="black" d="M350.416,-364.85C361.355,-363.647 433.344,-354.894 484,-328 487.252,-326.274 490.484,-324.373 493.674,-322.344"/>
</g>
<!-- 12+13&#45;&gt;19 -->
<g id="edge8" class="edge"><title>12+13&#45;&gt;19</title>
<path fill="none" stroke="black" d="M349.73,-363.911C352.45,-359.852 362.42,-344.973 373.724,-328.104"/>
</g>
<!-- 12+13&#45;&gt;20 -->
<g id="edge9" class="edge"><title>12+13&#45;&gt;20</title>
<path fill="none" stroke="black" d="M348.281,-363.911C345.013,-358.957 331.109,-337.884 317.164,-316.749"/>
</g>
<!-- 12+13&#45;&gt;108 -->
<g id="edge10" class="edge"><title>12+13&#45;&gt;108</title>
<path fill="none" stroke="black" d="M347.426,-364.816C336.485,-363.484 270.898,-354.589 226,-328 221.782,-325.502 217.638,-322.651 213.619,-319.58"/>
</g>
<!-- 1+2&#45;&gt;3 -->
<g id="edge11" class="edge"><title>1+2&#45;&gt;3</title>
<path fill="none" stroke="black" d="M617.82,-167.087C633.608,-167.766 748.629,-171.143 827,-130 833.212,-126.739 839.187,-122.647 844.816,-118.116"/>
</g>
<!-- 1+2&#45;&gt;4 -->
<g id="edge12" class="edge"><title>1+2&#45;&gt;4</title>
<path fill="none" stroke="black" d="M614.321,-167.041C599.758,-167.332 493.645,-168.058 421,-130 415.95,-127.354 411.035,-124.187 406.316,-120.697"/>
</g>
<!-- 1+2&#45;&gt;5 -->
<g id="edge13" class="edge"><title>1+2&#45;&gt;5</title>
<path fill="none" stroke="black" d="M614.483,-166.468C606.459,-163.607 568.336,-149.466 542,-130 536.569,-125.986 531.203,-121.46 526.039,-116.719"/>
</g>
<!-- 1+2&#45;&gt;6 -->
<g id="edge14" class="edge"><title>1+2&#45;&gt;6</title>
<path fill="none" stroke="black" d="M616,-165.866C616,-161.77 616,-147.089 616,-130.197"/>
</g>
<!-- 1+2&#45;&gt;7 -->
<g id="edge15" class="edge"><title>1+2&#45;&gt;7</title>
<path fill="none" stroke="black" d="M617.496,-166.438C625.413,-163.428 663.078,-148.646 690,-130 693.224,-127.767 696.449,-125.391 699.648,-122.917"/>
</g>
<!-- 22+20&#45;&gt;23 -->
<g id="edge16" class="edge"><title>22+20&#45;&gt;23</title>
<path fill="none" stroke="black" d="M135,-165.866C135,-161.358 135,-144.031 135,-125.044"/>
</g>
</g>
</svg>
