<?xml version="1.0" encoding="UTF-8" standalone="no"?>
<!DOCTYPE svg PUBLIC "-//W3C//DTD SVG 1.1//EN"
 "http://www.w3.org/Graphics/SVG/1.1/DTD/svg11.dtd">
<!-- Generated by graphviz version 2.36.0 (20140111.2315)
 -->
<!-- Title: family Pages: 1 -->
<svg width="281pt" height="310pt"
 viewBox="0.00 0.00 281.00 310.00" xmlns="http://www.w3.org/2000/svg" xmlns:xlink="http://www.w3.org/1999/xlink">
<g id="graph0" class="graph" transform="scale(1 1) rotate(0) translate(4 306)">
<title>family</title>
<polygon fill="white" stroke="none" points="-4,4 -4,-306 277,-306 277,4 -4,4"/>
<!-- 9 -->
<g id="node1" class="node"><title>9</title>
<polygon fill="white" stroke="black" points="142,-302 0,-302 0,-160 142,-160 142,-302"/>
<text text-anchor="middle" x="71" y="-234.8" font-family="Times,serif" font-size="14.00">Unknown Woman</text>
<text text-anchor="middle" x="71" y="-219.8" font-family="Times,serif" font-size="14.00">???&#45;???</text>
</g>
<!-- 1+9 -->
<g id="node4" class="node"><title>1+9</title>
<ellipse fill="black" stroke="black" cx="144" cy="-122" rx="1.8" ry="1.8"/>
</g>
<!-- 9&#45;&gt;1+9 -->
<g id="edge2" class="edge"><title>9&#45;&gt;1+9</title>
<path fill="none" stroke="black" stroke-dasharray="5,2" d="M118.878,-159.823C130.917,-142.176 141.122,-127.219 143.485,-123.755"/>
</g>
<!-- 8 -->
<g id="node2" class="node"><title>8</title>
<g id="a_node2"><a xlink:href="http://awoiaf.westeros.org/index.php/Jon_Snow" xlink:title="Jon Snow\n283&#45;" target="_blank">
<polygon fill="white" stroke="black" points="185.25,-83.5 102.75,-83.5 102.75,-0.5 185.25,-0.5 185.25,-83.5"/>
<text text-anchor="middle" x="144" y="-45.8" font-family="Times,serif" font-size="14.00">Jon Snow</text>
<text text-anchor="middle" x="144" y="-30.8" font-family="Times,serif" font-size="14.00">283&#45;</text>
</a>
</g>
</g>
<!-- 1 -->
<g id="node3" class="node"><title>1</title>
<g id="a_node3"><a xlink:href="http://awoiaf.westeros.org/index.php/Eddard_Stark" xlink:title="Eddard Stark\n263&#45;299" target="_blank">
<polygon fill="white" stroke="black" points="273.25,-287.5 160.75,-287.5 160.75,-174.5 273.25,-174.5 273.25,-287.5"/>
<text text-anchor="middle" x="217" y="-234.8" font-family="Times,serif" font-size="14.00">Eddard Stark</text>
<text text-anchor="middle" x="217" y="-219.8" font-family="Times,serif" font-size="14.00">263&#45;299</text>
</a>
</g>
</g>
<!-- 1&#45;&gt;1+9 -->
<g id="edge1" class="edge"><title>1&#45;&gt;1+9</title>
<path fill="none" stroke="black" stroke-dasharray="5,2" d="M179.003,-174.306C163.483,-151.557 148.324,-129.338 144.777,-124.138"/>
</g>
<!-- 1+9&#45;&gt;8 -->
<g id="edge3" class="edge"><title>1+9&#45;&gt;8</title>
<path fill="none" stroke="black" stroke-dasharray="5,2" d="M144,-120.124C144,-116.275 144,-100.32 144,-83.9131"/>
</g>
</g>
</svg>
