<?xml version="1.0" encoding="UTF-8" standalone="no"?>
<!DOCTYPE svg PUBLIC "-//W3C//DTD SVG 1.1//EN"
 "http://www.w3.org/Graphics/SVG/1.1/DTD/svg11.dtd">
<!-- Generated by graphviz version 2.36.0 (20140111.2315)
 -->
<!-- Title: family Pages: 1 -->
<svg width="1181pt" height="864pt"
 viewBox="0.00 0.00 1181.00 864.00" xmlns="http://www.w3.org/2000/svg" xmlns:xlink="http://www.w3.org/1999/xlink">
<g id="graph0" class="graph" transform="scale(1 1) rotate(0) translate(4 860)">
<title>family</title>
<polygon fill="white" stroke="none" points="-4,4 -4,-860 1177,-860 1177,4 -4,4"/>
<!-- 122 -->
<g id="node1" class="node"><title>122</title>
<g id="a_node1"><a xlink:href="/character/display?id=Oberyn_Martell" xlink:title="Oberyn Martell" target="_blank">
<polygon fill="white" stroke="black" points="517,-369 381,-369 381,-233 517,-233 517,-369"/>
</a>
</g>
<g id="a_node1_0"><a xlink:href="http://awoiaf.westeros.org/index.php/Oberyn_Martell" xlink:title="Oberyn Martell" target="_blank">
<text text-anchor="start" x="393.5" y="-304.3" font-family="Times,serif" font-size="14.00">Oberyn Martell</text>
<text text-anchor="start" x="419.5" y="-289.3" font-family="Times,serif" font-size="14.00">257&#45;300</text>
</a>
</g>
<g><a xlink:href="/character/display?id=Oberyn_Martell" xlink:title="Oberyn Martell" target="_blank">
</a>
</g>
</g>
<!-- 122+123 -->
<g id="node19" class="node"><title>122+123</title>
<ellipse fill="black" stroke="black" cx="106" cy="-166" rx="1.8" ry="1.8"/>
</g>
<!-- 122&#45;&gt;122+123 -->
<g id="edge1" class="edge"><title>122&#45;&gt;122+123</title>
<path fill="none" stroke="black" stroke-dasharray="5,2" d="M405.604,-232.816C395.521,-221.61 383.906,-211.28 371,-204 322.044,-176.384 128.837,-167.916 107.852,-167.072"/>
</g>
<!-- 122+124 -->
<g id="node20" class="node"><title>122+124</title>
<ellipse fill="black" stroke="black" cx="304" cy="-166" rx="1.8" ry="1.8"/>
</g>
<!-- 122&#45;&gt;122+124 -->
<g id="edge3" class="edge"><title>122&#45;&gt;122+124</title>
<path fill="none" stroke="black" stroke-dasharray="5,2" d="M400.105,-232.881C391.054,-222.577 381.213,-212.542 371,-204 347.76,-184.563 312.771,-170.399 305.395,-167.534"/>
</g>
<!-- 122+125 -->
<g id="node21" class="node"><title>122+125</title>
<ellipse fill="black" stroke="black" cx="471" cy="-166" rx="1.8" ry="1.8"/>
</g>
<!-- 122&#45;&gt;122+125 -->
<g id="edge5" class="edge"><title>122&#45;&gt;122+125</title>
<path fill="none" stroke="black" stroke-dasharray="5,2" d="M460.129,-232.721C465.074,-202.825 469.984,-173.14 470.862,-167.836"/>
</g>
<!-- 122+126 -->
<g id="node22" class="node"><title>122+126</title>
<ellipse fill="black" stroke="black" cx="612" cy="-166" rx="1.8" ry="1.8"/>
</g>
<!-- 122&#45;&gt;122+126 -->
<g id="edge7" class="edge"><title>122&#45;&gt;122+126</title>
<path fill="none" stroke="black" stroke-dasharray="5,2" d="M495.607,-232.974C504.866,-222.422 515.119,-212.281 526,-204 556.007,-181.163 602.257,-169.33 610.665,-167.312"/>
</g>
<!-- 122+131 -->
<g id="node23" class="node"><title>122+131</title>
<ellipse fill="black" stroke="black" cx="902" cy="-166" rx="1.8" ry="1.8"/>
</g>
<!-- 122&#45;&gt;122+131 -->
<g id="edge9" class="edge"><title>122&#45;&gt;122+131</title>
<path fill="none" stroke="black" stroke-dasharray="5,2" d="M491.051,-232.889C501.134,-221.529 512.85,-211.123 526,-204 596.652,-165.729 876.453,-166.822 900.368,-166.987"/>
</g>
<!-- 113 -->
<g id="node2" class="node"><title>113</title>
<g id="a_node2"><a xlink:title="Unknown Man" target="_blank">
<polygon fill="white" stroke="black" points="434,-616 304,-616 304,-486 434,-486 434,-616"/>
<text text-anchor="start" x="316.5" y="-554.3" font-family="Times,serif" font-size="14.00">Unknown Man</text>
<text text-anchor="start" x="344" y="-539.3" font-family="Times,serif" font-size="14.00">???&#45;???</text>
</a>
</g>
</g>
<!-- 113+111 -->
<g id="node24" class="node"><title>113+111</title>
<ellipse fill="black" stroke="black" cx="449" cy="-436" rx="1.8" ry="1.8"/>
</g>
<!-- 113&#45;&gt;113+111 -->
<g id="edge11" class="edge"><title>113&#45;&gt;113+111</title>
<path fill="none" stroke="black" d="M414.376,-485.906C430.175,-463.59 444.835,-442.883 448.253,-438.055"/>
</g>
<!-- 111 -->
<g id="node3" class="node"><title>111</title>
<g id="a_node3"><a xlink:title="Princess of Dorne" target="_blank">
<polygon fill="white" stroke="black" points="605.25,-627.5 452.75,-627.5 452.75,-474.5 605.25,-474.5 605.25,-627.5"/>
<text text-anchor="start" x="465.5" y="-554.3" font-family="Times,serif" font-size="14.00">Princess of Dorne</text>
<text text-anchor="start" x="504.5" y="-539.3" font-family="Times,serif" font-size="14.00">???&#45;???</text>
</a>
</g>
</g>
<!-- 111&#45;&gt;113+111 -->
<g id="edge12" class="edge"><title>111&#45;&gt;113+111</title>
<path fill="none" stroke="black" d="M475.417,-474.314C462.665,-456.302 452.004,-441.243 449.537,-437.759"/>
</g>
<!-- 109 -->
<g id="node4" class="node"><title>109</title>
<g id="a_node4"><a xlink:title="Unknown Martell" target="_blank">
<polygon fill="white" stroke="black" points="520.25,-855.5 369.75,-855.5 369.75,-704.5 520.25,-704.5 520.25,-855.5"/>
<text text-anchor="start" x="382.5" y="-783.3" font-family="Times,serif" font-size="14.00">Unknown Martell</text>
<text text-anchor="start" x="420.5" y="-768.3" font-family="Times,serif" font-size="14.00">???&#45;???</text>
</a>
</g>
</g>
<!-- 109+110 -->
<g id="node25" class="node"><title>109+110</title>
<ellipse fill="black" stroke="black" cx="529" cy="-666" rx="1.8" ry="1.8"/>
</g>
<!-- 109&#45;&gt;109+110 -->
<g id="edge13" class="edge"><title>109&#45;&gt;109+110</title>
<path fill="none" stroke="black" d="M501.029,-704.294C514.512,-686.318 525.815,-671.247 528.43,-667.76"/>
</g>
<!-- 110 -->
<g id="node5" class="node"><title>110</title>
<g id="a_node5"><a xlink:title="Unknown Woman" target="_blank">
<polygon fill="white" stroke="black" points="689.25,-855.5 538.75,-855.5 538.75,-704.5 689.25,-704.5 689.25,-855.5"/>
<text text-anchor="start" x="551.5" y="-783.3" font-family="Times,serif" font-size="14.00">Unknown Woman</text>
<text text-anchor="start" x="589.5" y="-768.3" font-family="Times,serif" font-size="14.00">???&#45;???</text>
</a>
</g>
</g>
<!-- 110&#45;&gt;109+110 -->
<g id="edge14" class="edge"><title>110&#45;&gt;109+110</title>
<path fill="none" stroke="black" d="M557.304,-704.294C543.661,-686.318 532.223,-671.247 529.577,-667.76"/>
</g>
<!-- 127 -->
<g id="node6" class="node"><title>127</title>
<g id="a_node6"><a xlink:href="/character/display?id=Obara_Sand" xlink:title="Obara Sand" target="_blank">
<polygon fill="white" stroke="black" points="160.25,-118.5 51.75,-118.5 51.75,-9.5 160.25,-9.5 160.25,-118.5"/>
</a>
</g>
<g id="a_node6_5"><a xlink:href="http://awoiaf.westeros.org/index.php/Obara_Sand" xlink:title="Obara Sand" target="_blank">
<text text-anchor="start" x="64.5" y="-67.3" font-family="Times,serif" font-size="14.00">Obara Sand</text>
<text text-anchor="start" x="90.5" y="-52.3" font-family="Times,serif" font-size="14.00">271&#45;</text>
</a>
</g>
<g><a xlink:href="/character/display?id=Obara_Sand" xlink:title="Obara Sand" target="_blank">
</a>
</g>
</g>
<!-- 128 -->
<g id="node7" class="node"><title>128</title>
<g id="a_node7"><a xlink:href="/character/display?id=Nymeria_Sand" xlink:title="Nymeria Sand" target="_blank">
<polygon fill="white" stroke="black" points="368,-128 240,-128 240,-0 368,-0 368,-128"/>
</a>
</g>
<g id="a_node7_6"><a xlink:href="http://awoiaf.westeros.org/index.php/Nymeria_Sand" xlink:title="Nymeria Sand" target="_blank">
<text text-anchor="start" x="252.5" y="-67.3" font-family="Times,serif" font-size="14.00">Nymeria Sand</text>
<text text-anchor="start" x="288" y="-52.3" font-family="Times,serif" font-size="14.00">274&#45;</text>
</a>
</g>
<g><a xlink:href="/character/display?id=Nymeria_Sand" xlink:title="Nymeria Sand" target="_blank">
</a>
</g>
</g>
<!-- 129 -->
<g id="node8" class="node"><title>129</title>
<g id="a_node8"><a xlink:href="/character/display?id=Tyene_Sand" xlink:title="Tyene Sand" target="_blank">
<polygon fill="white" stroke="black" points="525,-118 417,-118 417,-10 525,-10 525,-118"/>
</a>
</g>
<g id="a_node8_7"><a xlink:href="http://awoiaf.westeros.org/index.php/Tyene_Sand" xlink:title="Tyene Sand" target="_blank">
<text text-anchor="start" x="429.5" y="-67.3" font-family="Times,serif" font-size="14.00">Tyene Sand</text>
<text text-anchor="start" x="455" y="-52.3" font-family="Times,serif" font-size="14.00">276&#45;</text>
</a>
</g>
<g><a xlink:href="/character/display?id=Tyene_Sand" xlink:title="Tyene Sand" target="_blank">
</a>
</g>
</g>
<!-- 130 -->
<g id="node9" class="node"><title>130</title>
<g id="a_node9"><a xlink:href="/character/display?id=Sarella_Sand" xlink:title="Sarella Sand" target="_blank">
<polygon fill="white" stroke="black" points="669.25,-121.5 554.75,-121.5 554.75,-6.5 669.25,-6.5 669.25,-121.5"/>
</a>
</g>
<g id="a_node9_8"><a xlink:href="http://awoiaf.westeros.org/index.php/Sarella_Sand" xlink:title="Sarella Sand" target="_blank">
<text text-anchor="start" x="567.5" y="-67.3" font-family="Times,serif" font-size="14.00">Sarella Sand</text>
<text text-anchor="start" x="596.5" y="-52.3" font-family="Times,serif" font-size="14.00">280&#45;</text>
</a>
</g>
<g><a xlink:href="/character/display?id=Sarella_Sand" xlink:title="Sarella Sand" target="_blank">
</a>
</g>
</g>
<!-- 132 -->
<g id="node10" class="node"><title>132</title>
<g id="a_node10"><a xlink:href="/character/display?id=Elia_Sand" xlink:title="Elia Sand" target="_blank">
<polygon fill="white" stroke="black" points="785.25,-110.5 692.75,-110.5 692.75,-17.5 785.25,-17.5 785.25,-110.5"/>
</a>
</g>
<g id="a_node10_9"><a xlink:href="http://awoiaf.westeros.org/index.php/Elia_Sand" xlink:title="Elia Sand" target="_blank">
<text text-anchor="start" x="705.5" y="-67.3" font-family="Times,serif" font-size="14.00">Elia Sand</text>
<text text-anchor="start" x="723.5" y="-52.3" font-family="Times,serif" font-size="14.00">285&#45;</text>
</a>
</g>
<g><a xlink:href="/character/display?id=Elia_Sand" xlink:title="Elia Sand" target="_blank">
</a>
</g>
</g>
<!-- 133 -->
<g id="node11" class="node"><title>133</title>
<g id="a_node11"><a xlink:href="/character/display?id=Obella_Sand" xlink:title="Obella Sand" target="_blank">
<polygon fill="white" stroke="black" points="914.25,-119.5 803.75,-119.5 803.75,-8.5 914.25,-8.5 914.25,-119.5"/>
</a>
</g>
<g id="a_node11_10"><a xlink:href="http://awoiaf.westeros.org/index.php/Obella_Sand" xlink:title="Obella Sand" target="_blank">
<text text-anchor="start" x="816.5" y="-67.3" font-family="Times,serif" font-size="14.00">Obella Sand</text>
<text text-anchor="start" x="843.5" y="-52.3" font-family="Times,serif" font-size="14.00">287&#45;</text>
</a>
</g>
<g><a xlink:href="/character/display?id=Obella_Sand" xlink:title="Obella Sand" target="_blank">
</a>
</g>
</g>
<!-- 134 -->
<g id="node12" class="node"><title>134</title>
<g id="a_node12"><a xlink:href="/character/display?id=Dorea_Sand" xlink:title="Dorea Sand" target="_blank">
<polygon fill="white" stroke="black" points="1041,-118 933,-118 933,-10 1041,-10 1041,-118"/>
</a>
</g>
<g id="a_node12_11"><a xlink:href="http://awoiaf.westeros.org/index.php/Dorea_Sand" xlink:title="Dorea Sand" target="_blank">
<text text-anchor="start" x="945.5" y="-67.3" font-family="Times,serif" font-size="14.00">Dorea Sand</text>
<text text-anchor="start" x="971" y="-52.3" font-family="Times,serif" font-size="14.00">291&#45;</text>
</a>
</g>
<g><a xlink:href="/character/display?id=Dorea_Sand" xlink:title="Dorea Sand" target="_blank">
</a>
</g>
</g>
<!-- 135 -->
<g id="node13" class="node"><title>135</title>
<g id="a_node13"><a xlink:href="/character/display?id=Loreza_Sand" xlink:title="Loreza Sand" target="_blank">
<polygon fill="white" stroke="black" points="1173,-121 1059,-121 1059,-7 1173,-7 1173,-121"/>
</a>
</g>
<g id="a_node13_12"><a xlink:href="http://awoiaf.westeros.org/index.php/Loreza_Sand" xlink:title="Loreza Sand" target="_blank">
<text text-anchor="start" x="1071.5" y="-67.3" font-family="Times,serif" font-size="14.00">Loreza Sand</text>
<text text-anchor="start" x="1100" y="-52.3" font-family="Times,serif" font-size="14.00">293&#45;</text>
</a>
</g>
<g><a xlink:href="/character/display?id=Loreza_Sand" xlink:title="Loreza Sand" target="_blank">
</a>
</g>
</g>
<!-- 123 -->
<g id="node14" class="node"><title>123</title>
<g id="a_node14"><a xlink:title="Unknown Woman" target="_blank">
<polygon fill="white" stroke="black" points="150.25,-376.5 -0.25,-376.5 -0.25,-225.5 150.25,-225.5 150.25,-376.5"/>
<text text-anchor="start" x="12.5" y="-304.3" font-family="Times,serif" font-size="14.00">Unknown Woman</text>
<text text-anchor="start" x="50.5" y="-289.3" font-family="Times,serif" font-size="14.00">???&#45;???</text>
</a>
</g>
</g>
<!-- 123&#45;&gt;122+123 -->
<g id="edge2" class="edge"><title>123&#45;&gt;122+123</title>
<path fill="none" stroke="black" stroke-dasharray="5,2" d="M92.4029,-225.336C98.586,-198.808 104.359,-174.041 105.706,-168.263"/>
</g>
<!-- 124 -->
<g id="node15" class="node"><title>124</title>
<g id="a_node15"><a xlink:title="Volentene Nobelwoman" target="_blank">
<polygon fill="white" stroke="black" points="362.5,-398 169.5,-398 169.5,-204 362.5,-204 362.5,-398"/>
<text text-anchor="start" x="181.5" y="-304.3" font-family="Times,serif" font-size="14.00">Volentene Nobelwoman</text>
<text text-anchor="start" x="241" y="-289.3" font-family="Times,serif" font-size="14.00">???&#45;???</text>
</a>
</g>
</g>
<!-- 124&#45;&gt;122+124 -->
<g id="edge4" class="edge"><title>124&#45;&gt;122+124</title>
<path fill="none" stroke="black" stroke-dasharray="5,2" d="M293.516,-203.695C298.53,-186.145 302.547,-172.087 303.679,-168.122"/>
</g>
<!-- 125 -->
<g id="node16" class="node"><title>125</title>
<g id="a_node16"><a xlink:title="Unknown Septa" target="_blank">
<polygon fill="white" stroke="black" points="673,-370 535,-370 535,-232 673,-232 673,-370"/>
<text text-anchor="start" x="547.5" y="-304.3" font-family="Times,serif" font-size="14.00">Unknown Septa</text>
<text text-anchor="start" x="579" y="-289.3" font-family="Times,serif" font-size="14.00">???&#45;???</text>
</a>
</g>
</g>
<!-- 125&#45;&gt;122+125 -->
<g id="edge6" class="edge"><title>125&#45;&gt;122+125</title>
<path fill="none" stroke="black" stroke-dasharray="5,2" d="M552.918,-231.879C544.383,-222.088 535.274,-212.474 526,-204 506.969,-186.612 479.133,-171.325 472.471,-167.775"/>
</g>
<!-- 126 -->
<g id="node17" class="node"><title>126</title>
<g id="a_node17"><a xlink:title="Unkown Woman" target="_blank">
<polygon fill="white" stroke="black" points="833,-372 691,-372 691,-230 833,-230 833,-372"/>
<text text-anchor="start" x="703.5" y="-304.3" font-family="Times,serif" font-size="14.00">Unkown Woman</text>
<text text-anchor="start" x="737" y="-289.3" font-family="Times,serif" font-size="14.00">???&#45;???</text>
</a>
</g>
</g>
<!-- 126&#45;&gt;122+126 -->
<g id="edge8" class="edge"><title>126&#45;&gt;122+126</title>
<path fill="none" stroke="black" stroke-dasharray="5,2" d="M709.091,-229.779C700.575,-220.547 691.438,-211.65 682,-204 657.653,-184.265 621.149,-170.334 613.455,-167.523"/>
</g>
<!-- 131 -->
<g id="node18" class="node"><title>131</title>
<g id="a_node18"><a xlink:href="/character/display?id=Ellaria_Sand" xlink:title="Ellaria Sand" target="_blank">
<polygon fill="white" stroke="black" points="964.25,-357.5 851.75,-357.5 851.75,-244.5 964.25,-244.5 964.25,-357.5"/>
</a>
</g>
<g id="a_node18_17"><a xlink:href="http://awoiaf.westeros.org/index.php/Ellaria_Sand" xlink:title="Ellaria Sand" target="_blank">
<text text-anchor="start" x="864.5" y="-304.3" font-family="Times,serif" font-size="14.00">Ellaria Sand</text>
<text text-anchor="start" x="894.5" y="-289.3" font-family="Times,serif" font-size="14.00">???&#45;</text>
</a>
</g>
<g><a xlink:href="/character/display?id=Ellaria_Sand" xlink:title="Ellaria Sand" target="_blank">
</a>
</g>
</g>
<!-- 131&#45;&gt;122+131 -->
<g id="edge10" class="edge"><title>131&#45;&gt;122+131</title>
<path fill="none" stroke="black" stroke-dasharray="5,2" d="M905.49,-244.367C904,-211.338 902.344,-174.633 902.047,-168.042"/>
</g>
<!-- 122+123&#45;&gt;127 -->
<g id="edge17" class="edge"><title>122+123&#45;&gt;127</title>
<path fill="none" stroke="black" stroke-dasharray="5,2" d="M106,-163.877C106,-159.028 106,-139.194 106,-118.55"/>
</g>
<!-- 122+124&#45;&gt;128 -->
<g id="edge18" class="edge"><title>122+124&#45;&gt;128</title>
<path fill="none" stroke="black" stroke-dasharray="5,2" d="M304,-163.877C304,-159.779 304,-144.978 304,-128.03"/>
</g>
<!-- 122+125&#45;&gt;129 -->
<g id="edge19" class="edge"><title>122+125&#45;&gt;129</title>
<path fill="none" stroke="black" stroke-dasharray="5,2" d="M471,-163.877C471,-158.985 471,-138.842 471,-118.001"/>
</g>
<!-- 122+126&#45;&gt;130 -->
<g id="edge20" class="edge"><title>122+126&#45;&gt;130</title>
<path fill="none" stroke="black" stroke-dasharray="5,2" d="M612,-163.877C612,-159.264 612,-141.089 612,-121.557"/>
</g>
<!-- 122+131&#45;&gt;132 -->
<g id="edge21" class="edge"><title>122+131&#45;&gt;132</title>
<path fill="none" stroke="black" stroke-dasharray="5,2" d="M900.355,-164.753C889.99,-163.134 832.929,-153.315 795,-128 787.697,-123.126 780.741,-117.075 774.371,-110.668"/>
</g>
<!-- 122+131&#45;&gt;133 -->
<g id="edge22" class="edge"><title>122+131&#45;&gt;133</title>
<path fill="none" stroke="black" stroke-dasharray="5,2" d="M901.517,-163.877C899.469,-159.113 891.203,-139.891 882.497,-119.645"/>
</g>
<!-- 122+131&#45;&gt;134 -->
<g id="edge23" class="edge"><title>122+131&#45;&gt;134</title>
<path fill="none" stroke="black" stroke-dasharray="5,2" d="M902.955,-163.877C907.113,-158.985 924.234,-138.842 941.949,-118.001"/>
</g>
<!-- 122+131&#45;&gt;135 -->
<g id="edge24" class="edge"><title>122+131&#45;&gt;135</title>
<path fill="none" stroke="black" stroke-dasharray="5,2" d="M903.566,-164.91C915.668,-164.157 995.254,-158.162 1050,-128 1053.75,-125.936 1057.44,-123.607 1061.04,-121.091"/>
</g>
<!-- 113+111&#45;&gt;122 -->
<g id="edge15" class="edge"><title>113+111&#45;&gt;122</title>
<path fill="none" stroke="black" d="M449,-434.151C449,-428.797 449,-398.981 449,-369.024"/>
</g>
<!-- 109+110&#45;&gt;111 -->
<g id="edge16" class="edge"><title>109+110&#45;&gt;111</title>
<path fill="none" stroke="black" d="M529,-663.731C529,-659.463 529,-644.927 529,-627.686"/>
</g>
</g>
</svg>
