<?xml version="1.0" encoding="UTF-8" standalone="no"?>
<!DOCTYPE svg PUBLIC "-//W3C//DTD SVG 1.1//EN"
 "http://www.w3.org/Graphics/SVG/1.1/DTD/svg11.dtd">
<!-- Generated by graphviz version 2.36.0 (20140111.2315)
 -->
<!-- Title: family Pages: 1 -->
<svg width="1068pt" height="616pt"
 viewBox="0.00 0.00 1068.00 616.00" xmlns="http://www.w3.org/2000/svg" xmlns:xlink="http://www.w3.org/1999/xlink">
<g id="graph0" class="graph" transform="scale(1 1) rotate(0) translate(4 612)">
<title>family</title>
<polygon fill="white" stroke="none" points="-4,4 -4,-612 1064,-612 1064,4 -4,4"/>
<!-- 90 -->
<g id="node1" class="node"><title>90</title>
<g id="a_node1"><a xlink:href="/character/display?id=Olenna_Redwyne" xlink:title="Olenna Redwyne" target="_blank">
<polygon fill="white" stroke="black" points="398,-608 252,-608 252,-462 398,-462 398,-608"/>
</a>
</g>
<g id="a_node1_0"><a xlink:href="http://awoiaf.westeros.org/index.php/Olenna_Redwyne" xlink:title="Olenna Redwyne" target="_blank">
<text text-anchor="start" x="264.5" y="-538.3" font-family="Times,serif" font-size="14.00">Olenna Redwyne</text>
<text text-anchor="start" x="309" y="-523.3" font-family="Times,serif" font-size="14.00">228&#45;</text>
</a>
</g>
<g><a xlink:href="/character/display?id=Olenna_Redwyne" xlink:title="Olenna Redwyne" target="_blank">
</a>
</g>
</g>
<!-- 89+90 -->
<g id="node16" class="node"><title>89+90</title>
<ellipse fill="black" stroke="black" cx="400" cy="-424" rx="1.8" ry="1.8"/>
</g>
<!-- 90&#45;&gt;89+90 -->
<g id="edge4" class="edge"><title>90&#45;&gt;89+90</title>
<path fill="none" stroke="black" d="M374.608,-461.902C386.812,-444.166 397.1,-429.215 399.481,-425.754"/>
</g>
<!-- 91 -->
<g id="node2" class="node"><title>91</title>
<g id="a_node2"><a xlink:href="/character/display?id=Mace_Tyrell" xlink:title="Mace Tyrell" target="_blank">
<polygon fill="white" stroke="black" points="325.25,-366.5 214.75,-366.5 214.75,-255.5 325.25,-255.5 325.25,-366.5"/>
</a>
</g>
<g id="a_node2_1"><a xlink:href="http://awoiaf.westeros.org/index.php/Mace_Tyrell" xlink:title="Mace Tyrell" target="_blank">
<text text-anchor="start" x="227.5" y="-314.3" font-family="Times,serif" font-size="14.00">Mace Tyrell</text>
<text text-anchor="start" x="254.5" y="-299.3" font-family="Times,serif" font-size="14.00">256&#45;</text>
</a>
</g>
<g><a xlink:href="/character/display?id=Mace_Tyrell" xlink:title="Mace Tyrell" target="_blank">
</a>
</g>
</g>
<!-- 91+92 -->
<g id="node15" class="node"><title>91+92</title>
<ellipse fill="black" stroke="black" cx="328" cy="-198" rx="1.8" ry="1.8"/>
</g>
<!-- 91&#45;&gt;91+92 -->
<g id="edge1" class="edge"><title>91&#45;&gt;91+92</title>
<path fill="none" stroke="black" d="M298.49,-255.476C311.325,-230.913 324.292,-206.096 327.334,-200.275"/>
</g>
<!-- 98 -->
<g id="node3" class="node"><title>98</title>
<g id="a_node3"><a xlink:href="/character/display?id=Janna_Tyrell" xlink:title="Janna Tyrell" target="_blank">
<polygon fill="white" stroke="black" points="455.5,-367 344.5,-367 344.5,-255 455.5,-255 455.5,-367"/>
</a>
</g>
<g id="a_node3_2"><a xlink:href="http://awoiaf.westeros.org/index.php/Janna_Tyrell" xlink:title="Janna Tyrell" target="_blank">
<text text-anchor="start" x="356.5" y="-314.3" font-family="Times,serif" font-size="14.00">Janna Tyrell</text>
<text text-anchor="start" x="386" y="-299.3" font-family="Times,serif" font-size="14.00">???&#45;</text>
</a>
</g>
<g><a xlink:href="/character/display?id=Janna_Tyrell" xlink:title="Janna Tyrell" target="_blank">
</a>
</g>
</g>
<!-- 100 -->
<g id="node4" class="node"><title>100</title>
<g id="a_node4"><a xlink:href="/character/display?id=Mina_Tyrell" xlink:title="Mina Tyrell" target="_blank">
<polygon fill="white" stroke="black" points="749,-365 641,-365 641,-257 749,-257 749,-365"/>
</a>
</g>
<g id="a_node4_3"><a xlink:href="http://awoiaf.westeros.org/index.php/Mina_Tyrell" xlink:title="Mina Tyrell" target="_blank">
<text text-anchor="start" x="653.5" y="-314.3" font-family="Times,serif" font-size="14.00">Mina Tyrell</text>
<text text-anchor="start" x="681" y="-299.3" font-family="Times,serif" font-size="14.00">???&#45;</text>
</a>
</g>
<g><a xlink:href="/character/display?id=Mina_Tyrell" xlink:title="Mina Tyrell" target="_blank">
</a>
</g>
</g>
<!-- 101+100 -->
<g id="node17" class="node"><title>101+100</title>
<ellipse fill="black" stroke="black" cx="809" cy="-198" rx="1.8" ry="1.8"/>
</g>
<!-- 100&#45;&gt;101+100 -->
<g id="edge6" class="edge"><title>100&#45;&gt;101+100</title>
<path fill="none" stroke="black" d="M737.576,-256.823C744.149,-249.567 751.065,-242.417 758,-236 775.986,-219.359 801.543,-203.512 807.652,-199.81"/>
</g>
<!-- 93 -->
<g id="node5" class="node"><title>93</title>
<g id="a_node5"><a xlink:href="/character/display?id=Willas_Tyrell" xlink:title="Willas Tyrell" target="_blank">
<polygon fill="white" stroke="black" points="115.5,-138 0.5,-138 0.5,-22 115.5,-22 115.5,-138"/>
</a>
</g>
<g id="a_node5_4"><a xlink:href="http://awoiaf.westeros.org/index.php/Willas_Tyrell" xlink:title="Willas Tyrell" target="_blank">
<text text-anchor="start" x="12.5" y="-83.3" font-family="Times,serif" font-size="14.00">Willas Tyrell</text>
<text text-anchor="start" x="42" y="-68.3" font-family="Times,serif" font-size="14.00">270&#45;</text>
</a>
</g>
<g><a xlink:href="/character/display?id=Willas_Tyrell" xlink:title="Willas Tyrell" target="_blank">
</a>
</g>
</g>
<!-- 94 -->
<g id="node6" class="node"><title>94</title>
<g id="a_node6"><a xlink:href="/character/display?id=Garlan_Tyrell" xlink:title="Garlan Tyrell" target="_blank">
<polygon fill="white" stroke="black" points="253.25,-139.5 134.75,-139.5 134.75,-20.5 253.25,-20.5 253.25,-139.5"/>
</a>
</g>
<g id="a_node6_5"><a xlink:href="http://awoiaf.westeros.org/index.php/Garlan_Tyrell" xlink:title="Garlan Tyrell" target="_blank">
<text text-anchor="start" x="147.5" y="-83.3" font-family="Times,serif" font-size="14.00">Garlan Tyrell</text>
<text text-anchor="start" x="178.5" y="-68.3" font-family="Times,serif" font-size="14.00">277&#45;</text>
</a>
</g>
<g><a xlink:href="/character/display?id=Garlan_Tyrell" xlink:title="Garlan Tyrell" target="_blank">
</a>
</g>
</g>
<!-- 96 -->
<g id="node7" class="node"><title>96</title>
<g id="a_node7"><a xlink:href="/character/display?id=Margaery_Tyrell" xlink:title="Margaery Tyrell" target="_blank">
<polygon fill="white" stroke="black" points="414,-151 272,-151 272,-9 414,-9 414,-151"/>
</a>
</g>
<g id="a_node7_6"><a xlink:href="http://awoiaf.westeros.org/index.php/Margaery_Tyrell" xlink:title="Margaery Tyrell" target="_blank">
<text text-anchor="start" x="284.5" y="-83.3" font-family="Times,serif" font-size="14.00">Margaery Tyrell</text>
<text text-anchor="start" x="327" y="-68.3" font-family="Times,serif" font-size="14.00">283&#45;</text>
</a>
</g>
<g><a xlink:href="/character/display?id=Margaery_Tyrell" xlink:title="Margaery Tyrell" target="_blank">
</a>
</g>
</g>
<!-- 97 -->
<g id="node8" class="node"><title>97</title>
<g id="a_node8"><a xlink:href="/character/display?id=Loras_Tyrell" xlink:title="Loras Tyrell" target="_blank">
<polygon fill="white" stroke="black" points="543.5,-136 432.5,-136 432.5,-24 543.5,-24 543.5,-136"/>
</a>
</g>
<g id="a_node8_7"><a xlink:href="http://awoiaf.westeros.org/index.php/Loras_Tyrell" xlink:title="Loras Tyrell" target="_blank">
<text text-anchor="start" x="444.5" y="-83.3" font-family="Times,serif" font-size="14.00">Loras Tyrell</text>
<text text-anchor="start" x="472" y="-68.3" font-family="Times,serif" font-size="14.00">282&#45;</text>
</a>
</g>
<g><a xlink:href="/character/display?id=Loras_Tyrell" xlink:title="Loras Tyrell" target="_blank">
</a>
</g>
</g>
<!-- 102 -->
<g id="node9" class="node"><title>102</title>
<g id="a_node9"><a xlink:href="/character/display?id=Horas_Redwyne" xlink:title="Horas Redwyne" target="_blank">
<polygon fill="white" stroke="black" points="716.25,-149.5 577.75,-149.5 577.75,-10.5 716.25,-10.5 716.25,-149.5"/>
</a>
</g>
<g id="a_node9_8"><a xlink:href="http://awoiaf.westeros.org/index.php/Horas_Redwyne" xlink:title="Horas Redwyne" target="_blank">
<text text-anchor="start" x="590.5" y="-83.3" font-family="Times,serif" font-size="14.00">Horas Redwyne</text>
<text text-anchor="start" x="633.5" y="-68.3" font-family="Times,serif" font-size="14.00">???&#45;</text>
</a>
</g>
<g><a xlink:href="/character/display?id=Horas_Redwyne" xlink:title="Horas Redwyne" target="_blank">
</a>
</g>
</g>
<!-- 103 -->
<g id="node10" class="node"><title>103</title>
<g id="a_node10"><a xlink:href="/character/display?id=Hobber_Redwyne" xlink:title="Hobber Redwyne" target="_blank">
<polygon fill="white" stroke="black" points="883.25,-154.5 734.75,-154.5 734.75,-5.5 883.25,-5.5 883.25,-154.5"/>
</a>
</g>
<g id="a_node10_9"><a xlink:href="http://awoiaf.westeros.org/index.php/Hobber_Redwyne" xlink:title="Hobber Redwyne" target="_blank">
<text text-anchor="start" x="747.5" y="-83.3" font-family="Times,serif" font-size="14.00">Hobber Redwyne</text>
<text text-anchor="start" x="795.5" y="-68.3" font-family="Times,serif" font-size="14.00">???&#45;</text>
</a>
</g>
<g><a xlink:href="/character/display?id=Hobber_Redwyne" xlink:title="Hobber Redwyne" target="_blank">
</a>
</g>
</g>
<!-- 104 -->
<g id="node11" class="node"><title>104</title>
<g id="a_node11"><a xlink:href="/character/display?id=Desmera_Redwyne" xlink:title="Desmera Redwyne" target="_blank">
<polygon fill="white" stroke="black" points="1060.25,-159.5 901.75,-159.5 901.75,-0.5 1060.25,-0.5 1060.25,-159.5"/>
</a>
</g>
<g id="a_node11_10"><a xlink:href="http://awoiaf.westeros.org/index.php/Desmera_Redwyne" xlink:title="Desmera Redwyne" target="_blank">
<text text-anchor="start" x="914.5" y="-83.3" font-family="Times,serif" font-size="14.00">Desmera Redwyne</text>
<text text-anchor="start" x="965.5" y="-68.3" font-family="Times,serif" font-size="14.00">283&#45;</text>
</a>
</g>
<g><a xlink:href="/character/display?id=Desmera_Redwyne" xlink:title="Desmera Redwyne" target="_blank">
</a>
</g>
</g>
<!-- 89 -->
<g id="node12" class="node"><title>89</title>
<g id="a_node12"><a xlink:href="/character/display?id=Luthor_Tyrell" xlink:title="Luthor Tyrell" target="_blank">
<polygon fill="white" stroke="black" points="535.5,-595 416.5,-595 416.5,-475 535.5,-475 535.5,-595"/>
</a>
</g>
<g id="a_node12_11"><a xlink:href="http://awoiaf.westeros.org/index.php/Luthor_Tyrell" xlink:title="Luthor Tyrell" target="_blank">
<text text-anchor="start" x="428.5" y="-538.3" font-family="Times,serif" font-size="14.00">Luthor Tyrell</text>
<text text-anchor="start" x="451" y="-523.3" font-family="Times,serif" font-size="14.00">???&#45;???</text>
</a>
</g>
<g><a xlink:href="/character/display?id=Luthor_Tyrell" xlink:title="Luthor Tyrell" target="_blank">
</a>
</g>
</g>
<!-- 89&#45;&gt;89+90 -->
<g id="edge3" class="edge"><title>89&#45;&gt;89+90</title>
<path fill="none" stroke="black" d="M434.664,-474.715C419.067,-452.346 404.225,-431.06 400.758,-426.088"/>
</g>
<!-- 92 -->
<g id="node13" class="node"><title>92</title>
<g id="a_node13"><a xlink:href="/character/display?id=Alerie_Hightower" xlink:title="Alerie Hightower" target="_blank">
<polygon fill="white" stroke="black" points="622.25,-385.5 473.75,-385.5 473.75,-236.5 622.25,-236.5 622.25,-385.5"/>
</a>
</g>
<g id="a_node13_12"><a xlink:href="http://awoiaf.westeros.org/index.php/Alerie_Hightower" xlink:title="Alerie Hightower" target="_blank">
<text text-anchor="start" x="486.5" y="-314.3" font-family="Times,serif" font-size="14.00">Alerie Hightower</text>
<text text-anchor="start" x="532.5" y="-299.3" font-family="Times,serif" font-size="14.00">257&#45;</text>
</a>
</g>
<g><a xlink:href="/character/display?id=Alerie_Hightower" xlink:title="Alerie Hightower" target="_blank">
</a>
</g>
</g>
<!-- 92&#45;&gt;91+92 -->
<g id="edge2" class="edge"><title>92&#45;&gt;91+92</title>
<path fill="none" stroke="black" d="M473.679,-241.664C470.483,-239.649 467.251,-237.751 464,-236 413.154,-208.623 340.475,-200.278 329.43,-199.141"/>
</g>
<!-- 101 -->
<g id="node14" class="node"><title>101</title>
<g id="a_node14"><a xlink:href="/character/display?id=Paxter_Redwyne" xlink:title="Paxter Redwyne" target="_blank">
<polygon fill="white" stroke="black" points="909,-382 767,-382 767,-240 909,-240 909,-382"/>
</a>
</g>
<g id="a_node14_13"><a xlink:href="http://awoiaf.westeros.org/index.php/Paxter_Redwyne" xlink:title="Paxter Redwyne" target="_blank">
<text text-anchor="start" x="779.5" y="-314.3" font-family="Times,serif" font-size="14.00">Paxter Redwyne</text>
<text text-anchor="start" x="824" y="-299.3" font-family="Times,serif" font-size="14.00">???&#45;</text>
</a>
</g>
<g><a xlink:href="/character/display?id=Paxter_Redwyne" xlink:title="Paxter Redwyne" target="_blank">
</a>
</g>
</g>
<!-- 101&#45;&gt;101+100 -->
<g id="edge5" class="edge"><title>101&#45;&gt;101+100</title>
<path fill="none" stroke="black" d="M819.634,-239.702C814.598,-220.427 810.233,-203.721 809.221,-199.845"/>
</g>
<!-- 91+92&#45;&gt;93 -->
<g id="edge10" class="edge"><title>91+92&#45;&gt;93</title>
<path fill="none" stroke="black" d="M326.225,-197.109C310.839,-197.977 198.827,-202.648 125,-160 115.19,-154.333 106.15,-146.67 98.0962,-138.338"/>
</g>
<!-- 91+92&#45;&gt;94 -->
<g id="edge11" class="edge"><title>91+92&#45;&gt;94</title>
<path fill="none" stroke="black" d="M326.66,-196.441C319.573,-193.447 285.924,-178.735 263,-160 255.527,-153.893 248.191,-146.928 241.255,-139.723"/>
</g>
<!-- 91+92&#45;&gt;96 -->
<g id="edge12" class="edge"><title>91+92&#45;&gt;96</title>
<path fill="none" stroke="black" d="M328.168,-195.697C328.815,-190.694 331.24,-171.942 333.947,-151.008"/>
</g>
<!-- 91+92&#45;&gt;97 -->
<g id="edge13" class="edge"><title>91+92&#45;&gt;97</title>
<path fill="none" stroke="black" d="M329.471,-196.721C338.742,-194.904 389.744,-184.088 423,-160 432.206,-153.332 440.871,-145.061 448.691,-136.404"/>
</g>
<!-- 89+90&#45;&gt;91 -->
<g id="edge7" class="edge"><title>89+90&#45;&gt;91</title>
<path fill="none" stroke="black" d="M398.661,-422.44C391.579,-419.44 357.95,-404.702 335,-386 327.842,-380.167 320.812,-373.502 314.174,-366.616"/>
</g>
<!-- 89+90&#45;&gt;98 -->
<g id="edge8" class="edge"><title>89+90&#45;&gt;98</title>
<path fill="none" stroke="black" d="M400,-421.753C400,-416.037 400,-391.564 400,-367.175"/>
</g>
<!-- 89+90&#45;&gt;100 -->
<g id="edge9" class="edge"><title>89+90&#45;&gt;100</title>
<path fill="none" stroke="black" d="M401.612,-422.895C419.879,-421.68 588.068,-409.917 631,-386 640.645,-380.627 649.518,-373.212 657.389,-365.138"/>
</g>
<!-- 101+100&#45;&gt;102 -->
<g id="edge14" class="edge"><title>101+100&#45;&gt;102</title>
<path fill="none" stroke="black" d="M807.744,-196.632C799.822,-194.276 756.16,-180.738 726,-160 721.365,-156.813 716.766,-153.334 712.255,-149.671"/>
</g>
<!-- 101+100&#45;&gt;103 -->
<g id="edge15" class="edge"><title>101+100&#45;&gt;103</title>
<path fill="none" stroke="black" d="M809,-195.697C809,-190.993 809,-174.132 809,-154.732"/>
</g>
<!-- 101+100&#45;&gt;104 -->
<g id="edge16" class="edge"><title>101+100&#45;&gt;104</title>
<path fill="none" stroke="black" d="M810.241,-196.608C818.065,-194.106 861.237,-179.833 892,-160 895.212,-157.929 898.425,-155.745 901.622,-153.474"/>
</g>
</g>
</svg>
