<?xml version="1.0" encoding="UTF-8" standalone="no"?>
<!DOCTYPE svg PUBLIC "-//W3C//DTD SVG 1.1//EN"
 "http://www.w3.org/Graphics/SVG/1.1/DTD/svg11.dtd">
<!-- Generated by graphviz version 2.36.0 (20140111.2315)
 -->
<!-- Title: family Pages: 1 -->
<svg width="1808pt" height="1130pt"
 viewBox="0.00 0.00 1808.00 1130.00" xmlns="http://www.w3.org/2000/svg" xmlns:xlink="http://www.w3.org/1999/xlink">
<g id="graph0" class="graph" transform="scale(1 1) rotate(0) translate(4 1126)">
<title>family</title>
<polygon fill="white" stroke="none" points="-4,4 -4,-1126 1804,-1126 1804,4 -4,4"/>
<!-- 178 -->
<g id="node1" class="node"><title>178</title>
<g id="a_node1"><a xlink:href="/character/display?id=Rhaelle_Targaryen" xlink:title="Rhaelle Targaryen" target="_blank">
<polygon fill="white" stroke="black" points="652,-878 496,-878 496,-722 652,-722 652,-878"/>
</a>
</g>
<g id="a_node1_0"><a xlink:href="http://awoiaf.westeros.org/index.php/Rhaelle_Targaryen" xlink:title="Rhaelle Targaryen" target="_blank">
<text text-anchor="start" x="508.5" y="-803.3" font-family="Times,serif" font-size="14.00">Rhaelle Targaryen</text>
<text text-anchor="start" x="546.5" y="-788.3" font-family="Times,serif" font-size="14.00">229&#45;???</text>
</a>
</g>
<g><a xlink:href="/character/display?id=Rhaelle_Targaryen" xlink:title="Rhaelle Targaryen" target="_blank">
</a>
</g>
</g>
<!-- 179+178 -->
<g id="node36" class="node"><title>179+178</title>
<ellipse fill="black" stroke="black" cx="663" cy="-680" rx="1.8" ry="1.8"/>
</g>
<!-- 178&#45;&gt;179+178 -->
<g id="edge22" class="edge"><title>178&#45;&gt;179+178</title>
<path fill="none" stroke="black" d="M632.122,-721.94C646.898,-702.348 659.457,-685.697 662.366,-681.841"/>
</g>
<!-- 157 -->
<g id="node2" class="node"><title>157</title>
<g id="a_node2"><a xlink:href="/character/display?id=Aegon_V_Targaryen" xlink:title="Aegon V Targaryen" target="_blank">
<polygon fill="white" stroke="black" points="568.25,-1121.5 405.75,-1121.5 405.75,-958.5 568.25,-958.5 568.25,-1121.5"/>
</a>
</g>
<g id="a_node2_1"><a xlink:href="http://awoiaf.westeros.org/index.php/Aegon_V_Targaryen" xlink:title="Aegon V Targaryen" target="_blank">
<text text-anchor="start" x="418.5" y="-1043.3" font-family="Times,serif" font-size="14.00">Aegon V Targaryen</text>
<text text-anchor="start" x="458" y="-1028.3" font-family="Times,serif" font-size="14.00">200&#45;259</text>
</a>
</g>
<g><a xlink:href="/character/display?id=Aegon_V_Targaryen" xlink:title="Aegon V Targaryen" target="_blank">
</a>
</g>
</g>
<!-- 157+158 -->
<g id="node26" class="node"><title>157+158</title>
<ellipse fill="black" stroke="black" cx="574" cy="-920" rx="1.8" ry="1.8"/>
</g>
<!-- 157&#45;&gt;157+158 -->
<g id="edge1" class="edge"><title>157&#45;&gt;157+158</title>
<path fill="none" stroke="black" d="M546.473,-958.336C559.854,-940.187 570.894,-925.213 573.444,-921.754"/>
</g>
<!-- 158 -->
<g id="node3" class="node"><title>158</title>
<g id="a_node3"><a xlink:href="/character/display?id=Betha_Blackwood" xlink:title="Betha Blackwood" target="_blank">
<polygon fill="white" stroke="black" points="736.5,-1115 587.5,-1115 587.5,-965 736.5,-965 736.5,-1115"/>
</a>
</g>
<g id="a_node3_2"><a xlink:href="http://awoiaf.westeros.org/index.php/Betha_Blackwood" xlink:title="Betha Blackwood" target="_blank">
<text text-anchor="start" x="599.5" y="-1043.3" font-family="Times,serif" font-size="14.00">Betha Blackwood</text>
<text text-anchor="start" x="637" y="-1028.3" font-family="Times,serif" font-size="14.00">???&#45;???</text>
</a>
</g>
<g><a xlink:href="/character/display?id=Betha_Blackwood" xlink:title="Betha Blackwood" target="_blank">
</a>
</g>
</g>
<!-- 158&#45;&gt;157+158 -->
<g id="edge2" class="edge"><title>158&#45;&gt;157+158</title>
<path fill="none" stroke="black" d="M606.768,-964.939C591.297,-944.194 577.812,-926.112 574.683,-921.916"/>
</g>
<!-- 136 -->
<g id="node4" class="node"><title>136</title>
<g id="a_node4"><a xlink:href="/character/display?id=Steffon_Baratheon" xlink:title="Steffon Baratheon" target="_blank">
<polygon fill="white" stroke="black" points="740.25,-636.5 585.75,-636.5 585.75,-481.5 740.25,-481.5 740.25,-636.5"/>
</a>
</g>
<g id="a_node4_3"><a xlink:href="http://awoiaf.westeros.org/index.php/Steffon_Baratheon" xlink:title="Steffon Baratheon" target="_blank">
<text text-anchor="start" x="598.5" y="-562.3" font-family="Times,serif" font-size="14.00">Steffon Baratheon</text>
<text text-anchor="start" x="634" y="-547.3" font-family="Times,serif" font-size="14.00">246&#45;278</text>
</a>
</g>
<g><a xlink:href="/character/display?id=Steffon_Baratheon" xlink:title="Steffon Baratheon" target="_blank">
</a>
</g>
</g>
<!-- 136+137 -->
<g id="node27" class="node"><title>136+137</title>
<ellipse fill="black" stroke="black" cx="752" cy="-438" rx="1.8" ry="1.8"/>
</g>
<!-- 136&#45;&gt;136+137 -->
<g id="edge3" class="edge"><title>136&#45;&gt;136+137</title>
<path fill="none" stroke="black" d="M720.371,-481.29C735.44,-461.142 748.354,-443.875 751.347,-439.873"/>
</g>
<!-- 138 -->
<g id="node5" class="node"><title>138</title>
<g id="a_node5"><a xlink:href="/character/display?id=Robert_Baratheon" xlink:title="Robert I Baratheon" target="_blank">
<polygon fill="white" stroke="black" points="834,-400 670,-400 670,-236 834,-236 834,-400"/>
</a>
</g>
<g id="a_node5_4"><a xlink:href="http://awoiaf.westeros.org/index.php/Robert_Baratheon" xlink:title="Robert I Baratheon" target="_blank">
<text text-anchor="start" x="682.5" y="-321.3" font-family="Times,serif" font-size="14.00">Robert I Baratheon</text>
<text text-anchor="start" x="722.5" y="-306.3" font-family="Times,serif" font-size="14.00">262&#45;298</text>
</a>
</g>
<g><a xlink:href="/character/display?id=Robert_Baratheon" xlink:title="Robert I Baratheon" target="_blank">
</a>
</g>
</g>
<!-- 138+139 -->
<g id="node28" class="node"><title>138+139</title>
<ellipse fill="black" stroke="black" cx="155" cy="-198" rx="1.8" ry="1.8"/>
</g>
<!-- 138&#45;&gt;138+139 -->
<g id="edge5" class="edge"><title>138&#45;&gt;138+139</title>
<path fill="none" stroke="black" stroke-dasharray="5,2" d="M669.885,-240.686C666.634,-238.972 663.336,-237.401 660,-236 560.304,-194.14 185.894,-198.564 156.795,-198.973"/>
</g>
<!-- 138+141 -->
<g id="node29" class="node"><title>138+141</title>
<ellipse fill="black" stroke="black" cx="415" cy="-198" rx="1.8" ry="1.8"/>
</g>
<!-- 138&#45;&gt;138+141 -->
<g id="edge7" class="edge"><title>138&#45;&gt;138+141</title>
<path fill="none" stroke="black" stroke-dasharray="5,2" d="M669.738,-241.018C666.529,-239.209 663.279,-237.527 660,-236 566.413,-192.41 432.97,-198.032 416.655,-198.905"/>
</g>
<!-- 138+143 -->
<g id="node30" class="node"><title>138+143</title>
<ellipse fill="black" stroke="black" cx="583" cy="-198" rx="1.8" ry="1.8"/>
</g>
<!-- 138&#45;&gt;138+143 -->
<g id="edge9" class="edge"><title>138&#45;&gt;138+143</title>
<path fill="none" stroke="black" stroke-dasharray="5,2" d="M669.847,-242.821C666.571,-240.456 663.282,-238.174 660,-236 631.312,-217.002 591.382,-202.05 584.147,-199.414"/>
</g>
<!-- 138+145 -->
<g id="node31" class="node"><title>138+145</title>
<ellipse fill="black" stroke="black" cx="835" cy="-198" rx="1.8" ry="1.8"/>
</g>
<!-- 138&#45;&gt;138+145 -->
<g id="edge11" class="edge"><title>138&#45;&gt;138+145</title>
<path fill="none" stroke="black" stroke-dasharray="5,2" d="M809.193,-235.689C821.773,-217.805 832.096,-203.128 834.481,-199.738"/>
</g>
<!-- 138+147 -->
<g id="node32" class="node"><title>138+147</title>
<ellipse fill="black" stroke="black" cx="1015" cy="-198" rx="1.8" ry="1.8"/>
</g>
<!-- 138&#45;&gt;138+147 -->
<g id="edge13" class="edge"><title>138&#45;&gt;138+147</title>
<path fill="none" stroke="black" stroke-dasharray="5,2" d="M834.021,-240.948C836.986,-239.188 839.982,-237.531 843,-236 907.281,-203.379 999.219,-199.458 1013.19,-199.045"/>
</g>
<!-- 138+149 -->
<g id="node33" class="node"><title>138+149</title>
<ellipse fill="black" stroke="black" cx="1196" cy="-198" rx="1.8" ry="1.8"/>
</g>
<!-- 138&#45;&gt;138+149 -->
<g id="edge15" class="edge"><title>138&#45;&gt;138+149</title>
<path fill="none" stroke="black" stroke-dasharray="5,2" d="M834.099,-240.362C837.032,-238.785 840.001,-237.324 843,-236 912.051,-205.504 1172.25,-199.491 1194.48,-199.03"/>
</g>
<!-- 138+151 -->
<g id="node34" class="node"><title>138+151</title>
<ellipse fill="black" stroke="black" cx="1379" cy="-198" rx="1.8" ry="1.8"/>
</g>
<!-- 138&#45;&gt;138+151 -->
<g id="edge17" class="edge"><title>138&#45;&gt;138+151</title>
<path fill="none" stroke="black" stroke-dasharray="5,2" d="M834.038,-240.22C836.988,-238.685 839.978,-237.271 843,-236 896.094,-213.67 1345.71,-199.986 1377.26,-199.051"/>
</g>
<!-- 153 -->
<g id="node6" class="node"><title>153</title>
<g id="a_node6"><a xlink:href="/character/display?id=Stannis_Baratheon" xlink:title="Stannis Baratheon" target="_blank">
<polygon fill="white" stroke="black" points="1653.5,-397 1496.5,-397 1496.5,-239 1653.5,-239 1653.5,-397"/>
</a>
</g>
<g id="a_node6_5"><a xlink:href="http://awoiaf.westeros.org/index.php/Stannis_Baratheon" xlink:title="Stannis Baratheon" target="_blank">
<text text-anchor="start" x="1508.5" y="-321.3" font-family="Times,serif" font-size="14.00">Stannis Baratheon</text>
<text text-anchor="start" x="1559" y="-306.3" font-family="Times,serif" font-size="14.00">264&#45;</text>
</a>
</g>
<g><a xlink:href="/character/display?id=Stannis_Baratheon" xlink:title="Stannis Baratheon" target="_blank">
</a>
</g>
</g>
<!-- 153+154 -->
<g id="node35" class="node"><title>153+154</title>
<ellipse fill="black" stroke="black" cx="1655" cy="-198" rx="1.8" ry="1.8"/>
</g>
<!-- 153&#45;&gt;153+154 -->
<g id="edge19" class="edge"><title>153&#45;&gt;153+154</title>
<path fill="none" stroke="black" d="M1627.92,-238.949C1640.93,-219.748 1651.91,-203.563 1654.45,-199.817"/>
</g>
<!-- 156 -->
<g id="node7" class="node"><title>156</title>
<g id="a_node7"><a xlink:href="/character/display?id=Renly_Baratheon" xlink:title="Renly Baratheon" target="_blank">
<polygon fill="white" stroke="black" points="651.25,-390.5 506.75,-390.5 506.75,-245.5 651.25,-245.5 651.25,-390.5"/>
</a>
</g>
<g id="a_node7_6"><a xlink:href="http://awoiaf.westeros.org/index.php/Renly_Baratheon" xlink:title="Renly Baratheon" target="_blank">
<text text-anchor="start" x="519.5" y="-321.3" font-family="Times,serif" font-size="14.00">Renly Baratheon</text>
<text text-anchor="start" x="550" y="-306.3" font-family="Times,serif" font-size="14.00">277&#45;299</text>
</a>
</g>
<g><a xlink:href="/character/display?id=Renly_Baratheon" xlink:title="Renly Baratheon" target="_blank">
</a>
</g>
</g>
<!-- 140 -->
<g id="node8" class="node"><title>140</title>
<g id="a_node8"><a xlink:href="/character/display?id=Mya_Stone" xlink:title="Mya Stone" target="_blank">
<polygon fill="white" stroke="black" points="205.5,-131 104.5,-131 104.5,-29 205.5,-29 205.5,-131"/>
</a>
</g>
<g id="a_node8_7"><a xlink:href="http://awoiaf.westeros.org/index.php/Mya_Stone" xlink:title="Mya Stone" target="_blank">
<text text-anchor="start" x="116.5" y="-83.3" font-family="Times,serif" font-size="14.00">Mya Stone</text>
<text text-anchor="start" x="139" y="-68.3" font-family="Times,serif" font-size="14.00">279&#45;</text>
</a>
</g>
<g><a xlink:href="/character/display?id=Mya_Stone" xlink:title="Mya Stone" target="_blank">
</a>
</g>
</g>
<!-- 142 -->
<g id="node9" class="node"><title>142</title>
<g id="a_node9"><a xlink:href="/character/display?id=Bella" xlink:title="Bella" target="_blank">
<polygon fill="white" stroke="black" points="445.5,-111 384.5,-111 384.5,-49 445.5,-49 445.5,-111"/>
</a>
</g>
<g id="a_node9_8"><a xlink:href="http://awoiaf.westeros.org/index.php/Bella" xlink:title="Bella" target="_blank">
<text text-anchor="start" x="396.5" y="-83.3" font-family="Times,serif" font-size="14.00">Bella</text>
<text text-anchor="start" x="399" y="-68.3" font-family="Times,serif" font-size="14.00">283&#45;</text>
</a>
</g>
<g><a xlink:href="/character/display?id=Bella" xlink:title="Bella" target="_blank">
</a>
</g>
</g>
<!-- 144 -->
<g id="node10" class="node"><title>144</title>
<g id="a_node10"><a xlink:href="/character/display?id=Gendry" xlink:title="Gendry" target="_blank">
<polygon fill="white" stroke="black" points="622,-119 544,-119 544,-41 622,-41 622,-119"/>
</a>
</g>
<g id="a_node10_9"><a xlink:href="http://awoiaf.westeros.org/index.php/Gendry" xlink:title="Gendry" target="_blank">
<text text-anchor="start" x="556.5" y="-83.3" font-family="Times,serif" font-size="14.00">Gendry</text>
<text text-anchor="start" x="567" y="-68.3" font-family="Times,serif" font-size="14.00">283&#45;</text>
</a>
</g>
<g><a xlink:href="/character/display?id=Gendry" xlink:title="Gendry" target="_blank">
</a>
</g>
</g>
<!-- 146 -->
<g id="node11" class="node"><title>146</title>
<g id="a_node11"><a xlink:href="/character/display?id=Edric_Storm" xlink:title="Edric Storm" target="_blank">
<polygon fill="white" stroke="black" points="891.25,-136.5 778.75,-136.5 778.75,-23.5 891.25,-23.5 891.25,-136.5"/>
</a>
</g>
<g id="a_node11_10"><a xlink:href="http://awoiaf.westeros.org/index.php/Edric_Storm" xlink:title="Edric Storm" target="_blank">
<text text-anchor="start" x="791.5" y="-83.3" font-family="Times,serif" font-size="14.00">Edric Storm</text>
<text text-anchor="start" x="819.5" y="-68.3" font-family="Times,serif" font-size="14.00">287&#45;</text>
</a>
</g>
<g><a xlink:href="/character/display?id=Edric_Storm" xlink:title="Edric Storm" target="_blank">
</a>
</g>
</g>
<!-- 148 -->
<g id="node12" class="node"><title>148</title>
<g id="a_node12"><a xlink:href="/character/display?id=Barra" xlink:title="Barra" target="_blank">
<polygon fill="white" stroke="black" points="1056.5,-122 973.5,-122 973.5,-38 1056.5,-38 1056.5,-122"/>
</a>
</g>
<g id="a_node12_11"><a xlink:href="http://awoiaf.westeros.org/index.php/Barra" xlink:title="Barra" target="_blank">
<text text-anchor="start" x="994.5" y="-83.3" font-family="Times,serif" font-size="14.00">Barra</text>
<text text-anchor="start" x="985.5" y="-68.3" font-family="Times,serif" font-size="14.00">298&#45;299</text>
</a>
</g>
<g><a xlink:href="/character/display?id=Barra" xlink:title="Barra" target="_blank">
</a>
</g>
</g>
<!-- 150 -->
<g id="node13" class="node"><title>150</title>
<g id="a_node13"><a xlink:title="Unknown Twins" target="_blank">
<polygon fill="white" stroke="black" points="1265.25,-149.5 1126.75,-149.5 1126.75,-10.5 1265.25,-10.5 1265.25,-149.5"/>
<text text-anchor="start" x="1139.5" y="-83.3" font-family="Times,serif" font-size="14.00">Unknown Twins</text>
<text text-anchor="start" x="1171.5" y="-68.3" font-family="Times,serif" font-size="14.00">???&#45;???</text>
</a>
</g>
</g>
<!-- 152 -->
<g id="node14" class="node"><title>152</title>
<g id="a_node14"><a xlink:title="Nine Bastards" target="_blank">
<polygon fill="white" stroke="black" points="1443,-144 1315,-144 1315,-16 1443,-16 1443,-144"/>
<text text-anchor="start" x="1327.5" y="-83.3" font-family="Times,serif" font-size="14.00">Nine Bastards</text>
<text text-anchor="start" x="1354" y="-68.3" font-family="Times,serif" font-size="14.00">???&#45;???</text>
</a>
</g>
</g>
<!-- 155 -->
<g id="node15" class="node"><title>155</title>
<g id="a_node15"><a xlink:href="/character/display?id=Shireen_Baratheon" xlink:title="Shireen Baratheon" target="_blank">
<polygon fill="white" stroke="black" points="1734.25,-159.5 1575.75,-159.5 1575.75,-0.5 1734.25,-0.5 1734.25,-159.5"/>
</a>
</g>
<g id="a_node15_14"><a xlink:href="http://awoiaf.westeros.org/index.php/Shireen_Baratheon" xlink:title="Shireen Baratheon" target="_blank">
<text text-anchor="start" x="1588.5" y="-83.3" font-family="Times,serif" font-size="14.00">Shireen Baratheon</text>
<text text-anchor="start" x="1639.5" y="-68.3" font-family="Times,serif" font-size="14.00">289&#45;</text>
</a>
</g>
<g><a xlink:href="/character/display?id=Shireen_Baratheon" xlink:title="Shireen Baratheon" target="_blank">
</a>
</g>
</g>
<!-- 179 -->
<g id="node16" class="node"><title>179</title>
<g id="a_node16"><a xlink:href="/character/display?id=Ormund_Baratheon" xlink:title="Ormund Baratheon" target="_blank">
<polygon fill="white" stroke="black" points="833.25,-881.5 670.75,-881.5 670.75,-718.5 833.25,-718.5 833.25,-881.5"/>
</a>
</g>
<g id="a_node16_15"><a xlink:href="http://awoiaf.westeros.org/index.php/Ormund_Baratheon" xlink:title="Ormund Baratheon" target="_blank">
<text text-anchor="start" x="683.5" y="-803.3" font-family="Times,serif" font-size="14.00">Ormund Baratheon</text>
<text text-anchor="start" x="725" y="-788.3" font-family="Times,serif" font-size="14.00">???&#45;260</text>
</a>
</g>
<g><a xlink:href="/character/display?id=Ormund_Baratheon" xlink:title="Ormund Baratheon" target="_blank">
</a>
</g>
</g>
<!-- 179&#45;&gt;179+178 -->
<g id="edge21" class="edge"><title>179&#45;&gt;179+178</title>
<path fill="none" stroke="black" d="M691.16,-718.336C677.471,-700.187 666.178,-685.213 663.568,-681.754"/>
</g>
<!-- 137 -->
<g id="node17" class="node"><title>137</title>
<g id="a_node17"><a xlink:href="/character/display?id=Cassana_Estermont" xlink:title="Cassana Estermont" target="_blank">
<polygon fill="white" stroke="black" points="925,-642 759,-642 759,-476 925,-476 925,-642"/>
</a>
</g>
<g id="a_node17_16"><a xlink:href="http://awoiaf.westeros.org/index.php/Cassana_Estermont" xlink:title="Cassana Estermont" target="_blank">
<text text-anchor="start" x="771.5" y="-562.3" font-family="Times,serif" font-size="14.00">Cassana Estermont</text>
<text text-anchor="start" x="814.5" y="-547.3" font-family="Times,serif" font-size="14.00">???&#45;278</text>
</a>
</g>
<g><a xlink:href="/character/display?id=Cassana_Estermont" xlink:title="Cassana Estermont" target="_blank">
</a>
</g>
</g>
<!-- 137&#45;&gt;136+137 -->
<g id="edge4" class="edge"><title>137&#45;&gt;136+137</title>
<path fill="none" stroke="black" d="M779.737,-475.675C766.198,-457.773 755.116,-443.12 752.557,-439.737"/>
</g>
<!-- 139 -->
<g id="node18" class="node"><title>139</title>
<g id="a_node18"><a xlink:title="Unknown Woman" target="_blank">
<polygon fill="white" stroke="black" points="150.25,-393.5 -0.25,-393.5 -0.25,-242.5 150.25,-242.5 150.25,-393.5"/>
<text text-anchor="start" x="12.5" y="-321.3" font-family="Times,serif" font-size="14.00">Unknown Woman</text>
<text text-anchor="start" x="50.5" y="-306.3" font-family="Times,serif" font-size="14.00">???&#45;???</text>
</a>
</g>
</g>
<!-- 139&#45;&gt;138+139 -->
<g id="edge6" class="edge"><title>139&#45;&gt;138+139</title>
<path fill="none" stroke="black" stroke-dasharray="5,2" d="M125.665,-242.269C139.557,-221.778 151.598,-204.018 154.391,-199.899"/>
</g>
<!-- 141 -->
<g id="node19" class="node"><title>141</title>
<g id="a_node19"><a xlink:title="Unknown Woman" target="_blank">
<polygon fill="white" stroke="black" points="319.25,-393.5 168.75,-393.5 168.75,-242.5 319.25,-242.5 319.25,-393.5"/>
<text text-anchor="start" x="181.5" y="-321.3" font-family="Times,serif" font-size="14.00">Unknown Woman</text>
<text text-anchor="start" x="219.5" y="-306.3" font-family="Times,serif" font-size="14.00">???&#45;???</text>
</a>
</g>
</g>
<!-- 141&#45;&gt;138+141 -->
<g id="edge8" class="edge"><title>141&#45;&gt;138+141</title>
<path fill="none" stroke="black" stroke-dasharray="5,2" d="M319.356,-242.761C322.548,-240.399 325.768,-238.135 329,-236 360.463,-215.215 405.53,-201.715 413.704,-199.367"/>
</g>
<!-- 143 -->
<g id="node20" class="node"><title>143</title>
<g id="a_node20"><a xlink:title="Unknown Woman" target="_blank">
<polygon fill="white" stroke="black" points="488.25,-393.5 337.75,-393.5 337.75,-242.5 488.25,-242.5 488.25,-393.5"/>
<text text-anchor="start" x="350.5" y="-321.3" font-family="Times,serif" font-size="14.00">Unknown Woman</text>
<text text-anchor="start" x="388.5" y="-306.3" font-family="Times,serif" font-size="14.00">???&#45;???</text>
</a>
</g>
</g>
<!-- 143&#45;&gt;138+143 -->
<g id="edge10" class="edge"><title>143&#45;&gt;138+143</title>
<path fill="none" stroke="black" stroke-dasharray="5,2" d="M488.368,-242.779C491.557,-240.412 494.773,-238.142 498,-236 529.111,-215.352 573.643,-201.741 581.719,-199.37"/>
</g>
<!-- 145 -->
<g id="node21" class="node"><title>145</title>
<g id="a_node21"><a xlink:href="/character/display?id=Delena_Florent" xlink:title="Delena Florent" target="_blank">
<polygon fill="white" stroke="black" points="984,-384 852,-384 852,-252 984,-252 984,-384"/>
</a>
</g>
<g id="a_node21_20"><a xlink:href="http://awoiaf.westeros.org/index.php/Delena_Florent" xlink:title="Delena Florent" target="_blank">
<text text-anchor="start" x="864.5" y="-321.3" font-family="Times,serif" font-size="14.00">Delena Florent</text>
<text text-anchor="start" x="904" y="-306.3" font-family="Times,serif" font-size="14.00">???&#45;</text>
</a>
</g>
<g><a xlink:href="/character/display?id=Delena_Florent" xlink:title="Delena Florent" target="_blank">
</a>
</g>
</g>
<!-- 145&#45;&gt;138+145 -->
<g id="edge12" class="edge"><title>145&#45;&gt;138+145</title>
<path fill="none" stroke="black" stroke-dasharray="5,2" d="M872.13,-251.788C855.334,-227.909 839.503,-205.402 835.808,-200.149"/>
</g>
<!-- 147 -->
<g id="node22" class="node"><title>147</title>
<g id="a_node22"><a xlink:title="Unknown Woman" target="_blank">
<polygon fill="white" stroke="black" points="1153.25,-393.5 1002.75,-393.5 1002.75,-242.5 1153.25,-242.5 1153.25,-393.5"/>
<text text-anchor="start" x="1015.5" y="-321.3" font-family="Times,serif" font-size="14.00">Unknown Woman</text>
<text text-anchor="start" x="1051" y="-306.3" font-family="Times,serif" font-size="14.00">???&#45;299</text>
</a>
</g>
</g>
<!-- 147&#45;&gt;138+147 -->
<g id="edge14" class="edge"><title>147&#45;&gt;138+147</title>
<path fill="none" stroke="black" stroke-dasharray="5,2" d="M1038.1,-242.269C1027.16,-221.778 1017.68,-204.018 1015.48,-199.899"/>
</g>
<!-- 149 -->
<g id="node23" class="node"><title>149</title>
<g id="a_node23"><a xlink:title="Unknown Woman" target="_blank">
<polygon fill="white" stroke="black" points="1322.25,-393.5 1171.75,-393.5 1171.75,-242.5 1322.25,-242.5 1322.25,-393.5"/>
<text text-anchor="start" x="1184.5" y="-321.3" font-family="Times,serif" font-size="14.00">Unknown Woman</text>
<text text-anchor="start" x="1222.5" y="-306.3" font-family="Times,serif" font-size="14.00">???&#45;???</text>
</a>
</g>
</g>
<!-- 149&#45;&gt;138+149 -->
<g id="edge16" class="edge"><title>149&#45;&gt;138+149</title>
<path fill="none" stroke="black" stroke-dasharray="5,2" d="M1214.7,-242.269C1205.84,-221.778 1198.17,-204.018 1196.39,-199.899"/>
</g>
<!-- 151 -->
<g id="node24" class="node"><title>151</title>
<g id="a_node24"><a xlink:title="Various Women" target="_blank">
<polygon fill="white" stroke="black" points="1477.25,-386.5 1340.75,-386.5 1340.75,-249.5 1477.25,-249.5 1477.25,-386.5"/>
<text text-anchor="start" x="1353.5" y="-321.3" font-family="Times,serif" font-size="14.00">Various Women</text>
<text text-anchor="start" x="1384.5" y="-306.3" font-family="Times,serif" font-size="14.00">???&#45;???</text>
</a>
</g>
</g>
<!-- 151&#45;&gt;138+151 -->
<g id="edge18" class="edge"><title>151&#45;&gt;138+151</title>
<path fill="none" stroke="black" stroke-dasharray="5,2" d="M1391.81,-249.385C1385.94,-226.315 1380.54,-205.042 1379.28,-200.084"/>
</g>
<!-- 154 -->
<g id="node25" class="node"><title>154</title>
<g id="a_node25"><a xlink:href="/character/display?id=Selyse_Florent" xlink:title="Selyse Florent" target="_blank">
<polygon fill="white" stroke="black" points="1800,-382 1672,-382 1672,-254 1800,-254 1800,-382"/>
</a>
</g>
<g id="a_node25_24"><a xlink:href="http://awoiaf.westeros.org/index.php/Selyse_Florent" xlink:title="Selyse Florent" target="_blank">
<text text-anchor="start" x="1684.5" y="-321.3" font-family="Times,serif" font-size="14.00">Selyse Florent</text>
<text text-anchor="start" x="1722" y="-306.3" font-family="Times,serif" font-size="14.00">???&#45;</text>
</a>
</g>
<g><a xlink:href="/character/display?id=Selyse_Florent" xlink:title="Selyse Florent" target="_blank">
</a>
</g>
</g>
<!-- 154&#45;&gt;153+154 -->
<g id="edge20" class="edge"><title>154&#45;&gt;153+154</title>
<path fill="none" stroke="black" d="M1692.65,-253.855C1675.8,-229.306 1659.61,-205.719 1655.83,-200.206"/>
</g>
<!-- 157+158&#45;&gt;178 -->
<g id="edge23" class="edge"><title>157+158&#45;&gt;178</title>
<path fill="none" stroke="black" d="M574,-917.675C574,-913.067 574,-896.992 574,-878.185"/>
</g>
<!-- 136+137&#45;&gt;138 -->
<g id="edge25" class="edge"><title>136+137&#45;&gt;138</title>
<path fill="none" stroke="black" d="M752,-435.675C752,-431.396 752,-417.23 752,-400.17"/>
</g>
<!-- 136+137&#45;&gt;153 -->
<g id="edge26" class="edge"><title>136+137&#45;&gt;153</title>
<path fill="none" stroke="black" d="M753.892,-436.983C792.594,-436.623 1412.97,-430.395 1486,-400 1489.47,-398.555 1492.9,-396.913 1496.26,-395.108"/>
</g>
<!-- 136+137&#45;&gt;156 -->
<g id="edge27" class="edge"><title>136+137&#45;&gt;156</title>
<path fill="none" stroke="black" d="M750.622,-436.659C741.932,-434.47 694.037,-421.773 661,-400 656.656,-397.137 652.348,-394.02 648.115,-390.73"/>
</g>
<!-- 138+139&#45;&gt;140 -->
<g id="edge28" class="edge"><title>138+139&#45;&gt;140</title>
<path fill="none" stroke="black" stroke-dasharray="5,2" d="M155,-195.697C155,-189.126 155,-158.837 155,-131.036"/>
</g>
<!-- 138+141&#45;&gt;142 -->
<g id="edge29" class="edge"><title>138+141&#45;&gt;142</title>
<path fill="none" stroke="black" stroke-dasharray="5,2" d="M415,-195.697C415,-187.483 415,-142.21 415,-111.061"/>
</g>
<!-- 138+143&#45;&gt;144 -->
<g id="edge30" class="edge"><title>138+143&#45;&gt;144</title>
<path fill="none" stroke="black" stroke-dasharray="5,2" d="M583,-195.697C583,-188.18 583,-149.626 583,-119.264"/>
</g>
<!-- 138+145&#45;&gt;146 -->
<g id="edge31" class="edge"><title>138+145&#45;&gt;146</title>
<path fill="none" stroke="black" stroke-dasharray="5,2" d="M835,-195.697C835,-189.574 835,-162.857 835,-136.749"/>
</g>
<!-- 138+147&#45;&gt;148 -->
<g id="edge32" class="edge"><title>138+147&#45;&gt;148</title>
<path fill="none" stroke="black" stroke-dasharray="5,2" d="M1015,-195.697C1015,-188.429 1015,-152.145 1015,-122.306"/>
</g>
<!-- 138+149&#45;&gt;150 -->
<g id="edge33" class="edge"><title>138+149&#45;&gt;150</title>
<path fill="none" stroke="black" stroke-dasharray="5,2" d="M1196,-195.697C1196,-190.595 1196,-171.191 1196,-149.756"/>
</g>
<!-- 138+151&#45;&gt;152 -->
<g id="edge34" class="edge"><title>138+151&#45;&gt;152</title>
<path fill="none" stroke="black" stroke-dasharray="5,2" d="M1379,-195.697C1379,-190.147 1379,-167.673 1379,-144.071"/>
</g>
<!-- 153+154&#45;&gt;155 -->
<g id="edge35" class="edge"><title>153+154&#45;&gt;155</title>
<path fill="none" stroke="black" d="M1655,-195.697C1655,-191.391 1655,-176.9 1655,-159.598"/>
</g>
<!-- 179+178&#45;&gt;136 -->
<g id="edge24" class="edge"><title>179+178&#45;&gt;136</title>
<path fill="none" stroke="black" d="M663,-677.664C663,-672.914 663,-656.087 663,-636.584"/>
</g>
</g>
</svg>
