<?xml version="1.0" encoding="UTF-8" standalone="no"?>
<!DOCTYPE svg PUBLIC "-//W3C//DTD SVG 1.1//EN"
 "http://www.w3.org/Graphics/SVG/1.1/DTD/svg11.dtd">
<!-- Generated by graphviz version 2.36.0 (20140111.2315)
 -->
<!-- Title:   Pages: 1 -->
<svg width="832pt" height="1312pt"
 viewBox="0.00 0.00 832.00 1312.00" xmlns="http://www.w3.org/2000/svg" xmlns:xlink="http://www.w3.org/1999/xlink">
<g id="graph0" class="graph" transform="scale(1 1) rotate(0) translate(4 1308)">
<title> </title>
<polygon fill="white" stroke="none" points="-4,4 -4,-1308 828,-1308 828,4 -4,4"/>
<!-- 7 -->
<g id="node1" class="node"><title>7</title>
<g id="a_node1"><a xlink:href="/character/display?id=Rickon_Stark" xlink:title="Rickon Stark" target="_blank">
<polygon fill="white" stroke="black" points="497.25,-119.5 378.75,-119.5 378.75,-0.5 497.25,-0.5 497.25,-119.5"/>
</a>
</g>
<g id="a_node1_0"><a xlink:href="http://awoiaf.westeros.org/index.php/Rickon_Stark" xlink:title="Rickon Stark" target="_blank">
<text text-anchor="start" x="391.5" y="-63.3" font-family="Times,serif" font-size="14.00">Rickon Stark</text>
<text text-anchor="start" x="422.5" y="-48.3" font-family="Times,serif" font-size="14.00">295&#45;</text>
</a>
</g>
<g><a xlink:href="/character/display?id=Rickon_Stark" xlink:title="Rickon Stark" target="_blank">
</a>
</g>
</g>
<!-- 1 -->
<g id="node2" class="node"><title>1</title>
<g id="a_node2"><a xlink:href="/character/display?id=Eddard_Stark" xlink:title="Eddard Stark" target="_blank">
<polygon fill="white" stroke="black" points="393,-318 271,-318 271,-196 393,-196 393,-318"/>
</a>
</g>
<g id="a_node2_1"><a xlink:href="http://awoiaf.westeros.org/index.php/Eddard_Stark" xlink:title="Eddard Stark" target="_blank">
<text text-anchor="start" x="283.5" y="-260.3" font-family="Times,serif" font-size="14.00">Eddard Stark</text>
<text text-anchor="start" x="302.5" y="-245.3" font-family="Times,serif" font-size="14.00">263&#45;299</text>
</a>
</g>
<g><a xlink:href="/character/display?id=Eddard_Stark" xlink:title="Eddard Stark" target="_blank">
</a>
</g>
</g>
<!-- 1+2 -->
<g id="node18" class="node"><title>1+2</title>
<g id="a_node18"><a xlink:title=" ">
<ellipse fill="black" stroke="black" cx="438" cy="-158" rx="1.8" ry="1.8"/>
</a>
</g>
</g>
<!-- 1&#45;&gt;1+2 -->
<g id="edge1" class="edge"><title>1&#45;&gt;1+2</title>
<g id="a_edge1"><a xlink:title=" ">
<path fill="none" stroke="black" d="M393.046,-200.137C413.664,-181.27 432.618,-163.925 437.035,-159.883"/>
</a>
</g>
</g>
<!-- 2 -->
<g id="node3" class="node"><title>2</title>
<g id="a_node3"><a xlink:href="/character/display?id=Catelyn_Stark" xlink:title="Catelyn Tully" target="_blank">
<polygon fill="white" stroke="black" points="604.25,-317.5 483.75,-317.5 483.75,-196.5 604.25,-196.5 604.25,-317.5"/>
</a>
</g>
<g id="a_node3_2"><a xlink:href="http://awoiaf.westeros.org/index.php/Catelyn_Stark" xlink:title="Catelyn Tully" target="_blank">
<text text-anchor="start" x="496.5" y="-260.3" font-family="Times,serif" font-size="14.00">Catelyn Tully</text>
<text text-anchor="start" x="515" y="-245.3" font-family="Times,serif" font-size="14.00">264&#45;299</text>
</a>
</g>
<g><a xlink:href="/character/display?id=Catelyn_Stark" xlink:title="Catelyn Tully" target="_blank">
</a>
</g>
</g>
<!-- 2&#45;&gt;1+2 -->
<g id="edge2" class="edge"><title>2&#45;&gt;1+2</title>
<g id="a_edge2"><a xlink:title=" ">
<path fill="none" stroke="black" d="M483.569,-200.7C462.74,-181.639 443.473,-164.008 438.982,-159.898"/>
</a>
</g>
</g>
<!-- 10 -->
<g id="node4" class="node"><title>10</title>
<g id="a_node4"><a xlink:href="/character/display?id=Rickard_Stark" xlink:title="Rickard Stark" target="_blank">
<polygon fill="white" stroke="black" points="384.25,-519.5 259.75,-519.5 259.75,-394.5 384.25,-394.5 384.25,-519.5"/>
</a>
</g>
<g id="a_node4_3"><a xlink:href="http://awoiaf.westeros.org/index.php/Rickard_Stark" xlink:title="Rickard Stark" target="_blank">
<text text-anchor="start" x="272.5" y="-460.3" font-family="Times,serif" font-size="14.00">Rickard Stark</text>
<text text-anchor="start" x="293" y="-445.3" font-family="Times,serif" font-size="14.00">230&#45;282</text>
</a>
</g>
<g><a xlink:href="/character/display?id=Rickard_Stark" xlink:title="Rickard Stark" target="_blank">
</a>
</g>
</g>
<!-- 10+11 -->
<g id="node19" class="node"><title>10+11</title>
<g id="a_node19"><a xlink:title=" ">
<ellipse fill="black" stroke="black" cx="322" cy="-356" rx="1.8" ry="1.8"/>
</a>
</g>
</g>
<!-- 10&#45;&gt;10+11 -->
<g id="edge3" class="edge"><title>10&#45;&gt;10+11</title>
<g id="a_edge3"><a xlink:title=" ">
<path fill="none" stroke="black" d="M322,-394.428C322,-377.126 322,-361.92 322,-357.986"/>
</a>
</g>
</g>
<!-- 11 -->
<g id="node5" class="node"><title>11</title>
<g id="a_node5"><a xlink:href="/character/display?id=Lyarra_Stark" xlink:title="Lyarra Stark" target="_blank">
<polygon fill="white" stroke="black" points="259.25,-673.5 142.75,-673.5 142.75,-556.5 259.25,-556.5 259.25,-673.5"/>
</a>
</g>
<g id="a_node5_4"><a xlink:href="http://awoiaf.westeros.org/index.php/Lyarra_Stark" xlink:title="Lyarra Stark" target="_blank">
<text text-anchor="start" x="155.5" y="-618.3" font-family="Times,serif" font-size="14.00">Lyarra Stark</text>
<text text-anchor="start" x="176.5" y="-603.3" font-family="Times,serif" font-size="14.00">???&#45;???</text>
</a>
</g>
<g><a xlink:href="/character/display?id=Lyarra_Stark" xlink:title="Lyarra Stark" target="_blank">
</a>
</g>
</g>
<!-- 11&#45;&gt;10+11 -->
<g id="edge4" class="edge"><title>11&#45;&gt;10+11</title>
<g id="a_edge4"><a xlink:title=" ">
<path fill="none" stroke="black" d="M200.766,-556.453C203.396,-508.452 214.003,-440.609 250,-394 269.586,-368.64 311.396,-359.104 320.307,-357.321"/>
</a>
</g>
</g>
<!-- 12 -->
<g id="node6" class="node"><title>12</title>
<g id="a_node6"><a xlink:href="/character/display?id=Hoster_Tully" xlink:title="Hoster Tully" target="_blank">
<polygon fill="white" stroke="black" points="610.25,-514.5 495.75,-514.5 495.75,-399.5 610.25,-399.5 610.25,-514.5"/>
</a>
</g>
<g id="a_node6_5"><a xlink:href="http://awoiaf.westeros.org/index.php/Hoster_Tully" xlink:title="Hoster Tully" target="_blank">
<text text-anchor="start" x="508.5" y="-460.3" font-family="Times,serif" font-size="14.00">Hoster Tully</text>
<text text-anchor="start" x="524" y="-445.3" font-family="Times,serif" font-size="14.00">237&#45;299</text>
</a>
</g>
<g><a xlink:href="/character/display?id=Hoster_Tully" xlink:title="Hoster Tully" target="_blank">
</a>
</g>
</g>
<!-- 12+13 -->
<g id="node20" class="node"><title>12+13</title>
<g id="a_node20"><a xlink:title=" ">
<ellipse fill="black" stroke="black" cx="553" cy="-356" rx="1.8" ry="1.8"/>
</a>
</g>
</g>
<!-- 12&#45;&gt;12+13 -->
<g id="edge5" class="edge"><title>12&#45;&gt;12+13</title>
<g id="a_edge5"><a xlink:title=" ">
<path fill="none" stroke="black" d="M553,-399.272C553,-379.917 553,-362.069 553,-357.909"/>
</a>
</g>
</g>
<!-- 13 -->
<g id="node7" class="node"><title>13</title>
<g id="a_node7"><a xlink:href="/character/display?id=Minisa_Whent" xlink:title="Minisa Whent" target="_blank">
<polygon fill="white" stroke="black" points="755,-520 629,-520 629,-394 755,-394 755,-520"/>
</a>
</g>
<g id="a_node7_6"><a xlink:href="http://awoiaf.westeros.org/index.php/Minisa_Whent" xlink:title="Minisa Whent" target="_blank">
<text text-anchor="start" x="641.5" y="-460.3" font-family="Times,serif" font-size="14.00">Minisa Whent</text>
<text text-anchor="start" x="662.5" y="-445.3" font-family="Times,serif" font-size="14.00">250&#45;268</text>
</a>
</g>
<g><a xlink:href="/character/display?id=Minisa_Whent" xlink:title="Minisa Whent" target="_blank">
</a>
</g>
</g>
<!-- 13&#45;&gt;12+13 -->
<g id="edge6" class="edge"><title>13&#45;&gt;12+13</title>
<g id="a_edge6"><a xlink:title=" ">
<path fill="none" stroke="black" d="M628.878,-401.145C625.58,-398.674 622.277,-396.278 619,-394 594.409,-376.903 561.269,-360.911 554.313,-357.617"/>
</a>
</g>
</g>
<!-- 188 -->
<g id="node8" class="node"><title>188</title>
<g id="a_node8"><a xlink:href="/character/display?id=Edwyle_Stark" xlink:title="Edwyle Stark" target="_blank">
<polygon fill="white" stroke="black" points="365,-847 243,-847 243,-725 365,-725 365,-847"/>
</a>
</g>
<g id="a_node8_7"><a xlink:href="http://awoiaf.westeros.org/index.php/Edwyle_Stark" xlink:title="Edwyle Stark" target="_blank">
<text text-anchor="start" x="255.5" y="-789.3" font-family="Times,serif" font-size="14.00">Edwyle Stark</text>
<text text-anchor="start" x="279" y="-774.3" font-family="Times,serif" font-size="14.00">???&#45;???</text>
</a>
</g>
<g><a xlink:href="/character/display?id=Edwyle_Stark" xlink:title="Edwyle Stark" target="_blank">
</a>
</g>
</g>
<!-- 188+189 -->
<g id="node21" class="node"><title>188+189</title>
<g id="a_node21"><a xlink:title=" ">
<ellipse fill="black" stroke="black" cx="322" cy="-615" rx="1.8" ry="1.8"/>
</a>
</g>
</g>
<!-- 188&#45;&gt;188+189 -->
<g id="edge7" class="edge"><title>188&#45;&gt;188+189</title>
<g id="a_edge7"><a xlink:title=" ">
<path fill="none" stroke="black" d="M310.397,-724.941C315.166,-680.161 321.003,-625.36 321.886,-617.071"/>
</a>
</g>
</g>
<!-- 189 -->
<g id="node9" class="node"><title>189</title>
<g id="a_node9"><a xlink:href="/character/display?id=Marna_Locke" xlink:title="Marna Locke" target="_blank">
<polygon fill="white" stroke="black" points="504.25,-846.5 383.75,-846.5 383.75,-725.5 504.25,-725.5 504.25,-846.5"/>
</a>
</g>
<g id="a_node9_8"><a xlink:href="http://awoiaf.westeros.org/index.php/Marna_Locke" xlink:title="Marna Locke" target="_blank">
<text text-anchor="start" x="396.5" y="-789.3" font-family="Times,serif" font-size="14.00">Marna Locke</text>
<text text-anchor="start" x="419.5" y="-774.3" font-family="Times,serif" font-size="14.00">???&#45;???</text>
</a>
</g>
<g><a xlink:href="/character/display?id=Marna_Locke" xlink:title="Marna Locke" target="_blank">
</a>
</g>
</g>
<!-- 189&#45;&gt;188+189 -->
<g id="edge8" class="edge"><title>189&#45;&gt;188+189</title>
<g id="a_edge8"><a xlink:title=" ">
<path fill="none" stroke="black" d="M400.987,-725.417C368.607,-680.562 328.8,-625.42 322.778,-617.078"/>
</a>
</g>
</g>
<!-- 205 -->
<g id="node10" class="node"><title>205</title>
<g id="a_node10"><a xlink:href="/character/display?id=Rodrik Stark_(son_of_Beron)" xlink:title="Rodrik Stark" target="_blank">
<polygon fill="white" stroke="black" points="233.25,-1084.5 116.75,-1084.5 116.75,-967.5 233.25,-967.5 233.25,-1084.5"/>
</a>
</g>
<g id="a_node10_9"><a xlink:href="http://awoiaf.westeros.org/index.php/Rodrik Stark_(son_of_Beron)" xlink:title="Rodrik Stark" target="_blank">
<text text-anchor="start" x="129.5" y="-1029.3" font-family="Times,serif" font-size="14.00">Rodrik Stark</text>
<text text-anchor="start" x="150.5" y="-1014.3" font-family="Times,serif" font-size="14.00">???&#45;???</text>
</a>
</g>
<g><a xlink:href="/character/display?id=Rodrik Stark_(son_of_Beron)" xlink:title="Rodrik Stark" target="_blank">
</a>
</g>
</g>
<!-- 205+206 -->
<g id="node22" class="node"><title>205+206</title>
<g id="a_node22"><a xlink:title=" ">
<ellipse fill="black" stroke="black" cx="175" cy="-900" rx="1.8" ry="1.8"/>
</a>
</g>
</g>
<!-- 205&#45;&gt;205+206 -->
<g id="edge9" class="edge"><title>205&#45;&gt;205+206</title>
<g id="a_edge9"><a xlink:title=" ">
<path fill="none" stroke="black" d="M175,-967.356C175,-938.01 175,-907.356 175,-901.867"/>
</a>
</g>
</g>
<!-- 206 -->
<g id="node11" class="node"><title>206</title>
<g id="a_node11"><a xlink:href="/character/display?id=Arya_Flint" xlink:title="Arya Flint" target="_blank">
<polygon fill="white" stroke="black" points="97.5,-1075 0.5,-1075 0.5,-977 97.5,-977 97.5,-1075"/>
</a>
</g>
<g id="a_node11_10"><a xlink:href="http://awoiaf.westeros.org/index.php/Arya_Flint" xlink:title="Arya Flint" target="_blank">
<text text-anchor="start" x="12.5" y="-1029.3" font-family="Times,serif" font-size="14.00">Arya Flint</text>
<text text-anchor="start" x="24" y="-1014.3" font-family="Times,serif" font-size="14.00">???&#45;???</text>
</a>
</g>
<g><a xlink:href="/character/display?id=Arya_Flint" xlink:title="Arya Flint" target="_blank">
</a>
</g>
</g>
<!-- 206&#45;&gt;205+206 -->
<g id="edge10" class="edge"><title>206&#45;&gt;205+206</title>
<g id="a_edge10"><a xlink:title=" ">
<path fill="none" stroke="black" d="M75.3236,-976.603C84.1928,-963.048 94.9413,-949.023 107,-938 129.618,-917.325 165.886,-904.128 173.549,-901.489"/>
</a>
</g>
</g>
<!-- 105 -->
<g id="node12" class="node"><title>105</title>
<g id="a_node12"><a xlink:title="Unknown Tully" target="_blank">
<polygon fill="white" stroke="black" points="655.25,-852.5 522.75,-852.5 522.75,-719.5 655.25,-719.5 655.25,-852.5"/>
<text text-anchor="start" x="535.5" y="-789.3" font-family="Times,serif" font-size="14.00">Unknown Tully</text>
<text text-anchor="start" x="564.5" y="-774.3" font-family="Times,serif" font-size="14.00">???&#45;???</text>
</a>
</g>
</g>
<!-- 105+106 -->
<g id="node23" class="node"><title>105+106</title>
<g id="a_node23"><a xlink:title=" ">
<ellipse fill="black" stroke="black" cx="589" cy="-615" rx="1.8" ry="1.8"/>
</a>
</g>
</g>
<!-- 105&#45;&gt;105+106 -->
<g id="edge11" class="edge"><title>105&#45;&gt;105+106</title>
<g id="a_edge11"><a xlink:title=" ">
<path fill="none" stroke="black" d="M589,-719.176C589,-675.431 589,-624.656 589,-616.99"/>
</a>
</g>
</g>
<!-- 106 -->
<g id="node13" class="node"><title>106</title>
<g id="a_node13"><a xlink:title="Unknown Woman" target="_blank">
<polygon fill="white" stroke="black" points="824.25,-861.5 673.75,-861.5 673.75,-710.5 824.25,-710.5 824.25,-861.5"/>
<text text-anchor="start" x="686.5" y="-789.3" font-family="Times,serif" font-size="14.00">Unknown Woman</text>
<text text-anchor="start" x="724.5" y="-774.3" font-family="Times,serif" font-size="14.00">???&#45;???</text>
</a>
</g>
</g>
<!-- 106&#45;&gt;105+106 -->
<g id="edge12" class="edge"><title>106&#45;&gt;105+106</title>
<g id="a_edge12"><a xlink:title=" ">
<path fill="none" stroke="black" d="M678.356,-710.382C638.843,-668.646 596.243,-623.65 589.827,-616.874"/>
</a>
</g>
</g>
<!-- 184 -->
<g id="node14" class="node"><title>184</title>
<g id="a_node14"><a xlink:href="/character/display?id=Willam_Stark" xlink:title="Willam Stark" target="_blank">
<polygon fill="white" stroke="black" points="370.25,-1085.5 251.75,-1085.5 251.75,-966.5 370.25,-966.5 370.25,-1085.5"/>
</a>
</g>
<g id="a_node14_13"><a xlink:href="http://awoiaf.westeros.org/index.php/Willam_Stark" xlink:title="Willam Stark" target="_blank">
<text text-anchor="start" x="264.5" y="-1029.3" font-family="Times,serif" font-size="14.00">Willam Stark</text>
<text text-anchor="start" x="284" y="-1014.3" font-family="Times,serif" font-size="14.00">???&#45;226</text>
</a>
</g>
<g><a xlink:href="/character/display?id=Willam_Stark" xlink:title="Willam Stark" target="_blank">
</a>
</g>
</g>
<!-- 184+187 -->
<g id="node24" class="node"><title>184+187</title>
<g id="a_node24"><a xlink:title=" ">
<ellipse fill="black" stroke="black" cx="311" cy="-900" rx="1.8" ry="1.8"/>
</a>
</g>
</g>
<!-- 184&#45;&gt;184+187 -->
<g id="edge13" class="edge"><title>184&#45;&gt;184+187</title>
<g id="a_edge13"><a xlink:title=" ">
<path fill="none" stroke="black" d="M311,-966.268C311,-937.223 311,-907.218 311,-901.848"/>
</a>
</g>
</g>
<!-- 187 -->
<g id="node15" class="node"><title>187</title>
<g id="a_node15"><a xlink:href="/character/display?id=Melantha_Blackwood" xlink:title="Melantha Blackwood" target="_blank">
<polygon fill="white" stroke="black" points="564.5,-1114 389.5,-1114 389.5,-938 564.5,-938 564.5,-1114"/>
</a>
</g>
<g id="a_node15_14"><a xlink:href="http://awoiaf.westeros.org/index.php/Melantha_Blackwood" xlink:title="Melantha Blackwood" target="_blank">
<text text-anchor="start" x="401.5" y="-1029.3" font-family="Times,serif" font-size="14.00">Melantha Blackwood</text>
<text text-anchor="start" x="452" y="-1014.3" font-family="Times,serif" font-size="14.00">???&#45;???</text>
</a>
</g>
<g><a xlink:href="/character/display?id=Melantha_Blackwood" xlink:title="Melantha Blackwood" target="_blank">
</a>
</g>
</g>
<!-- 187&#45;&gt;184+187 -->
<g id="edge14" class="edge"><title>187&#45;&gt;184+187</title>
<g id="a_edge14"><a xlink:title=" ">
<path fill="none" stroke="black" d="M389.356,-945.542C385.903,-942.942 382.445,-940.419 379,-938 353.921,-920.391 319.576,-904.799 312.362,-901.599"/>
</a>
</g>
</g>
<!-- 180 -->
<g id="node16" class="node"><title>180</title>
<g id="a_node16"><a xlink:href="/character/display?id=Beron_Stark" xlink:title="Beron Stark" target="_blank">
<polygon fill="white" stroke="black" points="233.5,-1303 122.5,-1303 122.5,-1191 233.5,-1191 233.5,-1303"/>
</a>
</g>
<g id="a_node16_15"><a xlink:href="http://awoiaf.westeros.org/index.php/Beron_Stark" xlink:title="Beron Stark" target="_blank">
<text text-anchor="start" x="134.5" y="-1250.3" font-family="Times,serif" font-size="14.00">Beron Stark</text>
<text text-anchor="start" x="153" y="-1235.3" font-family="Times,serif" font-size="14.00">???&#45;???</text>
</a>
</g>
<g><a xlink:href="/character/display?id=Beron_Stark" xlink:title="Beron Stark" target="_blank">
</a>
</g>
</g>
<!-- 180+181 -->
<g id="node25" class="node"><title>180+181</title>
<g id="a_node25"><a xlink:title=" ">
<ellipse fill="black" stroke="black" cx="243" cy="-1152" rx="1.8" ry="1.8"/>
</a>
</g>
</g>
<!-- 180&#45;&gt;180+181 -->
<g id="edge15" class="edge"><title>180&#45;&gt;180+181</title>
<g id="a_edge15"><a xlink:title=" ">
<path fill="none" stroke="black" d="M216.562,-1190.83C228.809,-1173.3 239.865,-1157.48 242.438,-1153.8"/>
</a>
</g>
</g>
<!-- 181 -->
<g id="node17" class="node"><title>181</title>
<g id="a_node17"><a xlink:href="/character/display?id=Lorra_Royce" xlink:title="Lorra Royce" target="_blank">
<polygon fill="white" stroke="black" points="365.25,-1303.5 252.75,-1303.5 252.75,-1190.5 365.25,-1190.5 365.25,-1303.5"/>
</a>
</g>
<g id="a_node17_16"><a xlink:href="http://awoiaf.westeros.org/index.php/Lorra_Royce" xlink:title="Lorra Royce" target="_blank">
<text text-anchor="start" x="265.5" y="-1250.3" font-family="Times,serif" font-size="14.00">Lorra Royce</text>
<text text-anchor="start" x="284.5" y="-1235.3" font-family="Times,serif" font-size="14.00">???&#45;???</text>
</a>
</g>
<g><a xlink:href="/character/display?id=Lorra_Royce" xlink:title="Lorra Royce" target="_blank">
</a>
</g>
</g>
<!-- 181&#45;&gt;180+181 -->
<g id="edge16" class="edge"><title>181&#45;&gt;180+181</title>
<g id="a_edge16"><a xlink:title=" ">
<path fill="none" stroke="black" d="M269.464,-1190.29C257.165,-1172.96 246.128,-1157.41 243.561,-1153.79"/>
</a>
</g>
</g>
<!-- 1+2&#45;&gt;7 -->
<g id="edge17" class="edge"><title>1+2&#45;&gt;7</title>
<path fill="none" stroke="black" d="M438,-155.922C438,-151.843 438,-136.723 438,-119.712"/>
</g>
<!-- 10+11&#45;&gt;1 -->
<g id="edge18" class="edge"><title>10+11&#45;&gt;1</title>
<path fill="none" stroke="black" d="M322.112,-353.911C322.531,-349.852 324.065,-334.973 325.804,-318.104"/>
</g>
<!-- 12+13&#45;&gt;2 -->
<g id="edge19" class="edge"><title>12+13&#45;&gt;2</title>
<path fill="none" stroke="black" d="M552.899,-353.911C552.518,-349.81 551.113,-334.666 549.528,-317.584"/>
</g>
<!-- 188+189&#45;&gt;10 -->
<g id="edge20" class="edge"><title>188+189&#45;&gt;10</title>
<path fill="none" stroke="black" d="M322,-613.004C322,-605.712 322,-559.735 322,-519.732"/>
</g>
<!-- 205+206&#45;&gt;11 -->
<g id="edge21" class="edge"><title>205+206&#45;&gt;11</title>
<path fill="none" stroke="black" d="M175.075,-898.188C176.142,-886.565 188.425,-752.87 195.694,-673.749"/>
</g>
<!-- 105+106&#45;&gt;12 -->
<g id="edge22" class="edge"><title>105+106&#45;&gt;12</title>
<path fill="none" stroke="black" d="M588.77,-613.004C587.016,-605.401 575.555,-555.738 566.072,-514.644"/>
</g>
<!-- 184+187&#45;&gt;188 -->
<g id="edge23" class="edge"><title>184+187&#45;&gt;188</title>
<path fill="none" stroke="black" d="M310.921,-897.742C310.583,-892.335 309.206,-870.294 307.768,-847.282"/>
</g>
<!-- 180+181&#45;&gt;205 -->
<g id="edge24" class="edge"><title>180+181&#45;&gt;205</title>
<path fill="none" stroke="black" d="M242.566,-1150.21C239.67,-1144.93 222.779,-1114.13 206.611,-1084.64"/>
</g>
<!-- 180+181&#45;&gt;184 -->
<g id="edge25" class="edge"><title>180+181&#45;&gt;184</title>
<path fill="none" stroke="black" d="M243.434,-1150.21C246.296,-1144.99 262.827,-1114.84 278.82,-1085.68"/>
</g>
</g>
</svg>
