<?xml version="1.0" encoding="UTF-8" standalone="no"?>
<!DOCTYPE svg PUBLIC "-//W3C//DTD SVG 1.1//EN"
 "http://www.w3.org/Graphics/SVG/1.1/DTD/svg11.dtd">
<!-- Generated by graphviz version 2.36.0 (20140111.2315)
 -->
<!-- Title: family Pages: 1 -->
<svg width="1189pt" height="1208pt"
 viewBox="0.00 0.00 1189.00 1208.00" xmlns="http://www.w3.org/2000/svg" xmlns:xlink="http://www.w3.org/1999/xlink">
<g id="graph0" class="graph" transform="scale(1 1) rotate(0) translate(4 1204)">
<title>family</title>
<polygon fill="white" stroke="none" points="-4,4 -4,-1204 1185,-1204 1185,4 -4,4"/>
<!-- 10 -->
<g id="node1" class="node"><title>10</title>
<g id="a_node1"><a xlink:href="/character/display?id=Rickard_Stark" xlink:title="Rickard Stark" target="_blank">
<polygon fill="white" stroke="black" points="1035.25,-559.5 910.75,-559.5 910.75,-434.5 1035.25,-434.5 1035.25,-559.5"/>
</a>
</g>
<g id="a_node1_0"><a xlink:href="http://awoiaf.westeros.org/index.php/Rickard_Stark" xlink:title="Rickard Stark" target="_blank">
<text text-anchor="start" x="923.5" y="-500.3" font-family="Times,serif" font-size="14.00">Rickard Stark</text>
<text text-anchor="start" x="944" y="-485.3" font-family="Times,serif" font-size="14.00">230&#45;282</text>
</a>
</g>
<g><a xlink:href="/character/display?id=Rickard_Stark" xlink:title="Rickard Stark" target="_blank">
</a>
</g>
</g>
<!-- 10+11 -->
<g id="node21" class="node"><title>10+11</title>
<ellipse fill="black" stroke="black" cx="903" cy="-396" rx="1.8" ry="1.8"/>
</g>
<!-- 10&#45;&gt;10+11 -->
<g id="edge1" class="edge"><title>10&#45;&gt;10+11</title>
<path fill="none" stroke="black" d="M929.464,-434.428C917.008,-416.812 906.089,-401.368 903.553,-397.782"/>
</g>
<!-- 188 -->
<g id="node2" class="node"><title>188</title>
<g id="a_node2"><a xlink:href="/character/display?id=Edwyle_Stark" xlink:title="Edwyle Stark" target="_blank">
<polygon fill="white" stroke="black" points="964,-758 842,-758 842,-636 964,-636 964,-758"/>
</a>
</g>
<g id="a_node2_1"><a xlink:href="http://awoiaf.westeros.org/index.php/Edwyle_Stark" xlink:title="Edwyle Stark" target="_blank">
<text text-anchor="start" x="854.5" y="-700.3" font-family="Times,serif" font-size="14.00">Edwyle Stark</text>
<text text-anchor="start" x="878" y="-685.3" font-family="Times,serif" font-size="14.00">???&#45;???</text>
</a>
</g>
<g><a xlink:href="/character/display?id=Edwyle_Stark" xlink:title="Edwyle Stark" target="_blank">
</a>
</g>
</g>
<!-- 188+189 -->
<g id="node22" class="node"><title>188+189</title>
<ellipse fill="black" stroke="black" cx="973" cy="-598" rx="1.8" ry="1.8"/>
</g>
<!-- 188&#45;&gt;188+189 -->
<g id="edge3" class="edge"><title>188&#45;&gt;188+189</title>
<path fill="none" stroke="black" d="M946.336,-635.948C958.867,-618.585 969.883,-603.319 972.442,-599.774"/>
</g>
<!-- 189 -->
<g id="node3" class="node"><title>189</title>
<g id="a_node3"><a xlink:href="/character/display?id=Marna_Locke" xlink:title="Marna Locke" target="_blank">
<polygon fill="white" stroke="black" points="1103.25,-757.5 982.75,-757.5 982.75,-636.5 1103.25,-636.5 1103.25,-757.5"/>
</a>
</g>
<g id="a_node3_2"><a xlink:href="http://awoiaf.westeros.org/index.php/Marna_Locke" xlink:title="Marna Locke" target="_blank">
<text text-anchor="start" x="995.5" y="-700.3" font-family="Times,serif" font-size="14.00">Marna Locke</text>
<text text-anchor="start" x="1018.5" y="-685.3" font-family="Times,serif" font-size="14.00">???&#45;???</text>
</a>
</g>
<g><a xlink:href="/character/display?id=Marna_Locke" xlink:title="Marna Locke" target="_blank">
</a>
</g>
</g>
<!-- 189&#45;&gt;188+189 -->
<g id="edge4" class="edge"><title>189&#45;&gt;188+189</title>
<path fill="none" stroke="black" d="M999.864,-636.225C987.259,-618.759 976.145,-603.358 973.563,-599.781"/>
</g>
<!-- 184 -->
<g id="node4" class="node"><title>184</title>
<g id="a_node4"><a xlink:href="/character/display?id=Willam_Stark" xlink:title="Willam Stark" target="_blank">
<polygon fill="white" stroke="black" points="879.25,-981.5 760.75,-981.5 760.75,-862.5 879.25,-862.5 879.25,-981.5"/>
</a>
</g>
<g id="a_node4_3"><a xlink:href="http://awoiaf.westeros.org/index.php/Willam_Stark" xlink:title="Willam Stark" target="_blank">
<text text-anchor="start" x="773.5" y="-925.3" font-family="Times,serif" font-size="14.00">Willam Stark</text>
<text text-anchor="start" x="793" y="-910.3" font-family="Times,serif" font-size="14.00">???&#45;226</text>
</a>
</g>
<g><a xlink:href="/character/display?id=Willam_Stark" xlink:title="Willam Stark" target="_blank">
</a>
</g>
</g>
<!-- 184+187 -->
<g id="node23" class="node"><title>184+187</title>
<ellipse fill="black" stroke="black" cx="903" cy="-796" rx="1.8" ry="1.8"/>
</g>
<!-- 184&#45;&gt;184+187 -->
<g id="edge5" class="edge"><title>184&#45;&gt;184+187</title>
<path fill="none" stroke="black" d="M859.312,-862.268C878.754,-833.223 898.838,-803.218 902.433,-797.848"/>
</g>
<!-- 187 -->
<g id="node5" class="node"><title>187</title>
<g id="a_node5"><a xlink:href="/character/display?id=Melantha_Blackwood" xlink:title="Melantha Blackwood" target="_blank">
<polygon fill="white" stroke="black" points="1073.5,-1010 898.5,-1010 898.5,-834 1073.5,-834 1073.5,-1010"/>
</a>
</g>
<g id="a_node5_4"><a xlink:href="http://awoiaf.westeros.org/index.php/Melantha_Blackwood" xlink:title="Melantha Blackwood" target="_blank">
<text text-anchor="start" x="910.5" y="-925.3" font-family="Times,serif" font-size="14.00">Melantha Blackwood</text>
<text text-anchor="start" x="961" y="-910.3" font-family="Times,serif" font-size="14.00">???&#45;???</text>
</a>
</g>
<g><a xlink:href="/character/display?id=Melantha_Blackwood" xlink:title="Melantha Blackwood" target="_blank">
</a>
</g>
</g>
<!-- 187&#45;&gt;184+187 -->
<g id="edge6" class="edge"><title>187&#45;&gt;184+187</title>
<path fill="none" stroke="black" d="M927.678,-833.868C915.567,-815.774 905.756,-801.117 903.493,-797.736"/>
</g>
<!-- 180 -->
<g id="node6" class="node"><title>180</title>
<g id="a_node6"><a xlink:href="/character/display?id=Beron_Stark" xlink:title="Beron Stark" target="_blank">
<polygon fill="white" stroke="black" points="810.5,-1199 699.5,-1199 699.5,-1087 810.5,-1087 810.5,-1199"/>
</a>
</g>
<g id="a_node6_5"><a xlink:href="http://awoiaf.westeros.org/index.php/Beron_Stark" xlink:title="Beron Stark" target="_blank">
<text text-anchor="start" x="711.5" y="-1146.3" font-family="Times,serif" font-size="14.00">Beron Stark</text>
<text text-anchor="start" x="730" y="-1131.3" font-family="Times,serif" font-size="14.00">???&#45;???</text>
</a>
</g>
<g><a xlink:href="/character/display?id=Beron_Stark" xlink:title="Beron Stark" target="_blank">
</a>
</g>
</g>
<!-- 180+181 -->
<g id="node24" class="node"><title>180+181</title>
<ellipse fill="black" stroke="black" cx="820" cy="-1048" rx="1.8" ry="1.8"/>
</g>
<!-- 180&#45;&gt;180+181 -->
<g id="edge7" class="edge"><title>180&#45;&gt;180+181</title>
<path fill="none" stroke="black" d="M793.562,-1086.83C805.809,-1069.3 816.865,-1053.48 819.438,-1049.8"/>
</g>
<!-- 181 -->
<g id="node7" class="node"><title>181</title>
<g id="a_node7"><a xlink:href="/character/display?id=Lorra_Royce" xlink:title="Lorra Royce" target="_blank">
<polygon fill="white" stroke="black" points="942.25,-1199.5 829.75,-1199.5 829.75,-1086.5 942.25,-1086.5 942.25,-1199.5"/>
</a>
</g>
<g id="a_node7_6"><a xlink:href="http://awoiaf.westeros.org/index.php/Lorra_Royce" xlink:title="Lorra Royce" target="_blank">
<text text-anchor="start" x="842.5" y="-1146.3" font-family="Times,serif" font-size="14.00">Lorra Royce</text>
<text text-anchor="start" x="861.5" y="-1131.3" font-family="Times,serif" font-size="14.00">???&#45;???</text>
</a>
</g>
<g><a xlink:href="/character/display?id=Lorra_Royce" xlink:title="Lorra Royce" target="_blank">
</a>
</g>
</g>
<!-- 181&#45;&gt;180+181 -->
<g id="edge8" class="edge"><title>181&#45;&gt;180+181</title>
<path fill="none" stroke="black" d="M846.464,-1086.29C834.165,-1068.96 823.128,-1053.41 820.561,-1049.79"/>
</g>
<!-- 1 -->
<g id="node8" class="node"><title>1</title>
<g id="a_node8"><a xlink:href="/character/display?id=Eddard_Stark" xlink:title="Eddard Stark" target="_blank">
<polygon fill="white" stroke="black" points="585,-343 463,-343 463,-221 585,-221 585,-343"/>
</a>
</g>
<g id="a_node8_7"><a xlink:href="http://awoiaf.westeros.org/index.php/Eddard_Stark" xlink:title="Eddard Stark" target="_blank">
<text text-anchor="start" x="475.5" y="-285.3" font-family="Times,serif" font-size="14.00">Eddard Stark</text>
<text text-anchor="start" x="494.5" y="-270.3" font-family="Times,serif" font-size="14.00">263&#45;299</text>
</a>
</g>
<g><a xlink:href="/character/display?id=Eddard_Stark" xlink:title="Eddard Stark" target="_blank">
</a>
</g>
</g>
<!-- 1+2 -->
<g id="node25" class="node"><title>1+2</title>
<ellipse fill="black" stroke="black" cx="331" cy="-168" rx="1.8" ry="1.8"/>
</g>
<!-- 1&#45;&gt;1+2 -->
<g id="edge9" class="edge"><title>1&#45;&gt;1+2</title>
<path fill="none" stroke="black" d="M462.877,-243.172C442.958,-231.076 420.655,-217.774 400,-206 373.076,-190.652 339.379,-173.294 332.329,-169.68"/>
</g>
<!-- 1+9 -->
<g id="node26" class="node"><title>1+9</title>
<ellipse fill="black" stroke="black" cx="679" cy="-168" rx="1.8" ry="1.8"/>
</g>
<!-- 1&#45;&gt;1+9 -->
<g id="edge11" class="edge"><title>1&#45;&gt;1+9</title>
<path fill="none" stroke="black" stroke-dasharray="5,2" d="M575.749,-220.817C581.617,-215.471 587.745,-210.42 594,-206 624.493,-184.45 669.527,-171.572 677.703,-169.346"/>
</g>
<!-- 14 -->
<g id="node9" class="node"><title>14</title>
<g id="a_node9"><a xlink:href="/character/display?id=Lyanna_Stark" xlink:title="Lyanna Stark" target="_blank">
<polygon fill="white" stroke="black" points="895,-343 773,-343 773,-221 895,-221 895,-343"/>
</a>
</g>
<g id="a_node9_8"><a xlink:href="http://awoiaf.westeros.org/index.php/Lyanna_Stark" xlink:title="Lyanna Stark" target="_blank">
<text text-anchor="start" x="785.5" y="-285.3" font-family="Times,serif" font-size="14.00">Lyanna Stark</text>
<text text-anchor="start" x="804.5" y="-270.3" font-family="Times,serif" font-size="14.00">266&#45;283</text>
</a>
</g>
<g><a xlink:href="/character/display?id=Lyanna_Stark" xlink:title="Lyanna Stark" target="_blank">
</a>
</g>
</g>
<!-- 15 -->
<g id="node10" class="node"><title>15</title>
<g id="a_node10"><a xlink:href="/character/display?id=Benjen_Stark" xlink:title="Benjen Stark" target="_blank">
<polygon fill="white" stroke="black" points="1032.25,-341.5 913.75,-341.5 913.75,-222.5 1032.25,-222.5 1032.25,-341.5"/>
</a>
</g>
<g id="a_node10_9"><a xlink:href="http://awoiaf.westeros.org/index.php/Benjen_Stark" xlink:title="Benjen Stark" target="_blank">
<text text-anchor="start" x="926.5" y="-285.3" font-family="Times,serif" font-size="14.00">Benjen Stark</text>
<text text-anchor="start" x="957.5" y="-270.3" font-family="Times,serif" font-size="14.00">267&#45;</text>
</a>
</g>
<g><a xlink:href="/character/display?id=Benjen_Stark" xlink:title="Benjen Stark" target="_blank">
</a>
</g>
</g>
<!-- 16 -->
<g id="node11" class="node"><title>16</title>
<g id="a_node11"><a xlink:href="/character/display?id=Brandon_Stark" xlink:title="Brandon Stark" target="_blank">
<polygon fill="white" stroke="black" points="1181,-347 1051,-347 1051,-217 1181,-217 1181,-347"/>
</a>
</g>
<g id="a_node11_10"><a xlink:href="http://awoiaf.westeros.org/index.php/Brandon_Stark" xlink:title="Brandon Stark" target="_blank">
<text text-anchor="start" x="1063.5" y="-285.3" font-family="Times,serif" font-size="14.00">Brandon Stark</text>
<text text-anchor="start" x="1086.5" y="-270.3" font-family="Times,serif" font-size="14.00">262&#45;282</text>
</a>
</g>
<g><a xlink:href="/character/display?id=Brandon_Stark" xlink:title="Brandon Stark" target="_blank">
</a>
</g>
</g>
<!-- 3 -->
<g id="node12" class="node"><title>3</title>
<g id="a_node12"><a xlink:href="/character/display?id=Robb_Stark" xlink:title="Robb Stark" target="_blank">
<polygon fill="white" stroke="black" points="105.5,-118 0.5,-118 0.5,-12 105.5,-12 105.5,-118"/>
</a>
</g>
<g id="a_node12_11"><a xlink:href="http://awoiaf.westeros.org/index.php/Robb_Stark" xlink:title="Robb Stark" target="_blank">
<text text-anchor="start" x="12.5" y="-68.3" font-family="Times,serif" font-size="14.00">Robb Stark</text>
<text text-anchor="start" x="23.5" y="-53.3" font-family="Times,serif" font-size="14.00">283&#45;299</text>
</a>
</g>
<g><a xlink:href="/character/display?id=Robb_Stark" xlink:title="Robb Stark" target="_blank">
</a>
</g>
</g>
<!-- 4 -->
<g id="node13" class="node"><title>4</title>
<g id="a_node13"><a xlink:href="/character/display?id=Sansa_Stark" xlink:title="Sansa Stark" target="_blank">
<polygon fill="white" stroke="black" points="234.25,-120.5 123.75,-120.5 123.75,-9.5 234.25,-9.5 234.25,-120.5"/>
</a>
</g>
<g id="a_node13_12"><a xlink:href="http://awoiaf.westeros.org/index.php/Sansa_Stark" xlink:title="Sansa Stark" target="_blank">
<text text-anchor="start" x="136.5" y="-68.3" font-family="Times,serif" font-size="14.00">Sansa Stark</text>
<text text-anchor="start" x="163.5" y="-53.3" font-family="Times,serif" font-size="14.00">286&#45;</text>
</a>
</g>
<g><a xlink:href="/character/display?id=Sansa_Stark" xlink:title="Sansa Stark" target="_blank">
</a>
</g>
</g>
<!-- 5 -->
<g id="node14" class="node"><title>5</title>
<g id="a_node14"><a xlink:href="/character/display?id=Arya_Stark" xlink:title="Arya Stark" target="_blank">
<polygon fill="white" stroke="black" points="355.25,-116.5 252.75,-116.5 252.75,-13.5 355.25,-13.5 355.25,-116.5"/>
</a>
</g>
<g id="a_node14_13"><a xlink:href="http://awoiaf.westeros.org/index.php/Arya_Stark" xlink:title="Arya Stark" target="_blank">
<text text-anchor="start" x="265.5" y="-68.3" font-family="Times,serif" font-size="14.00">Arya Stark</text>
<text text-anchor="start" x="288.5" y="-53.3" font-family="Times,serif" font-size="14.00">289&#45;</text>
</a>
</g>
<g><a xlink:href="/character/display?id=Arya_Stark" xlink:title="Arya Stark" target="_blank">
</a>
</g>
</g>
<!-- 6 -->
<g id="node15" class="node"><title>6</title>
<g id="a_node15"><a xlink:href="/character/display?id=Bran_Stark" xlink:title="Brandon Stark" target="_blank">
<polygon fill="white" stroke="black" points="504,-130 374,-130 374,-0 504,-0 504,-130"/>
</a>
</g>
<g id="a_node15_14"><a xlink:href="http://awoiaf.westeros.org/index.php/Bran_Stark" xlink:title="Brandon Stark" target="_blank">
<text text-anchor="start" x="386.5" y="-68.3" font-family="Times,serif" font-size="14.00">Brandon Stark</text>
<text text-anchor="start" x="423" y="-53.3" font-family="Times,serif" font-size="14.00">290&#45;</text>
</a>
</g>
<g><a xlink:href="/character/display?id=Bran_Stark" xlink:title="Brandon Stark" target="_blank">
</a>
</g>
</g>
<!-- 7 -->
<g id="node16" class="node"><title>7</title>
<g id="a_node16"><a xlink:href="/character/display?id=Rickon_Stark" xlink:title="Rickon Stark" target="_blank">
<polygon fill="white" stroke="black" points="641.25,-124.5 522.75,-124.5 522.75,-5.5 641.25,-5.5 641.25,-124.5"/>
</a>
</g>
<g id="a_node16_15"><a xlink:href="http://awoiaf.westeros.org/index.php/Rickon_Stark" xlink:title="Rickon Stark" target="_blank">
<text text-anchor="start" x="535.5" y="-68.3" font-family="Times,serif" font-size="14.00">Rickon Stark</text>
<text text-anchor="start" x="566.5" y="-53.3" font-family="Times,serif" font-size="14.00">295&#45;</text>
</a>
</g>
<g><a xlink:href="/character/display?id=Rickon_Stark" xlink:title="Rickon Stark" target="_blank">
</a>
</g>
</g>
<!-- 8 -->
<g id="node17" class="node"><title>8</title>
<g id="a_node17"><a xlink:href="/character/display?id=Jon_Snow" xlink:title="Jon Snow" target="_blank">
<polygon fill="white" stroke="black" points="752,-111 660,-111 660,-19 752,-19 752,-111"/>
</a>
</g>
<g id="a_node17_16"><a xlink:href="http://awoiaf.westeros.org/index.php/Jon_Snow" xlink:title="Jon Snow" target="_blank">
<text text-anchor="start" x="672.5" y="-68.3" font-family="Times,serif" font-size="14.00">Jon Snow</text>
<text text-anchor="start" x="690" y="-53.3" font-family="Times,serif" font-size="14.00">283&#45;</text>
</a>
</g>
<g><a xlink:href="/character/display?id=Jon_Snow" xlink:title="Jon Snow" target="_blank">
</a>
</g>
</g>
<!-- 11 -->
<g id="node18" class="node"><title>11</title>
<g id="a_node18"><a xlink:href="/character/display?id=Lyarra_Stark" xlink:title="Lyarra Stark" target="_blank">
<polygon fill="white" stroke="black" points="892.25,-555.5 775.75,-555.5 775.75,-438.5 892.25,-438.5 892.25,-555.5"/>
</a>
</g>
<g id="a_node18_17"><a xlink:href="http://awoiaf.westeros.org/index.php/Lyarra_Stark" xlink:title="Lyarra Stark" target="_blank">
<text text-anchor="start" x="788.5" y="-500.3" font-family="Times,serif" font-size="14.00">Lyarra Stark</text>
<text text-anchor="start" x="809.5" y="-485.3" font-family="Times,serif" font-size="14.00">???&#45;???</text>
</a>
</g>
<g><a xlink:href="/character/display?id=Lyarra_Stark" xlink:title="Lyarra Stark" target="_blank">
</a>
</g>
</g>
<!-- 11&#45;&gt;10+11 -->
<g id="edge2" class="edge"><title>11&#45;&gt;10+11</title>
<path fill="none" stroke="black" d="M874.138,-438.411C887.42,-419.354 899.556,-401.942 902.382,-397.886"/>
</g>
<!-- 2 -->
<g id="node19" class="node"><title>2</title>
<g id="a_node19"><a xlink:href="/character/display?id=Catelyn_Stark" xlink:title="Catelyn Tully" target="_blank">
<polygon fill="white" stroke="black" points="391.25,-342.5 270.75,-342.5 270.75,-221.5 391.25,-221.5 391.25,-342.5"/>
</a>
</g>
<g id="a_node19_18"><a xlink:href="http://awoiaf.westeros.org/index.php/Catelyn_Stark" xlink:title="Catelyn Tully" target="_blank">
<text text-anchor="start" x="283.5" y="-285.3" font-family="Times,serif" font-size="14.00">Catelyn Tully</text>
<text text-anchor="start" x="302" y="-270.3" font-family="Times,serif" font-size="14.00">264&#45;299</text>
</a>
</g>
<g><a xlink:href="/character/display?id=Catelyn_Stark" xlink:title="Catelyn Tully" target="_blank">
</a>
</g>
</g>
<!-- 2&#45;&gt;1+2 -->
<g id="edge10" class="edge"><title>2&#45;&gt;1+2</title>
<path fill="none" stroke="black" d="M331,-221.393C331,-197.989 331,-175.429 331,-170.154"/>
</g>
<!-- 9 -->
<g id="node20" class="node"><title>9</title>
<g id="a_node20"><a xlink:title="Unknown Woman" target="_blank">
<polygon fill="white" stroke="black" points="754.25,-357.5 603.75,-357.5 603.75,-206.5 754.25,-206.5 754.25,-357.5"/>
<text text-anchor="start" x="616.5" y="-285.3" font-family="Times,serif" font-size="14.00">Unknown Woman</text>
<text text-anchor="start" x="654.5" y="-270.3" font-family="Times,serif" font-size="14.00">???&#45;???</text>
</a>
</g>
</g>
<!-- 9&#45;&gt;1+9 -->
<g id="edge12" class="edge"><title>9&#45;&gt;1+9</title>
<path fill="none" stroke="black" stroke-dasharray="5,2" d="M679,-206.294C679,-188.639 679,-173.786 679,-169.958"/>
</g>
<!-- 10+11&#45;&gt;1 -->
<g id="edge16" class="edge"><title>10+11&#45;&gt;1</title>
<path fill="none" stroke="black" d="M901.414,-394.96C880.221,-394.409 652.782,-387.824 594,-358 586.217,-354.051 578.849,-348.866 572.022,-343.063"/>
</g>
<!-- 10+11&#45;&gt;14 -->
<g id="edge17" class="edge"><title>10+11&#45;&gt;14</title>
<path fill="none" stroke="black" d="M902.225,-393.742C898.894,-388.335 885.315,-366.294 871.138,-343.282"/>
</g>
<!-- 10+11&#45;&gt;15 -->
<g id="edge18" class="edge"><title>10+11&#45;&gt;15</title>
<path fill="none" stroke="black" d="M903.786,-393.742C907.241,-388.215 921.559,-365.306 936.283,-341.747"/>
</g>
<!-- 10+11&#45;&gt;16 -->
<g id="edge19" class="edge"><title>10+11&#45;&gt;16</title>
<path fill="none" stroke="black" d="M904.467,-394.894C915.799,-394.019 990.306,-387.273 1041,-358 1046.42,-354.869 1051.73,-351.247 1056.85,-347.319"/>
</g>
<!-- 188+189&#45;&gt;10 -->
<g id="edge13" class="edge"><title>188+189&#45;&gt;10</title>
<path fill="none" stroke="black" d="M973,-595.888C973,-591.767 973,-576.715 973,-559.608"/>
</g>
<!-- 184+187&#45;&gt;188 -->
<g id="edge14" class="edge"><title>184+187&#45;&gt;188</title>
<path fill="none" stroke="black" d="M903,-793.911C903,-789.852 903,-774.973 903,-758.104"/>
</g>
<!-- 180+181&#45;&gt;184 -->
<g id="edge15" class="edge"><title>180+181&#45;&gt;184</title>
<path fill="none" stroke="black" d="M820,-1045.61C820,-1038.98 820,-1009.8 820,-981.573"/>
</g>
<!-- 1+2&#45;&gt;3 -->
<g id="edge20" class="edge"><title>1+2&#45;&gt;3</title>
<path fill="none" stroke="black" d="M329.123,-167.111C312.848,-167.99 194.291,-172.738 114,-130 107.903,-126.754 102.064,-122.672 96.5816,-118.148"/>
</g>
<!-- 1+2&#45;&gt;4 -->
<g id="edge21" class="edge"><title>1+2&#45;&gt;4</title>
<path fill="none" stroke="black" d="M329.666,-166.651C321.257,-164.409 274.913,-151.447 243,-130 238.827,-127.195 234.696,-124.092 230.664,-120.808"/>
</g>
<!-- 1+2&#45;&gt;5 -->
<g id="edge22" class="edge"><title>1+2&#45;&gt;5</title>
<path fill="none" stroke="black" d="M330.697,-165.866C329.318,-160.708 323.452,-138.766 317.569,-116.759"/>
</g>
<!-- 1+2&#45;&gt;6 -->
<g id="edge23" class="edge"><title>1+2&#45;&gt;6</title>
<path fill="none" stroke="black" d="M332.213,-165.866C336.871,-161.51 354.329,-145.183 373.82,-126.955"/>
</g>
<!-- 1+2&#45;&gt;7 -->
<g id="edge24" class="edge"><title>1+2&#45;&gt;7</title>
<path fill="none" stroke="black" d="M332.56,-166.997C346.093,-166.907 444.728,-165.041 513,-130 516.198,-128.359 519.356,-126.527 522.457,-124.549"/>
</g>
<!-- 1+9&#45;&gt;8 -->
<g id="edge25" class="edge"><title>1+9&#45;&gt;8</title>
<path fill="none" stroke="black" stroke-dasharray="5,2" d="M679.303,-165.866C680.798,-160.274 687.565,-134.96 693.912,-111.219"/>
</g>
</g>
</svg>
