<?xml version="1.0" encoding="UTF-8" standalone="no"?>
<!DOCTYPE svg PUBLIC "-//W3C//DTD SVG 1.1//EN"
 "http://www.w3.org/Graphics/SVG/1.1/DTD/svg11.dtd">
<!-- Generated by graphviz version 2.36.0 (20140111.2315)
 -->
<!-- Title: family Pages: 1 -->
<svg width="778pt" height="1248pt"
 viewBox="0.00 0.00 778.00 1248.00" xmlns="http://www.w3.org/2000/svg" xmlns:xlink="http://www.w3.org/1999/xlink">
<g id="graph0" class="graph" transform="scale(1 1) rotate(0) translate(4 1244)">
<title>family</title>
<polygon fill="white" stroke="none" points="-4,4 -4,-1244 774,-1244 774,4 -4,4"/>
<!-- 7 -->
<g id="node1" class="node"><title>7</title>
<g id="a_node1"><a xlink:href="http://awoiaf.westeros.org/index.php/Rickon_Stark" xlink:title="Rickon Stark\n295&#45;" target="_blank">
<polygon fill="white" stroke="black" points="461,-110 351,-110 351,-7.10543e-15 461,-7.10543e-15 461,-110"/>
<text text-anchor="middle" x="406" y="-58.8" font-family="Times,serif" font-size="14.00">Rickon Stark</text>
<text text-anchor="middle" x="406" y="-43.8" font-family="Times,serif" font-size="14.00">295&#45;</text>
</a>
</g>
</g>
<!-- 1 -->
<g id="node2" class="node"><title>1</title>
<g id="a_node2"><a xlink:href="http://awoiaf.westeros.org/index.php/Eddard_Stark" xlink:title="Eddard Stark\n263&#45;299" target="_blank">
<polygon fill="white" stroke="black" points="363.25,-299.5 250.75,-299.5 250.75,-186.5 363.25,-186.5 363.25,-299.5"/>
<text text-anchor="middle" x="307" y="-246.8" font-family="Times,serif" font-size="14.00">Eddard Stark</text>
<text text-anchor="middle" x="307" y="-231.8" font-family="Times,serif" font-size="14.00">263&#45;299</text>
</a>
</g>
</g>
<!-- 1+2 -->
<g id="node18" class="node"><title>1+2</title>
<ellipse fill="black" stroke="black" cx="406" cy="-148" rx="1.8" ry="1.8"/>
</g>
<!-- 1&#45;&gt;1+2 -->
<g id="edge1" class="edge"><title>1&#45;&gt;1+2</title>
<path fill="none" stroke="black" d="M363.441,-188.98C382.894,-170.706 400.888,-153.802 405.083,-149.861"/>
</g>
<!-- 2 -->
<g id="node3" class="node"><title>2</title>
<g id="a_node3"><a xlink:href="http://awoiaf.westeros.org/index.php/Catelyn_Stark" xlink:title="Catelyn Tully\n264&#45;299" target="_blank">
<polygon fill="white" stroke="black" points="561.5,-299 450.5,-299 450.5,-187 561.5,-187 561.5,-299"/>
<text text-anchor="middle" x="506" y="-246.8" font-family="Times,serif" font-size="14.00">Catelyn Tully</text>
<text text-anchor="middle" x="506" y="-231.8" font-family="Times,serif" font-size="14.00">264&#45;299</text>
</a>
</g>
</g>
<!-- 2&#45;&gt;1+2 -->
<g id="edge2" class="edge"><title>2&#45;&gt;1+2</title>
<path fill="none" stroke="black" d="M450.444,-190.333C430.304,-171.603 411.382,-154.005 406.966,-149.898"/>
</g>
<!-- 10 -->
<g id="node4" class="node"><title>10</title>
<g id="a_node4"><a xlink:href="http://awoiaf.westeros.org/index.php/Rickard_Stark" xlink:title="Rickard Stark\n230&#45;282" target="_blank">
<polygon fill="white" stroke="black" points="355.5,-493 240.5,-493 240.5,-377 355.5,-377 355.5,-493"/>
<text text-anchor="middle" x="298" y="-438.8" font-family="Times,serif" font-size="14.00">Rickard Stark</text>
<text text-anchor="middle" x="298" y="-423.8" font-family="Times,serif" font-size="14.00">230&#45;282</text>
</a>
</g>
</g>
<!-- 10+11 -->
<g id="node19" class="node"><title>10+11</title>
<ellipse fill="black" stroke="black" cx="298" cy="-338" rx="1.8" ry="1.8"/>
</g>
<!-- 10&#45;&gt;10+11 -->
<g id="edge3" class="edge"><title>10&#45;&gt;10+11</title>
<path fill="none" stroke="black" d="M298,-376.819C298,-359.529 298,-344.026 298,-340.008"/>
</g>
<!-- 11 -->
<g id="node5" class="node"><title>11</title>
<g id="a_node5"><a xlink:href="http://awoiaf.westeros.org/index.php/Lyarra_Stark" xlink:title="Lyarra Stark\n???&#45;???" target="_blank">
<polygon fill="white" stroke="black" points="239,-638 131,-638 131,-530 239,-530 239,-638"/>
<text text-anchor="middle" x="185" y="-587.8" font-family="Times,serif" font-size="14.00">Lyarra Stark</text>
<text text-anchor="middle" x="185" y="-572.8" font-family="Times,serif" font-size="14.00">???&#45;???</text>
</a>
</g>
</g>
<!-- 11&#45;&gt;10+11 -->
<g id="edge4" class="edge"><title>11&#45;&gt;10+11</title>
<path fill="none" stroke="black" d="M185.058,-529.558C187.674,-484.528 197.693,-420.506 231,-376 249.152,-351.744 288.116,-341.345 296.422,-339.361"/>
</g>
<!-- 12 -->
<g id="node6" class="node"><title>12</title>
<g id="a_node6"><a xlink:href="http://awoiaf.westeros.org/index.php/Hoster_Tully" xlink:title="Hoster Tully\n237&#45;299" target="_blank">
<polygon fill="white" stroke="black" points="566.5,-488 461.5,-488 461.5,-382 566.5,-382 566.5,-488"/>
<text text-anchor="middle" x="514" y="-438.8" font-family="Times,serif" font-size="14.00">Hoster Tully</text>
<text text-anchor="middle" x="514" y="-423.8" font-family="Times,serif" font-size="14.00">237&#45;299</text>
</a>
</g>
</g>
<!-- 12+13 -->
<g id="node20" class="node"><title>12+13</title>
<ellipse fill="black" stroke="black" cx="514" cy="-338" rx="1.8" ry="1.8"/>
</g>
<!-- 12&#45;&gt;12+13 -->
<g id="edge5" class="edge"><title>12&#45;&gt;12+13</title>
<path fill="none" stroke="black" d="M514,-381.776C514,-362.46 514,-344.197 514,-339.933"/>
</g>
<!-- 13 -->
<g id="node7" class="node"><title>13</title>
<g id="a_node7"><a xlink:href="http://awoiaf.westeros.org/index.php/Minisa_Whent" xlink:title="Minisa Whent\n250&#45;268" target="_blank">
<polygon fill="white" stroke="black" points="702.25,-493.5 585.75,-493.5 585.75,-376.5 702.25,-376.5 702.25,-493.5"/>
<text text-anchor="middle" x="644" y="-438.8" font-family="Times,serif" font-size="14.00">Minisa Whent</text>
<text text-anchor="middle" x="644" y="-423.8" font-family="Times,serif" font-size="14.00">250&#45;268</text>
</a>
</g>
</g>
<!-- 13&#45;&gt;12+13 -->
<g id="edge6" class="edge"><title>13&#45;&gt;12+13</title>
<path fill="none" stroke="black" d="M585.383,-383.71C581.911,-381.05 578.434,-378.462 575,-376 552.453,-359.832 522.66,-343.63 515.564,-339.832"/>
</g>
<!-- 188 -->
<g id="node8" class="node"><title>188</title>
<g id="a_node8"><a xlink:href="http://awoiaf.westeros.org/index.php/Edwyle_Stark" xlink:title="Edwyle Stark\n???&#45;???" target="_blank">
<polygon fill="white" stroke="black" points="337.25,-801.5 224.75,-801.5 224.75,-688.5 337.25,-688.5 337.25,-801.5"/>
<text text-anchor="middle" x="281" y="-748.8" font-family="Times,serif" font-size="14.00">Edwyle Stark</text>
<text text-anchor="middle" x="281" y="-733.8" font-family="Times,serif" font-size="14.00">???&#45;???</text>
</a>
</g>
</g>
<!-- 188+189 -->
<g id="node21" class="node"><title>188+189</title>
<ellipse fill="black" stroke="black" cx="298" cy="-584" rx="1.8" ry="1.8"/>
</g>
<!-- 188&#45;&gt;188+189 -->
<g id="edge7" class="edge"><title>188&#45;&gt;188+189</title>
<path fill="none" stroke="black" d="M286.946,-688.39C291.465,-646.121 297.046,-593.919 297.891,-586.021"/>
</g>
<!-- 189 -->
<g id="node9" class="node"><title>189</title>
<g id="a_node9"><a xlink:href="http://awoiaf.westeros.org/index.php/Marna_Locke" xlink:title="Marna Locke\n???&#45;???" target="_blank">
<polygon fill="white" stroke="black" points="467.5,-801 356.5,-801 356.5,-689 467.5,-689 467.5,-801"/>
<text text-anchor="middle" x="412" y="-748.8" font-family="Times,serif" font-size="14.00">Marna Locke</text>
<text text-anchor="middle" x="412" y="-733.8" font-family="Times,serif" font-size="14.00">???&#45;???</text>
</a>
</g>
</g>
<!-- 189&#45;&gt;188+189 -->
<g id="edge8" class="edge"><title>189&#45;&gt;188+189</title>
<path fill="none" stroke="black" d="M372.448,-688.836C342.095,-646.5 304.435,-593.976 298.736,-586.027"/>
</g>
<!-- 205 -->
<g id="node10" class="node"><title>205</title>
<g id="a_node10"><a xlink:href="http://awoiaf.westeros.org/index.php/Rodrik Stark_(son_of_Beron)" xlink:title="Rodrik Stark\n???&#45;???" target="_blank">
<polygon fill="white" stroke="black" points="215,-1030 107,-1030 107,-922 215,-922 215,-1030"/>
<text text-anchor="middle" x="161" y="-979.8" font-family="Times,serif" font-size="14.00">Rodrik Stark</text>
<text text-anchor="middle" x="161" y="-964.8" font-family="Times,serif" font-size="14.00">???&#45;???</text>
</a>
</g>
</g>
<!-- 205+206 -->
<g id="node22" class="node"><title>205+206</title>
<ellipse fill="black" stroke="black" cx="161" cy="-854" rx="1.8" ry="1.8"/>
</g>
<!-- 205&#45;&gt;205+206 -->
<g id="edge9" class="edge"><title>205&#45;&gt;205+206</title>
<path fill="none" stroke="black" d="M161,-921.667C161,-892.623 161,-861.468 161,-855.882"/>
</g>
<!-- 206 -->
<g id="node11" class="node"><title>206</title>
<g id="a_node11"><a xlink:href="http://awoiaf.westeros.org/index.php/Arya_Flint" xlink:title="Arya Flint\n???&#45;???" target="_blank">
<polygon fill="white" stroke="black" points="88.25,-1020.5 -0.25,-1020.5 -0.25,-931.5 88.25,-931.5 88.25,-1020.5"/>
<text text-anchor="middle" x="44" y="-979.8" font-family="Times,serif" font-size="14.00">Arya Flint</text>
<text text-anchor="middle" x="44" y="-964.8" font-family="Times,serif" font-size="14.00">???&#45;???</text>
</a>
</g>
</g>
<!-- 206&#45;&gt;205+206 -->
<g id="edge10" class="edge"><title>206&#45;&gt;205+206</title>
<path fill="none" stroke="black" d="M67.1975,-931.192C75.7097,-917.619 86.1907,-903.281 98,-892 118.912,-872.024 152.547,-858.281 159.654,-855.514"/>
</g>
<!-- 105 -->
<g id="node12" class="node"><title>105</title>
<polygon fill="white" stroke="black" points="609.5,-807 486.5,-807 486.5,-683 609.5,-683 609.5,-807"/>
<text text-anchor="middle" x="548" y="-748.8" font-family="Times,serif" font-size="14.00">Unknown Tully</text>
<text text-anchor="middle" x="548" y="-733.8" font-family="Times,serif" font-size="14.00">???&#45;???</text>
</g>
<!-- 105+106 -->
<g id="node23" class="node"><title>105+106</title>
<ellipse fill="black" stroke="black" cx="548" cy="-584" rx="1.8" ry="1.8"/>
</g>
<!-- 105&#45;&gt;105+106 -->
<g id="edge11" class="edge"><title>105&#45;&gt;105+106</title>
<path fill="none" stroke="black" d="M548,-682.981C548,-641.645 548,-593.253 548,-585.944"/>
</g>
<!-- 106 -->
<g id="node13" class="node"><title>106</title>
<polygon fill="white" stroke="black" points="770,-816 628,-816 628,-674 770,-674 770,-816"/>
<text text-anchor="middle" x="699" y="-748.8" font-family="Times,serif" font-size="14.00">Unknown Woman</text>
<text text-anchor="middle" x="699" y="-733.8" font-family="Times,serif" font-size="14.00">???&#45;???</text>
</g>
<!-- 106&#45;&gt;105+106 -->
<g id="edge12" class="edge"><title>106&#45;&gt;105+106</title>
<path fill="none" stroke="black" d="M632.33,-673.797C595.039,-634.531 554.835,-592.197 548.781,-585.822"/>
</g>
<!-- 184 -->
<g id="node14" class="node"><title>184</title>
<g id="a_node14"><a xlink:href="http://awoiaf.westeros.org/index.php/Willam_Stark" xlink:title="Willam Stark\n???&#45;226" target="_blank">
<polygon fill="white" stroke="black" points="343,-1031 233,-1031 233,-921 343,-921 343,-1031"/>
<text text-anchor="middle" x="288" y="-979.8" font-family="Times,serif" font-size="14.00">Willam Stark</text>
<text text-anchor="middle" x="288" y="-964.8" font-family="Times,serif" font-size="14.00">???&#45;226</text>
</a>
</g>
</g>
<!-- 184+187 -->
<g id="node24" class="node"><title>184+187</title>
<ellipse fill="black" stroke="black" cx="288" cy="-854" rx="1.8" ry="1.8"/>
</g>
<!-- 184&#45;&gt;184+187 -->
<g id="edge13" class="edge"><title>184&#45;&gt;184+187</title>
<path fill="none" stroke="black" d="M288,-920.968C288,-892.103 288,-861.377 288,-855.87"/>
</g>
<!-- 187 -->
<g id="node15" class="node"><title>187</title>
<g id="a_node15"><a xlink:href="http://awoiaf.westeros.org/index.php/Melantha_Blackwood" xlink:title="Melantha Blackwood\n???&#45;???" target="_blank">
<polygon fill="white" stroke="black" points="528.25,-1059.5 361.75,-1059.5 361.75,-892.5 528.25,-892.5 528.25,-1059.5"/>
<text text-anchor="middle" x="445" y="-979.8" font-family="Times,serif" font-size="14.00">Melantha Blackwood</text>
<text text-anchor="middle" x="445" y="-964.8" font-family="Times,serif" font-size="14.00">???&#45;???</text>
</a>
</g>
</g>
<!-- 187&#45;&gt;184+187 -->
<g id="edge14" class="edge"><title>187&#45;&gt;184+187</title>
<path fill="none" stroke="black" d="M361.497,-899.095C358.328,-896.656 355.156,-894.284 352,-892 328.294,-874.845 296.049,-858.899 289.279,-855.615"/>
</g>
<!-- 180 -->
<g id="node16" class="node"><title>180</title>
<g id="a_node16"><a xlink:href="http://awoiaf.westeros.org/index.php/Beron_Stark" xlink:title="Beron Stark\n???&#45;???" target="_blank">
<polygon fill="white" stroke="black" points="214.25,-1239.5 111.75,-1239.5 111.75,-1136.5 214.25,-1136.5 214.25,-1239.5"/>
<text text-anchor="middle" x="163" y="-1191.8" font-family="Times,serif" font-size="14.00">Beron Stark</text>
<text text-anchor="middle" x="163" y="-1176.8" font-family="Times,serif" font-size="14.00">???&#45;???</text>
</a>
</g>
</g>
<!-- 180+181 -->
<g id="node25" class="node"><title>180+181</title>
<ellipse fill="black" stroke="black" cx="224" cy="-1098" rx="1.8" ry="1.8"/>
</g>
<!-- 180&#45;&gt;180+181 -->
<g id="edge15" class="edge"><title>180&#45;&gt;180+181</title>
<path fill="none" stroke="black" d="M198.131,-1136.32C209.995,-1119.2 220.903,-1103.47 223.445,-1099.8"/>
</g>
<!-- 181 -->
<g id="node17" class="node"><title>181</title>
<g id="a_node17"><a xlink:href="http://awoiaf.westeros.org/index.php/Lorra_Royce" xlink:title="Lorra Royce\n???&#45;???" target="_blank">
<polygon fill="white" stroke="black" points="337,-1240 233,-1240 233,-1136 337,-1136 337,-1240"/>
<text text-anchor="middle" x="285" y="-1191.8" font-family="Times,serif" font-size="14.00">Lorra Royce</text>
<text text-anchor="middle" x="285" y="-1176.8" font-family="Times,serif" font-size="14.00">???&#45;???</text>
</a>
</g>
</g>
<!-- 181&#45;&gt;180+181 -->
<g id="edge16" class="edge"><title>181&#45;&gt;180+181</title>
<path fill="none" stroke="black" d="M249.516,-1135.81C237.774,-1118.87 227.045,-1103.39 224.546,-1099.79"/>
</g>
<!-- 1+2&#45;&gt;7 -->
<g id="edge17" class="edge"><title>1+2&#45;&gt;7</title>
<path fill="none" stroke="black" d="M406,-145.978C406,-141.995 406,-126.901 406,-110.184"/>
</g>
<!-- 10+11&#45;&gt;1 -->
<g id="edge18" class="edge"><title>10+11&#45;&gt;1</title>
<path fill="none" stroke="black" d="M298.101,-335.956C298.493,-331.905 299.973,-316.61 301.617,-299.626"/>
</g>
<!-- 12+13&#45;&gt;2 -->
<g id="edge19" class="edge"><title>12+13&#45;&gt;2</title>
<path fill="none" stroke="black" d="M513.91,-335.956C513.558,-331.865 512.22,-316.308 510.742,-299.123"/>
</g>
<!-- 188+189&#45;&gt;10 -->
<g id="edge20" class="edge"><title>188+189&#45;&gt;10</title>
<path fill="none" stroke="black" d="M298,-582.061C298,-575.141 298,-531.247 298,-493.367"/>
</g>
<!-- 205+206&#45;&gt;11 -->
<g id="edge21" class="edge"><title>205+206&#45;&gt;11</title>
<path fill="none" stroke="black" d="M161.087,-852.03C162.193,-839.678 173.597,-712.338 180.248,-638.059"/>
</g>
<!-- 105+106&#45;&gt;12 -->
<g id="edge22" class="edge"><title>105+106&#45;&gt;12</title>
<path fill="none" stroke="black" d="M547.783,-582.061C546.109,-574.823 535.079,-527.136 526.071,-488.189"/>
</g>
<!-- 184+187&#45;&gt;188 -->
<g id="edge23" class="edge"><title>184+187&#45;&gt;188</title>
<path fill="none" stroke="black" d="M287.921,-851.798C287.573,-846.472 286.119,-824.25 284.633,-801.537"/>
</g>
<!-- 180+181&#45;&gt;205 -->
<g id="edge24" class="edge"><title>180+181&#45;&gt;205</title>
<path fill="none" stroke="black" d="M223.598,-1096.23C220.831,-1090.96 204.275,-1059.43 188.885,-1030.11"/>
</g>
<!-- 180+181&#45;&gt;184 -->
<g id="edge25" class="edge"><title>180+181&#45;&gt;184</title>
<path fill="none" stroke="black" d="M224.409,-1096.23C227.187,-1091.02 243.658,-1060.14 259.139,-1031.11"/>
</g>
</g>
</svg>
