<?xml version="1.0" encoding="UTF-8" standalone="no"?>
<!DOCTYPE svg PUBLIC "-//W3C//DTD SVG 1.1//EN"
 "http://www.w3.org/Graphics/SVG/1.1/DTD/svg11.dtd">
<!-- Generated by graphviz version 2.36.0 (20140111.2315)
 -->
<!-- Title: family Pages: 1 -->
<svg width="1322pt" height="1110pt"
 viewBox="0.00 0.00 1322.00 1110.00" xmlns="http://www.w3.org/2000/svg" xmlns:xlink="http://www.w3.org/1999/xlink">
<g id="graph0" class="graph" transform="scale(1 1) rotate(0) translate(4 1106)">
<title>family</title>
<polygon fill="white" stroke="none" points="-4,4 -4,-1106 1318,-1106 1318,4 -4,4"/>
<!-- 138 -->
<g id="node1" class="node"><title>138</title>
<g id="a_node1"><a xlink:href="/character/display?id=Robert_Baratheon" xlink:title="Robert I Baratheon" target="_blank">
<polygon fill="white" stroke="black" points="671,-380 507,-380 507,-216 671,-216 671,-380"/>
</a>
</g>
<g id="a_node1_0"><a xlink:href="http://awoiaf.westeros.org/index.php/Robert_Baratheon" xlink:title="Robert I Baratheon" target="_blank">
<text text-anchor="start" x="519.5" y="-301.3" font-family="Times,serif" font-size="14.00">Robert I Baratheon</text>
<text text-anchor="start" x="559.5" y="-286.3" font-family="Times,serif" font-size="14.00">262&#45;298</text>
</a>
</g>
<g><a xlink:href="/character/display?id=Robert_Baratheon" xlink:title="Robert I Baratheon" target="_blank">
</a>
</g>
</g>
<!-- 138+139 -->
<g id="node22" class="node"><title>138+139</title>
<ellipse fill="black" stroke="black" cx="109" cy="-178" rx="1.8" ry="1.8"/>
</g>
<!-- 138&#45;&gt;138+139 -->
<g id="edge1" class="edge"><title>138&#45;&gt;138+139</title>
<path fill="none" stroke="black" stroke-dasharray="5,2" d="M506.844,-220.782C503.605,-219.04 500.32,-217.437 497,-216 420.928,-183.074 135.09,-179.282 110.666,-179.017"/>
</g>
<!-- 138+141 -->
<g id="node23" class="node"><title>138+141</title>
<ellipse fill="black" stroke="black" cx="343" cy="-178" rx="1.8" ry="1.8"/>
</g>
<!-- 138&#45;&gt;138+141 -->
<g id="edge3" class="edge"><title>138&#45;&gt;138+141</title>
<path fill="none" stroke="black" stroke-dasharray="5,2" d="M506.837,-221.552C503.589,-219.576 500.305,-217.716 497,-216 439.406,-186.1 357.123,-179.884 344.618,-179.095"/>
</g>
<!-- 138+143 -->
<g id="node24" class="node"><title>138+143</title>
<ellipse fill="black" stroke="black" cx="498" cy="-178" rx="1.8" ry="1.8"/>
</g>
<!-- 138&#45;&gt;138+143 -->
<g id="edge5" class="edge"><title>138&#45;&gt;138+143</title>
<path fill="none" stroke="black" stroke-dasharray="5,2" d="M526.294,-215.689C512.502,-197.805 501.183,-183.128 498.569,-179.738"/>
</g>
<!-- 138+145 -->
<g id="node25" class="node"><title>138+145</title>
<ellipse fill="black" stroke="black" cx="646" cy="-178" rx="1.8" ry="1.8"/>
</g>
<!-- 138&#45;&gt;138+145 -->
<g id="edge7" class="edge"><title>138&#45;&gt;138+145</title>
<path fill="none" stroke="black" stroke-dasharray="5,2" d="M628.277,-215.689C636.608,-198.443 643.498,-184.18 645.447,-180.144"/>
</g>
<!-- 138+147 -->
<g id="node26" class="node"><title>138+147</title>
<ellipse fill="black" stroke="black" cx="839" cy="-178" rx="1.8" ry="1.8"/>
</g>
<!-- 138&#45;&gt;138+147 -->
<g id="edge9" class="edge"><title>138&#45;&gt;138+147</title>
<path fill="none" stroke="black" stroke-dasharray="5,2" d="M671.055,-221.014C674.01,-219.235 676.995,-217.557 680,-216 739.39,-185.233 824.406,-179.748 837.328,-179.079"/>
</g>
<!-- 138+149 -->
<g id="node27" class="node"><title>138+149</title>
<ellipse fill="black" stroke="black" cx="1026" cy="-178" rx="1.8" ry="1.8"/>
</g>
<!-- 138&#45;&gt;138+149 -->
<g id="edge11" class="edge"><title>138&#45;&gt;138+149</title>
<path fill="none" stroke="black" stroke-dasharray="5,2" d="M671.103,-220.37C674.034,-218.791 677.002,-217.328 680,-216 747.665,-186.032 1002.72,-179.536 1024.51,-179.033"/>
</g>
<!-- 138+151 -->
<g id="node28" class="node"><title>138+151</title>
<ellipse fill="black" stroke="black" cx="1212" cy="-178" rx="1.8" ry="1.8"/>
</g>
<!-- 138&#45;&gt;138+151 -->
<g id="edge13" class="edge"><title>138&#45;&gt;138+151</title>
<path fill="none" stroke="black" stroke-dasharray="5,2" d="M671.039,-220.222C673.989,-218.686 676.978,-217.272 680,-216 732.694,-193.822 1178.96,-179.996 1210.27,-179.052"/>
</g>
<!-- 136 -->
<g id="node2" class="node"><title>136</title>
<g id="a_node2"><a xlink:href="/character/display?id=Steffon_Baratheon" xlink:title="Steffon Baratheon" target="_blank">
<polygon fill="white" stroke="black" points="577.25,-616.5 422.75,-616.5 422.75,-461.5 577.25,-461.5 577.25,-616.5"/>
</a>
</g>
<g id="a_node2_1"><a xlink:href="http://awoiaf.westeros.org/index.php/Steffon_Baratheon" xlink:title="Steffon Baratheon" target="_blank">
<text text-anchor="start" x="435.5" y="-542.3" font-family="Times,serif" font-size="14.00">Steffon Baratheon</text>
<text text-anchor="start" x="471" y="-527.3" font-family="Times,serif" font-size="14.00">246&#45;278</text>
</a>
</g>
<g><a xlink:href="/character/display?id=Steffon_Baratheon" xlink:title="Steffon Baratheon" target="_blank">
</a>
</g>
</g>
<!-- 136+137 -->
<g id="node29" class="node"><title>136+137</title>
<ellipse fill="black" stroke="black" cx="589" cy="-418" rx="1.8" ry="1.8"/>
</g>
<!-- 136&#45;&gt;136+137 -->
<g id="edge15" class="edge"><title>136&#45;&gt;136+137</title>
<path fill="none" stroke="black" d="M557.371,-461.29C572.44,-441.142 585.354,-423.875 588.347,-419.873"/>
</g>
<!-- 137 -->
<g id="node3" class="node"><title>137</title>
<g id="a_node3"><a xlink:href="/character/display?id=Cassana_Estermont" xlink:title="Cassana Estermont" target="_blank">
<polygon fill="white" stroke="black" points="762,-622 596,-622 596,-456 762,-456 762,-622"/>
</a>
</g>
<g id="a_node3_2"><a xlink:href="http://awoiaf.westeros.org/index.php/Cassana_Estermont" xlink:title="Cassana Estermont" target="_blank">
<text text-anchor="start" x="608.5" y="-542.3" font-family="Times,serif" font-size="14.00">Cassana Estermont</text>
<text text-anchor="start" x="651.5" y="-527.3" font-family="Times,serif" font-size="14.00">???&#45;278</text>
</a>
</g>
<g><a xlink:href="/character/display?id=Cassana_Estermont" xlink:title="Cassana Estermont" target="_blank">
</a>
</g>
</g>
<!-- 137&#45;&gt;136+137 -->
<g id="edge16" class="edge"><title>137&#45;&gt;136+137</title>
<path fill="none" stroke="black" d="M616.737,-455.675C603.198,-437.773 592.116,-423.12 589.557,-419.737"/>
</g>
<!-- 179 -->
<g id="node4" class="node"><title>179</title>
<g id="a_node4"><a xlink:href="/character/display?id=Ormund_Baratheon" xlink:title="Ormund Baratheon" target="_blank">
<polygon fill="white" stroke="black" points="492.25,-861.5 329.75,-861.5 329.75,-698.5 492.25,-698.5 492.25,-861.5"/>
</a>
</g>
<g id="a_node4_3"><a xlink:href="http://awoiaf.westeros.org/index.php/Ormund_Baratheon" xlink:title="Ormund Baratheon" target="_blank">
<text text-anchor="start" x="342.5" y="-783.3" font-family="Times,serif" font-size="14.00">Ormund Baratheon</text>
<text text-anchor="start" x="384" y="-768.3" font-family="Times,serif" font-size="14.00">???&#45;260</text>
</a>
</g>
<g><a xlink:href="/character/display?id=Ormund_Baratheon" xlink:title="Ormund Baratheon" target="_blank">
</a>
</g>
</g>
<!-- 179+178 -->
<g id="node30" class="node"><title>179+178</title>
<ellipse fill="black" stroke="black" cx="500" cy="-660" rx="1.8" ry="1.8"/>
</g>
<!-- 179&#45;&gt;179+178 -->
<g id="edge17" class="edge"><title>179&#45;&gt;179+178</title>
<path fill="none" stroke="black" d="M471.84,-698.336C485.529,-680.187 496.822,-665.213 499.432,-661.754"/>
</g>
<!-- 178 -->
<g id="node5" class="node"><title>178</title>
<g id="a_node5"><a xlink:href="/character/display?id=Rhaelle_Targaryen" xlink:title="Rhaelle Targaryen" target="_blank">
<polygon fill="white" stroke="black" points="667,-858 511,-858 511,-702 667,-702 667,-858"/>
</a>
</g>
<g id="a_node5_4"><a xlink:href="http://awoiaf.westeros.org/index.php/Rhaelle_Targaryen" xlink:title="Rhaelle Targaryen" target="_blank">
<text text-anchor="start" x="523.5" y="-783.3" font-family="Times,serif" font-size="14.00">Rhaelle Targaryen</text>
<text text-anchor="start" x="561.5" y="-768.3" font-family="Times,serif" font-size="14.00">229&#45;???</text>
</a>
</g>
<g><a xlink:href="/character/display?id=Rhaelle_Targaryen" xlink:title="Rhaelle Targaryen" target="_blank">
</a>
</g>
</g>
<!-- 178&#45;&gt;179+178 -->
<g id="edge18" class="edge"><title>178&#45;&gt;179+178</title>
<path fill="none" stroke="black" d="M530.878,-701.94C516.102,-682.348 503.543,-665.697 500.634,-661.841"/>
</g>
<!-- 157 -->
<g id="node6" class="node"><title>157</title>
<g id="a_node6"><a xlink:href="/character/display?id=Aegon_V_Targaryen" xlink:title="Aegon V Targaryen" target="_blank">
<polygon fill="white" stroke="black" points="583.25,-1101.5 420.75,-1101.5 420.75,-938.5 583.25,-938.5 583.25,-1101.5"/>
</a>
</g>
<g id="a_node6_5"><a xlink:href="http://awoiaf.westeros.org/index.php/Aegon_V_Targaryen" xlink:title="Aegon V Targaryen" target="_blank">
<text text-anchor="start" x="433.5" y="-1023.3" font-family="Times,serif" font-size="14.00">Aegon V Targaryen</text>
<text text-anchor="start" x="473" y="-1008.3" font-family="Times,serif" font-size="14.00">200&#45;259</text>
</a>
</g>
<g><a xlink:href="/character/display?id=Aegon_V_Targaryen" xlink:title="Aegon V Targaryen" target="_blank">
</a>
</g>
</g>
<!-- 157+158 -->
<g id="node31" class="node"><title>157+158</title>
<ellipse fill="black" stroke="black" cx="589" cy="-900" rx="1.8" ry="1.8"/>
</g>
<!-- 157&#45;&gt;157+158 -->
<g id="edge19" class="edge"><title>157&#45;&gt;157+158</title>
<path fill="none" stroke="black" d="M561.473,-938.336C574.854,-920.187 585.894,-905.213 588.444,-901.754"/>
</g>
<!-- 158 -->
<g id="node7" class="node"><title>158</title>
<g id="a_node7"><a xlink:href="/character/display?id=Betha_Blackwood" xlink:title="Betha Blackwood" target="_blank">
<polygon fill="white" stroke="black" points="751.5,-1095 602.5,-1095 602.5,-945 751.5,-945 751.5,-1095"/>
</a>
</g>
<g id="a_node7_6"><a xlink:href="http://awoiaf.westeros.org/index.php/Betha_Blackwood" xlink:title="Betha Blackwood" target="_blank">
<text text-anchor="start" x="614.5" y="-1023.3" font-family="Times,serif" font-size="14.00">Betha Blackwood</text>
<text text-anchor="start" x="652" y="-1008.3" font-family="Times,serif" font-size="14.00">???&#45;???</text>
</a>
</g>
<g><a xlink:href="/character/display?id=Betha_Blackwood" xlink:title="Betha Blackwood" target="_blank">
</a>
</g>
</g>
<!-- 158&#45;&gt;157+158 -->
<g id="edge20" class="edge"><title>158&#45;&gt;157+158</title>
<path fill="none" stroke="black" d="M621.768,-944.939C606.297,-924.194 592.812,-906.112 589.683,-901.916"/>
</g>
<!-- 140 -->
<g id="node8" class="node"><title>140</title>
<g id="a_node8"><a xlink:href="/character/display?id=Mya_Stone" xlink:title="Mya Stone" target="_blank">
<polygon fill="white" stroke="black" points="159.5,-121 58.5,-121 58.5,-19 159.5,-19 159.5,-121"/>
</a>
</g>
<g id="a_node8_7"><a xlink:href="http://awoiaf.westeros.org/index.php/Mya_Stone" xlink:title="Mya Stone" target="_blank">
<text text-anchor="start" x="70.5" y="-73.3" font-family="Times,serif" font-size="14.00">Mya Stone</text>
<text text-anchor="start" x="93" y="-58.3" font-family="Times,serif" font-size="14.00">279&#45;</text>
</a>
</g>
<g><a xlink:href="/character/display?id=Mya_Stone" xlink:title="Mya Stone" target="_blank">
</a>
</g>
</g>
<!-- 142 -->
<g id="node9" class="node"><title>142</title>
<g id="a_node9"><a xlink:href="/character/display?id=Bella" xlink:title="Bella" target="_blank">
<polygon fill="white" stroke="black" points="373.5,-101 312.5,-101 312.5,-39 373.5,-39 373.5,-101"/>
</a>
</g>
<g id="a_node9_8"><a xlink:href="http://awoiaf.westeros.org/index.php/Bella" xlink:title="Bella" target="_blank">
<text text-anchor="start" x="324.5" y="-73.3" font-family="Times,serif" font-size="14.00">Bella</text>
<text text-anchor="start" x="327" y="-58.3" font-family="Times,serif" font-size="14.00">283&#45;</text>
</a>
</g>
<g><a xlink:href="/character/display?id=Bella" xlink:title="Bella" target="_blank">
</a>
</g>
</g>
<!-- 144 -->
<g id="node10" class="node"><title>144</title>
<g id="a_node10"><a xlink:href="/character/display?id=Gendry" xlink:title="Gendry" target="_blank">
<polygon fill="white" stroke="black" points="537,-109 459,-109 459,-31 537,-31 537,-109"/>
</a>
</g>
<g id="a_node10_9"><a xlink:href="http://awoiaf.westeros.org/index.php/Gendry" xlink:title="Gendry" target="_blank">
<text text-anchor="start" x="471.5" y="-73.3" font-family="Times,serif" font-size="14.00">Gendry</text>
<text text-anchor="start" x="482" y="-58.3" font-family="Times,serif" font-size="14.00">283&#45;</text>
</a>
</g>
<g><a xlink:href="/character/display?id=Gendry" xlink:title="Gendry" target="_blank">
</a>
</g>
</g>
<!-- 146 -->
<g id="node11" class="node"><title>146</title>
<g id="a_node11"><a xlink:href="/character/display?id=Edric_Storm" xlink:title="Edric Storm" target="_blank">
<polygon fill="white" stroke="black" points="702.25,-126.5 589.75,-126.5 589.75,-13.5 702.25,-13.5 702.25,-126.5"/>
</a>
</g>
<g id="a_node11_10"><a xlink:href="http://awoiaf.westeros.org/index.php/Edric_Storm" xlink:title="Edric Storm" target="_blank">
<text text-anchor="start" x="602.5" y="-73.3" font-family="Times,serif" font-size="14.00">Edric Storm</text>
<text text-anchor="start" x="630.5" y="-58.3" font-family="Times,serif" font-size="14.00">287&#45;</text>
</a>
</g>
<g><a xlink:href="/character/display?id=Edric_Storm" xlink:title="Edric Storm" target="_blank">
</a>
</g>
</g>
<!-- 148 -->
<g id="node12" class="node"><title>148</title>
<g id="a_node12"><a xlink:href="/character/display?id=Barra" xlink:title="Barra" target="_blank">
<polygon fill="white" stroke="black" points="880.5,-112 797.5,-112 797.5,-28 880.5,-28 880.5,-112"/>
</a>
</g>
<g id="a_node12_11"><a xlink:href="http://awoiaf.westeros.org/index.php/Barra" xlink:title="Barra" target="_blank">
<text text-anchor="start" x="818.5" y="-73.3" font-family="Times,serif" font-size="14.00">Barra</text>
<text text-anchor="start" x="809.5" y="-58.3" font-family="Times,serif" font-size="14.00">298&#45;299</text>
</a>
</g>
<g><a xlink:href="/character/display?id=Barra" xlink:title="Barra" target="_blank">
</a>
</g>
</g>
<!-- 150 -->
<g id="node13" class="node"><title>150</title>
<g id="a_node13"><a xlink:title="Unknown Twins" target="_blank">
<polygon fill="white" stroke="black" points="1095.25,-139.5 956.75,-139.5 956.75,-0.5 1095.25,-0.5 1095.25,-139.5"/>
<text text-anchor="start" x="969.5" y="-73.3" font-family="Times,serif" font-size="14.00">Unknown Twins</text>
<text text-anchor="start" x="1001.5" y="-58.3" font-family="Times,serif" font-size="14.00">???&#45;???</text>
</a>
</g>
</g>
<!-- 152 -->
<g id="node14" class="node"><title>152</title>
<g id="a_node14"><a xlink:title="Nine Bastards" target="_blank">
<polygon fill="white" stroke="black" points="1276,-134 1148,-134 1148,-6 1276,-6 1276,-134"/>
<text text-anchor="start" x="1160.5" y="-73.3" font-family="Times,serif" font-size="14.00">Nine Bastards</text>
<text text-anchor="start" x="1187" y="-58.3" font-family="Times,serif" font-size="14.00">???&#45;???</text>
</a>
</g>
</g>
<!-- 139 -->
<g id="node15" class="node"><title>139</title>
<g id="a_node15"><a xlink:title="Unknown Woman" target="_blank">
<polygon fill="white" stroke="black" points="150.25,-373.5 -0.25,-373.5 -0.25,-222.5 150.25,-222.5 150.25,-373.5"/>
<text text-anchor="start" x="12.5" y="-301.3" font-family="Times,serif" font-size="14.00">Unknown Woman</text>
<text text-anchor="start" x="50.5" y="-286.3" font-family="Times,serif" font-size="14.00">???&#45;???</text>
</a>
</g>
</g>
<!-- 139&#45;&gt;138+139 -->
<g id="edge2" class="edge"><title>139&#45;&gt;138+139</title>
<path fill="none" stroke="black" stroke-dasharray="5,2" d="M96.5327,-222.269C102.437,-201.778 107.554,-184.018 108.741,-179.899"/>
</g>
<!-- 141 -->
<g id="node16" class="node"><title>141</title>
<g id="a_node16"><a xlink:title="Unknown Woman" target="_blank">
<polygon fill="white" stroke="black" points="319.25,-373.5 168.75,-373.5 168.75,-222.5 319.25,-222.5 319.25,-373.5"/>
<text text-anchor="start" x="181.5" y="-301.3" font-family="Times,serif" font-size="14.00">Unknown Woman</text>
<text text-anchor="start" x="219.5" y="-286.3" font-family="Times,serif" font-size="14.00">???&#45;???</text>
</a>
</g>
</g>
<!-- 141&#45;&gt;138+141 -->
<g id="edge4" class="edge"><title>141&#45;&gt;138+141</title>
<path fill="none" stroke="black" stroke-dasharray="5,2" d="M306.698,-222.269C323.89,-201.778 338.79,-184.018 342.246,-179.899"/>
</g>
<!-- 143 -->
<g id="node17" class="node"><title>143</title>
<g id="a_node17"><a xlink:title="Unknown Woman" target="_blank">
<polygon fill="white" stroke="black" points="488.25,-373.5 337.75,-373.5 337.75,-222.5 488.25,-222.5 488.25,-373.5"/>
<text text-anchor="start" x="350.5" y="-301.3" font-family="Times,serif" font-size="14.00">Unknown Woman</text>
<text text-anchor="start" x="388.5" y="-286.3" font-family="Times,serif" font-size="14.00">???&#45;???</text>
</a>
</g>
</g>
<!-- 143&#45;&gt;138+143 -->
<g id="edge6" class="edge"><title>143&#45;&gt;138+143</title>
<path fill="none" stroke="black" stroke-dasharray="5,2" d="M466.832,-222.269C481.592,-201.778 494.385,-184.018 497.353,-179.899"/>
</g>
<!-- 145 -->
<g id="node18" class="node"><title>145</title>
<g id="a_node18"><a xlink:href="/character/display?id=Delena_Florent" xlink:title="Delena Florent" target="_blank">
<polygon fill="white" stroke="black" points="821,-364 689,-364 689,-232 821,-232 821,-364"/>
</a>
</g>
<g id="a_node18_17"><a xlink:href="http://awoiaf.westeros.org/index.php/Delena_Florent" xlink:title="Delena Florent" target="_blank">
<text text-anchor="start" x="701.5" y="-301.3" font-family="Times,serif" font-size="14.00">Delena Florent</text>
<text text-anchor="start" x="741" y="-286.3" font-family="Times,serif" font-size="14.00">???&#45;</text>
</a>
</g>
<g><a xlink:href="/character/display?id=Delena_Florent" xlink:title="Delena Florent" target="_blank">
</a>
</g>
</g>
<!-- 145&#45;&gt;138+145 -->
<g id="edge8" class="edge"><title>145&#45;&gt;138+145</title>
<path fill="none" stroke="black" stroke-dasharray="5,2" d="M694.761,-231.788C672.704,-207.909 651.914,-185.402 647.061,-180.149"/>
</g>
<!-- 147 -->
<g id="node19" class="node"><title>147</title>
<g id="a_node19"><a xlink:title="Unknown Woman" target="_blank">
<polygon fill="white" stroke="black" points="990.25,-373.5 839.75,-373.5 839.75,-222.5 990.25,-222.5 990.25,-373.5"/>
<text text-anchor="start" x="852.5" y="-301.3" font-family="Times,serif" font-size="14.00">Unknown Woman</text>
<text text-anchor="start" x="888" y="-286.3" font-family="Times,serif" font-size="14.00">???&#45;299</text>
</a>
</g>
</g>
<!-- 147&#45;&gt;138+147 -->
<g id="edge10" class="edge"><title>147&#45;&gt;138+147</title>
<path fill="none" stroke="black" stroke-dasharray="5,2" d="M866.868,-222.269C853.671,-201.778 842.232,-184.018 839.579,-179.899"/>
</g>
<!-- 149 -->
<g id="node20" class="node"><title>149</title>
<g id="a_node20"><a xlink:title="Unknown Woman" target="_blank">
<polygon fill="white" stroke="black" points="1159.25,-373.5 1008.75,-373.5 1008.75,-222.5 1159.25,-222.5 1159.25,-373.5"/>
<text text-anchor="start" x="1021.5" y="-301.3" font-family="Times,serif" font-size="14.00">Unknown Woman</text>
<text text-anchor="start" x="1059.5" y="-286.3" font-family="Times,serif" font-size="14.00">???&#45;???</text>
</a>
</g>
</g>
<!-- 149&#45;&gt;138+149 -->
<g id="edge12" class="edge"><title>149&#45;&gt;138+149</title>
<path fill="none" stroke="black" stroke-dasharray="5,2" d="M1047.27,-222.269C1037.2,-201.778 1028.47,-184.018 1026.44,-179.899"/>
</g>
<!-- 151 -->
<g id="node21" class="node"><title>151</title>
<g id="a_node21"><a xlink:title="Various Women" target="_blank">
<polygon fill="white" stroke="black" points="1314.25,-366.5 1177.75,-366.5 1177.75,-229.5 1314.25,-229.5 1314.25,-366.5"/>
<text text-anchor="start" x="1190.5" y="-301.3" font-family="Times,serif" font-size="14.00">Various Women</text>
<text text-anchor="start" x="1221.5" y="-286.3" font-family="Times,serif" font-size="14.00">???&#45;???</text>
</a>
</g>
</g>
<!-- 151&#45;&gt;138+151 -->
<g id="edge14" class="edge"><title>151&#45;&gt;138+151</title>
<path fill="none" stroke="black" stroke-dasharray="5,2" d="M1226.52,-229.385C1219.87,-206.315 1213.74,-185.042 1212.31,-180.084"/>
</g>
<!-- 138+139&#45;&gt;140 -->
<g id="edge24" class="edge"><title>138+139&#45;&gt;140</title>
<path fill="none" stroke="black" stroke-dasharray="5,2" d="M109,-175.81C109,-170.146 109,-145.202 109,-121.071"/>
</g>
<!-- 138+141&#45;&gt;142 -->
<g id="edge25" class="edge"><title>138+141&#45;&gt;142</title>
<path fill="none" stroke="black" stroke-dasharray="5,2" d="M343,-175.81C343,-168.531 343,-129.41 343,-101.092"/>
</g>
<!-- 138+143&#45;&gt;144 -->
<g id="edge26" class="edge"><title>138+143&#45;&gt;144</title>
<path fill="none" stroke="black" stroke-dasharray="5,2" d="M498,-175.81C498,-169.191 498,-136.239 498,-109.025"/>
</g>
<!-- 138+145&#45;&gt;146 -->
<g id="edge27" class="edge"><title>138+145&#45;&gt;146</title>
<path fill="none" stroke="black" stroke-dasharray="5,2" d="M646,-175.81C646,-170.578 646,-148.897 646,-126.6"/>
</g>
<!-- 138+147&#45;&gt;148 -->
<g id="edge28" class="edge"><title>138+147&#45;&gt;148</title>
<path fill="none" stroke="black" stroke-dasharray="5,2" d="M839,-175.81C839,-169.441 839,-138.692 839,-112.134"/>
</g>
<!-- 138+149&#45;&gt;150 -->
<g id="edge29" class="edge"><title>138+149&#45;&gt;150</title>
<path fill="none" stroke="black" stroke-dasharray="5,2" d="M1026,-175.81C1026,-171.624 1026,-156.911 1026,-139.777"/>
</g>
<!-- 138+151&#45;&gt;152 -->
<g id="edge30" class="edge"><title>138+151&#45;&gt;152</title>
<path fill="none" stroke="black" stroke-dasharray="5,2" d="M1212,-175.81C1212,-171.17 1212,-153.588 1212,-134.115"/>
</g>
<!-- 136+137&#45;&gt;138 -->
<g id="edge21" class="edge"><title>136+137&#45;&gt;138</title>
<path fill="none" stroke="black" d="M589,-415.675C589,-411.396 589,-397.23 589,-380.17"/>
</g>
<!-- 179+178&#45;&gt;136 -->
<g id="edge22" class="edge"><title>179+178&#45;&gt;136</title>
<path fill="none" stroke="black" d="M500,-657.664C500,-652.914 500,-636.087 500,-616.584"/>
</g>
<!-- 157+158&#45;&gt;178 -->
<g id="edge23" class="edge"><title>157+158&#45;&gt;178</title>
<path fill="none" stroke="black" d="M589,-897.675C589,-893.067 589,-876.992 589,-858.185"/>
</g>
</g>
</svg>
