<?xml version="1.0" encoding="UTF-8" standalone="no"?>
<!DOCTYPE svg PUBLIC "-//W3C//DTD SVG 1.1//EN"
 "http://www.w3.org/Graphics/SVG/1.1/DTD/svg11.dtd">
<!-- Generated by graphviz version 2.36.0 (20140111.2315)
 -->
<!-- Title: family Pages: 1 -->
<svg width="571pt" height="760pt"
 viewBox="0.00 0.00 571.00 760.00" xmlns="http://www.w3.org/2000/svg" xmlns:xlink="http://www.w3.org/1999/xlink">
<g id="graph0" class="graph" transform="scale(1 1) rotate(0) translate(4 756)">
<title>family</title>
<polygon fill="white" stroke="none" points="-4,4 -4,-756 567,-756 567,4 -4,4"/>
<!-- 23 -->
<g id="node1" class="node"><title>23</title>
<g id="a_node1"><a xlink:href="/character/display?id=Robert_Arryn" xlink:title="Robert Arryn" target="_blank">
<polygon fill="white" stroke="black" points="344.5,-120 225.5,-120 225.5,-1.42109e-14 344.5,-1.42109e-14 344.5,-120"/>
</a>
</g>
<g id="a_node1_0"><a xlink:href="http://awoiaf.westeros.org/index.php/Robert_Arryn" xlink:title="Robert Arryn" target="_blank">
<text text-anchor="start" x="237.5" y="-63.3" font-family="Times,serif" font-size="14.00">Robert Arryn</text>
<text text-anchor="start" x="269" y="-48.3" font-family="Times,serif" font-size="14.00">292&#45;</text>
</a>
</g>
<g><a xlink:href="/character/display?id=Robert_Arryn" xlink:title="Robert Arryn" target="_blank">
</a>
</g>
</g>
<!-- 22 -->
<g id="node2" class="node"><title>22</title>
<g id="a_node2"><a xlink:href="/character/display?id=Jon_Arryn" xlink:title="Jon Arryn" target="_blank">
<polygon fill="white" stroke="black" points="266.25,-293.5 171.75,-293.5 171.75,-198.5 266.25,-198.5 266.25,-293.5"/>
</a>
</g>
<g id="a_node2_1"><a xlink:href="http://awoiaf.westeros.org/index.php/Jon_Arryn" xlink:title="Jon Arryn" target="_blank">
<text text-anchor="start" x="184.5" y="-249.3" font-family="Times,serif" font-size="14.00">Jon Arryn</text>
<text text-anchor="start" x="190" y="-234.3" font-family="Times,serif" font-size="14.00">217&#45;298</text>
</a>
</g>
<g><a xlink:href="/character/display?id=Jon_Arryn" xlink:title="Jon Arryn" target="_blank">
</a>
</g>
</g>
<!-- 22+20 -->
<g id="node10" class="node"><title>22+20</title>
<ellipse fill="black" stroke="black" cx="285" cy="-158" rx="1.8" ry="1.8"/>
</g>
<!-- 22&#45;&gt;22+20 -->
<g id="edge1" class="edge"><title>22&#45;&gt;22+20</title>
<path fill="none" stroke="black" d="M254.704,-198.476C268.311,-180.746 281.301,-163.82 284.336,-159.865"/>
</g>
<!-- 20 -->
<g id="node3" class="node"><title>20</title>
<g id="a_node3"><a xlink:href="/character/display?id=Lysa_Arryn" xlink:title="Lysa Tully" target="_blank">
<polygon fill="white" stroke="black" points="401.25,-295.5 302.75,-295.5 302.75,-196.5 401.25,-196.5 401.25,-295.5"/>
</a>
</g>
<g id="a_node3_2"><a xlink:href="http://awoiaf.westeros.org/index.php/Lysa_Arryn" xlink:title="Lysa Tully" target="_blank">
<text text-anchor="start" x="315.5" y="-249.3" font-family="Times,serif" font-size="14.00">Lysa Tully</text>
<text text-anchor="start" x="323" y="-234.3" font-family="Times,serif" font-size="14.00">266&#45;300</text>
</a>
</g>
<g><a xlink:href="/character/display?id=Lysa_Arryn" xlink:title="Lysa Tully" target="_blank">
</a>
</g>
</g>
<!-- 20&#45;&gt;22+20 -->
<g id="edge2" class="edge"><title>20&#45;&gt;22+20</title>
<path fill="none" stroke="black" d="M314.192,-196.471C300.894,-179.402 288.517,-163.515 285.631,-159.81"/>
</g>
<!-- 68 -->
<g id="node4" class="node"><title>68</title>
<g id="a_node4"><a xlink:href="/character/display?id=Jasper_Arryn" xlink:title="Jasper Arryn" target="_blank">
<polygon fill="white" stroke="black" points="116.25,-506.5 -0.25,-506.5 -0.25,-389.5 116.25,-389.5 116.25,-506.5"/>
</a>
</g>
<g id="a_node4_3"><a xlink:href="http://awoiaf.westeros.org/index.php/Jasper_Arryn" xlink:title="Jasper Arryn" target="_blank">
<text text-anchor="start" x="12.5" y="-451.3" font-family="Times,serif" font-size="14.00">Jasper Arryn</text>
<text text-anchor="start" x="33.5" y="-436.3" font-family="Times,serif" font-size="14.00">???&#45;???</text>
</a>
</g>
<g><a xlink:href="/character/display?id=Jasper_Arryn" xlink:title="Jasper Arryn" target="_blank">
</a>
</g>
</g>
<!-- 68+69 -->
<g id="node11" class="node"><title>68+69</title>
<ellipse fill="black" stroke="black" cx="210" cy="-334" rx="1.8" ry="1.8"/>
</g>
<!-- 68&#45;&gt;68+69 -->
<g id="edge3" class="edge"><title>68&#45;&gt;68+69</title>
<path fill="none" stroke="black" d="M104.589,-389.403C111.06,-383.094 117.926,-377.116 125,-372 155.256,-350.119 200.483,-337.51 208.697,-335.338"/>
</g>
<!-- 69 -->
<g id="node5" class="node"><title>69</title>
<g id="a_node5"><a xlink:title="Unknown Woman" target="_blank">
<polygon fill="white" stroke="black" points="285.25,-523.5 134.75,-523.5 134.75,-372.5 285.25,-372.5 285.25,-523.5"/>
<text text-anchor="start" x="147.5" y="-451.3" font-family="Times,serif" font-size="14.00">Unknown Woman</text>
<text text-anchor="start" x="185.5" y="-436.3" font-family="Times,serif" font-size="14.00">???&#45;???</text>
</a>
</g>
</g>
<!-- 69&#45;&gt;68+69 -->
<g id="edge4" class="edge"><title>69&#45;&gt;68+69</title>
<path fill="none" stroke="black" d="M210,-372.294C210,-354.639 210,-339.786 210,-335.958"/>
</g>
<!-- 12 -->
<g id="node6" class="node"><title>12</title>
<g id="a_node6"><a xlink:href="/character/display?id=Hoster_Tully" xlink:title="Hoster Tully" target="_blank">
<polygon fill="white" stroke="black" points="418.25,-505.5 303.75,-505.5 303.75,-390.5 418.25,-390.5 418.25,-505.5"/>
</a>
</g>
<g id="a_node6_5"><a xlink:href="http://awoiaf.westeros.org/index.php/Hoster_Tully" xlink:title="Hoster Tully" target="_blank">
<text text-anchor="start" x="316.5" y="-451.3" font-family="Times,serif" font-size="14.00">Hoster Tully</text>
<text text-anchor="start" x="332" y="-436.3" font-family="Times,serif" font-size="14.00">237&#45;299</text>
</a>
</g>
<g><a xlink:href="/character/display?id=Hoster_Tully" xlink:title="Hoster Tully" target="_blank">
</a>
</g>
</g>
<!-- 12+13 -->
<g id="node12" class="node"><title>12+13</title>
<ellipse fill="black" stroke="black" cx="361" cy="-334" rx="1.8" ry="1.8"/>
</g>
<!-- 12&#45;&gt;12+13 -->
<g id="edge5" class="edge"><title>12&#45;&gt;12+13</title>
<path fill="none" stroke="black" d="M361,-390.344C361,-366.037 361,-341.894 361,-336.239"/>
</g>
<!-- 13 -->
<g id="node7" class="node"><title>13</title>
<g id="a_node7"><a xlink:href="/character/display?id=Minisa_Whent" xlink:title="Minisa Whent" target="_blank">
<polygon fill="white" stroke="black" points="563,-511 437,-511 437,-385 563,-385 563,-511"/>
</a>
</g>
<g id="a_node7_6"><a xlink:href="http://awoiaf.westeros.org/index.php/Minisa_Whent" xlink:title="Minisa Whent" target="_blank">
<text text-anchor="start" x="449.5" y="-451.3" font-family="Times,serif" font-size="14.00">Minisa Whent</text>
<text text-anchor="start" x="470.5" y="-436.3" font-family="Times,serif" font-size="14.00">250&#45;268</text>
</a>
</g>
<g><a xlink:href="/character/display?id=Minisa_Whent" xlink:title="Minisa Whent" target="_blank">
</a>
</g>
</g>
<!-- 13&#45;&gt;12+13 -->
<g id="edge6" class="edge"><title>13&#45;&gt;12+13</title>
<path fill="none" stroke="black" d="M442.419,-384.86C437.36,-380.331 432.188,-375.984 427,-372 403.247,-353.757 369.452,-338.661 362.343,-335.576"/>
</g>
<!-- 105 -->
<g id="node8" class="node"><title>105</title>
<g id="a_node8"><a xlink:title="Unknown Tully" target="_blank">
<polygon fill="white" stroke="black" points="347.25,-742.5 214.75,-742.5 214.75,-609.5 347.25,-609.5 347.25,-742.5"/>
<text text-anchor="start" x="227.5" y="-679.3" font-family="Times,serif" font-size="14.00">Unknown Tully</text>
<text text-anchor="start" x="256.5" y="-664.3" font-family="Times,serif" font-size="14.00">???&#45;???</text>
</a>
</g>
</g>
<!-- 105+106 -->
<g id="node13" class="node"><title>105+106</title>
<ellipse fill="black" stroke="black" cx="361" cy="-562" rx="1.8" ry="1.8"/>
</g>
<!-- 105&#45;&gt;105+106 -->
<g id="edge7" class="edge"><title>105&#45;&gt;105+106</title>
<path fill="none" stroke="black" d="M327.999,-609.201C343.236,-587.869 357.075,-568.495 360.296,-563.985"/>
</g>
<!-- 106 -->
<g id="node9" class="node"><title>106</title>
<g id="a_node9"><a xlink:title="Unknown Woman" target="_blank">
<polygon fill="white" stroke="black" points="516.25,-751.5 365.75,-751.5 365.75,-600.5 516.25,-600.5 516.25,-751.5"/>
<text text-anchor="start" x="378.5" y="-679.3" font-family="Times,serif" font-size="14.00">Unknown Woman</text>
<text text-anchor="start" x="416.5" y="-664.3" font-family="Times,serif" font-size="14.00">???&#45;???</text>
</a>
</g>
</g>
<!-- 106&#45;&gt;105+106 -->
<g id="edge8" class="edge"><title>106&#45;&gt;105+106</title>
<path fill="none" stroke="black" d="M387.639,-600.294C374.798,-582.318 364.033,-567.247 361.543,-563.76"/>
</g>
<!-- 22+20&#45;&gt;23 -->
<g id="edge9" class="edge"><title>22+20&#45;&gt;23</title>
<path fill="none" stroke="black" d="M285,-155.922C285,-151.884 285,-137.028 285,-120.227"/>
</g>
<!-- 68+69&#45;&gt;22 -->
<g id="edge10" class="edge"><title>68+69&#45;&gt;22</title>
<path fill="none" stroke="black" d="M210.101,-332.034C210.534,-327.901 212.291,-311.108 214.131,-293.524"/>
</g>
<!-- 12+13&#45;&gt;20 -->
<g id="edge11" class="edge"><title>12+13&#45;&gt;20</title>
<path fill="none" stroke="black" d="M360.899,-332.034C360.486,-328.085 358.863,-312.582 357.115,-295.873"/>
</g>
<!-- 105+106&#45;&gt;12 -->
<g id="edge12" class="edge"><title>105+106&#45;&gt;12</title>
<path fill="none" stroke="black" d="M361,-559.742C361,-554.046 361,-529.895 361,-505.595"/>
</g>
</g>
</svg>
