<?xml version="1.0" encoding="UTF-8" standalone="no"?>
<!DOCTYPE svg PUBLIC "-//W3C//DTD SVG 1.1//EN"
 "http://www.w3.org/Graphics/SVG/1.1/DTD/svg11.dtd">
<!-- Generated by graphviz version 2.36.0 (20140111.2315)
 -->
<!-- Title: family Pages: 1 -->
<svg width="1234pt" height="952pt"
 viewBox="0.00 0.00 1234.00 952.00" xmlns="http://www.w3.org/2000/svg" xmlns:xlink="http://www.w3.org/1999/xlink">
<g id="graph0" class="graph" transform="scale(1 1) rotate(0) translate(4 948)">
<title>family</title>
<polygon fill="white" stroke="none" points="-4,4 -4,-948 1230,-948 1230,4 -4,4"/>
<!-- 205 -->
<g id="node1" class="node"><title>205</title>
<g id="a_node1"><a xlink:href="/character/display?id=Rodrik Stark_(son_of_Beron)" xlink:title="&lt;TABLE&gt;" target="_blank">
<polygon fill="white" stroke="black" points="1162.25,-753.5 1045.75,-753.5 1045.75,-636.5 1162.25,-636.5 1162.25,-753.5"/>
</a>
</g>
<g id="a_node1_0"><a xlink:href="http://awoiaf.westeros.org/index.php/Rodrik Stark_(son_of_Beron)" xlink:title="&lt;TABLE&gt;" target="_blank">
<text text-anchor="start" x="1058.5" y="-698.3" font-family="Times,serif" font-size="14.00">Rodrik Stark</text>
<text text-anchor="start" x="1079.5" y="-683.3" font-family="Times,serif" font-size="14.00">???&#45;???</text>
</a>
</g>
<g><a xlink:href="/character/display?id=Rodrik Stark_(son_of_Beron)" xlink:title="&lt;TABLE&gt;" target="_blank">
</a>
</g>
</g>
<!-- 205+206 -->
<g id="node20" class="node"><title>205+206</title>
<ellipse fill="black" stroke="black" cx="1041" cy="-598" rx="1.8" ry="1.8"/>
</g>
<!-- 205&#45;&gt;205+206 -->
<g id="edge1" class="edge"><title>205&#45;&gt;205+206</title>
<path fill="none" stroke="black" d="M1065.72,-636.274C1054.18,-618.868 1043.91,-603.384 1041.52,-599.786"/>
</g>
<!-- 180 -->
<g id="node2" class="node"><title>180</title>
<g id="a_node2"><a xlink:href="/character/display?id=Beron_Stark" xlink:title="&lt;TABLE&gt;" target="_blank">
<polygon fill="white" stroke="black" points="1094.5,-943 983.5,-943 983.5,-831 1094.5,-831 1094.5,-943"/>
</a>
</g>
<g id="a_node2_1"><a xlink:href="http://awoiaf.westeros.org/index.php/Beron_Stark" xlink:title="&lt;TABLE&gt;" target="_blank">
<text text-anchor="start" x="995.5" y="-890.3" font-family="Times,serif" font-size="14.00">Beron Stark</text>
<text text-anchor="start" x="1014" y="-875.3" font-family="Times,serif" font-size="14.00">???&#45;???</text>
</a>
</g>
<g><a xlink:href="/character/display?id=Beron_Stark" xlink:title="&lt;TABLE&gt;" target="_blank">
</a>
</g>
</g>
<!-- 180+181 -->
<g id="node21" class="node"><title>180+181</title>
<ellipse fill="black" stroke="black" cx="1104" cy="-792" rx="1.8" ry="1.8"/>
</g>
<!-- 180&#45;&gt;180+181 -->
<g id="edge3" class="edge"><title>180&#45;&gt;180+181</title>
<path fill="none" stroke="black" d="M1077.56,-830.827C1089.81,-813.304 1100.87,-797.485 1103.44,-793.804"/>
</g>
<!-- 181 -->
<g id="node3" class="node"><title>181</title>
<g id="a_node3"><a xlink:href="/character/display?id=Lorra_Royce" xlink:title="&lt;TABLE&gt;" target="_blank">
<polygon fill="white" stroke="black" points="1226.25,-943.5 1113.75,-943.5 1113.75,-830.5 1226.25,-830.5 1226.25,-943.5"/>
</a>
</g>
<g id="a_node3_2"><a xlink:href="http://awoiaf.westeros.org/index.php/Lorra_Royce" xlink:title="&lt;TABLE&gt;" target="_blank">
<text text-anchor="start" x="1126.5" y="-890.3" font-family="Times,serif" font-size="14.00">Lorra Royce</text>
<text text-anchor="start" x="1145.5" y="-875.3" font-family="Times,serif" font-size="14.00">???&#45;???</text>
</a>
</g>
<g><a xlink:href="/character/display?id=Lorra_Royce" xlink:title="&lt;TABLE&gt;" target="_blank">
</a>
</g>
</g>
<!-- 181&#45;&gt;180+181 -->
<g id="edge4" class="edge"><title>181&#45;&gt;180+181</title>
<path fill="none" stroke="black" d="M1130.46,-830.291C1118.17,-812.96 1107.13,-797.407 1104.56,-793.79"/>
</g>
<!-- 11 -->
<g id="node4" class="node"><title>11</title>
<g id="a_node4"><a xlink:href="/character/display?id=Lyarra_Stark" xlink:title="&lt;TABLE&gt;" target="_blank">
<polygon fill="white" stroke="black" points="1031.25,-555.5 914.75,-555.5 914.75,-438.5 1031.25,-438.5 1031.25,-555.5"/>
</a>
</g>
<g id="a_node4_3"><a xlink:href="http://awoiaf.westeros.org/index.php/Lyarra_Stark" xlink:title="&lt;TABLE&gt;" target="_blank">
<text text-anchor="start" x="927.5" y="-500.3" font-family="Times,serif" font-size="14.00">Lyarra Stark</text>
<text text-anchor="start" x="948.5" y="-485.3" font-family="Times,serif" font-size="14.00">???&#45;???</text>
</a>
</g>
<g><a xlink:href="/character/display?id=Lyarra_Stark" xlink:title="&lt;TABLE&gt;" target="_blank">
</a>
</g>
</g>
<!-- 10+11 -->
<g id="node24" class="node"><title>10+11</title>
<ellipse fill="black" stroke="black" cx="903" cy="-396" rx="1.8" ry="1.8"/>
</g>
<!-- 11&#45;&gt;10+11 -->
<g id="edge10" class="edge"><title>11&#45;&gt;10+11</title>
<path fill="none" stroke="black" d="M932.281,-438.411C918.806,-419.354 906.494,-401.942 903.627,-397.886"/>
</g>
<!-- 207 -->
<g id="node5" class="node"><title>207</title>
<g id="a_node5"><a xlink:href="/character/display?id=Branda_Stark" xlink:title="&lt;TABLE&gt;" target="_blank">
<polygon fill="white" stroke="black" points="1170.25,-557.5 1049.75,-557.5 1049.75,-436.5 1170.25,-436.5 1170.25,-557.5"/>
</a>
</g>
<g id="a_node5_4"><a xlink:href="http://awoiaf.westeros.org/index.php/Branda_Stark" xlink:title="&lt;TABLE&gt;" target="_blank">
<text text-anchor="start" x="1062.5" y="-500.3" font-family="Times,serif" font-size="14.00">Branda Stark</text>
<text text-anchor="start" x="1085.5" y="-485.3" font-family="Times,serif" font-size="14.00">???&#45;???</text>
</a>
</g>
<g><a xlink:href="/character/display?id=Branda_Stark" xlink:title="&lt;TABLE&gt;" target="_blank">
</a>
</g>
</g>
<!-- 1 -->
<g id="node6" class="node"><title>1</title>
<g id="a_node6"><a xlink:href="/character/display?id=Eddard_Stark" xlink:title="&lt;TABLE&gt;" target="_blank">
<polygon fill="white" stroke="black" points="585,-343 463,-343 463,-221 585,-221 585,-343"/>
</a>
</g>
<g id="a_node6_5"><a xlink:href="http://awoiaf.westeros.org/index.php/Eddard_Stark" xlink:title="&lt;TABLE&gt;" target="_blank">
<text text-anchor="start" x="475.5" y="-285.3" font-family="Times,serif" font-size="14.00">Eddard Stark</text>
<text text-anchor="start" x="494.5" y="-270.3" font-family="Times,serif" font-size="14.00">263&#45;299</text>
</a>
</g>
<g><a xlink:href="/character/display?id=Eddard_Stark" xlink:title="&lt;TABLE&gt;" target="_blank">
</a>
</g>
</g>
<!-- 1+2 -->
<g id="node22" class="node"><title>1+2</title>
<ellipse fill="black" stroke="black" cx="331" cy="-168" rx="1.8" ry="1.8"/>
</g>
<!-- 1&#45;&gt;1+2 -->
<g id="edge5" class="edge"><title>1&#45;&gt;1+2</title>
<path fill="none" stroke="black" d="M462.877,-243.172C442.958,-231.076 420.655,-217.774 400,-206 373.076,-190.652 339.379,-173.294 332.329,-169.68"/>
</g>
<!-- 1+9 -->
<g id="node23" class="node"><title>1+9</title>
<ellipse fill="black" stroke="black" cx="679" cy="-168" rx="1.8" ry="1.8"/>
</g>
<!-- 1&#45;&gt;1+9 -->
<g id="edge7" class="edge"><title>1&#45;&gt;1+9</title>
<path fill="none" stroke="black" stroke-dasharray="5,2" d="M575.749,-220.817C581.617,-215.471 587.745,-210.42 594,-206 624.493,-184.45 669.527,-171.572 677.703,-169.346"/>
</g>
<!-- 14 -->
<g id="node7" class="node"><title>14</title>
<g id="a_node7"><a xlink:href="/character/display?id=Lyanna_Stark" xlink:title="&lt;TABLE&gt;" target="_blank">
<polygon fill="white" stroke="black" points="895,-343 773,-343 773,-221 895,-221 895,-343"/>
</a>
</g>
<g id="a_node7_6"><a xlink:href="http://awoiaf.westeros.org/index.php/Lyanna_Stark" xlink:title="&lt;TABLE&gt;" target="_blank">
<text text-anchor="start" x="785.5" y="-285.3" font-family="Times,serif" font-size="14.00">Lyanna Stark</text>
<text text-anchor="start" x="804.5" y="-270.3" font-family="Times,serif" font-size="14.00">266&#45;283</text>
</a>
</g>
<g><a xlink:href="/character/display?id=Lyanna_Stark" xlink:title="&lt;TABLE&gt;" target="_blank">
</a>
</g>
</g>
<!-- 15 -->
<g id="node8" class="node"><title>15</title>
<g id="a_node8"><a xlink:href="/character/display?id=Benjen_Stark" xlink:title="&lt;TABLE&gt;" target="_blank">
<polygon fill="white" stroke="black" points="1032.25,-341.5 913.75,-341.5 913.75,-222.5 1032.25,-222.5 1032.25,-341.5"/>
</a>
</g>
<g id="a_node8_7"><a xlink:href="http://awoiaf.westeros.org/index.php/Benjen_Stark" xlink:title="&lt;TABLE&gt;" target="_blank">
<text text-anchor="start" x="926.5" y="-285.3" font-family="Times,serif" font-size="14.00">Benjen Stark</text>
<text text-anchor="start" x="957.5" y="-270.3" font-family="Times,serif" font-size="14.00">267&#45;</text>
</a>
</g>
<g><a xlink:href="/character/display?id=Benjen_Stark" xlink:title="&lt;TABLE&gt;" target="_blank">
</a>
</g>
</g>
<!-- 16 -->
<g id="node9" class="node"><title>16</title>
<g id="a_node9"><a xlink:href="/character/display?id=Brandon_Stark" xlink:title="&lt;TABLE&gt;" target="_blank">
<polygon fill="white" stroke="black" points="1181,-347 1051,-347 1051,-217 1181,-217 1181,-347"/>
</a>
</g>
<g id="a_node9_8"><a xlink:href="http://awoiaf.westeros.org/index.php/Brandon_Stark" xlink:title="&lt;TABLE&gt;" target="_blank">
<text text-anchor="start" x="1063.5" y="-285.3" font-family="Times,serif" font-size="14.00">Brandon Stark</text>
<text text-anchor="start" x="1086.5" y="-270.3" font-family="Times,serif" font-size="14.00">262&#45;282</text>
</a>
</g>
<g><a xlink:href="/character/display?id=Brandon_Stark" xlink:title="&lt;TABLE&gt;" target="_blank">
</a>
</g>
</g>
<!-- 3 -->
<g id="node10" class="node"><title>3</title>
<g id="a_node10"><a xlink:href="/character/display?id=Robb_Stark" xlink:title="&lt;TABLE&gt;" target="_blank">
<polygon fill="white" stroke="black" points="105.5,-118 0.5,-118 0.5,-12 105.5,-12 105.5,-118"/>
</a>
</g>
<g id="a_node10_9"><a xlink:href="http://awoiaf.westeros.org/index.php/Robb_Stark" xlink:title="&lt;TABLE&gt;" target="_blank">
<text text-anchor="start" x="12.5" y="-68.3" font-family="Times,serif" font-size="14.00">Robb Stark</text>
<text text-anchor="start" x="23.5" y="-53.3" font-family="Times,serif" font-size="14.00">283&#45;299</text>
</a>
</g>
<g><a xlink:href="/character/display?id=Robb_Stark" xlink:title="&lt;TABLE&gt;" target="_blank">
</a>
</g>
</g>
<!-- 4 -->
<g id="node11" class="node"><title>4</title>
<g id="a_node11"><a xlink:href="/character/display?id=Sansa_Stark" xlink:title="&lt;TABLE&gt;" target="_blank">
<polygon fill="white" stroke="black" points="234.25,-120.5 123.75,-120.5 123.75,-9.5 234.25,-9.5 234.25,-120.5"/>
</a>
</g>
<g id="a_node11_10"><a xlink:href="http://awoiaf.westeros.org/index.php/Sansa_Stark" xlink:title="&lt;TABLE&gt;" target="_blank">
<text text-anchor="start" x="136.5" y="-68.3" font-family="Times,serif" font-size="14.00">Sansa Stark</text>
<text text-anchor="start" x="163.5" y="-53.3" font-family="Times,serif" font-size="14.00">286&#45;</text>
</a>
</g>
<g><a xlink:href="/character/display?id=Sansa_Stark" xlink:title="&lt;TABLE&gt;" target="_blank">
</a>
</g>
</g>
<!-- 5 -->
<g id="node12" class="node"><title>5</title>
<g id="a_node12"><a xlink:href="/character/display?id=Arya_Stark" xlink:title="&lt;TABLE&gt;" target="_blank">
<polygon fill="white" stroke="black" points="355.25,-116.5 252.75,-116.5 252.75,-13.5 355.25,-13.5 355.25,-116.5"/>
</a>
</g>
<g id="a_node12_11"><a xlink:href="http://awoiaf.westeros.org/index.php/Arya_Stark" xlink:title="&lt;TABLE&gt;" target="_blank">
<text text-anchor="start" x="265.5" y="-68.3" font-family="Times,serif" font-size="14.00">Arya Stark</text>
<text text-anchor="start" x="288.5" y="-53.3" font-family="Times,serif" font-size="14.00">289&#45;</text>
</a>
</g>
<g><a xlink:href="/character/display?id=Arya_Stark" xlink:title="&lt;TABLE&gt;" target="_blank">
</a>
</g>
</g>
<!-- 6 -->
<g id="node13" class="node"><title>6</title>
<g id="a_node13"><a xlink:href="/character/display?id=Bran_Stark" xlink:title="&lt;TABLE&gt;" target="_blank">
<polygon fill="white" stroke="black" points="504,-130 374,-130 374,-0 504,-0 504,-130"/>
</a>
</g>
<g id="a_node13_12"><a xlink:href="http://awoiaf.westeros.org/index.php/Bran_Stark" xlink:title="&lt;TABLE&gt;" target="_blank">
<text text-anchor="start" x="386.5" y="-68.3" font-family="Times,serif" font-size="14.00">Brandon Stark</text>
<text text-anchor="start" x="423" y="-53.3" font-family="Times,serif" font-size="14.00">290&#45;</text>
</a>
</g>
<g><a xlink:href="/character/display?id=Bran_Stark" xlink:title="&lt;TABLE&gt;" target="_blank">
</a>
</g>
</g>
<!-- 7 -->
<g id="node14" class="node"><title>7</title>
<g id="a_node14"><a xlink:href="/character/display?id=Rickon_Stark" xlink:title="&lt;TABLE&gt;" target="_blank">
<polygon fill="white" stroke="black" points="641.25,-124.5 522.75,-124.5 522.75,-5.5 641.25,-5.5 641.25,-124.5"/>
</a>
</g>
<g id="a_node14_13"><a xlink:href="http://awoiaf.westeros.org/index.php/Rickon_Stark" xlink:title="&lt;TABLE&gt;" target="_blank">
<text text-anchor="start" x="535.5" y="-68.3" font-family="Times,serif" font-size="14.00">Rickon Stark</text>
<text text-anchor="start" x="566.5" y="-53.3" font-family="Times,serif" font-size="14.00">295&#45;</text>
</a>
</g>
<g><a xlink:href="/character/display?id=Rickon_Stark" xlink:title="&lt;TABLE&gt;" target="_blank">
</a>
</g>
</g>
<!-- 8 -->
<g id="node15" class="node"><title>8</title>
<g id="a_node15"><a xlink:href="/character/display?id=Jon_Snow" xlink:title="&lt;TABLE&gt;" target="_blank">
<polygon fill="white" stroke="black" points="752,-111 660,-111 660,-19 752,-19 752,-111"/>
</a>
</g>
<g id="a_node15_14"><a xlink:href="http://awoiaf.westeros.org/index.php/Jon_Snow" xlink:title="&lt;TABLE&gt;" target="_blank">
<text text-anchor="start" x="672.5" y="-68.3" font-family="Times,serif" font-size="14.00">Jon Snow</text>
<text text-anchor="start" x="690" y="-53.3" font-family="Times,serif" font-size="14.00">283&#45;</text>
</a>
</g>
<g><a xlink:href="/character/display?id=Jon_Snow" xlink:title="&lt;TABLE&gt;" target="_blank">
</a>
</g>
</g>
<!-- 206 -->
<g id="node16" class="node"><title>206</title>
<g id="a_node16"><a xlink:href="/character/display?id=Arya_Flint" xlink:title="&lt;TABLE&gt;" target="_blank">
<polygon fill="white" stroke="black" points="1026.5,-744 929.5,-744 929.5,-646 1026.5,-646 1026.5,-744"/>
</a>
</g>
<g id="a_node16_15"><a xlink:href="http://awoiaf.westeros.org/index.php/Arya_Flint" xlink:title="&lt;TABLE&gt;" target="_blank">
<text text-anchor="start" x="941.5" y="-698.3" font-family="Times,serif" font-size="14.00">Arya Flint</text>
<text text-anchor="start" x="953" y="-683.3" font-family="Times,serif" font-size="14.00">???&#45;???</text>
</a>
</g>
<g><a xlink:href="/character/display?id=Arya_Flint" xlink:title="&lt;TABLE&gt;" target="_blank">
</a>
</g>
</g>
<!-- 206&#45;&gt;205+206 -->
<g id="edge2" class="edge"><title>206&#45;&gt;205+206</title>
<path fill="none" stroke="black" d="M1009.87,-645.943C1023.54,-625.326 1037.12,-604.848 1040.3,-600.051"/>
</g>
<!-- 10 -->
<g id="node17" class="node"><title>10</title>
<g id="a_node17"><a xlink:href="/character/display?id=Rickard_Stark" xlink:title="&lt;TABLE&gt;" target="_blank">
<polygon fill="white" stroke="black" points="896.25,-559.5 771.75,-559.5 771.75,-434.5 896.25,-434.5 896.25,-559.5"/>
</a>
</g>
<g id="a_node17_16"><a xlink:href="http://awoiaf.westeros.org/index.php/Rickard_Stark" xlink:title="&lt;TABLE&gt;" target="_blank">
<text text-anchor="start" x="784.5" y="-500.3" font-family="Times,serif" font-size="14.00">Rickard Stark</text>
<text text-anchor="start" x="805" y="-485.3" font-family="Times,serif" font-size="14.00">230&#45;282</text>
</a>
</g>
<g><a xlink:href="/character/display?id=Rickard_Stark" xlink:title="&lt;TABLE&gt;" target="_blank">
</a>
</g>
</g>
<!-- 10&#45;&gt;10+11 -->
<g id="edge9" class="edge"><title>10&#45;&gt;10+11</title>
<path fill="none" stroke="black" d="M876.914,-434.428C889.192,-416.812 899.956,-401.368 902.455,-397.782"/>
</g>
<!-- 2 -->
<g id="node18" class="node"><title>2</title>
<g id="a_node18"><a xlink:href="/character/display?id=Catelyn_Stark" xlink:title="&lt;TABLE&gt;" target="_blank">
<polygon fill="white" stroke="black" points="391.25,-342.5 270.75,-342.5 270.75,-221.5 391.25,-221.5 391.25,-342.5"/>
</a>
</g>
<g id="a_node18_17"><a xlink:href="http://awoiaf.westeros.org/index.php/Catelyn_Stark" xlink:title="&lt;TABLE&gt;" target="_blank">
<text text-anchor="start" x="283.5" y="-285.3" font-family="Times,serif" font-size="14.00">Catelyn Tully</text>
<text text-anchor="start" x="302" y="-270.3" font-family="Times,serif" font-size="14.00">264&#45;299</text>
</a>
</g>
<g><a xlink:href="/character/display?id=Catelyn_Stark" xlink:title="&lt;TABLE&gt;" target="_blank">
</a>
</g>
</g>
<!-- 2&#45;&gt;1+2 -->
<g id="edge6" class="edge"><title>2&#45;&gt;1+2</title>
<path fill="none" stroke="black" d="M331,-221.393C331,-197.989 331,-175.429 331,-170.154"/>
</g>
<!-- 9 -->
<g id="node19" class="node"><title>9</title>
<polygon fill="white" stroke="black" points="754.25,-357.5 603.75,-357.5 603.75,-206.5 754.25,-206.5 754.25,-357.5"/>
<text text-anchor="start" x="616.5" y="-285.3" font-family="Times,serif" font-size="14.00">Unknown Woman</text>
<text text-anchor="start" x="654.5" y="-270.3" font-family="Times,serif" font-size="14.00">???&#45;???</text>
</g>
<!-- 9&#45;&gt;1+9 -->
<g id="edge8" class="edge"><title>9&#45;&gt;1+9</title>
<path fill="none" stroke="black" stroke-dasharray="5,2" d="M679,-206.294C679,-188.639 679,-173.786 679,-169.958"/>
</g>
<!-- 205+206&#45;&gt;11 -->
<g id="edge12" class="edge"><title>205+206&#45;&gt;11</title>
<path fill="none" stroke="black" d="M1040.24,-595.888C1037.19,-591.448 1025.42,-574.322 1012.57,-555.607"/>
</g>
<!-- 205+206&#45;&gt;207 -->
<g id="edge13" class="edge"><title>205+206&#45;&gt;207</title>
<path fill="none" stroke="black" d="M1041.77,-595.888C1044.75,-591.618 1055.9,-575.615 1068.36,-557.748"/>
</g>
<!-- 180+181&#45;&gt;205 -->
<g id="edge11" class="edge"><title>180+181&#45;&gt;205</title>
<path fill="none" stroke="black" d="M1104,-789.933C1104,-785.856 1104,-770.631 1104,-753.59"/>
</g>
<!-- 1+2&#45;&gt;3 -->
<g id="edge18" class="edge"><title>1+2&#45;&gt;3</title>
<path fill="none" stroke="black" d="M329.123,-167.111C312.848,-167.99 194.291,-172.738 114,-130 107.903,-126.754 102.064,-122.672 96.5816,-118.148"/>
</g>
<!-- 1+2&#45;&gt;4 -->
<g id="edge19" class="edge"><title>1+2&#45;&gt;4</title>
<path fill="none" stroke="black" d="M329.666,-166.651C321.257,-164.409 274.913,-151.447 243,-130 238.827,-127.195 234.696,-124.092 230.664,-120.808"/>
</g>
<!-- 1+2&#45;&gt;5 -->
<g id="edge20" class="edge"><title>1+2&#45;&gt;5</title>
<path fill="none" stroke="black" d="M330.697,-165.866C329.318,-160.708 323.452,-138.766 317.569,-116.759"/>
</g>
<!-- 1+2&#45;&gt;6 -->
<g id="edge21" class="edge"><title>1+2&#45;&gt;6</title>
<path fill="none" stroke="black" d="M332.213,-165.866C336.871,-161.51 354.329,-145.183 373.82,-126.955"/>
</g>
<!-- 1+2&#45;&gt;7 -->
<g id="edge22" class="edge"><title>1+2&#45;&gt;7</title>
<path fill="none" stroke="black" d="M332.56,-166.997C346.093,-166.907 444.728,-165.041 513,-130 516.198,-128.359 519.356,-126.527 522.457,-124.549"/>
</g>
<!-- 1+9&#45;&gt;8 -->
<g id="edge23" class="edge"><title>1+9&#45;&gt;8</title>
<path fill="none" stroke="black" stroke-dasharray="5,2" d="M679.303,-165.866C680.798,-160.274 687.565,-134.96 693.912,-111.219"/>
</g>
<!-- 10+11&#45;&gt;1 -->
<g id="edge14" class="edge"><title>10+11&#45;&gt;1</title>
<path fill="none" stroke="black" d="M901.414,-394.96C880.221,-394.409 652.782,-387.824 594,-358 586.217,-354.051 578.849,-348.866 572.022,-343.063"/>
</g>
<!-- 10+11&#45;&gt;14 -->
<g id="edge15" class="edge"><title>10+11&#45;&gt;14</title>
<path fill="none" stroke="black" d="M902.225,-393.742C898.894,-388.335 885.315,-366.294 871.138,-343.282"/>
</g>
<!-- 10+11&#45;&gt;15 -->
<g id="edge16" class="edge"><title>10+11&#45;&gt;15</title>
<path fill="none" stroke="black" d="M903.786,-393.742C907.241,-388.215 921.559,-365.306 936.283,-341.747"/>
</g>
<!-- 10+11&#45;&gt;16 -->
<g id="edge17" class="edge"><title>10+11&#45;&gt;16</title>
<path fill="none" stroke="black" d="M904.467,-394.894C915.799,-394.019 990.306,-387.273 1041,-358 1046.42,-354.869 1051.73,-351.247 1056.85,-347.319"/>
</g>
</g>
</svg>
