<?xml version="1.0" encoding="UTF-8" standalone="no"?>
<!DOCTYPE svg PUBLIC "-//W3C//DTD SVG 1.1//EN"
 "http://www.w3.org/Graphics/SVG/1.1/DTD/svg11.dtd">
<!-- Generated by graphviz version 2.36.0 (20140111.2315)
 -->
<!-- Title: family Pages: 1 -->
<svg width="322pt" height="316pt"
 viewBox="0.00 0.00 322.00 316.00" xmlns="http://www.w3.org/2000/svg" xmlns:xlink="http://www.w3.org/1999/xlink">
<g id="graph0" class="graph" transform="scale(1 1) rotate(0) translate(4 312)">
<title>family</title>
<polygon fill="white" stroke="none" points="-4,4 -4,-312 318,-312 318,4 -4,4"/>
<!-- 190 -->
<g id="node1" class="node"><title>190</title>
<g id="a_node1"><a xlink:href="/character/display?id=Jocelyn_Stark" xlink:title="Jocelyn Stark" target="_blank">
<polygon fill="white" stroke="black" points="144,-300 22,-300 22,-178 144,-178 144,-300"/>
</a>
</g>
<g id="a_node1_0"><a xlink:href="http://awoiaf.westeros.org/index.php/Jocelyn_Stark" xlink:title="Jocelyn Stark" target="_blank">
<text text-anchor="start" x="34.5" y="-242.3" font-family="Times,serif" font-size="14.00">Jocelyn Stark</text>
<text text-anchor="start" x="58" y="-227.3" font-family="Times,serif" font-size="14.00">???&#45;???</text>
</a>
</g>
<g><a xlink:href="/character/display?id=Jocelyn_Stark" xlink:title="Jocelyn Stark" target="_blank">
</a>
</g>
</g>
<!-- 191+190 -->
<g id="node6" class="node"><title>191+190</title>
<ellipse fill="black" stroke="black" cx="157" cy="-132" rx="1.8" ry="1.8"/>
</g>
<!-- 190&#45;&gt;191+190 -->
<g id="edge2" class="edge"><title>190&#45;&gt;191+190</title>
<path fill="none" stroke="black" d="M125.403,-177.834C139.87,-157.306 153.211,-138.376 156.32,-133.964"/>
</g>
<!-- 191 -->
<g id="node2" class="node"><title>191</title>
<g id="a_node2"><a xlink:href="/character/display?id=Benedict_Royce" xlink:title="Benedict Royce" target="_blank">
<polygon fill="white" stroke="black" points="299.25,-307.5 162.75,-307.5 162.75,-170.5 299.25,-170.5 299.25,-307.5"/>
</a>
</g>
<g id="a_node2_1"><a xlink:href="http://awoiaf.westeros.org/index.php/Benedict_Royce" xlink:title="Benedict Royce" target="_blank">
<text text-anchor="start" x="175.5" y="-242.3" font-family="Times,serif" font-size="14.00">Benedict Royce</text>
<text text-anchor="start" x="206.5" y="-227.3" font-family="Times,serif" font-size="14.00">???&#45;???</text>
</a>
</g>
<g><a xlink:href="/character/display?id=Benedict_Royce" xlink:title="Benedict Royce" target="_blank">
</a>
</g>
</g>
<!-- 191&#45;&gt;191+190 -->
<g id="edge1" class="edge"><title>191&#45;&gt;191+190</title>
<path fill="none" stroke="black" d="M183.298,-170.315C170.769,-152.537 160.031,-137.301 157.543,-133.77"/>
</g>
<!-- 192 -->
<g id="node3" class="node"><title>192</title>
<g id="a_node3"><a xlink:title="Daughter" target="_blank">
<polygon fill="white" stroke="black" points="92.25,-93.5 -0.25,-93.5 -0.25,-0.5 92.25,-0.5 92.25,-93.5"/>
<text text-anchor="start" x="12.5" y="-50.3" font-family="Times,serif" font-size="14.00">Daughter</text>
<text text-anchor="start" x="21.5" y="-35.3" font-family="Times,serif" font-size="14.00">???&#45;???</text>
</a>
</g>
</g>
<!-- 194 -->
<g id="node4" class="node"><title>194</title>
<g id="a_node4"><a xlink:title="Daughter" target="_blank">
<polygon fill="white" stroke="black" points="203.25,-93.5 110.75,-93.5 110.75,-0.5 203.25,-0.5 203.25,-93.5"/>
<text text-anchor="start" x="123.5" y="-50.3" font-family="Times,serif" font-size="14.00">Daughter</text>
<text text-anchor="start" x="132.5" y="-35.3" font-family="Times,serif" font-size="14.00">???&#45;???</text>
</a>
</g>
</g>
<!-- 196 -->
<g id="node5" class="node"><title>196</title>
<g id="a_node5"><a xlink:title="Daughter" target="_blank">
<polygon fill="white" stroke="black" points="314.25,-93.5 221.75,-93.5 221.75,-0.5 314.25,-0.5 314.25,-93.5"/>
<text text-anchor="start" x="234.5" y="-50.3" font-family="Times,serif" font-size="14.00">Daughter</text>
<text text-anchor="start" x="243.5" y="-35.3" font-family="Times,serif" font-size="14.00">???&#45;???</text>
</a>
</g>
</g>
<!-- 191+190&#45;&gt;192 -->
<g id="edge3" class="edge"><title>191+190&#45;&gt;192</title>
<path fill="none" stroke="black" d="M155.606,-130.132C149.279,-126.176 122.678,-109.393 102,-94 98.8714,-91.671 95.6793,-89.2315 92.4851,-86.7424"/>
</g>
<!-- 191+190&#45;&gt;194 -->
<g id="edge4" class="edge"><title>191+190&#45;&gt;194</title>
<path fill="none" stroke="black" d="M157,-130.068C157,-126.15 157,-110.446 157,-93.8092"/>
</g>
<!-- 191+190&#45;&gt;196 -->
<g id="edge5" class="edge"><title>191+190&#45;&gt;196</title>
<path fill="none" stroke="black" d="M158.394,-130.132C164.721,-126.176 191.322,-109.393 212,-94 215.129,-91.671 218.321,-89.2315 221.515,-86.7424"/>
</g>
</g>
</svg>
