<?xml version="1.0" encoding="UTF-8" standalone="no"?>
<!DOCTYPE svg PUBLIC "-//W3C//DTD SVG 1.1//EN"
 "http://www.w3.org/Graphics/SVG/1.1/DTD/svg11.dtd">
<!-- Generated by graphviz version 2.36.0 (20140111.2315)
 -->
<!-- Title: family Pages: 1 -->
<svg width="1471pt" height="1302pt"
 viewBox="0.00 0.00 1471.00 1302.00" xmlns="http://www.w3.org/2000/svg" xmlns:xlink="http://www.w3.org/1999/xlink">
<g id="graph0" class="graph" transform="scale(1 1) rotate(0) translate(4 1298)">
<title>family</title>
<polygon fill="white" stroke="none" points="-4,4 -4,-1298 1467,-1298 1467,4 -4,4"/>
<!-- 1 -->
<g id="node1" class="node"><title>1</title>
<g id="a_node1"><a xlink:href="http://awoiaf.westeros.org/index.php/Eddard_Stark" xlink:title="Eddard Stark\n263&#45;299" target="_blank">
<polygon fill="white" stroke="black" points="535.25,-371.5 422.75,-371.5 422.75,-258.5 535.25,-258.5 535.25,-371.5"/>
<text text-anchor="middle" x="479" y="-318.8" font-family="Times,serif" font-size="14.00">Eddard Stark</text>
<text text-anchor="middle" x="479" y="-303.8" font-family="Times,serif" font-size="14.00">263&#45;299</text>
</a>
</g>
</g>
<!-- 1+2 -->
<g id="node34" class="node"><title>1+2</title>
<ellipse fill="black" stroke="black" cx="678" cy="-216" rx="1.8" ry="1.8"/>
</g>
<!-- 1&#45;&gt;1+2 -->
<g id="edge1" class="edge"><title>1&#45;&gt;1+2</title>
<path fill="none" stroke="black" d="M535.353,-259.91C538.523,-257.784 541.747,-255.797 545,-254 594.514,-226.656 665.767,-218.283 676.598,-217.142"/>
</g>
<!-- 2 -->
<g id="node2" class="node"><title>2</title>
<g id="a_node2"><a xlink:href="http://awoiaf.westeros.org/index.php/Catelyn_Stark" xlink:title="Catelyn Tully\n264&#45;299" target="_blank">
<polygon fill="white" stroke="black" points="933.5,-371 822.5,-371 822.5,-259 933.5,-259 933.5,-371"/>
<text text-anchor="middle" x="878" y="-318.8" font-family="Times,serif" font-size="14.00">Catelyn Tully</text>
<text text-anchor="middle" x="878" y="-303.8" font-family="Times,serif" font-size="14.00">264&#45;299</text>
</a>
</g>
</g>
<!-- 2&#45;&gt;1+2 -->
<g id="edge2" class="edge"><title>2&#45;&gt;1+2</title>
<path fill="none" stroke="black" d="M822.443,-260.436C819.017,-258.11 815.526,-255.943 812,-254 762.114,-226.513 690.325,-218.261 679.412,-217.139"/>
</g>
<!-- 3 -->
<g id="node3" class="node"><title>3</title>
<g id="a_node3"><a xlink:href="http://awoiaf.westeros.org/index.php/Robb_Stark" xlink:title="Robb Stark\n283&#45;299" target="_blank">
<polygon fill="white" stroke="black" points="982.25,-157.5 885.75,-157.5 885.75,-60.5 982.25,-60.5 982.25,-157.5"/>
<text text-anchor="middle" x="934" y="-112.8" font-family="Times,serif" font-size="14.00">Robb Stark</text>
<text text-anchor="middle" x="934" y="-97.8" font-family="Times,serif" font-size="14.00">283&#45;299</text>
</a>
</g>
</g>
<!-- 3+18 -->
<g id="node35" class="node"><title>3+18</title>
<ellipse fill="black" stroke="black" cx="676" cy="-2" rx="1.8" ry="1.8"/>
</g>
<!-- 3&#45;&gt;3+18 -->
<g id="edge3" class="edge"><title>3&#45;&gt;3+18</title>
<path fill="none" stroke="black" d="M900.885,-60.3827C893.512,-52.5487 885.137,-45.2772 876,-40 803.225,2.03264 692.902,-2.10936 677.748,-2.89963"/>
</g>
<!-- 4 -->
<g id="node4" class="node"><title>4</title>
<g id="a_node4"><a xlink:href="http://awoiaf.westeros.org/index.php/Sansa_Stark" xlink:title="Sansa Stark\n286&#45;" target="_blank">
<polygon fill="white" stroke="black" points="330.5,-160 229.5,-160 229.5,-58 330.5,-58 330.5,-160"/>
<text text-anchor="middle" x="280" y="-112.8" font-family="Times,serif" font-size="14.00">Sansa Stark</text>
<text text-anchor="middle" x="280" y="-97.8" font-family="Times,serif" font-size="14.00">286&#45;</text>
</a>
</g>
</g>
<!-- 5 -->
<g id="node5" class="node"><title>5</title>
<g id="a_node5"><a xlink:href="http://awoiaf.westeros.org/index.php/Arya_Stark" xlink:title="Arya Stark\n289&#45;" target="_blank">
<polygon fill="white" stroke="black" points="599,-156 505,-156 505,-62 599,-62 599,-156"/>
<text text-anchor="middle" x="552" y="-112.8" font-family="Times,serif" font-size="14.00">Arya Stark</text>
<text text-anchor="middle" x="552" y="-97.8" font-family="Times,serif" font-size="14.00">289&#45;</text>
</a>
</g>
</g>
<!-- 6 -->
<g id="node6" class="node"><title>6</title>
<g id="a_node6"><a xlink:href="http://awoiaf.westeros.org/index.php/Bran_Stark" xlink:title="Brandon Stark\n290&#45;" target="_blank">
<polygon fill="white" stroke="black" points="738.25,-169.5 617.75,-169.5 617.75,-48.5 738.25,-48.5 738.25,-169.5"/>
<text text-anchor="middle" x="678" y="-112.8" font-family="Times,serif" font-size="14.00">Brandon Stark</text>
<text text-anchor="middle" x="678" y="-97.8" font-family="Times,serif" font-size="14.00">290&#45;</text>
</a>
</g>
</g>
<!-- 7 -->
<g id="node7" class="node"><title>7</title>
<g id="a_node7"><a xlink:href="http://awoiaf.westeros.org/index.php/Rickon_Stark" xlink:title="Rickon Stark\n295&#45;" target="_blank">
<polygon fill="white" stroke="black" points="867,-164 757,-164 757,-54 867,-54 867,-164"/>
<text text-anchor="middle" x="812" y="-112.8" font-family="Times,serif" font-size="14.00">Rickon Stark</text>
<text text-anchor="middle" x="812" y="-97.8" font-family="Times,serif" font-size="14.00">295&#45;</text>
</a>
</g>
</g>
<!-- 10 -->
<g id="node8" class="node"><title>10</title>
<g id="a_node8"><a xlink:href="http://awoiaf.westeros.org/index.php/Rickard_Stark" xlink:title="Rickard Stark\n230&#45;282" target="_blank">
<polygon fill="white" stroke="black" points="536.5,-568 421.5,-568 421.5,-452 536.5,-452 536.5,-568"/>
<text text-anchor="middle" x="479" y="-513.8" font-family="Times,serif" font-size="14.00">Rickard Stark</text>
<text text-anchor="middle" x="479" y="-498.8" font-family="Times,serif" font-size="14.00">230&#45;282</text>
</a>
</g>
</g>
<!-- 10+11 -->
<g id="node36" class="node"><title>10+11</title>
<ellipse fill="black" stroke="black" cx="544" cy="-414" rx="1.8" ry="1.8"/>
</g>
<!-- 10&#45;&gt;10+11 -->
<g id="edge5" class="edge"><title>10&#45;&gt;10+11</title>
<path fill="none" stroke="black" d="M518.497,-451.881C530.406,-434.658 541,-419.338 543.462,-415.777"/>
</g>
<!-- 11 -->
<g id="node9" class="node"><title>11</title>
<g id="a_node9"><a xlink:href="http://awoiaf.westeros.org/index.php/Lyarra_Stark" xlink:title="Lyarra Stark\n???&#45;???" target="_blank">
<polygon fill="white" stroke="black" points="839,-712 731,-712 731,-604 839,-604 839,-712"/>
<text text-anchor="middle" x="785" y="-661.8" font-family="Times,serif" font-size="14.00">Lyarra Stark</text>
<text text-anchor="middle" x="785" y="-646.8" font-family="Times,serif" font-size="14.00">???&#45;???</text>
</a>
</g>
</g>
<!-- 11&#45;&gt;10+11 -->
<g id="edge6" class="edge"><title>11&#45;&gt;10+11</title>
<path fill="none" stroke="black" d="M732.112,-603.892C664.495,-535.995 554.883,-425.928 544.756,-415.759"/>
</g>
<!-- 14 -->
<g id="node10" class="node"><title>14</title>
<g id="a_node10"><a xlink:href="http://awoiaf.westeros.org/index.php/Lyanna_Stark" xlink:title="Lyanna Stark\n266&#45;283" target="_blank">
<polygon fill="white" stroke="black" points="404.25,-371.5 291.75,-371.5 291.75,-258.5 404.25,-258.5 404.25,-371.5"/>
<text text-anchor="middle" x="348" y="-318.8" font-family="Times,serif" font-size="14.00">Lyanna Stark</text>
<text text-anchor="middle" x="348" y="-303.8" font-family="Times,serif" font-size="14.00">266&#45;283</text>
</a>
</g>
</g>
<!-- 15 -->
<g id="node11" class="node"><title>15</title>
<g id="a_node11"><a xlink:href="http://awoiaf.westeros.org/index.php/Benjen_Stark" xlink:title="Benjen Stark\n267&#45;" target="_blank">
<polygon fill="white" stroke="black" points="664,-370 554,-370 554,-260 664,-260 664,-370"/>
<text text-anchor="middle" x="609" y="-318.8" font-family="Times,serif" font-size="14.00">Benjen Stark</text>
<text text-anchor="middle" x="609" y="-303.8" font-family="Times,serif" font-size="14.00">267&#45;</text>
</a>
</g>
</g>
<!-- 16 -->
<g id="node12" class="node"><title>16</title>
<g id="a_node12"><a xlink:href="http://awoiaf.westeros.org/index.php/Brandon_Stark" xlink:title="Brandon Stark\n262&#45;282" target="_blank">
<polygon fill="white" stroke="black" points="803.25,-375.5 682.75,-375.5 682.75,-254.5 803.25,-254.5 803.25,-375.5"/>
<text text-anchor="middle" x="743" y="-318.8" font-family="Times,serif" font-size="14.00">Brandon Stark</text>
<text text-anchor="middle" x="743" y="-303.8" font-family="Times,serif" font-size="14.00">262&#45;282</text>
</a>
</g>
</g>
<!-- 18 -->
<g id="node13" class="node"><title>18</title>
<g id="a_node13"><a xlink:href="http://awoiaf.westeros.org/index.php/Jeyne_Westerling" xlink:title="Jeyne Westerling\n283&#45;" target="_blank">
<polygon fill="white" stroke="black" points="487,-178 349,-178 349,-40 487,-40 487,-178"/>
<text text-anchor="middle" x="418" y="-112.8" font-family="Times,serif" font-size="14.00">Jeyne Westerling</text>
<text text-anchor="middle" x="418" y="-97.8" font-family="Times,serif" font-size="14.00">283&#45;</text>
</a>
</g>
</g>
<!-- 18&#45;&gt;3+18 -->
<g id="edge4" class="edge"><title>18&#45;&gt;3+18</title>
<path fill="none" stroke="black" d="M487.384,-44.6828C490.226,-43.0048 493.102,-41.4352 496,-40 564.042,-6.29973 661.146,-3.2811 674.465,-3.02322"/>
</g>
<!-- 180 -->
<g id="node14" class="node"><title>180</title>
<g id="a_node14"><a xlink:href="http://awoiaf.westeros.org/index.php/Beron_Stark" xlink:title="Beron Stark\n???&#45;???" target="_blank">
<polygon fill="white" stroke="black" points="768.25,-1293.5 665.75,-1293.5 665.75,-1190.5 768.25,-1190.5 768.25,-1293.5"/>
<text text-anchor="middle" x="717" y="-1245.8" font-family="Times,serif" font-size="14.00">Beron Stark</text>
<text text-anchor="middle" x="717" y="-1230.8" font-family="Times,serif" font-size="14.00">???&#45;???</text>
</a>
</g>
</g>
<!-- 180+181 -->
<g id="node37" class="node"><title>180+181</title>
<ellipse fill="black" stroke="black" cx="778" cy="-1152" rx="1.8" ry="1.8"/>
</g>
<!-- 180&#45;&gt;180+181 -->
<g id="edge7" class="edge"><title>180&#45;&gt;180+181</title>
<path fill="none" stroke="black" d="M752.131,-1190.32C763.995,-1173.2 774.903,-1157.47 777.445,-1153.8"/>
</g>
<!-- 181 -->
<g id="node15" class="node"><title>181</title>
<g id="a_node15"><a xlink:href="http://awoiaf.westeros.org/index.php/Lorra_Royce" xlink:title="Lorra Royce\n???&#45;???" target="_blank">
<polygon fill="white" stroke="black" points="891,-1294 787,-1294 787,-1190 891,-1190 891,-1294"/>
<text text-anchor="middle" x="839" y="-1245.8" font-family="Times,serif" font-size="14.00">Lorra Royce</text>
<text text-anchor="middle" x="839" y="-1230.8" font-family="Times,serif" font-size="14.00">???&#45;???</text>
</a>
</g>
</g>
<!-- 181&#45;&gt;180+181 -->
<g id="edge8" class="edge"><title>181&#45;&gt;180+181</title>
<path fill="none" stroke="black" d="M803.516,-1189.81C791.774,-1172.87 781.045,-1157.39 778.546,-1153.79"/>
</g>
<!-- 183 -->
<g id="node16" class="node"><title>183</title>
<g id="a_node16"><a xlink:href="http://awoiaf.westeros.org/index.php/Donner_Stark" xlink:title="Donner Stark\n???&#45;???" target="_blank">
<polygon fill="white" stroke="black" points="1312.25,-1086.5 1199.75,-1086.5 1199.75,-973.5 1312.25,-973.5 1312.25,-1086.5"/>
<text text-anchor="middle" x="1256" y="-1033.8" font-family="Times,serif" font-size="14.00">Donner Stark</text>
<text text-anchor="middle" x="1256" y="-1018.8" font-family="Times,serif" font-size="14.00">???&#45;???</text>
</a>
</g>
</g>
<!-- 184 -->
<g id="node17" class="node"><title>184</title>
<g id="a_node17"><a xlink:href="http://awoiaf.westeros.org/index.php/Willam_Stark" xlink:title="Willam Stark\n???&#45;226" target="_blank">
<polygon fill="white" stroke="black" points="567,-1085 457,-1085 457,-975 567,-975 567,-1085"/>
<text text-anchor="middle" x="512" y="-1033.8" font-family="Times,serif" font-size="14.00">Willam Stark</text>
<text text-anchor="middle" x="512" y="-1018.8" font-family="Times,serif" font-size="14.00">???&#45;226</text>
</a>
</g>
</g>
<!-- 184+185 -->
<g id="node38" class="node"><title>184+185</title>
<ellipse fill="black" stroke="black" cx="646" cy="-908" rx="1.8" ry="1.8"/>
</g>
<!-- 184&#45;&gt;184+185 -->
<g id="edge9" class="edge"><title>184&#45;&gt;184+185</title>
<path fill="none" stroke="black" d="M548.482,-974.652C556.797,-964.415 566.12,-954.324 576,-946 599.969,-925.807 636.768,-912.234 644.531,-909.506"/>
</g>
<!-- 184+187 -->
<g id="node39" class="node"><title>184+187</title>
<ellipse fill="black" stroke="black" cx="391" cy="-908" rx="1.8" ry="1.8"/>
</g>
<!-- 184&#45;&gt;184+187 -->
<g id="edge11" class="edge"><title>184&#45;&gt;184+187</title>
<path fill="none" stroke="black" d="M473.835,-974.982C465.543,-964.83 456.417,-954.687 447,-946 427.815,-928.301 399.329,-913.247 392.507,-909.76"/>
</g>
<!-- 185 -->
<g id="node18" class="node"><title>185</title>
<g id="a_node18"><a xlink:href="http://awoiaf.westeros.org/index.php/Lyanne_Glover" xlink:title="Lyanne Glover\n???&#45;???" target="_blank">
<polygon fill="white" stroke="black" points="706.25,-1090.5 585.75,-1090.5 585.75,-969.5 706.25,-969.5 706.25,-1090.5"/>
<text text-anchor="middle" x="646" y="-1033.8" font-family="Times,serif" font-size="14.00">Lyanne Glover</text>
<text text-anchor="middle" x="646" y="-1018.8" font-family="Times,serif" font-size="14.00">???&#45;???</text>
</a>
</g>
</g>
<!-- 185&#45;&gt;184+185 -->
<g id="edge10" class="edge"><title>185&#45;&gt;184+185</title>
<path fill="none" stroke="black" d="M646,-969.352C646,-942.999 646,-916.557 646,-910.358"/>
</g>
<!-- 186 -->
<g id="node19" class="node"><title>186</title>
<g id="a_node19"><a xlink:href="http://awoiaf.westeros.org/index.php/Brandon_Stark_(son_of_Willam)" xlink:title="Brandon Stark\n???&#45;???" target="_blank">
<polygon fill="white" stroke="black" points="717.25,-869.5 596.75,-869.5 596.75,-748.5 717.25,-748.5 717.25,-869.5"/>
<text text-anchor="middle" x="657" y="-812.8" font-family="Times,serif" font-size="14.00">Brandon Stark</text>
<text text-anchor="middle" x="657" y="-797.8" font-family="Times,serif" font-size="14.00">???&#45;???</text>
</a>
</g>
</g>
<!-- 187 -->
<g id="node20" class="node"><title>187</title>
<g id="a_node20"><a xlink:href="http://awoiaf.westeros.org/index.php/Melantha_Blackwood" xlink:title="Melantha Blackwood\n???&#45;???" target="_blank">
<polygon fill="white" stroke="black" points="166.25,-1113.5 -0.25,-1113.5 -0.25,-946.5 166.25,-946.5 166.25,-1113.5"/>
<text text-anchor="middle" x="83" y="-1033.8" font-family="Times,serif" font-size="14.00">Melantha Blackwood</text>
<text text-anchor="middle" x="83" y="-1018.8" font-family="Times,serif" font-size="14.00">???&#45;???</text>
</a>
</g>
</g>
<!-- 187&#45;&gt;184+187 -->
<g id="edge12" class="edge"><title>187&#45;&gt;184+187</title>
<path fill="none" stroke="black" d="M166.371,-950.567C169.218,-948.938 172.097,-947.409 175,-946 256.463,-906.465 373.149,-908.461 389.155,-908.937"/>
</g>
<!-- 188 -->
<g id="node21" class="node"><title>188</title>
<g id="a_node21"><a xlink:href="http://awoiaf.westeros.org/index.php/Edwyle_Stark" xlink:title="Edwyle Stark\n???&#45;???" target="_blank">
<polygon fill="white" stroke="black" points="316.25,-865.5 203.75,-865.5 203.75,-752.5 316.25,-752.5 316.25,-865.5"/>
<text text-anchor="middle" x="260" y="-812.8" font-family="Times,serif" font-size="14.00">Edwyle Stark</text>
<text text-anchor="middle" x="260" y="-797.8" font-family="Times,serif" font-size="14.00">???&#45;???</text>
</a>
</g>
</g>
<!-- 188+189 -->
<g id="node40" class="node"><title>188+189</title>
<ellipse fill="black" stroke="black" cx="391" cy="-658" rx="1.8" ry="1.8"/>
</g>
<!-- 188&#45;&gt;188+189 -->
<g id="edge13" class="edge"><title>188&#45;&gt;188+189</title>
<path fill="none" stroke="black" d="M309.152,-752.094C343.42,-713.118 384.065,-666.888 390.207,-659.902"/>
</g>
<!-- 189 -->
<g id="node22" class="node"><title>189</title>
<g id="a_node22"><a xlink:href="http://awoiaf.westeros.org/index.php/Marna_Locke" xlink:title="Marna Locke\n???&#45;???" target="_blank">
<polygon fill="white" stroke="black" points="446.5,-865 335.5,-865 335.5,-753 446.5,-753 446.5,-865"/>
<text text-anchor="middle" x="391" y="-812.8" font-family="Times,serif" font-size="14.00">Marna Locke</text>
<text text-anchor="middle" x="391" y="-797.8" font-family="Times,serif" font-size="14.00">???&#45;???</text>
</a>
</g>
</g>
<!-- 189&#45;&gt;188+189 -->
<g id="edge14" class="edge"><title>189&#45;&gt;188+189</title>
<path fill="none" stroke="black" d="M391,-752.941C391,-713.813 391,-666.991 391,-659.914"/>
</g>
<!-- 190 -->
<g id="node23" class="node"><title>190</title>
<g id="a_node23"><a xlink:href="http://awoiaf.westeros.org/index.php/Jocelyn_Stark" xlink:title="Jocelyn Stark\n???&#45;???" target="_blank">
<polygon fill="white" stroke="black" points="578.25,-865.5 465.75,-865.5 465.75,-752.5 578.25,-752.5 578.25,-865.5"/>
<text text-anchor="middle" x="522" y="-812.8" font-family="Times,serif" font-size="14.00">Jocelyn Stark</text>
<text text-anchor="middle" x="522" y="-797.8" font-family="Times,serif" font-size="14.00">???&#45;???</text>
</a>
</g>
</g>
<!-- 198 -->
<g id="node24" class="node"><title>198</title>
<g id="a_node24"><a xlink:href="http://awoiaf.westeros.org/index.php/Artos_Stark" xlink:title="Artos Stark\n???&#45;???" target="_blank">
<polygon fill="white" stroke="black" points="1181.25,-1079.5 1082.75,-1079.5 1082.75,-980.5 1181.25,-980.5 1181.25,-1079.5"/>
<text text-anchor="middle" x="1132" y="-1033.8" font-family="Times,serif" font-size="14.00">Artos Stark</text>
<text text-anchor="middle" x="1132" y="-1018.8" font-family="Times,serif" font-size="14.00">???&#45;???</text>
</a>
</g>
</g>
<!-- 198+199 -->
<g id="node41" class="node"><title>198+199</title>
<ellipse fill="black" stroke="black" cx="1264" cy="-908" rx="1.8" ry="1.8"/>
</g>
<!-- 198&#45;&gt;198+199 -->
<g id="edge15" class="edge"><title>198&#45;&gt;198+199</title>
<path fill="none" stroke="black" d="M1160.87,-980.069C1169.53,-967.959 1179.75,-955.691 1191,-946 1215.55,-924.86 1254.27,-912.027 1262.45,-909.472"/>
</g>
<!-- 199 -->
<g id="node25" class="node"><title>199</title>
<g id="a_node25"><a xlink:href="http://awoiaf.westeros.org/index.php/Lysara_Karstark" xlink:title="Lysara Karstark\n???&#45;???" target="_blank">
<polygon fill="white" stroke="black" points="1463.25,-1096.5 1330.75,-1096.5 1330.75,-963.5 1463.25,-963.5 1463.25,-1096.5"/>
<text text-anchor="middle" x="1397" y="-1033.8" font-family="Times,serif" font-size="14.00">Lysara Karstark</text>
<text text-anchor="middle" x="1397" y="-1018.8" font-family="Times,serif" font-size="14.00">???&#45;???</text>
</a>
</g>
</g>
<!-- 199&#45;&gt;198+199 -->
<g id="edge16" class="edge"><title>199&#45;&gt;198+199</title>
<path fill="none" stroke="black" d="M1339.59,-963.085C1333.52,-957.099 1327.26,-951.303 1321,-946 1300.83,-928.923 1272.32,-913.403 1265.5,-909.789"/>
</g>
<!-- 200 -->
<g id="node26" class="node"><title>200</title>
<g id="a_node26"><a xlink:href="http://awoiaf.westeros.org/index.php/Brandon_Stark_(son_of_Artos)" xlink:title="Brandon Stark\n???&#45;???" target="_blank">
<polygon fill="white" stroke="black" points="1257.25,-869.5 1136.75,-869.5 1136.75,-748.5 1257.25,-748.5 1257.25,-869.5"/>
<text text-anchor="middle" x="1197" y="-812.8" font-family="Times,serif" font-size="14.00">Brandon Stark</text>
<text text-anchor="middle" x="1197" y="-797.8" font-family="Times,serif" font-size="14.00">???&#45;???</text>
</a>
</g>
</g>
<!-- 201 -->
<g id="node27" class="node"><title>201</title>
<g id="a_node27"><a xlink:href="http://awoiaf.westeros.org/index.php/Benjen_Stark_(son_of_Artos)" xlink:title="Benjen Stark\n???&#45;???" target="_blank">
<polygon fill="white" stroke="black" points="1386,-864 1276,-864 1276,-754 1386,-754 1386,-864"/>
<text text-anchor="middle" x="1331" y="-812.8" font-family="Times,serif" font-size="14.00">Benjen Stark</text>
<text text-anchor="middle" x="1331" y="-797.8" font-family="Times,serif" font-size="14.00">???&#45;???</text>
</a>
</g>
</g>
<!-- 202 -->
<g id="node28" class="node"><title>202</title>
<g id="a_node28"><a xlink:href="http://awoiaf.westeros.org/index.php/Berena_Stark" xlink:title="Berena Stark\n???&#45;???" target="_blank">
<polygon fill="white" stroke="black" points="295.25,-1085.5 184.75,-1085.5 184.75,-974.5 295.25,-974.5 295.25,-1085.5"/>
<text text-anchor="middle" x="240" y="-1033.8" font-family="Times,serif" font-size="14.00">Berena Stark</text>
<text text-anchor="middle" x="240" y="-1018.8" font-family="Times,serif" font-size="14.00">???&#45;???</text>
</a>
</g>
</g>
<!-- 203 -->
<g id="node29" class="node"><title>203</title>
<g id="a_node29"><a xlink:href="http://awoiaf.westeros.org/index.php/Alysanne_Stark" xlink:title="Alysanne Stark\n???&#45;???" target="_blank">
<polygon fill="white" stroke="black" points="438.25,-1092.5 313.75,-1092.5 313.75,-967.5 438.25,-967.5 438.25,-1092.5"/>
<text text-anchor="middle" x="376" y="-1033.8" font-family="Times,serif" font-size="14.00">Alysanne Stark</text>
<text text-anchor="middle" x="376" y="-1018.8" font-family="Times,serif" font-size="14.00">???&#45;???</text>
</a>
</g>
</g>
<!-- 204 -->
<g id="node30" class="node"><title>204</title>
<g id="a_node30"><a xlink:href="http://awoiaf.westeros.org/index.php/Errold_Stark" xlink:title="Errold Stark\n???&#45;???" target="_blank">
<polygon fill="white" stroke="black" points="830.5,-1083 725.5,-1083 725.5,-977 830.5,-977 830.5,-1083"/>
<text text-anchor="middle" x="778" y="-1033.8" font-family="Times,serif" font-size="14.00">Errold Stark</text>
<text text-anchor="middle" x="778" y="-1018.8" font-family="Times,serif" font-size="14.00">???&#45;???</text>
</a>
</g>
</g>
<!-- 205 -->
<g id="node31" class="node"><title>205</title>
<g id="a_node31"><a xlink:href="http://awoiaf.westeros.org/index.php/Rodrik Stark_(son_of_Beron)" xlink:title="Rodrik Stark\n???&#45;???" target="_blank">
<polygon fill="white" stroke="black" points="957,-1084 849,-1084 849,-976 957,-976 957,-1084"/>
<text text-anchor="middle" x="903" y="-1033.8" font-family="Times,serif" font-size="14.00">Rodrik Stark</text>
<text text-anchor="middle" x="903" y="-1018.8" font-family="Times,serif" font-size="14.00">???&#45;???</text>
</a>
</g>
</g>
<!-- 205+206 -->
<g id="node42" class="node"><title>205+206</title>
<ellipse fill="black" stroke="black" cx="903" cy="-908" rx="1.8" ry="1.8"/>
</g>
<!-- 205&#45;&gt;205+206 -->
<g id="edge17" class="edge"><title>205&#45;&gt;205+206</title>
<path fill="none" stroke="black" d="M903,-975.667C903,-946.623 903,-915.468 903,-909.882"/>
</g>
<!-- 206 -->
<g id="node32" class="node"><title>206</title>
<g id="a_node32"><a xlink:href="http://awoiaf.westeros.org/index.php/Arya_Flint" xlink:title="Arya Flint\n???&#45;???" target="_blank">
<polygon fill="white" stroke="black" points="1064.25,-1074.5 975.75,-1074.5 975.75,-985.5 1064.25,-985.5 1064.25,-1074.5"/>
<text text-anchor="middle" x="1020" y="-1033.8" font-family="Times,serif" font-size="14.00">Arya Flint</text>
<text text-anchor="middle" x="1020" y="-1018.8" font-family="Times,serif" font-size="14.00">???&#45;???</text>
</a>
</g>
</g>
<!-- 206&#45;&gt;205+206 -->
<g id="edge18" class="edge"><title>206&#45;&gt;205+206</title>
<path fill="none" stroke="black" d="M996.802,-985.192C988.29,-971.619 977.809,-957.281 966,-946 945.088,-926.024 911.453,-912.281 904.346,-909.514"/>
</g>
<!-- 207 -->
<g id="node33" class="node"><title>207</title>
<g id="a_node33"><a xlink:href="http://awoiaf.westeros.org/index.php/Branda_Stark" xlink:title="Branda Stark\n???&#45;???" target="_blank">
<polygon fill="white" stroke="black" points="958.5,-865 847.5,-865 847.5,-753 958.5,-753 958.5,-865"/>
<text text-anchor="middle" x="903" y="-812.8" font-family="Times,serif" font-size="14.00">Branda Stark</text>
<text text-anchor="middle" x="903" y="-797.8" font-family="Times,serif" font-size="14.00">???&#45;???</text>
</a>
</g>
</g>
<!-- 1+2&#45;&gt;3 -->
<g id="edge20" class="edge"><title>1+2&#45;&gt;3</title>
<path fill="none" stroke="black" d="M679.731,-215.095C694.735,-215.843 803.966,-219.691 876,-178 885.132,-172.715 893.505,-165.439 900.878,-157.604"/>
</g>
<!-- 1+2&#45;&gt;4 -->
<g id="edge21" class="edge"><title>1+2&#45;&gt;4</title>
<path fill="none" stroke="black" d="M676.263,-214.982C653.049,-214.721 403.932,-211.156 340,-178 331.335,-173.506 323.347,-167.2 316.218,-160.224"/>
</g>
<!-- 1+2&#45;&gt;5 -->
<g id="edge22" class="edge"><title>1+2&#45;&gt;5</title>
<path fill="none" stroke="black" d="M676.567,-214.471C668.992,-211.626 633.046,-197.552 609,-178 601.112,-171.586 593.502,-163.959 586.552,-156.172"/>
</g>
<!-- 1+2&#45;&gt;6 -->
<g id="edge23" class="edge"><title>1+2&#45;&gt;6</title>
<path fill="none" stroke="black" d="M678,-213.821C678,-208.999 678,-190.071 678,-169.671"/>
</g>
<!-- 1+2&#45;&gt;7 -->
<g id="edge24" class="edge"><title>1+2&#45;&gt;7</title>
<path fill="none" stroke="black" d="M679.41,-214.442C686.872,-211.452 722.33,-196.758 747,-178 752.59,-173.75 758.136,-169.009 763.495,-164.062"/>
</g>
<!-- 10+11&#45;&gt;1 -->
<g id="edge19" class="edge"><title>10+11&#45;&gt;1</title>
<path fill="none" stroke="black" d="M543.27,-411.911C540.313,-407.498 528.786,-390.296 516.293,-371.652"/>
</g>
<!-- 10+11&#45;&gt;14 -->
<g id="edge27" class="edge"><title>10+11&#45;&gt;14</title>
<path fill="none" stroke="black" d="M542.333,-412.826C530.746,-411.557 461.254,-403.013 413,-376 410.052,-374.35 407.13,-372.54 404.253,-370.61"/>
</g>
<!-- 10+11&#45;&gt;15 -->
<g id="edge28" class="edge"><title>10+11&#45;&gt;15</title>
<path fill="none" stroke="black" d="M544.73,-411.911C547.771,-407.373 559.873,-389.312 572.77,-370.066"/>
</g>
<!-- 10+11&#45;&gt;16 -->
<g id="edge29" class="edge"><title>10+11&#45;&gt;16</title>
<path fill="none" stroke="black" d="M545.631,-412.8C556.969,-411.357 624.998,-401.849 673,-376 676.241,-374.255 679.465,-372.338 682.649,-370.296"/>
</g>
<!-- 180+181&#45;&gt;183 -->
<g id="edge30" class="edge"><title>180+181&#45;&gt;183</title>
<path fill="none" stroke="black" d="M779.788,-1151.03C805.99,-1151.48 1112.56,-1155.74 1190,-1114 1202.32,-1107.36 1213.14,-1097.35 1222.26,-1086.55"/>
</g>
<!-- 180+181&#45;&gt;184 -->
<g id="edge31" class="edge"><title>180+181&#45;&gt;184</title>
<path fill="none" stroke="black" d="M776.219,-1151.13C760.78,-1152.19 648.449,-1158.17 576,-1114 564.037,-1106.71 553.481,-1096.29 544.567,-1085.29"/>
</g>
<!-- 180+181&#45;&gt;198 -->
<g id="edge35" class="edge"><title>180+181&#45;&gt;198</title>
<path fill="none" stroke="black" d="M779.528,-1150.98C799.941,-1150.64 1018.95,-1146.31 1073,-1114 1086.81,-1105.75 1098.26,-1092.87 1107.27,-1079.71"/>
</g>
<!-- 180+181&#45;&gt;202 -->
<g id="edge38" class="edge"><title>180+181&#45;&gt;202</title>
<path fill="none" stroke="black" d="M776.45,-1150.96C748.41,-1150.15 348.829,-1138.25 304,-1114 291.517,-1107.25 280.699,-1096.9 271.691,-1085.78"/>
</g>
<!-- 180+181&#45;&gt;203 -->
<g id="edge39" class="edge"><title>180+181&#45;&gt;203</title>
<path fill="none" stroke="black" d="M776.303,-1150.98C753.624,-1150.68 510.257,-1146.72 448,-1114 437.7,-1108.59 428.221,-1101.04 419.755,-1092.68"/>
</g>
<!-- 180+181&#45;&gt;204 -->
<g id="edge40" class="edge"><title>180+181&#45;&gt;204</title>
<path fill="none" stroke="black" d="M778,-1149.65C778,-1142.88 778,-1111.76 778,-1083.09"/>
</g>
<!-- 180+181&#45;&gt;205 -->
<g id="edge41" class="edge"><title>180+181&#45;&gt;205</title>
<path fill="none" stroke="black" d="M779.274,-1150.44C786.009,-1147.47 817.948,-1132.82 839,-1114 848.902,-1105.15 858.361,-1094.59 866.824,-1084.03"/>
</g>
<!-- 184+185&#45;&gt;186 -->
<g id="edge32" class="edge"><title>184+185&#45;&gt;186</title>
<path fill="none" stroke="black" d="M646.124,-905.911C646.589,-901.81 648.306,-886.666 650.243,-869.584"/>
</g>
<!-- 184+187&#45;&gt;188 -->
<g id="edge33" class="edge"><title>184+187&#45;&gt;188</title>
<path fill="none" stroke="black" d="M389.697,-906.393C382.801,-903.152 349.963,-887.386 326,-870 322.866,-867.727 319.716,-865.325 316.58,-862.842"/>
</g>
<!-- 184+187&#45;&gt;190 -->
<g id="edge34" class="edge"><title>184+187&#45;&gt;190</title>
<path fill="none" stroke="black" d="M392.279,-906.385C399.052,-903.106 431.308,-887.175 455,-870 458.54,-867.434 462.107,-864.711 465.653,-861.897"/>
</g>
<!-- 188+189&#45;&gt;10 -->
<g id="edge25" class="edge"><title>188+189&#45;&gt;10</title>
<path fill="none" stroke="black" d="M391.562,-656.068C395.69,-649.219 421.796,-605.907 444.417,-568.376"/>
</g>
<!-- 198+199&#45;&gt;200 -->
<g id="edge36" class="edge"><title>198+199&#45;&gt;200</title>
<path fill="none" stroke="black" d="M1263.25,-905.911C1260.42,-901.81 1249.96,-886.666 1238.16,-869.584"/>
</g>
<!-- 198+199&#45;&gt;201 -->
<g id="edge37" class="edge"><title>198+199&#45;&gt;201</title>
<path fill="none" stroke="black" d="M1264.75,-905.911C1267.89,-901.373 1280.36,-883.312 1293.66,-864.066"/>
</g>
<!-- 205+206&#45;&gt;11 -->
<g id="edge26" class="edge"><title>205+206&#45;&gt;11</title>
<path fill="none" stroke="black" d="M901.48,-906.615C893.477,-904.506 855.91,-893.574 838,-870 803.156,-824.136 791.017,-758.039 786.898,-712.09"/>
</g>
<!-- 205+206&#45;&gt;207 -->
<g id="edge42" class="edge"><title>205+206&#45;&gt;207</title>
<path fill="none" stroke="black" d="M903,-905.911C903,-901.456 903,-883.97 903,-865.124"/>
</g>
</g>
</svg>
