<?xml version="1.0" encoding="UTF-8" standalone="no"?>
<!DOCTYPE svg PUBLIC "-//W3C//DTD SVG 1.1//EN"
 "http://www.w3.org/Graphics/SVG/1.1/DTD/svg11.dtd">
<!-- Generated by graphviz version 2.36.0 (20140111.2315)
 -->
<!-- Title: family Pages: 1 -->
<svg width="1571pt" height="1366pt"
 viewBox="0.00 0.00 1571.00 1366.00" xmlns="http://www.w3.org/2000/svg" xmlns:xlink="http://www.w3.org/1999/xlink">
<g id="graph0" class="graph" transform="scale(1 1) rotate(0) translate(4 1362)">
<title>family</title>
<polygon fill="white" stroke="none" points="-4,4 -4,-1362 1567,-1362 1567,4 -4,4"/>
<!-- 1 -->
<g id="node1" class="node"><title>1</title>
<g id="a_node1"><a xlink:href="/character/display?id=Eddard_Stark" xlink:title="&lt;TABLE&gt;" target="_blank">
<polygon fill="white" stroke="black" points="571,-390 449,-390 449,-268 571,-268 571,-390"/>
</a>
</g>
<g id="a_node1_0"><a xlink:href="http://awoiaf.westeros.org/index.php/Eddard_Stark" xlink:title="&lt;TABLE&gt;" target="_blank">
<text text-anchor="start" x="461.5" y="-332.3" font-family="Times,serif" font-size="14.00">Eddard Stark</text>
<text text-anchor="start" x="480.5" y="-317.3" font-family="Times,serif" font-size="14.00">263&#45;299</text>
</a>
</g>
<g><a xlink:href="/character/display?id=Eddard_Stark" xlink:title="&lt;TABLE&gt;" target="_blank">
</a>
</g>
</g>
<!-- 1+2 -->
<g id="node34" class="node"><title>1+2</title>
<ellipse fill="black" stroke="black" cx="723" cy="-226" rx="1.8" ry="1.8"/>
</g>
<!-- 1&#45;&gt;1+2 -->
<g id="edge1" class="edge"><title>1&#45;&gt;1+2</title>
<path fill="none" stroke="black" d="M571.404,-269.114C574.235,-267.285 577.105,-265.57 580,-264 633.2,-235.149 709.842,-228.047 721.492,-227.114"/>
</g>
<!-- 2 -->
<g id="node2" class="node"><title>2</title>
<g id="a_node2"><a xlink:href="/character/display?id=Catelyn_Stark" xlink:title="&lt;TABLE&gt;" target="_blank">
<polygon fill="white" stroke="black" points="996.25,-389.5 875.75,-389.5 875.75,-268.5 996.25,-268.5 996.25,-389.5"/>
</a>
</g>
<g id="a_node2_1"><a xlink:href="http://awoiaf.westeros.org/index.php/Catelyn_Stark" xlink:title="&lt;TABLE&gt;" target="_blank">
<text text-anchor="start" x="888.5" y="-332.3" font-family="Times,serif" font-size="14.00">Catelyn Tully</text>
<text text-anchor="start" x="907" y="-317.3" font-family="Times,serif" font-size="14.00">264&#45;299</text>
</a>
</g>
<g><a xlink:href="/character/display?id=Catelyn_Stark" xlink:title="&lt;TABLE&gt;" target="_blank">
</a>
</g>
</g>
<!-- 2&#45;&gt;1+2 -->
<g id="edge2" class="edge"><title>2&#45;&gt;1+2</title>
<path fill="none" stroke="black" d="M875.444,-269.665C872.339,-267.63 869.184,-265.727 866,-264 812.8,-235.149 736.158,-228.047 724.508,-227.114"/>
</g>
<!-- 3 -->
<g id="node3" class="node"><title>3</title>
<g id="a_node3"><a xlink:href="/character/display?id=Robb_Stark" xlink:title="&lt;TABLE&gt;" target="_blank">
<polygon fill="white" stroke="black" points="1049.5,-167 944.5,-167 944.5,-61 1049.5,-61 1049.5,-167"/>
</a>
</g>
<g id="a_node3_2"><a xlink:href="http://awoiaf.westeros.org/index.php/Robb_Stark" xlink:title="&lt;TABLE&gt;" target="_blank">
<text text-anchor="start" x="956.5" y="-117.3" font-family="Times,serif" font-size="14.00">Robb Stark</text>
<text text-anchor="start" x="967.5" y="-102.3" font-family="Times,serif" font-size="14.00">283&#45;299</text>
</a>
</g>
<g><a xlink:href="/character/display?id=Robb_Stark" xlink:title="&lt;TABLE&gt;" target="_blank">
</a>
</g>
</g>
<!-- 3+18 -->
<g id="node35" class="node"><title>3+18</title>
<ellipse fill="black" stroke="black" cx="721" cy="-2" rx="1.8" ry="1.8"/>
</g>
<!-- 3&#45;&gt;3+18 -->
<g id="edge3" class="edge"><title>3&#45;&gt;3+18</title>
<path fill="none" stroke="black" d="M959.933,-60.6851C952.189,-52.7091 943.468,-45.3632 934,-40 856.275,4.02798 738.97,-1.82877 722.858,-2.87004"/>
</g>
<!-- 4 -->
<g id="node4" class="node"><title>4</title>
<g id="a_node4"><a xlink:href="/character/display?id=Sansa_Stark" xlink:title="&lt;TABLE&gt;" target="_blank">
<polygon fill="white" stroke="black" points="353.25,-169.5 242.75,-169.5 242.75,-58.5 353.25,-58.5 353.25,-169.5"/>
</a>
</g>
<g id="a_node4_3"><a xlink:href="http://awoiaf.westeros.org/index.php/Sansa_Stark" xlink:title="&lt;TABLE&gt;" target="_blank">
<text text-anchor="start" x="255.5" y="-117.3" font-family="Times,serif" font-size="14.00">Sansa Stark</text>
<text text-anchor="start" x="282.5" y="-102.3" font-family="Times,serif" font-size="14.00">286&#45;</text>
</a>
</g>
<g><a xlink:href="/character/display?id=Sansa_Stark" xlink:title="&lt;TABLE&gt;" target="_blank">
</a>
</g>
</g>
<!-- 5 -->
<g id="node5" class="node"><title>5</title>
<g id="a_node5"><a xlink:href="/character/display?id=Arya_Stark" xlink:title="&lt;TABLE&gt;" target="_blank">
<polygon fill="white" stroke="black" points="639.25,-165.5 536.75,-165.5 536.75,-62.5 639.25,-62.5 639.25,-165.5"/>
</a>
</g>
<g id="a_node5_4"><a xlink:href="http://awoiaf.westeros.org/index.php/Arya_Stark" xlink:title="&lt;TABLE&gt;" target="_blank">
<text text-anchor="start" x="549.5" y="-117.3" font-family="Times,serif" font-size="14.00">Arya Stark</text>
<text text-anchor="start" x="572.5" y="-102.3" font-family="Times,serif" font-size="14.00">289&#45;</text>
</a>
</g>
<g><a xlink:href="/character/display?id=Arya_Stark" xlink:title="&lt;TABLE&gt;" target="_blank">
</a>
</g>
</g>
<!-- 6 -->
<g id="node6" class="node"><title>6</title>
<g id="a_node6"><a xlink:href="/character/display?id=Bran_Stark" xlink:title="&lt;TABLE&gt;" target="_blank">
<polygon fill="white" stroke="black" points="788,-179 658,-179 658,-49 788,-49 788,-179"/>
</a>
</g>
<g id="a_node6_5"><a xlink:href="http://awoiaf.westeros.org/index.php/Bran_Stark" xlink:title="&lt;TABLE&gt;" target="_blank">
<text text-anchor="start" x="670.5" y="-117.3" font-family="Times,serif" font-size="14.00">Brandon Stark</text>
<text text-anchor="start" x="707" y="-102.3" font-family="Times,serif" font-size="14.00">290&#45;</text>
</a>
</g>
<g><a xlink:href="/character/display?id=Bran_Stark" xlink:title="&lt;TABLE&gt;" target="_blank">
</a>
</g>
</g>
<!-- 7 -->
<g id="node7" class="node"><title>7</title>
<g id="a_node7"><a xlink:href="/character/display?id=Rickon_Stark" xlink:title="&lt;TABLE&gt;" target="_blank">
<polygon fill="white" stroke="black" points="925.25,-173.5 806.75,-173.5 806.75,-54.5 925.25,-54.5 925.25,-173.5"/>
</a>
</g>
<g id="a_node7_6"><a xlink:href="http://awoiaf.westeros.org/index.php/Rickon_Stark" xlink:title="&lt;TABLE&gt;" target="_blank">
<text text-anchor="start" x="819.5" y="-117.3" font-family="Times,serif" font-size="14.00">Rickon Stark</text>
<text text-anchor="start" x="850.5" y="-102.3" font-family="Times,serif" font-size="14.00">295&#45;</text>
</a>
</g>
<g><a xlink:href="/character/display?id=Rickon_Stark" xlink:title="&lt;TABLE&gt;" target="_blank">
</a>
</g>
</g>
<!-- 10 -->
<g id="node8" class="node"><title>10</title>
<g id="a_node8"><a xlink:href="/character/display?id=Rickard_Stark" xlink:title="&lt;TABLE&gt;" target="_blank">
<polygon fill="white" stroke="black" points="572.25,-595.5 447.75,-595.5 447.75,-470.5 572.25,-470.5 572.25,-595.5"/>
</a>
</g>
<g id="a_node8_7"><a xlink:href="http://awoiaf.westeros.org/index.php/Rickard_Stark" xlink:title="&lt;TABLE&gt;" target="_blank">
<text text-anchor="start" x="460.5" y="-536.3" font-family="Times,serif" font-size="14.00">Rickard Stark</text>
<text text-anchor="start" x="481" y="-521.3" font-family="Times,serif" font-size="14.00">230&#45;282</text>
</a>
</g>
<g><a xlink:href="/character/display?id=Rickard_Stark" xlink:title="&lt;TABLE&gt;" target="_blank">
</a>
</g>
</g>
<!-- 10+11 -->
<g id="node36" class="node"><title>10+11</title>
<ellipse fill="black" stroke="black" cx="579" cy="-432" rx="1.8" ry="1.8"/>
</g>
<!-- 10&#45;&gt;10+11 -->
<g id="edge5" class="edge"><title>10&#45;&gt;10+11</title>
<path fill="none" stroke="black" d="M552.914,-470.428C565.192,-452.812 575.956,-437.368 578.455,-433.782"/>
</g>
<!-- 11 -->
<g id="node9" class="node"><title>11</title>
<g id="a_node9"><a xlink:href="/character/display?id=Lyarra_Stark" xlink:title="&lt;TABLE&gt;" target="_blank">
<polygon fill="white" stroke="black" points="895.25,-749.5 778.75,-749.5 778.75,-632.5 895.25,-632.5 895.25,-749.5"/>
</a>
</g>
<g id="a_node9_8"><a xlink:href="http://awoiaf.westeros.org/index.php/Lyarra_Stark" xlink:title="&lt;TABLE&gt;" target="_blank">
<text text-anchor="start" x="791.5" y="-694.3" font-family="Times,serif" font-size="14.00">Lyarra Stark</text>
<text text-anchor="start" x="812.5" y="-679.3" font-family="Times,serif" font-size="14.00">???&#45;???</text>
</a>
</g>
<g><a xlink:href="/character/display?id=Lyarra_Stark" xlink:title="&lt;TABLE&gt;" target="_blank">
</a>
</g>
</g>
<!-- 11&#45;&gt;10+11 -->
<g id="edge6" class="edge"><title>11&#45;&gt;10+11</title>
<path fill="none" stroke="black" d="M779.1,-632.324C706.598,-560.104 590.523,-444.478 579.8,-433.797"/>
</g>
<!-- 14 -->
<g id="node10" class="node"><title>14</title>
<g id="a_node10"><a xlink:href="/character/display?id=Lyanna_Stark" xlink:title="&lt;TABLE&gt;" target="_blank">
<polygon fill="white" stroke="black" points="431,-390 309,-390 309,-268 431,-268 431,-390"/>
</a>
</g>
<g id="a_node10_9"><a xlink:href="http://awoiaf.westeros.org/index.php/Lyanna_Stark" xlink:title="&lt;TABLE&gt;" target="_blank">
<text text-anchor="start" x="321.5" y="-332.3" font-family="Times,serif" font-size="14.00">Lyanna Stark</text>
<text text-anchor="start" x="340.5" y="-317.3" font-family="Times,serif" font-size="14.00">266&#45;283</text>
</a>
</g>
<g><a xlink:href="/character/display?id=Lyanna_Stark" xlink:title="&lt;TABLE&gt;" target="_blank">
</a>
</g>
</g>
<!-- 15 -->
<g id="node11" class="node"><title>15</title>
<g id="a_node11"><a xlink:href="/character/display?id=Benjen_Stark" xlink:title="&lt;TABLE&gt;" target="_blank">
<polygon fill="white" stroke="black" points="708.25,-388.5 589.75,-388.5 589.75,-269.5 708.25,-269.5 708.25,-388.5"/>
</a>
</g>
<g id="a_node11_10"><a xlink:href="http://awoiaf.westeros.org/index.php/Benjen_Stark" xlink:title="&lt;TABLE&gt;" target="_blank">
<text text-anchor="start" x="602.5" y="-332.3" font-family="Times,serif" font-size="14.00">Benjen Stark</text>
<text text-anchor="start" x="633.5" y="-317.3" font-family="Times,serif" font-size="14.00">267&#45;</text>
</a>
</g>
<g><a xlink:href="/character/display?id=Benjen_Stark" xlink:title="&lt;TABLE&gt;" target="_blank">
</a>
</g>
</g>
<!-- 16 -->
<g id="node12" class="node"><title>16</title>
<g id="a_node12"><a xlink:href="/character/display?id=Brandon_Stark" xlink:title="&lt;TABLE&gt;" target="_blank">
<polygon fill="white" stroke="black" points="857,-394 727,-394 727,-264 857,-264 857,-394"/>
</a>
</g>
<g id="a_node12_11"><a xlink:href="http://awoiaf.westeros.org/index.php/Brandon_Stark" xlink:title="&lt;TABLE&gt;" target="_blank">
<text text-anchor="start" x="739.5" y="-332.3" font-family="Times,serif" font-size="14.00">Brandon Stark</text>
<text text-anchor="start" x="762.5" y="-317.3" font-family="Times,serif" font-size="14.00">262&#45;282</text>
</a>
</g>
<g><a xlink:href="/character/display?id=Brandon_Stark" xlink:title="&lt;TABLE&gt;" target="_blank">
</a>
</g>
</g>
<!-- 18 -->
<g id="node13" class="node"><title>18</title>
<g id="a_node13"><a xlink:href="/character/display?id=Jeyne_Westerling" xlink:title="&lt;TABLE&gt;" target="_blank">
<polygon fill="white" stroke="black" points="518.25,-187.5 371.75,-187.5 371.75,-40.5 518.25,-40.5 518.25,-187.5"/>
</a>
</g>
<g id="a_node13_12"><a xlink:href="http://awoiaf.westeros.org/index.php/Jeyne_Westerling" xlink:title="&lt;TABLE&gt;" target="_blank">
<text text-anchor="start" x="384.5" y="-117.3" font-family="Times,serif" font-size="14.00">Jeyne Westerling</text>
<text text-anchor="start" x="429.5" y="-102.3" font-family="Times,serif" font-size="14.00">283&#45;</text>
</a>
</g>
<g><a xlink:href="/character/display?id=Jeyne_Westerling" xlink:title="&lt;TABLE&gt;" target="_blank">
</a>
</g>
</g>
<!-- 18&#45;&gt;3+18 -->
<g id="edge4" class="edge"><title>18&#45;&gt;3+18</title>
<path fill="none" stroke="black" d="M518.364,-44.6686C521.212,-42.9966 524.094,-41.4325 527,-40 600.197,-3.92334 704.971,-2.94692 719.343,-2.98797"/>
</g>
<!-- 180 -->
<g id="node14" class="node"><title>180</title>
<g id="a_node14"><a xlink:href="/character/display?id=Beron_Stark" xlink:title="&lt;TABLE&gt;" target="_blank">
<polygon fill="white" stroke="black" points="818.5,-1357 707.5,-1357 707.5,-1245 818.5,-1245 818.5,-1357"/>
</a>
</g>
<g id="a_node14_13"><a xlink:href="http://awoiaf.westeros.org/index.php/Beron_Stark" xlink:title="&lt;TABLE&gt;" target="_blank">
<text text-anchor="start" x="719.5" y="-1304.3" font-family="Times,serif" font-size="14.00">Beron Stark</text>
<text text-anchor="start" x="738" y="-1289.3" font-family="Times,serif" font-size="14.00">???&#45;???</text>
</a>
</g>
<g><a xlink:href="/character/display?id=Beron_Stark" xlink:title="&lt;TABLE&gt;" target="_blank">
</a>
</g>
</g>
<!-- 180+181 -->
<g id="node37" class="node"><title>180+181</title>
<ellipse fill="black" stroke="black" cx="828" cy="-1206" rx="1.8" ry="1.8"/>
</g>
<!-- 180&#45;&gt;180+181 -->
<g id="edge7" class="edge"><title>180&#45;&gt;180+181</title>
<path fill="none" stroke="black" d="M801.562,-1244.83C813.809,-1227.3 824.865,-1211.48 827.438,-1207.8"/>
</g>
<!-- 181 -->
<g id="node15" class="node"><title>181</title>
<g id="a_node15"><a xlink:href="/character/display?id=Lorra_Royce" xlink:title="&lt;TABLE&gt;" target="_blank">
<polygon fill="white" stroke="black" points="950.25,-1357.5 837.75,-1357.5 837.75,-1244.5 950.25,-1244.5 950.25,-1357.5"/>
</a>
</g>
<g id="a_node15_14"><a xlink:href="http://awoiaf.westeros.org/index.php/Lorra_Royce" xlink:title="&lt;TABLE&gt;" target="_blank">
<text text-anchor="start" x="850.5" y="-1304.3" font-family="Times,serif" font-size="14.00">Lorra Royce</text>
<text text-anchor="start" x="869.5" y="-1289.3" font-family="Times,serif" font-size="14.00">???&#45;???</text>
</a>
</g>
<g><a xlink:href="/character/display?id=Lorra_Royce" xlink:title="&lt;TABLE&gt;" target="_blank">
</a>
</g>
</g>
<!-- 181&#45;&gt;180+181 -->
<g id="edge8" class="edge"><title>181&#45;&gt;180+181</title>
<path fill="none" stroke="black" d="M854.464,-1244.29C842.165,-1226.96 831.128,-1211.41 828.561,-1207.79"/>
</g>
<!-- 183 -->
<g id="node16" class="node"><title>183</title>
<g id="a_node16"><a xlink:href="/character/display?id=Donner_Stark" xlink:title="&lt;TABLE&gt;" target="_blank">
<polygon fill="white" stroke="black" points="1403,-1141 1281,-1141 1281,-1019 1403,-1019 1403,-1141"/>
</a>
</g>
<g id="a_node16_15"><a xlink:href="http://awoiaf.westeros.org/index.php/Donner_Stark" xlink:title="&lt;TABLE&gt;" target="_blank">
<text text-anchor="start" x="1293.5" y="-1083.3" font-family="Times,serif" font-size="14.00">Donner Stark</text>
<text text-anchor="start" x="1317" y="-1068.3" font-family="Times,serif" font-size="14.00">???&#45;???</text>
</a>
</g>
<g><a xlink:href="/character/display?id=Donner_Stark" xlink:title="&lt;TABLE&gt;" target="_blank">
</a>
</g>
</g>
<!-- 184 -->
<g id="node17" class="node"><title>184</title>
<g id="a_node17"><a xlink:href="/character/display?id=Willam_Stark" xlink:title="&lt;TABLE&gt;" target="_blank">
<polygon fill="white" stroke="black" points="603.25,-1139.5 484.75,-1139.5 484.75,-1020.5 603.25,-1020.5 603.25,-1139.5"/>
</a>
</g>
<g id="a_node17_16"><a xlink:href="http://awoiaf.westeros.org/index.php/Willam_Stark" xlink:title="&lt;TABLE&gt;" target="_blank">
<text text-anchor="start" x="497.5" y="-1083.3" font-family="Times,serif" font-size="14.00">Willam Stark</text>
<text text-anchor="start" x="517" y="-1068.3" font-family="Times,serif" font-size="14.00">???&#45;226</text>
</a>
</g>
<g><a xlink:href="/character/display?id=Willam_Stark" xlink:title="&lt;TABLE&gt;" target="_blank">
</a>
</g>
</g>
<!-- 184+185 -->
<g id="node38" class="node"><title>184+185</title>
<ellipse fill="black" stroke="black" cx="687" cy="-954" rx="1.8" ry="1.8"/>
</g>
<!-- 184&#45;&gt;184+185 -->
<g id="edge9" class="edge"><title>184&#45;&gt;184+185</title>
<path fill="none" stroke="black" d="M584.899,-1020.07C593.468,-1009.98 602.973,-1000.14 613,-992 638.424,-971.358 677.259,-958.136 685.45,-955.49"/>
</g>
<!-- 184+187 -->
<g id="node39" class="node"><title>184+187</title>
<ellipse fill="black" stroke="black" cx="415" cy="-954" rx="1.8" ry="1.8"/>
</g>
<!-- 184&#45;&gt;184+187 -->
<g id="edge11" class="edge"><title>184&#45;&gt;184+187</title>
<path fill="none" stroke="black" d="M502.112,-1020.33C493.705,-1010.33 484.511,-1000.45 475,-992 454.141,-973.467 422.844,-958.597 416.248,-955.566"/>
</g>
<!-- 185 -->
<g id="node18" class="node"><title>185</title>
<g id="a_node18"><a xlink:href="/character/display?id=Lyanne_Glover" xlink:title="&lt;TABLE&gt;" target="_blank">
<polygon fill="white" stroke="black" points="752,-1145 622,-1145 622,-1015 752,-1015 752,-1145"/>
</a>
</g>
<g id="a_node18_17"><a xlink:href="http://awoiaf.westeros.org/index.php/Lyanne_Glover" xlink:title="&lt;TABLE&gt;" target="_blank">
<text text-anchor="start" x="634.5" y="-1083.3" font-family="Times,serif" font-size="14.00">Lyanne Glover</text>
<text text-anchor="start" x="662" y="-1068.3" font-family="Times,serif" font-size="14.00">???&#45;???</text>
</a>
</g>
<g><a xlink:href="/character/display?id=Lyanne_Glover" xlink:title="&lt;TABLE&gt;" target="_blank">
</a>
</g>
</g>
<!-- 185&#45;&gt;184+185 -->
<g id="edge10" class="edge"><title>185&#45;&gt;184+185</title>
<path fill="none" stroke="black" d="M687,-1014.82C687,-988.346 687,-962.402 687,-956.329"/>
</g>
<!-- 186 -->
<g id="node19" class="node"><title>186</title>
<g id="a_node19"><a xlink:href="/character/display?id=Brandon_Stark_(son_of_Willam)" xlink:title="&lt;TABLE&gt;" target="_blank">
<polygon fill="white" stroke="black" points="764,-916 634,-916 634,-786 764,-786 764,-916"/>
</a>
</g>
<g id="a_node19_18"><a xlink:href="http://awoiaf.westeros.org/index.php/Brandon_Stark_(son_of_Willam)" xlink:title="&lt;TABLE&gt;" target="_blank">
<text text-anchor="start" x="646.5" y="-854.3" font-family="Times,serif" font-size="14.00">Brandon Stark</text>
<text text-anchor="start" x="674" y="-839.3" font-family="Times,serif" font-size="14.00">???&#45;???</text>
</a>
</g>
<g><a xlink:href="/character/display?id=Brandon_Stark_(son_of_Willam)" xlink:title="&lt;TABLE&gt;" target="_blank">
</a>
</g>
</g>
<!-- 187 -->
<g id="node20" class="node"><title>187</title>
<g id="a_node20"><a xlink:href="/character/display?id=Melantha_Blackwood" xlink:title="&lt;TABLE&gt;" target="_blank">
<polygon fill="white" stroke="black" points="175.5,-1168 0.5,-1168 0.5,-992 175.5,-992 175.5,-1168"/>
</a>
</g>
<g id="a_node20_19"><a xlink:href="http://awoiaf.westeros.org/index.php/Melantha_Blackwood" xlink:title="&lt;TABLE&gt;" target="_blank">
<text text-anchor="start" x="12.5" y="-1083.3" font-family="Times,serif" font-size="14.00">Melantha Blackwood</text>
<text text-anchor="start" x="63" y="-1068.3" font-family="Times,serif" font-size="14.00">???&#45;???</text>
</a>
</g>
<g><a xlink:href="/character/display?id=Melantha_Blackwood" xlink:title="&lt;TABLE&gt;" target="_blank">
</a>
</g>
</g>
<!-- 187&#45;&gt;184+187 -->
<g id="edge12" class="edge"><title>187&#45;&gt;184+187</title>
<path fill="none" stroke="black" d="M175.598,-996.917C178.699,-995.157 181.836,-993.51 185,-992 272.6,-950.191 398.098,-954.254 413.444,-954.926"/>
</g>
<!-- 188 -->
<g id="node21" class="node"><title>188</title>
<g id="a_node21"><a xlink:href="/character/display?id=Edwyle_Stark" xlink:title="&lt;TABLE&gt;" target="_blank">
<polygon fill="white" stroke="black" points="336,-912 214,-912 214,-790 336,-790 336,-912"/>
</a>
</g>
<g id="a_node21_20"><a xlink:href="http://awoiaf.westeros.org/index.php/Edwyle_Stark" xlink:title="&lt;TABLE&gt;" target="_blank">
<text text-anchor="start" x="226.5" y="-854.3" font-family="Times,serif" font-size="14.00">Edwyle Stark</text>
<text text-anchor="start" x="250" y="-839.3" font-family="Times,serif" font-size="14.00">???&#45;???</text>
</a>
</g>
<g><a xlink:href="/character/display?id=Edwyle_Stark" xlink:title="&lt;TABLE&gt;" target="_blank">
</a>
</g>
</g>
<!-- 188+189 -->
<g id="node40" class="node"><title>188+189</title>
<ellipse fill="black" stroke="black" cx="415" cy="-691" rx="1.8" ry="1.8"/>
</g>
<!-- 188&#45;&gt;188+189 -->
<g id="edge13" class="edge"><title>188&#45;&gt;188+189</title>
<path fill="none" stroke="black" d="M328.327,-789.816C364.8,-748.654 407.685,-700.255 414.163,-692.944"/>
</g>
<!-- 189 -->
<g id="node22" class="node"><title>189</title>
<g id="a_node22"><a xlink:href="/character/display?id=Marna_Locke" xlink:title="&lt;TABLE&gt;" target="_blank">
<polygon fill="white" stroke="black" points="475.25,-911.5 354.75,-911.5 354.75,-790.5 475.25,-790.5 475.25,-911.5"/>
</a>
</g>
<g id="a_node22_21"><a xlink:href="http://awoiaf.westeros.org/index.php/Marna_Locke" xlink:title="&lt;TABLE&gt;" target="_blank">
<text text-anchor="start" x="367.5" y="-854.3" font-family="Times,serif" font-size="14.00">Marna Locke</text>
<text text-anchor="start" x="390.5" y="-839.3" font-family="Times,serif" font-size="14.00">???&#45;???</text>
</a>
</g>
<g><a xlink:href="/character/display?id=Marna_Locke" xlink:title="&lt;TABLE&gt;" target="_blank">
</a>
</g>
</g>
<!-- 189&#45;&gt;188+189 -->
<g id="edge14" class="edge"><title>189&#45;&gt;188+189</title>
<path fill="none" stroke="black" d="M415,-790.267C415,-749.02 415,-700.31 415,-692.95"/>
</g>
<!-- 190 -->
<g id="node23" class="node"><title>190</title>
<g id="a_node23"><a xlink:href="/character/display?id=Jocelyn_Stark" xlink:title="&lt;TABLE&gt;" target="_blank">
<polygon fill="white" stroke="black" points="616,-912 494,-912 494,-790 616,-790 616,-912"/>
</a>
</g>
<g id="a_node23_22"><a xlink:href="http://awoiaf.westeros.org/index.php/Jocelyn_Stark" xlink:title="&lt;TABLE&gt;" target="_blank">
<text text-anchor="start" x="506.5" y="-854.3" font-family="Times,serif" font-size="14.00">Jocelyn Stark</text>
<text text-anchor="start" x="530" y="-839.3" font-family="Times,serif" font-size="14.00">???&#45;???</text>
</a>
</g>
<g><a xlink:href="/character/display?id=Jocelyn_Stark" xlink:title="&lt;TABLE&gt;" target="_blank">
</a>
</g>
</g>
<!-- 198 -->
<g id="node24" class="node"><title>198</title>
<g id="a_node24"><a xlink:href="/character/display?id=Artos_Stark" xlink:title="&lt;TABLE&gt;" target="_blank">
<polygon fill="white" stroke="black" points="1263,-1134 1155,-1134 1155,-1026 1263,-1026 1263,-1134"/>
</a>
</g>
<g id="a_node24_23"><a xlink:href="http://awoiaf.westeros.org/index.php/Artos_Stark" xlink:title="&lt;TABLE&gt;" target="_blank">
<text text-anchor="start" x="1167.5" y="-1083.3" font-family="Times,serif" font-size="14.00">Artos Stark</text>
<text text-anchor="start" x="1184" y="-1068.3" font-family="Times,serif" font-size="14.00">???&#45;???</text>
</a>
</g>
<g><a xlink:href="/character/display?id=Artos_Stark" xlink:title="&lt;TABLE&gt;" target="_blank">
</a>
</g>
</g>
<!-- 198+199 -->
<g id="node41" class="node"><title>198+199</title>
<ellipse fill="black" stroke="black" cx="1350" cy="-954" rx="1.8" ry="1.8"/>
</g>
<!-- 198&#45;&gt;198+199 -->
<g id="edge15" class="edge"><title>198&#45;&gt;198+199</title>
<path fill="none" stroke="black" d="M1241.12,-1025.7C1250.07,-1013.61 1260.53,-1001.54 1272,-992 1298.74,-969.773 1341.07,-957.445 1348.78,-955.329"/>
</g>
<!-- 199 -->
<g id="node25" class="node"><title>199</title>
<g id="a_node25"><a xlink:href="/character/display?id=Lysara_Karstark" xlink:title="&lt;TABLE&gt;" target="_blank">
<polygon fill="white" stroke="black" points="1563,-1151 1421,-1151 1421,-1009 1563,-1009 1563,-1151"/>
</a>
</g>
<g id="a_node25_24"><a xlink:href="http://awoiaf.westeros.org/index.php/Lysara_Karstark" xlink:title="&lt;TABLE&gt;" target="_blank">
<text text-anchor="start" x="1433.5" y="-1083.3" font-family="Times,serif" font-size="14.00">Lysara Karstark</text>
<text text-anchor="start" x="1467" y="-1068.3" font-family="Times,serif" font-size="14.00">???&#45;???</text>
</a>
</g>
<g><a xlink:href="/character/display?id=Lysara_Karstark" xlink:title="&lt;TABLE&gt;" target="_blank">
</a>
</g>
</g>
<!-- 199&#45;&gt;198+199 -->
<g id="edge16" class="edge"><title>199&#45;&gt;198+199</title>
<path fill="none" stroke="black" d="M1430.85,-1008.77C1424.7,-1002.86 1418.37,-997.178 1412,-992 1389.83,-973.97 1357.97,-958.707 1351.27,-955.584"/>
</g>
<!-- 200 -->
<g id="node26" class="node"><title>200</title>
<g id="a_node26"><a xlink:href="/character/display?id=Brandon_Stark_(son_of_Artos)" xlink:title="&lt;TABLE&gt;" target="_blank">
<polygon fill="white" stroke="black" points="1344,-916 1214,-916 1214,-786 1344,-786 1344,-916"/>
</a>
</g>
<g id="a_node26_25"><a xlink:href="http://awoiaf.westeros.org/index.php/Brandon_Stark_(son_of_Artos)" xlink:title="&lt;TABLE&gt;" target="_blank">
<text text-anchor="start" x="1226.5" y="-854.3" font-family="Times,serif" font-size="14.00">Brandon Stark</text>
<text text-anchor="start" x="1254" y="-839.3" font-family="Times,serif" font-size="14.00">???&#45;???</text>
</a>
</g>
<g><a xlink:href="/character/display?id=Brandon_Stark_(son_of_Artos)" xlink:title="&lt;TABLE&gt;" target="_blank">
</a>
</g>
</g>
<!-- 201 -->
<g id="node27" class="node"><title>201</title>
<g id="a_node27"><a xlink:href="/character/display?id=Benjen_Stark_(son_of_Artos)" xlink:title="&lt;TABLE&gt;" target="_blank">
<polygon fill="white" stroke="black" points="1481.25,-910.5 1362.75,-910.5 1362.75,-791.5 1481.25,-791.5 1481.25,-910.5"/>
</a>
</g>
<g id="a_node27_26"><a xlink:href="http://awoiaf.westeros.org/index.php/Benjen_Stark_(son_of_Artos)" xlink:title="&lt;TABLE&gt;" target="_blank">
<text text-anchor="start" x="1375.5" y="-854.3" font-family="Times,serif" font-size="14.00">Benjen Stark</text>
<text text-anchor="start" x="1397.5" y="-839.3" font-family="Times,serif" font-size="14.00">???&#45;???</text>
</a>
</g>
<g><a xlink:href="/character/display?id=Benjen_Stark_(son_of_Artos)" xlink:title="&lt;TABLE&gt;" target="_blank">
</a>
</g>
</g>
<!-- 202 -->
<g id="node28" class="node"><title>202</title>
<g id="a_node28"><a xlink:href="/character/display?id=Berena_Stark" xlink:title="&lt;TABLE&gt;" target="_blank">
<polygon fill="white" stroke="black" points="313.5,-1140 194.5,-1140 194.5,-1020 313.5,-1020 313.5,-1140"/>
</a>
</g>
<g id="a_node28_27"><a xlink:href="http://awoiaf.westeros.org/index.php/Berena_Stark" xlink:title="&lt;TABLE&gt;" target="_blank">
<text text-anchor="start" x="206.5" y="-1083.3" font-family="Times,serif" font-size="14.00">Berena Stark</text>
<text text-anchor="start" x="229" y="-1068.3" font-family="Times,serif" font-size="14.00">???&#45;???</text>
</a>
</g>
<g><a xlink:href="/character/display?id=Berena_Stark" xlink:title="&lt;TABLE&gt;" target="_blank">
</a>
</g>
</g>
<!-- 203 -->
<g id="node29" class="node"><title>203</title>
<g id="a_node29"><a xlink:href="/character/display?id=Alysanne_Stark" xlink:title="&lt;TABLE&gt;" target="_blank">
<polygon fill="white" stroke="black" points="466,-1147 332,-1147 332,-1013 466,-1013 466,-1147"/>
</a>
</g>
<g id="a_node29_28"><a xlink:href="http://awoiaf.westeros.org/index.php/Alysanne_Stark" xlink:title="&lt;TABLE&gt;" target="_blank">
<text text-anchor="start" x="344.5" y="-1083.3" font-family="Times,serif" font-size="14.00">Alysanne Stark</text>
<text text-anchor="start" x="374" y="-1068.3" font-family="Times,serif" font-size="14.00">???&#45;???</text>
</a>
</g>
<g><a xlink:href="/character/display?id=Alysanne_Stark" xlink:title="&lt;TABLE&gt;" target="_blank">
</a>
</g>
</g>
<!-- 204 -->
<g id="node30" class="node"><title>204</title>
<g id="a_node30"><a xlink:href="/character/display?id=Errold_Stark" xlink:title="&lt;TABLE&gt;" target="_blank">
<polygon fill="white" stroke="black" points="885.25,-1137.5 770.75,-1137.5 770.75,-1022.5 885.25,-1022.5 885.25,-1137.5"/>
</a>
</g>
<g id="a_node30_29"><a xlink:href="http://awoiaf.westeros.org/index.php/Errold_Stark" xlink:title="&lt;TABLE&gt;" target="_blank">
<text text-anchor="start" x="783.5" y="-1083.3" font-family="Times,serif" font-size="14.00">Errold Stark</text>
<text text-anchor="start" x="803.5" y="-1068.3" font-family="Times,serif" font-size="14.00">???&#45;???</text>
</a>
</g>
<g><a xlink:href="/character/display?id=Errold_Stark" xlink:title="&lt;TABLE&gt;" target="_blank">
</a>
</g>
</g>
<!-- 205 -->
<g id="node31" class="node"><title>205</title>
<g id="a_node31"><a xlink:href="/character/display?id=Rodrik Stark_(son_of_Beron)" xlink:title="&lt;TABLE&gt;" target="_blank">
<polygon fill="white" stroke="black" points="1020.25,-1138.5 903.75,-1138.5 903.75,-1021.5 1020.25,-1021.5 1020.25,-1138.5"/>
</a>
</g>
<g id="a_node31_30"><a xlink:href="http://awoiaf.westeros.org/index.php/Rodrik Stark_(son_of_Beron)" xlink:title="&lt;TABLE&gt;" target="_blank">
<text text-anchor="start" x="916.5" y="-1083.3" font-family="Times,serif" font-size="14.00">Rodrik Stark</text>
<text text-anchor="start" x="937.5" y="-1068.3" font-family="Times,serif" font-size="14.00">???&#45;???</text>
</a>
</g>
<g><a xlink:href="/character/display?id=Rodrik Stark_(son_of_Beron)" xlink:title="&lt;TABLE&gt;" target="_blank">
</a>
</g>
</g>
<!-- 205+206 -->
<g id="node42" class="node"><title>205+206</title>
<ellipse fill="black" stroke="black" cx="962" cy="-954" rx="1.8" ry="1.8"/>
</g>
<!-- 205&#45;&gt;205+206 -->
<g id="edge17" class="edge"><title>205&#45;&gt;205+206</title>
<path fill="none" stroke="black" d="M962,-1021.36C962,-992.01 962,-961.356 962,-955.867"/>
</g>
<!-- 206 -->
<g id="node32" class="node"><title>206</title>
<g id="a_node32"><a xlink:href="/character/display?id=Arya_Flint" xlink:title="&lt;TABLE&gt;" target="_blank">
<polygon fill="white" stroke="black" points="1136.5,-1129 1039.5,-1129 1039.5,-1031 1136.5,-1031 1136.5,-1129"/>
</a>
</g>
<g id="a_node32_31"><a xlink:href="http://awoiaf.westeros.org/index.php/Arya_Flint" xlink:title="&lt;TABLE&gt;" target="_blank">
<text text-anchor="start" x="1051.5" y="-1083.3" font-family="Times,serif" font-size="14.00">Arya Flint</text>
<text text-anchor="start" x="1063" y="-1068.3" font-family="Times,serif" font-size="14.00">???&#45;???</text>
</a>
</g>
<g><a xlink:href="/character/display?id=Arya_Flint" xlink:title="&lt;TABLE&gt;" target="_blank">
</a>
</g>
</g>
<!-- 206&#45;&gt;205+206 -->
<g id="edge18" class="edge"><title>206&#45;&gt;205+206</title>
<path fill="none" stroke="black" d="M1061.05,-1030.66C1052.03,-1017.11 1041.13,-1003.07 1029,-992 1006.62,-971.578 970.959,-958.184 963.426,-955.498"/>
</g>
<!-- 207 -->
<g id="node33" class="node"><title>207</title>
<g id="a_node33"><a xlink:href="/character/display?id=Branda_Stark" xlink:title="&lt;TABLE&gt;" target="_blank">
<polygon fill="white" stroke="black" points="1022.25,-911.5 901.75,-911.5 901.75,-790.5 1022.25,-790.5 1022.25,-911.5"/>
</a>
</g>
<g id="a_node33_32"><a xlink:href="http://awoiaf.westeros.org/index.php/Branda_Stark" xlink:title="&lt;TABLE&gt;" target="_blank">
<text text-anchor="start" x="914.5" y="-854.3" font-family="Times,serif" font-size="14.00">Branda Stark</text>
<text text-anchor="start" x="937.5" y="-839.3" font-family="Times,serif" font-size="14.00">???&#45;???</text>
</a>
</g>
<g><a xlink:href="/character/display?id=Branda_Stark" xlink:title="&lt;TABLE&gt;" target="_blank">
</a>
</g>
</g>
<!-- 1+2&#45;&gt;3 -->
<g id="edge20" class="edge"><title>1+2&#45;&gt;3</title>
<path fill="none" stroke="black" d="M724.841,-225.125C740.803,-226.123 857.019,-231.688 934,-188 943.464,-182.629 952.183,-175.28 959.926,-167.302"/>
</g>
<!-- 1+2&#45;&gt;4 -->
<g id="edge21" class="edge"><title>1+2&#45;&gt;4</title>
<path fill="none" stroke="black" d="M721.438,-224.997C698.536,-224.931 430.578,-223.404 362,-188 353.014,-183.361 344.725,-176.886 337.299,-169.692"/>
</g>
<!-- 1+2&#45;&gt;5 -->
<g id="edge22" class="edge"><title>1+2&#45;&gt;5</title>
<path fill="none" stroke="black" d="M721.46,-224.498C713.317,-221.793 674.686,-208.316 649,-188 640.709,-181.443 632.752,-173.602 625.479,-165.529"/>
</g>
<!-- 1+2&#45;&gt;6 -->
<g id="edge23" class="edge"><title>1+2&#45;&gt;6</title>
<path fill="none" stroke="black" d="M723,-223.765C723,-218.832 723,-199.802 723,-179.007"/>
</g>
<!-- 1+2&#45;&gt;7 -->
<g id="edge24" class="edge"><title>1+2&#45;&gt;7</title>
<path fill="none" stroke="black" d="M724.518,-224.47C732.55,-221.619 770.705,-207.521 797,-188 802.881,-183.634 808.689,-178.736 814.291,-173.597"/>
</g>
<!-- 10+11&#45;&gt;1 -->
<g id="edge19" class="edge"><title>10+11&#45;&gt;1</title>
<path fill="none" stroke="black" d="M578.225,-429.866C575.205,-425.445 563.76,-408.693 551.084,-390.138"/>
</g>
<!-- 10+11&#45;&gt;14 -->
<g id="edge27" class="edge"><title>10+11&#45;&gt;14</title>
<path fill="none" stroke="black" d="M577.534,-430.876C566.209,-429.863 491.709,-422.276 440,-394 437.11,-392.42 434.245,-390.696 431.418,-388.861"/>
</g>
<!-- 10+11&#45;&gt;15 -->
<g id="edge28" class="edge"><title>10+11&#45;&gt;15</title>
<path fill="none" stroke="black" d="M579.786,-429.866C582.925,-425.336 595.035,-407.864 608.268,-388.77"/>
</g>
<!-- 10+11&#45;&gt;16 -->
<g id="edge29" class="edge"><title>10+11&#45;&gt;16</title>
<path fill="none" stroke="black" d="M580.447,-430.857C591.625,-429.702 665.19,-421.249 717,-394 720.333,-392.247 723.647,-390.323 726.921,-388.269"/>
</g>
<!-- 180+181&#45;&gt;183 -->
<g id="edge30" class="edge"><title>180+181&#45;&gt;183</title>
<path fill="none" stroke="black" d="M829.595,-1205.04C855.445,-1205.65 1187.97,-1212.62 1272,-1168 1284.33,-1161.45 1295.26,-1151.71 1304.6,-1141.08"/>
</g>
<!-- 180+181&#45;&gt;184 -->
<g id="edge31" class="edge"><title>180+181&#45;&gt;184</title>
<path fill="none" stroke="black" d="M826.495,-1204.89C809.439,-1203.62 652.417,-1191.38 613,-1168 600.896,-1160.82 590.085,-1150.66 580.812,-1139.81"/>
</g>
<!-- 180+181&#45;&gt;198 -->
<g id="edge35" class="edge"><title>180+181&#45;&gt;198</title>
<path fill="none" stroke="black" d="M829.639,-1204.99C851.543,-1204.8 1086.55,-1201.96 1145,-1168 1158.94,-1159.9 1170.74,-1147.42 1180.26,-1134.42"/>
</g>
<!-- 180+181&#45;&gt;202 -->
<g id="edge38" class="edge"><title>180+181&#45;&gt;202</title>
<path fill="none" stroke="black" d="M826.349,-1204.96C796.49,-1204.23 370.98,-1193.39 323,-1168 310.391,-1161.33 299.306,-1151.24 289.918,-1140.28"/>
</g>
<!-- 180+181&#45;&gt;203 -->
<g id="edge39" class="edge"><title>180+181&#45;&gt;203</title>
<path fill="none" stroke="black" d="M826.472,-1204.99C804.074,-1204.88 542.003,-1202.76 475,-1168 464.675,-1162.64 455.127,-1155.25 446.534,-1147.01"/>
</g>
<!-- 180+181&#45;&gt;204 -->
<g id="edge40" class="edge"><title>180+181&#45;&gt;204</title>
<path fill="none" stroke="black" d="M828,-1203.61C828,-1196.82 828,-1166.38 828,-1137.53"/>
</g>
<!-- 180+181&#45;&gt;205 -->
<g id="edge41" class="edge"><title>180+181&#45;&gt;205</title>
<path fill="none" stroke="black" d="M829.38,-1204.47C836.676,-1201.62 871.27,-1187.5 894,-1168 904.039,-1159.39 913.606,-1149.1 922.226,-1138.66"/>
</g>
<!-- 184+185&#45;&gt;186 -->
<g id="edge32" class="edge"><title>184+185&#45;&gt;186</title>
<path fill="none" stroke="black" d="M687.135,-951.866C687.621,-947.77 689.366,-933.089 691.373,-916.197"/>
</g>
<!-- 184+187&#45;&gt;188 -->
<g id="edge33" class="edge"><title>184+187&#45;&gt;188</title>
<path fill="none" stroke="black" d="M413.591,-952.416C406.131,-949.296 370.626,-934.043 345,-916 342.038,-913.914 339.068,-911.715 336.113,-909.436"/>
</g>
<!-- 184+187&#45;&gt;190 -->
<g id="edge34" class="edge"><title>184+187&#45;&gt;190</title>
<path fill="none" stroke="black" d="M416.386,-952.409C423.723,-949.249 458.65,-933.828 484,-916 487.258,-913.709 490.529,-911.285 493.782,-908.773"/>
</g>
<!-- 188+189&#45;&gt;10 -->
<g id="edge25" class="edge"><title>188+189&#45;&gt;10</title>
<path fill="none" stroke="black" d="M415.607,-689.004C420.047,-681.712 448.046,-635.735 472.407,-595.732"/>
</g>
<!-- 198+199&#45;&gt;200 -->
<g id="edge36" class="edge"><title>198+199&#45;&gt;200</title>
<path fill="none" stroke="black" d="M1349.2,-951.866C1346.32,-947.77 1336,-933.089 1324.13,-916.197"/>
</g>
<!-- 198+199&#45;&gt;201 -->
<g id="edge37" class="edge"><title>198+199&#45;&gt;201</title>
<path fill="none" stroke="black" d="M1350.81,-951.866C1354.04,-947.336 1366.49,-929.864 1380.1,-910.77"/>
</g>
<!-- 205+206&#45;&gt;11 -->
<g id="edge26" class="edge"><title>205+206&#45;&gt;11</title>
<path fill="none" stroke="black" d="M960.388,-952.646C951.898,-950.697 912.045,-940.449 893,-916 855.68,-868.09 842.919,-798.436 838.72,-749.553"/>
</g>
<!-- 205+206&#45;&gt;207 -->
<g id="edge42" class="edge"><title>205+206&#45;&gt;207</title>
<path fill="none" stroke="black" d="M962,-951.866C962,-947.401 962,-930.363 962,-911.592"/>
</g>
</g>
</svg>
