<?xml version="1.0" encoding="UTF-8" standalone="no"?>
<!DOCTYPE svg PUBLIC "-//W3C//DTD SVG 1.1//EN"
 "http://www.w3.org/Graphics/SVG/1.1/DTD/svg11.dtd">
<!-- Generated by graphviz version 2.36.0 (20140111.2315)
 -->
<!-- Title: family Pages: 1 -->
<svg width="1527pt" height="1120pt"
 viewBox="0.00 0.00 1527.00 1120.00" xmlns="http://www.w3.org/2000/svg" xmlns:xlink="http://www.w3.org/1999/xlink">
<g id="graph0" class="graph" transform="scale(1 1) rotate(0) translate(4 1116)">
<title>family</title>
<polygon fill="white" stroke="none" points="-4,4 -4,-1116 1523,-1116 1523,4 -4,4"/>
<!-- 121 -->
<g id="node1" class="node"><title>121</title>
<g id="a_node1"><a xlink:href="http://awoiaf.westeros.org/index.php/Elia_Martell" xlink:title="Elia Martell\n256&#45;283" target="_blank">
<polygon fill="white" stroke="black" points="101.5,-365 0.5,-365 0.5,-263 101.5,-263 101.5,-365"/>
<text text-anchor="middle" x="51" y="-317.8" font-family="Times,serif" font-size="14.00">Elia Martell</text>
<text text-anchor="middle" x="51" y="-302.8" font-family="Times,serif" font-size="14.00">256&#45;283</text>
</a>
</g>
</g>
<!-- 165+121 -->
<g id="node28" class="node"><title>165+121</title>
<ellipse fill="black" stroke="black" cx="124" cy="-194" rx="1.8" ry="1.8"/>
</g>
<!-- 121&#45;&gt;165+121 -->
<g id="edge10" class="edge"><title>121&#45;&gt;165+121</title>
<path fill="none" stroke="black" d="M81.9586,-262.957C99.9895,-233.812 119.868,-201.68 123.436,-195.911"/>
</g>
<!-- 157 -->
<g id="node2" class="node"><title>157</title>
<g id="a_node2"><a xlink:href="http://awoiaf.westeros.org/index.php/Aegon_V_Targaryen" xlink:title="Aegon V Targaryen\n200&#45;259" target="_blank">
<polygon fill="white" stroke="black" points="933,-1112 779,-1112 779,-958 933,-958 933,-1112"/>
<text text-anchor="middle" x="856" y="-1038.8" font-family="Times,serif" font-size="14.00">Aegon V Targaryen</text>
<text text-anchor="middle" x="856" y="-1023.8" font-family="Times,serif" font-size="14.00">200&#45;259</text>
</a>
</g>
</g>
<!-- 157+158 -->
<g id="node24" class="node"><title>157+158</title>
<ellipse fill="black" stroke="black" cx="939" cy="-920" rx="1.8" ry="1.8"/>
</g>
<!-- 157&#45;&gt;157+158 -->
<g id="edge1" class="edge"><title>157&#45;&gt;157+158</title>
<path fill="none" stroke="black" d="M912.052,-957.688C925.097,-939.928 935.945,-925.159 938.454,-921.744"/>
</g>
<!-- 158 -->
<g id="node3" class="node"><title>158</title>
<g id="a_node3"><a xlink:href="http://awoiaf.westeros.org/index.php/Betha_Blackwood" xlink:title="Betha Blackwood\n???&#45;???" target="_blank">
<polygon fill="white" stroke="black" points="1092.25,-1105.5 951.75,-1105.5 951.75,-964.5 1092.25,-964.5 1092.25,-1105.5"/>
<text text-anchor="middle" x="1022" y="-1038.8" font-family="Times,serif" font-size="14.00">Betha Blackwood</text>
<text text-anchor="middle" x="1022" y="-1023.8" font-family="Times,serif" font-size="14.00">???&#45;???</text>
</a>
</g>
</g>
<!-- 158&#45;&gt;157+158 -->
<g id="edge2" class="edge"><title>158&#45;&gt;157+158</title>
<path fill="none" stroke="black" d="M970.853,-964.366C955.907,-944.018 942.729,-926.077 939.668,-921.91"/>
</g>
<!-- 159 -->
<g id="node4" class="node"><title>159</title>
<g id="a_node4"><a xlink:href="http://awoiaf.westeros.org/index.php/Duncan_Targaryen" xlink:title="Duncan Targaryen\n220&#45;259" target="_blank">
<polygon fill="white" stroke="black" points="650.25,-865.5 501.75,-865.5 501.75,-716.5 650.25,-716.5 650.25,-865.5"/>
<text text-anchor="middle" x="576" y="-794.8" font-family="Times,serif" font-size="14.00">Duncan Targaryen</text>
<text text-anchor="middle" x="576" y="-779.8" font-family="Times,serif" font-size="14.00">220&#45;259</text>
</a>
</g>
</g>
<!-- 159+160 -->
<g id="node25" class="node"><title>159+160</title>
<ellipse fill="black" stroke="black" cx="492" cy="-662" rx="1.8" ry="1.8"/>
</g>
<!-- 159&#45;&gt;159+160 -->
<g id="edge3" class="edge"><title>159&#45;&gt;159+160</title>
<path fill="none" stroke="black" d="M527.38,-716.491C511.126,-691.917 496.229,-669.393 492.758,-664.147"/>
</g>
<!-- 160 -->
<g id="node5" class="node"><title>160</title>
<g id="a_node5"><a xlink:href="http://awoiaf.westeros.org/index.php/Jenny_of_Oldstones" xlink:title="Jenny of Oldstones\n???&#45;???" target="_blank">
<polygon fill="white" stroke="black" points="483.25,-866.5 332.75,-866.5 332.75,-715.5 483.25,-715.5 483.25,-866.5"/>
<text text-anchor="middle" x="408" y="-794.8" font-family="Times,serif" font-size="14.00">Jenny of Oldstones</text>
<text text-anchor="middle" x="408" y="-779.8" font-family="Times,serif" font-size="14.00">???&#45;???</text>
</a>
</g>
</g>
<!-- 160&#45;&gt;159+160 -->
<g id="edge4" class="edge"><title>160&#45;&gt;159+160</title>
<path fill="none" stroke="black" d="M457.349,-715.389C473.348,-691.2 487.878,-669.231 491.261,-664.117"/>
</g>
<!-- 161 -->
<g id="node6" class="node"><title>161</title>
<g id="a_node6"><a xlink:href="http://awoiaf.westeros.org/index.php/Jaehaerys_II_Targaryen" xlink:title="Jaehaerys II Targaryen\n225&#45;262" target="_blank">
<polygon fill="white" stroke="black" points="849.25,-881.5 668.75,-881.5 668.75,-700.5 849.25,-700.5 849.25,-881.5"/>
<text text-anchor="middle" x="759" y="-794.8" font-family="Times,serif" font-size="14.00">Jaehaerys II Targaryen</text>
<text text-anchor="middle" x="759" y="-779.8" font-family="Times,serif" font-size="14.00">225&#45;262</text>
</a>
</g>
</g>
<!-- 161+162 -->
<g id="node26" class="node"><title>161+162</title>
<ellipse fill="black" stroke="black" cx="849" cy="-662" rx="1.8" ry="1.8"/>
</g>
<!-- 161&#45;&gt;161+162 -->
<g id="edge5" class="edge"><title>161&#45;&gt;161+162</title>
<path fill="none" stroke="black" d="M822.484,-700.417C835.515,-682.029 846.043,-667.173 848.471,-663.746"/>
</g>
<!-- 162 -->
<g id="node7" class="node"><title>162</title>
<g id="a_node7"><a xlink:href="http://awoiaf.westeros.org/index.php/Shaera_Targaryen" xlink:title="Shaera Targaryen\n226&#45;259" target="_blank">
<polygon fill="white" stroke="black" points="1010.25,-862.5 867.75,-862.5 867.75,-719.5 1010.25,-719.5 1010.25,-862.5"/>
<text text-anchor="middle" x="939" y="-794.8" font-family="Times,serif" font-size="14.00">Shaera Targaryen</text>
<text text-anchor="middle" x="939" y="-779.8" font-family="Times,serif" font-size="14.00">226&#45;259</text>
</a>
</g>
</g>
<!-- 162&#45;&gt;161+162 -->
<g id="edge6" class="edge"><title>162&#45;&gt;161+162</title>
<path fill="none" stroke="black" d="M888.999,-719.444C870.874,-693.866 853.843,-669.835 849.869,-664.226"/>
</g>
<!-- 163 -->
<g id="node8" class="node"><title>163</title>
<g id="a_node8"><a xlink:href="http://awoiaf.westeros.org/index.php/Aerys_II_Targaryen" xlink:title="Aerys II Targaryen\n244&#45;283" target="_blank">
<polygon fill="white" stroke="black" points="841,-624 689,-624 689,-472 841,-472 841,-624"/>
<text text-anchor="middle" x="765" y="-551.8" font-family="Times,serif" font-size="14.00">Aerys II Targaryen</text>
<text text-anchor="middle" x="765" y="-536.8" font-family="Times,serif" font-size="14.00">244&#45;283</text>
</a>
</g>
</g>
<!-- 163+164 -->
<g id="node27" class="node"><title>163+164</title>
<ellipse fill="black" stroke="black" cx="849" cy="-434" rx="1.8" ry="1.8"/>
</g>
<!-- 163&#45;&gt;163+164 -->
<g id="edge7" class="edge"><title>163&#45;&gt;163+164</title>
<path fill="none" stroke="black" d="M821.262,-471.983C834.652,-454.131 845.846,-439.205 848.436,-435.752"/>
</g>
<!-- 164 -->
<g id="node9" class="node"><title>164</title>
<g id="a_node9"><a xlink:href="http://awoiaf.westeros.org/index.php/Rhaella_Targaryen" xlink:title="Rhaella Targaryen\n245&#45;284" target="_blank">
<polygon fill="white" stroke="black" points="1006.25,-621.5 859.75,-621.5 859.75,-474.5 1006.25,-474.5 1006.25,-621.5"/>
<text text-anchor="middle" x="933" y="-551.8" font-family="Times,serif" font-size="14.00">Rhaella Targaryen</text>
<text text-anchor="middle" x="933" y="-536.8" font-family="Times,serif" font-size="14.00">245&#45;284</text>
</a>
</g>
</g>
<!-- 164&#45;&gt;163+164 -->
<g id="edge8" class="edge"><title>164&#45;&gt;163+164</title>
<path fill="none" stroke="black" d="M878.615,-474.487C864.485,-455.647 852.408,-439.545 849.61,-435.814"/>
</g>
<!-- 165 -->
<g id="node10" class="node"><title>165</title>
<g id="a_node10"><a xlink:href="http://awoiaf.westeros.org/index.php/Rhaegar_Targaryen" xlink:title="Rhaegar Targaryen\n259&#45;283" target="_blank">
<polygon fill="white" stroke="black" points="274,-391 120,-391 120,-237 274,-237 274,-391"/>
<text text-anchor="middle" x="197" y="-317.8" font-family="Times,serif" font-size="14.00">Rhaegar Targaryen</text>
<text text-anchor="middle" x="197" y="-302.8" font-family="Times,serif" font-size="14.00">259&#45;283</text>
</a>
</g>
</g>
<!-- 165&#45;&gt;165+121 -->
<g id="edge9" class="edge"><title>165&#45;&gt;165+121</title>
<path fill="none" stroke="black" d="M149.943,-236.935C137.583,-216.956 126.99,-199.834 124.535,-195.865"/>
</g>
<!-- 166 -->
<g id="node11" class="node"><title>166</title>
<g id="a_node11"><a xlink:href="http://awoiaf.westeros.org/index.php/Rhaenys_Targaryen" xlink:title="Rhaenys Targaryen\n280&#45;283" target="_blank">
<polygon fill="white" stroke="black" points="159.25,-155.5 4.75,-155.5 4.75,-0.5 159.25,-0.5 159.25,-155.5"/>
<text text-anchor="middle" x="82" y="-81.8" font-family="Times,serif" font-size="14.00">Rhaenys Targaryen</text>
<text text-anchor="middle" x="82" y="-66.8" font-family="Times,serif" font-size="14.00">280&#45;283</text>
</a>
</g>
</g>
<!-- 167 -->
<g id="node12" class="node"><title>167</title>
<g id="a_node12"><a xlink:href="http://awoiaf.westeros.org/index.php/Aegon_Targaryen_(son_of_Rhaegar)" xlink:title="Aegon Targaryen\n281&#45;283" target="_blank">
<polygon fill="white" stroke="black" points="316.25,-147.5 177.75,-147.5 177.75,-8.5 316.25,-8.5 316.25,-147.5"/>
<text text-anchor="middle" x="247" y="-81.8" font-family="Times,serif" font-size="14.00">Aegon Targaryen</text>
<text text-anchor="middle" x="247" y="-66.8" font-family="Times,serif" font-size="14.00">281&#45;283</text>
</a>
</g>
</g>
<!-- 168 -->
<g id="node13" class="node"><title>168</title>
<g id="a_node13"><a xlink:href="http://awoiaf.westeros.org/index.php/Shaena_Targaryen" xlink:title="Shaena Targaryen\n267&#45;267" target="_blank">
<polygon fill="white" stroke="black" points="532,-387 386,-387 386,-241 532,-241 532,-387"/>
<text text-anchor="middle" x="459" y="-317.8" font-family="Times,serif" font-size="14.00">Shaena Targaryen</text>
<text text-anchor="middle" x="459" y="-302.8" font-family="Times,serif" font-size="14.00">267&#45;267</text>
</a>
</g>
</g>
<!-- 169 -->
<g id="node14" class="node"><title>169</title>
<g id="a_node14"><a xlink:href="http://awoiaf.westeros.org/index.php/Daeron_Targaryen_(son_of_Aerys_II)" xlink:title="Daeron Targaryen\n269&#45;269" target="_blank">
<polygon fill="white" stroke="black" points="696,-387 550,-387 550,-241 696,-241 696,-387"/>
<text text-anchor="middle" x="623" y="-317.8" font-family="Times,serif" font-size="14.00">Daeron Targaryen</text>
<text text-anchor="middle" x="623" y="-302.8" font-family="Times,serif" font-size="14.00">269&#45;269</text>
</a>
</g>
</g>
<!-- 170 -->
<g id="node15" class="node"><title>170</title>
<polygon fill="white" stroke="black" points="835.25,-374.5 714.75,-374.5 714.75,-253.5 835.25,-253.5 835.25,-374.5"/>
<text text-anchor="middle" x="775" y="-317.8" font-family="Times,serif" font-size="14.00">Stillborn Child</text>
<text text-anchor="middle" x="775" y="-302.8" font-family="Times,serif" font-size="14.00">???&#45;???</text>
</g>
<!-- 171 -->
<g id="node16" class="node"><title>171</title>
<g id="a_node16"><a xlink:href="http://awoiaf.westeros.org/index.php/Aegon_Targaryen_(son_of_Aerys_II)" xlink:title="Aegon Targaryen\n272&#45;273" target="_blank">
<polygon fill="white" stroke="black" points="992.25,-383.5 853.75,-383.5 853.75,-244.5 992.25,-244.5 992.25,-383.5"/>
<text text-anchor="middle" x="923" y="-317.8" font-family="Times,serif" font-size="14.00">Aegon Targaryen</text>
<text text-anchor="middle" x="923" y="-302.8" font-family="Times,serif" font-size="14.00">272&#45;273</text>
</a>
</g>
</g>
<!-- 172 -->
<g id="node17" class="node"><title>172</title>
<g id="a_node17"><a xlink:href="http://awoiaf.westeros.org/index.php/Jaehaerys_Targaryen_(son_of_Aerys_II)" xlink:title="Jaehaerys Targaryen\n274&#45;274" target="_blank">
<polygon fill="white" stroke="black" points="1175,-396 1011,-396 1011,-232 1175,-232 1175,-396"/>
<text text-anchor="middle" x="1093" y="-317.8" font-family="Times,serif" font-size="14.00">Jaehaerys Targaryen</text>
<text text-anchor="middle" x="1093" y="-302.8" font-family="Times,serif" font-size="14.00">274&#45;274</text>
</a>
</g>
</g>
<!-- 173 -->
<g id="node18" class="node"><title>173</title>
<g id="a_node18"><a xlink:href="http://awoiaf.westeros.org/index.php/Viserys_Targaryen" xlink:title="Viserys Targaryen\n276&#45;298" target="_blank">
<polygon fill="white" stroke="black" points="1340.25,-387.5 1193.75,-387.5 1193.75,-240.5 1340.25,-240.5 1340.25,-387.5"/>
<text text-anchor="middle" x="1267" y="-317.8" font-family="Times,serif" font-size="14.00">Viserys Targaryen</text>
<text text-anchor="middle" x="1267" y="-302.8" font-family="Times,serif" font-size="14.00">276&#45;298</text>
</a>
</g>
</g>
<!-- 174 -->
<g id="node19" class="node"><title>174</title>
<g id="a_node19"><a xlink:href="http://awoiaf.westeros.org/index.php/Daenerys_Targaryen" xlink:title="Daenerys Targaryen\n284&#45;" target="_blank">
<polygon fill="white" stroke="black" points="1519.25,-394.5 1358.75,-394.5 1358.75,-233.5 1519.25,-233.5 1519.25,-394.5"/>
<text text-anchor="middle" x="1439" y="-317.8" font-family="Times,serif" font-size="14.00">Daenerys Targaryen</text>
<text text-anchor="middle" x="1439" y="-302.8" font-family="Times,serif" font-size="14.00">284&#45;</text>
</a>
</g>
</g>
<!-- 174+175 -->
<g id="node29" class="node"><title>174+175</title>
<ellipse fill="black" stroke="black" cx="905" cy="-194" rx="1.8" ry="1.8"/>
</g>
<!-- 174&#45;&gt;174+175 -->
<g id="edge11" class="edge"><title>174&#45;&gt;174+175</title>
<path fill="none" stroke="black" d="M1358.72,-236.732C1355.52,-235.005 1352.28,-233.418 1349,-232 1261.67,-194.252 932.187,-194.885 906.58,-194.992"/>
</g>
<!-- 175 -->
<g id="node20" class="node"><title>175</title>
<g id="a_node20"><a xlink:href="http://awoiaf.westeros.org/index.php/Drogo" xlink:title="Drogo\n267&#45;298" target="_blank">
<polygon fill="white" stroke="black" points="367.25,-351.5 292.75,-351.5 292.75,-276.5 367.25,-276.5 367.25,-351.5"/>
<text text-anchor="middle" x="330" y="-317.8" font-family="Times,serif" font-size="14.00">Drogo</text>
<text text-anchor="middle" x="330" y="-302.8" font-family="Times,serif" font-size="14.00">267&#45;298</text>
</a>
</g>
</g>
<!-- 175&#45;&gt;174+175 -->
<g id="edge12" class="edge"><title>175&#45;&gt;174+175</title>
<path fill="none" stroke="black" d="M342.245,-276.193C349.654,-259.848 360.858,-242.064 377,-232 425.151,-201.979 871.913,-195.445 903.267,-195.023"/>
</g>
<!-- 176 -->
<g id="node21" class="node"><title>176</title>
<g id="a_node21"><a xlink:href="http://awoiaf.westeros.org/index.php/Rhaego" xlink:title="Rhaego\n298&#45;298" target="_blank">
<polygon fill="white" stroke="black" points="942.25,-115.5 867.75,-115.5 867.75,-40.5 942.25,-40.5 942.25,-115.5"/>
<text text-anchor="middle" x="905" y="-81.8" font-family="Times,serif" font-size="14.00">Rhaego</text>
<text text-anchor="middle" x="905" y="-66.8" font-family="Times,serif" font-size="14.00">298&#45;298</text>
</a>
</g>
</g>
<!-- 177 -->
<g id="node22" class="node"><title>177</title>
<g id="a_node22"><a xlink:href="http://awoiaf.westeros.org/index.php/Daeron_Targaryen_(son_of_Aegon_V)" xlink:title="Daeron Targaryen\n228&#45;251" target="_blank">
<polygon fill="white" stroke="black" points="1175,-864 1029,-864 1029,-718 1175,-718 1175,-864"/>
<text text-anchor="middle" x="1102" y="-794.8" font-family="Times,serif" font-size="14.00">Daeron Targaryen</text>
<text text-anchor="middle" x="1102" y="-779.8" font-family="Times,serif" font-size="14.00">228&#45;251</text>
</a>
</g>
</g>
<!-- 178 -->
<g id="node23" class="node"><title>178</title>
<g id="a_node23"><a xlink:href="http://awoiaf.westeros.org/index.php/Rhaelle_Targaryen" xlink:title="Rhaelle Targaryen\n229&#45;???" target="_blank">
<polygon fill="white" stroke="black" points="1340.25,-864.5 1193.75,-864.5 1193.75,-717.5 1340.25,-717.5 1340.25,-864.5"/>
<text text-anchor="middle" x="1267" y="-794.8" font-family="Times,serif" font-size="14.00">Rhaelle Targaryen</text>
<text text-anchor="middle" x="1267" y="-779.8" font-family="Times,serif" font-size="14.00">229&#45;???</text>
</a>
</g>
</g>
<!-- 157+158&#45;&gt;159 -->
<g id="edge13" class="edge"><title>157+158&#45;&gt;159</title>
<path fill="none" stroke="black" d="M937.316,-918.936C916.655,-918.124 711.882,-909.437 659,-882 650.51,-877.595 642.44,-871.958 634.905,-865.657"/>
</g>
<!-- 157+158&#45;&gt;161 -->
<g id="edge14" class="edge"><title>157+158&#45;&gt;161</title>
<path fill="none" stroke="black" d="M937.804,-918.601C930.26,-916.052 888.637,-901.545 859,-882 855.783,-879.878 852.565,-877.656 849.36,-875.355"/>
</g>
<!-- 157+158&#45;&gt;162 -->
<g id="edge15" class="edge"><title>157+158&#45;&gt;162</title>
<path fill="none" stroke="black" d="M939,-918.189C939,-913.478 939,-888.933 939,-862.724"/>
</g>
<!-- 157+158&#45;&gt;177 -->
<g id="edge29" class="edge"><title>157+158&#45;&gt;177</title>
<path fill="none" stroke="black" d="M940.221,-918.637C947.916,-916.307 990.304,-902.902 1019,-882 1026.39,-876.619 1033.64,-870.506 1040.58,-864.06"/>
</g>
<!-- 157+158&#45;&gt;178 -->
<g id="edge30" class="edge"><title>157+158&#45;&gt;178</title>
<path fill="none" stroke="black" d="M940.706,-918.899C960.035,-917.732 1138.02,-906.398 1184,-882 1192.82,-877.317 1201.21,-871.32 1209.01,-864.65"/>
</g>
<!-- 161+162&#45;&gt;163 -->
<g id="edge16" class="edge"><title>161+162&#45;&gt;163</title>
<path fill="none" stroke="black" d="M848.057,-659.742C844.884,-655.512 834.079,-641.105 821.262,-624.017"/>
</g>
<!-- 161+162&#45;&gt;164 -->
<g id="edge17" class="edge"><title>161+162&#45;&gt;164</title>
<path fill="none" stroke="black" d="M849.943,-659.742C853.26,-655.32 864.919,-639.774 878.497,-621.67"/>
</g>
<!-- 163+164&#45;&gt;165 -->
<g id="edge18" class="edge"><title>163+164&#45;&gt;165</title>
<path fill="none" stroke="black" d="M847.157,-432.956C813.823,-432.15 338.759,-420.259 283,-396 279.615,-394.527 276.28,-392.861 273.006,-391.036"/>
</g>
<!-- 163+164&#45;&gt;168 -->
<g id="edge21" class="edge"><title>163+164&#45;&gt;168</title>
<path fill="none" stroke="black" d="M847.423,-432.952C826.35,-432.289 600.181,-424.545 541,-396 535.773,-393.479 530.678,-390.49 525.752,-387.171"/>
</g>
<!-- 163+164&#45;&gt;169 -->
<g id="edge22" class="edge"><title>163+164&#45;&gt;169</title>
<path fill="none" stroke="black" d="M847.483,-432.902C835.767,-432.087 758.724,-425.713 706,-396 701.264,-393.331 696.604,-390.324 692.056,-387.08"/>
</g>
<!-- 163+164&#45;&gt;170 -->
<g id="edge23" class="edge"><title>163+164&#45;&gt;170</title>
<path fill="none" stroke="black" d="M848.527,-432.246C845.561,-427.516 829.096,-401.262 812.498,-374.794"/>
</g>
<!-- 163+164&#45;&gt;171 -->
<g id="edge24" class="edge"><title>163+164&#45;&gt;171</title>
<path fill="none" stroke="black" d="M849.473,-432.246C852.107,-428.046 865.384,-406.874 879.947,-383.652"/>
</g>
<!-- 163+164&#45;&gt;172 -->
<g id="edge25" class="edge"><title>163+164&#45;&gt;172</title>
<path fill="none" stroke="black" d="M850.597,-432.9C862.941,-432.072 944.157,-425.618 1001,-396 1004.3,-394.279 1007.58,-392.415 1010.83,-390.435"/>
</g>
<!-- 163+164&#45;&gt;173 -->
<g id="edge26" class="edge"><title>163+164&#45;&gt;173</title>
<path fill="none" stroke="black" d="M850.714,-432.965C873.62,-432.473 1119.46,-426.51 1184,-396 1189.1,-393.591 1194.07,-390.739 1198.89,-387.571"/>
</g>
<!-- 163+164&#45;&gt;174 -->
<g id="edge27" class="edge"><title>163+164&#45;&gt;174</title>
<path fill="none" stroke="black" d="M850.778,-433.027C879.606,-433.449 1250.53,-438.021 1349,-396 1352.29,-394.597 1355.53,-393.024 1358.73,-391.308"/>
</g>
<!-- 165+121&#45;&gt;166 -->
<g id="edge19" class="edge"><title>165+121&#45;&gt;166</title>
<path fill="none" stroke="black" d="M123.528,-191.72C121.951,-187.439 116.601,-172.916 110.24,-155.652"/>
</g>
<!-- 165+121&#45;&gt;167 -->
<g id="edge20" class="edge"><title>165+121&#45;&gt;167</title>
<path fill="none" stroke="black" d="M125.114,-192.114C130.17,-188.08 151.428,-171.007 168,-156 171.123,-153.172 174.293,-150.261 177.478,-147.303"/>
</g>
<!-- 174+175&#45;&gt;176 -->
<g id="edge28" class="edge"><title>174+175&#45;&gt;176</title>
<path fill="none" stroke="black" d="M905,-191.72C905,-184.259 905,-145.687 905,-115.717"/>
</g>
</g>
</svg>
