<?xml version="1.0" encoding="UTF-8" standalone="no"?>
<!DOCTYPE svg PUBLIC "-//W3C//DTD SVG 1.1//EN"
 "http://www.w3.org/Graphics/SVG/1.1/DTD/svg11.dtd">
<!-- Generated by graphviz version 2.36.0 (20140111.2315)
 -->
<!-- Title: family Pages: 1 -->
<svg width="274pt" height="212pt"
 viewBox="0.00 0.00 274.00 212.00" xmlns="http://www.w3.org/2000/svg" xmlns:xlink="http://www.w3.org/1999/xlink">
<g id="graph0" class="graph" transform="scale(1 1) rotate(0) translate(4 208)">
<title>family</title>
<polygon fill="white" stroke="none" points="-4,4 -4,-208 270,-208 270,4 -4,4"/>
<!-- 196 -->
<g id="node1" class="node"><title>196</title>
<polygon fill="none" stroke="black" points="83.5,-164 0.5,-164 0.5,-80 83.5,-80 83.5,-164"/>
<text text-anchor="middle" x="42" y="-125.8" font-family="Times,serif" font-size="14.00">Daughter</text>
<text text-anchor="middle" x="42" y="-110.8" font-family="Times,serif" font-size="14.00">???&#45;???</text>
</g>
<!-- 197+196 -->
<g id="node3" class="node"><title>197+196</title>
<ellipse fill="black" stroke="black" cx="113" cy="-2" rx="1.8" ry="1.8"/>
</g>
<!-- 196&#45;&gt;197+196 -->
<g id="edge2" class="edge"><title>196&#45;&gt;197+196</title>
<path fill="none" stroke="black" d="M66.8324,-79.7293C85.7071,-48.36 109.017,-9.61917 112.544,-3.75739"/>
</g>
<!-- 197 -->
<g id="node2" class="node"><title>197</title>
<polygon fill="none" stroke="black" points="266,-204 102,-204 102,-40 266,-40 266,-204"/>
<text text-anchor="middle" x="184" y="-125.8" font-family="Times,serif" font-size="14.00">Unknown Templeton</text>
<text text-anchor="middle" x="184" y="-110.8" font-family="Times,serif" font-size="14.00">???&#45;???</text>
</g>
<!-- 197&#45;&gt;197+196 -->
<g id="edge1" class="edge"><title>197&#45;&gt;197+196</title>
<path fill="none" stroke="black" d="M135.076,-39.6891C124.699,-22.4435 116.117,-8.18036 113.688,-4.14417"/>
</g>
</g>
</svg>
