<?xml version="1.0" encoding="UTF-8" standalone="no"?>
<!DOCTYPE svg PUBLIC "-//W3C//DTD SVG 1.1//EN"
 "http://www.w3.org/Graphics/SVG/1.1/DTD/svg11.dtd">
<!-- Generated by graphviz version 2.36.0 (20140111.2315)
 -->
<!-- Title: family Pages: 1 -->
<svg width="590pt" height="574pt"
 viewBox="0.00 0.00 590.00 574.00" xmlns="http://www.w3.org/2000/svg" xmlns:xlink="http://www.w3.org/1999/xlink">
<g id="graph0" class="graph" transform="scale(1 1) rotate(0) translate(4 570)">
<title>family</title>
<polygon fill="white" stroke="none" points="-4,4 -4,-570 586,-570 586,4 -4,4"/>
<!-- 2 -->
<g id="node1" class="node"><title>2</title>
<g id="a_node1"><a xlink:href="http://awoiaf.westeros.org/index.php/Catelyn_Stark" xlink:title="Catelyn Tully\n264&#45;299" target="_blank">
<polygon fill="white" stroke="black" points="227.5,-153 116.5,-153 116.5,-41 227.5,-41 227.5,-153"/>
<text text-anchor="middle" x="172" y="-100.8" font-family="Times,serif" font-size="14.00">Catelyn Tully</text>
<text text-anchor="middle" x="172" y="-85.8" font-family="Times,serif" font-size="14.00">264&#45;299</text>
</a>
</g>
</g>
<!-- 12 -->
<g id="node2" class="node"><title>12</title>
<g id="a_node2"><a xlink:href="http://awoiaf.westeros.org/index.php/Hoster_Tully" xlink:title="Hoster Tully\n237&#45;299" target="_blank">
<polygon fill="white" stroke="black" points="283.5,-342 178.5,-342 178.5,-236 283.5,-236 283.5,-342"/>
<text text-anchor="middle" x="231" y="-292.8" font-family="Times,serif" font-size="14.00">Hoster Tully</text>
<text text-anchor="middle" x="231" y="-277.8" font-family="Times,serif" font-size="14.00">237&#45;299</text>
</a>
</g>
</g>
<!-- 12+13 -->
<g id="node11" class="node"><title>12+13</title>
<ellipse fill="black" stroke="black" cx="363" cy="-192" rx="1.8" ry="1.8"/>
</g>
<!-- 12&#45;&gt;12+13 -->
<g id="edge1" class="edge"><title>12&#45;&gt;12+13</title>
<path fill="none" stroke="black" d="M283.831,-237.67C287.204,-234.991 290.608,-232.412 294,-230 319.256,-212.039 354.257,-196.722 361.611,-193.586"/>
</g>
<!-- 13 -->
<g id="node3" class="node"><title>13</title>
<g id="a_node3"><a xlink:href="http://awoiaf.westeros.org/index.php/Minisa_Whent" xlink:title="Minisa Whent\n250&#45;268" target="_blank">
<polygon fill="white" stroke="black" points="554.25,-347.5 437.75,-347.5 437.75,-230.5 554.25,-230.5 554.25,-347.5"/>
<text text-anchor="middle" x="496" y="-292.8" font-family="Times,serif" font-size="14.00">Minisa Whent</text>
<text text-anchor="middle" x="496" y="-277.8" font-family="Times,serif" font-size="14.00">250&#45;268</text>
</a>
</g>
</g>
<!-- 13&#45;&gt;12+13 -->
<g id="edge2" class="edge"><title>13&#45;&gt;12+13</title>
<path fill="none" stroke="black" d="M437.575,-236.994C434.379,-234.574 431.175,-232.228 428,-230 403.765,-212.995 371.14,-196.931 364.293,-193.621"/>
</g>
<!-- 19 -->
<g id="node4" class="node"><title>19</title>
<g id="a_node4"><a xlink:href="http://awoiaf.westeros.org/index.php/Edmure_Tully" xlink:title="Edmure Tully\n267&#45;" target="_blank">
<polygon fill="white" stroke="black" points="359.25,-153.5 246.75,-153.5 246.75,-40.5 359.25,-40.5 359.25,-153.5"/>
<text text-anchor="middle" x="303" y="-100.8" font-family="Times,serif" font-size="14.00">Edmure Tully</text>
<text text-anchor="middle" x="303" y="-85.8" font-family="Times,serif" font-size="14.00">267&#45;</text>
</a>
</g>
</g>
<!-- 19+21 -->
<g id="node12" class="node"><title>19+21</title>
<ellipse fill="black" stroke="black" cx="176" cy="-2" rx="1.8" ry="1.8"/>
</g>
<!-- 19&#45;&gt;19+21 -->
<g id="edge3" class="edge"><title>19&#45;&gt;19+21</title>
<path fill="none" stroke="black" d="M246.424,-47.7684C242.936,-45.0901 239.444,-42.4815 236,-40 213.759,-23.9741 184.502,-7.66539 177.536,-3.83863"/>
</g>
<!-- 20 -->
<g id="node5" class="node"><title>20</title>
<g id="a_node5"><a xlink:href="http://awoiaf.westeros.org/index.php/Lysa_Arryn" xlink:title="Lysa Tully\n266&#45;300" target="_blank">
<polygon fill="white" stroke="black" points="468,-142 378,-142 378,-52 468,-52 468,-142"/>
<text text-anchor="middle" x="423" y="-100.8" font-family="Times,serif" font-size="14.00">Lysa Tully</text>
<text text-anchor="middle" x="423" y="-85.8" font-family="Times,serif" font-size="14.00">266&#45;300</text>
</a>
</g>
</g>
<!-- 21 -->
<g id="node6" class="node"><title>21</title>
<g id="a_node6"><a xlink:href="http://awoiaf.westeros.org/index.php/Roslin_Frey" xlink:title="Roslin Frey\n282&#45;" target="_blank">
<polygon fill="white" stroke="black" points="97.5,-146 0.5,-146 0.5,-48 97.5,-48 97.5,-146"/>
<text text-anchor="middle" x="49" y="-100.8" font-family="Times,serif" font-size="14.00">Roslin Frey</text>
<text text-anchor="middle" x="49" y="-85.8" font-family="Times,serif" font-size="14.00">282&#45;</text>
</a>
</g>
</g>
<!-- 21&#45;&gt;19+21 -->
<g id="edge4" class="edge"><title>21&#45;&gt;19+21</title>
<path fill="none" stroke="black" d="M96.8643,-47.9113C100.213,-45.1372 103.607,-42.474 107,-40 132.041,-21.7407 167.209,-6.6569 174.603,-3.57575"/>
</g>
<!-- 105 -->
<g id="node7" class="node"><title>105</title>
<polygon fill="white" stroke="black" points="282.5,-557 159.5,-557 159.5,-433 282.5,-433 282.5,-557"/>
<text text-anchor="middle" x="221" y="-498.8" font-family="Times,serif" font-size="14.00">Unknown Tully</text>
<text text-anchor="middle" x="221" y="-483.8" font-family="Times,serif" font-size="14.00">???&#45;???</text>
</g>
<!-- 105+106 -->
<g id="node13" class="node"><title>105+106</title>
<ellipse fill="black" stroke="black" cx="296" cy="-386" rx="1.8" ry="1.8"/>
</g>
<!-- 105&#45;&gt;105+106 -->
<g id="edge5" class="edge"><title>105&#45;&gt;105+106</title>
<path fill="none" stroke="black" d="M263.758,-432.999C278.495,-411.973 292.128,-392.525 295.305,-387.991"/>
</g>
<!-- 106 -->
<g id="node8" class="node"><title>106</title>
<polygon fill="white" stroke="black" points="443,-566 301,-566 301,-424 443,-424 443,-566"/>
<text text-anchor="middle" x="372" y="-498.8" font-family="Times,serif" font-size="14.00">Unknown Woman</text>
<text text-anchor="middle" x="372" y="-483.8" font-family="Times,serif" font-size="14.00">???&#45;???</text>
</g>
<!-- 106&#45;&gt;105+106 -->
<g id="edge6" class="edge"><title>106&#45;&gt;105+106</title>
<path fill="none" stroke="black" d="M322.155,-423.823C309.62,-406.176 298.996,-391.219 296.536,-387.755"/>
</g>
<!-- 107 -->
<g id="node9" class="node"><title>107</title>
<g id="a_node9"><a xlink:href="http://awoiaf.westeros.org/index.php/Brynden_Tully" xlink:title="Brynden Tully\n242&#45;" target="_blank">
<polygon fill="white" stroke="black" points="419.25,-347.5 302.75,-347.5 302.75,-230.5 419.25,-230.5 419.25,-347.5"/>
<text text-anchor="middle" x="361" y="-292.8" font-family="Times,serif" font-size="14.00">Brynden Tully</text>
<text text-anchor="middle" x="361" y="-277.8" font-family="Times,serif" font-size="14.00">242&#45;</text>
</a>
</g>
</g>
<!-- 108 -->
<g id="node10" class="node"><title>108</title>
<polygon fill="white" stroke="black" points="582,-145 486,-145 486,-49 582,-49 582,-145"/>
<text text-anchor="middle" x="534" y="-100.8" font-family="Times,serif" font-size="14.00">Three Sons</text>
<text text-anchor="middle" x="534" y="-85.8" font-family="Times,serif" font-size="14.00">???&#45;???</text>
</g>
<!-- 12+13&#45;&gt;2 -->
<g id="edge7" class="edge"><title>12+13&#45;&gt;2</title>
<path fill="none" stroke="black" d="M361.407,-190.792C350.328,-189.297 283.859,-179.501 237,-154 233.86,-152.291 230.737,-150.411 227.657,-148.405"/>
</g>
<!-- 12+13&#45;&gt;19 -->
<g id="edge9" class="edge"><title>12+13&#45;&gt;19</title>
<path fill="none" stroke="black" d="M362.326,-189.956C359.713,-185.905 349.845,-170.61 338.887,-153.626"/>
</g>
<!-- 12+13&#45;&gt;20 -->
<g id="edge10" class="edge"><title>12+13&#45;&gt;20</title>
<path fill="none" stroke="black" d="M363.674,-189.956C366.867,-185.007 380.886,-163.277 394.494,-142.185"/>
</g>
<!-- 12+13&#45;&gt;108 -->
<g id="edge12" class="edge"><title>12+13&#45;&gt;108</title>
<path fill="none" stroke="black" d="M364.459,-190.787C374.596,-189.254 435.368,-179.25 477,-154 481.27,-151.41 485.466,-148.441 489.525,-145.251"/>
</g>
<!-- 105+106&#45;&gt;12 -->
<g id="edge8" class="edge"><title>105+106&#45;&gt;12</title>
<path fill="none" stroke="black" d="M295.27,-383.933C292.188,-379.428 279.792,-361.311 266.697,-342.173"/>
</g>
<!-- 105+106&#45;&gt;107 -->
<g id="edge11" class="edge"><title>105+106&#45;&gt;107</title>
<path fill="none" stroke="black" d="M296.73,-383.933C299.519,-379.856 309.937,-364.631 321.596,-347.59"/>
</g>
</g>
</svg>
