<?xml version="1.0" encoding="UTF-8" standalone="no"?>
<!DOCTYPE svg PUBLIC "-//W3C//DTD SVG 1.1//EN"
 "http://www.w3.org/Graphics/SVG/1.1/DTD/svg11.dtd">
<!-- Generated by graphviz version 2.36.0 (20140111.2315)
 -->
<!-- Title: family Pages: 1 -->
<svg width="634pt" height="600pt"
 viewBox="0.00 0.00 634.00 600.00" xmlns="http://www.w3.org/2000/svg" xmlns:xlink="http://www.w3.org/1999/xlink">
<g id="graph0" class="graph" transform="scale(1 1) rotate(0) translate(4 596)">
<title>family</title>
<polygon fill="white" stroke="none" points="-4,4 -4,-596 630,-596 630,4 -4,4"/>
<!-- 2 -->
<g id="node1" class="node"><title>2</title>
<g id="a_node1"><a xlink:href="/character/display?id=Catelyn_Stark" xlink:title="Catelyn Tully" target="_blank">
<polygon fill="white" stroke="black" points="245.25,-161.5 124.75,-161.5 124.75,-40.5 245.25,-40.5 245.25,-161.5"/>
</a>
</g>
<g id="a_node1_0"><a xlink:href="http://awoiaf.westeros.org/index.php/Catelyn_Stark" xlink:title="Catelyn Tully" target="_blank">
<text text-anchor="start" x="137.5" y="-104.3" font-family="Times,serif" font-size="14.00">Catelyn Tully</text>
<text text-anchor="start" x="156" y="-89.3" font-family="Times,serif" font-size="14.00">264&#45;299</text>
</a>
</g>
<g><a xlink:href="/character/display?id=Catelyn_Stark" xlink:title="Catelyn Tully" target="_blank">
</a>
</g>
</g>
<!-- 12 -->
<g id="node2" class="node"><title>12</title>
<g id="a_node2"><a xlink:href="/character/display?id=Hoster_Tully" xlink:title="Hoster Tully" target="_blank">
<polygon fill="white" stroke="black" points="305.25,-358.5 190.75,-358.5 190.75,-243.5 305.25,-243.5 305.25,-358.5"/>
</a>
</g>
<g id="a_node2_1"><a xlink:href="http://awoiaf.westeros.org/index.php/Hoster_Tully" xlink:title="Hoster Tully" target="_blank">
<text text-anchor="start" x="203.5" y="-304.3" font-family="Times,serif" font-size="14.00">Hoster Tully</text>
<text text-anchor="start" x="219" y="-289.3" font-family="Times,serif" font-size="14.00">237&#45;299</text>
</a>
</g>
<g><a xlink:href="/character/display?id=Hoster_Tully" xlink:title="Hoster Tully" target="_blank">
</a>
</g>
</g>
<!-- 12+13 -->
<g id="node11" class="node"><title>12+13</title>
<ellipse fill="black" stroke="black" cx="389" cy="-200" rx="1.8" ry="1.8"/>
</g>
<!-- 12&#45;&gt;12+13 -->
<g id="edge1" class="edge"><title>12&#45;&gt;12+13</title>
<path fill="none" stroke="black" d="M305.637,-244.864C308.741,-242.467 311.872,-240.164 315,-238 341.933,-219.369 379.589,-204.576 387.504,-201.562"/>
</g>
<!-- 13 -->
<g id="node3" class="node"><title>13</title>
<g id="a_node3"><a xlink:href="/character/display?id=Minisa_Whent" xlink:title="Minisa Whent" target="_blank">
<polygon fill="white" stroke="black" points="594,-364 468,-364 468,-238 594,-238 594,-364"/>
</a>
</g>
<g id="a_node3_2"><a xlink:href="http://awoiaf.westeros.org/index.php/Minisa_Whent" xlink:title="Minisa Whent" target="_blank">
<text text-anchor="start" x="480.5" y="-304.3" font-family="Times,serif" font-size="14.00">Minisa Whent</text>
<text text-anchor="start" x="501.5" y="-289.3" font-family="Times,serif" font-size="14.00">250&#45;268</text>
</a>
</g>
<g><a xlink:href="/character/display?id=Minisa_Whent" xlink:title="Minisa Whent" target="_blank">
</a>
</g>
</g>
<!-- 13&#45;&gt;12+13 -->
<g id="edge2" class="edge"><title>13&#45;&gt;12+13</title>
<path fill="none" stroke="black" d="M467.609,-244.118C464.739,-242.001 461.862,-239.952 459,-238 433.108,-220.34 397.811,-204.788 390.4,-201.597"/>
</g>
<!-- 19 -->
<g id="node4" class="node"><title>19</title>
<g id="a_node4"><a xlink:href="/character/display?id=Edmure_Tully" xlink:title="Edmure Tully" target="_blank">
<polygon fill="white" stroke="black" points="386,-162 264,-162 264,-40 386,-40 386,-162"/>
</a>
</g>
<g id="a_node4_3"><a xlink:href="http://awoiaf.westeros.org/index.php/Edmure_Tully" xlink:title="Edmure Tully" target="_blank">
<text text-anchor="start" x="276.5" y="-104.3" font-family="Times,serif" font-size="14.00">Edmure Tully</text>
<text text-anchor="start" x="309" y="-89.3" font-family="Times,serif" font-size="14.00">267&#45;</text>
</a>
</g>
<g><a xlink:href="/character/display?id=Edmure_Tully" xlink:title="Edmure Tully" target="_blank">
</a>
</g>
</g>
<!-- 19+21 -->
<g id="node12" class="node"><title>19+21</title>
<ellipse fill="black" stroke="black" cx="189" cy="-2" rx="1.8" ry="1.8"/>
</g>
<!-- 19&#45;&gt;19+21 -->
<g id="edge3" class="edge"><title>19&#45;&gt;19+21</title>
<path fill="none" stroke="black" d="M263.979,-47.247C260.647,-44.7407 257.308,-42.3098 254,-40 229.726,-23.0507 197.131,-6.94346 190.292,-3.62277"/>
</g>
<!-- 20 -->
<g id="node5" class="node"><title>20</title>
<g id="a_node5"><a xlink:href="/character/display?id=Lysa_Arryn" xlink:title="Lysa Tully" target="_blank">
<polygon fill="white" stroke="black" points="503.25,-150.5 404.75,-150.5 404.75,-51.5 503.25,-51.5 503.25,-150.5"/>
</a>
</g>
<g id="a_node5_4"><a xlink:href="http://awoiaf.westeros.org/index.php/Lysa_Arryn" xlink:title="Lysa Tully" target="_blank">
<text text-anchor="start" x="417.5" y="-104.3" font-family="Times,serif" font-size="14.00">Lysa Tully</text>
<text text-anchor="start" x="425" y="-89.3" font-family="Times,serif" font-size="14.00">266&#45;300</text>
</a>
</g>
<g><a xlink:href="/character/display?id=Lysa_Arryn" xlink:title="Lysa Tully" target="_blank">
</a>
</g>
</g>
<!-- 21 -->
<g id="node6" class="node"><title>21</title>
<g id="a_node6"><a xlink:href="/character/display?id=Roslin_Frey" xlink:title="Roslin Frey" target="_blank">
<polygon fill="white" stroke="black" points="106.25,-154.5 -0.25,-154.5 -0.25,-47.5 106.25,-47.5 106.25,-154.5"/>
</a>
</g>
<g id="a_node6_5"><a xlink:href="http://awoiaf.westeros.org/index.php/Roslin_Frey" xlink:title="Roslin Frey" target="_blank">
<text text-anchor="start" x="12.5" y="-104.3" font-family="Times,serif" font-size="14.00">Roslin Frey</text>
<text text-anchor="start" x="37.5" y="-89.3" font-family="Times,serif" font-size="14.00">282&#45;</text>
</a>
</g>
<g><a xlink:href="/character/display?id=Roslin_Frey" xlink:title="Roslin Frey" target="_blank">
</a>
</g>
</g>
<!-- 21&#45;&gt;19+21 -->
<g id="edge4" class="edge"><title>21&#45;&gt;19+21</title>
<path fill="none" stroke="black" d="M105.154,-47.4735C108.406,-44.8499 111.7,-42.3378 115,-40 141.723,-21.0697 179.544,-6.51011 187.497,-3.55167"/>
</g>
<!-- 105 -->
<g id="node7" class="node"><title>105</title>
<g id="a_node7"><a xlink:title="Unknown Tully" target="_blank">
<polygon fill="white" stroke="black" points="303.25,-582.5 170.75,-582.5 170.75,-449.5 303.25,-449.5 303.25,-582.5"/>
<text text-anchor="start" x="183.5" y="-519.3" font-family="Times,serif" font-size="14.00">Unknown Tully</text>
<text text-anchor="start" x="212.5" y="-504.3" font-family="Times,serif" font-size="14.00">???&#45;???</text>
</a>
</g>
</g>
<!-- 105+106 -->
<g id="node13" class="node"><title>105+106</title>
<ellipse fill="black" stroke="black" cx="317" cy="-402" rx="1.8" ry="1.8"/>
</g>
<!-- 105&#45;&gt;105+106 -->
<g id="edge5" class="edge"><title>105&#45;&gt;105+106</title>
<path fill="none" stroke="black" d="M283.999,-449.201C299.236,-427.869 313.075,-408.495 316.296,-403.985"/>
</g>
<!-- 106 -->
<g id="node8" class="node"><title>106</title>
<g id="a_node8"><a xlink:title="Unknown Woman" target="_blank">
<polygon fill="white" stroke="black" points="472.25,-591.5 321.75,-591.5 321.75,-440.5 472.25,-440.5 472.25,-591.5"/>
<text text-anchor="start" x="334.5" y="-519.3" font-family="Times,serif" font-size="14.00">Unknown Woman</text>
<text text-anchor="start" x="372.5" y="-504.3" font-family="Times,serif" font-size="14.00">???&#45;???</text>
</a>
</g>
</g>
<!-- 106&#45;&gt;105+106 -->
<g id="edge6" class="edge"><title>106&#45;&gt;105+106</title>
<path fill="none" stroke="black" d="M343.639,-440.294C330.798,-422.318 320.033,-407.247 317.543,-403.76"/>
</g>
<!-- 107 -->
<g id="node9" class="node"><title>107</title>
<g id="a_node9"><a xlink:href="/character/display?id=Brynden_Tully" xlink:title="Brynden Tully" target="_blank">
<polygon fill="white" stroke="black" points="450,-364 324,-364 324,-238 450,-238 450,-364"/>
</a>
</g>
<g id="a_node9_8"><a xlink:href="http://awoiaf.westeros.org/index.php/Brynden_Tully" xlink:title="Brynden Tully" target="_blank">
<text text-anchor="start" x="336.5" y="-304.3" font-family="Times,serif" font-size="14.00">Brynden Tully</text>
<text text-anchor="start" x="371" y="-289.3" font-family="Times,serif" font-size="14.00">242&#45;</text>
</a>
</g>
<g><a xlink:href="/character/display?id=Brynden_Tully" xlink:title="Brynden Tully" target="_blank">
</a>
</g>
</g>
<!-- 108 -->
<g id="node10" class="node"><title>108</title>
<g id="a_node10"><a xlink:title="Three Sons" target="_blank">
<polygon fill="white" stroke="black" points="626.25,-153.5 521.75,-153.5 521.75,-48.5 626.25,-48.5 626.25,-153.5"/>
<text text-anchor="start" x="534.5" y="-104.3" font-family="Times,serif" font-size="14.00">Three Sons</text>
<text text-anchor="start" x="549.5" y="-89.3" font-family="Times,serif" font-size="14.00">???&#45;???</text>
</a>
</g>
</g>
<!-- 12+13&#45;&gt;2 -->
<g id="edge7" class="edge"><title>12+13&#45;&gt;2</title>
<path fill="none" stroke="black" d="M387.595,-198.848C376.737,-197.625 305.282,-188.756 255,-162 251.75,-160.271 248.519,-158.368 245.33,-156.336"/>
</g>
<!-- 12+13&#45;&gt;19 -->
<g id="edge9" class="edge"><title>12+13&#45;&gt;19</title>
<path fill="none" stroke="black" d="M388.281,-197.911C385.603,-193.852 375.786,-178.973 364.656,-162.104"/>
</g>
<!-- 12+13&#45;&gt;20 -->
<g id="edge10" class="edge"><title>12+13&#45;&gt;20</title>
<path fill="none" stroke="black" d="M389.73,-197.911C393.049,-192.957 407.17,-171.884 421.333,-150.749"/>
</g>
<!-- 12+13&#45;&gt;108 -->
<g id="edge12" class="edge"><title>12+13&#45;&gt;108</title>
<path fill="none" stroke="black" d="M390.572,-198.812C401.497,-197.452 466.994,-188.406 512,-162 516.263,-159.499 520.458,-156.645 524.53,-153.572"/>
</g>
<!-- 105+106&#45;&gt;12 -->
<g id="edge8" class="edge"><title>105+106&#45;&gt;12</title>
<path fill="none" stroke="black" d="M316.225,-399.888C313.071,-395.363 300.734,-377.662 287.4,-358.53"/>
</g>
<!-- 105+106&#45;&gt;107 -->
<g id="edge11" class="edge"><title>105+106&#45;&gt;107</title>
<path fill="none" stroke="black" d="M317.786,-399.888C320.67,-395.81 331.124,-381.024 343.065,-364.136"/>
</g>
</g>
</svg>
