<?xml version="1.0" encoding="UTF-8" standalone="no"?>
<!DOCTYPE svg PUBLIC "-//W3C//DTD SVG 1.1//EN"
 "http://www.w3.org/Graphics/SVG/1.1/DTD/svg11.dtd">
<!-- Generated by graphviz version 2.36.0 (20140111.2315)
 -->
<!-- Title: family Pages: 1 -->
<svg width="476pt" height="356pt"
 viewBox="0.00 0.00 476.00 356.00" xmlns="http://www.w3.org/2000/svg" xmlns:xlink="http://www.w3.org/1999/xlink">
<g id="graph0" class="graph" transform="scale(1 1) rotate(0) translate(4 352)">
<title>family</title>
<polygon fill="white" stroke="none" points="-4,4 -4,-352 472,-352 472,4 -4,4"/>
<!-- 2 -->
<g id="node1" class="node"><title>2</title>
<g id="a_node1"><a xlink:href="http://awoiaf.westeros.org/index.php/Catelyn_Stark" xlink:title="Catelyn Tully\n264&#45;299" target="_blank">
<polygon fill="none" stroke="black" points="227.5,-153 116.5,-153 116.5,-41 227.5,-41 227.5,-153"/>
<text text-anchor="middle" x="172" y="-100.8" font-family="Times,serif" font-size="14.00">Catelyn Tully</text>
<text text-anchor="middle" x="172" y="-85.8" font-family="Times,serif" font-size="14.00">264&#45;299</text>
</a>
</g>
</g>
<!-- 12 -->
<g id="node2" class="node"><title>12</title>
<g id="a_node2"><a xlink:href="http://awoiaf.westeros.org/index.php/Hoster_Tully" xlink:title="Hoster Tully\n237&#45;299" target="_blank">
<polygon fill="none" stroke="black" points="290.5,-342 185.5,-342 185.5,-236 290.5,-236 290.5,-342"/>
<text text-anchor="middle" x="238" y="-292.8" font-family="Times,serif" font-size="14.00">Hoster Tully</text>
<text text-anchor="middle" x="238" y="-277.8" font-family="Times,serif" font-size="14.00">237&#45;299</text>
</a>
</g>
</g>
<!-- 12+13 -->
<g id="node7" class="node"><title>12+13</title>
<ellipse fill="black" stroke="black" cx="303" cy="-192" rx="1.8" ry="1.8"/>
</g>
<!-- 12&#45;&gt;12+13 -->
<g id="edge1" class="edge"><title>12&#45;&gt;12+13</title>
<path fill="none" stroke="black" d="M273.733,-235.776C286.949,-216.46 299.444,-198.197 302.362,-193.933"/>
</g>
<!-- 13 -->
<g id="node3" class="node"><title>13</title>
<g id="a_node3"><a xlink:href="http://awoiaf.westeros.org/index.php/Minisa_Whent" xlink:title="Minisa Whent\n250&#45;268" target="_blank">
<polygon fill="none" stroke="black" points="426.25,-347.5 309.75,-347.5 309.75,-230.5 426.25,-230.5 426.25,-347.5"/>
<text text-anchor="middle" x="368" y="-292.8" font-family="Times,serif" font-size="14.00">Minisa Whent</text>
<text text-anchor="middle" x="368" y="-277.8" font-family="Times,serif" font-size="14.00">250&#45;268</text>
</a>
</g>
</g>
<!-- 13&#45;&gt;12+13 -->
<g id="edge2" class="edge"><title>13&#45;&gt;12+13</title>
<path fill="none" stroke="black" d="M328.503,-230.274C316.594,-212.868 306,-197.384 303.538,-193.786"/>
</g>
<!-- 19 -->
<g id="node4" class="node"><title>19</title>
<g id="a_node4"><a xlink:href="http://awoiaf.westeros.org/index.php/Edmure_Tully" xlink:title="Edmure Tully\n267&#45;" target="_blank">
<polygon fill="none" stroke="black" points="359.25,-153.5 246.75,-153.5 246.75,-40.5 359.25,-40.5 359.25,-153.5"/>
<text text-anchor="middle" x="303" y="-100.8" font-family="Times,serif" font-size="14.00">Edmure Tully</text>
<text text-anchor="middle" x="303" y="-85.8" font-family="Times,serif" font-size="14.00">267&#45;</text>
</a>
</g>
</g>
<!-- 19+21 -->
<g id="node8" class="node"><title>19+21</title>
<ellipse fill="black" stroke="black" cx="176" cy="-2" rx="1.8" ry="1.8"/>
</g>
<!-- 19&#45;&gt;19+21 -->
<g id="edge3" class="edge"><title>19&#45;&gt;19+21</title>
<path fill="none" stroke="black" d="M246.424,-47.7684C242.936,-45.0901 239.444,-42.4815 236,-40 213.759,-23.9741 184.502,-7.66539 177.536,-3.83863"/>
</g>
<!-- 20 -->
<g id="node5" class="node"><title>20</title>
<g id="a_node5"><a xlink:href="http://awoiaf.westeros.org/index.php/Lysa_Arryn" xlink:title="Lysa Tully\n266&#45;300" target="_blank">
<polygon fill="none" stroke="black" points="468,-142 378,-142 378,-52 468,-52 468,-142"/>
<text text-anchor="middle" x="423" y="-100.8" font-family="Times,serif" font-size="14.00">Lysa Tully</text>
<text text-anchor="middle" x="423" y="-85.8" font-family="Times,serif" font-size="14.00">266&#45;300</text>
</a>
</g>
</g>
<!-- 21 -->
<g id="node6" class="node"><title>21</title>
<g id="a_node6"><a xlink:href="http://awoiaf.westeros.org/index.php/Roslin_Frey" xlink:title="Roslin Frey\n282&#45;" target="_blank">
<polygon fill="none" stroke="black" points="97.5,-146 0.5,-146 0.5,-48 97.5,-48 97.5,-146"/>
<text text-anchor="middle" x="49" y="-100.8" font-family="Times,serif" font-size="14.00">Roslin Frey</text>
<text text-anchor="middle" x="49" y="-85.8" font-family="Times,serif" font-size="14.00">282&#45;</text>
</a>
</g>
</g>
<!-- 21&#45;&gt;19+21 -->
<g id="edge4" class="edge"><title>21&#45;&gt;19+21</title>
<path fill="none" stroke="black" d="M96.8643,-47.9113C100.213,-45.1372 103.607,-42.474 107,-40 132.041,-21.7407 167.209,-6.6569 174.603,-3.57575"/>
</g>
<!-- 12+13&#45;&gt;2 -->
<g id="edge5" class="edge"><title>12+13&#45;&gt;2</title>
<path fill="none" stroke="black" d="M301.708,-190.378C294.865,-187.062 262.257,-170.973 238,-154 234.553,-151.588 231.07,-149.033 227.6,-146.396"/>
</g>
<!-- 12+13&#45;&gt;19 -->
<g id="edge6" class="edge"><title>12+13&#45;&gt;19</title>
<path fill="none" stroke="black" d="M303,-189.956C303,-185.905 303,-170.61 303,-153.626"/>
</g>
<!-- 12+13&#45;&gt;20 -->
<g id="edge7" class="edge"><title>12+13&#45;&gt;20</title>
<path fill="none" stroke="black" d="M304.321,-190.417C311.309,-187.299 344.538,-172.057 368,-154 372.752,-150.343 377.495,-146.289 382.092,-142.082"/>
</g>
</g>
</svg>
