<?xml version="1.0" encoding="UTF-8" standalone="no"?>
<!DOCTYPE svg PUBLIC "-//W3C//DTD SVG 1.1//EN"
 "http://www.w3.org/Graphics/SVG/1.1/DTD/svg11.dtd">
<!-- Generated by graphviz version 2.36.0 (20140111.2315)
 -->
<!-- Title: family Pages: 1 -->
<svg width="733pt" height="660pt"
 viewBox="0.00 0.00 733.00 660.00" xmlns="http://www.w3.org/2000/svg" xmlns:xlink="http://www.w3.org/1999/xlink">
<g id="graph0" class="graph" transform="scale(1 1) rotate(0) translate(4 656)">
<title>family</title>
<polygon fill="white" stroke="none" points="-4,4 -4,-656 729,-656 729,4 -4,4"/>
<!-- 89 -->
<g id="node1" class="node"><title>89</title>
<g id="a_node1"><a xlink:href="/character/display?id=Luthor_Tyrell" xlink:title="Luthor Tyrell" target="_blank">
<polygon fill="white" stroke="black" points="180.5,-639 61.5,-639 61.5,-519 180.5,-519 180.5,-639"/>
</a>
</g>
<g id="a_node1_0"><a xlink:href="http://awoiaf.westeros.org/index.php/Luthor_Tyrell" xlink:title="Luthor Tyrell" target="_blank">
<text text-anchor="start" x="73.5" y="-582.3" font-family="Times,serif" font-size="14.00">Luthor Tyrell</text>
<text text-anchor="start" x="96" y="-567.3" font-family="Times,serif" font-size="14.00">???&#45;???</text>
</a>
</g>
<g><a xlink:href="/character/display?id=Luthor_Tyrell" xlink:title="Luthor Tyrell" target="_blank">
</a>
</g>
</g>
<!-- 89+90 -->
<g id="node12" class="node"><title>89+90</title>
<ellipse fill="black" stroke="black" cx="196" cy="-468" rx="1.8" ry="1.8"/>
</g>
<!-- 89&#45;&gt;89+90 -->
<g id="edge1" class="edge"><title>89&#45;&gt;89+90</title>
<path fill="none" stroke="black" d="M161.792,-518.715C177.184,-496.346 191.831,-475.06 195.252,-470.088"/>
</g>
<!-- 90 -->
<g id="node2" class="node"><title>90</title>
<g id="a_node2"><a xlink:href="/character/display?id=Olenna_Redwyne" xlink:title="Olenna Redwyne" target="_blank">
<polygon fill="white" stroke="black" points="345,-652 199,-652 199,-506 345,-506 345,-652"/>
</a>
</g>
<g id="a_node2_1"><a xlink:href="http://awoiaf.westeros.org/index.php/Olenna_Redwyne" xlink:title="Olenna Redwyne" target="_blank">
<text text-anchor="start" x="211.5" y="-582.3" font-family="Times,serif" font-size="14.00">Olenna Redwyne</text>
<text text-anchor="start" x="256" y="-567.3" font-family="Times,serif" font-size="14.00">228&#45;</text>
</a>
</g>
<g><a xlink:href="/character/display?id=Olenna_Redwyne" xlink:title="Olenna Redwyne" target="_blank">
</a>
</g>
</g>
<!-- 90&#45;&gt;89+90 -->
<g id="edge2" class="edge"><title>90&#45;&gt;89+90</title>
<path fill="none" stroke="black" d="M221.73,-505.902C209.363,-488.166 198.939,-473.215 196.526,-469.754"/>
</g>
<!-- 91 -->
<g id="node3" class="node"><title>91</title>
<g id="a_node3"><a xlink:href="/character/display?id=Mace_Tyrell" xlink:title="Mace Tyrell" target="_blank">
<polygon fill="white" stroke="black" points="121.25,-410.5 10.75,-410.5 10.75,-299.5 121.25,-299.5 121.25,-410.5"/>
</a>
</g>
<g id="a_node3_2"><a xlink:href="http://awoiaf.westeros.org/index.php/Mace_Tyrell" xlink:title="Mace Tyrell" target="_blank">
<text text-anchor="start" x="23.5" y="-358.3" font-family="Times,serif" font-size="14.00">Mace Tyrell</text>
<text text-anchor="start" x="50.5" y="-343.3" font-family="Times,serif" font-size="14.00">256&#45;</text>
</a>
</g>
<g><a xlink:href="/character/display?id=Mace_Tyrell" xlink:title="Mace Tyrell" target="_blank">
</a>
</g>
</g>
<!-- 91+92 -->
<g id="node13" class="node"><title>91+92</title>
<ellipse fill="black" stroke="black" cx="268" cy="-242" rx="1.8" ry="1.8"/>
</g>
<!-- 91&#45;&gt;91+92 -->
<g id="edge3" class="edge"><title>91&#45;&gt;91+92</title>
<path fill="none" stroke="black" d="M107.019,-299.454C114.367,-292.138 122.436,-285.333 131,-280 180.357,-249.267 255.142,-243.753 266.526,-243.079"/>
</g>
<!-- 92 -->
<g id="node4" class="node"><title>92</title>
<g id="a_node4"><a xlink:href="/character/display?id=Alerie_Hightower" xlink:title="Alerie Hightower" target="_blank">
<polygon fill="white" stroke="black" points="545.25,-429.5 396.75,-429.5 396.75,-280.5 545.25,-280.5 545.25,-429.5"/>
</a>
</g>
<g id="a_node4_3"><a xlink:href="http://awoiaf.westeros.org/index.php/Alerie_Hightower" xlink:title="Alerie Hightower" target="_blank">
<text text-anchor="start" x="409.5" y="-358.3" font-family="Times,serif" font-size="14.00">Alerie Hightower</text>
<text text-anchor="start" x="455.5" y="-343.3" font-family="Times,serif" font-size="14.00">257&#45;</text>
</a>
</g>
<g><a xlink:href="/character/display?id=Alerie_Hightower" xlink:title="Alerie Hightower" target="_blank">
</a>
</g>
</g>
<!-- 92&#45;&gt;91+92 -->
<g id="edge4" class="edge"><title>92&#45;&gt;91+92</title>
<path fill="none" stroke="black" d="M396.597,-285.813C393.424,-283.756 390.219,-281.809 387,-280 342.861,-255.205 279.988,-244.824 269.508,-243.223"/>
</g>
<!-- 93 -->
<g id="node5" class="node"><title>93</title>
<g id="a_node5"><a xlink:href="/character/display?id=Willas_Tyrell" xlink:title="Willas Tyrell" target="_blank">
<polygon fill="white" stroke="black" points="115.5,-180 0.5,-180 0.5,-64 115.5,-64 115.5,-180"/>
</a>
</g>
<g id="a_node5_4"><a xlink:href="http://awoiaf.westeros.org/index.php/Willas_Tyrell" xlink:title="Willas Tyrell" target="_blank">
<text text-anchor="start" x="12.5" y="-125.3" font-family="Times,serif" font-size="14.00">Willas Tyrell</text>
<text text-anchor="start" x="42" y="-110.3" font-family="Times,serif" font-size="14.00">270&#45;</text>
</a>
</g>
<g><a xlink:href="/character/display?id=Willas_Tyrell" xlink:title="Willas Tyrell" target="_blank">
</a>
</g>
</g>
<!-- 94 -->
<g id="node6" class="node"><title>94</title>
<g id="a_node6"><a xlink:href="/character/display?id=Garlan_Tyrell" xlink:title="Garlan Tyrell" target="_blank">
<polygon fill="white" stroke="black" points="253.25,-181.5 134.75,-181.5 134.75,-62.5 253.25,-62.5 253.25,-181.5"/>
</a>
</g>
<g id="a_node6_5"><a xlink:href="http://awoiaf.westeros.org/index.php/Garlan_Tyrell" xlink:title="Garlan Tyrell" target="_blank">
<text text-anchor="start" x="147.5" y="-125.3" font-family="Times,serif" font-size="14.00">Garlan Tyrell</text>
<text text-anchor="start" x="178.5" y="-110.3" font-family="Times,serif" font-size="14.00">277&#45;</text>
</a>
</g>
<g><a xlink:href="/character/display?id=Garlan_Tyrell" xlink:title="Garlan Tyrell" target="_blank">
</a>
</g>
</g>
<!-- 94+95 -->
<g id="node14" class="node"><title>94+95</title>
<ellipse fill="black" stroke="black" cx="419" cy="-2" rx="1.8" ry="1.8"/>
</g>
<!-- 94&#45;&gt;94+95 -->
<g id="edge5" class="edge"><title>94&#45;&gt;94+95</title>
<path fill="none" stroke="black" d="M235.987,-62.2497C244.145,-53.8103 253.23,-45.9772 263,-40 319.035,-5.71784 404.333,-3.19883 417.318,-3.01448"/>
</g>
<!-- 95 -->
<g id="node7" class="node"><title>95</title>
<g id="a_node7"><a xlink:href="/character/display?id=Leonette Fossoway" xlink:title="Leonette Fossoway" target="_blank">
<polygon fill="white" stroke="black" points="725.25,-203.5 562.75,-203.5 562.75,-40.5 725.25,-40.5 725.25,-203.5"/>
</a>
</g>
<g id="a_node7_6"><a xlink:href="http://awoiaf.westeros.org/index.php/Leonette Fossoway" xlink:title="Leonette Fossoway" target="_blank">
<text text-anchor="start" x="575.5" y="-125.3" font-family="Times,serif" font-size="14.00">Leonette Fossoway</text>
<text text-anchor="start" x="630.5" y="-110.3" font-family="Times,serif" font-size="14.00">???&#45;</text>
</a>
</g>
<g><a xlink:href="/character/display?id=Leonette Fossoway" xlink:title="Leonette Fossoway" target="_blank">
</a>
</g>
</g>
<!-- 95&#45;&gt;94+95 -->
<g id="edge6" class="edge"><title>95&#45;&gt;94+95</title>
<path fill="none" stroke="black" d="M562.585,-46.2256C559.089,-44.0131 555.555,-41.9265 552,-40 502.27,-13.0506 431.199,-4.34457 420.398,-3.14875"/>
</g>
<!-- 96 -->
<g id="node8" class="node"><title>96</title>
<g id="a_node8"><a xlink:href="/character/display?id=Margaery_Tyrell" xlink:title="Margaery Tyrell" target="_blank">
<polygon fill="white" stroke="black" points="414,-193 272,-193 272,-51 414,-51 414,-193"/>
</a>
</g>
<g id="a_node8_7"><a xlink:href="http://awoiaf.westeros.org/index.php/Margaery_Tyrell" xlink:title="Margaery Tyrell" target="_blank">
<text text-anchor="start" x="284.5" y="-125.3" font-family="Times,serif" font-size="14.00">Margaery Tyrell</text>
<text text-anchor="start" x="327" y="-110.3" font-family="Times,serif" font-size="14.00">283&#45;</text>
</a>
</g>
<g><a xlink:href="/character/display?id=Margaery_Tyrell" xlink:title="Margaery Tyrell" target="_blank">
</a>
</g>
</g>
<!-- 97 -->
<g id="node9" class="node"><title>97</title>
<g id="a_node9"><a xlink:href="/character/display?id=Loras_Tyrell" xlink:title="Loras Tyrell" target="_blank">
<polygon fill="white" stroke="black" points="543.5,-178 432.5,-178 432.5,-66 543.5,-66 543.5,-178"/>
</a>
</g>
<g id="a_node9_8"><a xlink:href="http://awoiaf.westeros.org/index.php/Loras_Tyrell" xlink:title="Loras Tyrell" target="_blank">
<text text-anchor="start" x="444.5" y="-125.3" font-family="Times,serif" font-size="14.00">Loras Tyrell</text>
<text text-anchor="start" x="472" y="-110.3" font-family="Times,serif" font-size="14.00">282&#45;</text>
</a>
</g>
<g><a xlink:href="/character/display?id=Loras_Tyrell" xlink:title="Loras Tyrell" target="_blank">
</a>
</g>
</g>
<!-- 98 -->
<g id="node10" class="node"><title>98</title>
<g id="a_node10"><a xlink:href="/character/display?id=Janna_Tyrell" xlink:title="Janna Tyrell" target="_blank">
<polygon fill="white" stroke="black" points="251.5,-411 140.5,-411 140.5,-299 251.5,-299 251.5,-411"/>
</a>
</g>
<g id="a_node10_9"><a xlink:href="http://awoiaf.westeros.org/index.php/Janna_Tyrell" xlink:title="Janna Tyrell" target="_blank">
<text text-anchor="start" x="152.5" y="-358.3" font-family="Times,serif" font-size="14.00">Janna Tyrell</text>
<text text-anchor="start" x="182" y="-343.3" font-family="Times,serif" font-size="14.00">???&#45;</text>
</a>
</g>
<g><a xlink:href="/character/display?id=Janna_Tyrell" xlink:title="Janna Tyrell" target="_blank">
</a>
</g>
</g>
<!-- 100 -->
<g id="node11" class="node"><title>100</title>
<g id="a_node11"><a xlink:href="/character/display?id=Mina_Tyrell" xlink:title="Mina Tyrell" target="_blank">
<polygon fill="white" stroke="black" points="378,-409 270,-409 270,-301 378,-301 378,-409"/>
</a>
</g>
<g id="a_node11_10"><a xlink:href="http://awoiaf.westeros.org/index.php/Mina_Tyrell" xlink:title="Mina Tyrell" target="_blank">
<text text-anchor="start" x="282.5" y="-358.3" font-family="Times,serif" font-size="14.00">Mina Tyrell</text>
<text text-anchor="start" x="310" y="-343.3" font-family="Times,serif" font-size="14.00">???&#45;</text>
</a>
</g>
<g><a xlink:href="/character/display?id=Mina_Tyrell" xlink:title="Mina Tyrell" target="_blank">
</a>
</g>
</g>
<!-- 89+90&#45;&gt;91 -->
<g id="edge7" class="edge"><title>89+90&#45;&gt;91</title>
<path fill="none" stroke="black" d="M194.661,-466.44C187.579,-463.44 153.95,-448.702 131,-430 123.842,-424.167 116.812,-417.502 110.174,-410.616"/>
</g>
<!-- 89+90&#45;&gt;98 -->
<g id="edge12" class="edge"><title>89+90&#45;&gt;98</title>
<path fill="none" stroke="black" d="M196,-465.753C196,-460.037 196,-435.564 196,-411.175"/>
</g>
<!-- 89+90&#45;&gt;100 -->
<g id="edge13" class="edge"><title>89+90&#45;&gt;100</title>
<path fill="none" stroke="black" d="M197.32,-466.438C204.301,-463.428 237.449,-448.648 260,-430 267.592,-423.722 275.029,-416.49 281.992,-409.059"/>
</g>
<!-- 91+92&#45;&gt;93 -->
<g id="edge8" class="edge"><title>91+92&#45;&gt;93</title>
<path fill="none" stroke="black" d="M266.453,-240.952C254.508,-240.519 176.067,-236.477 125,-204 114.99,-197.634 105.744,-189.279 97.5196,-180.355"/>
</g>
<!-- 91+92&#45;&gt;94 -->
<g id="edge9" class="edge"><title>91+92&#45;&gt;94</title>
<path fill="none" stroke="black" d="M267.527,-240.246C264.524,-235.457 247.684,-208.605 230.878,-181.806"/>
</g>
<!-- 91+92&#45;&gt;96 -->
<g id="edge10" class="edge"><title>91+92&#45;&gt;96</title>
<path fill="none" stroke="black" d="M268.479,-240.246C271.086,-236.144 283.982,-215.854 298.333,-193.276"/>
</g>
<!-- 91+92&#45;&gt;97 -->
<g id="edge11" class="edge"><title>91+92&#45;&gt;97</title>
<path fill="none" stroke="black" d="M269.68,-240.997C282.653,-240.902 367.836,-238.927 423,-204 433.816,-197.152 443.632,-187.872 452.171,-178.036"/>
</g>
</g>
</svg>
