<?xml version="1.0" encoding="UTF-8" standalone="no"?>
<!DOCTYPE svg PUBLIC "-//W3C//DTD SVG 1.1//EN"
 "http://www.w3.org/Graphics/SVG/1.1/DTD/svg11.dtd">
<!-- Generated by graphviz version 2.36.0 (20140111.2315)
 -->
<!-- Title: family Pages: 1 -->
<svg width="688pt" height="632pt"
 viewBox="0.00 0.00 688.00 632.00" xmlns="http://www.w3.org/2000/svg" xmlns:xlink="http://www.w3.org/1999/xlink">
<g id="graph0" class="graph" transform="scale(1 1) rotate(0) translate(4 628)">
<title>family</title>
<polygon fill="white" stroke="none" points="-4,4 -4,-628 684,-628 684,4 -4,4"/>
<!-- 89 -->
<g id="node1" class="node"><title>89</title>
<g id="a_node1"><a xlink:href="http://awoiaf.westeros.org/index.php/Luthor_Tyrell" xlink:title="Luthor Tyrell\n???&#45;???" target="_blank">
<polygon fill="none" stroke="black" points="166.25,-610.5 55.75,-610.5 55.75,-499.5 166.25,-499.5 166.25,-610.5"/>
<text text-anchor="middle" x="111" y="-558.8" font-family="Times,serif" font-size="14.00">Luthor Tyrell</text>
<text text-anchor="middle" x="111" y="-543.8" font-family="Times,serif" font-size="14.00">???&#45;???</text>
</a>
</g>
</g>
<!-- 89+90 -->
<g id="node12" class="node"><title>89+90</title>
<ellipse fill="black" stroke="black" cx="182" cy="-448" rx="1.8" ry="1.8"/>
</g>
<!-- 89&#45;&gt;89+90 -->
<g id="edge1" class="edge"><title>89&#45;&gt;89+90</title>
<path fill="none" stroke="black" d="M147.956,-499.347C163.051,-477.023 177.795,-455.219 181.245,-450.117"/>
</g>
<!-- 90 -->
<g id="node2" class="node"><title>90</title>
<g id="a_node2"><a xlink:href="http://awoiaf.westeros.org/index.php/Olenna_Redwyne" xlink:title="Olenna Redwyne\n228&#45;" target="_blank">
<polygon fill="none" stroke="black" points="321.25,-623.5 184.75,-623.5 184.75,-486.5 321.25,-486.5 321.25,-623.5"/>
<text text-anchor="middle" x="253" y="-558.8" font-family="Times,serif" font-size="14.00">Olenna Redwyne</text>
<text text-anchor="middle" x="253" y="-543.8" font-family="Times,serif" font-size="14.00">228&#45;</text>
</a>
</g>
</g>
<!-- 90&#45;&gt;89+90 -->
<g id="edge2" class="edge"><title>90&#45;&gt;89+90</title>
<path fill="none" stroke="black" d="M207.232,-486.315C195.211,-468.537 184.908,-453.301 182.521,-449.77"/>
</g>
<!-- 91 -->
<g id="node3" class="node"><title>91</title>
<g id="a_node3"><a xlink:href="http://awoiaf.westeros.org/index.php/Mace_Tyrell" xlink:title="Mace Tyrell\n256&#45;" target="_blank">
<polygon fill="none" stroke="black" points="111.5,-391 10.5,-391 10.5,-289 111.5,-289 111.5,-391"/>
<text text-anchor="middle" x="61" y="-343.8" font-family="Times,serif" font-size="14.00">Mace Tyrell</text>
<text text-anchor="middle" x="61" y="-328.8" font-family="Times,serif" font-size="14.00">256&#45;</text>
</a>
</g>
</g>
<!-- 91+92 -->
<g id="node13" class="node"><title>91+92</title>
<ellipse fill="black" stroke="black" cx="250" cy="-232" rx="1.8" ry="1.8"/>
</g>
<!-- 91&#45;&gt;91+92 -->
<g id="edge3" class="edge"><title>91&#45;&gt;91+92</title>
<path fill="none" stroke="black" d="M98.1871,-288.942C105.151,-281.844 112.833,-275.203 121,-270 166.982,-240.709 236.684,-234.052 248.324,-233.124"/>
</g>
<!-- 92 -->
<g id="node4" class="node"><title>92</title>
<g id="a_node4"><a xlink:href="http://awoiaf.westeros.org/index.php/Alerie_Hightower" xlink:title="Alerie Hightower\n257&#45;" target="_blank">
<polygon fill="none" stroke="black" points="509,-410 369,-410 369,-270 509,-270 509,-410"/>
<text text-anchor="middle" x="439" y="-343.8" font-family="Times,serif" font-size="14.00">Alerie Hightower</text>
<text text-anchor="middle" x="439" y="-328.8" font-family="Times,serif" font-size="14.00">257&#45;</text>
</a>
</g>
</g>
<!-- 92&#45;&gt;91+92 -->
<g id="edge4" class="edge"><title>92&#45;&gt;91+92</title>
<path fill="none" stroke="black" d="M368.979,-276.15C365.677,-273.975 362.344,-271.912 359,-270 318.753,-246.984 261.933,-235.297 251.633,-233.308"/>
</g>
<!-- 93 -->
<g id="node5" class="node"><title>93</title>
<g id="a_node5"><a xlink:href="http://awoiaf.westeros.org/index.php/Willas_Tyrell" xlink:title="Willas Tyrell\n270&#45;" target="_blank">
<polygon fill="none" stroke="black" points="106.25,-170.5 -0.25,-170.5 -0.25,-63.5 106.25,-63.5 106.25,-170.5"/>
<text text-anchor="middle" x="53" y="-120.8" font-family="Times,serif" font-size="14.00">Willas Tyrell</text>
<text text-anchor="middle" x="53" y="-105.8" font-family="Times,serif" font-size="14.00">270&#45;</text>
</a>
</g>
</g>
<!-- 94 -->
<g id="node6" class="node"><title>94</title>
<g id="a_node6"><a xlink:href="http://awoiaf.westeros.org/index.php/Garlan_Tyrell" xlink:title="Garlan Tyrell\n277&#45;" target="_blank">
<polygon fill="none" stroke="black" points="235,-172 125,-172 125,-62 235,-62 235,-172"/>
<text text-anchor="middle" x="180" y="-120.8" font-family="Times,serif" font-size="14.00">Garlan Tyrell</text>
<text text-anchor="middle" x="180" y="-105.8" font-family="Times,serif" font-size="14.00">277&#45;</text>
</a>
</g>
</g>
<!-- 94+95 -->
<g id="node14" class="node"><title>94+95</title>
<ellipse fill="black" stroke="black" cx="391" cy="-2" rx="1.8" ry="1.8"/>
</g>
<!-- 94&#45;&gt;94+95 -->
<g id="edge5" class="edge"><title>94&#45;&gt;94+95</title>
<path fill="none" stroke="black" d="M218.204,-61.7509C225.959,-53.5286 234.639,-45.8524 244,-40 296.663,-7.07551 377.157,-3.41097 389.413,-3.03934"/>
</g>
<!-- 95 -->
<g id="node7" class="node"><title>95</title>
<g id="a_node7"><a xlink:href="http://awoiaf.westeros.org/index.php/Leonette Fossoway" xlink:title="Leonette Fossoway\n???&#45;" target="_blank">
<polygon fill="none" stroke="black" points="680,-194 526,-194 526,-40 680,-40 680,-194"/>
<text text-anchor="middle" x="603" y="-120.8" font-family="Times,serif" font-size="14.00">Leonette Fossoway</text>
<text text-anchor="middle" x="603" y="-105.8" font-family="Times,serif" font-size="14.00">???&#45;</text>
</a>
</g>
</g>
<!-- 95&#45;&gt;94+95 -->
<g id="edge6" class="edge"><title>95&#45;&gt;94+95</title>
<path fill="none" stroke="black" d="M525.951,-45.916C522.661,-43.8192 519.339,-41.8366 516,-40 469.598,-14.4754 403.586,-4.69908 392.583,-3.20728"/>
</g>
<!-- 96 -->
<g id="node8" class="node"><title>96</title>
<g id="a_node8"><a xlink:href="http://awoiaf.westeros.org/index.php/Margaery_Tyrell" xlink:title="Margaery Tyrell\n283&#45;" target="_blank">
<polygon fill="none" stroke="black" points="386.25,-183.5 253.75,-183.5 253.75,-50.5 386.25,-50.5 386.25,-183.5"/>
<text text-anchor="middle" x="320" y="-120.8" font-family="Times,serif" font-size="14.00">Margaery Tyrell</text>
<text text-anchor="middle" x="320" y="-105.8" font-family="Times,serif" font-size="14.00">283&#45;</text>
</a>
</g>
</g>
<!-- 97 -->
<g id="node9" class="node"><title>97</title>
<g id="a_node9"><a xlink:href="http://awoiaf.westeros.org/index.php/Loras_Tyrell" xlink:title="Loras Tyrell\n282&#45;" target="_blank">
<polygon fill="none" stroke="black" points="507.25,-168.5 404.75,-168.5 404.75,-65.5 507.25,-65.5 507.25,-168.5"/>
<text text-anchor="middle" x="456" y="-120.8" font-family="Times,serif" font-size="14.00">Loras Tyrell</text>
<text text-anchor="middle" x="456" y="-105.8" font-family="Times,serif" font-size="14.00">282&#45;</text>
</a>
</g>
</g>
<!-- 98 -->
<g id="node10" class="node"><title>98</title>
<g id="a_node10"><a xlink:href="http://awoiaf.westeros.org/index.php/Janna_Tyrell" xlink:title="Janna Tyrell\n???&#45;" target="_blank">
<polygon fill="none" stroke="black" points="233.25,-391.5 130.75,-391.5 130.75,-288.5 233.25,-288.5 233.25,-391.5"/>
<text text-anchor="middle" x="182" y="-343.8" font-family="Times,serif" font-size="14.00">Janna Tyrell</text>
<text text-anchor="middle" x="182" y="-328.8" font-family="Times,serif" font-size="14.00">???&#45;</text>
</a>
</g>
</g>
<!-- 100 -->
<g id="node11" class="node"><title>100</title>
<g id="a_node11"><a xlink:href="http://awoiaf.westeros.org/index.php/Mina_Tyrell" xlink:title="Mina Tyrell\n???&#45;" target="_blank">
<polygon fill="none" stroke="black" points="350.25,-389.5 251.75,-389.5 251.75,-290.5 350.25,-290.5 350.25,-389.5"/>
<text text-anchor="middle" x="301" y="-343.8" font-family="Times,serif" font-size="14.00">Mina Tyrell</text>
<text text-anchor="middle" x="301" y="-328.8" font-family="Times,serif" font-size="14.00">???&#45;</text>
</a>
</g>
</g>
<!-- 89+90&#45;&gt;91 -->
<g id="edge7" class="edge"><title>89+90&#45;&gt;91</title>
<path fill="none" stroke="black" d="M180.746,-446.422C174.11,-443.329 142.597,-428.196 121,-410 114.201,-404.272 107.506,-397.748 101.194,-391.051"/>
</g>
<!-- 89+90&#45;&gt;98 -->
<g id="edge12" class="edge"><title>89+90&#45;&gt;98</title>
<path fill="none" stroke="black" d="M182,-445.81C182,-440.192 182,-415.602 182,-391.652"/>
</g>
<!-- 89+90&#45;&gt;100 -->
<g id="edge13" class="edge"><title>89+90&#45;&gt;100</title>
<path fill="none" stroke="black" d="M183.236,-446.42C189.77,-443.318 220.803,-428.145 242,-410 249.184,-403.85 256.242,-396.793 262.837,-389.591"/>
</g>
<!-- 91+92&#45;&gt;93 -->
<g id="edge8" class="edge"><title>91+92&#45;&gt;93</title>
<path fill="none" stroke="black" d="M248.55,-230.924C237.354,-230.277 163.828,-224.929 116,-194 106.214,-187.672 97.1815,-179.343 89.193,-170.523"/>
</g>
<!-- 91+92&#45;&gt;94 -->
<g id="edge9" class="edge"><title>91+92&#45;&gt;94</title>
<path fill="none" stroke="black" d="M249.214,-229.731C245.519,-223.766 229.396,-197.74 213.642,-172.307"/>
</g>
<!-- 91+92&#45;&gt;96 -->
<g id="edge10" class="edge"><title>91+92&#45;&gt;96</title>
<path fill="none" stroke="black" d="M250.786,-229.731C253.925,-224.663 266.035,-205.115 279.268,-183.753"/>
</g>
<!-- 91+92&#45;&gt;97 -->
<g id="edge11" class="edge"><title>91+92&#45;&gt;97</title>
<path fill="none" stroke="black" d="M251.573,-230.966C263.717,-230.632 343.451,-227.197 395,-194 405.384,-187.313 414.806,-178.26 422.97,-168.733"/>
</g>
</g>
</svg>
