<?xml version="1.0" encoding="UTF-8" standalone="no"?>
<!DOCTYPE svg PUBLIC "-//W3C//DTD SVG 1.1//EN"
 "http://www.w3.org/Graphics/SVG/1.1/DTD/svg11.dtd">
<!-- Generated by graphviz version 2.36.0 (20140111.2315)
 -->
<!-- Title: family Pages: 1 -->
<svg width="2010pt" height="870pt"
 viewBox="0.00 0.00 2010.00 870.00" xmlns="http://www.w3.org/2000/svg" xmlns:xlink="http://www.w3.org/1999/xlink">
<g id="graph0" class="graph" transform="scale(1 1) rotate(0) translate(4 866)">
<title>family</title>
<polygon fill="white" stroke="none" points="-4,4 -4,-866 2006,-866 2006,4 -4,4"/>
<!-- 44 -->
<g id="node1" class="node"><title>44</title>
<g id="a_node1"><a xlink:href="/character/display?id=Tytos_Lannister" xlink:title="Tytos Lannister" target="_blank">
<polygon fill="white" stroke="black" points="1167,-860 1029,-860 1029,-722 1167,-722 1167,-860"/>
</a>
</g>
<g id="a_node1_0"><a xlink:href="http://awoiaf.westeros.org/index.php/Tytos_Lannister" xlink:title="Tytos Lannister" target="_blank">
<text text-anchor="start" x="1041.5" y="-794.3" font-family="Times,serif" font-size="14.00">Tytos Lannister</text>
<text text-anchor="start" x="1068.5" y="-779.3" font-family="Times,serif" font-size="14.00">220&#45;267</text>
</a>
</g>
<g><a xlink:href="/character/display?id=Tytos_Lannister" xlink:title="Tytos Lannister" target="_blank">
</a>
</g>
</g>
<!-- 44+45 -->
<g id="node32" class="node"><title>44+45</title>
<ellipse fill="black" stroke="black" cx="1177" cy="-682" rx="1.8" ry="1.8"/>
</g>
<!-- 44&#45;&gt;44+45 -->
<g id="edge1" class="edge"><title>44&#45;&gt;44+45</title>
<path fill="none" stroke="black" d="M1148.26,-721.932C1161.89,-703.467 1173.67,-687.508 1176.4,-683.807"/>
</g>
<!-- 46 -->
<g id="node2" class="node"><title>46</title>
<g id="a_node2"><a xlink:href="/character/display?id=Tywin_Lannister" xlink:title="Tywin Lannister" target="_blank">
<polygon fill="white" stroke="black" points="385,-633 243,-633 243,-491 385,-491 385,-633"/>
</a>
</g>
<g id="a_node2_1"><a xlink:href="http://awoiaf.westeros.org/index.php/Tywin_Lannister" xlink:title="Tywin Lannister" target="_blank">
<text text-anchor="start" x="255.5" y="-565.3" font-family="Times,serif" font-size="14.00">Tywin Lannister</text>
<text text-anchor="start" x="284.5" y="-550.3" font-family="Times,serif" font-size="14.00">242&#45;300</text>
</a>
</g>
<g><a xlink:href="/character/display?id=Tywin_Lannister" xlink:title="Tywin Lannister" target="_blank">
</a>
</g>
</g>
<!-- 46+47 -->
<g id="node33" class="node"><title>46+47</title>
<ellipse fill="black" stroke="black" cx="314" cy="-442" rx="1.8" ry="1.8"/>
</g>
<!-- 46&#45;&gt;46+47 -->
<g id="edge3" class="edge"><title>46&#45;&gt;46+47</title>
<path fill="none" stroke="black" d="M314,-490.995C314,-468.762 314,-448.691 314,-444.02"/>
</g>
<!-- 53 -->
<g id="node3" class="node"><title>53</title>
<g id="a_node3"><a xlink:href="/character/display?id=Kevan_Lannister" xlink:title="Kevan Lannister" target="_blank">
<polygon fill="white" stroke="black" points="953.25,-633.5 810.75,-633.5 810.75,-490.5 953.25,-490.5 953.25,-633.5"/>
</a>
</g>
<g id="a_node3_2"><a xlink:href="http://awoiaf.westeros.org/index.php/Kevan_Lannister" xlink:title="Kevan Lannister" target="_blank">
<text text-anchor="start" x="823.5" y="-565.3" font-family="Times,serif" font-size="14.00">Kevan Lannister</text>
<text text-anchor="start" x="853" y="-550.3" font-family="Times,serif" font-size="14.00">244&#45;300</text>
</a>
</g>
<g><a xlink:href="/character/display?id=Kevan_Lannister" xlink:title="Kevan Lannister" target="_blank">
</a>
</g>
</g>
<!-- 53+54 -->
<g id="node34" class="node"><title>53+54</title>
<ellipse fill="black" stroke="black" cx="893" cy="-442" rx="1.8" ry="1.8"/>
</g>
<!-- 53&#45;&gt;53+54 -->
<g id="edge5" class="edge"><title>53&#45;&gt;53+54</title>
<path fill="none" stroke="black" d="M888.589,-490.315C890.639,-468.326 892.479,-448.592 892.907,-444.002"/>
</g>
<!-- 59 -->
<g id="node4" class="node"><title>59</title>
<g id="a_node4"><a xlink:href="/character/display?id=Genna_Lannister" xlink:title="Genna Lannister" target="_blank">
<polygon fill="white" stroke="black" points="1249.25,-634.5 1104.75,-634.5 1104.75,-489.5 1249.25,-489.5 1249.25,-634.5"/>
</a>
</g>
<g id="a_node4_3"><a xlink:href="http://awoiaf.westeros.org/index.php/Genna_Lannister" xlink:title="Genna Lannister" target="_blank">
<text text-anchor="start" x="1117.5" y="-565.3" font-family="Times,serif" font-size="14.00">Genna Lannister</text>
<text text-anchor="start" x="1161.5" y="-550.3" font-family="Times,serif" font-size="14.00">245&#45;</text>
</a>
</g>
<g><a xlink:href="/character/display?id=Genna_Lannister" xlink:title="Genna Lannister" target="_blank">
</a>
</g>
</g>
<!-- 60+59 -->
<g id="node39" class="node"><title>60+59</title>
<ellipse fill="black" stroke="black" cx="1321" cy="-442" rx="1.8" ry="1.8"/>
</g>
<!-- 59&#45;&gt;60+59 -->
<g id="edge16" class="edge"><title>59&#45;&gt;60+59</title>
<path fill="none" stroke="black" d="M1247.62,-489.245C1251.4,-486.04 1255.2,-482.939 1259,-480 1281.6,-462.508 1313.12,-446.825 1319.75,-443.603"/>
</g>
<!-- 61 -->
<g id="node5" class="node"><title>61</title>
<g id="a_node5"><a xlink:href="/character/display?id=Tygget_Lannister" xlink:title="Tygget Lannister" target="_blank">
<polygon fill="white" stroke="black" points="1553.25,-636.5 1404.75,-636.5 1404.75,-487.5 1553.25,-487.5 1553.25,-636.5"/>
</a>
</g>
<g id="a_node5_4"><a xlink:href="http://awoiaf.westeros.org/index.php/Tygget_Lannister" xlink:title="Tygget Lannister" target="_blank">
<text text-anchor="start" x="1417.5" y="-565.3" font-family="Times,serif" font-size="14.00">Tygget Lannister</text>
<text text-anchor="start" x="1450" y="-550.3" font-family="Times,serif" font-size="14.00">250&#45;285</text>
</a>
</g>
<g><a xlink:href="/character/display?id=Tygget_Lannister" xlink:title="Tygget Lannister" target="_blank">
</a>
</g>
</g>
<!-- 61+62 -->
<g id="node35" class="node"><title>61+62</title>
<ellipse fill="black" stroke="black" cx="1654" cy="-442" rx="1.8" ry="1.8"/>
</g>
<!-- 61&#45;&gt;61+62 -->
<g id="edge7" class="edge"><title>61&#45;&gt;61+62</title>
<path fill="none" stroke="black" d="M1552.38,-487.41C1555.89,-484.804 1559.43,-482.32 1563,-480 1596.17,-458.426 1643.96,-445.567 1652.63,-443.346"/>
</g>
<!-- 65 -->
<g id="node6" class="node"><title>65</title>
<g id="a_node6"><a xlink:href="/character/display?id=Gerion_Lannister" xlink:title="Gerion Lannister" target="_blank">
<polygon fill="white" stroke="black" points="1901.25,-635.5 1754.75,-635.5 1754.75,-488.5 1901.25,-488.5 1901.25,-635.5"/>
</a>
</g>
<g id="a_node6_5"><a xlink:href="http://awoiaf.westeros.org/index.php/Gerion_Lannister" xlink:title="Gerion Lannister" target="_blank">
<text text-anchor="start" x="1767.5" y="-565.3" font-family="Times,serif" font-size="14.00">Gerion Lannister</text>
<text text-anchor="start" x="1799" y="-550.3" font-family="Times,serif" font-size="14.00">255&#45;291</text>
</a>
</g>
<g><a xlink:href="/character/display?id=Gerion_Lannister" xlink:title="Gerion Lannister" target="_blank">
</a>
</g>
</g>
<!-- 65+66 -->
<g id="node36" class="node"><title>65+66</title>
<ellipse fill="black" stroke="black" cx="1834" cy="-442" rx="1.8" ry="1.8"/>
</g>
<!-- 65&#45;&gt;65+66 -->
<g id="edge9" class="edge"><title>65&#45;&gt;65+66</title>
<path fill="none" stroke="black" stroke-dasharray="5,2" d="M1831.7,-488.284C1832.78,-467.037 1833.73,-448.302 1833.95,-443.95"/>
</g>
<!-- 17 -->
<g id="node7" class="node"><title>17</title>
<g id="a_node7"><a xlink:href="/character/display?id=Tyrion_Lannister" xlink:title="Tyrion Lannister" target="_blank">
<polygon fill="white" stroke="black" points="144.25,-400.5 -0.25,-400.5 -0.25,-255.5 144.25,-255.5 144.25,-400.5"/>
</a>
</g>
<g id="a_node7_6"><a xlink:href="http://awoiaf.westeros.org/index.php/Tyrion_Lannister" xlink:title="Tyrion Lannister" target="_blank">
<text text-anchor="start" x="12.5" y="-331.3" font-family="Times,serif" font-size="14.00">Tyrion Lannister</text>
<text text-anchor="start" x="56.5" y="-316.3" font-family="Times,serif" font-size="14.00">273&#45;</text>
</a>
</g>
<g><a xlink:href="/character/display?id=Tyrion_Lannister" xlink:title="Tyrion Lannister" target="_blank">
</a>
</g>
</g>
<!-- 48 -->
<g id="node8" class="node"><title>48</title>
<g id="a_node8"><a xlink:href="/character/display?id=Jaime_Lannister" xlink:title="Jaime Lannister" target="_blank">
<polygon fill="white" stroke="black" points="303,-398 163,-398 163,-258 303,-258 303,-398"/>
</a>
</g>
<g id="a_node8_7"><a xlink:href="http://awoiaf.westeros.org/index.php/Jaime_Lannister" xlink:title="Jaime Lannister" target="_blank">
<text text-anchor="start" x="175.5" y="-331.3" font-family="Times,serif" font-size="14.00">Jaime Lannister</text>
<text text-anchor="start" x="217" y="-316.3" font-family="Times,serif" font-size="14.00">266&#45;</text>
</a>
</g>
<g><a xlink:href="/character/display?id=Jaime_Lannister" xlink:title="Jaime Lannister" target="_blank">
</a>
</g>
</g>
<!-- 48+49 -->
<g id="node37" class="node"><title>48+49</title>
<ellipse fill="black" stroke="black" cx="314" cy="-214" rx="1.8" ry="1.8"/>
</g>
<!-- 48&#45;&gt;48+49 -->
<g id="edge11" class="edge"><title>48&#45;&gt;48+49</title>
<path fill="none" stroke="black" stroke-dasharray="5,2" d="M282.915,-257.982C297.5,-237.815 310.361,-220.032 313.348,-215.902"/>
</g>
<!-- 49 -->
<g id="node9" class="node"><title>49</title>
<g id="a_node9"><a xlink:href="/character/display?id=Cersei_Lannister" xlink:title="Cersei Lannister" target="_blank">
<polygon fill="white" stroke="black" points="467,-401 321,-401 321,-255 467,-255 467,-401"/>
</a>
</g>
<g id="a_node9_8"><a xlink:href="http://awoiaf.westeros.org/index.php/Cersei_Lannister" xlink:title="Cersei Lannister" target="_blank">
<text text-anchor="start" x="333.5" y="-331.3" font-family="Times,serif" font-size="14.00">Cersei Lannister</text>
<text text-anchor="start" x="378" y="-316.3" font-family="Times,serif" font-size="14.00">266&#45;</text>
</a>
</g>
<g><a xlink:href="/character/display?id=Cersei_Lannister" xlink:title="Cersei Lannister" target="_blank">
</a>
</g>
</g>
<!-- 49&#45;&gt;48+49 -->
<g id="edge12" class="edge"><title>49&#45;&gt;48+49</title>
<path fill="none" stroke="black" stroke-dasharray="5,2" d="M342.43,-254.802C328.885,-235.84 317.277,-219.588 314.587,-215.821"/>
</g>
<!-- 55 -->
<g id="node10" class="node"><title>55</title>
<g id="a_node10"><a xlink:href="/character/display?id=Lancel_Lannister" xlink:title="Lancel Lannister" target="_blank">
<polygon fill="white" stroke="black" points="632.25,-401.5 485.75,-401.5 485.75,-254.5 632.25,-254.5 632.25,-401.5"/>
</a>
</g>
<g id="a_node10_9"><a xlink:href="http://awoiaf.westeros.org/index.php/Lancel_Lannister" xlink:title="Lancel Lannister" target="_blank">
<text text-anchor="start" x="498.5" y="-331.3" font-family="Times,serif" font-size="14.00">Lancel Lannister</text>
<text text-anchor="start" x="543.5" y="-316.3" font-family="Times,serif" font-size="14.00">282&#45;</text>
</a>
</g>
<g><a xlink:href="/character/display?id=Lancel_Lannister" xlink:title="Lancel Lannister" target="_blank">
</a>
</g>
</g>
<!-- 56 -->
<g id="node11" class="node"><title>56</title>
<g id="a_node11"><a xlink:href="/character/display?id=Martyn_Lannister" xlink:title="Martyn Lannister" target="_blank">
<polygon fill="white" stroke="black" points="803,-404 651,-404 651,-252 803,-252 803,-404"/>
</a>
</g>
<g id="a_node11_10"><a xlink:href="http://awoiaf.westeros.org/index.php/Martyn_Lannister" xlink:title="Martyn Lannister" target="_blank">
<text text-anchor="start" x="663.5" y="-331.3" font-family="Times,serif" font-size="14.00">Martyn Lannister</text>
<text text-anchor="start" x="711" y="-316.3" font-family="Times,serif" font-size="14.00">285&#45;</text>
</a>
</g>
<g><a xlink:href="/character/display?id=Martyn_Lannister" xlink:title="Martyn Lannister" target="_blank">
</a>
</g>
</g>
<!-- 57 -->
<g id="node12" class="node"><title>57</title>
<g id="a_node12"><a xlink:href="/character/display?id=Willem_Lannister" xlink:title="Willem Lannister" target="_blank">
<polygon fill="white" stroke="black" points="970.25,-402.5 821.75,-402.5 821.75,-253.5 970.25,-253.5 970.25,-402.5"/>
</a>
</g>
<g id="a_node12_11"><a xlink:href="http://awoiaf.westeros.org/index.php/Willem_Lannister" xlink:title="Willem Lannister" target="_blank">
<text text-anchor="start" x="834.5" y="-331.3" font-family="Times,serif" font-size="14.00">Willem Lannister</text>
<text text-anchor="start" x="880.5" y="-316.3" font-family="Times,serif" font-size="14.00">285&#45;</text>
</a>
</g>
<g><a xlink:href="/character/display?id=Willem_Lannister" xlink:title="Willem Lannister" target="_blank">
</a>
</g>
</g>
<!-- 58 -->
<g id="node13" class="node"><title>58</title>
<g id="a_node13"><a xlink:href="/character/display?id=Janei_Lannister" xlink:title="Janei Lannister" target="_blank">
<polygon fill="white" stroke="black" points="1123.25,-395.5 988.75,-395.5 988.75,-260.5 1123.25,-260.5 1123.25,-395.5"/>
</a>
</g>
<g id="a_node13_12"><a xlink:href="http://awoiaf.westeros.org/index.php/Janei_Lannister" xlink:title="Janei Lannister" target="_blank">
<text text-anchor="start" x="1001.5" y="-331.3" font-family="Times,serif" font-size="14.00">Janei Lannister</text>
<text text-anchor="start" x="1040.5" y="-316.3" font-family="Times,serif" font-size="14.00">296&#45;</text>
</a>
</g>
<g><a xlink:href="/character/display?id=Janei_Lannister" xlink:title="Janei Lannister" target="_blank">
</a>
</g>
</g>
<!-- 243 -->
<g id="node14" class="node"><title>243</title>
<g id="a_node14"><a xlink:href="/character/display?id=Cleos_Frey" xlink:title="Cleos Frey" target="_blank">
<polygon fill="white" stroke="black" points="1244.25,-379.5 1141.75,-379.5 1141.75,-276.5 1244.25,-276.5 1244.25,-379.5"/>
</a>
</g>
<g id="a_node14_13"><a xlink:href="http://awoiaf.westeros.org/index.php/Cleos_Frey" xlink:title="Cleos Frey" target="_blank">
<text text-anchor="start" x="1154.5" y="-331.3" font-family="Times,serif" font-size="14.00">Cleos Frey</text>
<text text-anchor="start" x="1164" y="-316.3" font-family="Times,serif" font-size="14.00">258&#45;299</text>
</a>
</g>
<g><a xlink:href="/character/display?id=Cleos_Frey" xlink:title="Cleos Frey" target="_blank">
</a>
</g>
</g>
<!-- 243+244 -->
<g id="node38" class="node"><title>243+244</title>
<ellipse fill="black" stroke="black" cx="1570" cy="-214" rx="1.8" ry="1.8"/>
</g>
<!-- 243&#45;&gt;243+244 -->
<g id="edge13" class="edge"><title>243&#45;&gt;243+244</title>
<path fill="none" stroke="black" d="M1224.49,-276.248C1232.64,-266.772 1242.21,-257.982 1253,-252 1312.12,-219.229 1546.52,-215.315 1568.37,-215.02"/>
</g>
<!-- 247 -->
<g id="node15" class="node"><title>247</title>
<g id="a_node15"><a xlink:href="/character/display?id=Lyonel_Frey" xlink:title="Lyonel Frey" target="_blank">
<polygon fill="white" stroke="black" points="1373.25,-383.5 1262.75,-383.5 1262.75,-272.5 1373.25,-272.5 1373.25,-383.5"/>
</a>
</g>
<g id="a_node15_14"><a xlink:href="http://awoiaf.westeros.org/index.php/Lyonel_Frey" xlink:title="Lyonel Frey" target="_blank">
<text text-anchor="start" x="1275.5" y="-331.3" font-family="Times,serif" font-size="14.00">Lyonel Frey</text>
<text text-anchor="start" x="1302.5" y="-316.3" font-family="Times,serif" font-size="14.00">259&#45;</text>
</a>
</g>
<g><a xlink:href="/character/display?id=Lyonel_Frey" xlink:title="Lyonel Frey" target="_blank">
</a>
</g>
</g>
<!-- 249 -->
<g id="node16" class="node"><title>249</title>
<g id="a_node16"><a xlink:href="/character/display?id=Tion_Frey" xlink:title="Tion Frey" target="_blank">
<polygon fill="white" stroke="black" points="1486,-375 1392,-375 1392,-281 1486,-281 1486,-375"/>
</a>
</g>
<g id="a_node16_15"><a xlink:href="http://awoiaf.westeros.org/index.php/Tion_Frey" xlink:title="Tion Frey" target="_blank">
<text text-anchor="start" x="1404.5" y="-331.3" font-family="Times,serif" font-size="14.00">Tion Frey</text>
<text text-anchor="start" x="1409.5" y="-316.3" font-family="Times,serif" font-size="14.00">279&#45;299</text>
</a>
</g>
<g><a xlink:href="/character/display?id=Tion_Frey" xlink:title="Tion Frey" target="_blank">
</a>
</g>
</g>
<!-- 250 -->
<g id="node17" class="node"><title>250</title>
<g id="a_node17"><a xlink:href="/character/display?id=Walder_Frey_(son_of_Emmon)" xlink:title="Walder Frey" target="_blank">
<polygon fill="white" stroke="black" points="1617.25,-384.5 1504.75,-384.5 1504.75,-271.5 1617.25,-271.5 1617.25,-384.5"/>
</a>
</g>
<g id="a_node17_16"><a xlink:href="http://awoiaf.westeros.org/index.php/Walder_Frey_(son_of_Emmon)" xlink:title="Walder Frey" target="_blank">
<text text-anchor="start" x="1517.5" y="-331.3" font-family="Times,serif" font-size="14.00">Walder Frey</text>
<text text-anchor="start" x="1545.5" y="-316.3" font-family="Times,serif" font-size="14.00">285&#45;</text>
</a>
</g>
<g><a xlink:href="/character/display?id=Walder_Frey_(son_of_Emmon)" xlink:title="Walder Frey" target="_blank">
</a>
</g>
</g>
<!-- 63 -->
<g id="node18" class="node"><title>63</title>
<g id="a_node18"><a xlink:href="/character/display?id=Tyrek_Lannister" xlink:title="Tyrek Lannister" target="_blank">
<polygon fill="white" stroke="black" points="1776,-398 1636,-398 1636,-258 1776,-258 1776,-398"/>
</a>
</g>
<g id="a_node18_17"><a xlink:href="http://awoiaf.westeros.org/index.php/Tyrek_Lannister" xlink:title="Tyrek Lannister" target="_blank">
<text text-anchor="start" x="1648.5" y="-331.3" font-family="Times,serif" font-size="14.00">Tyrek Lannister</text>
<text text-anchor="start" x="1676.5" y="-316.3" font-family="Times,serif" font-size="14.00">286&#45;299</text>
</a>
</g>
<g><a xlink:href="/character/display?id=Tyrek_Lannister" xlink:title="Tyrek Lannister" target="_blank">
</a>
</g>
</g>
<!-- 67 -->
<g id="node19" class="node"><title>67</title>
<g id="a_node19"><a xlink:href="/character/display?id=Joy_Hill" xlink:title="Joy Hill" target="_blank">
<polygon fill="white" stroke="black" points="1873.25,-367.5 1794.75,-367.5 1794.75,-288.5 1873.25,-288.5 1873.25,-367.5"/>
</a>
</g>
<g id="a_node19_18"><a xlink:href="http://awoiaf.westeros.org/index.php/Joy_Hill" xlink:title="Joy Hill" target="_blank">
<text text-anchor="start" x="1807.5" y="-331.3" font-family="Times,serif" font-size="14.00">Joy Hill</text>
<text text-anchor="start" x="1818.5" y="-316.3" font-family="Times,serif" font-size="14.00">288&#45;</text>
</a>
</g>
<g><a xlink:href="/character/display?id=Joy_Hill" xlink:title="Joy Hill" target="_blank">
</a>
</g>
</g>
<!-- 50 -->
<g id="node20" class="node"><title>50</title>
<g id="a_node20"><a xlink:href="/character/display?id=Joffrey_Baratheon" xlink:title="Joffrey I Baratheon" target="_blank">
<polygon fill="white" stroke="black" points="211.25,-169.5 48.75,-169.5 48.75,-6.5 211.25,-6.5 211.25,-169.5"/>
</a>
</g>
<g id="a_node20_19"><a xlink:href="http://awoiaf.westeros.org/index.php/Joffrey_Baratheon" xlink:title="Joffrey I Baratheon" target="_blank">
<text text-anchor="start" x="61.5" y="-91.3" font-family="Times,serif" font-size="14.00">Joffrey I Baratheon</text>
<text text-anchor="start" x="101" y="-76.3" font-family="Times,serif" font-size="14.00">286&#45;300</text>
</a>
</g>
<g><a xlink:href="/character/display?id=Joffrey_Baratheon" xlink:title="Joffrey I Baratheon" target="_blank">
</a>
</g>
</g>
<!-- 51 -->
<g id="node21" class="node"><title>51</title>
<g id="a_node21"><a xlink:href="/character/display?id=Myrcella_Baratheon" xlink:title="Myrcella Baratheon" target="_blank">
<polygon fill="white" stroke="black" points="397.5,-172 230.5,-172 230.5,-4 397.5,-4 397.5,-172"/>
</a>
</g>
<g id="a_node21_20"><a xlink:href="http://awoiaf.westeros.org/index.php/Myrcella_Baratheon" xlink:title="Myrcella Baratheon" target="_blank">
<text text-anchor="start" x="242.5" y="-91.3" font-family="Times,serif" font-size="14.00">Myrcella Baratheon</text>
<text text-anchor="start" x="298" y="-76.3" font-family="Times,serif" font-size="14.00">290&#45;</text>
</a>
</g>
<g><a xlink:href="/character/display?id=Myrcella_Baratheon" xlink:title="Myrcella Baratheon" target="_blank">
</a>
</g>
</g>
<!-- 52 -->
<g id="node22" class="node"><title>52</title>
<g id="a_node22"><a xlink:href="/character/display?id=Tommen_Baratheon" xlink:title="Tommen I Baratheon" target="_blank">
<polygon fill="white" stroke="black" points="591.5,-176 416.5,-176 416.5,-1.42109e-14 591.5,-1.42109e-14 591.5,-176"/>
</a>
</g>
<g id="a_node22_21"><a xlink:href="http://awoiaf.westeros.org/index.php/Tommen_Baratheon" xlink:title="Tommen I Baratheon" target="_blank">
<text text-anchor="start" x="428.5" y="-91.3" font-family="Times,serif" font-size="14.00">Tommen I Baratheon</text>
<text text-anchor="start" x="488" y="-76.3" font-family="Times,serif" font-size="14.00">291&#45;</text>
</a>
</g>
<g><a xlink:href="/character/display?id=Tommen_Baratheon" xlink:title="Tommen I Baratheon" target="_blank">
</a>
</g>
</g>
<!-- 245 -->
<g id="node23" class="node"><title>245</title>
<g id="a_node23"><a xlink:href="/character/display?id=Tywin_Frey" xlink:title="Tywin Frey" target="_blank">
<polygon fill="white" stroke="black" points="1558.5,-141 1453.5,-141 1453.5,-35 1558.5,-35 1558.5,-141"/>
</a>
</g>
<g id="a_node23_22"><a xlink:href="http://awoiaf.westeros.org/index.php/Tywin_Frey" xlink:title="Tywin Frey" target="_blank">
<text text-anchor="start" x="1465.5" y="-91.3" font-family="Times,serif" font-size="14.00">Tywin Frey</text>
<text text-anchor="start" x="1490" y="-76.3" font-family="Times,serif" font-size="14.00">287&#45;</text>
</a>
</g>
<g><a xlink:href="/character/display?id=Tywin_Frey" xlink:title="Tywin Frey" target="_blank">
</a>
</g>
</g>
<!-- 246 -->
<g id="node24" class="node"><title>246</title>
<g id="a_node24"><a xlink:href="/character/display?id=Willem_Frey" xlink:title="Willem Frey" target="_blank">
<polygon fill="white" stroke="black" points="1690.25,-144.5 1577.75,-144.5 1577.75,-31.5 1690.25,-31.5 1690.25,-144.5"/>
</a>
</g>
<g id="a_node24_23"><a xlink:href="http://awoiaf.westeros.org/index.php/Willem_Frey" xlink:title="Willem Frey" target="_blank">
<text text-anchor="start" x="1590.5" y="-91.3" font-family="Times,serif" font-size="14.00">Willem Frey</text>
<text text-anchor="start" x="1618.5" y="-76.3" font-family="Times,serif" font-size="14.00">289&#45;</text>
</a>
</g>
<g><a xlink:href="/character/display?id=Willem_Frey" xlink:title="Willem Frey" target="_blank">
</a>
</g>
</g>
<!-- 45 -->
<g id="node25" class="node"><title>45</title>
<g id="a_node25"><a xlink:href="/character/display?id=Jeyne_Marbrand" xlink:title="Jeyne Marbrand" target="_blank">
<polygon fill="white" stroke="black" points="1327,-862 1185,-862 1185,-720 1327,-720 1327,-862"/>
</a>
</g>
<g id="a_node25_24"><a xlink:href="http://awoiaf.westeros.org/index.php/Jeyne_Marbrand" xlink:title="Jeyne Marbrand" target="_blank">
<text text-anchor="start" x="1197.5" y="-794.3" font-family="Times,serif" font-size="14.00">Jeyne Marbrand</text>
<text text-anchor="start" x="1228.5" y="-779.3" font-family="Times,serif" font-size="14.00">???&#45;255</text>
</a>
</g>
<g><a xlink:href="/character/display?id=Jeyne_Marbrand" xlink:title="Jeyne Marbrand" target="_blank">
</a>
</g>
</g>
<!-- 45&#45;&gt;44+45 -->
<g id="edge2" class="edge"><title>45&#45;&gt;44+45</title>
<path fill="none" stroke="black" d="M1204.19,-719.823C1191.16,-702.176 1180.11,-687.219 1177.56,-683.755"/>
</g>
<!-- 47 -->
<g id="node26" class="node"><title>47</title>
<g id="a_node26"><a xlink:href="/character/display?id=Joanna_Lannister" xlink:title="Joanna Lannister" target="_blank">
<polygon fill="white" stroke="black" points="551,-636 403,-636 403,-488 551,-488 551,-636"/>
</a>
</g>
<g id="a_node26_25"><a xlink:href="http://awoiaf.westeros.org/index.php/Joanna_Lannister" xlink:title="Joanna Lannister" target="_blank">
<text text-anchor="start" x="415.5" y="-565.3" font-family="Times,serif" font-size="14.00">Joanna Lannister</text>
<text text-anchor="start" x="447.5" y="-550.3" font-family="Times,serif" font-size="14.00">245&#45;273</text>
</a>
</g>
<g><a xlink:href="/character/display?id=Joanna_Lannister" xlink:title="Joanna Lannister" target="_blank">
</a>
</g>
</g>
<!-- 47&#45;&gt;46+47 -->
<g id="edge4" class="edge"><title>47&#45;&gt;46+47</title>
<path fill="none" stroke="black" d="M404.877,-487.99C401.282,-485.192 397.648,-482.513 394,-480 364.764,-459.861 322.815,-445.836 315.207,-443.384"/>
</g>
<!-- 54 -->
<g id="node27" class="node"><title>54</title>
<g id="a_node27"><a xlink:href="/character/display?id=Dorna_Swyft" xlink:title="Dorna Swyft" target="_blank">
<polygon fill="white" stroke="black" points="1086,-619 972,-619 972,-505 1086,-505 1086,-619"/>
</a>
</g>
<g id="a_node27_26"><a xlink:href="http://awoiaf.westeros.org/index.php/Dorna_Swyft" xlink:title="Dorna Swyft" target="_blank">
<text text-anchor="start" x="984.5" y="-565.3" font-family="Times,serif" font-size="14.00">Dorna Swyft</text>
<text text-anchor="start" x="1015" y="-550.3" font-family="Times,serif" font-size="14.00">???&#45;</text>
</a>
</g>
<g><a xlink:href="/character/display?id=Dorna_Swyft" xlink:title="Dorna Swyft" target="_blank">
</a>
</g>
</g>
<!-- 54&#45;&gt;53+54 -->
<g id="edge6" class="edge"><title>54&#45;&gt;53+54</title>
<path fill="none" stroke="black" d="M987.346,-504.72C979.472,-495.886 970.897,-487.283 962,-480 938.018,-460.369 902.022,-446.357 894.435,-443.527"/>
</g>
<!-- 60 -->
<g id="node28" class="node"><title>60</title>
<g id="a_node28"><a xlink:href="/character/display?id=Emmon_Frey" xlink:title="Emmon Frey" target="_blank">
<polygon fill="white" stroke="black" points="1386,-621 1268,-621 1268,-503 1386,-503 1386,-621"/>
</a>
</g>
<g id="a_node28_27"><a xlink:href="http://awoiaf.westeros.org/index.php/Emmon_Frey" xlink:title="Emmon Frey" target="_blank">
<text text-anchor="start" x="1280.5" y="-565.3" font-family="Times,serif" font-size="14.00">Emmon Frey</text>
<text text-anchor="start" x="1311" y="-550.3" font-family="Times,serif" font-size="14.00">237&#45;</text>
</a>
</g>
<g><a xlink:href="/character/display?id=Emmon_Frey" xlink:title="Emmon Frey" target="_blank">
</a>
</g>
</g>
<!-- 60&#45;&gt;60+59 -->
<g id="edge15" class="edge"><title>60&#45;&gt;60+59</title>
<path fill="none" stroke="black" d="M1324.04,-502.691C1322.71,-476.679 1321.38,-450.487 1321.07,-444.346"/>
</g>
<!-- 62 -->
<g id="node29" class="node"><title>62</title>
<g id="a_node29"><a xlink:href="/character/display?id=Darless Marbrand" xlink:title="Darlessa Marbrand" target="_blank">
<polygon fill="white" stroke="black" points="1736,-644 1572,-644 1572,-480 1736,-480 1736,-644"/>
</a>
</g>
<g id="a_node29_28"><a xlink:href="http://awoiaf.westeros.org/index.php/Darless Marbrand" xlink:title="Darlessa Marbrand" target="_blank">
<text text-anchor="start" x="1584.5" y="-565.3" font-family="Times,serif" font-size="14.00">Darlessa Marbrand</text>
<text text-anchor="start" x="1640" y="-550.3" font-family="Times,serif" font-size="14.00">???&#45;</text>
</a>
</g>
<g><a xlink:href="/character/display?id=Darless Marbrand" xlink:title="Darlessa Marbrand" target="_blank">
</a>
</g>
</g>
<!-- 62&#45;&gt;61+62 -->
<g id="edge8" class="edge"><title>62&#45;&gt;61+62</title>
<path fill="none" stroke="black" d="M1654,-479.689C1654,-462.443 1654,-448.18 1654,-444.144"/>
</g>
<!-- 66 -->
<g id="node30" class="node"><title>66</title>
<g id="a_node30"><a xlink:href="/character/display?id=Briony" xlink:title="Briony" target="_blank">
<polygon fill="white" stroke="black" points="1994.25,-599.5 1919.75,-599.5 1919.75,-524.5 1994.25,-524.5 1994.25,-599.5"/>
</a>
</g>
<g id="a_node30_29"><a xlink:href="http://awoiaf.westeros.org/index.php/Briony" xlink:title="Briony" target="_blank">
<text text-anchor="start" x="1933.5" y="-565.3" font-family="Times,serif" font-size="14.00">Briony</text>
<text text-anchor="start" x="1932.5" y="-550.3" font-family="Times,serif" font-size="14.00">???&#45;???</text>
</a>
</g>
<g><a xlink:href="/character/display?id=Briony" xlink:title="Briony" target="_blank">
</a>
</g>
</g>
<!-- 66&#45;&gt;65+66 -->
<g id="edge10" class="edge"><title>66&#45;&gt;65+66</title>
<path fill="none" stroke="black" stroke-dasharray="5,2" d="M1941.57,-524.306C1933.81,-509.149 1923.22,-492.289 1910,-480 1885.5,-457.216 1844.36,-445.667 1835.65,-443.413"/>
</g>
<!-- 244 -->
<g id="node31" class="node"><title>244</title>
<g id="a_node31"><a xlink:href="/character/display?id=Jeyne_Darry" xlink:title="Jeyne Darry" target="_blank">
<polygon fill="white" stroke="black" points="2002.25,-383.5 1891.75,-383.5 1891.75,-272.5 2002.25,-272.5 2002.25,-383.5"/>
</a>
</g>
<g id="a_node31_30"><a xlink:href="http://awoiaf.westeros.org/index.php/Jeyne_Darry" xlink:title="Jeyne Darry" target="_blank">
<text text-anchor="start" x="1904.5" y="-331.3" font-family="Times,serif" font-size="14.00">Jeyne Darry</text>
<text text-anchor="start" x="1933.5" y="-316.3" font-family="Times,serif" font-size="14.00">???&#45;</text>
</a>
</g>
<g><a xlink:href="/character/display?id=Jeyne_Darry" xlink:title="Jeyne Darry" target="_blank">
</a>
</g>
</g>
<!-- 244&#45;&gt;243+244 -->
<g id="edge14" class="edge"><title>244&#45;&gt;243+244</title>
<path fill="none" stroke="black" d="M1908.6,-272.433C1900.68,-264.434 1891.74,-257.164 1882,-252 1823.2,-220.836 1593.05,-215.466 1571.6,-215.031"/>
</g>
<!-- 44+45&#45;&gt;46 -->
<g id="edge17" class="edge"><title>44+45&#45;&gt;46</title>
<path fill="none" stroke="black" d="M1175.45,-680.996C1139,-680.891 471.373,-678.498 394,-644 387.501,-641.102 381.248,-637.418 375.301,-633.225"/>
</g>
<!-- 44+45&#45;&gt;53 -->
<g id="edge18" class="edge"><title>44+45&#45;&gt;53</title>
<path fill="none" stroke="black" d="M1175.16,-681.09C1159.17,-681.788 1042.67,-685.303 963,-644 957.35,-641.071 951.847,-637.608 946.543,-633.792"/>
</g>
<!-- 44+45&#45;&gt;59 -->
<g id="edge19" class="edge"><title>44+45&#45;&gt;59</title>
<path fill="none" stroke="black" d="M1177,-679.675C1177,-674.611 1177,-655.7 1177,-634.533"/>
</g>
<!-- 44+45&#45;&gt;61 -->
<g id="edge20" class="edge"><title>44+45&#45;&gt;61</title>
<path fill="none" stroke="black" d="M1178.87,-681.088C1195.11,-681.772 1313.45,-685.188 1395,-644 1399.34,-641.808 1403.6,-639.315 1407.77,-636.597"/>
</g>
<!-- 44+45&#45;&gt;65 -->
<g id="edge21" class="edge"><title>44+45&#45;&gt;65</title>
<path fill="none" stroke="black" d="M1178.85,-680.958C1212.32,-680.19 1689.26,-668.833 1745,-644 1750.33,-641.624 1755.52,-638.746 1760.53,-635.512"/>
</g>
<!-- 46+47&#45;&gt;17 -->
<g id="edge22" class="edge"><title>46+47&#45;&gt;17</title>
<path fill="none" stroke="black" d="M312.313,-440.931C299.282,-440.337 213.556,-435.312 154,-404 150.755,-402.294 147.541,-400.428 144.37,-398.436"/>
</g>
<!-- 46+47&#45;&gt;48 -->
<g id="edge23" class="edge"><title>46+47&#45;&gt;48</title>
<path fill="none" stroke="black" d="M313.09,-439.742C309.684,-435.032 297.148,-417.699 282.973,-398.098"/>
</g>
<!-- 46+47&#45;&gt;49 -->
<g id="edge24" class="edge"><title>46+47&#45;&gt;49</title>
<path fill="none" stroke="black" d="M314.898,-439.742C318.091,-435.272 329.404,-419.435 342.515,-401.079"/>
</g>
<!-- 53+54&#45;&gt;55 -->
<g id="edge25" class="edge"><title>53+54&#45;&gt;55</title>
<path fill="none" stroke="black" d="M891.263,-440.884C871.57,-439.55 690.208,-426.729 642,-404 638.75,-402.468 635.537,-400.765 632.371,-398.925"/>
</g>
<!-- 53+54&#45;&gt;56 -->
<g id="edge26" class="edge"><title>53+54&#45;&gt;56</title>
<path fill="none" stroke="black" d="M891.791,-440.6C884.165,-438.049 842.085,-423.528 812,-404 809.029,-402.071 806.055,-400.043 803.094,-397.939"/>
</g>
<!-- 53+54&#45;&gt;57 -->
<g id="edge27" class="edge"><title>53+54&#45;&gt;57</title>
<path fill="none" stroke="black" d="M893.034,-439.742C893.15,-435.392 893.555,-420.278 894.03,-402.554"/>
</g>
<!-- 53+54&#45;&gt;58 -->
<g id="edge28" class="edge"><title>53+54&#45;&gt;58</title>
<path fill="none" stroke="black" d="M894.299,-440.638C902.491,-438.317 947.651,-424.957 979,-404 982.879,-401.407 986.734,-398.606 990.534,-395.661"/>
</g>
<!-- 61+62&#45;&gt;63 -->
<g id="edge33" class="edge"><title>61+62&#45;&gt;63</title>
<path fill="none" stroke="black" d="M1654.58,-439.742C1656.77,-435.032 1664.82,-417.699 1673.92,-398.098"/>
</g>
<!-- 65+66&#45;&gt;67 -->
<g id="edge34" class="edge"><title>65+66&#45;&gt;67</title>
<path fill="none" stroke="black" stroke-dasharray="5,2" d="M1834,-439.742C1834,-432.629 1834,-396.727 1834,-367.701"/>
</g>
<!-- 48+49&#45;&gt;50 -->
<g id="edge35" class="edge"><title>48+49&#45;&gt;50</title>
<path fill="none" stroke="black" stroke-dasharray="5,2" d="M312.596,-212.66C303.74,-210.472 254.923,-197.782 221,-176 217.781,-173.933 214.578,-171.743 211.402,-169.455"/>
</g>
<!-- 48+49&#45;&gt;51 -->
<g id="edge36" class="edge"><title>48+49&#45;&gt;51</title>
<path fill="none" stroke="black" stroke-dasharray="5,2" d="M314,-211.607C314,-206.924 314,-190.973 314,-172.054"/>
</g>
<!-- 48+49&#45;&gt;52 -->
<g id="edge37" class="edge"><title>48+49&#45;&gt;52</title>
<path fill="none" stroke="black" stroke-dasharray="5,2" d="M315.379,-212.64C324.074,-210.329 372.038,-197.019 406,-176 409.482,-173.845 412.959,-171.563 416.415,-169.182"/>
</g>
<!-- 243+244&#45;&gt;245 -->
<g id="edge38" class="edge"><title>243+244&#45;&gt;245</title>
<path fill="none" stroke="black" d="M1569.59,-212.208C1566.7,-206.598 1548.93,-172.176 1532.91,-141.138"/>
</g>
<!-- 243+244&#45;&gt;246 -->
<g id="edge39" class="edge"><title>243+244&#45;&gt;246</title>
<path fill="none" stroke="black" d="M1570.41,-212.208C1573.2,-206.804 1589.78,-174.668 1605.32,-144.573"/>
</g>
<!-- 60+59&#45;&gt;243 -->
<g id="edge29" class="edge"><title>60+59&#45;&gt;243</title>
<path fill="none" stroke="black" d="M1319.58,-440.475C1312.08,-437.653 1276.49,-423.675 1253,-404 1244.43,-396.827 1236.24,-388.271 1228.82,-379.548"/>
</g>
<!-- 60+59&#45;&gt;247 -->
<g id="edge30" class="edge"><title>60+59&#45;&gt;247</title>
<path fill="none" stroke="black" d="M1320.97,-439.742C1320.81,-433.902 1320.13,-408.661 1319.47,-383.749"/>
</g>
<!-- 60+59&#45;&gt;249 -->
<g id="edge31" class="edge"><title>60+59&#45;&gt;249</title>
<path fill="none" stroke="black" d="M1322.28,-440.447C1329.02,-437.483 1361.01,-422.897 1382,-404 1391.36,-395.573 1400.24,-385.431 1408.09,-375.367"/>
</g>
<!-- 60+59&#45;&gt;250 -->
<g id="edge32" class="edge"><title>60+59&#45;&gt;250</title>
<path fill="none" stroke="black" d="M1322.52,-441.027C1335.69,-441.199 1431.56,-441.116 1495,-404 1503.83,-398.833 1512.1,-392.063 1519.59,-384.705"/>
</g>
</g>
</svg>
