<?xml version="1.0" encoding="UTF-8" standalone="no"?>
<!DOCTYPE svg PUBLIC "-//W3C//DTD SVG 1.1//EN"
 "http://www.w3.org/Graphics/SVG/1.1/DTD/svg11.dtd">
<!-- Generated by graphviz version 2.36.0 (20140111.2315)
 -->
<!-- Title: family Pages: 1 -->
<svg width="491pt" height="356pt"
 viewBox="0.00 0.00 491.00 356.00" xmlns="http://www.w3.org/2000/svg" xmlns:xlink="http://www.w3.org/1999/xlink">
<g id="graph0" class="graph" transform="scale(1 1) rotate(0) translate(4 352)">
<title>family</title>
<polygon fill="white" stroke="none" points="-4,4 -4,-352 487,-352 487,4 -4,4"/>
<!-- 72 -->
<g id="node1" class="node"><title>72</title>
<g id="a_node1"><a xlink:href="http://awoiaf.westeros.org/index.php/Alys_Arryn" xlink:title="Alys Arryn\n218&#45;???" target="_blank">
<polygon fill="none" stroke="black" points="185.25,-330.5 92.75,-330.5 92.75,-237.5 185.25,-237.5 185.25,-330.5"/>
<text text-anchor="middle" x="139" y="-287.8" font-family="Times,serif" font-size="14.00">Alys Arryn</text>
<text text-anchor="middle" x="139" y="-272.8" font-family="Times,serif" font-size="14.00">218&#45;???</text>
</a>
</g>
</g>
<!-- 73+72 -->
<g id="node7" class="node"><title>73+72</title>
<ellipse fill="black" stroke="black" cx="203" cy="-182" rx="1.8" ry="1.8"/>
</g>
<!-- 72&#45;&gt;73+72 -->
<g id="edge2" class="edge"><title>72&#45;&gt;73+72</title>
<path fill="none" stroke="black" d="M168.191,-237.39C182.96,-214.312 198.534,-189.978 202.197,-184.255"/>
</g>
<!-- 73 -->
<g id="node2" class="node"><title>73</title>
<g id="a_node2"><a xlink:href="http://awoiaf.westeros.org/index.php/Elys_Waynwood" xlink:title="Elys Waynwood\n???&#45;???" target="_blank">
<polygon fill="none" stroke="black" points="332,-348 204,-348 204,-220 332,-220 332,-348"/>
<text text-anchor="middle" x="268" y="-287.8" font-family="Times,serif" font-size="14.00">Elys Waynwood</text>
<text text-anchor="middle" x="268" y="-272.8" font-family="Times,serif" font-size="14.00">???&#45;???</text>
</a>
</g>
</g>
<!-- 73&#45;&gt;73+72 -->
<g id="edge1" class="edge"><title>73&#45;&gt;73+72</title>
<path fill="none" stroke="black" d="M227.019,-219.952C215.662,-202.48 205.79,-187.292 203.5,-183.769"/>
</g>
<!-- 74 -->
<g id="node3" class="node"><title>74</title>
<polygon fill="none" stroke="black" points="83.5,-114 0.5,-114 0.5,-30 83.5,-30 83.5,-114"/>
<text text-anchor="middle" x="42" y="-75.8" font-family="Times,serif" font-size="14.00">Daughter</text>
<text text-anchor="middle" x="42" y="-60.8" font-family="Times,serif" font-size="14.00">???&#45;???</text>
</g>
<!-- 77 -->
<g id="node4" class="node"><title>77</title>
<polygon fill="none" stroke="black" points="185.5,-114 102.5,-114 102.5,-30 185.5,-30 185.5,-114"/>
<text text-anchor="middle" x="144" y="-75.8" font-family="Times,serif" font-size="14.00">Daughter</text>
<text text-anchor="middle" x="144" y="-60.8" font-family="Times,serif" font-size="14.00">???&#45;???</text>
</g>
<!-- 84 -->
<g id="node5" class="node"><title>84</title>
<polygon fill="none" stroke="black" points="322,-131 204,-131 204,-13 322,-13 322,-131"/>
<text text-anchor="middle" x="263" y="-75.8" font-family="Times,serif" font-size="14.00">Six Daughters</text>
<text text-anchor="middle" x="263" y="-60.8" font-family="Times,serif" font-size="14.00">???&#45;???</text>
</g>
<!-- 85 -->
<g id="node6" class="node"><title>85</title>
<g id="a_node6"><a xlink:href="http://awoiaf.westeros.org/index.php/Jasper_Waynwood" xlink:title="Jasper Waynwood\n???&#45;???" target="_blank">
<polygon fill="none" stroke="black" points="483.25,-143.5 340.75,-143.5 340.75,-0.5 483.25,-0.5 483.25,-143.5"/>
<text text-anchor="middle" x="412" y="-75.8" font-family="Times,serif" font-size="14.00">Jasper Waynwood</text>
<text text-anchor="middle" x="412" y="-60.8" font-family="Times,serif" font-size="14.00">???&#45;???</text>
</a>
</g>
</g>
<!-- 73+72&#45;&gt;74 -->
<g id="edge3" class="edge"><title>73+72&#45;&gt;74</title>
<path fill="none" stroke="black" d="M201.543,-180.848C191.424,-179.728 130.924,-172.012 93,-144 82.2571,-136.065 72.8736,-125.196 65.1843,-114.347"/>
</g>
<!-- 73+72&#45;&gt;77 -->
<g id="edge4" class="edge"><title>73+72&#45;&gt;77</title>
<path fill="none" stroke="black" d="M202.337,-179.787C198.755,-173.229 181.31,-141.295 166.421,-114.042"/>
</g>
<!-- 73+72&#45;&gt;84 -->
<g id="edge5" class="edge"><title>73+72&#45;&gt;84</title>
<path fill="none" stroke="black" d="M203.674,-179.787C206.571,-174.573 218.378,-153.319 230.706,-131.129"/>
</g>
<!-- 73+72&#45;&gt;85 -->
<g id="edge6" class="edge"><title>73+72&#45;&gt;85</title>
<path fill="none" stroke="black" d="M204.621,-180.803C215.893,-179.379 283.512,-169.977 331,-144 334.117,-142.295 337.218,-140.452 340.287,-138.501"/>
</g>
</g>
</svg>
