<?xml version="1.0" encoding="UTF-8" standalone="no"?>
<!DOCTYPE svg PUBLIC "-//W3C//DTD SVG 1.1//EN"
 "http://www.w3.org/Graphics/SVG/1.1/DTD/svg11.dtd">
<!-- Generated by graphviz version 2.36.0 (20140111.2315)
 -->
<!-- Title:   Pages: 1 -->
<svg width="1430pt" height="1224pt"
 viewBox="0.00 0.00 1430.00 1224.00" xmlns="http://www.w3.org/2000/svg" xmlns:xlink="http://www.w3.org/1999/xlink">
<g id="graph0" class="graph" transform="scale(1 1) rotate(0) translate(4 1220)">
<title> </title>
<polygon fill="white" stroke="none" points="-4,4 -4,-1220 1426,-1220 1426,4 -4,4"/>
<!-- 184 -->
<g id="node1" class="node"><title>184</title>
<g id="a_node1"><a xlink:href="/character/display?id=Willam_Stark" xlink:title="Willam Stark" target="_blank">
<polygon fill="white" stroke="black" points="968.25,-997.5 849.75,-997.5 849.75,-878.5 968.25,-878.5 968.25,-997.5"/>
</a>
</g>
<g id="a_node1_0"><a xlink:href="http://awoiaf.westeros.org/index.php/Willam_Stark" xlink:title="Willam Stark" target="_blank">
<text text-anchor="start" x="862.5" y="-941.3" font-family="Times,serif" font-size="14.00">Willam Stark</text>
<text text-anchor="start" x="882" y="-926.3" font-family="Times,serif" font-size="14.00">???&#45;226</text>
</a>
</g>
<g><a xlink:href="/character/display?id=Willam_Stark" xlink:title="Willam Stark" target="_blank">
</a>
</g>
</g>
<!-- 184+185 -->
<g id="node28" class="node"><title>184+185</title>
<g id="a_node28"><a xlink:title=" ">
<ellipse fill="black" stroke="black" cx="778" cy="-812" rx="1.8" ry="1.8"/>
</a>
</g>
</g>
<!-- 184&#45;&gt;184+185 -->
<g id="edge1" class="edge"><title>184&#45;&gt;184+185</title>
<g id="a_edge1"><a xlink:title=" ">
<path fill="none" stroke="black" d="M867.213,-878.217C858.796,-868.224 849.573,-858.382 840,-850 818.498,-831.173 786.117,-816.533 779.291,-813.555"/>
</a>
</g>
</g>
<!-- 184+187 -->
<g id="node29" class="node"><title>184+187</title>
<g id="a_node29"><a xlink:title=" ">
<ellipse fill="black" stroke="black" cx="1071" cy="-812" rx="1.8" ry="1.8"/>
</a>
</g>
</g>
<!-- 184&#45;&gt;184+187 -->
<g id="edge3" class="edge"><title>184&#45;&gt;184+187</title>
<g id="a_edge3"><a xlink:title=" ">
<path fill="none" stroke="black" d="M948.578,-878.261C957.394,-867.917 967.326,-857.938 978,-850 1010.35,-825.942 1060.45,-815.101 1069.55,-813.28"/>
</a>
</g>
</g>
<!-- 180 -->
<g id="node2" class="node"><title>180</title>
<g id="a_node2"><a xlink:href="/character/display?id=Beron_Stark" xlink:title="Beron Stark" target="_blank">
<polygon fill="white" stroke="black" points="899.5,-1215 788.5,-1215 788.5,-1103 899.5,-1103 899.5,-1215"/>
</a>
</g>
<g id="a_node2_1"><a xlink:href="http://awoiaf.westeros.org/index.php/Beron_Stark" xlink:title="Beron Stark" target="_blank">
<text text-anchor="start" x="800.5" y="-1162.3" font-family="Times,serif" font-size="14.00">Beron Stark</text>
<text text-anchor="start" x="819" y="-1147.3" font-family="Times,serif" font-size="14.00">???&#45;???</text>
</a>
</g>
<g><a xlink:href="/character/display?id=Beron_Stark" xlink:title="Beron Stark" target="_blank">
</a>
</g>
</g>
<!-- 180+181 -->
<g id="node30" class="node"><title>180+181</title>
<g id="a_node30"><a xlink:title=" ">
<ellipse fill="black" stroke="black" cx="909" cy="-1064" rx="1.8" ry="1.8"/>
</a>
</g>
</g>
<!-- 180&#45;&gt;180+181 -->
<g id="edge5" class="edge"><title>180&#45;&gt;180+181</title>
<g id="a_edge5"><a xlink:title=" ">
<path fill="none" stroke="black" d="M882.562,-1102.83C894.809,-1085.3 905.865,-1069.48 908.438,-1065.8"/>
</a>
</g>
</g>
<!-- 181 -->
<g id="node3" class="node"><title>181</title>
<g id="a_node3"><a xlink:href="/character/display?id=Lorra_Royce" xlink:title="Lorra Royce" target="_blank">
<polygon fill="white" stroke="black" points="1031.25,-1215.5 918.75,-1215.5 918.75,-1102.5 1031.25,-1102.5 1031.25,-1215.5"/>
</a>
</g>
<g id="a_node3_2"><a xlink:href="http://awoiaf.westeros.org/index.php/Lorra_Royce" xlink:title="Lorra Royce" target="_blank">
<text text-anchor="start" x="931.5" y="-1162.3" font-family="Times,serif" font-size="14.00">Lorra Royce</text>
<text text-anchor="start" x="950.5" y="-1147.3" font-family="Times,serif" font-size="14.00">???&#45;???</text>
</a>
</g>
<g><a xlink:href="/character/display?id=Lorra_Royce" xlink:title="Lorra Royce" target="_blank">
</a>
</g>
</g>
<!-- 181&#45;&gt;180+181 -->
<g id="edge6" class="edge"><title>181&#45;&gt;180+181</title>
<g id="a_edge6"><a xlink:title=" ">
<path fill="none" stroke="black" d="M935.464,-1102.29C923.165,-1084.96 912.128,-1069.41 909.561,-1065.79"/>
</a>
</g>
</g>
<!-- 186 -->
<g id="node4" class="node"><title>186</title>
<g id="a_node4"><a xlink:href="/character/display?id=Brandon_Stark_(son_of_Willam)" xlink:title="Brandon Stark" target="_blank">
<polygon fill="white" stroke="black" points="843,-770 713,-770 713,-640 843,-640 843,-770"/>
</a>
</g>
<g id="a_node4_3"><a xlink:href="http://awoiaf.westeros.org/index.php/Brandon_Stark_(son_of_Willam)" xlink:title="Brandon Stark" target="_blank">
<text text-anchor="start" x="725.5" y="-708.3" font-family="Times,serif" font-size="14.00">Brandon Stark</text>
<text text-anchor="start" x="753" y="-693.3" font-family="Times,serif" font-size="14.00">???&#45;???</text>
</a>
</g>
<g><a xlink:href="/character/display?id=Brandon_Stark_(son_of_Willam)" xlink:title="Brandon Stark" target="_blank">
</a>
</g>
</g>
<!-- 188 -->
<g id="node5" class="node"><title>188</title>
<g id="a_node5"><a xlink:href="/character/display?id=Edwyle_Stark" xlink:title="Edwyle Stark" target="_blank">
<polygon fill="white" stroke="black" points="1126,-766 1004,-766 1004,-644 1126,-644 1126,-766"/>
</a>
</g>
<g id="a_node5_4"><a xlink:href="http://awoiaf.westeros.org/index.php/Edwyle_Stark" xlink:title="Edwyle Stark" target="_blank">
<text text-anchor="start" x="1016.5" y="-708.3" font-family="Times,serif" font-size="14.00">Edwyle Stark</text>
<text text-anchor="start" x="1040" y="-693.3" font-family="Times,serif" font-size="14.00">???&#45;???</text>
</a>
</g>
<g><a xlink:href="/character/display?id=Edwyle_Stark" xlink:title="Edwyle Stark" target="_blank">
</a>
</g>
</g>
<!-- 188+189 -->
<g id="node31" class="node"><title>188+189</title>
<g id="a_node31"><a xlink:title=" ">
<ellipse fill="black" stroke="black" cx="973" cy="-598" rx="1.8" ry="1.8"/>
</a>
</g>
</g>
<!-- 188&#45;&gt;188+189 -->
<g id="edge7" class="edge"><title>188&#45;&gt;188+189</title>
<g id="a_edge7"><a xlink:title=" ">
<path fill="none" stroke="black" d="M1012.28,-643.834C994.297,-623.306 977.71,-604.376 973.845,-599.964"/>
</a>
</g>
</g>
<!-- 190 -->
<g id="node6" class="node"><title>190</title>
<g id="a_node6"><a xlink:href="/character/display?id=Jocelyn_Stark" xlink:title="Jocelyn Stark" target="_blank">
<polygon fill="white" stroke="black" points="1422,-766 1300,-766 1300,-644 1422,-644 1422,-766"/>
</a>
</g>
<g id="a_node6_5"><a xlink:href="http://awoiaf.westeros.org/index.php/Jocelyn_Stark" xlink:title="Jocelyn Stark" target="_blank">
<text text-anchor="start" x="1312.5" y="-708.3" font-family="Times,serif" font-size="14.00">Jocelyn Stark</text>
<text text-anchor="start" x="1336" y="-693.3" font-family="Times,serif" font-size="14.00">???&#45;???</text>
</a>
</g>
<g><a xlink:href="/character/display?id=Jocelyn_Stark" xlink:title="Jocelyn Stark" target="_blank">
</a>
</g>
</g>
<!-- 191+190 -->
<g id="node35" class="node"><title>191+190</title>
<g id="a_node35"><a xlink:title=" ">
<ellipse fill="black" stroke="black" cx="1258" cy="-598" rx="1.8" ry="1.8"/>
</a>
</g>
</g>
<!-- 190&#45;&gt;191+190 -->
<g id="edge16" class="edge"><title>190&#45;&gt;191+190</title>
<g id="a_edge16"><a xlink:title=" ">
<path fill="none" stroke="black" d="M1301.98,-643.834C1281.84,-623.306 1263.27,-604.376 1258.95,-599.964"/>
</a>
</g>
</g>
<!-- 10 -->
<g id="node7" class="node"><title>10</title>
<g id="a_node7"><a xlink:href="/character/display?id=Rickard_Stark" xlink:title="Rickard Stark" target="_blank">
<polygon fill="white" stroke="black" points="1035.25,-559.5 910.75,-559.5 910.75,-434.5 1035.25,-434.5 1035.25,-559.5"/>
</a>
</g>
<g id="a_node7_6"><a xlink:href="http://awoiaf.westeros.org/index.php/Rickard_Stark" xlink:title="Rickard Stark" target="_blank">
<text text-anchor="start" x="923.5" y="-500.3" font-family="Times,serif" font-size="14.00">Rickard Stark</text>
<text text-anchor="start" x="944" y="-485.3" font-family="Times,serif" font-size="14.00">230&#45;282</text>
</a>
</g>
<g><a xlink:href="/character/display?id=Rickard_Stark" xlink:title="Rickard Stark" target="_blank">
</a>
</g>
</g>
<!-- 10+11 -->
<g id="node32" class="node"><title>10+11</title>
<g id="a_node32"><a xlink:title=" ">
<ellipse fill="black" stroke="black" cx="903" cy="-396" rx="1.8" ry="1.8"/>
</a>
</g>
</g>
<!-- 10&#45;&gt;10+11 -->
<g id="edge9" class="edge"><title>10&#45;&gt;10+11</title>
<g id="a_edge9"><a xlink:title=" ">
<path fill="none" stroke="black" d="M929.464,-434.428C917.008,-416.812 906.089,-401.368 903.553,-397.782"/>
</a>
</g>
</g>
<!-- 192 -->
<g id="node8" class="node"><title>192</title>
<g id="a_node8"><a xlink:title="Daughter" target="_blank">
<polygon fill="white" stroke="black" points="1193.25,-543.5 1100.75,-543.5 1100.75,-450.5 1193.25,-450.5 1193.25,-543.5"/>
<text text-anchor="start" x="1113.5" y="-500.3" font-family="Times,serif" font-size="14.00">Daughter</text>
<text text-anchor="start" x="1122.5" y="-485.3" font-family="Times,serif" font-size="14.00">???&#45;???</text>
</a>
</g>
</g>
<!-- 194 -->
<g id="node9" class="node"><title>194</title>
<g id="a_node9"><a xlink:title="Daughter" target="_blank">
<polygon fill="white" stroke="black" points="1304.25,-543.5 1211.75,-543.5 1211.75,-450.5 1304.25,-450.5 1304.25,-543.5"/>
<text text-anchor="start" x="1224.5" y="-500.3" font-family="Times,serif" font-size="14.00">Daughter</text>
<text text-anchor="start" x="1233.5" y="-485.3" font-family="Times,serif" font-size="14.00">???&#45;???</text>
</a>
</g>
</g>
<!-- 196 -->
<g id="node10" class="node"><title>196</title>
<g id="a_node10"><a xlink:title="Daughter" target="_blank">
<polygon fill="white" stroke="black" points="1415.25,-543.5 1322.75,-543.5 1322.75,-450.5 1415.25,-450.5 1415.25,-543.5"/>
<text text-anchor="start" x="1335.5" y="-500.3" font-family="Times,serif" font-size="14.00">Daughter</text>
<text text-anchor="start" x="1344.5" y="-485.3" font-family="Times,serif" font-size="14.00">???&#45;???</text>
</a>
</g>
</g>
<!-- 1 -->
<g id="node11" class="node"><title>1</title>
<g id="a_node11"><a xlink:href="/character/display?id=Eddard_Stark" xlink:title="Eddard Stark" target="_blank">
<polygon fill="white" stroke="black" points="585,-343 463,-343 463,-221 585,-221 585,-343"/>
</a>
</g>
<g id="a_node11_10"><a xlink:href="http://awoiaf.westeros.org/index.php/Eddard_Stark" xlink:title="Eddard Stark" target="_blank">
<text text-anchor="start" x="475.5" y="-285.3" font-family="Times,serif" font-size="14.00">Eddard Stark</text>
<text text-anchor="start" x="494.5" y="-270.3" font-family="Times,serif" font-size="14.00">263&#45;299</text>
</a>
</g>
<g><a xlink:href="/character/display?id=Eddard_Stark" xlink:title="Eddard Stark" target="_blank">
</a>
</g>
</g>
<!-- 1+2 -->
<g id="node33" class="node"><title>1+2</title>
<g id="a_node33"><a xlink:title=" ">
<ellipse fill="black" stroke="black" cx="331" cy="-168" rx="1.8" ry="1.8"/>
</a>
</g>
</g>
<!-- 1&#45;&gt;1+2 -->
<g id="edge11" class="edge"><title>1&#45;&gt;1+2</title>
<g id="a_edge11"><a xlink:title=" ">
<path fill="none" stroke="black" d="M462.877,-243.172C442.958,-231.076 420.655,-217.774 400,-206 373.076,-190.652 339.379,-173.294 332.329,-169.68"/>
</a>
</g>
</g>
<!-- 1+9 -->
<g id="node34" class="node"><title>1+9</title>
<g id="a_node34"><a xlink:title=" ">
<ellipse fill="black" stroke="black" cx="679" cy="-168" rx="1.8" ry="1.8"/>
</a>
</g>
</g>
<!-- 1&#45;&gt;1+9 -->
<g id="edge13" class="edge"><title>1&#45;&gt;1+9</title>
<g id="a_edge13"><a xlink:title=" ">
<path fill="none" stroke="black" stroke-dasharray="5,2" d="M575.749,-220.817C581.617,-215.471 587.745,-210.42 594,-206 624.493,-184.45 669.527,-171.572 677.703,-169.346"/>
</a>
</g>
</g>
<!-- 14 -->
<g id="node12" class="node"><title>14</title>
<g id="a_node12"><a xlink:href="/character/display?id=Lyanna_Stark" xlink:title="Lyanna Stark" target="_blank">
<polygon fill="white" stroke="black" points="895,-343 773,-343 773,-221 895,-221 895,-343"/>
</a>
</g>
<g id="a_node12_11"><a xlink:href="http://awoiaf.westeros.org/index.php/Lyanna_Stark" xlink:title="Lyanna Stark" target="_blank">
<text text-anchor="start" x="785.5" y="-285.3" font-family="Times,serif" font-size="14.00">Lyanna Stark</text>
<text text-anchor="start" x="804.5" y="-270.3" font-family="Times,serif" font-size="14.00">266&#45;283</text>
</a>
</g>
<g><a xlink:href="/character/display?id=Lyanna_Stark" xlink:title="Lyanna Stark" target="_blank">
</a>
</g>
</g>
<!-- 15 -->
<g id="node13" class="node"><title>15</title>
<g id="a_node13"><a xlink:href="/character/display?id=Benjen_Stark" xlink:title="Benjen Stark" target="_blank">
<polygon fill="white" stroke="black" points="1032.25,-341.5 913.75,-341.5 913.75,-222.5 1032.25,-222.5 1032.25,-341.5"/>
</a>
</g>
<g id="a_node13_12"><a xlink:href="http://awoiaf.westeros.org/index.php/Benjen_Stark" xlink:title="Benjen Stark" target="_blank">
<text text-anchor="start" x="926.5" y="-285.3" font-family="Times,serif" font-size="14.00">Benjen Stark</text>
<text text-anchor="start" x="957.5" y="-270.3" font-family="Times,serif" font-size="14.00">267&#45;</text>
</a>
</g>
<g><a xlink:href="/character/display?id=Benjen_Stark" xlink:title="Benjen Stark" target="_blank">
</a>
</g>
</g>
<!-- 16 -->
<g id="node14" class="node"><title>16</title>
<g id="a_node14"><a xlink:href="/character/display?id=Brandon_Stark" xlink:title="Brandon Stark" target="_blank">
<polygon fill="white" stroke="black" points="1181,-347 1051,-347 1051,-217 1181,-217 1181,-347"/>
</a>
</g>
<g id="a_node14_13"><a xlink:href="http://awoiaf.westeros.org/index.php/Brandon_Stark" xlink:title="Brandon Stark" target="_blank">
<text text-anchor="start" x="1063.5" y="-285.3" font-family="Times,serif" font-size="14.00">Brandon Stark</text>
<text text-anchor="start" x="1086.5" y="-270.3" font-family="Times,serif" font-size="14.00">262&#45;282</text>
</a>
</g>
<g><a xlink:href="/character/display?id=Brandon_Stark" xlink:title="Brandon Stark" target="_blank">
</a>
</g>
</g>
<!-- 3 -->
<g id="node15" class="node"><title>3</title>
<g id="a_node15"><a xlink:href="/character/display?id=Robb_Stark" xlink:title="Robb Stark" target="_blank">
<polygon fill="white" stroke="black" points="105.5,-118 0.5,-118 0.5,-12 105.5,-12 105.5,-118"/>
</a>
</g>
<g id="a_node15_14"><a xlink:href="http://awoiaf.westeros.org/index.php/Robb_Stark" xlink:title="Robb Stark" target="_blank">
<text text-anchor="start" x="12.5" y="-68.3" font-family="Times,serif" font-size="14.00">Robb Stark</text>
<text text-anchor="start" x="23.5" y="-53.3" font-family="Times,serif" font-size="14.00">283&#45;299</text>
</a>
</g>
<g><a xlink:href="/character/display?id=Robb_Stark" xlink:title="Robb Stark" target="_blank">
</a>
</g>
</g>
<!-- 4 -->
<g id="node16" class="node"><title>4</title>
<g id="a_node16"><a xlink:href="/character/display?id=Sansa_Stark" xlink:title="Sansa Stark" target="_blank">
<polygon fill="white" stroke="black" points="234.25,-120.5 123.75,-120.5 123.75,-9.5 234.25,-9.5 234.25,-120.5"/>
</a>
</g>
<g id="a_node16_15"><a xlink:href="http://awoiaf.westeros.org/index.php/Sansa_Stark" xlink:title="Sansa Stark" target="_blank">
<text text-anchor="start" x="136.5" y="-68.3" font-family="Times,serif" font-size="14.00">Sansa Stark</text>
<text text-anchor="start" x="163.5" y="-53.3" font-family="Times,serif" font-size="14.00">286&#45;</text>
</a>
</g>
<g><a xlink:href="/character/display?id=Sansa_Stark" xlink:title="Sansa Stark" target="_blank">
</a>
</g>
</g>
<!-- 5 -->
<g id="node17" class="node"><title>5</title>
<g id="a_node17"><a xlink:href="/character/display?id=Arya_Stark" xlink:title="Arya Stark" target="_blank">
<polygon fill="white" stroke="black" points="355.25,-116.5 252.75,-116.5 252.75,-13.5 355.25,-13.5 355.25,-116.5"/>
</a>
</g>
<g id="a_node17_16"><a xlink:href="http://awoiaf.westeros.org/index.php/Arya_Stark" xlink:title="Arya Stark" target="_blank">
<text text-anchor="start" x="265.5" y="-68.3" font-family="Times,serif" font-size="14.00">Arya Stark</text>
<text text-anchor="start" x="288.5" y="-53.3" font-family="Times,serif" font-size="14.00">289&#45;</text>
</a>
</g>
<g><a xlink:href="/character/display?id=Arya_Stark" xlink:title="Arya Stark" target="_blank">
</a>
</g>
</g>
<!-- 6 -->
<g id="node18" class="node"><title>6</title>
<g id="a_node18"><a xlink:href="/character/display?id=Bran_Stark" xlink:title="Brandon Stark" target="_blank">
<polygon fill="white" stroke="black" points="504,-130 374,-130 374,-0 504,-0 504,-130"/>
</a>
</g>
<g id="a_node18_17"><a xlink:href="http://awoiaf.westeros.org/index.php/Bran_Stark" xlink:title="Brandon Stark" target="_blank">
<text text-anchor="start" x="386.5" y="-68.3" font-family="Times,serif" font-size="14.00">Brandon Stark</text>
<text text-anchor="start" x="423" y="-53.3" font-family="Times,serif" font-size="14.00">290&#45;</text>
</a>
</g>
<g><a xlink:href="/character/display?id=Bran_Stark" xlink:title="Brandon Stark" target="_blank">
</a>
</g>
</g>
<!-- 7 -->
<g id="node19" class="node"><title>7</title>
<g id="a_node19"><a xlink:href="/character/display?id=Rickon_Stark" xlink:title="Rickon Stark" target="_blank">
<polygon fill="white" stroke="black" points="641.25,-124.5 522.75,-124.5 522.75,-5.5 641.25,-5.5 641.25,-124.5"/>
</a>
</g>
<g id="a_node19_18"><a xlink:href="http://awoiaf.westeros.org/index.php/Rickon_Stark" xlink:title="Rickon Stark" target="_blank">
<text text-anchor="start" x="535.5" y="-68.3" font-family="Times,serif" font-size="14.00">Rickon Stark</text>
<text text-anchor="start" x="566.5" y="-53.3" font-family="Times,serif" font-size="14.00">295&#45;</text>
</a>
</g>
<g><a xlink:href="/character/display?id=Rickon_Stark" xlink:title="Rickon Stark" target="_blank">
</a>
</g>
</g>
<!-- 8 -->
<g id="node20" class="node"><title>8</title>
<g id="a_node20"><a xlink:href="/character/display?id=Jon_Snow" xlink:title="Jon Snow" target="_blank">
<polygon fill="white" stroke="black" points="752,-111 660,-111 660,-19 752,-19 752,-111"/>
</a>
</g>
<g id="a_node20_19"><a xlink:href="http://awoiaf.westeros.org/index.php/Jon_Snow" xlink:title="Jon Snow" target="_blank">
<text text-anchor="start" x="672.5" y="-68.3" font-family="Times,serif" font-size="14.00">Jon Snow</text>
<text text-anchor="start" x="690" y="-53.3" font-family="Times,serif" font-size="14.00">283&#45;</text>
</a>
</g>
<g><a xlink:href="/character/display?id=Jon_Snow" xlink:title="Jon Snow" target="_blank">
</a>
</g>
</g>
<!-- 185 -->
<g id="node21" class="node"><title>185</title>
<g id="a_node21"><a xlink:href="/character/display?id=Lyanne_Glover" xlink:title="Lyanne Glover" target="_blank">
<polygon fill="white" stroke="black" points="831,-1003 701,-1003 701,-873 831,-873 831,-1003"/>
</a>
</g>
<g id="a_node21_20"><a xlink:href="http://awoiaf.westeros.org/index.php/Lyanne_Glover" xlink:title="Lyanne Glover" target="_blank">
<text text-anchor="start" x="713.5" y="-941.3" font-family="Times,serif" font-size="14.00">Lyanne Glover</text>
<text text-anchor="start" x="741" y="-926.3" font-family="Times,serif" font-size="14.00">???&#45;???</text>
</a>
</g>
<g><a xlink:href="/character/display?id=Lyanne_Glover" xlink:title="Lyanne Glover" target="_blank">
</a>
</g>
</g>
<!-- 185&#45;&gt;184+185 -->
<g id="edge2" class="edge"><title>185&#45;&gt;184+185</title>
<g id="a_edge2"><a xlink:title=" ">
<path fill="none" stroke="black" d="M772.211,-872.821C774.773,-846.346 777.284,-820.402 777.871,-814.329"/>
</a>
</g>
</g>
<!-- 187 -->
<g id="node22" class="node"><title>187</title>
<g id="a_node22"><a xlink:href="/character/display?id=Melantha_Blackwood" xlink:title="Melantha Blackwood" target="_blank">
<polygon fill="white" stroke="black" points="1162.5,-1026 987.5,-1026 987.5,-850 1162.5,-850 1162.5,-1026"/>
</a>
</g>
<g id="a_node22_21"><a xlink:href="http://awoiaf.westeros.org/index.php/Melantha_Blackwood" xlink:title="Melantha Blackwood" target="_blank">
<text text-anchor="start" x="999.5" y="-941.3" font-family="Times,serif" font-size="14.00">Melantha Blackwood</text>
<text text-anchor="start" x="1050" y="-926.3" font-family="Times,serif" font-size="14.00">???&#45;???</text>
</a>
</g>
<g><a xlink:href="/character/display?id=Melantha_Blackwood" xlink:title="Melantha Blackwood" target="_blank">
</a>
</g>
</g>
<!-- 187&#45;&gt;184+187 -->
<g id="edge4" class="edge"><title>187&#45;&gt;184+187</title>
<g id="a_edge4"><a xlink:title=" ">
<path fill="none" stroke="black" d="M1072.19,-849.868C1071.63,-832.42 1071.17,-818.169 1071.04,-814.141"/>
</a>
</g>
</g>
<!-- 189 -->
<g id="node23" class="node"><title>189</title>
<g id="a_node23"><a xlink:href="/character/display?id=Marna_Locke" xlink:title="Marna Locke" target="_blank">
<polygon fill="white" stroke="black" points="985.25,-765.5 864.75,-765.5 864.75,-644.5 985.25,-644.5 985.25,-765.5"/>
</a>
</g>
<g id="a_node23_22"><a xlink:href="http://awoiaf.westeros.org/index.php/Marna_Locke" xlink:title="Marna Locke" target="_blank">
<text text-anchor="start" x="877.5" y="-708.3" font-family="Times,serif" font-size="14.00">Marna Locke</text>
<text text-anchor="start" x="900.5" y="-693.3" font-family="Times,serif" font-size="14.00">???&#45;???</text>
</a>
</g>
<g><a xlink:href="/character/display?id=Marna_Locke" xlink:title="Marna Locke" target="_blank">
</a>
</g>
</g>
<!-- 189&#45;&gt;188+189 -->
<g id="edge8" class="edge"><title>189&#45;&gt;188+189</title>
<g id="a_edge8"><a xlink:title=" ">
<path fill="none" stroke="black" d="M952.226,-644.444C961.705,-623.707 970.501,-604.467 972.552,-599.981"/>
</a>
</g>
</g>
<!-- 191 -->
<g id="node24" class="node"><title>191</title>
<g id="a_node24"><a xlink:href="/character/display?id=Benedict_Royce" xlink:title="Benedict Royce" target="_blank">
<polygon fill="white" stroke="black" points="1281.25,-773.5 1144.75,-773.5 1144.75,-636.5 1281.25,-636.5 1281.25,-773.5"/>
</a>
</g>
<g id="a_node24_23"><a xlink:href="http://awoiaf.westeros.org/index.php/Benedict_Royce" xlink:title="Benedict Royce" target="_blank">
<text text-anchor="start" x="1157.5" y="-708.3" font-family="Times,serif" font-size="14.00">Benedict Royce</text>
<text text-anchor="start" x="1188.5" y="-693.3" font-family="Times,serif" font-size="14.00">???&#45;???</text>
</a>
</g>
<g><a xlink:href="/character/display?id=Benedict_Royce" xlink:title="Benedict Royce" target="_blank">
</a>
</g>
</g>
<!-- 191&#45;&gt;191+190 -->
<g id="edge15" class="edge"><title>191&#45;&gt;191+190</title>
<g id="a_edge15"><a xlink:title=" ">
<path fill="none" stroke="black" d="M1242.01,-636.315C1249.63,-618.537 1256.16,-603.301 1257.67,-599.77"/>
</a>
</g>
</g>
<!-- 11 -->
<g id="node25" class="node"><title>11</title>
<g id="a_node25"><a xlink:href="/character/display?id=Lyarra_Stark" xlink:title="Lyarra Stark" target="_blank">
<polygon fill="white" stroke="black" points="892.25,-555.5 775.75,-555.5 775.75,-438.5 892.25,-438.5 892.25,-555.5"/>
</a>
</g>
<g id="a_node25_24"><a xlink:href="http://awoiaf.westeros.org/index.php/Lyarra_Stark" xlink:title="Lyarra Stark" target="_blank">
<text text-anchor="start" x="788.5" y="-500.3" font-family="Times,serif" font-size="14.00">Lyarra Stark</text>
<text text-anchor="start" x="809.5" y="-485.3" font-family="Times,serif" font-size="14.00">???&#45;???</text>
</a>
</g>
<g><a xlink:href="/character/display?id=Lyarra_Stark" xlink:title="Lyarra Stark" target="_blank">
</a>
</g>
</g>
<!-- 11&#45;&gt;10+11 -->
<g id="edge10" class="edge"><title>11&#45;&gt;10+11</title>
<g id="a_edge10"><a xlink:title=" ">
<path fill="none" stroke="black" d="M874.138,-438.411C887.42,-419.354 899.556,-401.942 902.382,-397.886"/>
</a>
</g>
</g>
<!-- 2 -->
<g id="node26" class="node"><title>2</title>
<g id="a_node26"><a xlink:href="/character/display?id=Catelyn_Stark" xlink:title="Catelyn Tully" target="_blank">
<polygon fill="white" stroke="black" points="391.25,-342.5 270.75,-342.5 270.75,-221.5 391.25,-221.5 391.25,-342.5"/>
</a>
</g>
<g id="a_node26_25"><a xlink:href="http://awoiaf.westeros.org/index.php/Catelyn_Stark" xlink:title="Catelyn Tully" target="_blank">
<text text-anchor="start" x="283.5" y="-285.3" font-family="Times,serif" font-size="14.00">Catelyn Tully</text>
<text text-anchor="start" x="302" y="-270.3" font-family="Times,serif" font-size="14.00">264&#45;299</text>
</a>
</g>
<g><a xlink:href="/character/display?id=Catelyn_Stark" xlink:title="Catelyn Tully" target="_blank">
</a>
</g>
</g>
<!-- 2&#45;&gt;1+2 -->
<g id="edge12" class="edge"><title>2&#45;&gt;1+2</title>
<g id="a_edge12"><a xlink:title=" ">
<path fill="none" stroke="black" d="M331,-221.393C331,-197.989 331,-175.429 331,-170.154"/>
</a>
</g>
</g>
<!-- 9 -->
<g id="node27" class="node"><title>9</title>
<g id="a_node27"><a xlink:title="Unknown Woman" target="_blank">
<polygon fill="white" stroke="black" points="754.25,-357.5 603.75,-357.5 603.75,-206.5 754.25,-206.5 754.25,-357.5"/>
<text text-anchor="start" x="616.5" y="-285.3" font-family="Times,serif" font-size="14.00">Unknown Woman</text>
<text text-anchor="start" x="654.5" y="-270.3" font-family="Times,serif" font-size="14.00">???&#45;???</text>
</a>
</g>
</g>
<!-- 9&#45;&gt;1+9 -->
<g id="edge14" class="edge"><title>9&#45;&gt;1+9</title>
<g id="a_edge14"><a xlink:title=" ">
<path fill="none" stroke="black" stroke-dasharray="5,2" d="M679,-206.294C679,-188.639 679,-173.786 679,-169.958"/>
</a>
</g>
</g>
<!-- 184+185&#45;&gt;186 -->
<g id="edge18" class="edge"><title>184+185&#45;&gt;186</title>
<path fill="none" stroke="black" d="M778,-809.821C778,-805.36 778,-788.822 778,-770.216"/>
</g>
<!-- 184+187&#45;&gt;188 -->
<g id="edge19" class="edge"><title>184+187&#45;&gt;188</title>
<path fill="none" stroke="black" d="M1070.93,-809.821C1070.66,-805.044 1069.6,-786.424 1068.44,-766.242"/>
</g>
<!-- 184+187&#45;&gt;190 -->
<g id="edge20" class="edge"><title>184+187&#45;&gt;190</title>
<path fill="none" stroke="black" d="M1072.88,-811.088C1089.18,-811.774 1208,-815.201 1290,-774 1294.58,-771.701 1299.05,-769.007 1303.39,-766.043"/>
</g>
<!-- 180+181&#45;&gt;184 -->
<g id="edge17" class="edge"><title>180+181&#45;&gt;184</title>
<path fill="none" stroke="black" d="M909,-1061.61C909,-1054.98 909,-1025.8 909,-997.573"/>
</g>
<!-- 188+189&#45;&gt;10 -->
<g id="edge21" class="edge"><title>188+189&#45;&gt;10</title>
<path fill="none" stroke="black" d="M973,-595.888C973,-591.767 973,-576.715 973,-559.608"/>
</g>
<!-- 10+11&#45;&gt;1 -->
<g id="edge25" class="edge"><title>10+11&#45;&gt;1</title>
<path fill="none" stroke="black" d="M901.414,-394.96C880.221,-394.409 652.782,-387.824 594,-358 586.217,-354.051 578.849,-348.866 572.022,-343.063"/>
</g>
<!-- 10+11&#45;&gt;14 -->
<g id="edge26" class="edge"><title>10+11&#45;&gt;14</title>
<path fill="none" stroke="black" d="M902.225,-393.742C898.894,-388.335 885.315,-366.294 871.138,-343.282"/>
</g>
<!-- 10+11&#45;&gt;15 -->
<g id="edge27" class="edge"><title>10+11&#45;&gt;15</title>
<path fill="none" stroke="black" d="M903.786,-393.742C907.241,-388.215 921.559,-365.306 936.283,-341.747"/>
</g>
<!-- 10+11&#45;&gt;16 -->
<g id="edge28" class="edge"><title>10+11&#45;&gt;16</title>
<path fill="none" stroke="black" d="M904.467,-394.894C915.799,-394.019 990.306,-387.273 1041,-358 1046.42,-354.869 1051.73,-351.247 1056.85,-347.319"/>
</g>
<!-- 1+2&#45;&gt;3 -->
<g id="edge29" class="edge"><title>1+2&#45;&gt;3</title>
<path fill="none" stroke="black" d="M329.123,-167.111C312.848,-167.99 194.291,-172.738 114,-130 107.903,-126.754 102.064,-122.672 96.5816,-118.148"/>
</g>
<!-- 1+2&#45;&gt;4 -->
<g id="edge30" class="edge"><title>1+2&#45;&gt;4</title>
<path fill="none" stroke="black" d="M329.666,-166.651C321.257,-164.409 274.913,-151.447 243,-130 238.827,-127.195 234.696,-124.092 230.664,-120.808"/>
</g>
<!-- 1+2&#45;&gt;5 -->
<g id="edge31" class="edge"><title>1+2&#45;&gt;5</title>
<path fill="none" stroke="black" d="M330.697,-165.866C329.318,-160.708 323.452,-138.766 317.569,-116.759"/>
</g>
<!-- 1+2&#45;&gt;6 -->
<g id="edge32" class="edge"><title>1+2&#45;&gt;6</title>
<path fill="none" stroke="black" d="M332.213,-165.866C336.871,-161.51 354.329,-145.183 373.82,-126.955"/>
</g>
<!-- 1+2&#45;&gt;7 -->
<g id="edge33" class="edge"><title>1+2&#45;&gt;7</title>
<path fill="none" stroke="black" d="M332.56,-166.997C346.093,-166.907 444.728,-165.041 513,-130 516.198,-128.359 519.356,-126.527 522.457,-124.549"/>
</g>
<!-- 1+9&#45;&gt;8 -->
<g id="edge34" class="edge"><title>1+9&#45;&gt;8</title>
<path fill="none" stroke="black" stroke-dasharray="5,2" d="M679.303,-165.866C680.798,-160.274 687.565,-134.96 693.912,-111.219"/>
</g>
<!-- 191+190&#45;&gt;192 -->
<g id="edge22" class="edge"><title>191+190&#45;&gt;192</title>
<path fill="none" stroke="black" d="M1256.55,-596.202C1249.98,-592.549 1222.48,-576.885 1203,-560 1197.19,-554.965 1191.39,-549.357 1185.84,-543.629"/>
</g>
<!-- 191+190&#45;&gt;194 -->
<g id="edge23" class="edge"><title>191+190&#45;&gt;194</title>
<path fill="none" stroke="black" d="M1258,-595.888C1258,-590.514 1258,-566.549 1258,-543.678"/>
</g>
<!-- 191+190&#45;&gt;196 -->
<g id="edge24" class="edge"><title>191+190&#45;&gt;196</title>
<path fill="none" stroke="black" d="M1259.45,-596.202C1266.02,-592.549 1293.52,-576.885 1313,-560 1318.81,-554.965 1324.61,-549.357 1330.16,-543.629"/>
</g>
</g>
</svg>
